  0
SECTION
  2
HEADER
  9
$ACADVER
  1
AC1014
  9
$HANDSEED
  5
FFFF
  9
$MEASUREMENT
 70
     1
  0
ENDSEC
  0
SECTION
  2
TABLES
  0
TABLE
  2
VPORT
  5
8
330
0
100
AcDbSymbolTable
 70
     4
  0
VPORT
  5
2E
330
8
100
AcDbSymbolTableRecord
100
AcDbViewportTableRecord
  2
*ACTIVE
 70
     0
 10
0.0
 20
0.0
 11
1.0
 21
1.0
 12
210.0
 22
148.5
 13
0.0
 23
0.0
 14
10.0
 24
10.0
 15
10.0
 25
10.0
 16
0.0
 26
0.0
 36
1.0
 17
0.0
 27
0.0
 37
0.0
 40
341.0
 41
1.24
 42
50.0
 43
0.0
 44
0.0
 50
0.0
 51
0.0
 71
     0
 72
   100
 73
     1
 74
     3
 75
     0
 76
     0
 77
     0
 78
     0
  0
ENDTAB
  0
TABLE
  2
LTYPE
  5
5
330
0
100
AcDbSymbolTable
 70
     1
  0
LTYPE
  5
14
330
5
100
AcDbSymbolTableRecord
100
AcDbLinetypeTableRecord
  2
BYBLOCK
 70
     0
  3

 72
    65
 73
     0
 40
0.0
  0
LTYPE
  5
15
330
5
100
AcDbSymbolTableRecord
100
AcDbLinetypeTableRecord
  2
BYLAYER
 70
     0
  3

 72
    65
 73
     0
 40
0.0
  0
LTYPE
  5
16
330
5
100
AcDbSymbolTableRecord
100
AcDbLinetypeTableRecord
  2
CONTINUOUS
 70
     0
  3
Solid line
 72
    65
 73
     0
 40
0.0
  0
ENDTAB
  0
TABLE
  2
LAYER
  5
2
100
AcDbSymbolTable
 70
1
  0
LAYER
  5
50
100
AcDbSymbolTableRecord
100
AcDbLayerTableRecord
  2
0
 70
0
  6
CONTINUOUS
  0
ENDTAB
  0
TABLE
  2
STYLE
  5
3
330
0
100
AcDbSymbolTable
 70
     1
  0
STYLE
  5
11
330
3
100
AcDbSymbolTableRecord
100
AcDbTextStyleTableRecord
  2
STANDARD
 70
     0
 40
0.0
 41
1.0
 50
0.0
 71
     0
 42
2.5
  3
txt
  4

  0
ENDTAB
  0
TABLE
  2
VIEW
  5
6
330
0
100
AcDbSymbolTable
 70
     0
  0
ENDTAB
  0
TABLE
  2
UCS
  5
7
330
0
100
AcDbSymbolTable
 70
     0
  0
ENDTAB
  0
TABLE
  2
APPID
  5
9
330
0
100
AcDbSymbolTable
 70
     2
  0
APPID
  5
12
330
9
100
AcDbSymbolTableRecord
100
AcDbRegAppTableRecord
  2
ACAD
 70
     0
  0
ENDTAB
  0
TABLE
  2
DIMSTYLE
  5
A
330
0
100
AcDbSymbolTable
 70
     1
  0
DIMSTYLE
105
27
330
A
100
AcDbSymbolTableRecord
100
AcDbDimStyleTableRecord
  2
ISO-25
 70
     0
  3

  4

  5

  6

  7

 40
1.0
 41
2.5
 42
0.625
 43
3.75
 44
1.25
 45
0.0
 46
0.0
 47
0.0
 48
0.0
140
2.5
141
2.5
142
0.0
143
0.03937007874016
144
1.0
145
0.0
146
1.0
147
0.625
 71
     0
 72
     0
 73
     0
 74
     0
 75
     0
 76
     0
 77
     1
 78
     8
170
     0
171
     3
172
     1
173
     0
174
     0
175
     0
176
     0
177
     0
178
     0
270
     2
271
     2
272
     2
273
     2
274
     3
340
11
275
     0
280
     0
281
     0
282
     0
283
     0
284
     8
285
     0
286
     0
287
     3
288
     0
  0
ENDTAB
  0
TABLE
  2
BLOCK_RECORD
  5
1
330
0
100
AcDbSymbolTable
 70
     1
  0
BLOCK_RECORD
  5
1F
330
1
100
AcDbSymbolTableRecord
100
AcDbBlockTableRecord
  2
*MODEL_SPACE
  0
BLOCK_RECORD
  5
1B
330
1
100
AcDbSymbolTableRecord
100
AcDbBlockTableRecord
  2
*PAPER_SPACE
  0
ENDTAB
  0
ENDSEC
  0
SECTION
  2
BLOCKS
  0
BLOCK
  5
20
330
1F
100
AcDbEntity
  8
0
100
AcDbBlockBegin
  2
*MODEL_SPACE
 70
     0
 10
0.0
 20
0.0
 30
0.0
  3
*MODEL_SPACE
  1

  0
ENDBLK
  5
21
330
1F
100
AcDbEntity
  8
0
100
AcDbBlockEnd
  0
BLOCK
  5
1C
330
1B
100
AcDbEntity
 67
     1
  8
0
100
AcDbBlockBegin
  2
*PAPER_SPACE
  1

  0
ENDBLK
  5
1D
330
1B
100
AcDbEntity
 67
     1
  8
0
100
AcDbBlockEnd
  0
ENDSEC
  0
SECTION
  2
ENTITIES
  0
LWPOLYLINE
  5
100
100
AcDbEntity
  8
0
 62
2
100
AcDbPolyline
 90
40
 70
1
 10
82.313702
 20
-62.385573
 30
0.0
 10
82.476261
 20
-62.454153
 30
0.0
 10
82.961401
 20
-62.654813
 30
0.0
 10
83.543060
 20
-63.043433
 30
0.0
 10
84.035820
 20
-63.536192
 30
0.0
 10
84.424440
 20
-64.117852
 30
0.0
 10
84.546359
 20
-64.409951
 30
0.0
 10
84.693679
 20
-64.765551
 30
0.0
 10
84.830839
 20
-65.451350
 30
0.0
 10
84.830839
 20
-66.149850
 30
0.0
 10
84.693679
 20
-66.835649
 30
0.0
 10
84.693679
 20
-66.835649
 30
0.0
 10
84.424440
 20
-67.483349
 30
0.0
 10
84.035820
 20
-68.065008
 30
0.0
 10
83.543060
 20
-68.557768
 30
0.0
 10
82.961401
 20
-68.946387
 30
0.0
 10
82.504201
 20
-69.136887
 30
0.0
 10
82.313702
 20
-69.215627
 30
0.0
 10
81.627902
 20
-69.352787
 30
0.0
 10
80.929403
 20
-69.352787
 30
0.0
 10
80.243604
 20
-69.215627
 30
0.0
 10
80.053104
 20
-69.136887
 30
0.0
 10
79.595904
 20
-68.946387
 30
0.0
 10
79.014245
 20
-68.557768
 30
0.0
 10
78.521485
 20
-68.065008
 30
0.0
 10
78.132866
 20
-67.483349
 30
0.0
 10
77.863626
 20
-66.835649
 30
0.0
 10
77.863626
 20
-66.835649
 30
0.0
 10
77.726466
 20
-66.149850
 30
0.0
 10
77.726466
 20
-65.451350
 30
0.0
 10
77.863626
 20
-64.765551
 30
0.0
 10
78.010946
 20
-64.409951
 30
0.0
 10
78.132866
 20
-64.117852
 30
0.0
 10
78.521485
 20
-63.536192
 30
0.0
 10
79.014245
 20
-63.043433
 30
0.0
 10
79.595904
 20
-62.654813
 30
0.0
 10
80.081044
 20
-62.454153
 30
0.0
 10
80.243604
 20
-62.385573
 30
0.0
 10
80.929403
 20
-62.248414
 30
0.0
 10
81.627902
 20
-62.248414
 30
0.0
  0
LWPOLYLINE
  5
101
100
AcDbEntity
  8
0
 62
2
100
AcDbPolyline
 90
40
 70
1
 10
18.813762
 20
-62.385573
 30
0.0
 10
18.976322
 20
-62.454153
 30
0.0
 10
19.461461
 20
-62.654813
 30
0.0
 10
20.043121
 20
-63.043433
 30
0.0
 10
20.535880
 20
-63.536192
 30
0.0
 10
20.924500
 20
-64.117852
 30
0.0
 10
21.046420
 20
-64.409951
 30
0.0
 10
21.193740
 20
-64.765551
 30
0.0
 10
21.330900
 20
-65.451350
 30
0.0
 10
21.330900
 20
-66.149850
 30
0.0
 10
21.193740
 20
-66.835649
 30
0.0
 10
21.193740
 20
-66.835649
 30
0.0
 10
20.924500
 20
-67.483349
 30
0.0
 10
20.535880
 20
-68.065008
 30
0.0
 10
20.043121
 20
-68.557768
 30
0.0
 10
19.461461
 20
-68.946387
 30
0.0
 10
19.004262
 20
-69.136887
 30
0.0
 10
18.813762
 20
-69.215627
 30
0.0
 10
18.127963
 20
-69.352787
 30
0.0
 10
17.429463
 20
-69.352787
 30
0.0
 10
16.743664
 20
-69.215627
 30
0.0
 10
16.553164
 20
-69.136887
 30
0.0
 10
16.095965
 20
-68.946387
 30
0.0
 10
15.514305
 20
-68.557768
 30
0.0
 10
15.021546
 20
-68.065008
 30
0.0
 10
14.632926
 20
-67.483349
 30
0.0
 10
14.363686
 20
-66.835649
 30
0.0
 10
14.363686
 20
-66.835649
 30
0.0
 10
14.226526
 20
-66.149850
 30
0.0
 10
14.226526
 20
-65.451350
 30
0.0
 10
14.363686
 20
-64.765551
 30
0.0
 10
14.511006
 20
-64.409951
 30
0.0
 10
14.632926
 20
-64.117852
 30
0.0
 10
15.021546
 20
-63.536192
 30
0.0
 10
15.514305
 20
-63.043433
 30
0.0
 10
16.095965
 20
-62.654813
 30
0.0
 10
16.581104
 20
-62.454153
 30
0.0
 10
16.743664
 20
-62.385573
 30
0.0
 10
17.429463
 20
-62.248414
 30
0.0
 10
18.127963
 20
-62.248414
 30
0.0
  0
LWPOLYLINE
  5
102
100
AcDbEntity
  8
0
 62
2
100
AcDbPolyline
 90
42
 70
1
 10
82.313702
 20
-12.347621
 30
0.0
 10
82.313702
 20
-12.347621
 30
0.0
 10
82.313702
 20
-12.347621
 30
0.0
 10
82.961401
 20
-12.616861
 30
0.0
 10
83.543060
 20
-13.005480
 30
0.0
 10
84.035820
 20
-13.498240
 30
0.0
 10
84.424440
 20
-14.079899
 30
0.0
 10
84.586999
 20
-14.473599
 30
0.0
 10
84.693679
 20
-14.727599
 30
0.0
 10
84.830839
 20
-15.413398
 30
0.0
 10
84.830839
 20
-16.111897
 30
0.0
 10
84.693679
 20
-16.797697
 30
0.0
 10
84.693679
 20
-16.797697
 30
0.0
 10
84.424440
 20
-17.445396
 30
0.0
 10
84.035820
 20
-18.027056
 30
0.0
 10
83.543060
 20
-18.519815
 30
0.0
 10
82.961401
 20
-18.908435
 30
0.0
 10
82.504201
 20
-19.098935
 30
0.0
 10
82.313702
 20
-19.177675
 30
0.0
 10
81.627902
 20
-19.314834
 30
0.0
 10
80.929403
 20
-19.314834
 30
0.0
 10
80.243604
 20
-19.177675
 30
0.0
 10
80.053104
 20
-19.098935
 30
0.0
 10
79.595904
 20
-18.908435
 30
0.0
 10
79.014245
 20
-18.519815
 30
0.0
 10
78.521485
 20
-18.027056
 30
0.0
 10
78.132866
 20
-17.445396
 30
0.0
 10
77.863626
 20
-16.797697
 30
0.0
 10
77.863626
 20
-16.797697
 30
0.0
 10
77.726466
 20
-16.111897
 30
0.0
 10
77.726466
 20
-15.413398
 30
0.0
 10
77.863626
 20
-14.727599
 30
0.0
 10
77.970306
 20
-14.473599
 30
0.0
 10
78.132866
 20
-14.079899
 30
0.0
 10
78.521485
 20
-13.498240
 30
0.0
 10
79.014245
 20
-13.005480
 30
0.0
 10
79.595904
 20
-12.616861
 30
0.0
 10
80.243604
 20
-12.347621
 30
0.0
 10
80.243604
 20
-12.347621
 30
0.0
 10
80.243604
 20
-12.347621
 30
0.0
 10
80.929403
 20
-12.210461
 30
0.0
 10
81.627902
 20
-12.210461
 30
0.0
  0
LWPOLYLINE
  5
103
100
AcDbEntity
  8
0
 62
2
100
AcDbPolyline
 90
42
 70
1
 10
18.559762
 20
-12.093621
 30
0.0
 10
18.559762
 20
-12.093621
 30
0.0
 10
18.559762
 20
-12.093621
 30
0.0
 10
19.207462
 20
-12.362861
 30
0.0
 10
19.789121
 20
-12.751481
 30
0.0
 10
20.281881
 20
-13.244240
 30
0.0
 10
20.670500
 20
-13.825900
 30
0.0
 10
20.822900
 20
-14.191659
 30
0.0
 10
20.939740
 20
-14.473599
 30
0.0
 10
21.076900
 20
-15.159398
 30
0.0
 10
21.076900
 20
-15.857898
 30
0.0
 10
20.939740
 20
-16.543697
 30
0.0
 10
20.901640
 20
-16.632597
 30
0.0
 10
20.670500
 20
-17.191396
 30
0.0
 10
20.281881
 20
-17.773056
 30
0.0
 10
19.789121
 20
-18.265815
 30
0.0
 10
19.207462
 20
-18.654435
 30
0.0
 10
18.773122
 20
-18.834775
 30
0.0
 10
18.559762
 20
-18.923675
 30
0.0
 10
17.873963
 20
-19.060835
 30
0.0
 10
17.175464
 20
-19.060835
 30
0.0
 10
16.489664
 20
-18.923675
 30
0.0
 10
16.276304
 20
-18.834775
 30
0.0
 10
15.841965
 20
-18.654435
 30
0.0
 10
15.260305
 20
-18.265815
 30
0.0
 10
14.767546
 20
-17.773056
 30
0.0
 10
14.378926
 20
-17.191396
 30
0.0
 10
14.147787
 20
-16.632597
 30
0.0
 10
14.109687
 20
-16.543697
 30
0.0
 10
13.972527
 20
-15.857898
 30
0.0
 10
13.972527
 20
-15.159398
 30
0.0
 10
14.109687
 20
-14.473599
 30
0.0
 10
14.226526
 20
-14.191659
 30
0.0
 10
14.378926
 20
-13.825900
 30
0.0
 10
14.767546
 20
-13.244240
 30
0.0
 10
15.260305
 20
-12.751481
 30
0.0
 10
15.841965
 20
-12.362861
 30
0.0
 10
16.489664
 20
-12.093621
 30
0.0
 10
16.489664
 20
-12.093621
 30
0.0
 10
16.489664
 20
-12.093621
 30
0.0
 10
17.175464
 20
-11.956461
 30
0.0
 10
17.873963
 20
-11.956461
 30
0.0
  0
LWPOLYLINE
  5
104
100
AcDbEntity
  8
0
 62
2
100
AcDbPolyline
 90
2
 70
0
 10
86.867917
 20
-10.175923
 30
0.0
 10
12.191988
 20
-10.175923
 30
0.0
  0
LWPOLYLINE
  5
105
100
AcDbEntity
  8
0
 62
2
100
AcDbPolyline
 90
2
 70
0
 10
86.867917
 20
-71.389865
 30
0.0
 10
86.867917
 20
-10.175923
 30
0.0
  0
LWPOLYLINE
  5
106
100
AcDbEntity
  8
0
 62
2
100
AcDbPolyline
 90
2
 70
0
 10
12.191988
 20
-71.389865
 30
0.0
 10
86.867917
 20
-71.389865
 30
0.0
  0
LWPOLYLINE
  5
107
100
AcDbEntity
  8
0
 62
2
100
AcDbPolyline
 90
2
 70
0
 10
12.191988
 20
-10.175923
 30
0.0
 10
12.191988
 20
-71.389865
 30
0.0
  0
ENDSEC
  0
SECTION
  2
OBJECTS
  0
DICTIONARY
  5
C
330
0
100
AcDbDictionary
  3
ACAD_GROUP
350
D
  3
ACAD_MLINESTYLE
350
17
  0
DICTIONARY
  5
D
330
C
100
AcDbDictionary
  0
DICTIONARY
  5
1A
330
C
100
AcDbDictionary
  0
DICTIONARY
  5
17
330
C
100
AcDbDictionary
  3
STANDARD
350
18
  0
DICTIONARY
  5
19
330
C
100
AcDbDictionary
  0
ENDSEC
  0
EOF
