M48
; DRILL file {KiCad (5.1.2-1)-1} date Wednesday, November 16, 2022 at 06:05:22 PM
; FORMAT={-:-/ absolute / inch / decimal}
; #@! TF.CreationDate,2022-11-16T18:05:22-05:00
; #@! TF.GenerationSoftware,Kicad,Pcbnew,(5.1.2-1)-1
FMAT,2
INCH
T1C0.0157
T2C0.0197
T3C0.0300
T4C0.0315
T5C0.0335
T6C0.0354
T7C0.0374
T8C0.0394
T9C0.0394
T10C0.0433
T11C0.0472
T12C0.0512
T13C0.0531
T14C0.0591
T15C0.0669
T16C0.0787
T17C0.0945
T18C0.1181
T19C0.1378
T20C0.0984
%
G90
G05
T1
X1.1343Y-5.9492
X1.1366Y-5.439
X1.2433Y-4.7839
X1.6461Y-5.9508
X1.6539Y-5.439
X1.7106Y-4.211
X1.7106Y-4.211
X1.7728Y-3.2957
X1.8161Y-4.2654
X1.8966Y-3.9954
X1.9004Y-5.313
X1.9051Y-5.3921
X1.9287Y-4.2598
X2.0083Y-3.8028
X2.0681Y-1.0843
X2.0713Y-3.8567
X2.0744Y-3.9083
X2.0878Y-3.5165
X2.1047Y-3.9417
X2.1094Y-4.1795
X2.1106Y-4.2394
X2.1587Y-5.9472
X2.1602Y-5.4421
X2.1685Y-4.024
X2.1929Y-5.1059
X2.2024Y-4.9622
X2.2146Y-3.778
X2.2567Y-4.9819
X2.3539Y-4.6417
X2.356Y-5.4477
X2.3911Y-5.5604
X2.4055Y-4.6417
X2.4417Y-5.0524
X2.5063Y-4.6421
X2.5929Y-2.4311
X2.6492Y-2.6748
X2.6701Y-5.9563
X2.6713Y-5.4465
X2.7815Y-2.2732
X2.8039Y-2.7299
X2.8472Y-2.6669
X2.8555Y-3.6189
X2.9361Y-2.7147
X2.9957Y-3.6047
X3.0409Y-4.1461
X3.1693Y-3.9929
X3.1799Y-5.9531
X3.1803Y-4.7028
X3.1835Y-5.4323
X3.1866Y-3.9535
X3.2677Y-4.3417
X3.3327Y-2.8043
X3.3531Y-4.3787
X3.3626Y-3.2902
X3.3807Y-3.9409
X3.3823Y-3.9906
X3.3846Y-3.8894
X3.435Y-3.2228
X3.4591Y-3.2646
X3.5098Y-5.0555
X3.5157Y-3.3783
X3.5205Y-5.0173
X3.5713Y-4.0437
X3.5902Y-4.9748
X3.5925Y-3.6079
X3.5996Y-4.5524
X3.6047Y-4.9319
X3.6087Y-4.8823
X3.6248Y-5.1197
X3.6551Y-5.089
X3.674Y-5.002
X3.6929Y-5.95
X3.6961Y-5.4402
X3.698Y-4.5539
X3.7165Y-4.15
X3.7173Y-4.2433
X3.7465Y-4.9717
X3.75Y-4.5524
X3.7866Y-4.1264
X3.8094Y-4.9291
X3.811Y-4.089
X3.8287Y-4.1461
X3.8327Y-2.0709
X3.8382Y-3.5264
X3.8524Y-4.5531
X3.8681Y-3.826
X3.8795Y-4.2583
X3.9181Y-4.274
X4.0606Y-3.9882
X4.0661Y-3.9043
X4.1134Y-5.0256
X4.152Y-4.9173
X4.1839Y-5.4949
X4.2087Y-5.9547
X4.2614Y-5.2382
X4.2689Y-3.9772
X4.3146Y-5.2232
X4.3323Y-3.9795
X4.3413Y-3.437
X4.4626Y-4.9272
X4.7169Y-5.4398
X4.7169Y-5.9484
X4.7697Y-4.6988
X4.822Y-3.4236
X4.9122Y-3.3256
X4.9197Y-4.0567
X4.9283Y-3.0106
X4.9406Y-3.9484
X4.9465Y-3.35
X4.961Y-3.0386
X4.9642Y-4.0614
X4.9819Y-3.9524
X5.0736Y-3.0921
X5.1126Y-3.1508
X5.2378Y-1.1067
X5.3307Y-1.8709
X5.3941Y-4.5811
X5.4311Y-3.8657
X5.5118Y-4.6059
X5.7189Y-5.1512
X6.0173Y-0.7224
X6.0909Y-3.985
X6.1343Y-0.6417
X6.1551Y-5.0913
X6.1803Y-4.713
X6.2016Y-5.2098
X6.226Y-4.7539
X6.2787Y-4.661
X6.285Y-3.7264
X6.3756Y-3.8087
X6.4098Y-5.0665
X6.5492Y-4.9063
X6.5492Y-4.9567
X6.5492Y-5.0071
X6.5543Y-5.1016
X6.5807Y-1.9335
X6.6626Y-2.5724
X6.6803Y-2.5193
X6.7126Y-1.698
X6.8154Y-1.5205
X6.8213Y-1.8075
X6.8421Y-1.8602
X6.9382Y-1.4094
X6.9768Y-2.4299
X6.9807Y-1.448
X7.0831Y-2.7059
X7.089Y-1.9307
X7.1189Y-1.7945
X7.2035Y-3.4539
X7.235Y-3.4795
X7.261Y-2.1728
X7.2717Y-3.3315
X7.2764Y-3.5091
X7.302Y-3.3709
X7.3161Y-3.539
X7.376Y-0.728
X7.4724Y-3.4024
X7.5146Y-3.3646
X7.5705Y-1.0295
X7.5913Y-0.6528
X7.6075Y-1.8933
X7.7535Y-6.3177
X7.7874Y-1.4236
X7.8079Y-3.8937
X7.8091Y-1.6823
X7.8378Y-1.4075
X7.8531Y-1.6709
X7.8811Y-1.8488
X7.898Y-1.6701
X7.9327Y-1.8343
X7.9409Y-2.5937
X7.9469Y-1.6701
X7.95Y-5.3787
X7.9579Y-1.7701
X7.9976Y-1.6701
X8.0043Y-1.7335
X8.0181Y-1.4894
X8.0492Y-1.5437
X8.0996Y-1.6744
X8.1492Y-1.6776
X8.1496Y-1.4776
X8.2315Y-2.7173
X8.2425Y-2.4484
X8.2638Y-1.2476
X8.2772Y-1.2906
X8.3Y-2.7465
X8.3319Y-1.5024
X8.4303Y-1.7189
X8.7606Y-3.2055
X8.7862Y-6.1374
X8.8697Y-6.3295
X8.8791Y-3.4039
X8.8831Y-3.2736
X8.9213Y-3.2004
X9.0106Y-3.7752
X9.1166Y-3.3499
X9.2205Y-3.489
X9.2469Y-4.7661
X9.265Y-6.4043
X9.3921Y-4.9795
X9.4161Y-3.6055
X9.4256Y-3.465
X9.4862Y-2.1555
X9.5323Y-2.113
X9.535Y-3.2913
X9.5402Y-5.4642
X9.5417Y-2.6472
X9.563Y-2.0665
X9.6028Y-2.4047
X9.6303Y-2.5539
X9.6394Y-3.1701
X9.6669Y-1.6059
X9.678Y-2.5201
X9.6827Y-3.3461
X9.7311Y-2.5091
X9.7575Y-5.9181
X9.8138Y-5.4402
X9.831Y-2.9598
X9.8685Y-3.2315
X9.9276Y-1.3028
X10.035Y-3.3874
X10.1492Y-5.8693
X10.1953Y-5.5303
X10.2539Y-2.7543
X10.2961Y-4.6394
X10.3209Y-4.674
X10.3394Y-4.7094
X10.3441Y-4.5673
X10.3543Y-4.7484
X10.3724Y-4.7858
X10.4268Y-3.0394
X10.4693Y-4.5874
X10.489Y-4.6252
X10.5035Y-4.663
X10.5098Y-4.4563
X10.5268Y-4.7004
X10.5504Y-4.7382
X10.5937Y-2.9665
X10.6248Y-3.6547
X10.6287Y-3.4689
X10.7114Y-2.9764
X10.776Y-3.698
X10.811Y-3.2205
X10.8138Y-3.2776
X10.8248Y-3.1803
X11.2657Y-5.3917
X11.3748Y-5.6437
X11.4347Y-5.3197
X11.6768Y-4.8811
X11.839Y-4.0681
X11.8472Y-3.9701
X11.9102Y-2.6527
X11.9264Y-4.472
X11.9311Y-5.6122
X11.9406Y-1.1197
X11.9524Y-5.6744
X11.9643Y-2.6513
X12.0041Y-2.6659
X12.028Y-1.148
X12.0586Y-2.7043
X12.1744Y-2.8409
X12.1984Y-4.4669
X12.2402Y-4.3429
X12.2409Y-3.8571
X12.2744Y-3.8173
X12.2899Y-5.5593
X12.3425Y-4.0142
X12.3461Y-3.4874
X12.3535Y-5.3984
X12.3575Y-5.4488
X12.3827Y-3.9665
X12.4339Y-3.9343
X12.485Y-4.689
X12.5323Y-5.2323
X12.5724Y-3.6547
X12.5874Y-3.878
X12.5969Y-6.2449
X12.5987Y-4.9983
X12.6209Y-3.9173
X12.6429Y-5.4181
X12.6445Y-3.4689
X12.6472Y-4.876
X12.6677Y-3.9819
X12.674Y-1.4327
X12.7043Y-1.1083
X12.7106Y-2.3248
X12.7142Y-3.7965
X12.7359Y-2.7889
X12.7598Y-1.3787
X12.7638Y-4.9055
X12.7882Y-4.7579
X12.8083Y-1.111
X12.8102Y-1.415
X12.8165Y-4.3
X12.8283Y-5.4173
X12.8445Y-5.037
X12.8496Y-1.4469
X12.9154Y-5.1059
X12.9516Y-4.5795
X12.9697Y-5.1232
X12.9791Y-3.6248
X12.9969Y-1.4748
X13.0035Y-1.3811
X13.0189Y-5.1524
X13.0437Y-6.1118
X13.0657Y-3.9969
X13.0882Y-6.0563
X13.1122Y-5.0335
X13.1449Y-3.7469
X13.1465Y-3.6189
X13.1803Y-6.3661
X13.1862Y-3.8705
X13.1906Y-1.587
X13.2083Y-3.6756
X13.2276Y-6.3185
X13.2472Y-1.8043
X13.2476Y-5.9035
X13.265Y-2.6957
X13.274Y-2.4016
X13.3055Y-1.785
X13.3222Y-2.8364
X13.3535Y-3.939
X13.3563Y-5.5087
X13.3709Y-4.6287
X13.3713Y-1.7815
X13.3717Y-2.7505
X13.4118Y-3.913
X13.4173Y-2.6862
X13.4327Y-4.298
X13.4362Y-5.6154
X13.4492Y-2.5244
X13.4862Y-2.4598
X13.4906Y-3.3268
X13.5102Y-3.4028
X13.526Y-2.5602
X13.526Y-3.7067
X13.5429Y-5.7067
X13.5559Y-4.787
X13.5933Y-2.9291
X13.6161Y-4.1811
X13.6213Y-3.4646
X13.6457Y-3.5264
X13.6909Y-3.5264
X13.7307Y-4.3862
X13.8543Y-2.5744
X13.961Y-3.2256
X13.9669Y-5.485
X13.9886Y-4.7547
X13.9937Y-4.5051
X14.0042Y-4.3767
X14.0571Y-2.4886
X14.1484Y-2.5906
X14.1724Y-3.8319
X14.1756Y-3.7748
X14.1811Y-3.7059
X14.202Y-2.5791
X14.2059Y-3.6555
X14.322Y-3.9472
X14.324Y-3.8953
X14.4039Y-4.3055
X14.5272Y-4.7606
X14.5272Y-4.7606
X14.5744Y-4.8047
X14.6453Y-4.8571
X15.0252Y-4.7232
T2
X4.0482Y-2.4075
X4.0785Y-2.3344
X4.0785Y-2.4806
X4.1516Y-2.3041
X4.1516Y-2.5108
X4.2247Y-2.3344
X4.2247Y-2.4806
X4.2549Y-2.4075
X14.7904Y-6.1831
X14.8206Y-6.11
X14.8206Y-6.2561
X14.8937Y-6.0797
X14.8937Y-6.2864
X14.9668Y-6.11
X14.9668Y-6.2561
X14.997Y-6.1831
X0.7648Y-4.3465
X0.795Y-4.2734
X0.795Y-4.4195
X0.8681Y-4.2431
X0.8681Y-4.4498
X0.9412Y-4.2734
X0.9412Y-4.4195
X0.9715Y-4.3465
X5.8026Y-5.0425
X5.8328Y-4.9694
X5.8328Y-5.1156
X5.9059Y-4.9392
X5.9059Y-5.1459
X5.979Y-4.9694
X5.979Y-5.1156
X6.0093Y-5.0425
X2.2549Y-1.5256
X2.2852Y-1.4525
X2.2852Y-1.5987
X2.3583Y-1.4222
X2.3583Y-1.6289
X2.4313Y-1.4525
X2.4313Y-1.5987
X2.4616Y-1.5256
X11.2136Y-2.8445
X11.2439Y-2.7714
X11.2439Y-2.9176
X11.3169Y-2.7411
X11.3169Y-2.9478
X11.39Y-2.7714
X11.39Y-2.9176
X11.4203Y-2.8445
X12.2805Y-4.2008
X12.3108Y-4.1277
X12.3108Y-4.2739
X12.3839Y-4.0974
X12.3839Y-4.3041
X12.4569Y-4.1277
X12.4569Y-4.2739
X12.4872Y-4.2008
X2.251Y-4.3425
X2.2813Y-4.2694
X2.2813Y-4.4156
X2.3543Y-4.2392
X2.3543Y-4.4459
X2.4274Y-4.2694
X2.4274Y-4.4156
X2.4577Y-4.3425
X7.4719Y-2.7217
X7.5021Y-2.6486
X7.5021Y-2.7947
X7.5752Y-2.6183
X7.5752Y-2.825
X7.6483Y-2.6486
X7.6483Y-2.7947
X7.6785Y-2.7217
X4.0482Y-4.3799
X4.0785Y-4.3068
X4.0785Y-4.453
X4.1516Y-4.2766
X4.1516Y-4.4833
X4.2247Y-4.3068
X4.2247Y-4.453
X4.2549Y-4.3799
X9.5522Y-5.1654
X9.5824Y-5.0923
X9.5824Y-5.2384
X9.6555Y-5.062
X9.6555Y-5.2687
X9.7286Y-5.0923
X9.7286Y-5.2384
X9.7589Y-5.1654
T3
X3.4799Y-6.0075
X3.4799Y-6.3075
X3.7803Y-6.0071
X3.7803Y-6.3079
X3.9917Y-5.4957
X3.9917Y-5.7957
X4.2921Y-5.4953
X4.2921Y-5.7961
X2.4563Y-5.4957
X2.4563Y-5.7957
X2.7567Y-5.4953
X2.7567Y-5.7961
X0.6689Y-3.0862
X0.6689Y-3.3862
X0.9693Y-3.0858
X0.9693Y-3.3866
X0.7161Y-4.5744
X0.7161Y-4.8744
X1.0165Y-4.574
X1.0165Y-4.8748
X1.1445Y-1.2146
X1.3374Y-0.6161
X1.5303Y-1.2146
X13.2909Y-6.0705
X13.2909Y-6.3705
X13.5913Y-6.0701
X13.5913Y-6.3709
X4.4327Y-3.4957
X4.4327Y-3.7957
X4.7331Y-3.4953
X4.7331Y-3.7961
X2.4563Y-6.0075
X2.4563Y-6.3075
X2.7567Y-6.0071
X2.7567Y-6.3079
X1.9445Y-6.0075
X1.9445Y-6.3075
X2.2449Y-6.0071
X2.2449Y-6.3079
X4.5035Y-5.4957
X4.5035Y-5.7957
X4.8039Y-5.4953
X4.8039Y-5.7961
X2.9681Y-5.4957
X2.9681Y-5.7957
X3.2685Y-5.4953
X3.2685Y-5.7961
X0.9209Y-5.4957
X0.9209Y-5.7957
X1.2213Y-5.4953
X1.2213Y-5.7961
X5.0862Y-4.0311
X5.0862Y-4.3311
X5.3866Y-4.0307
X5.3866Y-4.3315
X1.4327Y-5.4957
X1.4327Y-5.7957
X1.7331Y-5.4953
X1.7331Y-5.7961
X13.7402Y-1.7429
X13.7402Y-2.0429
X14.0406Y-1.7425
X14.0406Y-2.0433
X6.0548Y0.0027
X6.0548Y-0.2473
X6.0548Y-0.4973
X6.5048Y-0.2473
X6.5052Y0.0027
X6.5052Y-0.4973
X15.165Y-4.5114
X15.165Y-4.8114
X15.4654Y-4.511
X15.4654Y-4.8118
X3.4799Y-5.4957
X3.4799Y-5.7957
X3.7803Y-5.4953
X3.7803Y-5.7961
X1.7083Y-3.1728
X1.7083Y-3.4728
X2.0087Y-3.1724
X2.0087Y-3.4732
X1.4327Y-6.0075
X1.4327Y-6.3075
X1.7331Y-6.0071
X1.7331Y-6.3079
X2.9681Y-6.0075
X2.9681Y-6.3075
X3.2685Y-6.0071
X3.2685Y-6.3079
X5.0703Y-0.0013
X5.0703Y-0.5013
X5.7097Y-0.0013
X5.7097Y-0.5013
X1.0469Y-3.8736
X1.0469Y-4.1736
X1.3472Y-3.8732
X1.3472Y-4.174
X11.7161Y-4.1098
X11.7161Y-4.4098
X12.0165Y-4.1094
X12.0165Y-4.4102
X1.9445Y-5.4957
X1.9445Y-5.7957
X2.2449Y-5.4953
X2.2449Y-5.7961
X0.9209Y-6.0075
X0.9209Y-6.3075
X1.2213Y-6.0071
X1.2213Y-6.3079
X4.5035Y-6.0075
X4.5035Y-6.3075
X4.8039Y-6.0071
X4.8039Y-6.3079
X14.9839Y-2.913
X14.9839Y-3.213
X15.2843Y-2.9126
X15.2843Y-3.2134
X5.289Y-4.7949
X5.289Y-5.0949
X5.5894Y-4.7945
X5.5894Y-5.0953
X14.1256Y-3.661
X14.1256Y-3.961
X14.426Y-3.6606
X14.426Y-3.9614
X3.9917Y-6.0075
X3.9917Y-6.3075
X4.2921Y-6.0071
X4.2921Y-6.3079
X5.2831Y-5.8421
X5.2831Y-6.1421
X5.5835Y-5.8417
X5.5835Y-6.1425
T4
X1.4272Y-4.0984
X1.7016Y-3.9972
X1.8028Y-3.7961
X1.8469Y-3.3315
X1.9472Y-2.2134
X2.0043Y-4.2846
X2.0811Y-3.324
X2.1358Y-1.039
X2.4063Y-4.7866
X2.4539Y-4.537
X2.5449Y-4.9764
X2.9646Y-2.3087
X2.9693Y-2.465
X3.1957Y-3.4031
X3.252Y-3.9571
X3.3646Y-4.2409
X3.4909Y-4.4083
X3.9043Y-2.0217
X3.9102Y-4.813
X4.4602Y-4.661
X4.7618Y-5.0445
X5.2563Y-4.2035
X5.4299Y-6.0075
X5.4374Y-4.9551
X5.4594Y-4.172
X5.6674Y-4.1511
X5.7122Y-1.9713
X5.7559Y-1.2154
X5.879Y-0.8982
X5.8866Y-1.165
X6.1268Y-4.9453
X6.2559Y-0.589
X6.2996Y-5.3886
X6.4906Y-1.8638
X6.6425Y-1.3697
X6.6465Y-1.8075
X6.7217Y-2.1906
X7.0311Y-2.8295
X7.2236Y-5.0217
X7.3787Y-5.1917
X7.5161Y-6.2768
X7.8579Y-3.837
X7.8969Y-1.3315
X8.0161Y-5.1146
X8.126Y-5.5571
X8.337Y-0.6508
X8.3732Y-5.1638
X8.8362Y-1.7839
X9.1161Y-6.2122
X9.2933Y-5.261
X9.2933Y-5.261
X9.3433Y-5.6736
X9.365Y-2.6457
X9.411Y-3.1394
X9.4646Y-2.8067
X9.5031Y-3.7035
X9.5311Y-6.2461
X9.6083Y-0.8843
X9.665Y-3.4476
X9.7181Y-5.7638
X9.7327Y-3.5591
X9.7823Y-1.0846
X9.8177Y-2.8697
X9.8433Y-3.9854
X9.8783Y-1.2677
X9.9039Y-2.2382
X9.9063Y-5.339
X9.9193Y-5.7102
X9.9461Y-2.1299
X10.4531Y-3.6917
X10.9713Y-4.6067
X11.0937Y-5.4087
X11.1028Y-6.315
X11.2705Y-3.8535
X11.3118Y-0.524
X11.3122Y-6.189
X11.4354Y-5.5551
X11.6Y-4.8276
X11.6795Y-5.0394
X11.6878Y-0.6827
X11.8484Y-5.9839
X11.9992Y-5.7272
X12.0917Y-4.2177
X12.226Y-5.9441
X12.3299Y-3.7579
X12.418Y-3.6537
X12.4461Y-5.6823
X12.5961Y-3.815
X12.8508Y-4.5811
X13.4654Y-4.0079
X13.4988Y-6.2512
X13.5516Y-5.2303
X13.5681Y-3.2508
X13.5736Y-3.8961
X13.6004Y-5.4496
X13.6142Y-3.7209
X13.6469Y-3.9126
X13.6606Y-6.2161
X13.6764Y-2.7051
X13.7177Y-3.5764
X13.7594Y-5.5528
X13.7862Y-4.1685
X13.8744Y-4.7445
X13.9236Y-2.9173
X13.998Y-5.7539
X14.0154Y-3.4346
X14.0228Y-2.3673
X14.0516Y-4.0677
X14.0594Y-5.2815
X14.1175Y-4.3211
X14.1205Y-1.8795
X14.1489Y-4.4369
X14.2531Y-2.5445
X14.2795Y-4.6457
X14.3394Y-4.4173
X14.3756Y-3.2886
X14.4087Y-4.9287
X14.413Y-4.4374
X14.4442Y-2.4735
X14.5028Y-3.8091
X14.522Y-5.1173
X14.5224Y-1.8449
X14.8465Y-2.8795
X14.9535Y-2.6614
X15.0657Y-4.6492
X15.1098Y-2.7193
X15.2953Y-4.55
X15.3689Y-3.0516
X5.3878Y-1.3736
X5.3878Y-1.4736
X5.3878Y-1.5736
X5.3878Y-1.6736
X5.6878Y-1.3736
X5.6878Y-1.4736
X5.6878Y-1.5736
X5.6878Y-1.6736
X10.3386Y-3.8992
X10.3386Y-3.9992
X10.3386Y-4.0992
X10.3386Y-4.1992
X10.6386Y-3.8992
X10.6386Y-3.9992
X10.6386Y-4.0992
X10.6386Y-4.1992
X8.3634Y-4.9047
X8.5562Y-5.1345
X14.3028Y-2.7575
X14.3894Y-2.7075
X14.476Y-2.6575
X8.0252Y-5.7925
X8.0252Y-5.8925
X8.0252Y-5.9925
X7.0881Y-0.7793
X7.0881Y-1.0793
X7.1881Y-0.7793
X7.1881Y-1.0793
X15.261Y-2.1571
X15.261Y-2.4571
X15.361Y-2.1571
X15.361Y-2.4571
X15.461Y-2.1571
X15.461Y-2.4571
X15.561Y-2.1571
X15.561Y-2.4571
X4.5976Y-0.5374
X4.5976Y-0.6374
X4.5976Y-0.7374
X4.5976Y-0.8374
X4.8976Y-0.5374
X4.8976Y-0.6374
X4.8976Y-0.7374
X4.8976Y-0.8374
X7.8229Y-5.1404
X8.0157Y-4.9106
X12.7177Y-3.5012
X12.8142Y-2.9406
X12.8142Y-3.0193
X12.8177Y-3.5012
X12.893Y-2.9406
X12.893Y-3.0193
X12.9717Y-2.9406
X12.9717Y-3.0193
T5
X15.3362Y-0.7988
X15.3362Y-0.8988
X15.3362Y-0.9988
X15.3362Y-1.0988
X15.3362Y-1.1988
X15.3362Y-1.2988
X15.3362Y-1.3988
X15.3362Y-1.4988
X15.3362Y-1.5988
T6
X12.9843Y-5.8819
X13.0843Y-5.8819
X12.6378Y-5.4961
X12.7378Y-5.4961
X12.315Y-5.0945
X12.415Y-5.0945
X12.0472Y-4.685
X12.1472Y-4.685
T7
X10.6701Y-0.1319
X10.6701Y-0.2303
X10.6701Y-0.3287
X7.1949Y-4.5642
X7.2933Y-4.5642
X7.3917Y-4.5642
X7.4902Y-4.5642
X7.5886Y-4.5642
X7.5217Y-3.6346
X7.6069Y-3.6839
X7.6921Y-3.7331
X7.7732Y-3.1346
X7.8585Y-3.1839
X7.9437Y-3.2331
X7.3642Y-4.0142
X7.4626Y-4.0142
X7.561Y-4.0142
X7.3709Y-4.2878
X7.4693Y-4.2878
X7.5677Y-4.2878
X7.6559Y-3.3929
X7.7411Y-3.4421
X7.8264Y-3.4913
T8
X0.75Y-0.4096
X0.8484Y-0.4096
X0.9469Y-0.4096
X9.7126Y-3.0535
X6.7874Y-5.4094
X6.8858Y-5.4094
X6.9843Y-5.4094
X11.469Y-5.6572
X11.6198Y-5.7837
X11.6709Y-5.5696
X11.037Y-5.0896
X11.1246Y-5.2916
X11.2511Y-5.1408
X8.3701Y-6.0
X8.4685Y-6.0
X8.5669Y-6.0
X11.5551Y-2.1673
X11.6535Y-2.1673
X11.752Y-2.1673
X2.6142Y-1.2047
X2.7126Y-1.2047
X2.811Y-1.2047
X6.5728Y-4.0748
X6.6713Y-4.0748
X6.7697Y-4.0748
X14.9051Y-1.2598
X15.0035Y-1.2598
X15.102Y-1.2598
X3.8898Y-1.2047
X3.9882Y-1.2047
X4.0866Y-1.2047
X11.2733Y-4.8866
X11.3244Y-4.6726
X11.4752Y-4.7991
X11.8654Y-3.3669
X11.9638Y-3.3669
X12.0622Y-3.3669
X3.6772Y-3.0551
X3.7756Y-3.0551
X3.874Y-3.0551
X14.4252Y-5.9921
X14.5236Y-5.9921
X14.622Y-5.9921
X10.2913Y-5.6457
X10.3898Y-5.6457
X10.4882Y-5.6457
X14.4758Y-0.4039
X14.5743Y-0.4039
X14.6727Y-0.4039
X12.2176Y-0.4039
X12.316Y-0.4039
X12.4144Y-0.4039
X8.7602Y-2.6654
X8.8587Y-2.6654
X8.9571Y-2.6654
X10.2307Y-6.0437
X8.4583Y-3.3811
X8.5567Y-3.3811
X8.6551Y-3.3811
X7.2598Y-1.7165
X7.3583Y-1.7165
X7.4567Y-1.7165
X8.5272Y-5.2744
X8.6537Y-5.4252
X8.7412Y-5.2233
X3.012Y-0.4096
X3.1104Y-0.4096
X3.2089Y-0.4096
X1.8283Y-1.8425
X1.9268Y-1.8425
X2.0252Y-1.8425
X6.415Y-4.7201
X6.5134Y-4.7201
X6.6118Y-4.7201
X13.2858Y-5.3055
X13.3843Y-5.3055
X13.4827Y-5.3055
X12.3674Y-5.8984
X12.5272Y-6.0497
X12.5524Y-5.8311
X5.0588Y-1.728
X5.1328Y-1.8161
X1.3622Y-2.5276
X1.4606Y-2.5276
X1.5591Y-2.5276
X10.9764Y-4.0
X11.0748Y-4.0
X11.1732Y-4.0
X10.7874Y-4.8425
X10.8858Y-4.8425
X10.9843Y-4.8425
X13.7231Y-0.4039
X13.8215Y-0.4039
X13.9199Y-0.4039
X15.4039Y-1.7831
X15.6008Y-1.6846
X15.6008Y-1.8815
X9.9697Y-3.1941
X4.4724Y-2.8268
X4.5709Y-2.8268
X4.6693Y-2.8268
X6.252Y-6.0394
X6.3504Y-6.0394
X6.4488Y-6.0394
X9.2441Y-2.3543
X9.2441Y-2.5512
X9.4409Y-2.4528
X11.4649Y-0.4039
X11.5633Y-0.4039
X11.6617Y-0.4039
X7.1012Y-3.661
X7.1996Y-3.661
X7.298Y-3.661
X9.0236Y-5.3858
X9.122Y-5.3858
X9.2205Y-5.3858
X14.8941Y-4.278
X14.9925Y-4.278
X15.0909Y-4.278
X11.8723Y-5.235
X11.9988Y-5.0843
X12.0863Y-5.2862
X14.0638Y-5.0476
X14.2343Y-4.9492
X14.2474Y-5.1689
X6.5591Y-1.2047
X6.6575Y-1.2047
X6.7559Y-1.2047
X2.258Y-0.4096
X2.3564Y-0.4096
X2.4549Y-0.4096
X9.4016Y-1.6772
X9.5Y-1.6772
X9.5984Y-1.6772
X14.5748Y-2.3307
X14.6732Y-2.3307
X14.7717Y-2.3307
X0.9291Y-1.8661
X1.0276Y-1.8661
X1.126Y-1.8661
X4.3701Y-4.8031
X4.3701Y-4.9016
X4.3701Y-5.0
X4.9409Y-4.8031
X4.9409Y-5.0
X2.9213Y-1.9291
X3.0197Y-1.9291
X3.1181Y-1.9291
X4.52Y-0.4096
X4.6184Y-0.4096
X4.7169Y-0.4096
X14.7815Y-1.5563
X14.8799Y-1.3594
X14.9783Y-1.5563
X1.504Y-0.4096
X1.6024Y-0.4096
X1.7009Y-0.4096
X1.3386Y-4.7638
X1.3386Y-4.8622
X1.3386Y-4.9606
X1.9094Y-4.7638
X1.9094Y-4.9606
X12.9703Y-0.4039
X13.0688Y-0.4039
X13.1672Y-0.4039
X13.748Y-1.2362
X13.8465Y-1.2362
X13.9449Y-1.2362
X4.355Y-0.9995
X4.4125Y-1.0991
X12.8709Y-6.1035
X2.6508Y-4.9969
X2.7508Y-4.9969
X2.8508Y-4.9969
X2.9508Y-4.9969
X3.0508Y-4.9969
X3.1508Y-4.9969
X3.2508Y-4.9969
X3.3508Y-4.9969
X5.2685Y-3.2441
X5.3669Y-3.2441
X5.4654Y-3.2441
X9.744Y-3.328
X9.8315Y-3.5299
X9.958Y-3.3791
X8.7374Y-4.6902
X8.8358Y-4.6902
X8.9343Y-4.6902
X15.0945Y-5.6929
X15.1929Y-5.6929
X15.2913Y-5.6929
X2.7925Y-5.2268
X2.8925Y-5.2268
X2.9925Y-5.2268
X3.0925Y-5.2268
X3.1925Y-5.2268
X3.2925Y-5.2268
X3.3925Y-5.2268
X3.4925Y-5.2268
X4.6929Y-1.5984
X4.7913Y-1.5984
X4.8898Y-1.5984
X15.2024Y-1.7657
X15.2024Y-1.8642
X7.5873Y-5.293
X7.6748Y-5.4949
X7.8013Y-5.3441
X5.1496Y-2.5512
X5.248Y-2.5512
X5.3465Y-2.5512
X8.9055Y-1.1024
X9.0039Y-1.1024
X9.1024Y-1.1024
X6.1441Y-3.3882
X6.2425Y-3.3882
X6.3409Y-3.3882
X9.0Y-4.0
X9.0984Y-4.0
X9.1969Y-4.0
X15.2286Y-0.4039
X15.327Y-0.4039
X15.4254Y-0.4039
X8.8902Y-2.9213
X8.8902Y-3.1181
X9.087Y-3.0197
X10.6488Y-2.5276
X10.7472Y-2.5276
X10.8457Y-2.5276
X10.8031Y-1.5512
X10.9016Y-1.5512
X11.0Y-1.5512
X11.8291Y-6.1165
X11.8965Y-6.3015
X12.0478Y-6.1417
X3.766Y-0.4096
X3.8644Y-0.4096
X3.9629Y-0.4096
X12.0783Y-1.0213
X12.1768Y-1.0213
X12.2752Y-1.0213
X10.2161Y-3.5831
X10.3146Y-3.5831
X10.413Y-3.5831
X5.2913Y-0.4539
X5.3898Y-0.4539
X5.4882Y-0.4539
T9
X14.1008Y-3.4024
X8.2299Y-3.2083
X14.92Y-0.18
X5.226Y-3.3661
X14.6791Y-1.224
X5.5752Y-2.5524
X1.3543Y-1.3398
X9.8757Y-4.601
X3.52Y-0.3
X1.5898Y-2.6504
X13.9425Y-1.5142
X12.226Y-1.6894
X11.5126Y-5.872
X6.1673Y-6.1583
X14.99Y-0.36
X14.0992Y-5.6508
X9.0614Y-5.5051
X13.9012Y-3.1661
X2.0437Y-1.961
X2.385Y-1.102
X13.6591Y-5.9134
X9.2035Y-5.5051
X14.6724Y-4.6157
X1.2772Y-2.6496
X11.9689Y-3.5016
X1.2Y-0.15
X6.3421Y-4.1449
X8.3591Y-6.128
X15.1256Y-1.5335
X11.4343Y-4.5878
X6.5319Y-6.1598
X12.65Y-0.1
X8.5705Y-6.1205
X8.5591Y-4.9319
X4.572Y-2.9445
X8.7264Y-4.115
X6.9787Y-2.139
X9.4354Y-4.2161
X11.9Y0.02
X5.1193Y-2.6701
X11.0835Y-1.6906
X2.71Y-0.15
X8.8587Y-2.7917
X6.5728Y-3.1461
X12.72Y-0.29
X5.5705Y-4.4587
X6.7815Y-5.5323
X4.2Y-0.17
X8.9185Y-5.5055
X14.16Y-0.02
X11.6575Y-2.2866
X1.7992Y-1.9614
X13.7693Y-4.6783
X1.25Y-0.38
X6.8181Y-4.8374
X5.8346Y-4.135
X4.7201Y-2.948
X9.8144Y-4.4327
X2.77Y-0.34
X1.4961Y-1.3413
X3.2067Y-2.0484
X10.7252Y-1.6906
X9.5354Y-4.6787
X6.5728Y-3.287
X14.24Y-0.28
X8.1614Y-1.2882
X8.8547Y-4.8122
X14.96Y0.0
X5.4343Y-3.3748
X4.3874Y-2.9445
X10.0516Y-6.0941
X0.8441Y-1.985
X15.4417Y-2.0154
X12.148Y-3.5016
X4.28Y-0.34
X4.1012Y-3.0299
X8.7035Y-2.8098
X5.5693Y-4.3169
X8.7701Y-3.648
X13.6862Y-3.063
X10.9228Y-5.272
X6.8579Y-4.1929
X11.9Y-0.16
X8.9661Y-4.1209
X14.024Y-5.9224
X7.8217Y-4.9366
X8.5622Y-2.811
X14.0079Y-3.2957
X3.0587Y-2.0488
X13.8854Y-6.0008
X9.2705Y-4.4276
X4.28Y0.01
X3.9374Y-3.1756
X11.7898Y-3.5016
X1.96Y-0.14
X13.8413Y-4.3217
X8.5823Y-4.0874
X7.837Y-4.3965
X7.2236Y-3.7799
X12.2791Y-1.8346
X6.924Y-5.5319
X3.45Y-0.08
X12.1272Y-5.413
X6.9984Y-4.0504
X13.4Y-0.03
X11.3575Y-2.2882
X7.8343Y-4.5902
X9.1118Y-4.1197
X1.19Y0.02
X5.9165Y-3.2937
X2.7197Y-1.3248
X6.8445Y-2.235
X2.02Y-0.35
X11.94Y-0.35
X5.2606Y-2.6728
X3.0398Y-1.1827
X10.9043Y-1.6906
X9.5343Y-4.363
X7.0681Y-5.528
X13.47Y-0.27
T10
X12.4677Y-1.2299
X12.4677Y-1.3299
X12.4677Y-1.4299
X12.4677Y-1.5299
X12.4677Y-1.6299
X12.4677Y-1.7299
X12.4677Y-1.8299
X12.4677Y-1.9299
X12.4677Y-2.0299
X12.4677Y-2.1299
X12.4677Y-2.2299
X12.4677Y-2.3299
X12.4677Y-2.4299
X12.4677Y-2.5299
X12.4677Y-2.6299
X12.4677Y-2.7299
X12.4677Y-2.8299
X12.4677Y-2.9299
X12.4677Y-3.0299
X12.4677Y-3.1299
X12.4677Y-3.2299
X12.4677Y-3.3299
X12.4677Y-3.4299
X12.4677Y-3.5299
X12.5677Y-1.7299
X12.5878Y-2.8819
X12.5878Y-2.9819
X12.5878Y-3.0819
X12.5878Y-3.1819
X12.5878Y-3.2819
X12.6677Y-1.7299
X12.7677Y-1.7299
X12.8677Y-1.7299
X12.9677Y-1.7299
X12.9677Y-3.4299
X13.0677Y-1.2299
X13.0677Y-1.3299
X13.0677Y-1.4299
X13.0677Y-1.5299
X13.0677Y-1.6299
X13.0677Y-1.7299
X13.0677Y-1.8299
X13.0677Y-1.9299
X13.0677Y-2.0299
X13.0677Y-2.1299
X13.0677Y-2.2299
X13.0677Y-2.3299
X13.0677Y-2.4299
X13.0677Y-2.5299
X13.0677Y-2.6299
X13.0677Y-2.7299
X13.0677Y-2.8299
X13.0677Y-2.9299
X13.0677Y-3.0299
X13.0677Y-3.1299
X13.0677Y-3.2299
X13.0677Y-3.3299
X13.0677Y-3.4299
X13.0677Y-3.5299
T13
X8.7303Y-0.2945
X8.8287Y-0.3929
X8.839Y0.0992
X9.0256Y-0.2945
X9.2126Y0.0992
X9.2224Y-0.3929
X9.3209Y-0.2945
X7.8209Y-0.2937
X7.9193Y-0.3921
X7.9295Y0.1
X8.1161Y-0.2937
X8.3031Y0.1
X8.313Y-0.3921
X8.4114Y-0.2937
X6.8921Y-0.2949
X6.9906Y-0.3933
X7.0008Y0.0988
X7.1874Y-0.2949
X7.3744Y0.0988
X7.3843Y-0.3933
X7.4827Y-0.2949
T16
X6.0548Y-0.1233
X6.5052Y-0.1233
T17
X8.7303Y-0.0976
X9.3209Y-0.0976
X7.8209Y-0.0969
X8.4114Y-0.0969
X6.8921Y-0.098
X7.4827Y-0.098
T18
X6.4209Y-0.3729
T19
X5.9059Y-5.0425
X2.3583Y-1.5256
X12.3839Y-4.2008
X7.5752Y-2.7217
X9.6555Y-5.1654
X4.1516Y-2.4075
X14.8937Y-6.1831
X0.8681Y-4.3465
X11.3169Y-2.8445
X2.3543Y-4.3425
X4.1516Y-4.3799
T20
X2.3319Y-3.6008
X2.3319Y-5.2228
X3.9539Y-3.6008
X3.9539Y-5.2228
T2
G00X10.0Y-2.4528
M15
G01X10.0787Y-2.4528
M16
G05
G00X10.0Y-2.7756
M15
G01X10.0787Y-2.7756
M16
G05
G00X3.8031Y-1.5551
M15
G01X3.8819Y-1.5551
M16
G05
G00X3.8031Y-1.878
M15
G01X3.8819Y-1.878
M16
G05
G00X5.874Y-3.6496
M15
G01X5.9528Y-3.6496
M16
G05
G00X5.874Y-3.9724
M15
G01X5.9528Y-3.9724
M16
G05
G00X5.9055Y-2.1535
M15
G01X5.9843Y-2.1535
M16
G05
G00X5.9055Y-2.4764
M15
G01X5.9843Y-2.4764
M16
G05
G00X7.9764Y-0.752
M15
G01X8.0551Y-0.752
M16
G05
G00X7.9764Y-1.0748
M15
G01X8.0551Y-1.0748
M16
G05
G00X9.4567Y-5.7913
M15
G01X9.5354Y-5.7913
M16
G05
G00X9.4567Y-6.1142
M15
G01X9.5354Y-6.1142
M16
G05
G00X10.9906Y-5.8433
M15
G01X11.0693Y-5.8433
M16
G05
G00X10.9906Y-6.1661
M15
G01X11.0693Y-6.1661
M16
G05
G00X2.0787Y-2.4213
M15
G01X2.1575Y-2.4213
M16
G05
G00X2.0787Y-2.7441
M15
G01X2.1575Y-2.7441
M16
G05
G00X8.7165Y-1.3425
M15
G01X8.7953Y-1.3425
M16
G05
G00X8.7165Y-1.6654
M15
G01X8.7953Y-1.6654
M16
G05
G00X3.0945Y-2.9331
M15
G01X3.1732Y-2.9331
M16
G05
G00X3.0945Y-3.2559
M15
G01X3.1732Y-3.2559
M16
G05
G00X5.5197Y-0.6969
M15
G01X5.5984Y-0.6969
M16
G05
G00X5.5197Y-1.0197
M15
G01X5.5984Y-1.0197
M16
G05
G00X8.315Y-3.6181
M15
G01X8.3937Y-3.6181
M16
G05
G00X8.315Y-3.9409
M15
G01X8.3937Y-3.9409
M16
G05
G00X7.2047Y-5.8071
M15
G01X7.2835Y-5.8071
M16
G05
G00X7.2047Y-6.1299
M15
G01X7.2835Y-6.1299
M16
G05
G00X6.1811Y-1.4685
M15
G01X6.2598Y-1.4685
M16
G05
G00X6.1811Y-1.7913
M15
G01X6.2598Y-1.7913
M16
G05
G00X2.0394Y-0.5709
M15
G01X2.1181Y-0.5709
M16
G05
G00X2.0394Y-0.8937
M15
G01X2.1181Y-0.8937
M16
G05
G00X10.0315Y-0.6181
M15
G01X10.1102Y-0.6181
M16
G05
G00X10.0315Y-0.9409
M15
G01X10.1102Y-0.9409
M16
G05
T10
G00X6.0535Y-3.1067
M15
G01X6.0535Y-3.0791
M16
G05
G00X6.4315Y-3.1067
M15
G01X6.4315Y-3.0791
M16
G05
G00X8.9094Y-3.7185
M15
G01X8.9094Y-3.6909
M16
G05
G00X9.2874Y-3.7185
M15
G01X9.2874Y-3.6909
M16
G05
G00X15.138Y-0.1224
M15
G01X15.138Y-0.0949
M16
G05
G00X15.516Y-0.1224
M15
G01X15.516Y-0.0949
M16
G05
G00X10.5583Y-2.2461
M15
G01X10.5583Y-2.2185
M16
G05
G00X10.9362Y-2.2461
M15
G01X10.9362Y-2.2185
M16
G05
G00X10.7126Y-1.2697
M15
G01X10.7126Y-1.2421
M16
G05
G00X11.0906Y-1.2697
M15
G01X11.0906Y-1.2421
M16
G05
G00X3.6754Y-0.1281
M15
G01X3.6754Y-0.1006
M16
G05
G00X4.0534Y-0.1281
M15
G01X4.0534Y-0.1006
M16
G05
G00X11.9878Y-0.7398
M15
G01X11.9878Y-0.7122
M16
G05
G00X12.3657Y-0.7398
M15
G01X12.3657Y-0.7122
M16
G05
G00X10.1256Y-3.3016
M15
G01X10.1256Y-3.274
M16
G05
G00X10.5035Y-3.3016
M15
G01X10.5035Y-3.274
M16
G05
G00X5.2008Y-0.1724
M15
G01X5.2008Y-0.1449
M16
G05
G00X5.5787Y-0.1724
M15
G01X5.5787Y-0.1449
M16
G05
G00X0.6594Y-0.1281
M15
G01X0.6594Y-0.1006
M16
G05
G00X1.0374Y-0.1281
M15
G01X1.0374Y-0.1006
M16
G05
G00X6.6969Y-5.128
M15
G01X6.6969Y-5.1004
M16
G05
G00X7.0748Y-5.128
M15
G01X7.0748Y-5.1004
M16
G05
G00X8.2795Y-5.7185
M15
G01X8.2795Y-5.6909
M16
G05
G00X8.6575Y-5.7185
M15
G01X8.6575Y-5.6909
M16
G05
G00X11.4646Y-1.8858
M15
G01X11.4646Y-1.8583
M16
G05
G00X11.8425Y-1.8858
M15
G01X11.8425Y-1.8583
M16
G05
G00X2.5236Y-0.9232
M15
G01X2.5236Y-0.8957
M16
G05
G00X2.9016Y-0.9232
M15
G01X2.9016Y-0.8957
M16
G05
G00X6.4823Y-3.7933
M15
G01X6.4823Y-3.7657
M16
G05
G00X6.8602Y-3.7933
M15
G01X6.8602Y-3.7657
M16
G05
G00X14.8146Y-0.9783
M15
G01X14.8146Y-0.9508
M16
G05
G00X15.1925Y-0.9783
M15
G01X15.1925Y-0.9508
M16
G05
G00X3.7992Y-0.9232
M15
G01X3.7992Y-0.8957
M16
G05
G00X4.1772Y-0.9232
M15
G01X4.1772Y-0.8957
M16
G05
G00X11.7748Y-3.0854
M15
G01X11.7748Y-3.0579
M16
G05
G00X12.1528Y-3.0854
M15
G01X12.1528Y-3.0579
M16
G05
G00X3.5866Y-2.7736
M15
G01X3.5866Y-2.7461
M16
G05
G00X3.9646Y-2.7736
M15
G01X3.9646Y-2.7461
M16
G05
G00X14.3346Y-5.7106
M15
G01X14.3346Y-5.6831
M16
G05
G00X14.7126Y-5.7106
M15
G01X14.7126Y-5.6831
M16
G05
G00X10.2008Y-5.3642
M15
G01X10.2008Y-5.3366
M16
G05
G00X10.5787Y-5.3642
M15
G01X10.5787Y-5.3366
M16
G05
G00X14.3853Y-0.1224
M15
G01X14.3853Y-0.0949
M16
G05
G00X14.7632Y-0.1224
M15
G01X14.7632Y-0.0949
M16
G05
G00X12.127Y-0.1224
M15
G01X12.127Y-0.0949
M16
G05
G00X12.505Y-0.1224
M15
G01X12.505Y-0.0949
M16
G05
G00X8.6697Y-2.3839
M15
G01X8.6697Y-2.3563
M16
G05
G00X9.0476Y-2.3839
M15
G01X9.0476Y-2.3563
M16
G05
G00X8.3677Y-3.0996
M15
G01X8.3677Y-3.072
M16
G05
G00X8.7457Y-3.0996
M15
G01X8.7457Y-3.072
M16
G05
G00X7.1693Y-1.435
M15
G01X7.1693Y-1.4075
M16
G05
G00X7.5472Y-1.435
M15
G01X7.5472Y-1.4075
M16
G05
G00X2.9214Y-0.1281
M15
G01X2.9214Y-0.1006
M16
G05
G00X3.2994Y-0.1281
M15
G01X3.2994Y-0.1006
M16
G05
G00X1.7378Y-1.561
M15
G01X1.7378Y-1.5335
M16
G05
G00X2.1157Y-1.561
M15
G01X2.1157Y-1.5335
M16
G05
G00X6.3244Y-4.4386
M15
G01X6.3244Y-4.411
M16
G05
G00X6.7024Y-4.4386
M15
G01X6.7024Y-4.411
M16
G05
G00X13.1953Y-5.024
M15
G01X13.1953Y-4.9965
M16
G05
G00X13.5732Y-5.024
M15
G01X13.5732Y-4.9965
M16
G05
G00X1.2717Y-2.2461
M15
G01X1.2717Y-2.2185
M16
G05
G00X1.6496Y-2.2461
M15
G01X1.6496Y-2.2185
M16
G05
G00X10.8858Y-3.7185
M15
G01X10.8858Y-3.6909
M16
G05
G00X11.2638Y-3.7185
M15
G01X11.2638Y-3.6909
M16
G05
G00X10.6969Y-4.561
M15
G01X10.6969Y-4.5335
M16
G05
G00X11.0748Y-4.561
M15
G01X11.0748Y-4.5335
M16
G05
G00X13.6325Y-0.1224
M15
G01X13.6325Y-0.0949
M16
G05
G00X14.0105Y-0.1224
M15
G01X14.0105Y-0.0949
M16
G05
G00X4.3819Y-2.5453
M15
G01X4.3819Y-2.5177
M16
G05
G00X4.7598Y-2.5453
M15
G01X4.7598Y-2.5177
M16
G05
G00X6.1614Y-5.7579
M15
G01X6.1614Y-5.7303
M16
G05
G00X6.5394Y-5.7579
M15
G01X6.5394Y-5.7303
M16
G05
G00X11.3743Y-0.1224
M15
G01X11.3743Y-0.0949
M16
G05
G00X11.7523Y-0.1224
M15
G01X11.7523Y-0.0949
M16
G05
G00X7.0106Y-3.3795
M15
G01X7.0106Y-3.352
M16
G05
G00X7.3886Y-3.3795
M15
G01X7.3886Y-3.352
M16
G05
G00X8.9331Y-5.1043
M15
G01X8.9331Y-5.0768
M16
G05
G00X9.311Y-5.1043
M15
G01X9.311Y-5.0768
M16
G05
G00X14.8035Y-3.9965
M15
G01X14.8035Y-3.9689
M16
G05
G00X15.1815Y-3.9965
M15
G01X15.1815Y-3.9689
M16
G05
G00X6.4685Y-0.9232
M15
G01X6.4685Y-0.8957
M16
G05
G00X6.8465Y-0.9232
M15
G01X6.8465Y-0.8957
M16
G05
G00X2.1674Y-0.1281
M15
G01X2.1674Y-0.1006
M16
G05
G00X2.5454Y-0.1281
M15
G01X2.5454Y-0.1006
M16
G05
G00X9.311Y-1.3957
M15
G01X9.311Y-1.3681
M16
G05
G00X9.689Y-1.3957
M15
G01X9.689Y-1.3681
M16
G05
G00X14.4843Y-2.0492
M15
G01X14.4843Y-2.0217
M16
G05
G00X14.8622Y-2.0492
M15
G01X14.8622Y-2.0217
M16
G05
G00X0.8386Y-1.5846
M15
G01X0.8386Y-1.5571
M16
G05
G00X1.2165Y-1.5846
M15
G01X1.2165Y-1.5571
M16
G05
G00X2.8307Y-1.6476
M15
G01X2.8307Y-1.6201
M16
G05
G00X3.2087Y-1.6476
M15
G01X3.2087Y-1.6201
M16
G05
G00X4.4294Y-0.1281
M15
G01X4.4294Y-0.1006
M16
G05
G00X4.8074Y-0.1281
M15
G01X4.8074Y-0.1006
M16
G05
G00X1.4134Y-0.1281
M15
G01X1.4134Y-0.1006
M16
G05
G00X1.7914Y-0.1281
M15
G01X1.7914Y-0.1006
M16
G05
G00X12.8798Y-0.1224
M15
G01X12.8798Y-0.0949
M16
G05
G00X13.2577Y-0.1224
M15
G01X13.2577Y-0.0949
M16
G05
G00X13.6575Y-0.9547
M15
G01X13.6575Y-0.9272
M16
G05
G00X14.0354Y-0.9547
M15
G01X14.0354Y-0.9272
M16
G05
G00X5.178Y-2.9626
M15
G01X5.178Y-2.935
M16
G05
G00X5.5559Y-2.9626
M15
G01X5.5559Y-2.935
M16
G05
G00X8.6469Y-4.4087
M15
G01X8.6469Y-4.3811
M16
G05
G00X9.0248Y-4.4087
M15
G01X9.0248Y-4.3811
M16
G05
G00X15.0039Y-5.4114
M15
G01X15.0039Y-5.3839
M16
G05
G00X15.3819Y-5.4114
M15
G01X15.3819Y-5.3839
M16
G05
G00X4.6024Y-1.3169
M15
G01X4.6024Y-1.2894
M16
G05
G00X4.9803Y-1.3169
M15
G01X4.9803Y-1.2894
M16
G05
G00X5.0591Y-2.2697
M15
G01X5.0591Y-2.2421
M16
G05
G00X5.437Y-2.2697
M15
G01X5.437Y-2.2421
M16
G05
G00X8.815Y-0.8209
M15
G01X8.815Y-0.7933
M16
G05
G00X9.1929Y-0.8209
M15
G01X9.1929Y-0.7933
M16
G05
T11
G00X10.2244Y-2.6358
M15
G01X10.2244Y-2.6555
M16
G05
G00X4.0276Y-1.7382
M15
G01X4.0276Y-1.7579
M16
G05
G00X6.0984Y-3.8327
M15
G01X6.0984Y-3.8524
M16
G05
G00X6.1299Y-2.3366
M15
G01X6.1299Y-2.3563
M16
G05
G00X8.2008Y-0.935
M15
G01X8.2008Y-0.9547
M16
G05
G00X9.6811Y-5.9744
M15
G01X9.6811Y-5.9941
M16
G05
G00X11.215Y-6.0264
M15
G01X11.215Y-6.0461
M16
G05
G00X2.3031Y-2.6043
M15
G01X2.3031Y-2.624
M16
G05
G00X8.9409Y-1.5256
M15
G01X8.9409Y-1.5453
M16
G05
G00X3.3189Y-3.1161
M15
G01X3.3189Y-3.1358
M16
G05
G00X5.7441Y-0.8799
M15
G01X5.7441Y-0.8996
M16
G05
G00X8.5394Y-3.8012
M15
G01X8.5394Y-3.8209
M16
G05
G00X7.4291Y-5.9902
M15
G01X7.4291Y-6.0098
M16
G05
G00X6.4055Y-1.6516
M15
G01X6.4055Y-1.6713
M16
G05
G00X2.2638Y-0.7539
M15
G01X2.2638Y-0.7736
M16
G05
G00X10.2559Y-0.8012
M15
G01X10.2559Y-0.8209
M16
G05
T12
G00X10.8449Y-6.0126
M15
G01X10.8449Y-6.0598
M16
G05
G00X1.9331Y-2.5906
M15
G01X1.9331Y-2.6378
M16
G05
G00X8.5709Y-1.5118
M15
G01X8.5709Y-1.5591
M16
G05
G00X2.9488Y-3.1024
M15
G01X2.9488Y-3.1496
M16
G05
G00X5.374Y-0.8661
M15
G01X5.374Y-0.9134
M16
G05
G00X8.1693Y-3.7874
M15
G01X8.1693Y-3.8346
M16
G05
G00X7.0591Y-5.9764
M15
G01X7.0591Y-6.0236
M16
G05
G00X6.0354Y-1.6378
M15
G01X6.0354Y-1.685
M16
G05
G00X1.8937Y-0.7402
M15
G01X1.8937Y-0.7874
M16
G05
G00X9.8858Y-0.7874
M15
G01X9.8858Y-0.8346
M16
G05
G00X9.8543Y-2.622
M15
G01X9.8543Y-2.6693
M16
G05
G00X3.6575Y-1.7244
M15
G01X3.6575Y-1.7717
M16
G05
G00X5.7283Y-3.8189
M15
G01X5.7283Y-3.8661
M16
G05
G00X5.7598Y-2.3228
M15
G01X5.7598Y-2.3701
M16
G05
G00X7.8307Y-0.9213
M15
G01X7.8307Y-0.9685
M16
G05
G00X9.311Y-5.9606
M15
G01X9.311Y-6.0079
M16
G05
T14
G00X4.6398Y-4.6811
M15
G01X4.6909Y-4.6811
M16
G05
G00X4.6398Y-5.122
M15
G01X4.6909Y-5.122
M16
G05
G00X1.6083Y-4.6417
M15
G01X1.6594Y-4.6417
M16
G05
G00X1.6083Y-5.0827
M15
G01X1.6594Y-5.0827
M16
G05
T15
G00X15.4465Y-3.378
M15
G01X15.4661Y-3.378
M16
G05
G00X15.4465Y-3.563
M15
G01X15.4661Y-3.563
M16
G05
G00X15.4465Y-3.748
M15
G01X15.4661Y-3.748
M16
G05
G00X8.1028Y-4.1811
M15
G01X8.1224Y-4.1811
M16
G05
G00X8.1028Y-4.3661
M15
G01X8.1224Y-4.3661
M16
G05
G00X8.1028Y-4.5512
M15
G01X8.1224Y-4.5512
M16
G05
G00X8.2917Y-4.1811
M15
G01X8.3114Y-4.1811
M16
G05
G00X8.2917Y-4.3661
M15
G01X8.3114Y-4.3661
M16
G05
G00X8.2917Y-4.5512
M15
G01X8.3114Y-4.5512
M16
G05
G00X5.8358Y-4.3217
M15
G01X5.8555Y-4.3217
M16
G05
G00X5.8358Y-4.5067
M15
G01X5.8555Y-4.5067
M16
G05
G00X5.8358Y-4.6917
M15
G01X5.8555Y-4.6917
M16
G05
G00X6.0248Y-4.3217
M15
G01X6.0445Y-4.3217
M16
G05
G00X6.0248Y-4.5067
M15
G01X6.0445Y-4.5067
M16
G05
G00X6.0248Y-4.6917
M15
G01X6.0445Y-4.6917
M16
G05
T18
G00X10.1917Y-0.1453
M15
G01X10.1917Y-0.1453
M16
G05
G00X10.1917Y-0.3815
M15
G01X10.1917Y-0.3815
M16
G05
G00X10.3768Y-0.2634
M15
G01X10.3768Y-0.2634
M16
G05
T0
M30
