M48
; DRILL file {KiCad (5.1.2-1)-1} date Wednesday, August 10, 2022 at 03:30:48 PM
; FORMAT={-:-/ absolute / inch / decimal}
; #@! TF.CreationDate,2022-08-10T15:30:48-04:00
; #@! TF.GenerationSoftware,Kicad,Pcbnew,(5.1.2-1)-1
FMAT,2
INCH
T1C0.0157
T2C0.0315
T3C0.0394
T4C0.0394
T5C0.0400
T6C0.1378
%
G90
G05
T1
X0.7579Y-3.0886
X0.7909Y-2.2874
X0.8217Y-1.3862
X0.8291Y-1.7016
X0.9386Y-3.0508
X1.0587Y-2.0512
X1.0622Y-2.2748
X1.0665Y-2.7071
X1.0791Y-2.8602
X1.1496Y-2.2205
X1.1583Y-1.6949
X1.2028Y-3.3693
X1.3028Y-0.6638
X1.3762Y-2.4265
X1.4102Y-0.7591
X1.5457Y-2.5319
X1.5724Y-1.7843
X1.6563Y-3.4642
X1.7835Y-2.6177
X1.8024Y-1.3811
X1.8866Y-1.9992
X1.8894Y-2.0862
X1.8921Y-1.4689
X1.9358Y-1.9933
X2.0039Y-1.7736
X2.0201Y-1.1008
X2.042Y-1.8479
X2.0819Y-1.9118
X2.0942Y-2.0172
X2.1083Y-1.7276
X2.1248Y-1.9571
X2.1598Y-1.0874
X2.2135Y-0.99
X2.2504Y-1.9524
T2
X0.7175Y-2.3852
X0.7992Y-2.6591
X0.874Y-1.5685
X1.0166Y-1.4418
X1.0819Y-1.6909
X1.0988Y-1.7917
X1.2276Y-2.4264
X1.5169Y-1.7524
X1.5209Y-3.2945
X1.5327Y-1.5717
X1.5419Y-2.0427
X1.5575Y-2.372
X1.6232Y-1.313
X1.7257Y-2.7344
X1.7386Y-1.5409
X1.8992Y-3.0
X0.772Y-1.539
X1.072Y-1.539
X0.9311Y-3.7795
X0.9311Y-3.8795
X1.9221Y-3.7689
X1.9221Y-3.8689
T3
X0.8358Y-1.0925
X1.0126Y-0.9614
X1.0468Y-1.1553
X0.9295Y-0.7776
X1.1063Y-0.6465
X1.1405Y-0.8403
T4
X1.1315Y-1.8969
X1.1896Y-2.3081
X1.8465Y-0.8996
X0.628Y-0.835
X1.7823Y-3.176
X1.6959Y-1.8699
X1.6138Y-1.1091
X1.8457Y-0.6591
X0.8732Y-2.9811
X1.2723Y-1.8392
X1.928Y-1.1398
X1.4128Y-1.8388
X0.774Y-2.4854
X1.4538Y-2.375
X1.6063Y-0.963
X1.7799Y-1.1051
X1.989Y-2.3205
X1.7106Y-1.6339
X1.6457Y-0.7535
X2.1504Y-1.4728
T5
X1.2217Y-3.8378
X1.2217Y-3.9378
X1.3217Y-3.8378
X1.3217Y-3.9378
X1.4217Y-3.8378
X1.4217Y-3.9378
X1.5217Y-3.8378
X1.5217Y-3.9378
X1.6217Y-3.8378
X1.6217Y-3.9378
T6
X1.3094Y-3.0829
X1.3094Y-1.1229
X0.66Y-3.49
X2.15Y-3.49
X2.15Y-0.67
T0
M30
