G04 #@! TF.GenerationSoftware,KiCad,Pcbnew,(5.1.2-1)-1*
G04 #@! TF.CreationDate,2022-08-10T15:30:44-04:00*
G04 #@! TF.ProjectId,BassDrum_TR909,42617373-4472-4756-9d5f-54523930392e,rev?*
G04 #@! TF.SameCoordinates,Original*
G04 #@! TF.FileFunction,Paste,Bot*
G04 #@! TF.FilePolarity,Positive*
%FSLAX46Y46*%
G04 Gerber Fmt 4.6, Leading zero omitted, Abs format (unit mm)*
G04 Created by KiCad (PCBNEW (5.1.2-1)-1) date 2022-08-10 15:30:44*
%MOMM*%
%LPD*%
G04 APERTURE LIST*
%ADD10C,0.100000*%
%ADD11C,0.950000*%
G04 APERTURE END LIST*
D10*
G36*
X39990779Y-53271144D02*
G01*
X40013834Y-53274563D01*
X40036443Y-53280227D01*
X40058387Y-53288079D01*
X40079457Y-53298044D01*
X40099448Y-53310026D01*
X40118168Y-53323910D01*
X40135438Y-53339562D01*
X40151090Y-53356832D01*
X40164974Y-53375552D01*
X40176956Y-53395543D01*
X40186921Y-53416613D01*
X40194773Y-53438557D01*
X40200437Y-53461166D01*
X40203856Y-53484221D01*
X40205000Y-53507500D01*
X40205000Y-54082500D01*
X40203856Y-54105779D01*
X40200437Y-54128834D01*
X40194773Y-54151443D01*
X40186921Y-54173387D01*
X40176956Y-54194457D01*
X40164974Y-54214448D01*
X40151090Y-54233168D01*
X40135438Y-54250438D01*
X40118168Y-54266090D01*
X40099448Y-54279974D01*
X40079457Y-54291956D01*
X40058387Y-54301921D01*
X40036443Y-54309773D01*
X40013834Y-54315437D01*
X39990779Y-54318856D01*
X39967500Y-54320000D01*
X39492500Y-54320000D01*
X39469221Y-54318856D01*
X39446166Y-54315437D01*
X39423557Y-54309773D01*
X39401613Y-54301921D01*
X39380543Y-54291956D01*
X39360552Y-54279974D01*
X39341832Y-54266090D01*
X39324562Y-54250438D01*
X39308910Y-54233168D01*
X39295026Y-54214448D01*
X39283044Y-54194457D01*
X39273079Y-54173387D01*
X39265227Y-54151443D01*
X39259563Y-54128834D01*
X39256144Y-54105779D01*
X39255000Y-54082500D01*
X39255000Y-53507500D01*
X39256144Y-53484221D01*
X39259563Y-53461166D01*
X39265227Y-53438557D01*
X39273079Y-53416613D01*
X39283044Y-53395543D01*
X39295026Y-53375552D01*
X39308910Y-53356832D01*
X39324562Y-53339562D01*
X39341832Y-53323910D01*
X39360552Y-53310026D01*
X39380543Y-53298044D01*
X39401613Y-53288079D01*
X39423557Y-53280227D01*
X39446166Y-53274563D01*
X39469221Y-53271144D01*
X39492500Y-53270000D01*
X39967500Y-53270000D01*
X39990779Y-53271144D01*
X39990779Y-53271144D01*
G37*
D11*
X39730000Y-53795000D03*
D10*
G36*
X39990779Y-55021144D02*
G01*
X40013834Y-55024563D01*
X40036443Y-55030227D01*
X40058387Y-55038079D01*
X40079457Y-55048044D01*
X40099448Y-55060026D01*
X40118168Y-55073910D01*
X40135438Y-55089562D01*
X40151090Y-55106832D01*
X40164974Y-55125552D01*
X40176956Y-55145543D01*
X40186921Y-55166613D01*
X40194773Y-55188557D01*
X40200437Y-55211166D01*
X40203856Y-55234221D01*
X40205000Y-55257500D01*
X40205000Y-55832500D01*
X40203856Y-55855779D01*
X40200437Y-55878834D01*
X40194773Y-55901443D01*
X40186921Y-55923387D01*
X40176956Y-55944457D01*
X40164974Y-55964448D01*
X40151090Y-55983168D01*
X40135438Y-56000438D01*
X40118168Y-56016090D01*
X40099448Y-56029974D01*
X40079457Y-56041956D01*
X40058387Y-56051921D01*
X40036443Y-56059773D01*
X40013834Y-56065437D01*
X39990779Y-56068856D01*
X39967500Y-56070000D01*
X39492500Y-56070000D01*
X39469221Y-56068856D01*
X39446166Y-56065437D01*
X39423557Y-56059773D01*
X39401613Y-56051921D01*
X39380543Y-56041956D01*
X39360552Y-56029974D01*
X39341832Y-56016090D01*
X39324562Y-56000438D01*
X39308910Y-55983168D01*
X39295026Y-55964448D01*
X39283044Y-55944457D01*
X39273079Y-55923387D01*
X39265227Y-55901443D01*
X39259563Y-55878834D01*
X39256144Y-55855779D01*
X39255000Y-55832500D01*
X39255000Y-55257500D01*
X39256144Y-55234221D01*
X39259563Y-55211166D01*
X39265227Y-55188557D01*
X39273079Y-55166613D01*
X39283044Y-55145543D01*
X39295026Y-55125552D01*
X39308910Y-55106832D01*
X39324562Y-55089562D01*
X39341832Y-55073910D01*
X39360552Y-55060026D01*
X39380543Y-55048044D01*
X39401613Y-55038079D01*
X39423557Y-55030227D01*
X39446166Y-55024563D01*
X39469221Y-55021144D01*
X39492500Y-55020000D01*
X39967500Y-55020000D01*
X39990779Y-55021144D01*
X39990779Y-55021144D01*
G37*
D11*
X39730000Y-55545000D03*
D10*
G36*
X24765779Y-43476144D02*
G01*
X24788834Y-43479563D01*
X24811443Y-43485227D01*
X24833387Y-43493079D01*
X24854457Y-43503044D01*
X24874448Y-43515026D01*
X24893168Y-43528910D01*
X24910438Y-43544562D01*
X24926090Y-43561832D01*
X24939974Y-43580552D01*
X24951956Y-43600543D01*
X24961921Y-43621613D01*
X24969773Y-43643557D01*
X24975437Y-43666166D01*
X24978856Y-43689221D01*
X24980000Y-43712500D01*
X24980000Y-44187500D01*
X24978856Y-44210779D01*
X24975437Y-44233834D01*
X24969773Y-44256443D01*
X24961921Y-44278387D01*
X24951956Y-44299457D01*
X24939974Y-44319448D01*
X24926090Y-44338168D01*
X24910438Y-44355438D01*
X24893168Y-44371090D01*
X24874448Y-44384974D01*
X24854457Y-44396956D01*
X24833387Y-44406921D01*
X24811443Y-44414773D01*
X24788834Y-44420437D01*
X24765779Y-44423856D01*
X24742500Y-44425000D01*
X24167500Y-44425000D01*
X24144221Y-44423856D01*
X24121166Y-44420437D01*
X24098557Y-44414773D01*
X24076613Y-44406921D01*
X24055543Y-44396956D01*
X24035552Y-44384974D01*
X24016832Y-44371090D01*
X23999562Y-44355438D01*
X23983910Y-44338168D01*
X23970026Y-44319448D01*
X23958044Y-44299457D01*
X23948079Y-44278387D01*
X23940227Y-44256443D01*
X23934563Y-44233834D01*
X23931144Y-44210779D01*
X23930000Y-44187500D01*
X23930000Y-43712500D01*
X23931144Y-43689221D01*
X23934563Y-43666166D01*
X23940227Y-43643557D01*
X23948079Y-43621613D01*
X23958044Y-43600543D01*
X23970026Y-43580552D01*
X23983910Y-43561832D01*
X23999562Y-43544562D01*
X24016832Y-43528910D01*
X24035552Y-43515026D01*
X24055543Y-43503044D01*
X24076613Y-43493079D01*
X24098557Y-43485227D01*
X24121166Y-43479563D01*
X24144221Y-43476144D01*
X24167500Y-43475000D01*
X24742500Y-43475000D01*
X24765779Y-43476144D01*
X24765779Y-43476144D01*
G37*
D11*
X24455000Y-43950000D03*
D10*
G36*
X23015779Y-43476144D02*
G01*
X23038834Y-43479563D01*
X23061443Y-43485227D01*
X23083387Y-43493079D01*
X23104457Y-43503044D01*
X23124448Y-43515026D01*
X23143168Y-43528910D01*
X23160438Y-43544562D01*
X23176090Y-43561832D01*
X23189974Y-43580552D01*
X23201956Y-43600543D01*
X23211921Y-43621613D01*
X23219773Y-43643557D01*
X23225437Y-43666166D01*
X23228856Y-43689221D01*
X23230000Y-43712500D01*
X23230000Y-44187500D01*
X23228856Y-44210779D01*
X23225437Y-44233834D01*
X23219773Y-44256443D01*
X23211921Y-44278387D01*
X23201956Y-44299457D01*
X23189974Y-44319448D01*
X23176090Y-44338168D01*
X23160438Y-44355438D01*
X23143168Y-44371090D01*
X23124448Y-44384974D01*
X23104457Y-44396956D01*
X23083387Y-44406921D01*
X23061443Y-44414773D01*
X23038834Y-44420437D01*
X23015779Y-44423856D01*
X22992500Y-44425000D01*
X22417500Y-44425000D01*
X22394221Y-44423856D01*
X22371166Y-44420437D01*
X22348557Y-44414773D01*
X22326613Y-44406921D01*
X22305543Y-44396956D01*
X22285552Y-44384974D01*
X22266832Y-44371090D01*
X22249562Y-44355438D01*
X22233910Y-44338168D01*
X22220026Y-44319448D01*
X22208044Y-44299457D01*
X22198079Y-44278387D01*
X22190227Y-44256443D01*
X22184563Y-44233834D01*
X22181144Y-44210779D01*
X22180000Y-44187500D01*
X22180000Y-43712500D01*
X22181144Y-43689221D01*
X22184563Y-43666166D01*
X22190227Y-43643557D01*
X22198079Y-43621613D01*
X22208044Y-43600543D01*
X22220026Y-43580552D01*
X22233910Y-43561832D01*
X22249562Y-43544562D01*
X22266832Y-43528910D01*
X22285552Y-43515026D01*
X22305543Y-43503044D01*
X22326613Y-43493079D01*
X22348557Y-43485227D01*
X22371166Y-43479563D01*
X22394221Y-43476144D01*
X22417500Y-43475000D01*
X22992500Y-43475000D01*
X23015779Y-43476144D01*
X23015779Y-43476144D01*
G37*
D11*
X22705000Y-43950000D03*
D10*
G36*
X27430779Y-63721144D02*
G01*
X27453834Y-63724563D01*
X27476443Y-63730227D01*
X27498387Y-63738079D01*
X27519457Y-63748044D01*
X27539448Y-63760026D01*
X27558168Y-63773910D01*
X27575438Y-63789562D01*
X27591090Y-63806832D01*
X27604974Y-63825552D01*
X27616956Y-63845543D01*
X27626921Y-63866613D01*
X27634773Y-63888557D01*
X27640437Y-63911166D01*
X27643856Y-63934221D01*
X27645000Y-63957500D01*
X27645000Y-64532500D01*
X27643856Y-64555779D01*
X27640437Y-64578834D01*
X27634773Y-64601443D01*
X27626921Y-64623387D01*
X27616956Y-64644457D01*
X27604974Y-64664448D01*
X27591090Y-64683168D01*
X27575438Y-64700438D01*
X27558168Y-64716090D01*
X27539448Y-64729974D01*
X27519457Y-64741956D01*
X27498387Y-64751921D01*
X27476443Y-64759773D01*
X27453834Y-64765437D01*
X27430779Y-64768856D01*
X27407500Y-64770000D01*
X26932500Y-64770000D01*
X26909221Y-64768856D01*
X26886166Y-64765437D01*
X26863557Y-64759773D01*
X26841613Y-64751921D01*
X26820543Y-64741956D01*
X26800552Y-64729974D01*
X26781832Y-64716090D01*
X26764562Y-64700438D01*
X26748910Y-64683168D01*
X26735026Y-64664448D01*
X26723044Y-64644457D01*
X26713079Y-64623387D01*
X26705227Y-64601443D01*
X26699563Y-64578834D01*
X26696144Y-64555779D01*
X26695000Y-64532500D01*
X26695000Y-63957500D01*
X26696144Y-63934221D01*
X26699563Y-63911166D01*
X26705227Y-63888557D01*
X26713079Y-63866613D01*
X26723044Y-63845543D01*
X26735026Y-63825552D01*
X26748910Y-63806832D01*
X26764562Y-63789562D01*
X26781832Y-63773910D01*
X26800552Y-63760026D01*
X26820543Y-63748044D01*
X26841613Y-63738079D01*
X26863557Y-63730227D01*
X26886166Y-63724563D01*
X26909221Y-63721144D01*
X26932500Y-63720000D01*
X27407500Y-63720000D01*
X27430779Y-63721144D01*
X27430779Y-63721144D01*
G37*
D11*
X27170000Y-64245000D03*
D10*
G36*
X27430779Y-61971144D02*
G01*
X27453834Y-61974563D01*
X27476443Y-61980227D01*
X27498387Y-61988079D01*
X27519457Y-61998044D01*
X27539448Y-62010026D01*
X27558168Y-62023910D01*
X27575438Y-62039562D01*
X27591090Y-62056832D01*
X27604974Y-62075552D01*
X27616956Y-62095543D01*
X27626921Y-62116613D01*
X27634773Y-62138557D01*
X27640437Y-62161166D01*
X27643856Y-62184221D01*
X27645000Y-62207500D01*
X27645000Y-62782500D01*
X27643856Y-62805779D01*
X27640437Y-62828834D01*
X27634773Y-62851443D01*
X27626921Y-62873387D01*
X27616956Y-62894457D01*
X27604974Y-62914448D01*
X27591090Y-62933168D01*
X27575438Y-62950438D01*
X27558168Y-62966090D01*
X27539448Y-62979974D01*
X27519457Y-62991956D01*
X27498387Y-63001921D01*
X27476443Y-63009773D01*
X27453834Y-63015437D01*
X27430779Y-63018856D01*
X27407500Y-63020000D01*
X26932500Y-63020000D01*
X26909221Y-63018856D01*
X26886166Y-63015437D01*
X26863557Y-63009773D01*
X26841613Y-63001921D01*
X26820543Y-62991956D01*
X26800552Y-62979974D01*
X26781832Y-62966090D01*
X26764562Y-62950438D01*
X26748910Y-62933168D01*
X26735026Y-62914448D01*
X26723044Y-62894457D01*
X26713079Y-62873387D01*
X26705227Y-62851443D01*
X26699563Y-62828834D01*
X26696144Y-62805779D01*
X26695000Y-62782500D01*
X26695000Y-62207500D01*
X26696144Y-62184221D01*
X26699563Y-62161166D01*
X26705227Y-62138557D01*
X26713079Y-62116613D01*
X26723044Y-62095543D01*
X26735026Y-62075552D01*
X26748910Y-62056832D01*
X26764562Y-62039562D01*
X26781832Y-62023910D01*
X26800552Y-62010026D01*
X26820543Y-61998044D01*
X26841613Y-61988079D01*
X26863557Y-61980227D01*
X26886166Y-61974563D01*
X26909221Y-61971144D01*
X26932500Y-61970000D01*
X27407500Y-61970000D01*
X27430779Y-61971144D01*
X27430779Y-61971144D01*
G37*
D11*
X27170000Y-62495000D03*
D10*
G36*
X26310779Y-44831144D02*
G01*
X26333834Y-44834563D01*
X26356443Y-44840227D01*
X26378387Y-44848079D01*
X26399457Y-44858044D01*
X26419448Y-44870026D01*
X26438168Y-44883910D01*
X26455438Y-44899562D01*
X26471090Y-44916832D01*
X26484974Y-44935552D01*
X26496956Y-44955543D01*
X26506921Y-44976613D01*
X26514773Y-44998557D01*
X26520437Y-45021166D01*
X26523856Y-45044221D01*
X26525000Y-45067500D01*
X26525000Y-45642500D01*
X26523856Y-45665779D01*
X26520437Y-45688834D01*
X26514773Y-45711443D01*
X26506921Y-45733387D01*
X26496956Y-45754457D01*
X26484974Y-45774448D01*
X26471090Y-45793168D01*
X26455438Y-45810438D01*
X26438168Y-45826090D01*
X26419448Y-45839974D01*
X26399457Y-45851956D01*
X26378387Y-45861921D01*
X26356443Y-45869773D01*
X26333834Y-45875437D01*
X26310779Y-45878856D01*
X26287500Y-45880000D01*
X25812500Y-45880000D01*
X25789221Y-45878856D01*
X25766166Y-45875437D01*
X25743557Y-45869773D01*
X25721613Y-45861921D01*
X25700543Y-45851956D01*
X25680552Y-45839974D01*
X25661832Y-45826090D01*
X25644562Y-45810438D01*
X25628910Y-45793168D01*
X25615026Y-45774448D01*
X25603044Y-45754457D01*
X25593079Y-45733387D01*
X25585227Y-45711443D01*
X25579563Y-45688834D01*
X25576144Y-45665779D01*
X25575000Y-45642500D01*
X25575000Y-45067500D01*
X25576144Y-45044221D01*
X25579563Y-45021166D01*
X25585227Y-44998557D01*
X25593079Y-44976613D01*
X25603044Y-44955543D01*
X25615026Y-44935552D01*
X25628910Y-44916832D01*
X25644562Y-44899562D01*
X25661832Y-44883910D01*
X25680552Y-44870026D01*
X25700543Y-44858044D01*
X25721613Y-44848079D01*
X25743557Y-44840227D01*
X25766166Y-44834563D01*
X25789221Y-44831144D01*
X25812500Y-44830000D01*
X26287500Y-44830000D01*
X26310779Y-44831144D01*
X26310779Y-44831144D01*
G37*
D11*
X26050000Y-45355000D03*
D10*
G36*
X26310779Y-43081144D02*
G01*
X26333834Y-43084563D01*
X26356443Y-43090227D01*
X26378387Y-43098079D01*
X26399457Y-43108044D01*
X26419448Y-43120026D01*
X26438168Y-43133910D01*
X26455438Y-43149562D01*
X26471090Y-43166832D01*
X26484974Y-43185552D01*
X26496956Y-43205543D01*
X26506921Y-43226613D01*
X26514773Y-43248557D01*
X26520437Y-43271166D01*
X26523856Y-43294221D01*
X26525000Y-43317500D01*
X26525000Y-43892500D01*
X26523856Y-43915779D01*
X26520437Y-43938834D01*
X26514773Y-43961443D01*
X26506921Y-43983387D01*
X26496956Y-44004457D01*
X26484974Y-44024448D01*
X26471090Y-44043168D01*
X26455438Y-44060438D01*
X26438168Y-44076090D01*
X26419448Y-44089974D01*
X26399457Y-44101956D01*
X26378387Y-44111921D01*
X26356443Y-44119773D01*
X26333834Y-44125437D01*
X26310779Y-44128856D01*
X26287500Y-44130000D01*
X25812500Y-44130000D01*
X25789221Y-44128856D01*
X25766166Y-44125437D01*
X25743557Y-44119773D01*
X25721613Y-44111921D01*
X25700543Y-44101956D01*
X25680552Y-44089974D01*
X25661832Y-44076090D01*
X25644562Y-44060438D01*
X25628910Y-44043168D01*
X25615026Y-44024448D01*
X25603044Y-44004457D01*
X25593079Y-43983387D01*
X25585227Y-43961443D01*
X25579563Y-43938834D01*
X25576144Y-43915779D01*
X25575000Y-43892500D01*
X25575000Y-43317500D01*
X25576144Y-43294221D01*
X25579563Y-43271166D01*
X25585227Y-43248557D01*
X25593079Y-43226613D01*
X25603044Y-43205543D01*
X25615026Y-43185552D01*
X25628910Y-43166832D01*
X25644562Y-43149562D01*
X25661832Y-43133910D01*
X25680552Y-43120026D01*
X25700543Y-43108044D01*
X25721613Y-43098079D01*
X25743557Y-43090227D01*
X25766166Y-43084563D01*
X25789221Y-43081144D01*
X25812500Y-43080000D01*
X26287500Y-43080000D01*
X26310779Y-43081144D01*
X26310779Y-43081144D01*
G37*
D11*
X26050000Y-43605000D03*
D10*
G36*
X42330779Y-35881144D02*
G01*
X42353834Y-35884563D01*
X42376443Y-35890227D01*
X42398387Y-35898079D01*
X42419457Y-35908044D01*
X42439448Y-35920026D01*
X42458168Y-35933910D01*
X42475438Y-35949562D01*
X42491090Y-35966832D01*
X42504974Y-35985552D01*
X42516956Y-36005543D01*
X42526921Y-36026613D01*
X42534773Y-36048557D01*
X42540437Y-36071166D01*
X42543856Y-36094221D01*
X42545000Y-36117500D01*
X42545000Y-36692500D01*
X42543856Y-36715779D01*
X42540437Y-36738834D01*
X42534773Y-36761443D01*
X42526921Y-36783387D01*
X42516956Y-36804457D01*
X42504974Y-36824448D01*
X42491090Y-36843168D01*
X42475438Y-36860438D01*
X42458168Y-36876090D01*
X42439448Y-36889974D01*
X42419457Y-36901956D01*
X42398387Y-36911921D01*
X42376443Y-36919773D01*
X42353834Y-36925437D01*
X42330779Y-36928856D01*
X42307500Y-36930000D01*
X41832500Y-36930000D01*
X41809221Y-36928856D01*
X41786166Y-36925437D01*
X41763557Y-36919773D01*
X41741613Y-36911921D01*
X41720543Y-36901956D01*
X41700552Y-36889974D01*
X41681832Y-36876090D01*
X41664562Y-36860438D01*
X41648910Y-36843168D01*
X41635026Y-36824448D01*
X41623044Y-36804457D01*
X41613079Y-36783387D01*
X41605227Y-36761443D01*
X41599563Y-36738834D01*
X41596144Y-36715779D01*
X41595000Y-36692500D01*
X41595000Y-36117500D01*
X41596144Y-36094221D01*
X41599563Y-36071166D01*
X41605227Y-36048557D01*
X41613079Y-36026613D01*
X41623044Y-36005543D01*
X41635026Y-35985552D01*
X41648910Y-35966832D01*
X41664562Y-35949562D01*
X41681832Y-35933910D01*
X41700552Y-35920026D01*
X41720543Y-35908044D01*
X41741613Y-35898079D01*
X41763557Y-35890227D01*
X41786166Y-35884563D01*
X41809221Y-35881144D01*
X41832500Y-35880000D01*
X42307500Y-35880000D01*
X42330779Y-35881144D01*
X42330779Y-35881144D01*
G37*
D11*
X42070000Y-36405000D03*
D10*
G36*
X42330779Y-34131144D02*
G01*
X42353834Y-34134563D01*
X42376443Y-34140227D01*
X42398387Y-34148079D01*
X42419457Y-34158044D01*
X42439448Y-34170026D01*
X42458168Y-34183910D01*
X42475438Y-34199562D01*
X42491090Y-34216832D01*
X42504974Y-34235552D01*
X42516956Y-34255543D01*
X42526921Y-34276613D01*
X42534773Y-34298557D01*
X42540437Y-34321166D01*
X42543856Y-34344221D01*
X42545000Y-34367500D01*
X42545000Y-34942500D01*
X42543856Y-34965779D01*
X42540437Y-34988834D01*
X42534773Y-35011443D01*
X42526921Y-35033387D01*
X42516956Y-35054457D01*
X42504974Y-35074448D01*
X42491090Y-35093168D01*
X42475438Y-35110438D01*
X42458168Y-35126090D01*
X42439448Y-35139974D01*
X42419457Y-35151956D01*
X42398387Y-35161921D01*
X42376443Y-35169773D01*
X42353834Y-35175437D01*
X42330779Y-35178856D01*
X42307500Y-35180000D01*
X41832500Y-35180000D01*
X41809221Y-35178856D01*
X41786166Y-35175437D01*
X41763557Y-35169773D01*
X41741613Y-35161921D01*
X41720543Y-35151956D01*
X41700552Y-35139974D01*
X41681832Y-35126090D01*
X41664562Y-35110438D01*
X41648910Y-35093168D01*
X41635026Y-35074448D01*
X41623044Y-35054457D01*
X41613079Y-35033387D01*
X41605227Y-35011443D01*
X41599563Y-34988834D01*
X41596144Y-34965779D01*
X41595000Y-34942500D01*
X41595000Y-34367500D01*
X41596144Y-34344221D01*
X41599563Y-34321166D01*
X41605227Y-34298557D01*
X41613079Y-34276613D01*
X41623044Y-34255543D01*
X41635026Y-34235552D01*
X41648910Y-34216832D01*
X41664562Y-34199562D01*
X41681832Y-34183910D01*
X41700552Y-34170026D01*
X41720543Y-34158044D01*
X41741613Y-34148079D01*
X41763557Y-34140227D01*
X41786166Y-34134563D01*
X41809221Y-34131144D01*
X41832500Y-34130000D01*
X42307500Y-34130000D01*
X42330779Y-34131144D01*
X42330779Y-34131144D01*
G37*
D11*
X42070000Y-34655000D03*
D10*
G36*
X40895779Y-37586144D02*
G01*
X40918834Y-37589563D01*
X40941443Y-37595227D01*
X40963387Y-37603079D01*
X40984457Y-37613044D01*
X41004448Y-37625026D01*
X41023168Y-37638910D01*
X41040438Y-37654562D01*
X41056090Y-37671832D01*
X41069974Y-37690552D01*
X41081956Y-37710543D01*
X41091921Y-37731613D01*
X41099773Y-37753557D01*
X41105437Y-37776166D01*
X41108856Y-37799221D01*
X41110000Y-37822500D01*
X41110000Y-38297500D01*
X41108856Y-38320779D01*
X41105437Y-38343834D01*
X41099773Y-38366443D01*
X41091921Y-38388387D01*
X41081956Y-38409457D01*
X41069974Y-38429448D01*
X41056090Y-38448168D01*
X41040438Y-38465438D01*
X41023168Y-38481090D01*
X41004448Y-38494974D01*
X40984457Y-38506956D01*
X40963387Y-38516921D01*
X40941443Y-38524773D01*
X40918834Y-38530437D01*
X40895779Y-38533856D01*
X40872500Y-38535000D01*
X40297500Y-38535000D01*
X40274221Y-38533856D01*
X40251166Y-38530437D01*
X40228557Y-38524773D01*
X40206613Y-38516921D01*
X40185543Y-38506956D01*
X40165552Y-38494974D01*
X40146832Y-38481090D01*
X40129562Y-38465438D01*
X40113910Y-38448168D01*
X40100026Y-38429448D01*
X40088044Y-38409457D01*
X40078079Y-38388387D01*
X40070227Y-38366443D01*
X40064563Y-38343834D01*
X40061144Y-38320779D01*
X40060000Y-38297500D01*
X40060000Y-37822500D01*
X40061144Y-37799221D01*
X40064563Y-37776166D01*
X40070227Y-37753557D01*
X40078079Y-37731613D01*
X40088044Y-37710543D01*
X40100026Y-37690552D01*
X40113910Y-37671832D01*
X40129562Y-37654562D01*
X40146832Y-37638910D01*
X40165552Y-37625026D01*
X40185543Y-37613044D01*
X40206613Y-37603079D01*
X40228557Y-37595227D01*
X40251166Y-37589563D01*
X40274221Y-37586144D01*
X40297500Y-37585000D01*
X40872500Y-37585000D01*
X40895779Y-37586144D01*
X40895779Y-37586144D01*
G37*
D11*
X40585000Y-38060000D03*
D10*
G36*
X42645779Y-37586144D02*
G01*
X42668834Y-37589563D01*
X42691443Y-37595227D01*
X42713387Y-37603079D01*
X42734457Y-37613044D01*
X42754448Y-37625026D01*
X42773168Y-37638910D01*
X42790438Y-37654562D01*
X42806090Y-37671832D01*
X42819974Y-37690552D01*
X42831956Y-37710543D01*
X42841921Y-37731613D01*
X42849773Y-37753557D01*
X42855437Y-37776166D01*
X42858856Y-37799221D01*
X42860000Y-37822500D01*
X42860000Y-38297500D01*
X42858856Y-38320779D01*
X42855437Y-38343834D01*
X42849773Y-38366443D01*
X42841921Y-38388387D01*
X42831956Y-38409457D01*
X42819974Y-38429448D01*
X42806090Y-38448168D01*
X42790438Y-38465438D01*
X42773168Y-38481090D01*
X42754448Y-38494974D01*
X42734457Y-38506956D01*
X42713387Y-38516921D01*
X42691443Y-38524773D01*
X42668834Y-38530437D01*
X42645779Y-38533856D01*
X42622500Y-38535000D01*
X42047500Y-38535000D01*
X42024221Y-38533856D01*
X42001166Y-38530437D01*
X41978557Y-38524773D01*
X41956613Y-38516921D01*
X41935543Y-38506956D01*
X41915552Y-38494974D01*
X41896832Y-38481090D01*
X41879562Y-38465438D01*
X41863910Y-38448168D01*
X41850026Y-38429448D01*
X41838044Y-38409457D01*
X41828079Y-38388387D01*
X41820227Y-38366443D01*
X41814563Y-38343834D01*
X41811144Y-38320779D01*
X41810000Y-38297500D01*
X41810000Y-37822500D01*
X41811144Y-37799221D01*
X41814563Y-37776166D01*
X41820227Y-37753557D01*
X41828079Y-37731613D01*
X41838044Y-37710543D01*
X41850026Y-37690552D01*
X41863910Y-37671832D01*
X41879562Y-37654562D01*
X41896832Y-37638910D01*
X41915552Y-37625026D01*
X41935543Y-37613044D01*
X41956613Y-37603079D01*
X41978557Y-37595227D01*
X42001166Y-37589563D01*
X42024221Y-37586144D01*
X42047500Y-37585000D01*
X42622500Y-37585000D01*
X42645779Y-37586144D01*
X42645779Y-37586144D01*
G37*
D11*
X42335000Y-38060000D03*
D10*
G36*
X39790779Y-58431144D02*
G01*
X39813834Y-58434563D01*
X39836443Y-58440227D01*
X39858387Y-58448079D01*
X39879457Y-58458044D01*
X39899448Y-58470026D01*
X39918168Y-58483910D01*
X39935438Y-58499562D01*
X39951090Y-58516832D01*
X39964974Y-58535552D01*
X39976956Y-58555543D01*
X39986921Y-58576613D01*
X39994773Y-58598557D01*
X40000437Y-58621166D01*
X40003856Y-58644221D01*
X40005000Y-58667500D01*
X40005000Y-59242500D01*
X40003856Y-59265779D01*
X40000437Y-59288834D01*
X39994773Y-59311443D01*
X39986921Y-59333387D01*
X39976956Y-59354457D01*
X39964974Y-59374448D01*
X39951090Y-59393168D01*
X39935438Y-59410438D01*
X39918168Y-59426090D01*
X39899448Y-59439974D01*
X39879457Y-59451956D01*
X39858387Y-59461921D01*
X39836443Y-59469773D01*
X39813834Y-59475437D01*
X39790779Y-59478856D01*
X39767500Y-59480000D01*
X39292500Y-59480000D01*
X39269221Y-59478856D01*
X39246166Y-59475437D01*
X39223557Y-59469773D01*
X39201613Y-59461921D01*
X39180543Y-59451956D01*
X39160552Y-59439974D01*
X39141832Y-59426090D01*
X39124562Y-59410438D01*
X39108910Y-59393168D01*
X39095026Y-59374448D01*
X39083044Y-59354457D01*
X39073079Y-59333387D01*
X39065227Y-59311443D01*
X39059563Y-59288834D01*
X39056144Y-59265779D01*
X39055000Y-59242500D01*
X39055000Y-58667500D01*
X39056144Y-58644221D01*
X39059563Y-58621166D01*
X39065227Y-58598557D01*
X39073079Y-58576613D01*
X39083044Y-58555543D01*
X39095026Y-58535552D01*
X39108910Y-58516832D01*
X39124562Y-58499562D01*
X39141832Y-58483910D01*
X39160552Y-58470026D01*
X39180543Y-58458044D01*
X39201613Y-58448079D01*
X39223557Y-58440227D01*
X39246166Y-58434563D01*
X39269221Y-58431144D01*
X39292500Y-58430000D01*
X39767500Y-58430000D01*
X39790779Y-58431144D01*
X39790779Y-58431144D01*
G37*
D11*
X39530000Y-58955000D03*
D10*
G36*
X39790779Y-56681144D02*
G01*
X39813834Y-56684563D01*
X39836443Y-56690227D01*
X39858387Y-56698079D01*
X39879457Y-56708044D01*
X39899448Y-56720026D01*
X39918168Y-56733910D01*
X39935438Y-56749562D01*
X39951090Y-56766832D01*
X39964974Y-56785552D01*
X39976956Y-56805543D01*
X39986921Y-56826613D01*
X39994773Y-56848557D01*
X40000437Y-56871166D01*
X40003856Y-56894221D01*
X40005000Y-56917500D01*
X40005000Y-57492500D01*
X40003856Y-57515779D01*
X40000437Y-57538834D01*
X39994773Y-57561443D01*
X39986921Y-57583387D01*
X39976956Y-57604457D01*
X39964974Y-57624448D01*
X39951090Y-57643168D01*
X39935438Y-57660438D01*
X39918168Y-57676090D01*
X39899448Y-57689974D01*
X39879457Y-57701956D01*
X39858387Y-57711921D01*
X39836443Y-57719773D01*
X39813834Y-57725437D01*
X39790779Y-57728856D01*
X39767500Y-57730000D01*
X39292500Y-57730000D01*
X39269221Y-57728856D01*
X39246166Y-57725437D01*
X39223557Y-57719773D01*
X39201613Y-57711921D01*
X39180543Y-57701956D01*
X39160552Y-57689974D01*
X39141832Y-57676090D01*
X39124562Y-57660438D01*
X39108910Y-57643168D01*
X39095026Y-57624448D01*
X39083044Y-57604457D01*
X39073079Y-57583387D01*
X39065227Y-57561443D01*
X39059563Y-57538834D01*
X39056144Y-57515779D01*
X39055000Y-57492500D01*
X39055000Y-56917500D01*
X39056144Y-56894221D01*
X39059563Y-56871166D01*
X39065227Y-56848557D01*
X39073079Y-56826613D01*
X39083044Y-56805543D01*
X39095026Y-56785552D01*
X39108910Y-56766832D01*
X39124562Y-56749562D01*
X39141832Y-56733910D01*
X39160552Y-56720026D01*
X39180543Y-56708044D01*
X39201613Y-56698079D01*
X39223557Y-56690227D01*
X39246166Y-56684563D01*
X39269221Y-56681144D01*
X39292500Y-56680000D01*
X39767500Y-56680000D01*
X39790779Y-56681144D01*
X39790779Y-56681144D01*
G37*
D11*
X39530000Y-57205000D03*
M02*
