G04 #@! TF.GenerationSoftware,KiCad,Pcbnew,(5.1.2-1)-1*
G04 #@! TF.CreationDate,2022-08-10T15:30:44-04:00*
G04 #@! TF.ProjectId,BassDrum_TR909,42617373-4472-4756-9d5f-54523930392e,rev?*
G04 #@! TF.SameCoordinates,Original*
G04 #@! TF.FileFunction,Legend,Bot*
G04 #@! TF.FilePolarity,Positive*
%FSLAX46Y46*%
G04 Gerber Fmt 4.6, Leading zero omitted, Abs format (unit mm)*
G04 Created by KiCad (PCBNEW (5.1.2-1)-1) date 2022-08-10 15:30:44*
%MOMM*%
%LPD*%
G04 APERTURE LIST*
%ADD10C,0.120000*%
%ADD11C,0.150000*%
G04 APERTURE END LIST*
D10*
X39220000Y-54841267D02*
X39220000Y-54498733D01*
X40240000Y-54841267D02*
X40240000Y-54498733D01*
X23408733Y-43440000D02*
X23751267Y-43440000D01*
X23408733Y-44460000D02*
X23751267Y-44460000D01*
X27680000Y-63198733D02*
X27680000Y-63541267D01*
X26660000Y-63198733D02*
X26660000Y-63541267D01*
X26560000Y-44308733D02*
X26560000Y-44651267D01*
X25540000Y-44308733D02*
X25540000Y-44651267D01*
X42580000Y-35358733D02*
X42580000Y-35701267D01*
X41560000Y-35358733D02*
X41560000Y-35701267D01*
X41631267Y-38570000D02*
X41288733Y-38570000D01*
X41631267Y-37550000D02*
X41288733Y-37550000D01*
X40040000Y-58251267D02*
X40040000Y-57908733D01*
X39020000Y-58251267D02*
X39020000Y-57908733D01*
D11*
X41517142Y-54027142D02*
X41564761Y-53979523D01*
X41612380Y-53836666D01*
X41612380Y-53741428D01*
X41564761Y-53598571D01*
X41469523Y-53503333D01*
X41374285Y-53455714D01*
X41183809Y-53408095D01*
X41040952Y-53408095D01*
X40850476Y-53455714D01*
X40755238Y-53503333D01*
X40660000Y-53598571D01*
X40612380Y-53741428D01*
X40612380Y-53836666D01*
X40660000Y-53979523D01*
X40707619Y-54027142D01*
X40612380Y-54360476D02*
X40612380Y-54979523D01*
X40993333Y-54646190D01*
X40993333Y-54789047D01*
X41040952Y-54884285D01*
X41088571Y-54931904D01*
X41183809Y-54979523D01*
X41421904Y-54979523D01*
X41517142Y-54931904D01*
X41564761Y-54884285D01*
X41612380Y-54789047D01*
X41612380Y-54503333D01*
X41564761Y-54408095D01*
X41517142Y-54360476D01*
X40612380Y-55598571D02*
X40612380Y-55693809D01*
X40660000Y-55789047D01*
X40707619Y-55836666D01*
X40802857Y-55884285D01*
X40993333Y-55931904D01*
X41231428Y-55931904D01*
X41421904Y-55884285D01*
X41517142Y-55836666D01*
X41564761Y-55789047D01*
X41612380Y-55693809D01*
X41612380Y-55598571D01*
X41564761Y-55503333D01*
X41517142Y-55455714D01*
X41421904Y-55408095D01*
X41231428Y-55360476D01*
X40993333Y-55360476D01*
X40802857Y-55408095D01*
X40707619Y-55455714D01*
X40660000Y-55503333D01*
X40612380Y-55598571D01*
X24222857Y-45737142D02*
X24270476Y-45784761D01*
X24413333Y-45832380D01*
X24508571Y-45832380D01*
X24651428Y-45784761D01*
X24746666Y-45689523D01*
X24794285Y-45594285D01*
X24841904Y-45403809D01*
X24841904Y-45260952D01*
X24794285Y-45070476D01*
X24746666Y-44975238D01*
X24651428Y-44880000D01*
X24508571Y-44832380D01*
X24413333Y-44832380D01*
X24270476Y-44880000D01*
X24222857Y-44927619D01*
X23841904Y-44927619D02*
X23794285Y-44880000D01*
X23699047Y-44832380D01*
X23460952Y-44832380D01*
X23365714Y-44880000D01*
X23318095Y-44927619D01*
X23270476Y-45022857D01*
X23270476Y-45118095D01*
X23318095Y-45260952D01*
X23889523Y-45832380D01*
X23270476Y-45832380D01*
X22794285Y-45832380D02*
X22603809Y-45832380D01*
X22508571Y-45784761D01*
X22460952Y-45737142D01*
X22365714Y-45594285D01*
X22318095Y-45403809D01*
X22318095Y-45022857D01*
X22365714Y-44927619D01*
X22413333Y-44880000D01*
X22508571Y-44832380D01*
X22699047Y-44832380D01*
X22794285Y-44880000D01*
X22841904Y-44927619D01*
X22889523Y-45022857D01*
X22889523Y-45260952D01*
X22841904Y-45356190D01*
X22794285Y-45403809D01*
X22699047Y-45451428D01*
X22508571Y-45451428D01*
X22413333Y-45403809D01*
X22365714Y-45356190D01*
X22318095Y-45260952D01*
X26097142Y-62727142D02*
X26144761Y-62679523D01*
X26192380Y-62536666D01*
X26192380Y-62441428D01*
X26144761Y-62298571D01*
X26049523Y-62203333D01*
X25954285Y-62155714D01*
X25763809Y-62108095D01*
X25620952Y-62108095D01*
X25430476Y-62155714D01*
X25335238Y-62203333D01*
X25240000Y-62298571D01*
X25192380Y-62441428D01*
X25192380Y-62536666D01*
X25240000Y-62679523D01*
X25287619Y-62727142D01*
X25287619Y-63108095D02*
X25240000Y-63155714D01*
X25192380Y-63250952D01*
X25192380Y-63489047D01*
X25240000Y-63584285D01*
X25287619Y-63631904D01*
X25382857Y-63679523D01*
X25478095Y-63679523D01*
X25620952Y-63631904D01*
X26192380Y-63060476D01*
X26192380Y-63679523D01*
X25192380Y-64584285D02*
X25192380Y-64108095D01*
X25668571Y-64060476D01*
X25620952Y-64108095D01*
X25573333Y-64203333D01*
X25573333Y-64441428D01*
X25620952Y-64536666D01*
X25668571Y-64584285D01*
X25763809Y-64631904D01*
X26001904Y-64631904D01*
X26097142Y-64584285D01*
X26144761Y-64536666D01*
X26192380Y-64441428D01*
X26192380Y-64203333D01*
X26144761Y-64108095D01*
X26097142Y-64060476D01*
X24977142Y-43837142D02*
X25024761Y-43789523D01*
X25072380Y-43646666D01*
X25072380Y-43551428D01*
X25024761Y-43408571D01*
X24929523Y-43313333D01*
X24834285Y-43265714D01*
X24643809Y-43218095D01*
X24500952Y-43218095D01*
X24310476Y-43265714D01*
X24215238Y-43313333D01*
X24120000Y-43408571D01*
X24072380Y-43551428D01*
X24072380Y-43646666D01*
X24120000Y-43789523D01*
X24167619Y-43837142D01*
X24167619Y-44218095D02*
X24120000Y-44265714D01*
X24072380Y-44360952D01*
X24072380Y-44599047D01*
X24120000Y-44694285D01*
X24167619Y-44741904D01*
X24262857Y-44789523D01*
X24358095Y-44789523D01*
X24500952Y-44741904D01*
X25072380Y-44170476D01*
X25072380Y-44789523D01*
X24405714Y-45646666D02*
X25072380Y-45646666D01*
X24024761Y-45408571D02*
X24739047Y-45170476D01*
X24739047Y-45789523D01*
X40997142Y-34887142D02*
X41044761Y-34839523D01*
X41092380Y-34696666D01*
X41092380Y-34601428D01*
X41044761Y-34458571D01*
X40949523Y-34363333D01*
X40854285Y-34315714D01*
X40663809Y-34268095D01*
X40520952Y-34268095D01*
X40330476Y-34315714D01*
X40235238Y-34363333D01*
X40140000Y-34458571D01*
X40092380Y-34601428D01*
X40092380Y-34696666D01*
X40140000Y-34839523D01*
X40187619Y-34887142D01*
X40187619Y-35268095D02*
X40140000Y-35315714D01*
X40092380Y-35410952D01*
X40092380Y-35649047D01*
X40140000Y-35744285D01*
X40187619Y-35791904D01*
X40282857Y-35839523D01*
X40378095Y-35839523D01*
X40520952Y-35791904D01*
X41092380Y-35220476D01*
X41092380Y-35839523D01*
X40092380Y-36172857D02*
X40092380Y-36791904D01*
X40473333Y-36458571D01*
X40473333Y-36601428D01*
X40520952Y-36696666D01*
X40568571Y-36744285D01*
X40663809Y-36791904D01*
X40901904Y-36791904D01*
X40997142Y-36744285D01*
X41044761Y-36696666D01*
X41092380Y-36601428D01*
X41092380Y-36315714D01*
X41044761Y-36220476D01*
X40997142Y-36172857D01*
X42102857Y-36987142D02*
X42150476Y-37034761D01*
X42293333Y-37082380D01*
X42388571Y-37082380D01*
X42531428Y-37034761D01*
X42626666Y-36939523D01*
X42674285Y-36844285D01*
X42721904Y-36653809D01*
X42721904Y-36510952D01*
X42674285Y-36320476D01*
X42626666Y-36225238D01*
X42531428Y-36130000D01*
X42388571Y-36082380D01*
X42293333Y-36082380D01*
X42150476Y-36130000D01*
X42102857Y-36177619D01*
X41721904Y-36177619D02*
X41674285Y-36130000D01*
X41579047Y-36082380D01*
X41340952Y-36082380D01*
X41245714Y-36130000D01*
X41198095Y-36177619D01*
X41150476Y-36272857D01*
X41150476Y-36368095D01*
X41198095Y-36510952D01*
X41769523Y-37082380D01*
X41150476Y-37082380D01*
X40769523Y-36177619D02*
X40721904Y-36130000D01*
X40626666Y-36082380D01*
X40388571Y-36082380D01*
X40293333Y-36130000D01*
X40245714Y-36177619D01*
X40198095Y-36272857D01*
X40198095Y-36368095D01*
X40245714Y-36510952D01*
X40817142Y-37082380D01*
X40198095Y-37082380D01*
X41317142Y-57437142D02*
X41364761Y-57389523D01*
X41412380Y-57246666D01*
X41412380Y-57151428D01*
X41364761Y-57008571D01*
X41269523Y-56913333D01*
X41174285Y-56865714D01*
X40983809Y-56818095D01*
X40840952Y-56818095D01*
X40650476Y-56865714D01*
X40555238Y-56913333D01*
X40460000Y-57008571D01*
X40412380Y-57151428D01*
X40412380Y-57246666D01*
X40460000Y-57389523D01*
X40507619Y-57437142D01*
X40507619Y-57818095D02*
X40460000Y-57865714D01*
X40412380Y-57960952D01*
X40412380Y-58199047D01*
X40460000Y-58294285D01*
X40507619Y-58341904D01*
X40602857Y-58389523D01*
X40698095Y-58389523D01*
X40840952Y-58341904D01*
X41412380Y-57770476D01*
X41412380Y-58389523D01*
X41412380Y-59341904D02*
X41412380Y-58770476D01*
X41412380Y-59056190D02*
X40412380Y-59056190D01*
X40555238Y-58960952D01*
X40650476Y-58865714D01*
X40698095Y-58770476D01*
M02*
