G04 #@! TF.GenerationSoftware,KiCad,Pcbnew,(5.1.2-1)-1*
G04 #@! TF.CreationDate,2022-08-10T14:13:14-04:00*
G04 #@! TF.ProjectId,TR909 Snare Drum,54523930-3920-4536-9e61-726520447275,rev?*
G04 #@! TF.SameCoordinates,Original*
G04 #@! TF.FileFunction,Legend,Top*
G04 #@! TF.FilePolarity,Positive*
%FSLAX46Y46*%
G04 Gerber Fmt 4.6, Leading zero omitted, Abs format (unit mm)*
G04 Created by KiCad (PCBNEW (5.1.2-1)-1) date 2022-08-10 14:13:14*
%MOMM*%
%LPD*%
G04 APERTURE LIST*
%ADD10C,0.120000*%
%ADD11C,0.150000*%
G04 APERTURE END LIST*
D10*
X60010000Y-26550000D02*
X58640000Y-26620000D01*
X60050000Y-26990000D02*
X60010000Y-26550000D01*
X59260000Y-27180000D02*
X60050000Y-26990000D01*
X59260000Y-27550000D02*
X59260000Y-27180000D01*
X59880000Y-27550000D02*
X59260000Y-27550000D01*
X59860000Y-28120000D02*
X59880000Y-27550000D01*
X59130000Y-28150000D02*
X59860000Y-28120000D01*
X59130000Y-28470000D02*
X59130000Y-28150000D01*
X59960000Y-28630000D02*
X59130000Y-28470000D01*
X59890000Y-29080000D02*
X59960000Y-28630000D01*
X58650000Y-29020000D02*
X59890000Y-29080000D01*
X58670000Y-26640000D02*
X58650000Y-29020000D01*
X57770000Y-27150000D02*
X57390000Y-27210000D01*
X57770000Y-27470000D02*
X57770000Y-27150000D01*
X57620000Y-27670000D02*
X57770000Y-27470000D01*
X57380000Y-27690000D02*
X57620000Y-27670000D01*
X57380000Y-27230000D02*
X57380000Y-27690000D01*
X57750000Y-26770000D02*
X57020000Y-26930000D01*
X58190000Y-26790000D02*
X57750000Y-26770000D01*
X58160000Y-27790000D02*
X58190000Y-26790000D01*
X57850000Y-28010000D02*
X58160000Y-27790000D01*
X58300000Y-29080000D02*
X57850000Y-28010000D01*
X57900000Y-29050000D02*
X58300000Y-29080000D01*
X57680000Y-28400000D02*
X57900000Y-29050000D01*
X57530000Y-28400000D02*
X57680000Y-28400000D01*
X57530000Y-29240000D02*
X57530000Y-28400000D01*
X57090000Y-29240000D02*
X57530000Y-29240000D01*
X57000000Y-26940000D02*
X57090000Y-29240000D01*
X56290000Y-28030000D02*
X56190000Y-28300000D01*
X56190000Y-27780000D02*
X56290000Y-28030000D01*
X56100000Y-28300000D02*
X56190000Y-27780000D01*
X55980000Y-29190000D02*
X55540000Y-29320000D01*
X55980000Y-28860000D02*
X55980000Y-29190000D01*
X56270000Y-28590000D02*
X55980000Y-28860000D01*
X56460000Y-29150000D02*
X56270000Y-28590000D01*
X56800000Y-29150000D02*
X56460000Y-29150000D01*
X56240000Y-26710000D02*
X56800000Y-29150000D01*
X55540000Y-29310000D02*
X56240000Y-26710000D01*
X54370000Y-29590000D02*
X54110000Y-29590000D01*
X54690000Y-28710000D02*
X54370000Y-29590000D01*
X55130000Y-29370000D02*
X54690000Y-28710000D01*
X55390000Y-27330000D02*
X55130000Y-29370000D01*
X54850000Y-28400000D02*
X55390000Y-27330000D01*
X54450000Y-27540000D02*
X54850000Y-28400000D01*
X54130000Y-29590000D02*
X54450000Y-27540000D01*
X53830000Y-27130000D02*
X53760000Y-26690000D01*
X53400000Y-27450000D02*
X53830000Y-27130000D01*
X53370000Y-27060000D02*
X53400000Y-27450000D01*
X52910000Y-26860000D02*
X53370000Y-27060000D01*
X52650000Y-27110000D02*
X52910000Y-26860000D01*
X52650000Y-27370000D02*
X52650000Y-27110000D01*
X53060000Y-27570000D02*
X52650000Y-27370000D01*
X53490000Y-28100000D02*
X53060000Y-27570000D01*
X53470000Y-29340000D02*
X53490000Y-28100000D01*
X52860000Y-29830000D02*
X53470000Y-29340000D01*
X52020000Y-29150000D02*
X52860000Y-29830000D01*
X52140000Y-28660000D02*
X52020000Y-29150000D01*
X52750000Y-29140000D02*
X52140000Y-28660000D01*
X53110000Y-28490000D02*
X52750000Y-29140000D01*
X52870000Y-28030000D02*
X53110000Y-28490000D01*
X52020000Y-27740000D02*
X52870000Y-28030000D01*
X51910000Y-26770000D02*
X52020000Y-27740000D01*
X52740000Y-26140000D02*
X51910000Y-26770000D01*
X53230000Y-26140000D02*
X52740000Y-26140000D01*
X53740000Y-26740000D02*
X53230000Y-26140000D01*
X58950000Y-23940000D02*
X58810000Y-23770000D01*
X59000000Y-24620000D02*
X58950000Y-23940000D01*
X58800000Y-24740000D02*
X59000000Y-24620000D01*
X58680000Y-24110000D02*
X58800000Y-24740000D01*
X58780000Y-23750000D02*
X58680000Y-24110000D01*
X57860000Y-23260000D02*
X57690000Y-23170000D01*
X57640000Y-23610000D02*
X57860000Y-23260000D01*
X57440000Y-23330000D02*
X57640000Y-23610000D01*
X57670000Y-23160000D02*
X57440000Y-23330000D01*
X60310000Y-23170000D02*
X60210000Y-23120000D01*
X60190000Y-23560000D02*
X60310000Y-23170000D01*
X60040000Y-23560000D02*
X60190000Y-23560000D01*
X59970000Y-23240000D02*
X60040000Y-23560000D01*
X60190000Y-23070000D02*
X59970000Y-23240000D01*
X60510000Y-25840000D02*
X60650000Y-22750000D01*
X59950000Y-25840000D02*
X60510000Y-25840000D01*
X60260000Y-23950000D02*
X59950000Y-25840000D01*
X59580000Y-23780000D02*
X60260000Y-23950000D01*
X59560000Y-23170000D02*
X59580000Y-23780000D01*
X59930000Y-22700000D02*
X59560000Y-23170000D01*
X60560000Y-22700000D02*
X59930000Y-22700000D01*
X59310000Y-22930000D02*
X58780000Y-22730000D01*
X59310000Y-24740000D02*
X59310000Y-22930000D01*
X58830000Y-25700000D02*
X59310000Y-24740000D01*
X58470000Y-25670000D02*
X58830000Y-25700000D01*
X58320000Y-24040000D02*
X58470000Y-25670000D01*
X58710000Y-22660000D02*
X58320000Y-24040000D01*
X58200000Y-22650000D02*
X57810000Y-22820000D01*
X57880000Y-25690000D02*
X58200000Y-22650000D01*
X57470000Y-25640000D02*
X57880000Y-25690000D01*
X57710000Y-24010000D02*
X57470000Y-25640000D01*
X56910000Y-23700000D02*
X57710000Y-24010000D01*
X57220000Y-22970000D02*
X56910000Y-23700000D01*
X57830000Y-22800000D02*
X57220000Y-22970000D01*
X56040000Y-23430000D02*
X56030000Y-23510000D01*
X56250000Y-23560000D02*
X56040000Y-23430000D01*
X56040000Y-23950000D02*
X56250000Y-23560000D01*
X56040000Y-23530000D02*
X56040000Y-23950000D01*
X56200000Y-25740000D02*
X55630000Y-25700000D01*
X56200000Y-24770000D02*
X56200000Y-25740000D01*
X56590000Y-25520000D02*
X56200000Y-24770000D01*
X57110000Y-25520000D02*
X56590000Y-25520000D01*
X56400000Y-24290000D02*
X57110000Y-25520000D01*
X56540000Y-23290000D02*
X56400000Y-24290000D01*
X55750000Y-22880000D02*
X56540000Y-23290000D01*
X55570000Y-25700000D02*
X55750000Y-22880000D01*
X52510000Y-23480000D02*
X52690000Y-22870000D01*
X53560000Y-23770000D02*
X52510000Y-23480000D01*
X53560000Y-25550000D02*
X53560000Y-23770000D01*
X54260000Y-25600000D02*
X53560000Y-25550000D01*
X54270000Y-23630000D02*
X54260000Y-25600000D01*
X55290000Y-23630000D02*
X54270000Y-23630000D01*
X55400000Y-22850000D02*
X55290000Y-23630000D01*
X52780000Y-22850000D02*
X55400000Y-22850000D01*
D11*
X48555714Y-98762380D02*
X48898571Y-98762380D01*
X48727142Y-99762380D02*
X48727142Y-98762380D01*
X49355714Y-99095714D02*
X49355714Y-99762380D01*
X49098571Y-99095714D02*
X49098571Y-99619523D01*
X49127142Y-99714761D01*
X49184285Y-99762380D01*
X49270000Y-99762380D01*
X49327142Y-99714761D01*
X49355714Y-99667142D01*
X49641428Y-99095714D02*
X49641428Y-99762380D01*
X49641428Y-99190952D02*
X49670000Y-99143333D01*
X49727142Y-99095714D01*
X49812857Y-99095714D01*
X49870000Y-99143333D01*
X49898571Y-99238571D01*
X49898571Y-99762380D01*
X50412857Y-99714761D02*
X50355714Y-99762380D01*
X50241428Y-99762380D01*
X50184285Y-99714761D01*
X50155714Y-99619523D01*
X50155714Y-99238571D01*
X50184285Y-99143333D01*
X50241428Y-99095714D01*
X50355714Y-99095714D01*
X50412857Y-99143333D01*
X50441428Y-99238571D01*
X50441428Y-99333809D01*
X50155714Y-99429047D01*
X50641428Y-98762380D02*
X50784285Y-99762380D01*
X50898571Y-99048095D01*
X51012857Y-99762380D01*
X51155714Y-98762380D01*
X38772857Y-89022380D02*
X39115714Y-89022380D01*
X38944285Y-90022380D02*
X38944285Y-89022380D01*
X39572857Y-89355714D02*
X39572857Y-90022380D01*
X39315714Y-89355714D02*
X39315714Y-89879523D01*
X39344285Y-89974761D01*
X39401428Y-90022380D01*
X39487142Y-90022380D01*
X39544285Y-89974761D01*
X39572857Y-89927142D01*
X39858571Y-89355714D02*
X39858571Y-90022380D01*
X39858571Y-89450952D02*
X39887142Y-89403333D01*
X39944285Y-89355714D01*
X40030000Y-89355714D01*
X40087142Y-89403333D01*
X40115714Y-89498571D01*
X40115714Y-90022380D01*
X40630000Y-89974761D02*
X40572857Y-90022380D01*
X40458571Y-90022380D01*
X40401428Y-89974761D01*
X40372857Y-89879523D01*
X40372857Y-89498571D01*
X40401428Y-89403333D01*
X40458571Y-89355714D01*
X40572857Y-89355714D01*
X40630000Y-89403333D01*
X40658571Y-89498571D01*
X40658571Y-89593809D01*
X40372857Y-89689047D01*
X41230000Y-90022380D02*
X40887142Y-90022380D01*
X41058571Y-90022380D02*
X41058571Y-89022380D01*
X41001428Y-89165238D01*
X40944285Y-89260476D01*
X40887142Y-89308095D01*
X36976190Y-71962380D02*
X37309523Y-72962380D01*
X37642857Y-71962380D01*
X38357142Y-72914761D02*
X38261904Y-72962380D01*
X38071428Y-72962380D01*
X37976190Y-72914761D01*
X37928571Y-72819523D01*
X37928571Y-72438571D01*
X37976190Y-72343333D01*
X38071428Y-72295714D01*
X38261904Y-72295714D01*
X38357142Y-72343333D01*
X38404761Y-72438571D01*
X38404761Y-72533809D01*
X37928571Y-72629047D01*
X38976190Y-72962380D02*
X38880952Y-72914761D01*
X38833333Y-72819523D01*
X38833333Y-71962380D01*
D10*
X32580000Y-58530000D02*
X33290000Y-59480000D01*
D11*
X28414761Y-57242380D02*
X28986190Y-57242380D01*
X28700476Y-58242380D02*
X28700476Y-57242380D01*
X29462380Y-58242380D02*
X29367142Y-58194761D01*
X29319523Y-58147142D01*
X29271904Y-58051904D01*
X29271904Y-57766190D01*
X29319523Y-57670952D01*
X29367142Y-57623333D01*
X29462380Y-57575714D01*
X29605238Y-57575714D01*
X29700476Y-57623333D01*
X29748095Y-57670952D01*
X29795714Y-57766190D01*
X29795714Y-58051904D01*
X29748095Y-58147142D01*
X29700476Y-58194761D01*
X29605238Y-58242380D01*
X29462380Y-58242380D01*
X30224285Y-57575714D02*
X30224285Y-58242380D01*
X30224285Y-57670952D02*
X30271904Y-57623333D01*
X30367142Y-57575714D01*
X30510000Y-57575714D01*
X30605238Y-57623333D01*
X30652857Y-57718571D01*
X30652857Y-58242380D01*
X31510000Y-58194761D02*
X31414761Y-58242380D01*
X31224285Y-58242380D01*
X31129047Y-58194761D01*
X31081428Y-58099523D01*
X31081428Y-57718571D01*
X31129047Y-57623333D01*
X31224285Y-57575714D01*
X31414761Y-57575714D01*
X31510000Y-57623333D01*
X31557619Y-57718571D01*
X31557619Y-57813809D01*
X31081428Y-57909047D01*
X32510000Y-58242380D02*
X31938571Y-58242380D01*
X32224285Y-58242380D02*
X32224285Y-57242380D01*
X32129047Y-57385238D01*
X32033809Y-57480476D01*
X31938571Y-57528095D01*
X25454761Y-67292380D02*
X26026190Y-67292380D01*
X25740476Y-68292380D02*
X25740476Y-67292380D01*
X26788095Y-67625714D02*
X26788095Y-68292380D01*
X26359523Y-67625714D02*
X26359523Y-68149523D01*
X26407142Y-68244761D01*
X26502380Y-68292380D01*
X26645238Y-68292380D01*
X26740476Y-68244761D01*
X26788095Y-68197142D01*
X27264285Y-67625714D02*
X27264285Y-68292380D01*
X27264285Y-67720952D02*
X27311904Y-67673333D01*
X27407142Y-67625714D01*
X27550000Y-67625714D01*
X27645238Y-67673333D01*
X27692857Y-67768571D01*
X27692857Y-68292380D01*
X28550000Y-68244761D02*
X28454761Y-68292380D01*
X28264285Y-68292380D01*
X28169047Y-68244761D01*
X28121428Y-68149523D01*
X28121428Y-67768571D01*
X28169047Y-67673333D01*
X28264285Y-67625714D01*
X28454761Y-67625714D01*
X28550000Y-67673333D01*
X28597619Y-67768571D01*
X28597619Y-67863809D01*
X28121428Y-67959047D01*
X28930952Y-67292380D02*
X29550000Y-67292380D01*
X29216666Y-67673333D01*
X29359523Y-67673333D01*
X29454761Y-67720952D01*
X29502380Y-67768571D01*
X29550000Y-67863809D01*
X29550000Y-68101904D01*
X29502380Y-68197142D01*
X29454761Y-68244761D01*
X29359523Y-68292380D01*
X29073809Y-68292380D01*
X28978571Y-68244761D01*
X28930952Y-68197142D01*
X24483333Y-63112380D02*
X25054761Y-63112380D01*
X24769047Y-64112380D02*
X24769047Y-63112380D01*
X25530952Y-64112380D02*
X25435714Y-64064761D01*
X25388095Y-64017142D01*
X25340476Y-63921904D01*
X25340476Y-63636190D01*
X25388095Y-63540952D01*
X25435714Y-63493333D01*
X25530952Y-63445714D01*
X25673809Y-63445714D01*
X25769047Y-63493333D01*
X25816666Y-63540952D01*
X25864285Y-63636190D01*
X25864285Y-63921904D01*
X25816666Y-64017142D01*
X25769047Y-64064761D01*
X25673809Y-64112380D01*
X25530952Y-64112380D01*
X26292857Y-63445714D02*
X26292857Y-64112380D01*
X26292857Y-63540952D02*
X26340476Y-63493333D01*
X26435714Y-63445714D01*
X26578571Y-63445714D01*
X26673809Y-63493333D01*
X26721428Y-63588571D01*
X26721428Y-64112380D01*
X27578571Y-64064761D02*
X27483333Y-64112380D01*
X27292857Y-64112380D01*
X27197619Y-64064761D01*
X27150000Y-63969523D01*
X27150000Y-63588571D01*
X27197619Y-63493333D01*
X27292857Y-63445714D01*
X27483333Y-63445714D01*
X27578571Y-63493333D01*
X27626190Y-63588571D01*
X27626190Y-63683809D01*
X27150000Y-63779047D01*
X27959523Y-63112380D02*
X28578571Y-63112380D01*
X28245238Y-63493333D01*
X28388095Y-63493333D01*
X28483333Y-63540952D01*
X28530952Y-63588571D01*
X28578571Y-63683809D01*
X28578571Y-63921904D01*
X28530952Y-64017142D01*
X28483333Y-64064761D01*
X28388095Y-64112380D01*
X28102380Y-64112380D01*
X28007142Y-64064761D01*
X27959523Y-64017142D01*
X28911904Y-63112380D02*
X29150000Y-64112380D01*
X29340476Y-63398095D01*
X29530952Y-64112380D01*
X29769047Y-63112380D01*
X48224285Y-55942380D02*
X48795714Y-55942380D01*
X48510000Y-56942380D02*
X48510000Y-55942380D01*
X49129047Y-56942380D02*
X49129047Y-56275714D01*
X49129047Y-56466190D02*
X49176666Y-56370952D01*
X49224285Y-56323333D01*
X49319523Y-56275714D01*
X49414761Y-56275714D01*
X49748095Y-56942380D02*
X49748095Y-56275714D01*
X49748095Y-55942380D02*
X49700476Y-55990000D01*
X49748095Y-56037619D01*
X49795714Y-55990000D01*
X49748095Y-55942380D01*
X49748095Y-56037619D01*
X50652857Y-56275714D02*
X50652857Y-57085238D01*
X50605238Y-57180476D01*
X50557619Y-57228095D01*
X50462380Y-57275714D01*
X50319523Y-57275714D01*
X50224285Y-57228095D01*
X50652857Y-56894761D02*
X50557619Y-56942380D01*
X50367142Y-56942380D01*
X50271904Y-56894761D01*
X50224285Y-56847142D01*
X50176666Y-56751904D01*
X50176666Y-56466190D01*
X50224285Y-56370952D01*
X50271904Y-56323333D01*
X50367142Y-56275714D01*
X50557619Y-56275714D01*
X50652857Y-56323333D01*
X55241428Y-53184761D02*
X55327142Y-53232380D01*
X55470000Y-53232380D01*
X55527142Y-53184761D01*
X55555714Y-53137142D01*
X55584285Y-53041904D01*
X55584285Y-52946666D01*
X55555714Y-52851428D01*
X55527142Y-52803809D01*
X55470000Y-52756190D01*
X55355714Y-52708571D01*
X55298571Y-52660952D01*
X55270000Y-52613333D01*
X55241428Y-52518095D01*
X55241428Y-52422857D01*
X55270000Y-52327619D01*
X55298571Y-52280000D01*
X55355714Y-52232380D01*
X55498571Y-52232380D01*
X55584285Y-52280000D01*
X55841428Y-53232380D02*
X55841428Y-52232380D01*
X56184285Y-53232380D01*
X56184285Y-52232380D01*
X56441428Y-52946666D02*
X56727142Y-52946666D01*
X56384285Y-53232380D02*
X56584285Y-52232380D01*
X56784285Y-53232380D01*
X56984285Y-53232380D02*
X56984285Y-52232380D01*
X57212857Y-52232380D01*
X57270000Y-52280000D01*
X57298571Y-52327619D01*
X57327142Y-52422857D01*
X57327142Y-52565714D01*
X57298571Y-52660952D01*
X57270000Y-52708571D01*
X57212857Y-52756190D01*
X56984285Y-52756190D01*
X57898571Y-53232380D02*
X57555714Y-53232380D01*
X57727142Y-53232380D02*
X57727142Y-52232380D01*
X57670000Y-52375238D01*
X57612857Y-52470476D01*
X57555714Y-52518095D01*
X35020000Y-33572380D02*
X34734285Y-33572380D01*
X34734285Y-32572380D01*
X35134285Y-32572380D02*
X35334285Y-33572380D01*
X35534285Y-32572380D01*
X36020000Y-33572380D02*
X35734285Y-33572380D01*
X35734285Y-32572380D01*
X36534285Y-33572380D02*
X36191428Y-33572380D01*
X36362857Y-33572380D02*
X36362857Y-32572380D01*
X36305714Y-32715238D01*
X36248571Y-32810476D01*
X36191428Y-32858095D01*
X42468727Y-40307575D02*
X42200243Y-40405295D01*
X41858223Y-39465602D01*
X42234100Y-39328794D02*
X42764059Y-40200083D01*
X42609977Y-39191986D01*
X43408420Y-39965555D02*
X43139936Y-40063275D01*
X42797916Y-39123582D01*
X43200641Y-38977002D02*
X43549670Y-38849966D01*
X43492025Y-39276348D01*
X43572570Y-39247032D01*
X43642553Y-39272235D01*
X43685688Y-39307211D01*
X43745110Y-39386933D01*
X43826543Y-39610669D01*
X43832268Y-39709936D01*
X43821707Y-39764455D01*
X43784297Y-39828746D01*
X43623207Y-39887379D01*
X43553223Y-39862175D01*
X43510088Y-39827200D01*
X43737608Y-38781562D02*
X44213870Y-39672394D01*
X44076964Y-38962097D01*
X44428657Y-39594218D01*
X44220879Y-38605666D01*
X38970000Y-32222380D02*
X39084285Y-32222380D01*
X39141428Y-32270000D01*
X39198571Y-32365238D01*
X39227142Y-32555714D01*
X39227142Y-32889047D01*
X39198571Y-33079523D01*
X39141428Y-33174761D01*
X39084285Y-33222380D01*
X38970000Y-33222380D01*
X38912857Y-33174761D01*
X38855714Y-33079523D01*
X38827142Y-32889047D01*
X38827142Y-32555714D01*
X38855714Y-32365238D01*
X38912857Y-32270000D01*
X38970000Y-32222380D01*
X39741428Y-32555714D02*
X39741428Y-33222380D01*
X39484285Y-32555714D02*
X39484285Y-33079523D01*
X39512857Y-33174761D01*
X39570000Y-33222380D01*
X39655714Y-33222380D01*
X39712857Y-33174761D01*
X39741428Y-33127142D01*
X39941428Y-32555714D02*
X40170000Y-32555714D01*
X40027142Y-32222380D02*
X40027142Y-33079523D01*
X40055714Y-33174761D01*
X40112857Y-33222380D01*
X40170000Y-33222380D01*
X54659523Y-34034761D02*
X54802380Y-34082380D01*
X55040476Y-34082380D01*
X55135714Y-34034761D01*
X55183333Y-33987142D01*
X55230952Y-33891904D01*
X55230952Y-33796666D01*
X55183333Y-33701428D01*
X55135714Y-33653809D01*
X55040476Y-33606190D01*
X54850000Y-33558571D01*
X54754761Y-33510952D01*
X54707142Y-33463333D01*
X54659523Y-33368095D01*
X54659523Y-33272857D01*
X54707142Y-33177619D01*
X54754761Y-33130000D01*
X54850000Y-33082380D01*
X55088095Y-33082380D01*
X55230952Y-33130000D01*
X55659523Y-33415714D02*
X55659523Y-34082380D01*
X55659523Y-33510952D02*
X55707142Y-33463333D01*
X55802380Y-33415714D01*
X55945238Y-33415714D01*
X56040476Y-33463333D01*
X56088095Y-33558571D01*
X56088095Y-34082380D01*
X56992857Y-34082380D02*
X56992857Y-33558571D01*
X56945238Y-33463333D01*
X56850000Y-33415714D01*
X56659523Y-33415714D01*
X56564285Y-33463333D01*
X56992857Y-34034761D02*
X56897619Y-34082380D01*
X56659523Y-34082380D01*
X56564285Y-34034761D01*
X56516666Y-33939523D01*
X56516666Y-33844285D01*
X56564285Y-33749047D01*
X56659523Y-33701428D01*
X56897619Y-33701428D01*
X56992857Y-33653809D01*
X57469047Y-33415714D02*
X57469047Y-34415714D01*
X57469047Y-33463333D02*
X57564285Y-33415714D01*
X57754761Y-33415714D01*
X57850000Y-33463333D01*
X57897619Y-33510952D01*
X57945238Y-33606190D01*
X57945238Y-33891904D01*
X57897619Y-33987142D01*
X57850000Y-34034761D01*
X57754761Y-34082380D01*
X57564285Y-34082380D01*
X57469047Y-34034761D01*
X58278571Y-33082380D02*
X58897619Y-33082380D01*
X58564285Y-33463333D01*
X58707142Y-33463333D01*
X58802380Y-33510952D01*
X58850000Y-33558571D01*
X58897619Y-33653809D01*
X58897619Y-33891904D01*
X58850000Y-33987142D01*
X58802380Y-34034761D01*
X58707142Y-34082380D01*
X58421428Y-34082380D01*
X58326190Y-34034761D01*
X58278571Y-33987142D01*
X59230952Y-33082380D02*
X59469047Y-34082380D01*
X59659523Y-33368095D01*
X59850000Y-34082380D01*
X60088095Y-33082380D01*
X31107619Y-17292380D02*
X31107619Y-16292380D01*
X31679047Y-17292380D01*
X31679047Y-16292380D01*
X32298095Y-17292380D02*
X32202857Y-17244761D01*
X32155238Y-17197142D01*
X32107619Y-17101904D01*
X32107619Y-16816190D01*
X32155238Y-16720952D01*
X32202857Y-16673333D01*
X32298095Y-16625714D01*
X32440952Y-16625714D01*
X32536190Y-16673333D01*
X32583809Y-16720952D01*
X32631428Y-16816190D01*
X32631428Y-17101904D01*
X32583809Y-17197142D01*
X32536190Y-17244761D01*
X32440952Y-17292380D01*
X32298095Y-17292380D01*
X33060000Y-17292380D02*
X33060000Y-16625714D01*
X33060000Y-16292380D02*
X33012380Y-16340000D01*
X33060000Y-16387619D01*
X33107619Y-16340000D01*
X33060000Y-16292380D01*
X33060000Y-16387619D01*
X33488571Y-17244761D02*
X33583809Y-17292380D01*
X33774285Y-17292380D01*
X33869523Y-17244761D01*
X33917142Y-17149523D01*
X33917142Y-17101904D01*
X33869523Y-17006666D01*
X33774285Y-16959047D01*
X33631428Y-16959047D01*
X33536190Y-16911428D01*
X33488571Y-16816190D01*
X33488571Y-16768571D01*
X33536190Y-16673333D01*
X33631428Y-16625714D01*
X33774285Y-16625714D01*
X33869523Y-16673333D01*
X34726666Y-17244761D02*
X34631428Y-17292380D01*
X34440952Y-17292380D01*
X34345714Y-17244761D01*
X34298095Y-17149523D01*
X34298095Y-16768571D01*
X34345714Y-16673333D01*
X34440952Y-16625714D01*
X34631428Y-16625714D01*
X34726666Y-16673333D01*
X34774285Y-16768571D01*
X34774285Y-16863809D01*
X34298095Y-16959047D01*
X34964761Y-17387619D02*
X35726666Y-17387619D01*
X35964761Y-17292380D02*
X35964761Y-16292380D01*
X36440952Y-17292380D02*
X36440952Y-16292380D01*
X37012380Y-17292380D01*
X37012380Y-16292380D01*
X50060952Y-21242380D02*
X50060952Y-20242380D01*
X50632380Y-21242380D01*
X50632380Y-20242380D01*
X51251428Y-21242380D02*
X51156190Y-21194761D01*
X51108571Y-21147142D01*
X51060952Y-21051904D01*
X51060952Y-20766190D01*
X51108571Y-20670952D01*
X51156190Y-20623333D01*
X51251428Y-20575714D01*
X51394285Y-20575714D01*
X51489523Y-20623333D01*
X51537142Y-20670952D01*
X51584761Y-20766190D01*
X51584761Y-21051904D01*
X51537142Y-21147142D01*
X51489523Y-21194761D01*
X51394285Y-21242380D01*
X51251428Y-21242380D01*
X52013333Y-21242380D02*
X52013333Y-20575714D01*
X52013333Y-20242380D02*
X51965714Y-20290000D01*
X52013333Y-20337619D01*
X52060952Y-20290000D01*
X52013333Y-20242380D01*
X52013333Y-20337619D01*
X52441904Y-21194761D02*
X52537142Y-21242380D01*
X52727619Y-21242380D01*
X52822857Y-21194761D01*
X52870476Y-21099523D01*
X52870476Y-21051904D01*
X52822857Y-20956666D01*
X52727619Y-20909047D01*
X52584761Y-20909047D01*
X52489523Y-20861428D01*
X52441904Y-20766190D01*
X52441904Y-20718571D01*
X52489523Y-20623333D01*
X52584761Y-20575714D01*
X52727619Y-20575714D01*
X52822857Y-20623333D01*
X53680000Y-21194761D02*
X53584761Y-21242380D01*
X53394285Y-21242380D01*
X53299047Y-21194761D01*
X53251428Y-21099523D01*
X53251428Y-20718571D01*
X53299047Y-20623333D01*
X53394285Y-20575714D01*
X53584761Y-20575714D01*
X53680000Y-20623333D01*
X53727619Y-20718571D01*
X53727619Y-20813809D01*
X53251428Y-20909047D01*
X53918095Y-21337619D02*
X54680000Y-21337619D01*
X55108571Y-20242380D02*
X55299047Y-20242380D01*
X55394285Y-20290000D01*
X55489523Y-20385238D01*
X55537142Y-20575714D01*
X55537142Y-20909047D01*
X55489523Y-21099523D01*
X55394285Y-21194761D01*
X55299047Y-21242380D01*
X55108571Y-21242380D01*
X55013333Y-21194761D01*
X54918095Y-21099523D01*
X54870476Y-20909047D01*
X54870476Y-20575714D01*
X54918095Y-20385238D01*
X55013333Y-20290000D01*
X55108571Y-20242380D01*
X55965714Y-20242380D02*
X55965714Y-21051904D01*
X56013333Y-21147142D01*
X56060952Y-21194761D01*
X56156190Y-21242380D01*
X56346666Y-21242380D01*
X56441904Y-21194761D01*
X56489523Y-21147142D01*
X56537142Y-21051904D01*
X56537142Y-20242380D01*
X56870476Y-20242380D02*
X57441904Y-20242380D01*
X57156190Y-21242380D02*
X57156190Y-20242380D01*
D10*
X59700000Y-117340000D02*
X59680000Y-118610000D01*
X58850000Y-117900000D02*
X60420000Y-117900000D01*
X21550000Y-118070000D02*
X23320000Y-118100000D01*
X32340000Y-122370000D02*
X34380000Y-122370000D01*
X49510000Y-121270000D02*
X49530000Y-122960000D01*
X48740000Y-121980000D02*
X50630000Y-121980000D01*
X40790000Y-125940000D02*
X41260000Y-125960000D01*
X41600000Y-125630000D02*
X40400000Y-125630000D01*
X39980000Y-125330000D02*
X42030000Y-125350000D01*
X41030000Y-125330000D02*
X39980000Y-125330000D01*
X41030000Y-124900000D02*
X41030000Y-125330000D01*
X37400000Y-117440000D02*
X37380000Y-126770000D01*
X44990000Y-117440000D02*
X45010000Y-126750000D01*
X58980000Y-101690000D02*
X58320000Y-101690000D01*
X59650000Y-101170000D02*
X57630000Y-101170000D01*
X56970000Y-100610000D02*
X60280000Y-100610000D01*
X58650000Y-100610000D02*
X56970000Y-100610000D01*
X58650000Y-98710000D02*
X58650000Y-100610000D01*
X20828000Y-127254000D02*
X20828000Y-15240000D01*
X60960000Y-127254000D02*
X20828000Y-127254000D01*
X60960000Y-15240000D02*
X60960000Y-127254000D01*
X20828000Y-15240000D02*
X60960000Y-15240000D01*
X41045717Y-20156361D02*
X39666986Y-19913254D01*
X39099175Y-19102335D02*
X39203364Y-18511450D01*
X40014283Y-17943639D02*
X41393014Y-18186746D01*
X41960825Y-18997665D02*
X41856636Y-19588550D01*
X41856636Y-19588550D02*
G75*
G02X41045717Y-20156361I-689365J121554D01*
G01*
X41393014Y-18186746D02*
G75*
G02X41960825Y-18997665I-121554J-689365D01*
G01*
X39203364Y-18511450D02*
G75*
G02X40014283Y-17943639I689365J-121554D01*
G01*
X39666986Y-19913254D02*
G75*
G02X39099175Y-19102335I121554J689365D01*
G01*
X45836678Y-37367306D02*
X46133322Y-37196039D01*
X45326678Y-36483961D02*
X45623322Y-36312694D01*
X30510000Y-127025000D02*
X30510000Y-124485000D01*
X30510000Y-127025000D02*
X33050000Y-127025000D01*
X30760000Y-126775000D02*
X30760000Y-117425000D01*
X51620000Y-126775000D02*
X30760000Y-126775000D01*
X51620000Y-117425000D02*
X51620000Y-126775000D01*
X30760000Y-117425000D02*
X51620000Y-117425000D01*
X27640000Y-124092118D02*
G75*
G02X29480000Y-124092118I920000J1512118D01*
G01*
X52860000Y-124022118D02*
G75*
G02X54700000Y-124022118I920000J1512118D01*
G01*
X48956460Y-24926455D02*
X49121460Y-24640666D01*
X43292654Y-21656455D02*
X48956460Y-24926455D01*
X43457654Y-21370666D02*
X43292654Y-21656455D01*
X50326460Y-22553545D02*
X50161460Y-22839334D01*
X44662654Y-19283545D02*
X50326460Y-22553545D01*
X44497654Y-19569334D02*
X44662654Y-19283545D01*
X28917256Y-29988639D02*
X29095963Y-29497646D01*
X27582893Y-29502970D02*
X27761600Y-29011977D01*
X40542000Y-64160000D02*
X37092000Y-64160000D01*
X40542000Y-64160000D02*
X42492000Y-64160000D01*
X40542000Y-69280000D02*
X38592000Y-69280000D01*
X40542000Y-69280000D02*
X42492000Y-69280000D01*
X49374666Y-104139405D02*
X47157049Y-101496551D01*
X49374666Y-104139405D02*
X50628102Y-105633191D01*
X45452518Y-107430477D02*
X44199082Y-105936691D01*
X45452518Y-107430477D02*
X46705954Y-108924264D01*
X28760914Y-97997328D02*
X30485914Y-100985116D01*
X28760914Y-97997328D02*
X27785914Y-96308578D01*
X33194964Y-95437328D02*
X34169964Y-97126078D01*
X33194964Y-95437328D02*
X32219964Y-93748578D01*
X36461795Y-41129657D02*
X37641765Y-37887717D01*
X36461795Y-41129657D02*
X35794856Y-42962057D01*
X31650569Y-39378513D02*
X32317508Y-37546113D01*
X31650569Y-39378513D02*
X30983630Y-41210914D01*
X48350002Y-88490000D02*
X48350002Y-91940000D01*
X48350002Y-88490000D02*
X48350002Y-86540000D01*
X53470002Y-88490000D02*
X53470002Y-90440000D01*
X53470002Y-88490000D02*
X53470002Y-86540000D01*
X49920000Y-40342975D02*
X46932212Y-42067975D01*
X49920000Y-40342975D02*
X51608750Y-39367975D01*
X52480000Y-44777025D02*
X50791250Y-45752025D01*
X52480000Y-44777025D02*
X54168750Y-43802025D01*
X40020435Y-108620522D02*
X37802818Y-105977669D01*
X40020435Y-108620522D02*
X41273871Y-110114309D01*
X33225621Y-114322048D02*
X31972185Y-112828261D01*
X33225621Y-114322048D02*
X34479057Y-115815835D01*
X30369096Y-36262294D02*
X31549066Y-33020354D01*
X30369096Y-36262294D02*
X29702157Y-38094694D01*
X25557870Y-34511150D02*
X26224809Y-32678750D01*
X25557870Y-34511150D02*
X24890931Y-36343551D01*
X49306608Y-29188264D02*
X49816608Y-30071609D01*
X45353616Y-35881481D02*
X47016384Y-34921481D01*
X42424667Y-29928392D02*
X43325333Y-29408392D01*
X44913904Y-36019878D02*
X44203904Y-34790122D01*
X44377109Y-34690122D02*
X42587109Y-31589751D01*
X42587109Y-31589751D02*
X42413904Y-31689751D01*
X42413904Y-31689751D02*
X41703904Y-30459995D01*
X41703904Y-30459995D02*
X41877109Y-30359995D01*
X49816608Y-30071609D02*
X50561608Y-31361987D01*
X50082114Y-33151481D02*
X47016384Y-34921481D01*
X43325333Y-29408392D02*
X46772114Y-27418392D01*
X48561608Y-27897886D02*
X49306608Y-29188264D01*
X50561608Y-31361987D02*
G75*
G02X50082114Y-33151481I-1134494J-655000D01*
G01*
X46772114Y-27418392D02*
G75*
G02X48561608Y-27897886I655000J-1134494D01*
G01*
X44377109Y-34690122D02*
X44203904Y-34790122D01*
X44913904Y-36019878D02*
X45087109Y-35919878D01*
X45087109Y-35919878D02*
X45137109Y-36006481D01*
X45137109Y-36006481D02*
X45353616Y-35881481D01*
X41877109Y-30359995D02*
X41827109Y-30273392D01*
X41827109Y-30273392D02*
X42424667Y-29928392D01*
X51041267Y-78460000D02*
X50698733Y-78460000D01*
X51041267Y-79480000D02*
X50698733Y-79480000D01*
X50708733Y-77900000D02*
X51051267Y-77900000D01*
X50708733Y-76880000D02*
X51051267Y-76880000D01*
X47631267Y-76710000D02*
X47288733Y-76710000D01*
X47631267Y-77730000D02*
X47288733Y-77730000D01*
X47298733Y-76160000D02*
X47641267Y-76160000D01*
X47298733Y-75140000D02*
X47641267Y-75140000D01*
X44261267Y-76700000D02*
X43918733Y-76700000D01*
X44261267Y-77720000D02*
X43918733Y-77720000D01*
X46451267Y-81740000D02*
X46108733Y-81740000D01*
X46451267Y-82760000D02*
X46108733Y-82760000D01*
X50041266Y-81930001D02*
X49698732Y-81930001D01*
X50041266Y-82950001D02*
X49698732Y-82950001D01*
X41310000Y-84428733D02*
X41310000Y-84771267D01*
X42330000Y-84428733D02*
X42330000Y-84771267D01*
X39551267Y-85020000D02*
X39208733Y-85020000D01*
X39551267Y-86040000D02*
X39208733Y-86040000D01*
X36091267Y-78060000D02*
X35748733Y-78060000D01*
X36091267Y-79080000D02*
X35748733Y-79080000D01*
X35738733Y-77530000D02*
X36081267Y-77530000D01*
X35738733Y-76510000D02*
X36081267Y-76510000D01*
X32721267Y-78050000D02*
X32378733Y-78050000D01*
X32721267Y-79070000D02*
X32378733Y-79070000D01*
X32348733Y-77510000D02*
X32691267Y-77510000D01*
X32348733Y-76490000D02*
X32691267Y-76490000D01*
X49275194Y-27848906D02*
X49446461Y-28145550D01*
X50158539Y-27338906D02*
X50329806Y-27635550D01*
X32711267Y-74960000D02*
X32368733Y-74960000D01*
X32711267Y-75980000D02*
X32368733Y-75980000D01*
X38942694Y-53926678D02*
X39113961Y-54223322D01*
X39826039Y-53416678D02*
X39997306Y-53713322D01*
X50041266Y-83470000D02*
X49698732Y-83470000D01*
X50041266Y-84490000D02*
X49698732Y-84490000D01*
X38913322Y-50612694D02*
X38616678Y-50783961D01*
X39423322Y-51496039D02*
X39126678Y-51667306D01*
X54920000Y-88781267D02*
X54920000Y-88438733D01*
X53900000Y-88781267D02*
X53900000Y-88438733D01*
X32923376Y-105929229D02*
X32660980Y-106149406D01*
X33579020Y-106710594D02*
X33316624Y-106930771D01*
X34507729Y-92508568D02*
X34211085Y-92679835D01*
X35017729Y-93391913D02*
X34721085Y-93563180D01*
X46917306Y-51723322D02*
X46746039Y-51426678D01*
X46033961Y-52233322D02*
X45862694Y-51936678D01*
X44296678Y-50467306D02*
X44593322Y-50296039D01*
X43786678Y-49583961D02*
X44083322Y-49412694D01*
X46651266Y-89930000D02*
X46308732Y-89930000D01*
X46651266Y-90950000D02*
X46308732Y-90950000D01*
X46350666Y-47175369D02*
X46467820Y-46853492D01*
X45392180Y-46826508D02*
X45509334Y-46504631D01*
X50021267Y-92470000D02*
X49678733Y-92470000D01*
X50021267Y-93490000D02*
X49678733Y-93490000D01*
X45270691Y-43848156D02*
X45533087Y-44068333D01*
X45926335Y-43066791D02*
X46188731Y-43286968D01*
X46256678Y-39337306D02*
X46553322Y-39166039D01*
X45746678Y-38453961D02*
X46043322Y-38282694D01*
X53058733Y-93510001D02*
X53401267Y-93510001D01*
X53058733Y-92490001D02*
X53401267Y-92490001D01*
X49668733Y-95070000D02*
X50011267Y-95070000D01*
X49668733Y-94050000D02*
X50011267Y-94050000D01*
X30161689Y-88586072D02*
X30458333Y-88414805D01*
X29651689Y-87702727D02*
X29948333Y-87531460D01*
X30630000Y-53958733D02*
X30630000Y-54301267D01*
X31650000Y-53958733D02*
X31650000Y-54301267D01*
X30660000Y-50558733D02*
X30660000Y-50901267D01*
X31680000Y-50558733D02*
X31680000Y-50901267D01*
X24603322Y-100683961D02*
X24306678Y-100512694D01*
X24093322Y-101567306D02*
X23796678Y-101396039D01*
X30977453Y-90616482D02*
X30806186Y-90319838D01*
X30094108Y-91126482D02*
X29922841Y-90829838D01*
X29077901Y-44370958D02*
X29195055Y-44049081D01*
X28119415Y-44022097D02*
X28236569Y-43700220D01*
X33737729Y-91174884D02*
X33441085Y-91346151D01*
X34247729Y-92058229D02*
X33951085Y-92229496D01*
X34168733Y-58490000D02*
X34511267Y-58490000D01*
X34168733Y-57470000D02*
X34511267Y-57470000D01*
X29730000Y-47981267D02*
X29730000Y-47638733D01*
X28710000Y-47981267D02*
X28710000Y-47638733D01*
X29900000Y-52981267D02*
X29900000Y-52638733D01*
X28880000Y-52981267D02*
X28880000Y-52638733D01*
X30267997Y-101487671D02*
X30096730Y-101191027D01*
X29384652Y-101997671D02*
X29213385Y-101701027D01*
X28280000Y-52981267D02*
X28280000Y-52638733D01*
X27260000Y-52981267D02*
X27260000Y-52638733D01*
X28170000Y-47971267D02*
X28170000Y-47628733D01*
X27150000Y-47971267D02*
X27150000Y-47628733D01*
X32242915Y-100605799D02*
X31946271Y-100777066D01*
X32752915Y-101489144D02*
X32456271Y-101660411D01*
X34960000Y-64261267D02*
X34960000Y-63918733D01*
X33940000Y-64261267D02*
X33940000Y-63918733D01*
X45282694Y-25766678D02*
X45453961Y-26063322D01*
X46166039Y-25256678D02*
X46337306Y-25553322D01*
X35383437Y-99970411D02*
X35680081Y-99799144D01*
X34873437Y-99087066D02*
X35170081Y-98915799D01*
X35438297Y-101705427D02*
X35734941Y-101534160D01*
X34928297Y-100822082D02*
X35224941Y-100650815D01*
X35470000Y-63898733D02*
X35470000Y-64241267D01*
X36490000Y-63898733D02*
X36490000Y-64241267D01*
X45560000Y-60331267D02*
X45560000Y-59988733D01*
X44540000Y-60331267D02*
X44540000Y-59988733D01*
X50802998Y-109870951D02*
X51023175Y-110133347D01*
X51584363Y-109215307D02*
X51804540Y-109477703D01*
X39569036Y-116029268D02*
X39226502Y-116029268D01*
X39569036Y-117049268D02*
X39226502Y-117049268D01*
X41963733Y-113548625D02*
X42226129Y-113328448D01*
X41308089Y-112767260D02*
X41570485Y-112547083D01*
X48312099Y-102157455D02*
X48532276Y-102419851D01*
X49093464Y-101501811D02*
X49313641Y-101764207D01*
X30825483Y-31064949D02*
X30503606Y-30947795D01*
X30476622Y-32023435D02*
X30154745Y-31906281D01*
X38283732Y-63659999D02*
X38626266Y-63659999D01*
X38283732Y-62639999D02*
X38626266Y-62639999D01*
X47701267Y-67850000D02*
X47358733Y-67850000D01*
X47701267Y-68870000D02*
X47358733Y-68870000D01*
X44542000Y-66758733D02*
X44542000Y-67101267D01*
X45562000Y-66758733D02*
X45562000Y-67101267D01*
X30707091Y-30447200D02*
X31028968Y-30564354D01*
X31055952Y-29488714D02*
X31377829Y-29605868D01*
X39526678Y-23927306D02*
X39823322Y-23756039D01*
X39016678Y-23043961D02*
X39313322Y-22872694D01*
X44086967Y-101711522D02*
X43866790Y-101449126D01*
X43305602Y-102367166D02*
X43085425Y-102104770D01*
X56240000Y-67168733D02*
X56240000Y-67511267D01*
X57260000Y-67168733D02*
X57260000Y-67511267D01*
X44542000Y-70138733D02*
X44542000Y-70481267D01*
X45562000Y-70138733D02*
X45562000Y-70481267D01*
X30249196Y-26800680D02*
X29927319Y-26683526D01*
X29900335Y-27759166D02*
X29578458Y-27642012D01*
X42900830Y-102693755D02*
X42680653Y-102431359D01*
X42119465Y-103349399D02*
X41899288Y-103087003D01*
X44257473Y-101121305D02*
X44477650Y-101383701D01*
X45038838Y-100465661D02*
X45259015Y-100728057D01*
X53398733Y-65390000D02*
X53741267Y-65390000D01*
X53398733Y-64370000D02*
X53741267Y-64370000D01*
X50550000Y-69138733D02*
X50550000Y-69481267D01*
X51570000Y-69138733D02*
X51570000Y-69481267D01*
X55089999Y-62486267D02*
X55089999Y-62143733D01*
X54069999Y-62486267D02*
X54069999Y-62143733D01*
X53331267Y-59350000D02*
X52988733Y-59350000D01*
X53331267Y-60370000D02*
X52988733Y-60370000D01*
X33610000Y-67768733D02*
X33610000Y-68111267D01*
X34630000Y-67768733D02*
X34630000Y-68111267D01*
X45504857Y-87010117D02*
X45333590Y-86713473D01*
X44621512Y-87520117D02*
X44450245Y-87223473D01*
X53080000Y-73380000D02*
X50650000Y-73380000D01*
X53100000Y-73390000D02*
X53100000Y-74390000D01*
X53100000Y-76440000D02*
X51250000Y-76440000D01*
X53100000Y-75390000D02*
X53100000Y-76440000D01*
X45200000Y-81230000D02*
X47630000Y-81230000D01*
X45180000Y-81220000D02*
X45180000Y-80220000D01*
X45180000Y-78170000D02*
X47030000Y-78170000D01*
X45180000Y-79220000D02*
X45180000Y-78170000D01*
X37830000Y-80850000D02*
X37830000Y-83280000D01*
X37840000Y-80830000D02*
X38840000Y-80830000D01*
X40890000Y-80830000D02*
X40890000Y-82680000D01*
X39840000Y-80830000D02*
X40890000Y-80830000D01*
X33680000Y-82600000D02*
X36110000Y-82600000D01*
X33660000Y-82590000D02*
X33660000Y-81590000D01*
X33660000Y-79540000D02*
X35510000Y-79540000D01*
X33660000Y-80590000D02*
X33660000Y-79540000D01*
X29168900Y-111381429D02*
X31030388Y-109819455D01*
X29147151Y-111386624D02*
X28504364Y-110620579D01*
X27186649Y-109050188D02*
X28603831Y-107861031D01*
X27861576Y-109854535D02*
X27186649Y-109050188D01*
X44092698Y-53700404D02*
X42877698Y-51595962D01*
X44094038Y-53722724D02*
X43228013Y-54222724D01*
X41452661Y-55247724D02*
X40527661Y-53645577D01*
X42361987Y-54722724D02*
X41452661Y-55247724D01*
X33761984Y-87119434D02*
X31657542Y-88334434D01*
X33784304Y-87118094D02*
X34284304Y-87984119D01*
X35309304Y-89759471D02*
X33707157Y-90684471D01*
X34784304Y-88850145D02*
X35309304Y-89759471D01*
X49790000Y-64340000D02*
X47360000Y-64340000D01*
X49810000Y-64350000D02*
X49810000Y-65350000D01*
X49810000Y-67400000D02*
X47960000Y-67400000D01*
X49810000Y-66350000D02*
X49810000Y-67400000D01*
X40300000Y-62130003D02*
X42730000Y-62130003D01*
X40280000Y-62120003D02*
X40280000Y-61120003D01*
X40280000Y-59070003D02*
X42130000Y-59070003D01*
X40280000Y-60120003D02*
X40280000Y-59070003D01*
X55760000Y-69590000D02*
X55760000Y-67160000D01*
X55750000Y-69610000D02*
X54750000Y-69610000D01*
X52700000Y-69610000D02*
X52700000Y-67760000D01*
X53750000Y-69610000D02*
X52700000Y-69610000D01*
X44702698Y-25820404D02*
X43487698Y-23715962D01*
X44704038Y-25842724D02*
X43838013Y-26342724D01*
X42062661Y-27367724D02*
X41137661Y-25765577D01*
X42971987Y-26842724D02*
X42062661Y-27367724D01*
X49880000Y-63880000D02*
X52310000Y-63880000D01*
X49860000Y-63870000D02*
X49860000Y-62870000D01*
X49860000Y-60820000D02*
X51710000Y-60820000D01*
X49860000Y-61870000D02*
X49860000Y-60820000D01*
X46000000Y-71290000D02*
X49150000Y-71290000D01*
X46000000Y-72990000D02*
X49150000Y-72990000D01*
X46000000Y-71290000D02*
X46000000Y-72990000D01*
X44230000Y-83150000D02*
X47380000Y-83150000D01*
X44230000Y-84850000D02*
X47380000Y-84850000D01*
X44230000Y-83150000D02*
X44230000Y-84850000D01*
X56510000Y-82990000D02*
X56510000Y-86140000D01*
X54810000Y-82990000D02*
X54810000Y-86140000D01*
X56510000Y-82990000D02*
X54810000Y-82990000D01*
X39470000Y-74840000D02*
X39470000Y-77990000D01*
X37770000Y-74840000D02*
X37770000Y-77990000D01*
X39470000Y-74840000D02*
X37770000Y-74840000D01*
X28999998Y-80170000D02*
X28999998Y-77020000D01*
X30699998Y-80170000D02*
X30699998Y-77020000D01*
X28999998Y-80170000D02*
X30699998Y-80170000D01*
X28740000Y-76380000D02*
X28740000Y-79530000D01*
X27040000Y-76380000D02*
X27040000Y-79530000D01*
X28740000Y-76380000D02*
X27040000Y-76380000D01*
X51034715Y-55106891D02*
X53059496Y-52693851D01*
X52336990Y-56199630D02*
X54361771Y-53786590D01*
X51034715Y-55106891D02*
X52336990Y-56199630D01*
X46553878Y-96210448D02*
X44978878Y-93482468D01*
X48026122Y-95360448D02*
X46451122Y-92632468D01*
X46553878Y-96210448D02*
X48026122Y-95360448D01*
X30810000Y-62230000D02*
X30810000Y-59080000D01*
X32510000Y-62230000D02*
X32510000Y-59080000D01*
X30810000Y-62230000D02*
X32510000Y-62230000D01*
X45970000Y-63930000D02*
X45970000Y-60780000D01*
X47670000Y-63930000D02*
X47670000Y-60780000D01*
X45970000Y-63930000D02*
X47670000Y-63930000D01*
X34283133Y-103042092D02*
X31555153Y-104617092D01*
X33433133Y-101569848D02*
X30705153Y-103144848D01*
X34283133Y-103042092D02*
X33433133Y-101569848D01*
X36380000Y-62240000D02*
X36380000Y-59090000D01*
X38080000Y-62240000D02*
X38080000Y-59090000D01*
X36380000Y-62240000D02*
X38080000Y-62240000D01*
X45753099Y-112316593D02*
X47578616Y-114492159D01*
X45936950Y-112162324D02*
X47762467Y-114337890D01*
X45845025Y-112239458D02*
X47670542Y-114415025D01*
X49846108Y-112589508D02*
X49730406Y-112451620D01*
X47210915Y-114800697D02*
X49846108Y-112589508D01*
X47095213Y-114662809D02*
X47210915Y-114800697D01*
X48020591Y-110413942D02*
X48136293Y-110551830D01*
X45385398Y-112625131D02*
X48020591Y-110413942D01*
X45501100Y-112763019D02*
X45385398Y-112625131D01*
X49780000Y-70970000D02*
X46630000Y-70970000D01*
X49780000Y-69270000D02*
X46630000Y-69270000D01*
X49780000Y-70970000D02*
X49780000Y-69270000D01*
X41921506Y-103735771D02*
X43946287Y-106148811D01*
X40619231Y-104828510D02*
X42644012Y-107241550D01*
X41921506Y-103735771D02*
X40619231Y-104828510D01*
X31099038Y-117501944D02*
X30990508Y-116886439D01*
X31352525Y-117139926D02*
X30737020Y-117248457D01*
X29913638Y-113960927D02*
X28680535Y-113097499D01*
X30502501Y-117300535D02*
X29639073Y-118533638D01*
X30502501Y-117300535D02*
X30392136Y-116674627D01*
X29913638Y-113960927D02*
X30024002Y-114586835D01*
X28680535Y-113097499D02*
X24292662Y-113871200D01*
X29639073Y-118533638D02*
X25251200Y-119307338D01*
X25251200Y-119307338D02*
X24955998Y-117633165D01*
X24292662Y-113871200D02*
X24587864Y-115545373D01*
X55803554Y-119169408D02*
X56205296Y-118690630D01*
X56243814Y-119130890D02*
X55765036Y-118729148D01*
X57754170Y-115985217D02*
X57622970Y-114485604D01*
X55574396Y-118582970D02*
X54074783Y-118714170D01*
X55574396Y-118582970D02*
X55982928Y-118096101D01*
X57754170Y-115985217D02*
X57345638Y-116472087D01*
X57622970Y-114485604D02*
X54209811Y-111621624D01*
X54074783Y-118714170D02*
X50661624Y-115850189D01*
X50661624Y-115850189D02*
X51754362Y-114547913D01*
X54209811Y-111621624D02*
X53117072Y-112923899D01*
X53499334Y-78154631D02*
X53382180Y-78476508D01*
X54457820Y-78503492D02*
X54340666Y-78825369D01*
X44500000Y-73528733D02*
X44500000Y-73871267D01*
X45520000Y-73528733D02*
X45520000Y-73871267D01*
X40920000Y-77231267D02*
X40920000Y-76888733D01*
X39900000Y-77231267D02*
X39900000Y-76888733D01*
X36096266Y-74960001D02*
X35753732Y-74960001D01*
X36096266Y-75980001D02*
X35753732Y-75980001D01*
X51162694Y-30766678D02*
X51333961Y-31063322D01*
X52046039Y-30256678D02*
X52217306Y-30553322D01*
X54502694Y-40276678D02*
X54673961Y-40573322D01*
X55386039Y-39766678D02*
X55557306Y-40063322D01*
X52820001Y-83231266D02*
X52820001Y-82888732D01*
X51800001Y-83231266D02*
X51800001Y-82888732D01*
X45347306Y-52393322D02*
X45176039Y-52096678D01*
X44463961Y-52903322D02*
X44292694Y-52606678D01*
X43882774Y-41422512D02*
X44220104Y-41481992D01*
X44059896Y-40418008D02*
X44397226Y-40477488D01*
X39048733Y-40640000D02*
X39391267Y-40640000D01*
X39048733Y-39620000D02*
X39391267Y-39620000D01*
X29589933Y-91273229D02*
X29418666Y-90976585D01*
X28706588Y-91783229D02*
X28535321Y-91486585D01*
X29618123Y-40606144D02*
X29500969Y-40928021D01*
X30576609Y-40955005D02*
X30459455Y-41276882D01*
X31670000Y-47531267D02*
X31670000Y-47188733D01*
X30650000Y-47531267D02*
X30650000Y-47188733D01*
X30960122Y-44458741D02*
X31281999Y-44575895D01*
X31308983Y-43500255D02*
X31630860Y-43617409D01*
X30400000Y-60851267D02*
X30400000Y-60508733D01*
X29380000Y-60851267D02*
X29380000Y-60508733D01*
X28801267Y-49780000D02*
X28458733Y-49780000D01*
X28801267Y-50800000D02*
X28458733Y-50800000D01*
X44550001Y-63383732D02*
X44550001Y-63726266D01*
X45570001Y-63383732D02*
X45570001Y-63726266D01*
X39003580Y-24361854D02*
X38462314Y-24674354D01*
X38576697Y-24247471D02*
X38889197Y-24788737D01*
X36081543Y-26686864D02*
X35691932Y-28140912D01*
X39018345Y-24991301D02*
X40472393Y-25380912D01*
X39018345Y-24991301D02*
X38467931Y-25309083D01*
X36081543Y-26686864D02*
X36631957Y-26369083D01*
X35691932Y-28140912D02*
X37919714Y-31999543D01*
X40472393Y-25380912D02*
X42700174Y-29239543D01*
X42700174Y-29239543D02*
X41227931Y-30089543D01*
X37919714Y-31999543D02*
X39391957Y-31149543D01*
X39943376Y-103529229D02*
X39680980Y-103749406D01*
X40599020Y-104310594D02*
X40336624Y-104530771D01*
X42970000Y-70988733D02*
X42970000Y-71331267D01*
X43990000Y-70988733D02*
X43990000Y-71331267D01*
D11*
X39491852Y-20138647D02*
X39367818Y-20842081D01*
X39296116Y-20974499D01*
X39185786Y-21051752D01*
X39036831Y-21073841D01*
X38943039Y-21057303D01*
X39787160Y-21206145D02*
X39960808Y-20221337D01*
X40335973Y-20287488D01*
X40421496Y-20350922D01*
X40460122Y-20406087D01*
X40490480Y-20508147D01*
X40465673Y-20648834D01*
X40402240Y-20734356D01*
X40347075Y-20772982D01*
X40245015Y-20803340D01*
X39869850Y-20737188D01*
X41287820Y-21470751D02*
X40725072Y-21371524D01*
X41006446Y-21421138D02*
X41180094Y-20436330D01*
X41061496Y-20560479D01*
X40951167Y-20637732D01*
X40849107Y-20668090D01*
X45977079Y-22170344D02*
X45926500Y-21591285D01*
X45482208Y-21884630D02*
X45982208Y-21018605D01*
X46312122Y-21209081D01*
X46370791Y-21297939D01*
X46388221Y-21362988D01*
X46381841Y-21469276D01*
X46310413Y-21592994D01*
X46221554Y-21651663D01*
X46156506Y-21669093D01*
X46050217Y-21662713D01*
X45720303Y-21472237D01*
X46765755Y-21470986D02*
X47301866Y-21780509D01*
X46822714Y-21943757D01*
X46946432Y-22015186D01*
X47005101Y-22104044D01*
X47022531Y-22169093D01*
X47016151Y-22275381D01*
X46897104Y-22481578D01*
X46808245Y-22540247D01*
X46743196Y-22557676D01*
X46636908Y-22551297D01*
X46389472Y-22408440D01*
X46330803Y-22319581D01*
X46313374Y-22254532D01*
X47837976Y-22090033D02*
X47920455Y-22137652D01*
X47979124Y-22226511D01*
X47996554Y-22291559D01*
X47990174Y-22397848D01*
X47936175Y-22586614D01*
X47817128Y-22792811D01*
X47680650Y-22933959D01*
X47591792Y-22992628D01*
X47526743Y-23010057D01*
X47420455Y-23003678D01*
X47337976Y-22956059D01*
X47279307Y-22867200D01*
X47261878Y-22802151D01*
X47268257Y-22695863D01*
X47322256Y-22507097D01*
X47441304Y-22300900D01*
X47577781Y-22159752D01*
X47666640Y-22101083D01*
X47731688Y-22083653D01*
X47837976Y-22090033D01*
X45710607Y-30930699D02*
X45956333Y-30403928D01*
X45424893Y-30435827D02*
X46290918Y-29935827D01*
X46481394Y-30265741D01*
X46487774Y-30372030D01*
X46470344Y-30437078D01*
X46411675Y-30525937D01*
X46287957Y-30597365D01*
X46181669Y-30603745D01*
X46116620Y-30586315D01*
X46027762Y-30527646D01*
X45837286Y-30197732D01*
X46719490Y-30678134D02*
X46020131Y-31466810D01*
X47052823Y-31255485D01*
X47113201Y-31550540D02*
X47178250Y-31567969D01*
X47267109Y-31626639D01*
X47386156Y-31832835D01*
X47392536Y-31939123D01*
X47375106Y-32004172D01*
X47316437Y-32093030D01*
X47233959Y-32140649D01*
X47086431Y-32170839D01*
X46305845Y-31961681D01*
X46615369Y-32497792D01*
X38852515Y-30432857D02*
X39209658Y-31051447D01*
X39239847Y-31198974D01*
X39204987Y-31329072D01*
X39105079Y-31441740D01*
X39022600Y-31489359D01*
X39182429Y-30242381D02*
X39718540Y-29932857D01*
X39620341Y-30429438D01*
X39744059Y-30358010D01*
X39850347Y-30351630D01*
X39915396Y-30369060D01*
X40004255Y-30427729D01*
X40123302Y-30633925D01*
X40129682Y-30740213D01*
X40112252Y-30805262D01*
X40053583Y-30894121D01*
X39806147Y-31036978D01*
X39699859Y-31043358D01*
X39634810Y-31025928D01*
M02*
