G04 #@! TF.GenerationSoftware,KiCad,Pcbnew,(5.1.2-1)-1*
G04 #@! TF.CreationDate,2022-08-10T14:13:14-04:00*
G04 #@! TF.ProjectId,TR909 Snare Drum,54523930-3920-4536-9e61-726520447275,rev?*
G04 #@! TF.SameCoordinates,Original*
G04 #@! TF.FileFunction,Paste,Bot*
G04 #@! TF.FilePolarity,Positive*
%FSLAX46Y46*%
G04 Gerber Fmt 4.6, Leading zero omitted, Abs format (unit mm)*
G04 Created by KiCad (PCBNEW (5.1.2-1)-1) date 2022-08-10 14:13:14*
%MOMM*%
%LPD*%
G04 APERTURE LIST*
%ADD10C,0.100000*%
%ADD11C,0.950000*%
G04 APERTURE END LIST*
D10*
G36*
X53220779Y-92531144D02*
G01*
X53243834Y-92534563D01*
X53266443Y-92540227D01*
X53288387Y-92548079D01*
X53309457Y-92558044D01*
X53329448Y-92570026D01*
X53348168Y-92583910D01*
X53365438Y-92599562D01*
X53381090Y-92616832D01*
X53394974Y-92635552D01*
X53406956Y-92655543D01*
X53416921Y-92676613D01*
X53424773Y-92698557D01*
X53430437Y-92721166D01*
X53433856Y-92744221D01*
X53435000Y-92767500D01*
X53435000Y-93342500D01*
X53433856Y-93365779D01*
X53430437Y-93388834D01*
X53424773Y-93411443D01*
X53416921Y-93433387D01*
X53406956Y-93454457D01*
X53394974Y-93474448D01*
X53381090Y-93493168D01*
X53365438Y-93510438D01*
X53348168Y-93526090D01*
X53329448Y-93539974D01*
X53309457Y-93551956D01*
X53288387Y-93561921D01*
X53266443Y-93569773D01*
X53243834Y-93575437D01*
X53220779Y-93578856D01*
X53197500Y-93580000D01*
X52722500Y-93580000D01*
X52699221Y-93578856D01*
X52676166Y-93575437D01*
X52653557Y-93569773D01*
X52631613Y-93561921D01*
X52610543Y-93551956D01*
X52590552Y-93539974D01*
X52571832Y-93526090D01*
X52554562Y-93510438D01*
X52538910Y-93493168D01*
X52525026Y-93474448D01*
X52513044Y-93454457D01*
X52503079Y-93433387D01*
X52495227Y-93411443D01*
X52489563Y-93388834D01*
X52486144Y-93365779D01*
X52485000Y-93342500D01*
X52485000Y-92767500D01*
X52486144Y-92744221D01*
X52489563Y-92721166D01*
X52495227Y-92698557D01*
X52503079Y-92676613D01*
X52513044Y-92655543D01*
X52525026Y-92635552D01*
X52538910Y-92616832D01*
X52554562Y-92599562D01*
X52571832Y-92583910D01*
X52590552Y-92570026D01*
X52610543Y-92558044D01*
X52631613Y-92548079D01*
X52653557Y-92540227D01*
X52676166Y-92534563D01*
X52699221Y-92531144D01*
X52722500Y-92530000D01*
X53197500Y-92530000D01*
X53220779Y-92531144D01*
X53220779Y-92531144D01*
G37*
D11*
X52960000Y-93055000D03*
D10*
G36*
X53220779Y-94281144D02*
G01*
X53243834Y-94284563D01*
X53266443Y-94290227D01*
X53288387Y-94298079D01*
X53309457Y-94308044D01*
X53329448Y-94320026D01*
X53348168Y-94333910D01*
X53365438Y-94349562D01*
X53381090Y-94366832D01*
X53394974Y-94385552D01*
X53406956Y-94405543D01*
X53416921Y-94426613D01*
X53424773Y-94448557D01*
X53430437Y-94471166D01*
X53433856Y-94494221D01*
X53435000Y-94517500D01*
X53435000Y-95092500D01*
X53433856Y-95115779D01*
X53430437Y-95138834D01*
X53424773Y-95161443D01*
X53416921Y-95183387D01*
X53406956Y-95204457D01*
X53394974Y-95224448D01*
X53381090Y-95243168D01*
X53365438Y-95260438D01*
X53348168Y-95276090D01*
X53329448Y-95289974D01*
X53309457Y-95301956D01*
X53288387Y-95311921D01*
X53266443Y-95319773D01*
X53243834Y-95325437D01*
X53220779Y-95328856D01*
X53197500Y-95330000D01*
X52722500Y-95330000D01*
X52699221Y-95328856D01*
X52676166Y-95325437D01*
X52653557Y-95319773D01*
X52631613Y-95311921D01*
X52610543Y-95301956D01*
X52590552Y-95289974D01*
X52571832Y-95276090D01*
X52554562Y-95260438D01*
X52538910Y-95243168D01*
X52525026Y-95224448D01*
X52513044Y-95204457D01*
X52503079Y-95183387D01*
X52495227Y-95161443D01*
X52489563Y-95138834D01*
X52486144Y-95115779D01*
X52485000Y-95092500D01*
X52485000Y-94517500D01*
X52486144Y-94494221D01*
X52489563Y-94471166D01*
X52495227Y-94448557D01*
X52503079Y-94426613D01*
X52513044Y-94405543D01*
X52525026Y-94385552D01*
X52538910Y-94366832D01*
X52554562Y-94349562D01*
X52571832Y-94333910D01*
X52590552Y-94320026D01*
X52610543Y-94308044D01*
X52631613Y-94298079D01*
X52653557Y-94290227D01*
X52676166Y-94284563D01*
X52699221Y-94281144D01*
X52722500Y-94280000D01*
X53197500Y-94280000D01*
X53220779Y-94281144D01*
X53220779Y-94281144D01*
G37*
D11*
X52960000Y-94805000D03*
D10*
G36*
X51295779Y-87406144D02*
G01*
X51318834Y-87409563D01*
X51341443Y-87415227D01*
X51363387Y-87423079D01*
X51384457Y-87433044D01*
X51404448Y-87445026D01*
X51423168Y-87458910D01*
X51440438Y-87474562D01*
X51456090Y-87491832D01*
X51469974Y-87510552D01*
X51481956Y-87530543D01*
X51491921Y-87551613D01*
X51499773Y-87573557D01*
X51505437Y-87596166D01*
X51508856Y-87619221D01*
X51510000Y-87642500D01*
X51510000Y-88117500D01*
X51508856Y-88140779D01*
X51505437Y-88163834D01*
X51499773Y-88186443D01*
X51491921Y-88208387D01*
X51481956Y-88229457D01*
X51469974Y-88249448D01*
X51456090Y-88268168D01*
X51440438Y-88285438D01*
X51423168Y-88301090D01*
X51404448Y-88314974D01*
X51384457Y-88326956D01*
X51363387Y-88336921D01*
X51341443Y-88344773D01*
X51318834Y-88350437D01*
X51295779Y-88353856D01*
X51272500Y-88355000D01*
X50697500Y-88355000D01*
X50674221Y-88353856D01*
X50651166Y-88350437D01*
X50628557Y-88344773D01*
X50606613Y-88336921D01*
X50585543Y-88326956D01*
X50565552Y-88314974D01*
X50546832Y-88301090D01*
X50529562Y-88285438D01*
X50513910Y-88268168D01*
X50500026Y-88249448D01*
X50488044Y-88229457D01*
X50478079Y-88208387D01*
X50470227Y-88186443D01*
X50464563Y-88163834D01*
X50461144Y-88140779D01*
X50460000Y-88117500D01*
X50460000Y-87642500D01*
X50461144Y-87619221D01*
X50464563Y-87596166D01*
X50470227Y-87573557D01*
X50478079Y-87551613D01*
X50488044Y-87530543D01*
X50500026Y-87510552D01*
X50513910Y-87491832D01*
X50529562Y-87474562D01*
X50546832Y-87458910D01*
X50565552Y-87445026D01*
X50585543Y-87433044D01*
X50606613Y-87423079D01*
X50628557Y-87415227D01*
X50651166Y-87409563D01*
X50674221Y-87406144D01*
X50697500Y-87405000D01*
X51272500Y-87405000D01*
X51295779Y-87406144D01*
X51295779Y-87406144D01*
G37*
D11*
X50985000Y-87880000D03*
D10*
G36*
X49545779Y-87406144D02*
G01*
X49568834Y-87409563D01*
X49591443Y-87415227D01*
X49613387Y-87423079D01*
X49634457Y-87433044D01*
X49654448Y-87445026D01*
X49673168Y-87458910D01*
X49690438Y-87474562D01*
X49706090Y-87491832D01*
X49719974Y-87510552D01*
X49731956Y-87530543D01*
X49741921Y-87551613D01*
X49749773Y-87573557D01*
X49755437Y-87596166D01*
X49758856Y-87619221D01*
X49760000Y-87642500D01*
X49760000Y-88117500D01*
X49758856Y-88140779D01*
X49755437Y-88163834D01*
X49749773Y-88186443D01*
X49741921Y-88208387D01*
X49731956Y-88229457D01*
X49719974Y-88249448D01*
X49706090Y-88268168D01*
X49690438Y-88285438D01*
X49673168Y-88301090D01*
X49654448Y-88314974D01*
X49634457Y-88326956D01*
X49613387Y-88336921D01*
X49591443Y-88344773D01*
X49568834Y-88350437D01*
X49545779Y-88353856D01*
X49522500Y-88355000D01*
X48947500Y-88355000D01*
X48924221Y-88353856D01*
X48901166Y-88350437D01*
X48878557Y-88344773D01*
X48856613Y-88336921D01*
X48835543Y-88326956D01*
X48815552Y-88314974D01*
X48796832Y-88301090D01*
X48779562Y-88285438D01*
X48763910Y-88268168D01*
X48750026Y-88249448D01*
X48738044Y-88229457D01*
X48728079Y-88208387D01*
X48720227Y-88186443D01*
X48714563Y-88163834D01*
X48711144Y-88140779D01*
X48710000Y-88117500D01*
X48710000Y-87642500D01*
X48711144Y-87619221D01*
X48714563Y-87596166D01*
X48720227Y-87573557D01*
X48728079Y-87551613D01*
X48738044Y-87530543D01*
X48750026Y-87510552D01*
X48763910Y-87491832D01*
X48779562Y-87474562D01*
X48796832Y-87458910D01*
X48815552Y-87445026D01*
X48835543Y-87433044D01*
X48856613Y-87423079D01*
X48878557Y-87415227D01*
X48901166Y-87409563D01*
X48924221Y-87406144D01*
X48947500Y-87405000D01*
X49522500Y-87405000D01*
X49545779Y-87406144D01*
X49545779Y-87406144D01*
G37*
D11*
X49235000Y-87880000D03*
D10*
G36*
X40251569Y-64874572D02*
G01*
X40274500Y-64878744D01*
X40296911Y-64885144D01*
X40318587Y-64893710D01*
X40339319Y-64904359D01*
X40750681Y-65141859D01*
X40770269Y-65154489D01*
X40788526Y-65168978D01*
X40805274Y-65185187D01*
X40820352Y-65202959D01*
X40833617Y-65222124D01*
X40844938Y-65242496D01*
X40854209Y-65263881D01*
X40861338Y-65286070D01*
X40866259Y-65308852D01*
X40868922Y-65332007D01*
X40869304Y-65355311D01*
X40867399Y-65378540D01*
X40863227Y-65401471D01*
X40856827Y-65423882D01*
X40848261Y-65445558D01*
X40837612Y-65466290D01*
X40550112Y-65964254D01*
X40537482Y-65983843D01*
X40522993Y-66002099D01*
X40506784Y-66018847D01*
X40489012Y-66033925D01*
X40469847Y-66047190D01*
X40449474Y-66058511D01*
X40428090Y-66067782D01*
X40405900Y-66074911D01*
X40383119Y-66079832D01*
X40359964Y-66082496D01*
X40336660Y-66082877D01*
X40313431Y-66080972D01*
X40290500Y-66076800D01*
X40268089Y-66070400D01*
X40246413Y-66061834D01*
X40225681Y-66051185D01*
X39814319Y-65813685D01*
X39794731Y-65801055D01*
X39776474Y-65786566D01*
X39759726Y-65770357D01*
X39744648Y-65752585D01*
X39731383Y-65733420D01*
X39720062Y-65713048D01*
X39710791Y-65691663D01*
X39703662Y-65669474D01*
X39698741Y-65646692D01*
X39696078Y-65623537D01*
X39695696Y-65600233D01*
X39697601Y-65577004D01*
X39701773Y-65554073D01*
X39708173Y-65531662D01*
X39716739Y-65509986D01*
X39727388Y-65489254D01*
X40014888Y-64991290D01*
X40027518Y-64971701D01*
X40042007Y-64953445D01*
X40058216Y-64936697D01*
X40075988Y-64921619D01*
X40095153Y-64908354D01*
X40115526Y-64897033D01*
X40136910Y-64887762D01*
X40159100Y-64880633D01*
X40181881Y-64875712D01*
X40205036Y-64873048D01*
X40228340Y-64872667D01*
X40251569Y-64874572D01*
X40251569Y-64874572D01*
G37*
D11*
X40282500Y-65477772D03*
D10*
G36*
X41126569Y-63359028D02*
G01*
X41149500Y-63363200D01*
X41171911Y-63369600D01*
X41193587Y-63378166D01*
X41214319Y-63388815D01*
X41625681Y-63626315D01*
X41645269Y-63638945D01*
X41663526Y-63653434D01*
X41680274Y-63669643D01*
X41695352Y-63687415D01*
X41708617Y-63706580D01*
X41719938Y-63726952D01*
X41729209Y-63748337D01*
X41736338Y-63770526D01*
X41741259Y-63793308D01*
X41743922Y-63816463D01*
X41744304Y-63839767D01*
X41742399Y-63862996D01*
X41738227Y-63885927D01*
X41731827Y-63908338D01*
X41723261Y-63930014D01*
X41712612Y-63950746D01*
X41425112Y-64448710D01*
X41412482Y-64468299D01*
X41397993Y-64486555D01*
X41381784Y-64503303D01*
X41364012Y-64518381D01*
X41344847Y-64531646D01*
X41324474Y-64542967D01*
X41303090Y-64552238D01*
X41280900Y-64559367D01*
X41258119Y-64564288D01*
X41234964Y-64566952D01*
X41211660Y-64567333D01*
X41188431Y-64565428D01*
X41165500Y-64561256D01*
X41143089Y-64554856D01*
X41121413Y-64546290D01*
X41100681Y-64535641D01*
X40689319Y-64298141D01*
X40669731Y-64285511D01*
X40651474Y-64271022D01*
X40634726Y-64254813D01*
X40619648Y-64237041D01*
X40606383Y-64217876D01*
X40595062Y-64197504D01*
X40585791Y-64176119D01*
X40578662Y-64153930D01*
X40573741Y-64131148D01*
X40571078Y-64107993D01*
X40570696Y-64084689D01*
X40572601Y-64061460D01*
X40576773Y-64038529D01*
X40583173Y-64016118D01*
X40591739Y-63994442D01*
X40602388Y-63973710D01*
X40889888Y-63475746D01*
X40902518Y-63456157D01*
X40917007Y-63437901D01*
X40933216Y-63421153D01*
X40950988Y-63406075D01*
X40970153Y-63392810D01*
X40990526Y-63381489D01*
X41011910Y-63372218D01*
X41034100Y-63365089D01*
X41056881Y-63360168D01*
X41080036Y-63357504D01*
X41103340Y-63357123D01*
X41126569Y-63359028D01*
X41126569Y-63359028D01*
G37*
D11*
X41157500Y-63962228D03*
D10*
G36*
X51654964Y-43763049D02*
G01*
X51678119Y-43765712D01*
X51700901Y-43770633D01*
X51723090Y-43777762D01*
X51744475Y-43787033D01*
X51764847Y-43798354D01*
X51784012Y-43811619D01*
X51801784Y-43826697D01*
X51817993Y-43843445D01*
X51832482Y-43861702D01*
X51845112Y-43881290D01*
X52132612Y-44379254D01*
X52143261Y-44399986D01*
X52151827Y-44421662D01*
X52158227Y-44444073D01*
X52162399Y-44467004D01*
X52164304Y-44490233D01*
X52163923Y-44513537D01*
X52161259Y-44536692D01*
X52156338Y-44559473D01*
X52149209Y-44581663D01*
X52139938Y-44603047D01*
X52128617Y-44623420D01*
X52115352Y-44642585D01*
X52100274Y-44660357D01*
X52083526Y-44676566D01*
X52065270Y-44691055D01*
X52045681Y-44703685D01*
X51634319Y-44941185D01*
X51613587Y-44951834D01*
X51591911Y-44960400D01*
X51569500Y-44966800D01*
X51546569Y-44970972D01*
X51523340Y-44972877D01*
X51500036Y-44972495D01*
X51476881Y-44969832D01*
X51454099Y-44964911D01*
X51431910Y-44957782D01*
X51410525Y-44948511D01*
X51390153Y-44937190D01*
X51370988Y-44923925D01*
X51353216Y-44908847D01*
X51337007Y-44892099D01*
X51322518Y-44873842D01*
X51309888Y-44854254D01*
X51022388Y-44356290D01*
X51011739Y-44335558D01*
X51003173Y-44313882D01*
X50996773Y-44291471D01*
X50992601Y-44268540D01*
X50990696Y-44245311D01*
X50991077Y-44222007D01*
X50993741Y-44198852D01*
X50998662Y-44176071D01*
X51005791Y-44153881D01*
X51015062Y-44132497D01*
X51026383Y-44112124D01*
X51039648Y-44092959D01*
X51054726Y-44075187D01*
X51071474Y-44058978D01*
X51089730Y-44044489D01*
X51109319Y-44031859D01*
X51520681Y-43794359D01*
X51541413Y-43783710D01*
X51563089Y-43775144D01*
X51585500Y-43768744D01*
X51608431Y-43764572D01*
X51631660Y-43762667D01*
X51654964Y-43763049D01*
X51654964Y-43763049D01*
G37*
D11*
X51577500Y-44367772D03*
D10*
G36*
X50779964Y-42247505D02*
G01*
X50803119Y-42250168D01*
X50825901Y-42255089D01*
X50848090Y-42262218D01*
X50869475Y-42271489D01*
X50889847Y-42282810D01*
X50909012Y-42296075D01*
X50926784Y-42311153D01*
X50942993Y-42327901D01*
X50957482Y-42346158D01*
X50970112Y-42365746D01*
X51257612Y-42863710D01*
X51268261Y-42884442D01*
X51276827Y-42906118D01*
X51283227Y-42928529D01*
X51287399Y-42951460D01*
X51289304Y-42974689D01*
X51288923Y-42997993D01*
X51286259Y-43021148D01*
X51281338Y-43043929D01*
X51274209Y-43066119D01*
X51264938Y-43087503D01*
X51253617Y-43107876D01*
X51240352Y-43127041D01*
X51225274Y-43144813D01*
X51208526Y-43161022D01*
X51190270Y-43175511D01*
X51170681Y-43188141D01*
X50759319Y-43425641D01*
X50738587Y-43436290D01*
X50716911Y-43444856D01*
X50694500Y-43451256D01*
X50671569Y-43455428D01*
X50648340Y-43457333D01*
X50625036Y-43456951D01*
X50601881Y-43454288D01*
X50579099Y-43449367D01*
X50556910Y-43442238D01*
X50535525Y-43432967D01*
X50515153Y-43421646D01*
X50495988Y-43408381D01*
X50478216Y-43393303D01*
X50462007Y-43376555D01*
X50447518Y-43358298D01*
X50434888Y-43338710D01*
X50147388Y-42840746D01*
X50136739Y-42820014D01*
X50128173Y-42798338D01*
X50121773Y-42775927D01*
X50117601Y-42752996D01*
X50115696Y-42729767D01*
X50116077Y-42706463D01*
X50118741Y-42683308D01*
X50123662Y-42660527D01*
X50130791Y-42638337D01*
X50140062Y-42616953D01*
X50151383Y-42596580D01*
X50164648Y-42577415D01*
X50179726Y-42559643D01*
X50196474Y-42543434D01*
X50214730Y-42528945D01*
X50234319Y-42516315D01*
X50645681Y-42278815D01*
X50666413Y-42268166D01*
X50688089Y-42259600D01*
X50710500Y-42253200D01*
X50733431Y-42249028D01*
X50756660Y-42247123D01*
X50779964Y-42247505D01*
X50779964Y-42247505D01*
G37*
D11*
X50702500Y-42852228D03*
D10*
G36*
X50124964Y-40353049D02*
G01*
X50148119Y-40355712D01*
X50170901Y-40360633D01*
X50193090Y-40367762D01*
X50214475Y-40377033D01*
X50234847Y-40388354D01*
X50254012Y-40401619D01*
X50271784Y-40416697D01*
X50287993Y-40433445D01*
X50302482Y-40451702D01*
X50315112Y-40471290D01*
X50602612Y-40969254D01*
X50613261Y-40989986D01*
X50621827Y-41011662D01*
X50628227Y-41034073D01*
X50632399Y-41057004D01*
X50634304Y-41080233D01*
X50633923Y-41103537D01*
X50631259Y-41126692D01*
X50626338Y-41149473D01*
X50619209Y-41171663D01*
X50609938Y-41193047D01*
X50598617Y-41213420D01*
X50585352Y-41232585D01*
X50570274Y-41250357D01*
X50553526Y-41266566D01*
X50535270Y-41281055D01*
X50515681Y-41293685D01*
X50104319Y-41531185D01*
X50083587Y-41541834D01*
X50061911Y-41550400D01*
X50039500Y-41556800D01*
X50016569Y-41560972D01*
X49993340Y-41562877D01*
X49970036Y-41562495D01*
X49946881Y-41559832D01*
X49924099Y-41554911D01*
X49901910Y-41547782D01*
X49880525Y-41538511D01*
X49860153Y-41527190D01*
X49840988Y-41513925D01*
X49823216Y-41498847D01*
X49807007Y-41482099D01*
X49792518Y-41463842D01*
X49779888Y-41444254D01*
X49492388Y-40946290D01*
X49481739Y-40925558D01*
X49473173Y-40903882D01*
X49466773Y-40881471D01*
X49462601Y-40858540D01*
X49460696Y-40835311D01*
X49461077Y-40812007D01*
X49463741Y-40788852D01*
X49468662Y-40766071D01*
X49475791Y-40743881D01*
X49485062Y-40722497D01*
X49496383Y-40702124D01*
X49509648Y-40682959D01*
X49524726Y-40665187D01*
X49541474Y-40648978D01*
X49559730Y-40634489D01*
X49579319Y-40621859D01*
X49990681Y-40384359D01*
X50011413Y-40373710D01*
X50033089Y-40365144D01*
X50055500Y-40358744D01*
X50078431Y-40354572D01*
X50101660Y-40352667D01*
X50124964Y-40353049D01*
X50124964Y-40353049D01*
G37*
D11*
X50047500Y-40957772D03*
D10*
G36*
X49249964Y-38837505D02*
G01*
X49273119Y-38840168D01*
X49295901Y-38845089D01*
X49318090Y-38852218D01*
X49339475Y-38861489D01*
X49359847Y-38872810D01*
X49379012Y-38886075D01*
X49396784Y-38901153D01*
X49412993Y-38917901D01*
X49427482Y-38936158D01*
X49440112Y-38955746D01*
X49727612Y-39453710D01*
X49738261Y-39474442D01*
X49746827Y-39496118D01*
X49753227Y-39518529D01*
X49757399Y-39541460D01*
X49759304Y-39564689D01*
X49758923Y-39587993D01*
X49756259Y-39611148D01*
X49751338Y-39633929D01*
X49744209Y-39656119D01*
X49734938Y-39677503D01*
X49723617Y-39697876D01*
X49710352Y-39717041D01*
X49695274Y-39734813D01*
X49678526Y-39751022D01*
X49660270Y-39765511D01*
X49640681Y-39778141D01*
X49229319Y-40015641D01*
X49208587Y-40026290D01*
X49186911Y-40034856D01*
X49164500Y-40041256D01*
X49141569Y-40045428D01*
X49118340Y-40047333D01*
X49095036Y-40046951D01*
X49071881Y-40044288D01*
X49049099Y-40039367D01*
X49026910Y-40032238D01*
X49005525Y-40022967D01*
X48985153Y-40011646D01*
X48965988Y-39998381D01*
X48948216Y-39983303D01*
X48932007Y-39966555D01*
X48917518Y-39948298D01*
X48904888Y-39928710D01*
X48617388Y-39430746D01*
X48606739Y-39410014D01*
X48598173Y-39388338D01*
X48591773Y-39365927D01*
X48587601Y-39342996D01*
X48585696Y-39319767D01*
X48586077Y-39296463D01*
X48588741Y-39273308D01*
X48593662Y-39250527D01*
X48600791Y-39228337D01*
X48610062Y-39206953D01*
X48621383Y-39186580D01*
X48634648Y-39167415D01*
X48649726Y-39149643D01*
X48666474Y-39133434D01*
X48684730Y-39118945D01*
X48704319Y-39106315D01*
X49115681Y-38868815D01*
X49136413Y-38858166D01*
X49158089Y-38849600D01*
X49180500Y-38843200D01*
X49203431Y-38839028D01*
X49226660Y-38837123D01*
X49249964Y-38837505D01*
X49249964Y-38837505D01*
G37*
D11*
X49172500Y-39442228D03*
D10*
G36*
X36260779Y-69011144D02*
G01*
X36283834Y-69014563D01*
X36306443Y-69020227D01*
X36328387Y-69028079D01*
X36349457Y-69038044D01*
X36369448Y-69050026D01*
X36388168Y-69063910D01*
X36405438Y-69079562D01*
X36421090Y-69096832D01*
X36434974Y-69115552D01*
X36446956Y-69135543D01*
X36456921Y-69156613D01*
X36464773Y-69178557D01*
X36470437Y-69201166D01*
X36473856Y-69224221D01*
X36475000Y-69247500D01*
X36475000Y-69822500D01*
X36473856Y-69845779D01*
X36470437Y-69868834D01*
X36464773Y-69891443D01*
X36456921Y-69913387D01*
X36446956Y-69934457D01*
X36434974Y-69954448D01*
X36421090Y-69973168D01*
X36405438Y-69990438D01*
X36388168Y-70006090D01*
X36369448Y-70019974D01*
X36349457Y-70031956D01*
X36328387Y-70041921D01*
X36306443Y-70049773D01*
X36283834Y-70055437D01*
X36260779Y-70058856D01*
X36237500Y-70060000D01*
X35762500Y-70060000D01*
X35739221Y-70058856D01*
X35716166Y-70055437D01*
X35693557Y-70049773D01*
X35671613Y-70041921D01*
X35650543Y-70031956D01*
X35630552Y-70019974D01*
X35611832Y-70006090D01*
X35594562Y-69990438D01*
X35578910Y-69973168D01*
X35565026Y-69954448D01*
X35553044Y-69934457D01*
X35543079Y-69913387D01*
X35535227Y-69891443D01*
X35529563Y-69868834D01*
X35526144Y-69845779D01*
X35525000Y-69822500D01*
X35525000Y-69247500D01*
X35526144Y-69224221D01*
X35529563Y-69201166D01*
X35535227Y-69178557D01*
X35543079Y-69156613D01*
X35553044Y-69135543D01*
X35565026Y-69115552D01*
X35578910Y-69096832D01*
X35594562Y-69079562D01*
X35611832Y-69063910D01*
X35630552Y-69050026D01*
X35650543Y-69038044D01*
X35671613Y-69028079D01*
X35693557Y-69020227D01*
X35716166Y-69014563D01*
X35739221Y-69011144D01*
X35762500Y-69010000D01*
X36237500Y-69010000D01*
X36260779Y-69011144D01*
X36260779Y-69011144D01*
G37*
D11*
X36000000Y-69535000D03*
D10*
G36*
X36260779Y-67261144D02*
G01*
X36283834Y-67264563D01*
X36306443Y-67270227D01*
X36328387Y-67278079D01*
X36349457Y-67288044D01*
X36369448Y-67300026D01*
X36388168Y-67313910D01*
X36405438Y-67329562D01*
X36421090Y-67346832D01*
X36434974Y-67365552D01*
X36446956Y-67385543D01*
X36456921Y-67406613D01*
X36464773Y-67428557D01*
X36470437Y-67451166D01*
X36473856Y-67474221D01*
X36475000Y-67497500D01*
X36475000Y-68072500D01*
X36473856Y-68095779D01*
X36470437Y-68118834D01*
X36464773Y-68141443D01*
X36456921Y-68163387D01*
X36446956Y-68184457D01*
X36434974Y-68204448D01*
X36421090Y-68223168D01*
X36405438Y-68240438D01*
X36388168Y-68256090D01*
X36369448Y-68269974D01*
X36349457Y-68281956D01*
X36328387Y-68291921D01*
X36306443Y-68299773D01*
X36283834Y-68305437D01*
X36260779Y-68308856D01*
X36237500Y-68310000D01*
X35762500Y-68310000D01*
X35739221Y-68308856D01*
X35716166Y-68305437D01*
X35693557Y-68299773D01*
X35671613Y-68291921D01*
X35650543Y-68281956D01*
X35630552Y-68269974D01*
X35611832Y-68256090D01*
X35594562Y-68240438D01*
X35578910Y-68223168D01*
X35565026Y-68204448D01*
X35553044Y-68184457D01*
X35543079Y-68163387D01*
X35535227Y-68141443D01*
X35529563Y-68118834D01*
X35526144Y-68095779D01*
X35525000Y-68072500D01*
X35525000Y-67497500D01*
X35526144Y-67474221D01*
X35529563Y-67451166D01*
X35535227Y-67428557D01*
X35543079Y-67406613D01*
X35553044Y-67385543D01*
X35565026Y-67365552D01*
X35578910Y-67346832D01*
X35594562Y-67329562D01*
X35611832Y-67313910D01*
X35630552Y-67300026D01*
X35650543Y-67288044D01*
X35671613Y-67278079D01*
X35693557Y-67270227D01*
X35716166Y-67264563D01*
X35739221Y-67261144D01*
X35762500Y-67260000D01*
X36237500Y-67260000D01*
X36260779Y-67261144D01*
X36260779Y-67261144D01*
G37*
D11*
X36000000Y-67785000D03*
D10*
G36*
X30627681Y-37615724D02*
G01*
X30650565Y-37620146D01*
X30672905Y-37626790D01*
X30694486Y-37635592D01*
X30715101Y-37646467D01*
X30734550Y-37659310D01*
X30752647Y-37673997D01*
X30769218Y-37690388D01*
X30784101Y-37708323D01*
X30797156Y-37727632D01*
X30808255Y-37748126D01*
X30817291Y-37769610D01*
X31013953Y-38309933D01*
X31020840Y-38332199D01*
X31025512Y-38355033D01*
X31027923Y-38378216D01*
X31028050Y-38401522D01*
X31025892Y-38424729D01*
X31021470Y-38447613D01*
X31014826Y-38469953D01*
X31006024Y-38491535D01*
X30995150Y-38512149D01*
X30982307Y-38531599D01*
X30967619Y-38549696D01*
X30951229Y-38566266D01*
X30933293Y-38581150D01*
X30913985Y-38594204D01*
X30893490Y-38605303D01*
X30872006Y-38614340D01*
X30425652Y-38776799D01*
X30403385Y-38783686D01*
X30380551Y-38788358D01*
X30357369Y-38790769D01*
X30334062Y-38790896D01*
X30310855Y-38788738D01*
X30287971Y-38784316D01*
X30265631Y-38777672D01*
X30244050Y-38768870D01*
X30223435Y-38757995D01*
X30203986Y-38745152D01*
X30185889Y-38730465D01*
X30169318Y-38714074D01*
X30154435Y-38696139D01*
X30141380Y-38676830D01*
X30130281Y-38656336D01*
X30121245Y-38634852D01*
X29924583Y-38094529D01*
X29917696Y-38072263D01*
X29913024Y-38049429D01*
X29910613Y-38026246D01*
X29910486Y-38002940D01*
X29912644Y-37979733D01*
X29917066Y-37956849D01*
X29923710Y-37934509D01*
X29932512Y-37912927D01*
X29943386Y-37892313D01*
X29956229Y-37872863D01*
X29970917Y-37854766D01*
X29987307Y-37838196D01*
X30005243Y-37823312D01*
X30024551Y-37810258D01*
X30045046Y-37799159D01*
X30066530Y-37790122D01*
X30512884Y-37627663D01*
X30535151Y-37620776D01*
X30557985Y-37616104D01*
X30581167Y-37613693D01*
X30604474Y-37613566D01*
X30627681Y-37615724D01*
X30627681Y-37615724D01*
G37*
D11*
X30469268Y-38202231D03*
D10*
G36*
X30029145Y-35971262D02*
G01*
X30052029Y-35975684D01*
X30074369Y-35982328D01*
X30095950Y-35991130D01*
X30116565Y-36002005D01*
X30136014Y-36014848D01*
X30154111Y-36029535D01*
X30170682Y-36045926D01*
X30185565Y-36063861D01*
X30198620Y-36083170D01*
X30209719Y-36103664D01*
X30218755Y-36125148D01*
X30415417Y-36665471D01*
X30422304Y-36687737D01*
X30426976Y-36710571D01*
X30429387Y-36733754D01*
X30429514Y-36757060D01*
X30427356Y-36780267D01*
X30422934Y-36803151D01*
X30416290Y-36825491D01*
X30407488Y-36847073D01*
X30396614Y-36867687D01*
X30383771Y-36887137D01*
X30369083Y-36905234D01*
X30352693Y-36921804D01*
X30334757Y-36936688D01*
X30315449Y-36949742D01*
X30294954Y-36960841D01*
X30273470Y-36969878D01*
X29827116Y-37132337D01*
X29804849Y-37139224D01*
X29782015Y-37143896D01*
X29758833Y-37146307D01*
X29735526Y-37146434D01*
X29712319Y-37144276D01*
X29689435Y-37139854D01*
X29667095Y-37133210D01*
X29645514Y-37124408D01*
X29624899Y-37113533D01*
X29605450Y-37100690D01*
X29587353Y-37086003D01*
X29570782Y-37069612D01*
X29555899Y-37051677D01*
X29542844Y-37032368D01*
X29531745Y-37011874D01*
X29522709Y-36990390D01*
X29326047Y-36450067D01*
X29319160Y-36427801D01*
X29314488Y-36404967D01*
X29312077Y-36381784D01*
X29311950Y-36358478D01*
X29314108Y-36335271D01*
X29318530Y-36312387D01*
X29325174Y-36290047D01*
X29333976Y-36268465D01*
X29344850Y-36247851D01*
X29357693Y-36228401D01*
X29372381Y-36210304D01*
X29388771Y-36193734D01*
X29406707Y-36178850D01*
X29426015Y-36165796D01*
X29446510Y-36154697D01*
X29467994Y-36145660D01*
X29914348Y-35983201D01*
X29936615Y-35976314D01*
X29959449Y-35971642D01*
X29982631Y-35969231D01*
X30005938Y-35969104D01*
X30029145Y-35971262D01*
X30029145Y-35971262D01*
G37*
D11*
X29870732Y-36557769D03*
D10*
G36*
X45780456Y-106468127D02*
G01*
X45803430Y-106472049D01*
X45825910Y-106478204D01*
X45847678Y-106486533D01*
X45868525Y-106496955D01*
X45888250Y-106509370D01*
X45906664Y-106523660D01*
X45923587Y-106539685D01*
X45938859Y-106557291D01*
X45952331Y-106576310D01*
X45963875Y-106596558D01*
X45973378Y-106617840D01*
X45980749Y-106639951D01*
X45985918Y-106662677D01*
X46085766Y-107228942D01*
X46088682Y-107252066D01*
X46089317Y-107275365D01*
X46087666Y-107298614D01*
X46083744Y-107321588D01*
X46077589Y-107344068D01*
X46069261Y-107365836D01*
X46058838Y-107386683D01*
X46046423Y-107406408D01*
X46032134Y-107424821D01*
X46016108Y-107441745D01*
X45998502Y-107457017D01*
X45979483Y-107470489D01*
X45959235Y-107482033D01*
X45937953Y-107491536D01*
X45915842Y-107498907D01*
X45893115Y-107504076D01*
X45425331Y-107586559D01*
X45402207Y-107589475D01*
X45378909Y-107590110D01*
X45355660Y-107588459D01*
X45332686Y-107584537D01*
X45310206Y-107578382D01*
X45288438Y-107570053D01*
X45267591Y-107559631D01*
X45247866Y-107547216D01*
X45229452Y-107532926D01*
X45212529Y-107516901D01*
X45197257Y-107499295D01*
X45183785Y-107480276D01*
X45172241Y-107460028D01*
X45162738Y-107438746D01*
X45155367Y-107416635D01*
X45150198Y-107393909D01*
X45050350Y-106827644D01*
X45047434Y-106804520D01*
X45046799Y-106781221D01*
X45048450Y-106757972D01*
X45052372Y-106734998D01*
X45058527Y-106712518D01*
X45066855Y-106690750D01*
X45077278Y-106669903D01*
X45089693Y-106650178D01*
X45103982Y-106631765D01*
X45120008Y-106614841D01*
X45137614Y-106599569D01*
X45156633Y-106586097D01*
X45176881Y-106574553D01*
X45198163Y-106565050D01*
X45220274Y-106557679D01*
X45243001Y-106552510D01*
X45710785Y-106470027D01*
X45733909Y-106467111D01*
X45757207Y-106466476D01*
X45780456Y-106468127D01*
X45780456Y-106468127D01*
G37*
D11*
X45568058Y-107028293D03*
D10*
G36*
X46084340Y-108191541D02*
G01*
X46107314Y-108195463D01*
X46129794Y-108201618D01*
X46151562Y-108209947D01*
X46172409Y-108220369D01*
X46192134Y-108232784D01*
X46210548Y-108247074D01*
X46227471Y-108263099D01*
X46242743Y-108280705D01*
X46256215Y-108299724D01*
X46267759Y-108319972D01*
X46277262Y-108341254D01*
X46284633Y-108363365D01*
X46289802Y-108386091D01*
X46389650Y-108952356D01*
X46392566Y-108975480D01*
X46393201Y-108998779D01*
X46391550Y-109022028D01*
X46387628Y-109045002D01*
X46381473Y-109067482D01*
X46373145Y-109089250D01*
X46362722Y-109110097D01*
X46350307Y-109129822D01*
X46336018Y-109148235D01*
X46319992Y-109165159D01*
X46302386Y-109180431D01*
X46283367Y-109193903D01*
X46263119Y-109205447D01*
X46241837Y-109214950D01*
X46219726Y-109222321D01*
X46196999Y-109227490D01*
X45729215Y-109309973D01*
X45706091Y-109312889D01*
X45682793Y-109313524D01*
X45659544Y-109311873D01*
X45636570Y-109307951D01*
X45614090Y-109301796D01*
X45592322Y-109293467D01*
X45571475Y-109283045D01*
X45551750Y-109270630D01*
X45533336Y-109256340D01*
X45516413Y-109240315D01*
X45501141Y-109222709D01*
X45487669Y-109203690D01*
X45476125Y-109183442D01*
X45466622Y-109162160D01*
X45459251Y-109140049D01*
X45454082Y-109117323D01*
X45354234Y-108551058D01*
X45351318Y-108527934D01*
X45350683Y-108504635D01*
X45352334Y-108481386D01*
X45356256Y-108458412D01*
X45362411Y-108435932D01*
X45370739Y-108414164D01*
X45381162Y-108393317D01*
X45393577Y-108373592D01*
X45407866Y-108355179D01*
X45423892Y-108338255D01*
X45441498Y-108322983D01*
X45460517Y-108309511D01*
X45480765Y-108297967D01*
X45502047Y-108288464D01*
X45524158Y-108281093D01*
X45546885Y-108275924D01*
X46014669Y-108193441D01*
X46037793Y-108190525D01*
X46061091Y-108189890D01*
X46084340Y-108191541D01*
X46084340Y-108191541D01*
G37*
D11*
X45871942Y-108751707D03*
D10*
G36*
X47567987Y-105549106D02*
G01*
X47591077Y-105552274D01*
X47613746Y-105557690D01*
X47635776Y-105565302D01*
X47656952Y-105575037D01*
X47677073Y-105586800D01*
X47695944Y-105600479D01*
X47713383Y-105615942D01*
X47729223Y-105633040D01*
X48034547Y-105996911D01*
X48048634Y-106015479D01*
X48060834Y-106035338D01*
X48071028Y-106056298D01*
X48079119Y-106078155D01*
X48085028Y-106100701D01*
X48088699Y-106123717D01*
X48090097Y-106146982D01*
X48089207Y-106170272D01*
X48086039Y-106193363D01*
X48080623Y-106216032D01*
X48073011Y-106238061D01*
X48063276Y-106259238D01*
X48051513Y-106279359D01*
X48037834Y-106298230D01*
X48022371Y-106315669D01*
X48005273Y-106331509D01*
X47564797Y-106701112D01*
X47546229Y-106715199D01*
X47526370Y-106727399D01*
X47505410Y-106737593D01*
X47483553Y-106745684D01*
X47461007Y-106751593D01*
X47437991Y-106755264D01*
X47414726Y-106756662D01*
X47391435Y-106755772D01*
X47368345Y-106752604D01*
X47345676Y-106747188D01*
X47323646Y-106739576D01*
X47302470Y-106729841D01*
X47282349Y-106718078D01*
X47263478Y-106704399D01*
X47246039Y-106688936D01*
X47230199Y-106671838D01*
X46924875Y-106307967D01*
X46910788Y-106289399D01*
X46898588Y-106269540D01*
X46888394Y-106248580D01*
X46880303Y-106226723D01*
X46874394Y-106204177D01*
X46870723Y-106181161D01*
X46869325Y-106157896D01*
X46870215Y-106134606D01*
X46873383Y-106111515D01*
X46878799Y-106088846D01*
X46886411Y-106066817D01*
X46896146Y-106045640D01*
X46907909Y-106025519D01*
X46921588Y-106006648D01*
X46937051Y-105989209D01*
X46954149Y-105973369D01*
X47394625Y-105603766D01*
X47413193Y-105589679D01*
X47433052Y-105577479D01*
X47454012Y-105567285D01*
X47475869Y-105559194D01*
X47498415Y-105553285D01*
X47521431Y-105549614D01*
X47544696Y-105548216D01*
X47567987Y-105549106D01*
X47567987Y-105549106D01*
G37*
D11*
X47479711Y-106152439D03*
D10*
G36*
X48908565Y-104424228D02*
G01*
X48931655Y-104427396D01*
X48954324Y-104432812D01*
X48976354Y-104440424D01*
X48997530Y-104450159D01*
X49017651Y-104461922D01*
X49036522Y-104475601D01*
X49053961Y-104491064D01*
X49069801Y-104508162D01*
X49375125Y-104872033D01*
X49389212Y-104890601D01*
X49401412Y-104910460D01*
X49411606Y-104931420D01*
X49419697Y-104953277D01*
X49425606Y-104975823D01*
X49429277Y-104998839D01*
X49430675Y-105022104D01*
X49429785Y-105045394D01*
X49426617Y-105068485D01*
X49421201Y-105091154D01*
X49413589Y-105113183D01*
X49403854Y-105134360D01*
X49392091Y-105154481D01*
X49378412Y-105173352D01*
X49362949Y-105190791D01*
X49345851Y-105206631D01*
X48905375Y-105576234D01*
X48886807Y-105590321D01*
X48866948Y-105602521D01*
X48845988Y-105612715D01*
X48824131Y-105620806D01*
X48801585Y-105626715D01*
X48778569Y-105630386D01*
X48755304Y-105631784D01*
X48732013Y-105630894D01*
X48708923Y-105627726D01*
X48686254Y-105622310D01*
X48664224Y-105614698D01*
X48643048Y-105604963D01*
X48622927Y-105593200D01*
X48604056Y-105579521D01*
X48586617Y-105564058D01*
X48570777Y-105546960D01*
X48265453Y-105183089D01*
X48251366Y-105164521D01*
X48239166Y-105144662D01*
X48228972Y-105123702D01*
X48220881Y-105101845D01*
X48214972Y-105079299D01*
X48211301Y-105056283D01*
X48209903Y-105033018D01*
X48210793Y-105009728D01*
X48213961Y-104986637D01*
X48219377Y-104963968D01*
X48226989Y-104941939D01*
X48236724Y-104920762D01*
X48248487Y-104900641D01*
X48262166Y-104881770D01*
X48277629Y-104864331D01*
X48294727Y-104848491D01*
X48735203Y-104478888D01*
X48753771Y-104464801D01*
X48773630Y-104452601D01*
X48794590Y-104442407D01*
X48816447Y-104434316D01*
X48838993Y-104428407D01*
X48862009Y-104424736D01*
X48885274Y-104423338D01*
X48908565Y-104424228D01*
X48908565Y-104424228D01*
G37*
D11*
X48820289Y-105027561D03*
D10*
G36*
X32387369Y-34009231D02*
G01*
X32410552Y-34011642D01*
X32433386Y-34016314D01*
X32455652Y-34023201D01*
X32902006Y-34185660D01*
X32923490Y-34194696D01*
X32943984Y-34205795D01*
X32963293Y-34218850D01*
X32981228Y-34233733D01*
X32997619Y-34250304D01*
X33012306Y-34268401D01*
X33025149Y-34287850D01*
X33036024Y-34308465D01*
X33044826Y-34330046D01*
X33051470Y-34352386D01*
X33055892Y-34375270D01*
X33058050Y-34398477D01*
X33057923Y-34421784D01*
X33055512Y-34444966D01*
X33050840Y-34467800D01*
X33043953Y-34490067D01*
X32847291Y-35030390D01*
X32838254Y-35051874D01*
X32827155Y-35072369D01*
X32814101Y-35091677D01*
X32799217Y-35109613D01*
X32782647Y-35126003D01*
X32764550Y-35140691D01*
X32745100Y-35153534D01*
X32724486Y-35164408D01*
X32702904Y-35173210D01*
X32680564Y-35179854D01*
X32657680Y-35184276D01*
X32634473Y-35186434D01*
X32611167Y-35186307D01*
X32587984Y-35183896D01*
X32565150Y-35179224D01*
X32542884Y-35172337D01*
X32096530Y-35009878D01*
X32075046Y-35000842D01*
X32054552Y-34989743D01*
X32035243Y-34976688D01*
X32017308Y-34961805D01*
X32000917Y-34945234D01*
X31986230Y-34927137D01*
X31973387Y-34907688D01*
X31962512Y-34887073D01*
X31953710Y-34865492D01*
X31947066Y-34843152D01*
X31942644Y-34820268D01*
X31940486Y-34797061D01*
X31940613Y-34773754D01*
X31943024Y-34750572D01*
X31947696Y-34727738D01*
X31954583Y-34705471D01*
X32151245Y-34165148D01*
X32160282Y-34143664D01*
X32171381Y-34123169D01*
X32184435Y-34103861D01*
X32199319Y-34085925D01*
X32215889Y-34069535D01*
X32233986Y-34054847D01*
X32253436Y-34042004D01*
X32274050Y-34031130D01*
X32295632Y-34022328D01*
X32317972Y-34015684D01*
X32340856Y-34011262D01*
X32364063Y-34009104D01*
X32387369Y-34009231D01*
X32387369Y-34009231D01*
G37*
D11*
X32499268Y-34597769D03*
D10*
G36*
X31788833Y-35653693D02*
G01*
X31812016Y-35656104D01*
X31834850Y-35660776D01*
X31857116Y-35667663D01*
X32303470Y-35830122D01*
X32324954Y-35839158D01*
X32345448Y-35850257D01*
X32364757Y-35863312D01*
X32382692Y-35878195D01*
X32399083Y-35894766D01*
X32413770Y-35912863D01*
X32426613Y-35932312D01*
X32437488Y-35952927D01*
X32446290Y-35974508D01*
X32452934Y-35996848D01*
X32457356Y-36019732D01*
X32459514Y-36042939D01*
X32459387Y-36066246D01*
X32456976Y-36089428D01*
X32452304Y-36112262D01*
X32445417Y-36134529D01*
X32248755Y-36674852D01*
X32239718Y-36696336D01*
X32228619Y-36716831D01*
X32215565Y-36736139D01*
X32200681Y-36754075D01*
X32184111Y-36770465D01*
X32166014Y-36785153D01*
X32146564Y-36797996D01*
X32125950Y-36808870D01*
X32104368Y-36817672D01*
X32082028Y-36824316D01*
X32059144Y-36828738D01*
X32035937Y-36830896D01*
X32012631Y-36830769D01*
X31989448Y-36828358D01*
X31966614Y-36823686D01*
X31944348Y-36816799D01*
X31497994Y-36654340D01*
X31476510Y-36645304D01*
X31456016Y-36634205D01*
X31436707Y-36621150D01*
X31418772Y-36606267D01*
X31402381Y-36589696D01*
X31387694Y-36571599D01*
X31374851Y-36552150D01*
X31363976Y-36531535D01*
X31355174Y-36509954D01*
X31348530Y-36487614D01*
X31344108Y-36464730D01*
X31341950Y-36441523D01*
X31342077Y-36418216D01*
X31344488Y-36395034D01*
X31349160Y-36372200D01*
X31356047Y-36349933D01*
X31552709Y-35809610D01*
X31561746Y-35788126D01*
X31572845Y-35767631D01*
X31585899Y-35748323D01*
X31600783Y-35730387D01*
X31617353Y-35713997D01*
X31635450Y-35699309D01*
X31654900Y-35686466D01*
X31675514Y-35675592D01*
X31697096Y-35666790D01*
X31719436Y-35660146D01*
X31742320Y-35655724D01*
X31765527Y-35653566D01*
X31788833Y-35653693D01*
X31788833Y-35653693D01*
G37*
D11*
X31900732Y-36242231D03*
D10*
G36*
X25989964Y-91727505D02*
G01*
X26013119Y-91730168D01*
X26035901Y-91735089D01*
X26058090Y-91742218D01*
X26079475Y-91751489D01*
X26099847Y-91762810D01*
X26119012Y-91776075D01*
X26136784Y-91791153D01*
X26152993Y-91807901D01*
X26167482Y-91826158D01*
X26180112Y-91845746D01*
X26467612Y-92343710D01*
X26478261Y-92364442D01*
X26486827Y-92386118D01*
X26493227Y-92408529D01*
X26497399Y-92431460D01*
X26499304Y-92454689D01*
X26498923Y-92477993D01*
X26496259Y-92501148D01*
X26491338Y-92523929D01*
X26484209Y-92546119D01*
X26474938Y-92567503D01*
X26463617Y-92587876D01*
X26450352Y-92607041D01*
X26435274Y-92624813D01*
X26418526Y-92641022D01*
X26400270Y-92655511D01*
X26380681Y-92668141D01*
X25969319Y-92905641D01*
X25948587Y-92916290D01*
X25926911Y-92924856D01*
X25904500Y-92931256D01*
X25881569Y-92935428D01*
X25858340Y-92937333D01*
X25835036Y-92936951D01*
X25811881Y-92934288D01*
X25789099Y-92929367D01*
X25766910Y-92922238D01*
X25745525Y-92912967D01*
X25725153Y-92901646D01*
X25705988Y-92888381D01*
X25688216Y-92873303D01*
X25672007Y-92856555D01*
X25657518Y-92838298D01*
X25644888Y-92818710D01*
X25357388Y-92320746D01*
X25346739Y-92300014D01*
X25338173Y-92278338D01*
X25331773Y-92255927D01*
X25327601Y-92232996D01*
X25325696Y-92209767D01*
X25326077Y-92186463D01*
X25328741Y-92163308D01*
X25333662Y-92140527D01*
X25340791Y-92118337D01*
X25350062Y-92096953D01*
X25361383Y-92076580D01*
X25374648Y-92057415D01*
X25389726Y-92039643D01*
X25406474Y-92023434D01*
X25424730Y-92008945D01*
X25444319Y-91996315D01*
X25855681Y-91758815D01*
X25876413Y-91748166D01*
X25898089Y-91739600D01*
X25920500Y-91733200D01*
X25943431Y-91729028D01*
X25966660Y-91727123D01*
X25989964Y-91727505D01*
X25989964Y-91727505D01*
G37*
D11*
X25912500Y-92332228D03*
D10*
G36*
X26864964Y-93243049D02*
G01*
X26888119Y-93245712D01*
X26910901Y-93250633D01*
X26933090Y-93257762D01*
X26954475Y-93267033D01*
X26974847Y-93278354D01*
X26994012Y-93291619D01*
X27011784Y-93306697D01*
X27027993Y-93323445D01*
X27042482Y-93341702D01*
X27055112Y-93361290D01*
X27342612Y-93859254D01*
X27353261Y-93879986D01*
X27361827Y-93901662D01*
X27368227Y-93924073D01*
X27372399Y-93947004D01*
X27374304Y-93970233D01*
X27373923Y-93993537D01*
X27371259Y-94016692D01*
X27366338Y-94039473D01*
X27359209Y-94061663D01*
X27349938Y-94083047D01*
X27338617Y-94103420D01*
X27325352Y-94122585D01*
X27310274Y-94140357D01*
X27293526Y-94156566D01*
X27275270Y-94171055D01*
X27255681Y-94183685D01*
X26844319Y-94421185D01*
X26823587Y-94431834D01*
X26801911Y-94440400D01*
X26779500Y-94446800D01*
X26756569Y-94450972D01*
X26733340Y-94452877D01*
X26710036Y-94452495D01*
X26686881Y-94449832D01*
X26664099Y-94444911D01*
X26641910Y-94437782D01*
X26620525Y-94428511D01*
X26600153Y-94417190D01*
X26580988Y-94403925D01*
X26563216Y-94388847D01*
X26547007Y-94372099D01*
X26532518Y-94353842D01*
X26519888Y-94334254D01*
X26232388Y-93836290D01*
X26221739Y-93815558D01*
X26213173Y-93793882D01*
X26206773Y-93771471D01*
X26202601Y-93748540D01*
X26200696Y-93725311D01*
X26201077Y-93702007D01*
X26203741Y-93678852D01*
X26208662Y-93656071D01*
X26215791Y-93633881D01*
X26225062Y-93612497D01*
X26236383Y-93592124D01*
X26249648Y-93572959D01*
X26264726Y-93555187D01*
X26281474Y-93538978D01*
X26299730Y-93524489D01*
X26319319Y-93511859D01*
X26730681Y-93274359D01*
X26751413Y-93263710D01*
X26773089Y-93255144D01*
X26795500Y-93248744D01*
X26818431Y-93244572D01*
X26841660Y-93242667D01*
X26864964Y-93243049D01*
X26864964Y-93243049D01*
G37*
D11*
X26787500Y-93847772D03*
D10*
G36*
X27310321Y-97080393D02*
G01*
X27333295Y-97084315D01*
X27355775Y-97090470D01*
X27377543Y-97098798D01*
X27398390Y-97109221D01*
X27418115Y-97121636D01*
X27436528Y-97135925D01*
X27453452Y-97151951D01*
X27468724Y-97169557D01*
X27482196Y-97188576D01*
X27493740Y-97208824D01*
X27503243Y-97230106D01*
X27510614Y-97252217D01*
X27515783Y-97274944D01*
X27598266Y-97742728D01*
X27601182Y-97765852D01*
X27601817Y-97789150D01*
X27600166Y-97812399D01*
X27596244Y-97835373D01*
X27590089Y-97857853D01*
X27581760Y-97879621D01*
X27571338Y-97900468D01*
X27558923Y-97920193D01*
X27544633Y-97938607D01*
X27528608Y-97955530D01*
X27511002Y-97970802D01*
X27491983Y-97984274D01*
X27471735Y-97995818D01*
X27450453Y-98005321D01*
X27428342Y-98012692D01*
X27405616Y-98017861D01*
X26839351Y-98117709D01*
X26816227Y-98120625D01*
X26792928Y-98121260D01*
X26769679Y-98119609D01*
X26746705Y-98115687D01*
X26724225Y-98109532D01*
X26702457Y-98101204D01*
X26681610Y-98090781D01*
X26661885Y-98078366D01*
X26643472Y-98064077D01*
X26626548Y-98048051D01*
X26611276Y-98030445D01*
X26597804Y-98011426D01*
X26586260Y-97991178D01*
X26576757Y-97969896D01*
X26569386Y-97947785D01*
X26564217Y-97925058D01*
X26481734Y-97457274D01*
X26478818Y-97434150D01*
X26478183Y-97410852D01*
X26479834Y-97387603D01*
X26483756Y-97364629D01*
X26489911Y-97342149D01*
X26498240Y-97320381D01*
X26508662Y-97299534D01*
X26521077Y-97279809D01*
X26535367Y-97261395D01*
X26551392Y-97244472D01*
X26568998Y-97229200D01*
X26588017Y-97215728D01*
X26608265Y-97204184D01*
X26629547Y-97194681D01*
X26651658Y-97187310D01*
X26674384Y-97182141D01*
X27240649Y-97082293D01*
X27263773Y-97079377D01*
X27287072Y-97078742D01*
X27310321Y-97080393D01*
X27310321Y-97080393D01*
G37*
D11*
X27040000Y-97600001D03*
D10*
G36*
X25586907Y-97384277D02*
G01*
X25609881Y-97388199D01*
X25632361Y-97394354D01*
X25654129Y-97402682D01*
X25674976Y-97413105D01*
X25694701Y-97425520D01*
X25713114Y-97439809D01*
X25730038Y-97455835D01*
X25745310Y-97473441D01*
X25758782Y-97492460D01*
X25770326Y-97512708D01*
X25779829Y-97533990D01*
X25787200Y-97556101D01*
X25792369Y-97578828D01*
X25874852Y-98046612D01*
X25877768Y-98069736D01*
X25878403Y-98093034D01*
X25876752Y-98116283D01*
X25872830Y-98139257D01*
X25866675Y-98161737D01*
X25858346Y-98183505D01*
X25847924Y-98204352D01*
X25835509Y-98224077D01*
X25821219Y-98242491D01*
X25805194Y-98259414D01*
X25787588Y-98274686D01*
X25768569Y-98288158D01*
X25748321Y-98299702D01*
X25727039Y-98309205D01*
X25704928Y-98316576D01*
X25682202Y-98321745D01*
X25115937Y-98421593D01*
X25092813Y-98424509D01*
X25069514Y-98425144D01*
X25046265Y-98423493D01*
X25023291Y-98419571D01*
X25000811Y-98413416D01*
X24979043Y-98405088D01*
X24958196Y-98394665D01*
X24938471Y-98382250D01*
X24920058Y-98367961D01*
X24903134Y-98351935D01*
X24887862Y-98334329D01*
X24874390Y-98315310D01*
X24862846Y-98295062D01*
X24853343Y-98273780D01*
X24845972Y-98251669D01*
X24840803Y-98228942D01*
X24758320Y-97761158D01*
X24755404Y-97738034D01*
X24754769Y-97714736D01*
X24756420Y-97691487D01*
X24760342Y-97668513D01*
X24766497Y-97646033D01*
X24774826Y-97624265D01*
X24785248Y-97603418D01*
X24797663Y-97583693D01*
X24811953Y-97565279D01*
X24827978Y-97548356D01*
X24845584Y-97533084D01*
X24864603Y-97519612D01*
X24884851Y-97508068D01*
X24906133Y-97498565D01*
X24928244Y-97491194D01*
X24950970Y-97486025D01*
X25517235Y-97386177D01*
X25540359Y-97383261D01*
X25563658Y-97382626D01*
X25586907Y-97384277D01*
X25586907Y-97384277D01*
G37*
D11*
X25316586Y-97903885D03*
M02*
