M48
; DRILL file {KiCad (5.1.2-1)-1} date Wednesday, August 10, 2022 at 03:32:28 PM
; FORMAT={-:-/ absolute / inch / decimal}
; #@! TF.CreationDate,2022-08-10T15:32:28-04:00
; #@! TF.GenerationSoftware,Kicad,Pcbnew,(5.1.2-1)-1
FMAT,2
INCH
T1C0.0157
T2C0.0315
T3C0.0394
T4C0.0394
T5C0.0400
T6C0.0472
T7C0.1378
%
G90
G05
T1
X0.9114Y-4.4988
X0.9657Y-4.0433
X0.9736Y-1.5996
X1.0598Y-4.2091
X1.0642Y-1.5646
X1.072Y-4.1051
X1.0728Y-4.3248
X1.0791Y-4.0441
X1.1469Y-3.4402
X1.1803Y-4.1118
X1.1862Y-4.3689
X1.3008Y-1.2323
X1.3106Y-3.7287
X1.311Y-1.1492
X1.311Y-2.9236
X1.3319Y-4.5138
X1.361Y-3.7201
X1.361Y-4.4768
X1.3866Y-1.0465
X1.411Y-2.4398
X1.4114Y-2.6154
X1.4177Y-4.1713
X1.4362Y-3.2677
X1.4697Y-3.402
X1.5067Y-3.1283
X1.5626Y-3.4504
X1.5795Y-3.9437
X1.6004Y-2.2031
X1.6559Y-4.2173
X1.6941Y-4.5055
X1.7173Y-1.2835
X1.7467Y-3.6068
X1.7602Y-3.5035
X1.8079Y-3.0941
X1.8563Y-3.3768
X1.9535Y-3.1827
X1.9965Y-2.8386
X1.998Y-1.0429
X2.0539Y-3.1642
X2.1181Y-3.2811
X2.1484Y-2.8374
X2.1748Y-3.0028
X2.1854Y-2.1858
X2.2Y-4.2677
X2.2024Y-3.4744
X2.2067Y-1.5453
X2.2425Y-3.352
X2.3272Y-2.9295
X2.3413Y-3.0165
T2
X0.9831Y-0.9252
X0.9937Y-3.5673
X1.0177Y-1.2417
X1.0181Y-1.7953
X1.037Y-1.0882
X1.0429Y-3.7764
X1.098Y-1.0138
X1.1059Y-1.4043
X1.1618Y-2.5811
X1.2374Y-3.7972
X1.2864Y-1.5635
X1.3008Y-1.2913
X1.348Y-0.8972
X1.4339Y-1.6421
X1.4862Y-2.7874
X1.5874Y-2.6571
X1.6748Y-2.2819
X1.6902Y-2.487
X1.728Y-4.2689
X1.7508Y-2.25
X1.8031Y-4.3472
X1.8433Y-3.4984
X1.8925Y-4.528
X1.8949Y-1.8295
X1.9067Y-1.4461
X2.0098Y-4.1146
X2.0142Y-1.5094
X2.0736Y-2.8051
X2.076Y-3.4681
X2.0815Y-3.7969
X2.1382Y-3.5949
X2.276Y-2.8669
X2.2882Y-3.0724
X1.713Y-0.7953
X1.9728Y-0.9453
X2.1173Y-4.8232
X2.1173Y-4.9232
X1.1244Y-4.826
X1.1244Y-4.926
T3
X1.798Y-4.4976
X1.9512Y-4.3691
X1.7039Y-1.1957
X1.8024Y-1.3661
X1.9236Y-1.1825
T4
X1.6114Y-2.8409
X1.9551Y-2.3157
X1.6268Y-1.3402
X1.4374Y-0.7626
X1.6602Y-1.4846
X1.9031Y-0.7524
X1.4421Y-1.387
X2.1276Y-1.4138
X2.2449Y-1.9881
X1.2547Y-2.528
X1.3559Y-2.3846
X1.838Y-3.9052
X1.2425Y-2.6709
X2.2657Y-4.7768
X2.2657Y-4.9268
X2.1461Y-3.9146
X2.1461Y-4.0646
X1.6821Y-3.4769
X0.9697Y-4.7811
X0.9697Y-4.9311
T5
X1.4217Y-4.7571
X1.4217Y-4.8571
X1.5217Y-4.7571
X1.5217Y-4.8571
X1.6217Y-4.7571
X1.6217Y-4.8571
X1.7217Y-4.7571
X1.7217Y-4.8571
X1.8217Y-4.7571
X1.8217Y-4.8571
T6
X1.9894Y-2.0564
X2.0858Y-1.9415
X2.1823Y-1.8266
X1.337Y-1.8709
X1.337Y-2.0209
X1.337Y-2.1709
T7
X1.58Y-1.79
X1.58Y-3.76
T0
M30
