G04 #@! TF.GenerationSoftware,KiCad,Pcbnew,(5.1.2-1)-1*
G04 #@! TF.CreationDate,2022-08-10T14:13:14-04:00*
G04 #@! TF.ProjectId,TR909 Snare Drum,54523930-3920-4536-9e61-726520447275,rev?*
G04 #@! TF.SameCoordinates,Original*
G04 #@! TF.FileFunction,Soldermask,Bot*
G04 #@! TF.FilePolarity,Negative*
%FSLAX46Y46*%
G04 Gerber Fmt 4.6, Leading zero omitted, Abs format (unit mm)*
G04 Created by KiCad (PCBNEW (5.1.2-1)-1) date 2022-08-10 14:13:14*
%MOMM*%
%LPD*%
G04 APERTURE LIST*
%ADD10C,0.100000*%
G04 APERTURE END LIST*
D10*
G36*
X25009393Y-123999304D02*
G01*
X25246101Y-124097352D01*
X25246103Y-124097353D01*
X25459135Y-124239696D01*
X25640304Y-124420865D01*
X25782647Y-124633897D01*
X25782648Y-124633899D01*
X25880696Y-124870607D01*
X25930680Y-125121893D01*
X25930680Y-125378107D01*
X25880696Y-125629393D01*
X25797185Y-125831005D01*
X25782647Y-125866103D01*
X25640304Y-126079135D01*
X25459135Y-126260304D01*
X25246103Y-126402647D01*
X25246102Y-126402648D01*
X25246101Y-126402648D01*
X25009393Y-126500696D01*
X24758107Y-126550680D01*
X24501893Y-126550680D01*
X24250607Y-126500696D01*
X24013899Y-126402648D01*
X24013898Y-126402648D01*
X24013897Y-126402647D01*
X23800865Y-126260304D01*
X23619696Y-126079135D01*
X23477353Y-125866103D01*
X23462815Y-125831005D01*
X23379304Y-125629393D01*
X23329320Y-125378107D01*
X23329320Y-125121893D01*
X23379304Y-124870607D01*
X23477352Y-124633899D01*
X23477353Y-124633897D01*
X23619696Y-124420865D01*
X23800865Y-124239696D01*
X24013897Y-124097353D01*
X24013899Y-124097352D01*
X24250607Y-123999304D01*
X24501893Y-123949320D01*
X24758107Y-123949320D01*
X25009393Y-123999304D01*
X25009393Y-123999304D01*
G37*
G36*
X57929393Y-123889304D02*
G01*
X58166101Y-123987352D01*
X58166103Y-123987353D01*
X58379135Y-124129696D01*
X58560304Y-124310865D01*
X58696930Y-124515341D01*
X58702648Y-124523899D01*
X58800696Y-124760607D01*
X58850680Y-125011893D01*
X58850680Y-125268107D01*
X58800696Y-125519393D01*
X58715672Y-125724659D01*
X58702647Y-125756103D01*
X58560304Y-125969135D01*
X58379135Y-126150304D01*
X58166103Y-126292647D01*
X58166102Y-126292648D01*
X58166101Y-126292648D01*
X57929393Y-126390696D01*
X57678107Y-126440680D01*
X57421893Y-126440680D01*
X57170607Y-126390696D01*
X56933899Y-126292648D01*
X56933898Y-126292648D01*
X56933897Y-126292647D01*
X56720865Y-126150304D01*
X56539696Y-125969135D01*
X56397353Y-125756103D01*
X56384328Y-125724659D01*
X56299304Y-125519393D01*
X56249320Y-125268107D01*
X56249320Y-125011893D01*
X56299304Y-124760607D01*
X56397352Y-124523899D01*
X56403070Y-124515341D01*
X56539696Y-124310865D01*
X56720865Y-124129696D01*
X56933897Y-123987353D01*
X56933899Y-123987352D01*
X57170607Y-123889304D01*
X57421893Y-123839320D01*
X57678107Y-123839320D01*
X57929393Y-123889304D01*
X57929393Y-123889304D01*
G37*
G36*
X28726823Y-124281313D02*
G01*
X28887242Y-124329976D01*
X29019906Y-124400886D01*
X29035078Y-124408996D01*
X29164659Y-124515341D01*
X29271004Y-124644922D01*
X29271005Y-124644924D01*
X29350024Y-124792758D01*
X29398687Y-124953177D01*
X29415117Y-125120000D01*
X29398687Y-125286823D01*
X29350024Y-125447242D01*
X29279114Y-125579906D01*
X29271004Y-125595078D01*
X29164659Y-125724659D01*
X29035078Y-125831004D01*
X29035076Y-125831005D01*
X28887242Y-125910024D01*
X28726823Y-125958687D01*
X28601804Y-125971000D01*
X28518196Y-125971000D01*
X28393177Y-125958687D01*
X28232758Y-125910024D01*
X28084924Y-125831005D01*
X28084922Y-125831004D01*
X27955341Y-125724659D01*
X27848996Y-125595078D01*
X27840886Y-125579906D01*
X27769976Y-125447242D01*
X27721313Y-125286823D01*
X27704883Y-125120000D01*
X27721313Y-124953177D01*
X27769976Y-124792758D01*
X27848995Y-124644924D01*
X27848996Y-124644922D01*
X27955341Y-124515341D01*
X28084922Y-124408996D01*
X28100094Y-124400886D01*
X28232758Y-124329976D01*
X28393177Y-124281313D01*
X28518196Y-124269000D01*
X28601804Y-124269000D01*
X28726823Y-124281313D01*
X28726823Y-124281313D01*
G37*
G36*
X53946823Y-124211313D02*
G01*
X54107242Y-124259976D01*
X54202450Y-124310866D01*
X54255078Y-124338996D01*
X54384659Y-124445341D01*
X54491004Y-124574922D01*
X54491005Y-124574924D01*
X54570024Y-124722758D01*
X54618687Y-124883177D01*
X54635117Y-125050000D01*
X54618687Y-125216823D01*
X54570024Y-125377242D01*
X54532610Y-125447239D01*
X54491004Y-125525078D01*
X54384659Y-125654659D01*
X54255078Y-125761004D01*
X54255076Y-125761005D01*
X54107242Y-125840024D01*
X53946823Y-125888687D01*
X53821804Y-125901000D01*
X53738196Y-125901000D01*
X53613177Y-125888687D01*
X53452758Y-125840024D01*
X53304924Y-125761005D01*
X53304922Y-125761004D01*
X53175341Y-125654659D01*
X53068996Y-125525078D01*
X53027390Y-125447239D01*
X52989976Y-125377242D01*
X52941313Y-125216823D01*
X52924883Y-125050000D01*
X52941313Y-124883177D01*
X52989976Y-124722758D01*
X53068995Y-124574924D01*
X53068996Y-124574922D01*
X53175341Y-124445341D01*
X53304922Y-124338996D01*
X53357550Y-124310866D01*
X53452758Y-124259976D01*
X53613177Y-124211313D01*
X53738196Y-124199000D01*
X53821804Y-124199000D01*
X53946823Y-124211313D01*
X53946823Y-124211313D01*
G37*
G36*
X46449294Y-122468633D02*
G01*
X46621695Y-122520931D01*
X46780583Y-122605858D01*
X46919849Y-122720151D01*
X47034142Y-122859417D01*
X47119069Y-123018305D01*
X47171367Y-123190706D01*
X47189025Y-123370000D01*
X47171367Y-123549294D01*
X47119069Y-123721695D01*
X47034142Y-123880583D01*
X46919849Y-124019849D01*
X46780583Y-124134142D01*
X46621695Y-124219069D01*
X46449294Y-124271367D01*
X46314931Y-124284600D01*
X46225069Y-124284600D01*
X46090706Y-124271367D01*
X45918305Y-124219069D01*
X45759417Y-124134142D01*
X45620151Y-124019849D01*
X45505858Y-123880583D01*
X45420931Y-123721695D01*
X45368633Y-123549294D01*
X45350975Y-123370000D01*
X45368633Y-123190706D01*
X45420931Y-123018305D01*
X45505858Y-122859417D01*
X45620151Y-122720151D01*
X45759417Y-122605858D01*
X45918305Y-122520931D01*
X46090706Y-122468633D01*
X46225069Y-122455400D01*
X46314931Y-122455400D01*
X46449294Y-122468633D01*
X46449294Y-122468633D01*
G37*
G36*
X43909294Y-122468633D02*
G01*
X44081695Y-122520931D01*
X44240583Y-122605858D01*
X44379849Y-122720151D01*
X44494142Y-122859417D01*
X44579069Y-123018305D01*
X44631367Y-123190706D01*
X44649025Y-123370000D01*
X44631367Y-123549294D01*
X44579069Y-123721695D01*
X44494142Y-123880583D01*
X44379849Y-124019849D01*
X44240583Y-124134142D01*
X44081695Y-124219069D01*
X43909294Y-124271367D01*
X43774931Y-124284600D01*
X43685069Y-124284600D01*
X43550706Y-124271367D01*
X43378305Y-124219069D01*
X43219417Y-124134142D01*
X43080151Y-124019849D01*
X42965858Y-123880583D01*
X42880931Y-123721695D01*
X42828633Y-123549294D01*
X42810975Y-123370000D01*
X42828633Y-123190706D01*
X42880931Y-123018305D01*
X42965858Y-122859417D01*
X43080151Y-122720151D01*
X43219417Y-122605858D01*
X43378305Y-122520931D01*
X43550706Y-122468633D01*
X43685069Y-122455400D01*
X43774931Y-122455400D01*
X43909294Y-122468633D01*
X43909294Y-122468633D01*
G37*
G36*
X41369294Y-122468633D02*
G01*
X41541695Y-122520931D01*
X41700583Y-122605858D01*
X41839849Y-122720151D01*
X41954142Y-122859417D01*
X42039069Y-123018305D01*
X42091367Y-123190706D01*
X42109025Y-123370000D01*
X42091367Y-123549294D01*
X42039069Y-123721695D01*
X41954142Y-123880583D01*
X41839849Y-124019849D01*
X41700583Y-124134142D01*
X41541695Y-124219069D01*
X41369294Y-124271367D01*
X41234931Y-124284600D01*
X41145069Y-124284600D01*
X41010706Y-124271367D01*
X40838305Y-124219069D01*
X40679417Y-124134142D01*
X40540151Y-124019849D01*
X40425858Y-123880583D01*
X40340931Y-123721695D01*
X40288633Y-123549294D01*
X40270975Y-123370000D01*
X40288633Y-123190706D01*
X40340931Y-123018305D01*
X40425858Y-122859417D01*
X40540151Y-122720151D01*
X40679417Y-122605858D01*
X40838305Y-122520931D01*
X41010706Y-122468633D01*
X41145069Y-122455400D01*
X41234931Y-122455400D01*
X41369294Y-122468633D01*
X41369294Y-122468633D01*
G37*
G36*
X38829294Y-122468633D02*
G01*
X39001695Y-122520931D01*
X39160583Y-122605858D01*
X39299849Y-122720151D01*
X39414142Y-122859417D01*
X39499069Y-123018305D01*
X39551367Y-123190706D01*
X39569025Y-123370000D01*
X39551367Y-123549294D01*
X39499069Y-123721695D01*
X39414142Y-123880583D01*
X39299849Y-124019849D01*
X39160583Y-124134142D01*
X39001695Y-124219069D01*
X38829294Y-124271367D01*
X38694931Y-124284600D01*
X38605069Y-124284600D01*
X38470706Y-124271367D01*
X38298305Y-124219069D01*
X38139417Y-124134142D01*
X38000151Y-124019849D01*
X37885858Y-123880583D01*
X37800931Y-123721695D01*
X37748633Y-123549294D01*
X37730975Y-123370000D01*
X37748633Y-123190706D01*
X37800931Y-123018305D01*
X37885858Y-122859417D01*
X38000151Y-122720151D01*
X38139417Y-122605858D01*
X38298305Y-122520931D01*
X38470706Y-122468633D01*
X38605069Y-122455400D01*
X38694931Y-122455400D01*
X38829294Y-122468633D01*
X38829294Y-122468633D01*
G37*
G36*
X37024600Y-124284600D02*
G01*
X35195400Y-124284600D01*
X35195400Y-122455400D01*
X37024600Y-122455400D01*
X37024600Y-124284600D01*
X37024600Y-124284600D01*
G37*
G36*
X28808228Y-121761703D02*
G01*
X28963100Y-121825853D01*
X29102481Y-121918985D01*
X29221015Y-122037519D01*
X29314147Y-122176900D01*
X29378297Y-122331772D01*
X29411000Y-122496184D01*
X29411000Y-122663816D01*
X29378297Y-122828228D01*
X29314147Y-122983100D01*
X29221015Y-123122481D01*
X29102481Y-123241015D01*
X28963100Y-123334147D01*
X28808228Y-123398297D01*
X28643816Y-123431000D01*
X28476184Y-123431000D01*
X28311772Y-123398297D01*
X28156900Y-123334147D01*
X28017519Y-123241015D01*
X27898985Y-123122481D01*
X27805853Y-122983100D01*
X27741703Y-122828228D01*
X27709000Y-122663816D01*
X27709000Y-122496184D01*
X27741703Y-122331772D01*
X27805853Y-122176900D01*
X27898985Y-122037519D01*
X28017519Y-121918985D01*
X28156900Y-121825853D01*
X28311772Y-121761703D01*
X28476184Y-121729000D01*
X28643816Y-121729000D01*
X28808228Y-121761703D01*
X28808228Y-121761703D01*
G37*
G36*
X54028228Y-121691703D02*
G01*
X54183100Y-121755853D01*
X54322481Y-121848985D01*
X54441015Y-121967519D01*
X54534147Y-122106900D01*
X54598297Y-122261772D01*
X54631000Y-122426184D01*
X54631000Y-122593816D01*
X54598297Y-122758228D01*
X54534147Y-122913100D01*
X54441015Y-123052481D01*
X54322481Y-123171015D01*
X54183100Y-123264147D01*
X54028228Y-123328297D01*
X53863816Y-123361000D01*
X53696184Y-123361000D01*
X53531772Y-123328297D01*
X53376900Y-123264147D01*
X53237519Y-123171015D01*
X53118985Y-123052481D01*
X53025853Y-122913100D01*
X52961703Y-122758228D01*
X52929000Y-122593816D01*
X52929000Y-122426184D01*
X52961703Y-122261772D01*
X53025853Y-122106900D01*
X53118985Y-121967519D01*
X53237519Y-121848985D01*
X53376900Y-121755853D01*
X53531772Y-121691703D01*
X53696184Y-121659000D01*
X53863816Y-121659000D01*
X54028228Y-121691703D01*
X54028228Y-121691703D01*
G37*
G36*
X25930680Y-122740680D02*
G01*
X23329320Y-122740680D01*
X23329320Y-120139320D01*
X25930680Y-120139320D01*
X25930680Y-122740680D01*
X25930680Y-122740680D01*
G37*
G36*
X58850680Y-122630680D02*
G01*
X56249320Y-122630680D01*
X56249320Y-120029320D01*
X58850680Y-120029320D01*
X58850680Y-122630680D01*
X58850680Y-122630680D01*
G37*
G36*
X46449294Y-119928633D02*
G01*
X46621695Y-119980931D01*
X46780583Y-120065858D01*
X46919849Y-120180151D01*
X47034142Y-120319417D01*
X47119069Y-120478305D01*
X47171367Y-120650706D01*
X47189025Y-120830000D01*
X47171367Y-121009294D01*
X47119069Y-121181695D01*
X47034142Y-121340583D01*
X46919849Y-121479849D01*
X46780583Y-121594142D01*
X46621695Y-121679069D01*
X46449294Y-121731367D01*
X46314931Y-121744600D01*
X46225069Y-121744600D01*
X46090706Y-121731367D01*
X45918305Y-121679069D01*
X45759417Y-121594142D01*
X45620151Y-121479849D01*
X45505858Y-121340583D01*
X45420931Y-121181695D01*
X45368633Y-121009294D01*
X45350975Y-120830000D01*
X45368633Y-120650706D01*
X45420931Y-120478305D01*
X45505858Y-120319417D01*
X45620151Y-120180151D01*
X45759417Y-120065858D01*
X45918305Y-119980931D01*
X46090706Y-119928633D01*
X46225069Y-119915400D01*
X46314931Y-119915400D01*
X46449294Y-119928633D01*
X46449294Y-119928633D01*
G37*
G36*
X36289294Y-119928633D02*
G01*
X36461695Y-119980931D01*
X36620583Y-120065858D01*
X36759849Y-120180151D01*
X36874142Y-120319417D01*
X36959069Y-120478305D01*
X37011367Y-120650706D01*
X37029025Y-120830000D01*
X37011367Y-121009294D01*
X36959069Y-121181695D01*
X36874142Y-121340583D01*
X36759849Y-121479849D01*
X36620583Y-121594142D01*
X36461695Y-121679069D01*
X36289294Y-121731367D01*
X36154931Y-121744600D01*
X36065069Y-121744600D01*
X35930706Y-121731367D01*
X35758305Y-121679069D01*
X35599417Y-121594142D01*
X35460151Y-121479849D01*
X35345858Y-121340583D01*
X35260931Y-121181695D01*
X35208633Y-121009294D01*
X35190975Y-120830000D01*
X35208633Y-120650706D01*
X35260931Y-120478305D01*
X35345858Y-120319417D01*
X35460151Y-120180151D01*
X35599417Y-120065858D01*
X35758305Y-119980931D01*
X35930706Y-119928633D01*
X36065069Y-119915400D01*
X36154931Y-119915400D01*
X36289294Y-119928633D01*
X36289294Y-119928633D01*
G37*
G36*
X38829294Y-119928633D02*
G01*
X39001695Y-119980931D01*
X39160583Y-120065858D01*
X39299849Y-120180151D01*
X39414142Y-120319417D01*
X39499069Y-120478305D01*
X39551367Y-120650706D01*
X39569025Y-120830000D01*
X39551367Y-121009294D01*
X39499069Y-121181695D01*
X39414142Y-121340583D01*
X39299849Y-121479849D01*
X39160583Y-121594142D01*
X39001695Y-121679069D01*
X38829294Y-121731367D01*
X38694931Y-121744600D01*
X38605069Y-121744600D01*
X38470706Y-121731367D01*
X38298305Y-121679069D01*
X38139417Y-121594142D01*
X38000151Y-121479849D01*
X37885858Y-121340583D01*
X37800931Y-121181695D01*
X37748633Y-121009294D01*
X37730975Y-120830000D01*
X37748633Y-120650706D01*
X37800931Y-120478305D01*
X37885858Y-120319417D01*
X38000151Y-120180151D01*
X38139417Y-120065858D01*
X38298305Y-119980931D01*
X38470706Y-119928633D01*
X38605069Y-119915400D01*
X38694931Y-119915400D01*
X38829294Y-119928633D01*
X38829294Y-119928633D01*
G37*
G36*
X41369294Y-119928633D02*
G01*
X41541695Y-119980931D01*
X41700583Y-120065858D01*
X41839849Y-120180151D01*
X41954142Y-120319417D01*
X42039069Y-120478305D01*
X42091367Y-120650706D01*
X42109025Y-120830000D01*
X42091367Y-121009294D01*
X42039069Y-121181695D01*
X41954142Y-121340583D01*
X41839849Y-121479849D01*
X41700583Y-121594142D01*
X41541695Y-121679069D01*
X41369294Y-121731367D01*
X41234931Y-121744600D01*
X41145069Y-121744600D01*
X41010706Y-121731367D01*
X40838305Y-121679069D01*
X40679417Y-121594142D01*
X40540151Y-121479849D01*
X40425858Y-121340583D01*
X40340931Y-121181695D01*
X40288633Y-121009294D01*
X40270975Y-120830000D01*
X40288633Y-120650706D01*
X40340931Y-120478305D01*
X40425858Y-120319417D01*
X40540151Y-120180151D01*
X40679417Y-120065858D01*
X40838305Y-119980931D01*
X41010706Y-119928633D01*
X41145069Y-119915400D01*
X41234931Y-119915400D01*
X41369294Y-119928633D01*
X41369294Y-119928633D01*
G37*
G36*
X43909294Y-119928633D02*
G01*
X44081695Y-119980931D01*
X44240583Y-120065858D01*
X44379849Y-120180151D01*
X44494142Y-120319417D01*
X44579069Y-120478305D01*
X44631367Y-120650706D01*
X44649025Y-120830000D01*
X44631367Y-121009294D01*
X44579069Y-121181695D01*
X44494142Y-121340583D01*
X44379849Y-121479849D01*
X44240583Y-121594142D01*
X44081695Y-121679069D01*
X43909294Y-121731367D01*
X43774931Y-121744600D01*
X43685069Y-121744600D01*
X43550706Y-121731367D01*
X43378305Y-121679069D01*
X43219417Y-121594142D01*
X43080151Y-121479849D01*
X42965858Y-121340583D01*
X42880931Y-121181695D01*
X42828633Y-121009294D01*
X42810975Y-120830000D01*
X42828633Y-120650706D01*
X42880931Y-120478305D01*
X42965858Y-120319417D01*
X43080151Y-120180151D01*
X43219417Y-120065858D01*
X43378305Y-119980931D01*
X43550706Y-119928633D01*
X43685069Y-119915400D01*
X43774931Y-119915400D01*
X43909294Y-119928633D01*
X43909294Y-119928633D01*
G37*
G36*
X47150682Y-114369543D02*
G01*
X45540457Y-115720682D01*
X44189318Y-114110457D01*
X45799543Y-112759318D01*
X47150682Y-114369543D01*
X47150682Y-114369543D01*
G37*
G36*
X49664603Y-109928708D02*
G01*
X49767538Y-109938846D01*
X49965652Y-109998944D01*
X49965655Y-109998945D01*
X50062481Y-110050700D01*
X50148235Y-110096536D01*
X50308271Y-110227874D01*
X50439609Y-110387910D01*
X50485445Y-110473664D01*
X50537200Y-110570490D01*
X50537201Y-110570493D01*
X50597299Y-110768607D01*
X50617591Y-110974639D01*
X50597299Y-111180671D01*
X50537201Y-111378785D01*
X50537200Y-111378788D01*
X50485445Y-111475614D01*
X50439609Y-111561368D01*
X50308271Y-111721404D01*
X50148235Y-111852742D01*
X50062481Y-111898578D01*
X49965655Y-111950333D01*
X49965652Y-111950334D01*
X49767538Y-112010432D01*
X49664603Y-112020570D01*
X49613137Y-112025639D01*
X49509875Y-112025639D01*
X49458409Y-112020570D01*
X49355474Y-112010432D01*
X49157360Y-111950334D01*
X49157357Y-111950333D01*
X49060531Y-111898578D01*
X48974777Y-111852742D01*
X48814741Y-111721404D01*
X48683403Y-111561368D01*
X48637567Y-111475614D01*
X48585812Y-111378788D01*
X48585811Y-111378785D01*
X48525713Y-111180671D01*
X48505421Y-110974639D01*
X48525713Y-110768607D01*
X48585811Y-110570493D01*
X48585812Y-110570490D01*
X48637567Y-110473664D01*
X48683403Y-110387910D01*
X48814741Y-110227874D01*
X48974777Y-110096536D01*
X49060531Y-110050700D01*
X49157357Y-109998945D01*
X49157360Y-109998944D01*
X49355474Y-109938846D01*
X49458409Y-109928708D01*
X49509875Y-109923639D01*
X49613137Y-109923639D01*
X49664603Y-109928708D01*
X49664603Y-109928708D01*
G37*
G36*
X46170556Y-108130232D02*
G01*
X46207803Y-108142424D01*
X46241946Y-108161643D01*
X46271689Y-108187158D01*
X46295882Y-108217986D01*
X46313596Y-108252938D01*
X46325813Y-108296622D01*
X46454089Y-109024114D01*
X46457550Y-109069342D01*
X46452859Y-109108244D01*
X46440667Y-109145491D01*
X46421448Y-109179634D01*
X46395932Y-109209378D01*
X46365105Y-109233571D01*
X46330155Y-109251283D01*
X46286469Y-109263501D01*
X45657458Y-109374412D01*
X45612230Y-109377873D01*
X45573328Y-109373182D01*
X45536081Y-109360990D01*
X45501938Y-109341771D01*
X45472195Y-109316256D01*
X45448002Y-109285428D01*
X45430288Y-109250476D01*
X45418071Y-109206792D01*
X45289795Y-108479300D01*
X45286334Y-108434072D01*
X45291025Y-108395170D01*
X45303217Y-108357923D01*
X45322436Y-108323780D01*
X45347952Y-108294036D01*
X45378779Y-108269843D01*
X45413729Y-108252131D01*
X45457415Y-108239913D01*
X46086426Y-108129002D01*
X46131654Y-108125541D01*
X46170556Y-108130232D01*
X46170556Y-108130232D01*
G37*
G36*
X45866672Y-106406818D02*
G01*
X45903919Y-106419010D01*
X45938062Y-106438229D01*
X45967805Y-106463744D01*
X45991998Y-106494572D01*
X46009712Y-106529524D01*
X46021929Y-106573208D01*
X46150205Y-107300700D01*
X46153666Y-107345928D01*
X46148975Y-107384830D01*
X46136783Y-107422077D01*
X46117564Y-107456220D01*
X46092048Y-107485964D01*
X46061221Y-107510157D01*
X46026271Y-107527869D01*
X45982585Y-107540087D01*
X45353574Y-107650998D01*
X45308346Y-107654459D01*
X45269444Y-107649768D01*
X45232197Y-107637576D01*
X45198054Y-107618357D01*
X45168311Y-107592842D01*
X45144118Y-107562014D01*
X45126404Y-107527062D01*
X45114187Y-107483378D01*
X44985911Y-106755886D01*
X44982450Y-106710658D01*
X44987141Y-106671756D01*
X44999333Y-106634509D01*
X45018552Y-106600366D01*
X45044068Y-106570622D01*
X45074895Y-106546429D01*
X45109845Y-106528717D01*
X45153531Y-106516499D01*
X45782542Y-106405588D01*
X45827770Y-106402127D01*
X45866672Y-106406818D01*
X45866672Y-106406818D01*
G37*
G36*
X47614071Y-105469816D02*
G01*
X47650434Y-105484416D01*
X47683253Y-105505830D01*
X47715671Y-105537549D01*
X47751895Y-105580719D01*
X47751900Y-105580724D01*
X48090006Y-105983663D01*
X48090009Y-105983667D01*
X48126231Y-106026835D01*
X48151844Y-106064277D01*
X48167231Y-106100308D01*
X48175294Y-106138655D01*
X48175722Y-106177844D01*
X48168497Y-106216358D01*
X48153897Y-106252722D01*
X48132484Y-106285538D01*
X48100763Y-106317959D01*
X47534874Y-106792796D01*
X47497435Y-106818407D01*
X47461397Y-106833797D01*
X47423054Y-106841859D01*
X47383865Y-106842287D01*
X47345351Y-106835062D01*
X47308988Y-106820462D01*
X47276169Y-106799048D01*
X47243751Y-106767329D01*
X47207527Y-106724159D01*
X47207522Y-106724154D01*
X46869416Y-106321215D01*
X46869413Y-106321211D01*
X46833191Y-106278043D01*
X46807578Y-106240601D01*
X46792191Y-106204570D01*
X46784128Y-106166223D01*
X46783700Y-106127034D01*
X46790925Y-106088520D01*
X46805525Y-106052156D01*
X46826938Y-106019340D01*
X46858659Y-105986919D01*
X47424548Y-105512082D01*
X47461987Y-105486471D01*
X47498025Y-105471081D01*
X47536368Y-105463019D01*
X47575557Y-105462591D01*
X47614071Y-105469816D01*
X47614071Y-105469816D01*
G37*
G36*
X48954649Y-104344938D02*
G01*
X48991012Y-104359538D01*
X49023831Y-104380952D01*
X49056249Y-104412671D01*
X49092473Y-104455841D01*
X49092478Y-104455846D01*
X49430584Y-104858785D01*
X49430587Y-104858789D01*
X49466809Y-104901957D01*
X49492422Y-104939399D01*
X49507809Y-104975430D01*
X49515872Y-105013777D01*
X49516300Y-105052966D01*
X49509075Y-105091480D01*
X49494475Y-105127844D01*
X49473062Y-105160660D01*
X49441341Y-105193081D01*
X48875452Y-105667918D01*
X48838013Y-105693529D01*
X48801975Y-105708919D01*
X48763632Y-105716981D01*
X48724443Y-105717409D01*
X48685929Y-105710184D01*
X48649566Y-105695584D01*
X48616747Y-105674170D01*
X48584329Y-105642451D01*
X48548105Y-105599281D01*
X48548100Y-105599276D01*
X48209994Y-105196337D01*
X48209991Y-105196333D01*
X48173769Y-105153165D01*
X48148156Y-105115723D01*
X48132769Y-105079692D01*
X48124706Y-105041345D01*
X48124278Y-105002156D01*
X48131503Y-104963642D01*
X48146103Y-104927278D01*
X48167516Y-104894462D01*
X48199237Y-104862041D01*
X48765126Y-104387204D01*
X48802565Y-104361593D01*
X48838603Y-104346203D01*
X48876946Y-104338141D01*
X48916135Y-104337713D01*
X48954649Y-104344938D01*
X48954649Y-104344938D01*
G37*
G36*
X54889393Y-101989304D02*
G01*
X55126101Y-102087352D01*
X55126103Y-102087353D01*
X55339135Y-102229696D01*
X55520304Y-102410865D01*
X55662647Y-102623897D01*
X55662648Y-102623899D01*
X55760696Y-102860607D01*
X55810680Y-103111893D01*
X55810680Y-103368107D01*
X55760696Y-103619393D01*
X55662648Y-103856101D01*
X55662647Y-103856103D01*
X55520304Y-104069135D01*
X55339135Y-104250304D01*
X55126103Y-104392647D01*
X55126102Y-104392648D01*
X55126101Y-104392648D01*
X54889393Y-104490696D01*
X54638107Y-104540680D01*
X54381893Y-104540680D01*
X54130607Y-104490696D01*
X53893899Y-104392648D01*
X53893898Y-104392648D01*
X53893897Y-104392647D01*
X53680865Y-104250304D01*
X53499696Y-104069135D01*
X53357353Y-103856103D01*
X53357352Y-103856101D01*
X53259304Y-103619393D01*
X53209320Y-103368107D01*
X53209320Y-103111893D01*
X53259304Y-102860607D01*
X53357352Y-102623899D01*
X53357353Y-102623897D01*
X53499696Y-102410865D01*
X53680865Y-102229696D01*
X53893897Y-102087353D01*
X53893899Y-102087352D01*
X54130607Y-101989304D01*
X54381893Y-101939320D01*
X54638107Y-101939320D01*
X54889393Y-101989304D01*
X54889393Y-101989304D01*
G37*
G36*
X55810680Y-100730680D02*
G01*
X53209320Y-100730680D01*
X53209320Y-98129320D01*
X55810680Y-98129320D01*
X55810680Y-100730680D01*
X55810680Y-100730680D01*
G37*
G36*
X47063840Y-97940221D02*
G01*
X47207550Y-97999748D01*
X47300550Y-98038270D01*
X47513582Y-98180613D01*
X47694751Y-98361782D01*
X47837094Y-98574814D01*
X47837095Y-98574816D01*
X47935143Y-98811524D01*
X47985127Y-99062810D01*
X47985127Y-99319024D01*
X47935143Y-99570310D01*
X47837095Y-99807018D01*
X47837094Y-99807020D01*
X47694751Y-100020052D01*
X47513582Y-100201221D01*
X47300550Y-100343564D01*
X47300549Y-100343565D01*
X47300548Y-100343565D01*
X47063840Y-100441613D01*
X46812554Y-100491597D01*
X46556340Y-100491597D01*
X46305054Y-100441613D01*
X46068346Y-100343565D01*
X46068345Y-100343565D01*
X46068344Y-100343564D01*
X45855312Y-100201221D01*
X45674143Y-100020052D01*
X45531800Y-99807020D01*
X45531799Y-99807018D01*
X45433751Y-99570310D01*
X45383767Y-99319024D01*
X45383767Y-99062810D01*
X45433751Y-98811524D01*
X45531799Y-98574816D01*
X45531800Y-98574814D01*
X45674143Y-98361782D01*
X45855312Y-98180613D01*
X46068344Y-98038270D01*
X46161344Y-97999748D01*
X46305054Y-97940221D01*
X46556340Y-97890237D01*
X46812554Y-97890237D01*
X47063840Y-97940221D01*
X47063840Y-97940221D01*
G37*
G36*
X41167787Y-92089462D02*
G01*
X41330145Y-92156713D01*
X41814029Y-92357144D01*
X42395631Y-92745758D01*
X42890242Y-93240369D01*
X43278856Y-93821971D01*
X43375548Y-94055407D01*
X43546538Y-94468213D01*
X43683000Y-95154256D01*
X43683000Y-95853744D01*
X43546538Y-96539787D01*
X43546537Y-96539789D01*
X43278856Y-97186029D01*
X42890242Y-97767631D01*
X42395631Y-98262242D01*
X41814029Y-98650856D01*
X41357068Y-98840135D01*
X41167787Y-98918538D01*
X40481744Y-99055000D01*
X39782256Y-99055000D01*
X39096213Y-98918538D01*
X38906932Y-98840135D01*
X38449971Y-98650856D01*
X37868369Y-98262242D01*
X37373758Y-97767631D01*
X36985144Y-97186029D01*
X36717463Y-96539789D01*
X36717462Y-96539787D01*
X36581000Y-95853744D01*
X36581000Y-95154256D01*
X36717462Y-94468213D01*
X36888452Y-94055407D01*
X36985144Y-93821971D01*
X37373758Y-93240369D01*
X37868369Y-92745758D01*
X38449971Y-92357144D01*
X38933855Y-92156713D01*
X39096213Y-92089462D01*
X39782256Y-91953000D01*
X40481744Y-91953000D01*
X41167787Y-92089462D01*
X41167787Y-92089462D01*
G37*
G36*
X25673123Y-97322968D02*
G01*
X25710370Y-97335160D01*
X25744513Y-97354379D01*
X25774257Y-97379895D01*
X25798450Y-97410722D01*
X25816162Y-97445672D01*
X25828380Y-97489358D01*
X25939291Y-98118369D01*
X25942752Y-98163597D01*
X25938061Y-98202499D01*
X25925869Y-98239746D01*
X25906650Y-98273889D01*
X25881135Y-98303632D01*
X25850307Y-98327825D01*
X25815355Y-98345539D01*
X25771671Y-98357756D01*
X25044179Y-98486032D01*
X24998951Y-98489493D01*
X24960049Y-98484802D01*
X24922802Y-98472610D01*
X24888659Y-98453391D01*
X24858915Y-98427875D01*
X24834722Y-98397048D01*
X24817010Y-98362098D01*
X24804792Y-98318412D01*
X24693881Y-97689401D01*
X24690420Y-97644173D01*
X24695111Y-97605271D01*
X24707303Y-97568024D01*
X24726522Y-97533881D01*
X24752037Y-97504138D01*
X24782865Y-97479945D01*
X24817817Y-97462231D01*
X24861501Y-97450014D01*
X25588993Y-97321738D01*
X25634221Y-97318277D01*
X25673123Y-97322968D01*
X25673123Y-97322968D01*
G37*
G36*
X27396537Y-97019084D02*
G01*
X27433784Y-97031276D01*
X27467927Y-97050495D01*
X27497671Y-97076011D01*
X27521864Y-97106838D01*
X27539576Y-97141788D01*
X27551794Y-97185474D01*
X27662705Y-97814485D01*
X27666166Y-97859713D01*
X27661475Y-97898615D01*
X27649283Y-97935862D01*
X27630064Y-97970005D01*
X27604549Y-97999748D01*
X27573721Y-98023941D01*
X27538769Y-98041655D01*
X27495085Y-98053872D01*
X26767593Y-98182148D01*
X26722365Y-98185609D01*
X26683463Y-98180918D01*
X26646216Y-98168726D01*
X26612073Y-98149507D01*
X26582329Y-98123991D01*
X26558136Y-98093164D01*
X26540424Y-98058214D01*
X26528206Y-98014528D01*
X26417295Y-97385517D01*
X26413834Y-97340289D01*
X26418525Y-97301387D01*
X26430717Y-97264140D01*
X26449936Y-97229997D01*
X26475451Y-97200254D01*
X26506279Y-97176061D01*
X26541231Y-97158347D01*
X26584915Y-97146130D01*
X27312407Y-97017854D01*
X27357635Y-97014393D01*
X27396537Y-97019084D01*
X27396537Y-97019084D01*
G37*
G36*
X53324499Y-94233445D02*
G01*
X53361995Y-94244820D01*
X53396554Y-94263292D01*
X53426847Y-94288153D01*
X53451708Y-94318446D01*
X53470180Y-94353005D01*
X53481555Y-94390501D01*
X53486000Y-94435638D01*
X53486000Y-95174362D01*
X53481555Y-95219499D01*
X53470180Y-95256995D01*
X53451708Y-95291554D01*
X53426847Y-95321847D01*
X53396554Y-95346708D01*
X53361995Y-95365180D01*
X53324499Y-95376555D01*
X53279362Y-95381000D01*
X52640638Y-95381000D01*
X52595501Y-95376555D01*
X52558005Y-95365180D01*
X52523446Y-95346708D01*
X52493153Y-95321847D01*
X52468292Y-95291554D01*
X52449820Y-95256995D01*
X52438445Y-95219499D01*
X52434000Y-95174362D01*
X52434000Y-94435638D01*
X52438445Y-94390501D01*
X52449820Y-94353005D01*
X52468292Y-94318446D01*
X52493153Y-94288153D01*
X52523446Y-94263292D01*
X52558005Y-94244820D01*
X52595501Y-94233445D01*
X52640638Y-94229000D01*
X53279362Y-94229000D01*
X53324499Y-94233445D01*
X53324499Y-94233445D01*
G37*
G36*
X26933375Y-93166744D02*
G01*
X26970053Y-93180549D01*
X27003329Y-93201241D01*
X27031931Y-93228030D01*
X27058353Y-93264901D01*
X27200133Y-93510472D01*
X27379977Y-93821971D01*
X27427707Y-93904643D01*
X27446428Y-93945960D01*
X27455326Y-93984124D01*
X27456608Y-94023287D01*
X27450224Y-94061954D01*
X27436421Y-94098629D01*
X27415731Y-94131901D01*
X27388942Y-94160503D01*
X27352069Y-94186926D01*
X26798927Y-94506283D01*
X26757614Y-94525002D01*
X26719450Y-94533900D01*
X26680283Y-94535182D01*
X26641625Y-94528800D01*
X26604947Y-94514995D01*
X26571671Y-94494303D01*
X26543069Y-94467514D01*
X26516647Y-94430643D01*
X26281461Y-94023287D01*
X26175470Y-93839706D01*
X26175468Y-93839702D01*
X26147293Y-93790901D01*
X26128572Y-93749584D01*
X26119674Y-93711420D01*
X26118392Y-93672257D01*
X26124776Y-93633590D01*
X26138579Y-93596915D01*
X26159269Y-93563643D01*
X26186058Y-93535041D01*
X26222931Y-93508618D01*
X26776073Y-93189261D01*
X26817386Y-93170542D01*
X26855550Y-93161644D01*
X26894717Y-93160362D01*
X26933375Y-93166744D01*
X26933375Y-93166744D01*
G37*
G36*
X53324499Y-92483445D02*
G01*
X53361995Y-92494820D01*
X53396554Y-92513292D01*
X53426847Y-92538153D01*
X53451708Y-92568446D01*
X53470180Y-92603005D01*
X53481555Y-92640501D01*
X53486000Y-92685638D01*
X53486000Y-93424362D01*
X53481555Y-93469499D01*
X53470180Y-93506995D01*
X53451708Y-93541554D01*
X53426847Y-93571847D01*
X53396554Y-93596708D01*
X53361995Y-93615180D01*
X53324499Y-93626555D01*
X53279362Y-93631000D01*
X52640638Y-93631000D01*
X52595501Y-93626555D01*
X52558005Y-93615180D01*
X52523446Y-93596708D01*
X52493153Y-93571847D01*
X52468292Y-93541554D01*
X52449820Y-93506995D01*
X52438445Y-93469499D01*
X52434000Y-93424362D01*
X52434000Y-92685638D01*
X52438445Y-92640501D01*
X52449820Y-92603005D01*
X52468292Y-92568446D01*
X52493153Y-92538153D01*
X52523446Y-92513292D01*
X52558005Y-92494820D01*
X52595501Y-92483445D01*
X52640638Y-92479000D01*
X53279362Y-92479000D01*
X53324499Y-92483445D01*
X53324499Y-92483445D01*
G37*
G36*
X26058375Y-91651200D02*
G01*
X26095053Y-91665005D01*
X26128329Y-91685697D01*
X26156931Y-91712486D01*
X26183353Y-91749357D01*
X26325133Y-91994928D01*
X26487039Y-92275357D01*
X26552707Y-92389099D01*
X26571428Y-92430416D01*
X26580326Y-92468580D01*
X26581608Y-92507743D01*
X26575224Y-92546410D01*
X26561421Y-92583085D01*
X26540731Y-92616357D01*
X26513942Y-92644959D01*
X26477069Y-92671382D01*
X25923927Y-92990739D01*
X25882614Y-93009458D01*
X25844450Y-93018356D01*
X25805283Y-93019638D01*
X25766625Y-93013256D01*
X25729947Y-92999451D01*
X25696671Y-92978759D01*
X25668069Y-92951970D01*
X25641647Y-92915099D01*
X25401424Y-92499020D01*
X25300470Y-92324162D01*
X25300468Y-92324158D01*
X25272293Y-92275357D01*
X25253572Y-92234040D01*
X25244674Y-92195876D01*
X25243392Y-92156713D01*
X25249776Y-92118046D01*
X25263579Y-92081371D01*
X25284269Y-92048099D01*
X25311058Y-92019497D01*
X25347931Y-91993074D01*
X25901073Y-91673717D01*
X25942386Y-91654998D01*
X25980550Y-91646100D01*
X26019717Y-91644818D01*
X26058375Y-91651200D01*
X26058375Y-91651200D01*
G37*
G36*
X43103579Y-87063157D02*
G01*
X43340287Y-87161205D01*
X43340289Y-87161206D01*
X43553321Y-87303549D01*
X43734490Y-87484718D01*
X43876833Y-87697750D01*
X43876834Y-87697752D01*
X43974882Y-87934460D01*
X44024866Y-88185746D01*
X44024866Y-88441960D01*
X43974882Y-88693246D01*
X43876834Y-88929954D01*
X43876833Y-88929956D01*
X43734490Y-89142988D01*
X43553321Y-89324157D01*
X43340289Y-89466500D01*
X43340288Y-89466501D01*
X43340287Y-89466501D01*
X43103579Y-89564549D01*
X42852293Y-89614533D01*
X42596079Y-89614533D01*
X42344793Y-89564549D01*
X42108085Y-89466501D01*
X42108084Y-89466501D01*
X42108083Y-89466500D01*
X41895051Y-89324157D01*
X41713882Y-89142988D01*
X41571539Y-88929956D01*
X41571538Y-88929954D01*
X41473490Y-88693246D01*
X41423506Y-88441960D01*
X41423506Y-88185746D01*
X41473490Y-87934460D01*
X41571538Y-87697752D01*
X41571539Y-87697750D01*
X41713882Y-87484718D01*
X41895051Y-87303549D01*
X42108083Y-87161206D01*
X42108085Y-87161205D01*
X42344793Y-87063157D01*
X42596079Y-87013173D01*
X42852293Y-87013173D01*
X43103579Y-87063157D01*
X43103579Y-87063157D01*
G37*
G36*
X49649499Y-87358445D02*
G01*
X49686995Y-87369820D01*
X49721554Y-87388292D01*
X49751847Y-87413153D01*
X49776708Y-87443446D01*
X49795180Y-87478005D01*
X49806555Y-87515501D01*
X49811000Y-87560638D01*
X49811000Y-88199362D01*
X49806555Y-88244499D01*
X49795180Y-88281995D01*
X49776708Y-88316554D01*
X49751847Y-88346847D01*
X49721554Y-88371708D01*
X49686995Y-88390180D01*
X49649499Y-88401555D01*
X49604362Y-88406000D01*
X48865638Y-88406000D01*
X48820501Y-88401555D01*
X48783005Y-88390180D01*
X48748446Y-88371708D01*
X48718153Y-88346847D01*
X48693292Y-88316554D01*
X48674820Y-88281995D01*
X48663445Y-88244499D01*
X48659000Y-88199362D01*
X48659000Y-87560638D01*
X48663445Y-87515501D01*
X48674820Y-87478005D01*
X48693292Y-87443446D01*
X48718153Y-87413153D01*
X48748446Y-87388292D01*
X48783005Y-87369820D01*
X48820501Y-87358445D01*
X48865638Y-87354000D01*
X49604362Y-87354000D01*
X49649499Y-87358445D01*
X49649499Y-87358445D01*
G37*
G36*
X51399499Y-87358445D02*
G01*
X51436995Y-87369820D01*
X51471554Y-87388292D01*
X51501847Y-87413153D01*
X51526708Y-87443446D01*
X51545180Y-87478005D01*
X51556555Y-87515501D01*
X51561000Y-87560638D01*
X51561000Y-88199362D01*
X51556555Y-88244499D01*
X51545180Y-88281995D01*
X51526708Y-88316554D01*
X51501847Y-88346847D01*
X51471554Y-88371708D01*
X51436995Y-88390180D01*
X51399499Y-88401555D01*
X51354362Y-88406000D01*
X50615638Y-88406000D01*
X50570501Y-88401555D01*
X50533005Y-88390180D01*
X50498446Y-88371708D01*
X50468153Y-88346847D01*
X50443292Y-88316554D01*
X50424820Y-88281995D01*
X50413445Y-88244499D01*
X50409000Y-88199362D01*
X50409000Y-87560638D01*
X50413445Y-87515501D01*
X50424820Y-87478005D01*
X50443292Y-87443446D01*
X50468153Y-87413153D01*
X50498446Y-87388292D01*
X50533005Y-87369820D01*
X50570501Y-87358445D01*
X50615638Y-87354000D01*
X51354362Y-87354000D01*
X51399499Y-87358445D01*
X51399499Y-87358445D01*
G37*
G36*
X41309393Y-70909304D02*
G01*
X41546101Y-71007352D01*
X41546103Y-71007353D01*
X41759135Y-71149696D01*
X41940304Y-71330865D01*
X42082647Y-71543897D01*
X42082648Y-71543899D01*
X42180696Y-71780607D01*
X42230680Y-72031893D01*
X42230680Y-72288107D01*
X42180696Y-72539393D01*
X42082648Y-72776101D01*
X42082647Y-72776103D01*
X41940304Y-72989135D01*
X41759135Y-73170304D01*
X41546103Y-73312647D01*
X41546102Y-73312648D01*
X41546101Y-73312648D01*
X41309393Y-73410696D01*
X41058107Y-73460680D01*
X40801893Y-73460680D01*
X40550607Y-73410696D01*
X40313899Y-73312648D01*
X40313898Y-73312648D01*
X40313897Y-73312647D01*
X40100865Y-73170304D01*
X39919696Y-72989135D01*
X39777353Y-72776103D01*
X39777352Y-72776101D01*
X39679304Y-72539393D01*
X39629320Y-72288107D01*
X39629320Y-72031893D01*
X39679304Y-71780607D01*
X39777352Y-71543899D01*
X39777353Y-71543897D01*
X39919696Y-71330865D01*
X40100865Y-71149696D01*
X40313897Y-71007353D01*
X40313899Y-71007352D01*
X40550607Y-70909304D01*
X40801893Y-70859320D01*
X41058107Y-70859320D01*
X41309393Y-70909304D01*
X41309393Y-70909304D01*
G37*
G36*
X36364499Y-68963445D02*
G01*
X36401995Y-68974820D01*
X36436554Y-68993292D01*
X36466847Y-69018153D01*
X36491708Y-69048446D01*
X36510180Y-69083005D01*
X36521555Y-69120501D01*
X36526000Y-69165638D01*
X36526000Y-69904362D01*
X36521555Y-69949499D01*
X36510180Y-69986995D01*
X36491708Y-70021554D01*
X36466847Y-70051847D01*
X36436554Y-70076708D01*
X36401995Y-70095180D01*
X36364499Y-70106555D01*
X36319362Y-70111000D01*
X35680638Y-70111000D01*
X35635501Y-70106555D01*
X35598005Y-70095180D01*
X35563446Y-70076708D01*
X35533153Y-70051847D01*
X35508292Y-70021554D01*
X35489820Y-69986995D01*
X35478445Y-69949499D01*
X35474000Y-69904362D01*
X35474000Y-69165638D01*
X35478445Y-69120501D01*
X35489820Y-69083005D01*
X35508292Y-69048446D01*
X35533153Y-69018153D01*
X35563446Y-68993292D01*
X35598005Y-68974820D01*
X35635501Y-68963445D01*
X35680638Y-68959000D01*
X36319362Y-68959000D01*
X36364499Y-68963445D01*
X36364499Y-68963445D01*
G37*
G36*
X31939393Y-66589304D02*
G01*
X32176101Y-66687352D01*
X32176103Y-66687353D01*
X32389135Y-66829696D01*
X32570304Y-67010865D01*
X32702693Y-67209000D01*
X32712648Y-67223899D01*
X32810696Y-67460607D01*
X32860680Y-67711893D01*
X32860680Y-67968107D01*
X32810696Y-68219393D01*
X32758593Y-68345180D01*
X32712647Y-68456103D01*
X32570304Y-68669135D01*
X32389135Y-68850304D01*
X32176103Y-68992647D01*
X32176102Y-68992648D01*
X32176101Y-68992648D01*
X31939393Y-69090696D01*
X31688107Y-69140680D01*
X31431893Y-69140680D01*
X31180607Y-69090696D01*
X30943899Y-68992648D01*
X30943898Y-68992648D01*
X30943897Y-68992647D01*
X30730865Y-68850304D01*
X30549696Y-68669135D01*
X30407353Y-68456103D01*
X30361407Y-68345180D01*
X30309304Y-68219393D01*
X30259320Y-67968107D01*
X30259320Y-67711893D01*
X30309304Y-67460607D01*
X30407352Y-67223899D01*
X30417307Y-67209000D01*
X30549696Y-67010865D01*
X30730865Y-66829696D01*
X30943897Y-66687353D01*
X30943899Y-66687352D01*
X31180607Y-66589304D01*
X31431893Y-66539320D01*
X31688107Y-66539320D01*
X31939393Y-66589304D01*
X31939393Y-66589304D01*
G37*
G36*
X36364499Y-67213445D02*
G01*
X36401995Y-67224820D01*
X36436554Y-67243292D01*
X36466847Y-67268153D01*
X36491708Y-67298446D01*
X36510180Y-67333005D01*
X36521555Y-67370501D01*
X36526000Y-67415638D01*
X36526000Y-68154362D01*
X36521555Y-68199499D01*
X36510180Y-68236995D01*
X36491708Y-68271554D01*
X36466847Y-68301847D01*
X36436554Y-68326708D01*
X36401995Y-68345180D01*
X36364499Y-68356555D01*
X36319362Y-68361000D01*
X35680638Y-68361000D01*
X35635501Y-68356555D01*
X35598005Y-68345180D01*
X35563446Y-68326708D01*
X35533153Y-68301847D01*
X35508292Y-68271554D01*
X35489820Y-68236995D01*
X35478445Y-68199499D01*
X35474000Y-68154362D01*
X35474000Y-67415638D01*
X35478445Y-67370501D01*
X35489820Y-67333005D01*
X35508292Y-67298446D01*
X35533153Y-67268153D01*
X35563446Y-67243292D01*
X35598005Y-67224820D01*
X35635501Y-67213445D01*
X35680638Y-67209000D01*
X36319362Y-67209000D01*
X36364499Y-67213445D01*
X36364499Y-67213445D01*
G37*
G36*
X40214450Y-64791644D02*
G01*
X40252614Y-64800542D01*
X40293927Y-64819261D01*
X40847074Y-65138621D01*
X40883940Y-65165039D01*
X40910729Y-65193641D01*
X40931421Y-65226917D01*
X40945226Y-65263595D01*
X40951608Y-65302253D01*
X40950326Y-65341420D01*
X40941428Y-65379584D01*
X40922707Y-65420901D01*
X40894532Y-65469702D01*
X40894530Y-65469706D01*
X40833184Y-65575960D01*
X40553352Y-66060645D01*
X40526932Y-66097513D01*
X40498327Y-66124305D01*
X40465055Y-66144995D01*
X40428380Y-66158798D01*
X40389713Y-66165182D01*
X40350550Y-66163900D01*
X40312386Y-66155002D01*
X40271073Y-66136283D01*
X39717926Y-65816923D01*
X39681060Y-65790505D01*
X39654271Y-65761903D01*
X39633579Y-65728627D01*
X39619774Y-65691949D01*
X39613392Y-65653291D01*
X39614674Y-65614124D01*
X39623572Y-65575960D01*
X39642293Y-65534643D01*
X39684987Y-65460695D01*
X39870936Y-65138621D01*
X40011648Y-64894899D01*
X40038068Y-64858031D01*
X40066673Y-64831239D01*
X40099945Y-64810549D01*
X40136620Y-64796746D01*
X40175287Y-64790362D01*
X40214450Y-64791644D01*
X40214450Y-64791644D01*
G37*
G36*
X32249393Y-62959304D02*
G01*
X32486101Y-63057352D01*
X32486103Y-63057353D01*
X32699135Y-63199696D01*
X32880304Y-63380865D01*
X33022647Y-63593897D01*
X33022648Y-63593899D01*
X33120696Y-63830607D01*
X33170680Y-64081893D01*
X33170680Y-64338107D01*
X33120696Y-64589393D01*
X33025481Y-64819261D01*
X33022647Y-64826103D01*
X32880304Y-65039135D01*
X32699135Y-65220304D01*
X32486103Y-65362647D01*
X32486102Y-65362648D01*
X32486101Y-65362648D01*
X32249393Y-65460696D01*
X31998107Y-65510680D01*
X31741893Y-65510680D01*
X31490607Y-65460696D01*
X31253899Y-65362648D01*
X31253898Y-65362648D01*
X31253897Y-65362647D01*
X31040865Y-65220304D01*
X30859696Y-65039135D01*
X30717353Y-64826103D01*
X30714519Y-64819261D01*
X30619304Y-64589393D01*
X30569320Y-64338107D01*
X30569320Y-64081893D01*
X30619304Y-63830607D01*
X30717352Y-63593899D01*
X30717353Y-63593897D01*
X30859696Y-63380865D01*
X31040865Y-63199696D01*
X31253897Y-63057353D01*
X31253899Y-63057352D01*
X31490607Y-62959304D01*
X31741893Y-62909320D01*
X31998107Y-62909320D01*
X32249393Y-62959304D01*
X32249393Y-62959304D01*
G37*
G36*
X41089450Y-63276100D02*
G01*
X41127614Y-63284998D01*
X41168927Y-63303717D01*
X41722074Y-63623077D01*
X41758940Y-63649495D01*
X41785729Y-63678097D01*
X41806421Y-63711373D01*
X41820226Y-63748051D01*
X41826608Y-63786709D01*
X41825326Y-63825876D01*
X41816428Y-63864040D01*
X41797707Y-63905357D01*
X41769532Y-63954158D01*
X41769530Y-63954162D01*
X41708184Y-64060416D01*
X41428352Y-64545101D01*
X41401932Y-64581969D01*
X41373327Y-64608761D01*
X41340055Y-64629451D01*
X41303380Y-64643254D01*
X41264713Y-64649638D01*
X41225550Y-64648356D01*
X41187386Y-64639458D01*
X41146073Y-64620739D01*
X40592926Y-64301379D01*
X40556060Y-64274961D01*
X40529271Y-64246359D01*
X40508579Y-64213083D01*
X40494774Y-64176405D01*
X40488392Y-64137747D01*
X40489674Y-64098580D01*
X40498572Y-64060416D01*
X40517293Y-64019099D01*
X40581898Y-63907200D01*
X40745936Y-63623077D01*
X40886648Y-63379355D01*
X40913068Y-63342487D01*
X40941673Y-63315695D01*
X40974945Y-63295005D01*
X41011620Y-63281202D01*
X41050287Y-63274818D01*
X41089450Y-63276100D01*
X41089450Y-63276100D01*
G37*
G36*
X34819393Y-59319304D02*
G01*
X35056101Y-59417352D01*
X35056103Y-59417353D01*
X35269135Y-59559696D01*
X35450304Y-59740865D01*
X35510065Y-59830304D01*
X35592648Y-59953899D01*
X35690696Y-60190607D01*
X35740680Y-60441893D01*
X35740680Y-60698107D01*
X35690696Y-60949393D01*
X35592648Y-61186101D01*
X35592647Y-61186103D01*
X35450304Y-61399135D01*
X35269135Y-61580304D01*
X35056103Y-61722647D01*
X35056102Y-61722648D01*
X35056101Y-61722648D01*
X34819393Y-61820696D01*
X34568107Y-61870680D01*
X34311893Y-61870680D01*
X34060607Y-61820696D01*
X33823899Y-61722648D01*
X33823898Y-61722648D01*
X33823897Y-61722647D01*
X33610865Y-61580304D01*
X33429696Y-61399135D01*
X33287353Y-61186103D01*
X33287352Y-61186101D01*
X33189304Y-60949393D01*
X33139320Y-60698107D01*
X33139320Y-60441893D01*
X33189304Y-60190607D01*
X33287352Y-59953899D01*
X33369935Y-59830304D01*
X33429696Y-59740865D01*
X33610865Y-59559696D01*
X33823897Y-59417353D01*
X33823899Y-59417352D01*
X34060607Y-59319304D01*
X34311893Y-59269320D01*
X34568107Y-59269320D01*
X34819393Y-59319304D01*
X34819393Y-59319304D01*
G37*
G36*
X50039393Y-57569304D02*
G01*
X50276101Y-57667352D01*
X50276103Y-57667353D01*
X50489135Y-57809696D01*
X50670304Y-57990865D01*
X50812647Y-58203897D01*
X50812648Y-58203899D01*
X50910696Y-58440607D01*
X50960680Y-58691893D01*
X50960680Y-58948107D01*
X50910696Y-59199393D01*
X50812648Y-59436101D01*
X50812647Y-59436103D01*
X50670304Y-59649135D01*
X50489135Y-59830304D01*
X50276103Y-59972647D01*
X50276102Y-59972648D01*
X50276101Y-59972648D01*
X50039393Y-60070696D01*
X49788107Y-60120680D01*
X49531893Y-60120680D01*
X49280607Y-60070696D01*
X49043899Y-59972648D01*
X49043898Y-59972648D01*
X49043897Y-59972647D01*
X48830865Y-59830304D01*
X48649696Y-59649135D01*
X48507353Y-59436103D01*
X48507352Y-59436101D01*
X48409304Y-59199393D01*
X48359320Y-58948107D01*
X48359320Y-58691893D01*
X48409304Y-58440607D01*
X48507352Y-58203899D01*
X48507353Y-58203897D01*
X48649696Y-57990865D01*
X48830865Y-57809696D01*
X49043897Y-57667353D01*
X49043899Y-57667352D01*
X49280607Y-57569304D01*
X49531893Y-57519320D01*
X49788107Y-57519320D01*
X50039393Y-57569304D01*
X50039393Y-57569304D01*
G37*
G36*
X35510870Y-56690870D02*
G01*
X32409130Y-56690870D01*
X32409130Y-53589130D01*
X35510870Y-53589130D01*
X35510870Y-56690870D01*
X35510870Y-56690870D01*
G37*
G36*
X52716370Y-52040589D02*
G01*
X50722610Y-54416659D01*
X48346540Y-52422899D01*
X50340300Y-50046829D01*
X52716370Y-52040589D01*
X52716370Y-52040589D01*
G37*
G36*
X34312497Y-49818863D02*
G01*
X34412372Y-49838729D01*
X34529279Y-49887154D01*
X34694611Y-49955636D01*
X34948621Y-50125360D01*
X35164640Y-50341379D01*
X35334364Y-50595389D01*
X35451271Y-50877629D01*
X35498319Y-51114152D01*
X35510870Y-51177253D01*
X35510870Y-51482747D01*
X35451271Y-51782372D01*
X35402846Y-51899279D01*
X35334364Y-52064611D01*
X35164640Y-52318621D01*
X34948621Y-52534640D01*
X34694611Y-52704364D01*
X34529279Y-52772846D01*
X34412372Y-52821271D01*
X34312497Y-52841137D01*
X34112749Y-52880870D01*
X33807251Y-52880870D01*
X33607503Y-52841137D01*
X33507628Y-52821271D01*
X33390721Y-52772846D01*
X33225389Y-52704364D01*
X32971379Y-52534640D01*
X32755360Y-52318621D01*
X32585636Y-52064611D01*
X32517154Y-51899279D01*
X32468729Y-51782372D01*
X32409130Y-51482747D01*
X32409130Y-51177253D01*
X32421682Y-51114152D01*
X32468729Y-50877629D01*
X32585636Y-50595389D01*
X32755360Y-50341379D01*
X32971379Y-50125360D01*
X33225389Y-49955636D01*
X33390721Y-49887154D01*
X33507628Y-49838729D01*
X33607503Y-49818863D01*
X33807251Y-49779130D01*
X34112749Y-49779130D01*
X34312497Y-49818863D01*
X34312497Y-49818863D01*
G37*
G36*
X57399183Y-49247353D02*
G01*
X57635891Y-49345401D01*
X57635893Y-49345402D01*
X57848925Y-49487745D01*
X58030094Y-49668914D01*
X58143560Y-49838729D01*
X58172438Y-49881948D01*
X58270486Y-50118656D01*
X58320470Y-50369942D01*
X58320470Y-50626156D01*
X58270486Y-50877442D01*
X58172438Y-51114150D01*
X58172437Y-51114152D01*
X58030094Y-51327184D01*
X57848925Y-51508353D01*
X57635893Y-51650696D01*
X57635892Y-51650697D01*
X57635891Y-51650697D01*
X57399183Y-51748745D01*
X57147897Y-51798729D01*
X56891683Y-51798729D01*
X56640397Y-51748745D01*
X56403689Y-51650697D01*
X56403688Y-51650697D01*
X56403687Y-51650696D01*
X56190655Y-51508353D01*
X56009486Y-51327184D01*
X55867143Y-51114152D01*
X55867142Y-51114150D01*
X55769094Y-50877442D01*
X55719110Y-50626156D01*
X55719110Y-50369942D01*
X55769094Y-50118656D01*
X55867142Y-49881948D01*
X55896020Y-49838729D01*
X56009486Y-49668914D01*
X56190655Y-49487745D01*
X56403687Y-49345402D01*
X56403689Y-49345401D01*
X56640397Y-49247353D01*
X56891683Y-49197369D01*
X57147897Y-49197369D01*
X57399183Y-49247353D01*
X57399183Y-49247353D01*
G37*
G36*
X53332973Y-47801978D02*
G01*
X53432848Y-47821844D01*
X53549755Y-47870269D01*
X53715087Y-47938751D01*
X53969097Y-48108475D01*
X54185116Y-48324494D01*
X54354840Y-48578504D01*
X54369069Y-48612856D01*
X54471747Y-48860743D01*
X54491613Y-48960618D01*
X54531346Y-49160366D01*
X54531346Y-49465864D01*
X54471747Y-49765486D01*
X54354840Y-50047726D01*
X54185116Y-50301736D01*
X53969097Y-50517755D01*
X53715087Y-50687479D01*
X53549755Y-50755961D01*
X53432848Y-50804386D01*
X53332973Y-50824252D01*
X53133225Y-50863985D01*
X52827727Y-50863985D01*
X52627979Y-50824252D01*
X52528104Y-50804386D01*
X52411197Y-50755961D01*
X52245865Y-50687479D01*
X51991855Y-50517755D01*
X51775836Y-50301736D01*
X51606112Y-50047726D01*
X51489205Y-49765486D01*
X51429606Y-49465864D01*
X51429606Y-49160366D01*
X51469339Y-48960618D01*
X51489205Y-48860743D01*
X51591883Y-48612856D01*
X51606112Y-48578504D01*
X51775836Y-48324494D01*
X51991855Y-48108475D01*
X52245865Y-47938751D01*
X52411197Y-47870269D01*
X52528104Y-47821844D01*
X52627979Y-47801978D01*
X52827727Y-47762245D01*
X53133225Y-47762245D01*
X53332973Y-47801978D01*
X53332973Y-47801978D01*
G37*
G36*
X34312497Y-46008863D02*
G01*
X34412372Y-46028729D01*
X34529279Y-46077154D01*
X34694611Y-46145636D01*
X34948621Y-46315360D01*
X35164640Y-46531379D01*
X35334364Y-46785389D01*
X35402846Y-46950721D01*
X35451271Y-47067628D01*
X35467264Y-47148029D01*
X35510870Y-47367251D01*
X35510870Y-47672749D01*
X35491754Y-47768849D01*
X35457959Y-47938751D01*
X35451271Y-47972371D01*
X35334364Y-48254611D01*
X35164640Y-48508621D01*
X34948621Y-48724640D01*
X34694611Y-48894364D01*
X34529279Y-48962846D01*
X34412372Y-49011271D01*
X34383570Y-49017000D01*
X34112749Y-49070870D01*
X33807251Y-49070870D01*
X33536430Y-49017000D01*
X33507628Y-49011271D01*
X33390721Y-48962846D01*
X33225389Y-48894364D01*
X32971379Y-48724640D01*
X32755360Y-48508621D01*
X32585636Y-48254611D01*
X32468729Y-47972371D01*
X32462042Y-47938751D01*
X32428246Y-47768849D01*
X32409130Y-47672749D01*
X32409130Y-47367251D01*
X32452736Y-47148029D01*
X32468729Y-47067628D01*
X32517154Y-46950721D01*
X32585636Y-46785389D01*
X32755360Y-46531379D01*
X32971379Y-46315360D01*
X33225389Y-46145636D01*
X33390721Y-46077154D01*
X33507628Y-46028729D01*
X33607503Y-46008863D01*
X33807251Y-45969130D01*
X34112749Y-45969130D01*
X34312497Y-46008863D01*
X34312497Y-46008863D01*
G37*
G36*
X41167787Y-42051462D02*
G01*
X41167790Y-42051463D01*
X41167789Y-42051463D01*
X41814029Y-42319144D01*
X42395631Y-42707758D01*
X42890242Y-43202369D01*
X43278856Y-43783971D01*
X43380192Y-44028618D01*
X43546538Y-44430213D01*
X43683000Y-45116256D01*
X43683000Y-45815744D01*
X43546538Y-46501787D01*
X43527714Y-46547232D01*
X43278856Y-47148029D01*
X42890242Y-47729631D01*
X42395631Y-48224242D01*
X41814029Y-48612856D01*
X41544158Y-48724640D01*
X41167787Y-48880538D01*
X40481744Y-49017000D01*
X39782256Y-49017000D01*
X39096213Y-48880538D01*
X38719842Y-48724640D01*
X38449971Y-48612856D01*
X37868369Y-48224242D01*
X37373758Y-47729631D01*
X36985144Y-47148029D01*
X36736286Y-46547232D01*
X36717462Y-46501787D01*
X36581000Y-45815744D01*
X36581000Y-45116256D01*
X36717462Y-44430213D01*
X36883808Y-44028618D01*
X36985144Y-43783971D01*
X37373758Y-43202369D01*
X37868369Y-42707758D01*
X38449971Y-42319144D01*
X39096211Y-42051463D01*
X39096210Y-42051463D01*
X39096213Y-42051462D01*
X39782256Y-41915000D01*
X40481744Y-41915000D01*
X41167787Y-42051462D01*
X41167787Y-42051462D01*
G37*
G36*
X55781994Y-44883348D02*
G01*
X55881869Y-44903214D01*
X55996372Y-44950643D01*
X56164108Y-45020121D01*
X56418118Y-45189845D01*
X56634137Y-45405864D01*
X56803861Y-45659874D01*
X56920768Y-45942114D01*
X56980367Y-46241736D01*
X56980367Y-46547234D01*
X56920768Y-46846856D01*
X56803861Y-47129096D01*
X56634137Y-47383106D01*
X56418118Y-47599125D01*
X56164108Y-47768849D01*
X56036166Y-47821844D01*
X55881869Y-47885756D01*
X55781994Y-47905622D01*
X55582246Y-47945355D01*
X55276748Y-47945355D01*
X55077000Y-47905622D01*
X54977125Y-47885756D01*
X54822828Y-47821844D01*
X54694886Y-47768849D01*
X54440876Y-47599125D01*
X54224857Y-47383106D01*
X54055133Y-47129096D01*
X53938226Y-46846856D01*
X53878627Y-46547234D01*
X53878627Y-46241736D01*
X53938226Y-45942114D01*
X54055133Y-45659874D01*
X54224857Y-45405864D01*
X54440876Y-45189845D01*
X54694886Y-45020121D01*
X54862622Y-44950643D01*
X54977125Y-44903214D01*
X55077000Y-44883348D01*
X55276748Y-44843615D01*
X55582246Y-44843615D01*
X55781994Y-44883348D01*
X55781994Y-44883348D01*
G37*
G36*
X51723375Y-43686744D02*
G01*
X51760053Y-43700549D01*
X51793329Y-43721241D01*
X51821931Y-43748030D01*
X51848353Y-43784901D01*
X51990133Y-44030472D01*
X52152039Y-44310901D01*
X52217707Y-44424643D01*
X52236428Y-44465960D01*
X52245326Y-44504124D01*
X52246608Y-44543287D01*
X52240224Y-44581954D01*
X52226421Y-44618629D01*
X52205731Y-44651901D01*
X52178942Y-44680503D01*
X52142069Y-44706926D01*
X51588927Y-45026283D01*
X51547614Y-45045002D01*
X51509450Y-45053900D01*
X51470283Y-45055182D01*
X51431625Y-45048800D01*
X51394947Y-45034995D01*
X51361671Y-45014303D01*
X51333069Y-44987514D01*
X51306647Y-44950643D01*
X51071461Y-44543287D01*
X50965470Y-44359706D01*
X50965468Y-44359702D01*
X50937293Y-44310901D01*
X50918572Y-44269584D01*
X50909674Y-44231420D01*
X50908392Y-44192257D01*
X50914776Y-44153590D01*
X50928579Y-44116915D01*
X50949269Y-44083643D01*
X50976058Y-44055041D01*
X51012931Y-44028618D01*
X51566073Y-43709261D01*
X51607386Y-43690542D01*
X51645550Y-43681644D01*
X51684717Y-43680362D01*
X51723375Y-43686744D01*
X51723375Y-43686744D01*
G37*
G36*
X50848375Y-42171200D02*
G01*
X50885053Y-42185005D01*
X50918329Y-42205697D01*
X50946931Y-42232486D01*
X50973353Y-42269357D01*
X51115133Y-42514928D01*
X51277039Y-42795357D01*
X51342707Y-42909099D01*
X51361428Y-42950416D01*
X51370326Y-42988580D01*
X51371608Y-43027743D01*
X51365224Y-43066410D01*
X51351421Y-43103085D01*
X51330731Y-43136357D01*
X51303942Y-43164959D01*
X51267069Y-43191382D01*
X50713927Y-43510739D01*
X50672614Y-43529458D01*
X50634450Y-43538356D01*
X50595283Y-43539638D01*
X50556625Y-43533256D01*
X50519947Y-43519451D01*
X50486671Y-43498759D01*
X50458069Y-43471970D01*
X50431647Y-43435099D01*
X50196461Y-43027743D01*
X50090470Y-42844162D01*
X50090468Y-42844158D01*
X50062293Y-42795357D01*
X50043572Y-42754040D01*
X50034674Y-42715876D01*
X50033392Y-42676713D01*
X50039776Y-42638046D01*
X50053579Y-42601371D01*
X50074269Y-42568099D01*
X50101058Y-42539497D01*
X50137931Y-42513074D01*
X50691073Y-42193717D01*
X50732386Y-42174998D01*
X50770550Y-42166100D01*
X50809717Y-42164818D01*
X50848375Y-42171200D01*
X50848375Y-42171200D01*
G37*
G36*
X50193375Y-40276744D02*
G01*
X50230053Y-40290549D01*
X50263329Y-40311241D01*
X50291931Y-40338030D01*
X50318353Y-40374901D01*
X50460133Y-40620472D01*
X50622039Y-40900901D01*
X50687707Y-41014643D01*
X50706428Y-41055960D01*
X50715326Y-41094124D01*
X50716608Y-41133287D01*
X50710224Y-41171954D01*
X50696421Y-41208629D01*
X50675731Y-41241901D01*
X50648942Y-41270503D01*
X50612069Y-41296926D01*
X50058927Y-41616283D01*
X50017614Y-41635002D01*
X49979450Y-41643900D01*
X49940283Y-41645182D01*
X49901625Y-41638800D01*
X49864947Y-41624995D01*
X49831671Y-41604303D01*
X49803069Y-41577514D01*
X49776647Y-41540643D01*
X49541461Y-41133287D01*
X49435470Y-40949706D01*
X49435468Y-40949702D01*
X49407293Y-40900901D01*
X49388572Y-40859584D01*
X49379674Y-40821420D01*
X49378392Y-40782257D01*
X49384776Y-40743590D01*
X49398579Y-40706915D01*
X49419269Y-40673643D01*
X49446058Y-40645041D01*
X49482931Y-40618618D01*
X50036073Y-40299261D01*
X50077386Y-40280542D01*
X50115550Y-40271644D01*
X50154717Y-40270362D01*
X50193375Y-40276744D01*
X50193375Y-40276744D01*
G37*
G36*
X49318375Y-38761200D02*
G01*
X49355053Y-38775005D01*
X49388329Y-38795697D01*
X49416931Y-38822486D01*
X49443353Y-38859357D01*
X49585133Y-39104928D01*
X49747039Y-39385357D01*
X49812707Y-39499099D01*
X49831428Y-39540416D01*
X49840326Y-39578580D01*
X49841608Y-39617743D01*
X49835224Y-39656410D01*
X49821421Y-39693085D01*
X49800731Y-39726357D01*
X49773942Y-39754959D01*
X49737069Y-39781382D01*
X49183927Y-40100739D01*
X49142614Y-40119458D01*
X49104450Y-40128356D01*
X49065283Y-40129638D01*
X49026625Y-40123256D01*
X48989947Y-40109451D01*
X48956671Y-40088759D01*
X48928069Y-40061970D01*
X48901647Y-40025099D01*
X48666461Y-39617743D01*
X48560470Y-39434162D01*
X48560468Y-39434158D01*
X48532293Y-39385357D01*
X48513572Y-39344040D01*
X48504674Y-39305876D01*
X48503392Y-39266713D01*
X48509776Y-39228046D01*
X48523579Y-39191371D01*
X48544269Y-39158099D01*
X48571058Y-39129497D01*
X48607931Y-39103074D01*
X49161073Y-38783717D01*
X49202386Y-38764998D01*
X49240550Y-38756100D01*
X49279717Y-38754818D01*
X49318375Y-38761200D01*
X49318375Y-38761200D01*
G37*
G36*
X42549393Y-36459304D02*
G01*
X42786101Y-36557352D01*
X42786103Y-36557353D01*
X42999135Y-36699696D01*
X43180304Y-36880865D01*
X43322647Y-37093897D01*
X43322648Y-37093899D01*
X43420696Y-37330607D01*
X43470680Y-37581893D01*
X43470680Y-37838107D01*
X43420696Y-38089393D01*
X43326645Y-38316452D01*
X43322647Y-38326103D01*
X43180304Y-38539135D01*
X42999135Y-38720304D01*
X42786103Y-38862647D01*
X42786102Y-38862648D01*
X42786101Y-38862648D01*
X42549393Y-38960696D01*
X42298107Y-39010680D01*
X42041893Y-39010680D01*
X41790607Y-38960696D01*
X41553899Y-38862648D01*
X41553898Y-38862648D01*
X41553897Y-38862647D01*
X41340865Y-38720304D01*
X41159696Y-38539135D01*
X41017353Y-38326103D01*
X41013355Y-38316452D01*
X40919304Y-38089393D01*
X40869320Y-37838107D01*
X40869320Y-37581893D01*
X40919304Y-37330607D01*
X41017352Y-37093899D01*
X41017353Y-37093897D01*
X41159696Y-36880865D01*
X41340865Y-36699696D01*
X41553897Y-36557353D01*
X41553899Y-36557352D01*
X41790607Y-36459304D01*
X42041893Y-36409320D01*
X42298107Y-36409320D01*
X42549393Y-36459304D01*
X42549393Y-36459304D01*
G37*
G36*
X30694219Y-37543882D02*
G01*
X30731191Y-37556884D01*
X30764909Y-37576844D01*
X30794085Y-37602999D01*
X30817603Y-37634351D01*
X30837216Y-37675239D01*
X31089878Y-38369419D01*
X31101136Y-38413347D01*
X31103272Y-38452478D01*
X31097734Y-38491267D01*
X31084732Y-38528239D01*
X31064772Y-38561957D01*
X31038615Y-38591136D01*
X31007269Y-38614650D01*
X30966373Y-38634266D01*
X30449243Y-38822486D01*
X30435143Y-38827618D01*
X30366167Y-38852723D01*
X30322236Y-38863982D01*
X30283107Y-38866118D01*
X30244317Y-38860580D01*
X30207345Y-38847578D01*
X30173627Y-38827618D01*
X30144451Y-38801463D01*
X30120933Y-38770111D01*
X30101320Y-38729223D01*
X29848658Y-38035043D01*
X29837400Y-37991115D01*
X29835264Y-37951984D01*
X29840802Y-37913195D01*
X29853804Y-37876223D01*
X29873764Y-37842505D01*
X29899921Y-37813326D01*
X29931267Y-37789812D01*
X29972163Y-37770196D01*
X30495280Y-37579797D01*
X30519403Y-37571017D01*
X30572369Y-37551739D01*
X30616300Y-37540480D01*
X30655429Y-37538344D01*
X30694219Y-37543882D01*
X30694219Y-37543882D01*
G37*
G36*
X30095683Y-35899420D02*
G01*
X30132655Y-35912422D01*
X30166373Y-35932382D01*
X30195549Y-35958537D01*
X30219067Y-35989889D01*
X30238680Y-36030777D01*
X30491342Y-36724957D01*
X30502600Y-36768885D01*
X30504736Y-36808016D01*
X30499198Y-36846805D01*
X30486196Y-36883777D01*
X30466236Y-36917495D01*
X30440079Y-36946674D01*
X30408733Y-36970188D01*
X30367837Y-36989804D01*
X29898315Y-37160696D01*
X29836607Y-37183156D01*
X29767631Y-37208261D01*
X29723700Y-37219520D01*
X29684571Y-37221656D01*
X29645781Y-37216118D01*
X29608809Y-37203116D01*
X29575091Y-37183156D01*
X29545915Y-37157001D01*
X29522397Y-37125649D01*
X29502784Y-37084761D01*
X29250122Y-36390581D01*
X29238864Y-36346653D01*
X29236728Y-36307522D01*
X29242266Y-36268733D01*
X29255268Y-36231761D01*
X29275228Y-36198043D01*
X29301385Y-36168864D01*
X29332731Y-36145350D01*
X29373627Y-36125734D01*
X29896744Y-35935335D01*
X29920867Y-35926555D01*
X29973833Y-35907277D01*
X30017764Y-35896018D01*
X30056893Y-35893882D01*
X30095683Y-35899420D01*
X30095683Y-35899420D01*
G37*
G36*
X54419393Y-34659304D02*
G01*
X54656101Y-34757352D01*
X54656103Y-34757353D01*
X54869135Y-34899696D01*
X55050304Y-35080865D01*
X55162154Y-35248261D01*
X55192648Y-35293899D01*
X55290696Y-35530607D01*
X55340680Y-35781893D01*
X55340680Y-36038107D01*
X55290696Y-36289393D01*
X55220908Y-36457875D01*
X55192647Y-36526103D01*
X55050304Y-36739135D01*
X54869135Y-36920304D01*
X54656103Y-37062647D01*
X54656102Y-37062648D01*
X54656101Y-37062648D01*
X54419393Y-37160696D01*
X54168107Y-37210680D01*
X53911893Y-37210680D01*
X53660607Y-37160696D01*
X53423899Y-37062648D01*
X53423898Y-37062648D01*
X53423897Y-37062647D01*
X53210865Y-36920304D01*
X53029696Y-36739135D01*
X52887353Y-36526103D01*
X52859092Y-36457875D01*
X52789304Y-36289393D01*
X52739320Y-36038107D01*
X52739320Y-35781893D01*
X52789304Y-35530607D01*
X52887352Y-35293899D01*
X52917846Y-35248261D01*
X53029696Y-35080865D01*
X53210865Y-34899696D01*
X53423897Y-34757353D01*
X53423899Y-34757352D01*
X53660607Y-34659304D01*
X53911893Y-34609320D01*
X54168107Y-34609320D01*
X54419393Y-34659304D01*
X54419393Y-34659304D01*
G37*
G36*
X31753700Y-35580480D02*
G01*
X31797631Y-35591739D01*
X31850596Y-35611017D01*
X31850597Y-35611017D01*
X31874720Y-35619797D01*
X32397836Y-35810196D01*
X32438731Y-35829811D01*
X32470081Y-35853328D01*
X32496236Y-35882504D01*
X32516196Y-35916222D01*
X32529198Y-35953194D01*
X32534736Y-35991984D01*
X32532600Y-36031115D01*
X32521342Y-36075043D01*
X32345795Y-36557352D01*
X32293986Y-36699696D01*
X32268681Y-36769219D01*
X32249065Y-36810114D01*
X32225551Y-36841461D01*
X32196372Y-36867618D01*
X32162654Y-36887578D01*
X32125682Y-36900580D01*
X32086893Y-36906118D01*
X32047764Y-36903982D01*
X32003833Y-36892723D01*
X31934858Y-36867618D01*
X31771103Y-36808016D01*
X31403628Y-36674266D01*
X31362733Y-36654651D01*
X31331383Y-36631134D01*
X31305228Y-36601958D01*
X31285268Y-36568240D01*
X31272266Y-36531268D01*
X31266728Y-36492478D01*
X31268864Y-36453347D01*
X31280122Y-36409419D01*
X31482524Y-35853328D01*
X31513506Y-35768205D01*
X31513507Y-35768203D01*
X31532783Y-35715243D01*
X31552399Y-35674348D01*
X31575913Y-35643001D01*
X31605092Y-35616844D01*
X31638810Y-35596884D01*
X31675782Y-35583882D01*
X31714571Y-35578344D01*
X31753700Y-35580480D01*
X31753700Y-35580480D01*
G37*
G36*
X37009393Y-33979304D02*
G01*
X37246101Y-34077352D01*
X37246103Y-34077353D01*
X37459135Y-34219696D01*
X37640304Y-34400865D01*
X37782647Y-34613897D01*
X37782648Y-34613899D01*
X37880696Y-34850607D01*
X37930680Y-35101893D01*
X37930680Y-35358107D01*
X37880696Y-35609393D01*
X37783454Y-35844155D01*
X37782647Y-35846103D01*
X37640304Y-36059135D01*
X37459135Y-36240304D01*
X37246103Y-36382647D01*
X37246102Y-36382648D01*
X37246101Y-36382648D01*
X37009393Y-36480696D01*
X36758107Y-36530680D01*
X36501893Y-36530680D01*
X36250607Y-36480696D01*
X36013899Y-36382648D01*
X36013898Y-36382648D01*
X36013897Y-36382647D01*
X35800865Y-36240304D01*
X35619696Y-36059135D01*
X35477353Y-35846103D01*
X35476546Y-35844155D01*
X35379304Y-35609393D01*
X35329320Y-35358107D01*
X35329320Y-35101893D01*
X35379304Y-34850607D01*
X35477352Y-34613899D01*
X35477353Y-34613897D01*
X35619696Y-34400865D01*
X35800865Y-34219696D01*
X36013897Y-34077353D01*
X36013899Y-34077352D01*
X36250607Y-33979304D01*
X36501893Y-33929320D01*
X36758107Y-33929320D01*
X37009393Y-33979304D01*
X37009393Y-33979304D01*
G37*
G36*
X46908338Y-35002337D02*
G01*
X45477663Y-35828338D01*
X44651662Y-34397663D01*
X46082337Y-33571662D01*
X46908338Y-35002337D01*
X46908338Y-35002337D01*
G37*
G36*
X41699393Y-32789304D02*
G01*
X41936101Y-32887352D01*
X41936103Y-32887353D01*
X42149135Y-33029696D01*
X42330304Y-33210865D01*
X42472647Y-33423897D01*
X42472648Y-33423899D01*
X42570696Y-33660607D01*
X42620680Y-33911893D01*
X42620680Y-34168107D01*
X42570696Y-34419393D01*
X42472648Y-34656101D01*
X42472647Y-34656103D01*
X42330304Y-34869135D01*
X42149135Y-35050304D01*
X41936103Y-35192647D01*
X41936102Y-35192648D01*
X41936101Y-35192648D01*
X41699393Y-35290696D01*
X41448107Y-35340680D01*
X41191893Y-35340680D01*
X40940607Y-35290696D01*
X40703899Y-35192648D01*
X40703898Y-35192648D01*
X40703897Y-35192647D01*
X40490865Y-35050304D01*
X40309696Y-34869135D01*
X40167353Y-34656103D01*
X40167352Y-34656101D01*
X40069304Y-34419393D01*
X40019320Y-34168107D01*
X40019320Y-33911893D01*
X40069304Y-33660607D01*
X40167352Y-33423899D01*
X40167353Y-33423897D01*
X40309696Y-33210865D01*
X40490865Y-33029696D01*
X40703897Y-32887353D01*
X40703899Y-32887352D01*
X40940607Y-32789304D01*
X41191893Y-32739320D01*
X41448107Y-32739320D01*
X41699393Y-32789304D01*
X41699393Y-32789304D01*
G37*
G36*
X32352236Y-33936018D02*
G01*
X32396167Y-33947277D01*
X32449132Y-33966555D01*
X32449133Y-33966555D01*
X32473256Y-33975335D01*
X32996372Y-34165734D01*
X33037267Y-34185349D01*
X33068617Y-34208866D01*
X33094772Y-34238042D01*
X33114732Y-34271760D01*
X33127734Y-34308732D01*
X33133272Y-34347522D01*
X33131136Y-34386653D01*
X33119878Y-34430581D01*
X32949133Y-34899696D01*
X32894762Y-35049080D01*
X32867217Y-35124757D01*
X32847601Y-35165652D01*
X32824087Y-35196999D01*
X32794908Y-35223156D01*
X32761190Y-35243116D01*
X32724218Y-35256118D01*
X32685429Y-35261656D01*
X32646300Y-35259520D01*
X32602369Y-35248261D01*
X32533394Y-35223156D01*
X32375403Y-35165652D01*
X32002164Y-35029804D01*
X31961269Y-35010189D01*
X31929919Y-34986672D01*
X31903764Y-34957496D01*
X31883804Y-34923778D01*
X31870802Y-34886806D01*
X31865264Y-34848016D01*
X31867400Y-34808885D01*
X31878658Y-34764957D01*
X32096759Y-34165734D01*
X32112042Y-34123743D01*
X32112043Y-34123741D01*
X32131319Y-34070781D01*
X32150935Y-34029886D01*
X32174449Y-33998539D01*
X32203628Y-33972382D01*
X32237346Y-33952422D01*
X32274318Y-33939420D01*
X32313107Y-33933882D01*
X32352236Y-33936018D01*
X32352236Y-33936018D01*
G37*
G36*
X43520935Y-29575615D02*
G01*
X43671258Y-29637881D01*
X43806545Y-29728277D01*
X43921596Y-29843328D01*
X44011992Y-29978615D01*
X44074258Y-30128938D01*
X44106000Y-30288519D01*
X44106000Y-30451227D01*
X44074258Y-30610808D01*
X44011992Y-30761131D01*
X43921596Y-30896418D01*
X43806545Y-31011469D01*
X43671258Y-31101865D01*
X43520935Y-31164131D01*
X43361354Y-31195873D01*
X43198646Y-31195873D01*
X43039065Y-31164131D01*
X42888742Y-31101865D01*
X42753455Y-31011469D01*
X42638404Y-30896418D01*
X42548008Y-30761131D01*
X42485742Y-30610808D01*
X42454000Y-30451227D01*
X42454000Y-30288519D01*
X42485742Y-30128938D01*
X42548008Y-29978615D01*
X42638404Y-29843328D01*
X42753455Y-29728277D01*
X42888742Y-29637881D01*
X43039065Y-29575615D01*
X43198646Y-29543873D01*
X43361354Y-29543873D01*
X43520935Y-29575615D01*
X43520935Y-29575615D01*
G37*
G36*
X49101062Y-29240678D02*
G01*
X49251385Y-29302944D01*
X49386672Y-29393340D01*
X49501723Y-29508391D01*
X49592119Y-29643678D01*
X49654385Y-29794001D01*
X49686127Y-29953582D01*
X49686127Y-30116290D01*
X49654385Y-30275871D01*
X49592119Y-30426194D01*
X49501723Y-30561481D01*
X49386672Y-30676532D01*
X49251385Y-30766928D01*
X49101062Y-30829194D01*
X48941481Y-30860936D01*
X48778773Y-30860936D01*
X48619192Y-30829194D01*
X48468869Y-30766928D01*
X48333582Y-30676532D01*
X48218531Y-30561481D01*
X48128135Y-30426194D01*
X48065869Y-30275871D01*
X48034127Y-30116290D01*
X48034127Y-29953582D01*
X48065869Y-29794001D01*
X48128135Y-29643678D01*
X48218531Y-29508391D01*
X48333582Y-29393340D01*
X48468869Y-29302944D01*
X48619192Y-29240678D01*
X48778773Y-29208936D01*
X48941481Y-29208936D01*
X49101062Y-29240678D01*
X49101062Y-29240678D01*
G37*
G36*
X50275937Y-23171313D02*
G01*
X50436356Y-23219976D01*
X50569020Y-23290886D01*
X50584192Y-23298996D01*
X50713773Y-23405341D01*
X50820118Y-23534922D01*
X50820119Y-23534924D01*
X50899138Y-23682758D01*
X50947801Y-23843177D01*
X50964231Y-24010000D01*
X50947801Y-24176823D01*
X50899138Y-24337242D01*
X50828228Y-24469906D01*
X50820118Y-24485078D01*
X50713773Y-24614659D01*
X50584192Y-24721004D01*
X50584190Y-24721005D01*
X50436356Y-24800024D01*
X50275937Y-24848687D01*
X50150918Y-24861000D01*
X50067310Y-24861000D01*
X49942291Y-24848687D01*
X49781872Y-24800024D01*
X49634038Y-24721005D01*
X49634036Y-24721004D01*
X49504455Y-24614659D01*
X49398110Y-24485078D01*
X49390000Y-24469906D01*
X49319090Y-24337242D01*
X49270427Y-24176823D01*
X49253997Y-24010000D01*
X49270427Y-23843177D01*
X49319090Y-23682758D01*
X49398109Y-23534924D01*
X49398110Y-23534922D01*
X49504455Y-23405341D01*
X49634036Y-23298996D01*
X49649208Y-23290886D01*
X49781872Y-23219976D01*
X49942291Y-23171313D01*
X50067310Y-23159000D01*
X50150918Y-23159000D01*
X50275937Y-23171313D01*
X50275937Y-23171313D01*
G37*
G36*
X43758228Y-19381703D02*
G01*
X43913100Y-19445853D01*
X44052481Y-19538985D01*
X44171015Y-19657519D01*
X44264147Y-19796900D01*
X44328297Y-19951772D01*
X44361000Y-20116184D01*
X44361000Y-20283816D01*
X44328297Y-20448228D01*
X44264147Y-20603100D01*
X44171015Y-20742481D01*
X44052481Y-20861015D01*
X43913100Y-20954147D01*
X43758228Y-21018297D01*
X43593816Y-21051000D01*
X43426184Y-21051000D01*
X43261772Y-21018297D01*
X43106900Y-20954147D01*
X42967519Y-20861015D01*
X42848985Y-20742481D01*
X42755853Y-20603100D01*
X42691703Y-20448228D01*
X42659000Y-20283816D01*
X42659000Y-20116184D01*
X42691703Y-19951772D01*
X42755853Y-19796900D01*
X42848985Y-19657519D01*
X42967519Y-19538985D01*
X43106900Y-19445853D01*
X43261772Y-19381703D01*
X43426184Y-19349000D01*
X43593816Y-19349000D01*
X43758228Y-19381703D01*
X43758228Y-19381703D01*
G37*
G36*
X36889393Y-18119304D02*
G01*
X37126101Y-18217352D01*
X37126103Y-18217353D01*
X37339135Y-18359696D01*
X37520304Y-18540865D01*
X37647084Y-18730606D01*
X37662648Y-18753899D01*
X37760696Y-18990607D01*
X37810680Y-19241893D01*
X37810680Y-19498107D01*
X37760696Y-19749393D01*
X37662648Y-19986101D01*
X37662647Y-19986103D01*
X37520304Y-20199135D01*
X37339135Y-20380304D01*
X37126103Y-20522647D01*
X37126102Y-20522648D01*
X37126101Y-20522648D01*
X36889393Y-20620696D01*
X36638107Y-20670680D01*
X36381893Y-20670680D01*
X36130607Y-20620696D01*
X35893899Y-20522648D01*
X35893898Y-20522648D01*
X35893897Y-20522647D01*
X35680865Y-20380304D01*
X35499696Y-20199135D01*
X35357353Y-19986103D01*
X35357352Y-19986101D01*
X35259304Y-19749393D01*
X35209320Y-19498107D01*
X35209320Y-19241893D01*
X35259304Y-18990607D01*
X35357352Y-18753899D01*
X35372916Y-18730606D01*
X35499696Y-18540865D01*
X35680865Y-18359696D01*
X35893897Y-18217353D01*
X35893899Y-18217352D01*
X36130607Y-18119304D01*
X36381893Y-18069320D01*
X36638107Y-18069320D01*
X36889393Y-18119304D01*
X36889393Y-18119304D01*
G37*
G36*
X48719393Y-17859304D02*
G01*
X48956101Y-17957352D01*
X48956103Y-17957353D01*
X49169135Y-18099696D01*
X49350304Y-18280865D01*
X49492647Y-18493897D01*
X49492648Y-18493899D01*
X49590696Y-18730607D01*
X49640680Y-18981893D01*
X49640680Y-19238107D01*
X49590696Y-19489393D01*
X49521055Y-19657520D01*
X49492647Y-19726103D01*
X49350304Y-19939135D01*
X49169135Y-20120304D01*
X48956103Y-20262647D01*
X48956102Y-20262648D01*
X48956101Y-20262648D01*
X48719393Y-20360696D01*
X48468107Y-20410680D01*
X48211893Y-20410680D01*
X47960607Y-20360696D01*
X47723899Y-20262648D01*
X47723898Y-20262648D01*
X47723897Y-20262647D01*
X47510865Y-20120304D01*
X47329696Y-19939135D01*
X47187353Y-19726103D01*
X47158945Y-19657520D01*
X47089304Y-19489393D01*
X47039320Y-19238107D01*
X47039320Y-18981893D01*
X47089304Y-18730607D01*
X47187352Y-18493899D01*
X47187353Y-18493897D01*
X47329696Y-18280865D01*
X47510865Y-18099696D01*
X47723897Y-17957353D01*
X47723899Y-17957352D01*
X47960607Y-17859304D01*
X48211893Y-17809320D01*
X48468107Y-17809320D01*
X48719393Y-17859304D01*
X48719393Y-17859304D01*
G37*
M02*
