<?xml version="1.0" standalone="no"?>
 <!DOCTYPE svg PUBLIC "-//W3C//DTD SVG 1.1//EN" 
 "http://www.w3.org/Graphics/SVG/1.1/DTD/svg11.dtd"> 
<svg xmlns="http://www.w3.org/2000/svg" version="1.1" 
    width="29.7002cm" height="21.0007cm" viewBox="0 0 116930 82680 ">
<title>SVG Picture created as ALTERNATEDrumMachinePower-B_Mask.svg date 2022/10/24 14:02:15 </title>
  <desc>Picture generated by PCBNEW </desc>
<g style="fill:#000000; fill-opacity:1;stroke:#000000; stroke-opacity:1;
stroke-linecap:round; stroke-linejoin:round; "
 transform="translate(0 0) scale(1 1)">
</g>
<g style="fill:#000000; fill-opacity:0.0; 
stroke:#000000; stroke-width:-0.000393701; stroke-opacity:1; 
stroke-linecap:round; stroke-linejoin:round;">
</g>
<g style="fill:#000000; fill-opacity:0.0; 
stroke:#000000; stroke-width:39.3701; stroke-opacity:1; 
stroke-linecap:round; stroke-linejoin:round;">
</g>
<g style="fill:#000000; fill-opacity:0.0; 
stroke:#000000; stroke-width:59.0551; stroke-opacity:1; 
stroke-linecap:round; stroke-linejoin:round;">
<rect x="69685.9" y="65357.2" width="42519.7" height="12598.4" rx="0" />
</g>
<g style="fill:#000000; fill-opacity:0.0; 
stroke:#000000; stroke-width:39.3701; stroke-opacity:1; 
stroke-linecap:round; stroke-linejoin:round;">
</g>
<g style="fill:#000000; fill-opacity:0.0; 
stroke:#000000; stroke-width:59.0551; stroke-opacity:1; 
stroke-linecap:round; stroke-linejoin:round;">
<rect x="3937.01" y="3937.01" width="109056" height="74806" rx="0" />
</g>
<g style="fill:#000000; fill-opacity:0.0; 
stroke:#000000; stroke-width:39.3701; stroke-opacity:1; 
stroke-linecap:round; stroke-linejoin:round;">
</g>
<g style="fill:#000000; fill-opacity:0.0; 
stroke:#000000; stroke-width:59.0551; stroke-opacity:1; 
stroke-linecap:round; stroke-linejoin:round;">
<rect x="4724.41" y="4724.41" width="107481" height="73231.2" rx="0" />
</g>
<g style="fill:#000000; fill-opacity:0.0; 
stroke:#000000; stroke-width:39.3701; stroke-opacity:1; 
stroke-linecap:round; stroke-linejoin:round;">
</g>
<g style="fill:#000000; fill-opacity:0.0; 
stroke:#000000; stroke-width:59.0551; stroke-opacity:1; 
stroke-linecap:round; stroke-linejoin:round;">
<path d="M23622 4724
L23622 3937
" />
</g>
<g style="fill:#000000; fill-opacity:0.0; 
stroke:#000000; stroke-width:39.3701; stroke-opacity:1; 
stroke-linecap:round; stroke-linejoin:round;">
</g>
<g style="fill:#000000; fill-opacity:0.0; 
stroke:#000000; stroke-width:59.0551; stroke-opacity:1; 
stroke-linecap:round; stroke-linejoin:round;">
<path d="M43307 4724
L43307 3937
" />
</g>
<g style="fill:#000000; fill-opacity:0.0; 
stroke:#000000; stroke-width:39.3701; stroke-opacity:1; 
stroke-linecap:round; stroke-linejoin:round;">
</g>
<g style="fill:#000000; fill-opacity:0.0; 
stroke:#000000; stroke-width:59.0551; stroke-opacity:1; 
stroke-linecap:round; stroke-linejoin:round;">
<path d="M62992 4724
L62992 3937
" />
</g>
<g style="fill:#000000; fill-opacity:0.0; 
stroke:#000000; stroke-width:39.3701; stroke-opacity:1; 
stroke-linecap:round; stroke-linejoin:round;">
</g>
<g style="fill:#000000; fill-opacity:0.0; 
stroke:#000000; stroke-width:59.0551; stroke-opacity:1; 
stroke-linecap:round; stroke-linejoin:round;">
<path d="M82677 4724
L82677 3937
" />
</g>
<g style="fill:#000000; fill-opacity:0.0; 
stroke:#000000; stroke-width:39.3701; stroke-opacity:1; 
stroke-linecap:round; stroke-linejoin:round;">
</g>
<g style="fill:#000000; fill-opacity:0.0; 
stroke:#000000; stroke-width:59.0551; stroke-opacity:1; 
stroke-linecap:round; stroke-linejoin:round;">
<path d="M102362 4724
L102362 3937
" />
</g>
<g style="fill:#000000; fill-opacity:0.0; 
stroke:#000000; stroke-width:39.3701; stroke-opacity:1; 
stroke-linecap:round; stroke-linejoin:round;">
</g>
<g style="fill:#000000; fill-opacity:0.0; 
stroke:#000000; stroke-width:59.0551; stroke-opacity:1; 
stroke-linecap:round; stroke-linejoin:round;">
<path d="M14199 4562
L13906 4562
" />
<path d="M14052 4562
L14052 4050
L14004 4123
L13955 4172
L13906 4196
" />
</g>
<g style="fill:#000000; fill-opacity:0.0; 
stroke:#000000; stroke-width:39.3701; stroke-opacity:1; 
stroke-linecap:round; stroke-linejoin:round;">
</g>
<g style="fill:#000000; fill-opacity:0.0; 
stroke:#000000; stroke-width:59.0551; stroke-opacity:1; 
stroke-linecap:round; stroke-linejoin:round;">
<path d="M33591 4099
L33615 4074
L33664 4050
L33786 4050
L33835 4074
L33859 4099
L33884 4147
L33884 4196
L33859 4269
L33567 4562
L33884 4562
" />
</g>
<g style="fill:#000000; fill-opacity:0.0; 
stroke:#000000; stroke-width:39.3701; stroke-opacity:1; 
stroke-linecap:round; stroke-linejoin:round;">
</g>
<g style="fill:#000000; fill-opacity:0.0; 
stroke:#000000; stroke-width:59.0551; stroke-opacity:1; 
stroke-linecap:round; stroke-linejoin:round;">
<path d="M53252 4050
L53569 4050
L53398 4245
L53471 4245
L53520 4269
L53544 4294
L53569 4342
L53569 4464
L53544 4513
L53520 4537
L53471 4562
L53325 4562
L53276 4537
L53252 4513
" />
</g>
<g style="fill:#000000; fill-opacity:0.0; 
stroke:#000000; stroke-width:39.3701; stroke-opacity:1; 
stroke-linecap:round; stroke-linejoin:round;">
</g>
<g style="fill:#000000; fill-opacity:0.0; 
stroke:#000000; stroke-width:59.0551; stroke-opacity:1; 
stroke-linecap:round; stroke-linejoin:round;">
<path d="M73205 4221
L73205 4562
" />
<path d="M73083 4026
L72961 4391
L73278 4391
" />
</g>
<g style="fill:#000000; fill-opacity:0.0; 
stroke:#000000; stroke-width:39.3701; stroke-opacity:1; 
stroke-linecap:round; stroke-linejoin:round;">
</g>
<g style="fill:#000000; fill-opacity:0.0; 
stroke:#000000; stroke-width:59.0551; stroke-opacity:1; 
stroke-linecap:round; stroke-linejoin:round;">
<path d="M92914 4050
L92671 4050
L92646 4294
L92671 4269
L92719 4245
L92841 4245
L92890 4269
L92914 4294
L92939 4342
L92939 4464
L92914 4513
L92890 4537
L92841 4562
L92719 4562
L92671 4537
L92646 4513
" />
</g>
<g style="fill:#000000; fill-opacity:0.0; 
stroke:#000000; stroke-width:39.3701; stroke-opacity:1; 
stroke-linecap:round; stroke-linejoin:round;">
</g>
<g style="fill:#000000; fill-opacity:0.0; 
stroke:#000000; stroke-width:59.0551; stroke-opacity:1; 
stroke-linecap:round; stroke-linejoin:round;">
<path d="M112575 4050
L112477 4050
L112429 4074
L112404 4099
L112356 4172
L112331 4269
L112331 4464
L112356 4513
L112380 4537
L112429 4562
L112526 4562
L112575 4537
L112599 4513
L112624 4464
L112624 4342
L112599 4294
L112575 4269
L112526 4245
L112429 4245
L112380 4269
L112356 4294
L112331 4342
" />
</g>
<g style="fill:#000000; fill-opacity:0.0; 
stroke:#000000; stroke-width:39.3701; stroke-opacity:1; 
stroke-linecap:round; stroke-linejoin:round;">
</g>
<g style="fill:#000000; fill-opacity:0.0; 
stroke:#000000; stroke-width:59.0551; stroke-opacity:1; 
stroke-linecap:round; stroke-linejoin:round;">
<path d="M23622 77955
L23622 78742
" />
</g>
<g style="fill:#000000; fill-opacity:0.0; 
stroke:#000000; stroke-width:39.3701; stroke-opacity:1; 
stroke-linecap:round; stroke-linejoin:round;">
</g>
<g style="fill:#000000; fill-opacity:0.0; 
stroke:#000000; stroke-width:59.0551; stroke-opacity:1; 
stroke-linecap:round; stroke-linejoin:round;">
<path d="M43307 77955
L43307 78742
" />
</g>
<g style="fill:#000000; fill-opacity:0.0; 
stroke:#000000; stroke-width:39.3701; stroke-opacity:1; 
stroke-linecap:round; stroke-linejoin:round;">
</g>
<g style="fill:#000000; fill-opacity:0.0; 
stroke:#000000; stroke-width:59.0551; stroke-opacity:1; 
stroke-linecap:round; stroke-linejoin:round;">
<path d="M62992 77955
L62992 78742
" />
</g>
<g style="fill:#000000; fill-opacity:0.0; 
stroke:#000000; stroke-width:39.3701; stroke-opacity:1; 
stroke-linecap:round; stroke-linejoin:round;">
</g>
<g style="fill:#000000; fill-opacity:0.0; 
stroke:#000000; stroke-width:59.0551; stroke-opacity:1; 
stroke-linecap:round; stroke-linejoin:round;">
<path d="M82677 77955
L82677 78742
" />
</g>
<g style="fill:#000000; fill-opacity:0.0; 
stroke:#000000; stroke-width:39.3701; stroke-opacity:1; 
stroke-linecap:round; stroke-linejoin:round;">
</g>
<g style="fill:#000000; fill-opacity:0.0; 
stroke:#000000; stroke-width:59.0551; stroke-opacity:1; 
stroke-linecap:round; stroke-linejoin:round;">
<path d="M102362 77955
L102362 78742
" />
</g>
<g style="fill:#000000; fill-opacity:0.0; 
stroke:#000000; stroke-width:39.3701; stroke-opacity:1; 
stroke-linecap:round; stroke-linejoin:round;">
</g>
<g style="fill:#000000; fill-opacity:0.0; 
stroke:#000000; stroke-width:59.0551; stroke-opacity:1; 
stroke-linecap:round; stroke-linejoin:round;">
<path d="M14199 78580
L13906 78580
" />
<path d="M14052 78580
L14052 78069
L14004 78142
L13955 78190
L13906 78215
" />
</g>
<g style="fill:#000000; fill-opacity:0.0; 
stroke:#000000; stroke-width:39.3701; stroke-opacity:1; 
stroke-linecap:round; stroke-linejoin:round;">
</g>
<g style="fill:#000000; fill-opacity:0.0; 
stroke:#000000; stroke-width:59.0551; stroke-opacity:1; 
stroke-linecap:round; stroke-linejoin:round;">
<path d="M33591 78117
L33615 78093
L33664 78069
L33786 78069
L33835 78093
L33859 78117
L33884 78166
L33884 78215
L33859 78288
L33567 78580
L33884 78580
" />
</g>
<g style="fill:#000000; fill-opacity:0.0; 
stroke:#000000; stroke-width:39.3701; stroke-opacity:1; 
stroke-linecap:round; stroke-linejoin:round;">
</g>
<g style="fill:#000000; fill-opacity:0.0; 
stroke:#000000; stroke-width:59.0551; stroke-opacity:1; 
stroke-linecap:round; stroke-linejoin:round;">
<path d="M53252 78069
L53569 78069
L53398 78263
L53471 78263
L53520 78288
L53544 78312
L53569 78361
L53569 78483
L53544 78532
L53520 78556
L53471 78580
L53325 78580
L53276 78556
L53252 78532
" />
</g>
<g style="fill:#000000; fill-opacity:0.0; 
stroke:#000000; stroke-width:39.3701; stroke-opacity:1; 
stroke-linecap:round; stroke-linejoin:round;">
</g>
<g style="fill:#000000; fill-opacity:0.0; 
stroke:#000000; stroke-width:59.0551; stroke-opacity:1; 
stroke-linecap:round; stroke-linejoin:round;">
<path d="M73205 78239
L73205 78580
" />
<path d="M73083 78044
L72961 78410
L73278 78410
" />
</g>
<g style="fill:#000000; fill-opacity:0.0; 
stroke:#000000; stroke-width:39.3701; stroke-opacity:1; 
stroke-linecap:round; stroke-linejoin:round;">
</g>
<g style="fill:#000000; fill-opacity:0.0; 
stroke:#000000; stroke-width:59.0551; stroke-opacity:1; 
stroke-linecap:round; stroke-linejoin:round;">
<path d="M92914 78069
L92671 78069
L92646 78312
L92671 78288
L92719 78263
L92841 78263
L92890 78288
L92914 78312
L92939 78361
L92939 78483
L92914 78532
L92890 78556
L92841 78580
L92719 78580
L92671 78556
L92646 78532
" />
</g>
<g style="fill:#000000; fill-opacity:0.0; 
stroke:#000000; stroke-width:39.3701; stroke-opacity:1; 
stroke-linecap:round; stroke-linejoin:round;">
</g>
<g style="fill:#000000; fill-opacity:0.0; 
stroke:#000000; stroke-width:59.0551; stroke-opacity:1; 
stroke-linecap:round; stroke-linejoin:round;">
<path d="M112575 78069
L112477 78069
L112429 78093
L112404 78117
L112356 78190
L112331 78288
L112331 78483
L112356 78532
L112380 78556
L112429 78580
L112526 78580
L112575 78556
L112599 78532
L112624 78483
L112624 78361
L112599 78312
L112575 78288
L112526 78263
L112429 78263
L112380 78288
L112356 78312
L112331 78361
" />
</g>
<g style="fill:#000000; fill-opacity:0.0; 
stroke:#000000; stroke-width:39.3701; stroke-opacity:1; 
stroke-linecap:round; stroke-linejoin:round;">
</g>
<g style="fill:#000000; fill-opacity:0.0; 
stroke:#000000; stroke-width:59.0551; stroke-opacity:1; 
stroke-linecap:round; stroke-linejoin:round;">
<path d="M3937 23622
L4724 23622
" />
</g>
<g style="fill:#000000; fill-opacity:0.0; 
stroke:#000000; stroke-width:39.3701; stroke-opacity:1; 
stroke-linecap:round; stroke-linejoin:round;">
</g>
<g style="fill:#000000; fill-opacity:0.0; 
stroke:#000000; stroke-width:59.0551; stroke-opacity:1; 
stroke-linecap:round; stroke-linejoin:round;">
<path d="M3937 43307
L4724 43307
" />
</g>
<g style="fill:#000000; fill-opacity:0.0; 
stroke:#000000; stroke-width:39.3701; stroke-opacity:1; 
stroke-linecap:round; stroke-linejoin:round;">
</g>
<g style="fill:#000000; fill-opacity:0.0; 
stroke:#000000; stroke-width:59.0551; stroke-opacity:1; 
stroke-linecap:round; stroke-linejoin:round;">
<path d="M3937 62992
L4724 62992
" />
</g>
<g style="fill:#000000; fill-opacity:0.0; 
stroke:#000000; stroke-width:39.3701; stroke-opacity:1; 
stroke-linecap:round; stroke-linejoin:round;">
</g>
<g style="fill:#000000; fill-opacity:0.0; 
stroke:#000000; stroke-width:59.0551; stroke-opacity:1; 
stroke-linecap:round; stroke-linejoin:round;">
<path d="M4208 13864
L4452 13864
" />
<path d="M4160 14011
L4330 13499
L4501 14011
" />
</g>
<g style="fill:#000000; fill-opacity:0.0; 
stroke:#000000; stroke-width:39.3701; stroke-opacity:1; 
stroke-linecap:round; stroke-linejoin:round;">
</g>
<g style="fill:#000000; fill-opacity:0.0; 
stroke:#000000; stroke-width:59.0551; stroke-opacity:1; 
stroke-linecap:round; stroke-linejoin:round;">
<path d="M4367 33428
L4440 33452
L4464 33476
L4489 33525
L4489 33598
L4464 33647
L4440 33671
L4391 33696
L4196 33696
L4196 33184
L4367 33184
L4416 33208
L4440 33233
L4464 33281
L4464 33330
L4440 33379
L4416 33403
L4367 33428
L4196 33428
" />
</g>
<g style="fill:#000000; fill-opacity:0.0; 
stroke:#000000; stroke-width:39.3701; stroke-opacity:1; 
stroke-linecap:round; stroke-linejoin:round;">
</g>
<g style="fill:#000000; fill-opacity:0.0; 
stroke:#000000; stroke-width:59.0551; stroke-opacity:1; 
stroke-linecap:round; stroke-linejoin:round;">
<path d="M4489 53332
L4464 53356
L4391 53381
L4342 53381
L4269 53356
L4221 53308
L4196 53259
L4172 53161
L4172 53088
L4196 52991
L4221 52942
L4269 52893
L4342 52869
L4391 52869
L4464 52893
L4489 52918
" />
</g>
<g style="fill:#000000; fill-opacity:0.0; 
stroke:#000000; stroke-width:39.3701; stroke-opacity:1; 
stroke-linecap:round; stroke-linejoin:round;">
</g>
<g style="fill:#000000; fill-opacity:0.0; 
stroke:#000000; stroke-width:59.0551; stroke-opacity:1; 
stroke-linecap:round; stroke-linejoin:round;">
<path d="M4196 73066
L4196 72554
L4318 72554
L4391 72578
L4440 72627
L4464 72676
L4489 72773
L4489 72846
L4464 72944
L4440 72993
L4391 73041
L4318 73066
L4196 73066
" />
</g>
<g style="fill:#000000; fill-opacity:0.0; 
stroke:#000000; stroke-width:39.3701; stroke-opacity:1; 
stroke-linecap:round; stroke-linejoin:round;">
</g>
<g style="fill:#000000; fill-opacity:0.0; 
stroke:#000000; stroke-width:59.0551; stroke-opacity:1; 
stroke-linecap:round; stroke-linejoin:round;">
<path d="M112992 23622
L112205 23622
" />
</g>
<g style="fill:#000000; fill-opacity:0.0; 
stroke:#000000; stroke-width:39.3701; stroke-opacity:1; 
stroke-linecap:round; stroke-linejoin:round;">
</g>
<g style="fill:#000000; fill-opacity:0.0; 
stroke:#000000; stroke-width:59.0551; stroke-opacity:1; 
stroke-linecap:round; stroke-linejoin:round;">
<path d="M112992 43307
L112205 43307
" />
</g>
<g style="fill:#000000; fill-opacity:0.0; 
stroke:#000000; stroke-width:39.3701; stroke-opacity:1; 
stroke-linecap:round; stroke-linejoin:round;">
</g>
<g style="fill:#000000; fill-opacity:0.0; 
stroke:#000000; stroke-width:59.0551; stroke-opacity:1; 
stroke-linecap:round; stroke-linejoin:round;">
<path d="M112992 62992
L112205 62992
" />
</g>
<g style="fill:#000000; fill-opacity:0.0; 
stroke:#000000; stroke-width:39.3701; stroke-opacity:1; 
stroke-linecap:round; stroke-linejoin:round;">
</g>
<g style="fill:#000000; fill-opacity:0.0; 
stroke:#000000; stroke-width:59.0551; stroke-opacity:1; 
stroke-linecap:round; stroke-linejoin:round;">
<path d="M112477 13864
L112721 13864
" />
<path d="M112428 14011
L112599 13499
L112769 14011
" />
</g>
<g style="fill:#000000; fill-opacity:0.0; 
stroke:#000000; stroke-width:39.3701; stroke-opacity:1; 
stroke-linecap:round; stroke-linejoin:round;">
</g>
<g style="fill:#000000; fill-opacity:0.0; 
stroke:#000000; stroke-width:59.0551; stroke-opacity:1; 
stroke-linecap:round; stroke-linejoin:round;">
<path d="M112635 33428
L112708 33452
L112733 33476
L112757 33525
L112757 33598
L112733 33647
L112708 33671
L112660 33696
L112465 33696
L112465 33184
L112635 33184
L112684 33208
L112708 33233
L112733 33281
L112733 33330
L112708 33379
L112684 33403
L112635 33428
L112465 33428
" />
</g>
<g style="fill:#000000; fill-opacity:0.0; 
stroke:#000000; stroke-width:39.3701; stroke-opacity:1; 
stroke-linecap:round; stroke-linejoin:round;">
</g>
<g style="fill:#000000; fill-opacity:0.0; 
stroke:#000000; stroke-width:59.0551; stroke-opacity:1; 
stroke-linecap:round; stroke-linejoin:round;">
<path d="M112757 53332
L112733 53356
L112660 53381
L112611 53381
L112538 53356
L112489 53308
L112465 53259
L112440 53161
L112440 53088
L112465 52991
L112489 52942
L112538 52893
L112611 52869
L112660 52869
L112733 52893
L112757 52918
" />
</g>
<g style="fill:#000000; fill-opacity:0.0; 
stroke:#000000; stroke-width:39.3701; stroke-opacity:1; 
stroke-linecap:round; stroke-linejoin:round;">
</g>
<g style="fill:#000000; fill-opacity:0.0; 
stroke:#000000; stroke-width:59.0551; stroke-opacity:1; 
stroke-linecap:round; stroke-linejoin:round;">
<path d="M112465 73066
L112465 72554
L112587 72554
L112660 72578
L112708 72627
L112733 72676
L112757 72773
L112757 72846
L112733 72944
L112708 72993
L112660 73041
L112587 73066
L112465 73066
" />
</g>
<g style="fill:#000000; fill-opacity:0.0; 
stroke:#000000; stroke-width:39.3701; stroke-opacity:1; 
stroke-linecap:round; stroke-linejoin:round;">
</g>
<g style="fill:#000000; fill-opacity:0.0; 
stroke:#000000; stroke-width:59.0551; stroke-opacity:1; 
stroke-linecap:round; stroke-linejoin:round;">
<path d="M78911 76293
L78911 75703
L79051 75703
L79136 75731
L79192 75787
L79220 75843
L79248 75956
L79248 76040
L79220 76153
L79192 76209
L79136 76265
L79051 76293
L78911 76293
" />
<path d="M79754 76293
L79754 75984
L79726 75928
L79670 75899
L79557 75899
L79501 75928
" />
<path d="M79754 76265
L79698 76293
L79557 76293
L79501 76265
L79473 76209
L79473 76153
L79501 76096
L79557 76068
L79698 76068
L79754 76040
" />
<path d="M79951 75899
L80176 75899
" />
<path d="M80036 75703
L80036 76209
L80064 76265
L80120 76293
L80176 76293
" />
<path d="M80598 76265
L80542 76293
L80429 76293
L80373 76265
L80345 76209
L80345 75984
L80373 75928
L80429 75899
L80542 75899
L80598 75928
L80626 75984
L80626 76040
L80345 76096
" />
<path d="M80879 76237
L80907 76265
L80879 76293
L80851 76265
L80879 76237
L80879 76293
" />
<path d="M80879 75928
L80907 75956
L80879 75984
L80851 75956
L80879 75928
L80879 75984
" />
</g>
<g style="fill:#000000; fill-opacity:0.0; 
stroke:#000000; stroke-width:39.3701; stroke-opacity:1; 
stroke-linecap:round; stroke-linejoin:round;">
</g>
<g style="fill:#000000; fill-opacity:0.0; 
stroke:#000000; stroke-width:59.0551; stroke-opacity:1; 
stroke-linecap:round; stroke-linejoin:round;">
<path d="M69685 76577
L112205 76577
" />
</g>
<g style="fill:#000000; fill-opacity:0.0; 
stroke:#000000; stroke-width:39.3701; stroke-opacity:1; 
stroke-linecap:round; stroke-linejoin:round;">
</g>
<g style="fill:#000000; fill-opacity:0.0; 
stroke:#000000; stroke-width:59.0551; stroke-opacity:1; 
stroke-linecap:round; stroke-linejoin:round;">
<path d="M70249 77395
L70249 76805
" />
<path d="M70587 77395
L70334 77058
" />
<path d="M70587 76805
L70249 77142
" />
<path d="M70840 77395
L70840 77002
" />
<path d="M70840 76805
L70812 76833
L70840 76861
L70868 76833
L70840 76805
L70840 76861
" />
<path d="M71458 77339
L71430 77367
L71346 77395
L71290 77395
L71205 77367
L71149 77311
L71121 77255
L71093 77142
L71093 77058
L71121 76946
L71149 76889
L71205 76833
L71290 76805
L71346 76805
L71430 76833
L71458 76861
" />
<path d="M71965 77395
L71965 77086
L71937 77030
L71880 77002
L71768 77002
L71712 77030
" />
<path d="M71965 77367
L71908 77395
L71768 77395
L71712 77367
L71683 77311
L71683 77255
L71712 77199
L71768 77171
L71908 77171
L71965 77142
" />
<path d="M72499 77395
L72499 76805
" />
<path d="M72499 77367
L72443 77395
L72330 77395
L72274 77367
L72246 77339
L72218 77283
L72218 77114
L72246 77058
L72274 77030
L72330 77002
L72443 77002
L72499 77030
" />
<path d="M73230 77086
L73427 77086
" />
<path d="M73511 77395
L73230 77395
L73230 76805
L73511 76805
" />
<path d="M73764 77339
L73793 77367
L73764 77395
L73736 77367
L73764 77339
L73764 77395
" />
<path d="M74046 77395
L74046 76805
L74186 76805
L74271 76833
L74327 76889
L74355 76946
L74383 77058
L74383 77142
L74355 77255
L74327 77311
L74271 77367
L74186 77395
L74046 77395
" />
<path d="M74636 77339
L74664 77367
L74636 77395
L74608 77367
L74636 77339
L74636 77395
" />
<path d="M74889 77227
L75171 77227
" />
<path d="M74833 77395
L75030 76805
L75227 77395
" />
<path d="M75424 77339
L75452 77367
L75424 77395
L75395 77367
L75424 77339
L75424 77395
" />
<path d="M76605 77395
L76605 76805
" />
<path d="M76661 77171
L76830 77395
" />
<path d="M76830 77002
L76605 77227
" />
<path d="M77083 77395
L77083 77002
" />
<path d="M77083 76805
L77055 76833
L77083 76861
L77111 76833
L77083 76805
L77083 76861
" />
<path d="M77617 77367
L77561 77395
L77448 77395
L77392 77367
L77364 77339
L77336 77283
L77336 77114
L77364 77058
L77392 77030
L77448 77002
L77561 77002
L77617 77030
" />
<path d="M78123 77395
L78123 77086
L78095 77030
L78039 77002
L77926 77002
L77870 77030
" />
<path d="M78123 77367
L78067 77395
L77926 77395
L77870 77367
L77842 77311
L77842 77255
L77870 77199
L77926 77171
L78067 77171
L78123 77142
" />
<path d="M78658 77395
L78658 76805
" />
<path d="M78658 77367
L78601 77395
L78489 77395
L78433 77367
L78404 77339
L78376 77283
L78376 77114
L78404 77058
L78433 77030
L78489 77002
L78601 77002
L78658 77030
" />
<path d="M79557 77620
L79529 77592
L79473 77508
L79445 77452
L79417 77367
L79389 77227
L79389 77114
L79417 76974
L79445 76889
L79473 76833
L79529 76749
L79557 76721
" />
<path d="M80064 76805
L79782 76805
L79754 77086
L79782 77058
L79839 77030
L79979 77030
L80036 77058
L80064 77086
L80092 77142
L80092 77283
L80064 77339
L80036 77367
L79979 77395
L79839 77395
L79782 77367
L79754 77339
" />
<path d="M80345 77339
L80373 77367
L80345 77395
L80317 77367
L80345 77339
L80345 77395
" />
<path d="M80935 77395
L80598 77395
" />
<path d="M80767 77395
L80767 76805
L80710 76889
L80654 76946
L80598 76974
" />
<path d="M81188 77339
L81217 77367
L81188 77395
L81160 77367
L81188 77339
L81188 77395
" />
<path d="M81442 76861
L81470 76833
L81526 76805
L81667 76805
L81723 76833
L81751 76861
L81779 76917
L81779 76974
L81751 77058
L81413 77395
L81779 77395
" />
<path d="M82032 77171
L82482 77171
" />
<path d="M83073 77395
L82735 77395
" />
<path d="M82904 77395
L82904 76805
L82848 76889
L82791 76946
L82735 76974
" />
<path d="M83269 77620
L83298 77592
L83354 77508
L83382 77452
L83410 77367
L83438 77227
L83438 77114
L83410 76974
L83382 76889
L83354 76833
L83298 76749
L83269 76721
" />
<path d="M83719 77171
L84169 77171
" />
<path d="M84760 77395
L84422 77395
" />
<path d="M84591 77395
L84591 76805
L84535 76889
L84479 76946
L84422 76974
" />
</g>
<g style="fill:#000000; fill-opacity:0.0; 
stroke:#000000; stroke-width:39.3701; stroke-opacity:1; 
stroke-linecap:round; stroke-linejoin:round;">
</g>
<g style="fill:#000000; fill-opacity:0.0; 
stroke:#000000; stroke-width:59.0551; stroke-opacity:1; 
stroke-linecap:round; stroke-linejoin:round;">
<path d="M69685 75396
L112205 75396
" />
</g>
<g style="fill:#000000; fill-opacity:0.0; 
stroke:#000000; stroke-width:39.3701; stroke-opacity:1; 
stroke-linecap:round; stroke-linejoin:round;">
</g>
<g style="fill:#000000; fill-opacity:0.0; 
stroke:#000000; stroke-width:118.11; stroke-opacity:1; 
stroke-linecap:round; stroke-linejoin:round;">
<path d="M104099 76293
L103902 76012
" />
<path d="M103761 76293
L103761 75703
L103986 75703
L104042 75731
L104070 75759
L104099 75815
L104099 75899
L104070 75956
L104042 75984
L103986 76012
L103761 76012
" />
<path d="M104577 76265
L104520 76293
L104408 76293
L104352 76265
L104323 76209
L104323 75984
L104352 75928
L104408 75899
L104520 75899
L104577 75928
L104605 75984
L104605 76040
L104323 76096
" />
<path d="M104802 75899
L104942 76293
L105083 75899
" />
<path d="M105308 76237
L105336 76265
L105308 76293
L105280 76265
L105308 76237
L105308 76293
" />
<path d="M105308 75928
L105336 75956
L105308 75984
L105280 75956
L105308 75928
L105308 75984
" />
</g>
<g style="fill:#000000; fill-opacity:0.0; 
stroke:#000000; stroke-width:39.3701; stroke-opacity:1; 
stroke-linecap:round; stroke-linejoin:round;">
</g>
<g style="fill:#000000; fill-opacity:0.0; 
stroke:#000000; stroke-width:59.0551; stroke-opacity:1; 
stroke-linecap:round; stroke-linejoin:round;">
<path d="M70221 76265
L70305 76293
L70446 76293
L70502 76265
L70530 76237
L70559 76181
L70559 76124
L70530 76068
L70502 76040
L70446 76012
L70334 75984
L70277 75956
L70249 75928
L70221 75871
L70221 75815
L70249 75759
L70277 75731
L70334 75703
L70474 75703
L70559 75731
" />
<path d="M70812 76293
L70812 75899
" />
<path d="M70812 75703
L70784 75731
L70812 75759
L70840 75731
L70812 75703
L70812 75759
" />
<path d="M71037 75899
L71346 75899
L71037 76293
L71346 76293
" />
<path d="M71796 76265
L71740 76293
L71627 76293
L71571 76265
L71543 76209
L71543 75984
L71571 75928
L71627 75899
L71740 75899
L71796 75928
L71824 75984
L71824 76040
L71543 76096
" />
<path d="M72077 76237
L72105 76265
L72077 76293
L72049 76265
L72077 76237
L72077 76293
" />
<path d="M72077 75928
L72105 75956
L72077 75984
L72049 75956
L72077 75928
L72077 75984
" />
<path d="M72780 76124
L73061 76124
" />
<path d="M72724 76293
L72921 75703
L73118 76293
" />
<path d="M73568 75899
L73568 76293
" />
<path d="M73427 75674
L73286 76096
L73652 76096
" />
</g>
<g style="fill:#000000; fill-opacity:0.0; 
stroke:#000000; stroke-width:39.3701; stroke-opacity:1; 
stroke-linecap:round; stroke-linejoin:round;">
</g>
<g style="fill:#000000; fill-opacity:0.0; 
stroke:#000000; stroke-width:59.0551; stroke-opacity:1; 
stroke-linecap:round; stroke-linejoin:round;">
<path d="M103714 77395
L103714 76805
" />
<path d="M104248 77395
L104248 76805
" />
<path d="M104248 77367
L104192 77395
L104079 77395
L104023 77367
L103995 77339
L103967 77283
L103967 77114
L103995 77058
L104023 77030
L104079 77002
L104192 77002
L104248 77030
" />
<path d="M104529 77339
L104557 77367
L104529 77395
L104501 77367
L104529 77339
L104529 77395
" />
<path d="M104529 77030
L104557 77058
L104529 77086
L104501 77058
L104529 77030
L104529 77086
" />
<path d="M105570 77395
L105232 77395
" />
<path d="M105401 77395
L105401 76805
L105345 76889
L105289 76946
L105232 76974
" />
<path d="M106245 76777
L105739 77536
" />
<path d="M106751 77395
L106413 77395
" />
<path d="M106582 77395
L106582 76805
L106526 76889
L106470 76946
L106413 76974
" />
</g>
<g style="fill:#000000; fill-opacity:0.0; 
stroke:#000000; stroke-width:39.3701; stroke-opacity:1; 
stroke-linecap:round; stroke-linejoin:round;">
</g>
<g style="fill:#000000; fill-opacity:0.0; 
stroke:#000000; stroke-width:59.0551; stroke-opacity:1; 
stroke-linecap:round; stroke-linejoin:round;">
<path d="M69685 73821
L112205 73821
" />
</g>
<g style="fill:#000000; fill-opacity:0.0; 
stroke:#000000; stroke-width:39.3701; stroke-opacity:1; 
stroke-linecap:round; stroke-linejoin:round;">
</g>
<g style="fill:#000000; fill-opacity:0.0; 
stroke:#000000; stroke-width:157.48; stroke-opacity:1; 
stroke-linecap:round; stroke-linejoin:round;">
<path d="M70360 74099
L70810 74099
" />
<path d="M70486 74886
L70585 74099
" />
<path d="M70974 74886
L71039 74361
" />
<path d="M71072 74099
L71030 74136
L71063 74174
L71105 74136
L71072 74099
L71063 74174
" />
<path d="M71302 74361
L71602 74361
" />
<path d="M71447 74099
L71363 74774
L71391 74849
L71461 74886
L71536 74886
" />
<path d="M71911 74886
L71841 74849
L71813 74774
L71897 74099
" />
<path d="M72516 74849
L72436 74886
L72286 74886
L72216 74849
L72187 74774
L72225 74474
L72272 74399
L72352 74361
L72501 74361
L72572 74399
L72600 74474
L72591 74549
L72206 74624
" />
<path d="M72895 74811
L72928 74849
L72886 74886
L72853 74849
L72895 74811
L72886 74886
" />
<path d="M72947 74399
L72980 74436
L72937 74474
L72905 74436
L72947 74399
L72937 74474
" />
</g>
<g style="fill:#000000; fill-opacity:0.0; 
stroke:#000000; stroke-width:39.3701; stroke-opacity:1; 
stroke-linecap:round; stroke-linejoin:round;">
</g>
<g style="fill:#000000; fill-opacity:0.0; 
stroke:#000000; stroke-width:59.0551; stroke-opacity:1; 
stroke-linecap:round; stroke-linejoin:round;">
<path d="M70446 73070
L70249 73070
" />
<path d="M70249 73380
L70249 72789
L70530 72789
" />
<path d="M70755 73380
L70755 72986
" />
<path d="M70755 72789
L70727 72817
L70755 72845
L70784 72817
L70755 72789
L70755 72845
" />
<path d="M71121 73380
L71065 73352
L71037 73295
L71037 72789
" />
<path d="M71571 73352
L71515 73380
L71402 73380
L71346 73352
L71318 73295
L71318 73070
L71346 73014
L71402 72986
L71515 72986
L71571 73014
L71599 73070
L71599 73127
L71318 73183
" />
<path d="M71852 73323
L71880 73352
L71852 73380
L71824 73352
L71852 73323
L71852 73380
" />
<path d="M71852 73014
L71880 73042
L71852 73070
L71824 73042
L71852 73014
L71852 73070
" />
<path d="M72555 73211
L72836 73211
" />
<path d="M72499 73380
L72696 72789
L72893 73380
" />
<path d="M73371 73380
L73090 73380
L73090 72789
" />
<path d="M73483 72789
L73821 72789
" />
<path d="M73652 73380
L73652 72789
" />
<path d="M74018 73070
L74214 73070
" />
<path d="M74299 73380
L74018 73380
L74018 72789
L74299 72789
" />
<path d="M74889 73380
L74692 73099
" />
<path d="M74552 73380
L74552 72789
L74777 72789
L74833 72817
L74861 72845
L74889 72902
L74889 72986
L74861 73042
L74833 73070
L74777 73099
L74552 73099
" />
<path d="M75142 73380
L75142 72789
L75480 73380
L75480 72789
" />
<path d="M75733 73211
L76014 73211
" />
<path d="M75677 73380
L75874 72789
L76070 73380
" />
<path d="M76183 72789
L76520 72789
" />
<path d="M76352 73380
L76352 72789
" />
<path d="M76717 73070
L76914 73070
" />
<path d="M76998 73380
L76717 73380
L76717 72789
L76998 72789
" />
<path d="M77251 73380
L77251 72789
L77392 72789
L77476 72817
L77533 72874
L77561 72930
L77589 73042
L77589 73127
L77561 73239
L77533 73295
L77476 73352
L77392 73380
L77251 73380
" />
<path d="M77842 73380
L77842 72986
" />
<path d="M77842 73099
L77870 73042
L77898 73014
L77955 72986
L78011 72986
" />
<path d="M78461 72986
L78461 73380
" />
<path d="M78208 72986
L78208 73295
L78236 73352
L78292 73380
L78376 73380
L78433 73352
L78461 73323
" />
<path d="M78742 73380
L78742 72986
" />
<path d="M78742 73042
L78770 73014
L78826 72986
L78911 72986
L78967 73014
L78995 73070
L78995 73380
" />
<path d="M78995 73070
L79023 73014
L79079 72986
L79164 72986
L79220 73014
L79248 73070
L79248 73380
" />
<path d="M79529 73380
L79529 72789
L79726 73211
L79923 72789
L79923 73380
" />
<path d="M80457 73380
L80457 73070
L80429 73014
L80373 72986
L80260 72986
L80204 73014
" />
<path d="M80457 73352
L80401 73380
L80260 73380
L80204 73352
L80176 73295
L80176 73239
L80204 73183
L80260 73155
L80401 73155
L80457 73127
" />
<path d="M80992 73352
L80935 73380
L80823 73380
L80767 73352
L80739 73323
L80710 73267
L80710 73099
L80739 73042
L80767 73014
L80823 72986
L80935 72986
L80992 73014
" />
<path d="M81245 73380
L81245 72789
" />
<path d="M81498 73380
L81498 73070
L81470 73014
L81413 72986
L81329 72986
L81273 73014
L81245 73042
" />
<path d="M81779 73380
L81779 72986
" />
<path d="M81779 72789
L81751 72817
L81779 72845
L81807 72817
L81779 72789
L81779 72845
" />
<path d="M82060 72986
L82060 73380
" />
<path d="M82060 73042
L82088 73014
L82145 72986
L82229 72986
L82285 73014
L82313 73070
L82313 73380
" />
<path d="M82820 73352
L82763 73380
L82651 73380
L82595 73352
L82566 73295
L82566 73070
L82595 73014
L82651 72986
L82763 72986
L82820 73014
L82848 73070
L82848 73127
L82566 73183
" />
<path d="M83101 73380
L83101 72789
L83326 72789
L83382 72817
L83410 72845
L83438 72902
L83438 72986
L83410 73042
L83382 73070
L83326 73099
L83101 73099
" />
<path d="M83776 73380
L83719 73352
L83691 73323
L83663 73267
L83663 73099
L83691 73042
L83719 73014
L83776 72986
L83860 72986
L83916 73014
L83944 73042
L83973 73099
L83973 73267
L83944 73323
L83916 73352
L83860 73380
L83776 73380
" />
<path d="M84169 72986
L84282 73380
L84394 73099
L84507 73380
L84619 72986
" />
<path d="M85069 73352
L85013 73380
L84901 73380
L84844 73352
L84816 73295
L84816 73070
L84844 73014
L84901 72986
L85013 72986
L85069 73014
L85097 73070
L85097 73127
L84816 73183
" />
<path d="M85350 73380
L85350 72986
" />
<path d="M85350 73099
L85379 73042
L85407 73014
L85463 72986
L85519 72986
" />
<path d="M85716 73323
L85744 73352
L85716 73380
L85688 73352
L85716 73323
L85716 73380
" />
<path d="M85997 73380
L85997 72789
" />
<path d="M86054 73155
L86222 73380
" />
<path d="M86222 72986
L85997 73211
" />
<path d="M86475 73380
L86475 72986
" />
<path d="M86475 72789
L86447 72817
L86475 72845
L86503 72817
L86475 72789
L86475 72845
" />
<path d="M87010 73352
L86953 73380
L86841 73380
L86785 73352
L86757 73323
L86728 73267
L86728 73099
L86757 73042
L86785 73014
L86841 72986
L86953 72986
L87010 73014
" />
<path d="M87516 73380
L87516 73070
L87488 73014
L87431 72986
L87319 72986
L87263 73014
" />
<path d="M87516 73352
L87460 73380
L87319 73380
L87263 73352
L87235 73295
L87235 73239
L87263 73183
L87319 73155
L87460 73155
L87516 73127
" />
<path d="M88050 73380
L88050 72789
" />
<path d="M88050 73352
L87994 73380
L87881 73380
L87825 73352
L87797 73323
L87769 73267
L87769 73099
L87797 73042
L87825 73014
L87881 72986
L87994 72986
L88050 73014
" />
<path d="M88191 73436
L88641 73436
" />
<path d="M88781 72986
L88781 73577
" />
<path d="M88781 73014
L88838 72986
L88950 72986
L89006 73014
L89034 73042
L89063 73099
L89063 73267
L89034 73323
L89006 73352
L88950 73380
L88838 73380
L88781 73352
" />
<path d="M89569 73352
L89512 73380
L89400 73380
L89344 73352
L89316 73323
L89287 73267
L89287 73099
L89316 73042
L89344 73014
L89400 72986
L89512 72986
L89569 73014
" />
<path d="M89822 73380
L89822 72789
" />
<path d="M89822 73014
L89878 72986
L89991 72986
L90047 73014
L90075 73042
L90103 73099
L90103 73267
L90075 73323
L90047 73352
L89991 73380
L89878 73380
L89822 73352
" />
</g>
<g style="fill:#000000; fill-opacity:0.0; 
stroke:#000000; stroke-width:39.3701; stroke-opacity:1; 
stroke-linecap:round; stroke-linejoin:round;">
</g>
<g style="fill:#000000; fill-opacity:0.0; 
stroke:#000000; stroke-width:59.0551; stroke-opacity:1; 
stroke-linecap:round; stroke-linejoin:round;">
<path d="M69685 71459
L112205 71459
" />
</g>
<g style="fill:#000000; fill-opacity:0.0; 
stroke:#000000; stroke-width:39.3701; stroke-opacity:1; 
stroke-linecap:round; stroke-linejoin:round;">
</g>
<g style="fill:#000000; fill-opacity:0.0; 
stroke:#000000; stroke-width:59.0551; stroke-opacity:1; 
stroke-linecap:round; stroke-linejoin:round;">
<path d="M70221 72289
L70305 72317
L70446 72317
L70502 72289
L70530 72260
L70559 72204
L70559 72148
L70530 72092
L70502 72064
L70446 72036
L70334 72007
L70277 71979
L70249 71951
L70221 71895
L70221 71839
L70249 71782
L70277 71754
L70334 71726
L70474 71726
L70559 71754
" />
<path d="M70812 72317
L70812 71726
" />
<path d="M71065 72317
L71065 72007
L71037 71951
L70980 71923
L70896 71923
L70840 71951
L70812 71979
" />
<path d="M71571 72289
L71515 72317
L71402 72317
L71346 72289
L71318 72232
L71318 72007
L71346 71951
L71402 71923
L71515 71923
L71571 71951
L71599 72007
L71599 72064
L71318 72120
" />
<path d="M72077 72289
L72021 72317
L71908 72317
L71852 72289
L71824 72232
L71824 72007
L71852 71951
L71908 71923
L72021 71923
L72077 71951
L72105 72007
L72105 72064
L71824 72120
" />
<path d="M72274 71923
L72499 71923
" />
<path d="M72358 71726
L72358 72232
L72386 72289
L72443 72317
L72499 72317
" />
<path d="M72696 72260
L72724 72289
L72696 72317
L72668 72289
L72696 72260
L72696 72317
" />
<path d="M72696 71951
L72724 71979
L72696 72007
L72668 71979
L72696 71951
L72696 72007
" />
</g>
<g style="fill:#000000; fill-opacity:0.0; 
stroke:#000000; stroke-width:39.3701; stroke-opacity:1; 
stroke-linecap:round; stroke-linejoin:round;">
</g>
<g style="fill:#000000; fill-opacity:0.0; 
stroke:#000000; stroke-width:59.0551; stroke-opacity:1; 
stroke-linecap:round; stroke-linejoin:round;">
<path d="M77559 75396
L77559 76577
" />
</g>
<g style="fill:#000000; fill-opacity:0.0; 
stroke:#000000; stroke-width:39.3701; stroke-opacity:1; 
stroke-linecap:round; stroke-linejoin:round;">
</g>
<g style="fill:#000000; fill-opacity:0.0; 
stroke:#000000; stroke-width:59.0551; stroke-opacity:1; 
stroke-linecap:round; stroke-linejoin:round;">
<path d="M102756 75396
L102756 77955
" />
</g>
<g style="fill:#848400; fill-opacity:0.0; 
stroke:#848400; stroke-width:59.0551; stroke-opacity:1; 
stroke-linecap:round; stroke-linejoin:round;">
</g>
<g style="fill:#848400; fill-opacity:1.0; 
stroke:#848400; stroke-width:0; stroke-opacity:1; 
stroke-linecap:round; stroke-linejoin:round;">
<path style="fill:#848400; fill-opacity:1.0; 
stroke:#848400; stroke-width:0; stroke-opacity:1; 
stroke-linecap:round; stroke-linejoin:round;fill-rule:evenodd;"
d="M 54250,24203
53625,24431
53398,24513
53398,24513
53116,23739
53088,23662
53088,23662
53712,23434
53940,23352
53940,23352
54250,24203
Z" /> 
<path style="fill:#848400; fill-opacity:1.0; 
stroke:#848400; stroke-width:0; stroke-opacity:1; 
stroke-linecap:round; stroke-linejoin:round;fill-rule:evenodd;"
d="M 17428,23127
18053,23355
18053,23355
18026,23429
17743,24206
17743,24206
17516,24124
16891,23896
17201,23045
17201,23045
17428,23127
Z" /> 
<path style="fill:#848400; fill-opacity:1.0; 
stroke:#848400; stroke-width:0; stroke-opacity:1; 
stroke-linecap:round; stroke-linejoin:round;fill-rule:evenodd;"
d="M 19139,22837
19161,22839
19247,22865
19247,22865
19325,22907
19394,22964
19451,23033
19493,23112
19493,23112
19519,23197
19528,23286
19521,23352
19519,23375
19493,23460
19451,23539
19394,23608
19325,23664
19247,23707
19247,23707
19161,23732
19139,23735
19095,23739
19050,23739
19006,23735
18984,23732
18898,23707
18898,23707
18819,23664
18750,23608
18694,23539
18652,23460
18626,23375
18624,23352
18617,23286
18626,23197
18652,23112
18652,23112
18694,23033
18750,22964
18819,22907
18898,22865
18898,22865
18984,22839
19006,22837
19050,22833
19095,22833
19139,22837
Z" /> 
<path style="fill:#848400; fill-opacity:1.0; 
stroke:#848400; stroke-width:0; stroke-opacity:1; 
stroke-linecap:round; stroke-linejoin:round;fill-rule:evenodd;"
d="M 49330,22602
49352,22604
49438,22630
49438,22630
49516,22672
49585,22729
49642,22798
49684,22876
49684,22876
49710,22962
49719,23051
49710,23140
49692,23197
49684,23225
49642,23304
49585,23373
49516,23429
49438,23471
49438,23471
49352,23497
49330,23499
49286,23504
49241,23504
49197,23499
49174,23497
49089,23471
49089,23471
49010,23429
48941,23373
48885,23304
48843,23225
48834,23197
48817,23140
48808,23051
48817,22962
48843,22876
48843,22876
48885,22798
48941,22729
49010,22672
49089,22630
49089,22630
49174,22604
49197,22602
49241,22598
49286,22598
49330,22602
Z" /> 
<path style="fill:#848400; fill-opacity:1.0; 
stroke:#848400; stroke-width:0; stroke-opacity:1; 
stroke-linecap:round; stroke-linejoin:round;fill-rule:evenodd;"
d="M 45716,23504
44810,23504
44810,22598
45716,22598
45716,23504
Z" /> 
<path style="fill:#848400; fill-opacity:1.0; 
stroke:#848400; stroke-width:0; stroke-opacity:1; 
stroke-linecap:round; stroke-linejoin:round;fill-rule:evenodd;"
d="M 16236,22554
16299,22577
16029,23319
16029,23319
15251,23036
15263,23005
15521,22294
15521,22294
16236,22554
Z" /> 
<path style="fill:#848400; fill-opacity:1.0; 
stroke:#848400; stroke-width:0; stroke-opacity:1; 
stroke-linecap:round; stroke-linejoin:round;fill-rule:evenodd;"
d="M 33057,22274
33124,22294
33124,22294
33186,22327
33240,22371
33273,22411
33284,22425
33317,22487
33337,22554
33342,22606
33342,22739
33337,22791
33317,22858
33284,22920
33273,22934
33240,22974
33207,23001
33186,23018
33124,23051
33057,23072
32988,23078
32918,23072
32851,23051
32790,23018
32736,22974
32691,22920
32662,22865
32658,22858
32658,22858
32638,22791
32633,22739
32633,22606
32634,22598
32638,22554
32638,22554
32658,22487
32658,22487
32691,22425
32736,22371
32781,22335
32790,22327
32825,22308
32851,22294
32851,22294
32918,22274
32988,22267
33057,22274
Z" /> 
<path style="fill:#848400; fill-opacity:1.0; 
stroke:#848400; stroke-width:0; stroke-opacity:1; 
stroke-linecap:round; stroke-linejoin:round;fill-rule:evenodd;"
d="M 34041,22274
34108,22294
34108,22294
34170,22327
34224,22371
34257,22411
34268,22425
34301,22487
34322,22554
34327,22606
34327,22739
34322,22791
34301,22858
34268,22920
34257,22934
34224,22974
34191,23001
34170,23018
34108,23051
34041,23072
33972,23078
33902,23072
33836,23051
33774,23018
33720,22974
33676,22920
33646,22865
33643,22858
33643,22858
33622,22791
33617,22739
33617,22606
33618,22598
33622,22554
33622,22554
33643,22487
33643,22487
33676,22425
33720,22371
33765,22335
33774,22327
33809,22308
33836,22294
33836,22294
33902,22274
33972,22267
34041,22274
Z" /> 
<path style="fill:#848400; fill-opacity:1.0; 
stroke:#848400; stroke-width:0; stroke-opacity:1; 
stroke-linecap:round; stroke-linejoin:round;fill-rule:evenodd;"
d="M 32073,22274
32140,22294
32140,22294
32201,22327
32255,22371
32288,22411
32300,22425
32333,22487
32353,22554
32358,22606
32358,22739
32353,22791
32333,22858
32300,22920
32288,22934
32255,22974
32223,23001
32201,23018
32140,23051
32073,23072
32003,23078
31934,23072
31867,23051
31805,23018
31751,22974
31707,22920
31678,22865
31674,22858
31674,22858
31654,22791
31649,22739
31649,22606
31650,22598
31654,22554
31654,22554
31674,22487
31674,22487
31707,22425
31751,22371
31796,22335
31805,22327
31841,22308
31867,22294
31867,22294
31934,22274
32003,22267
32073,22274
Z" /> 
<path style="fill:#848400; fill-opacity:1.0; 
stroke:#848400; stroke-width:0; stroke-opacity:1; 
stroke-linecap:round; stroke-linejoin:round;fill-rule:evenodd;"
d="M 31089,22274
31156,22294
31156,22294
31217,22327
31271,22371
31304,22411
31316,22425
31348,22487
31369,22554
31374,22606
31374,22739
31369,22791
31348,22858
31316,22920
31304,22934
31271,22974
31238,23001
31217,23018
31156,23051
31089,23072
31019,23078
30950,23072
30883,23051
30821,23018
30767,22974
30723,22920
30694,22865
30690,22858
30690,22858
30670,22791
30664,22739
30664,22606
30665,22598
30670,22554
30670,22554
30690,22487
30690,22487
30723,22425
30767,22371
30812,22335
30821,22327
30857,22308
30883,22294
30883,22294
30950,22274
31019,22267
31089,22274
Z" /> 
<path style="fill:#848400; fill-opacity:1.0; 
stroke:#848400; stroke-width:0; stroke-opacity:1; 
stroke-linecap:round; stroke-linejoin:round;fill-rule:evenodd;"
d="M 30334,22270
30347,22274
30359,22281
30369,22289
30378,22300
30384,22312
30388,22325
30390,22341
30390,23005
30388,23021
30384,23034
30378,23046
30369,23056
30359,23065
30347,23071
30334,23075
30318,23077
29752,23077
29736,23075
29723,23071
29711,23065
29701,23056
29692,23046
29686,23034
29682,23021
29680,23005
29680,22341
29682,22325
29686,22312
29692,22300
29701,22289
29711,22281
29723,22274
29736,22270
29752,22269
30318,22269
30334,22270
Z" /> 
<path style="fill:#848400; fill-opacity:1.0; 
stroke:#848400; stroke-width:0; stroke-opacity:1; 
stroke-linecap:round; stroke-linejoin:round;fill-rule:evenodd;"
d="M 55492,22243
55566,22269
55609,22294
55633,22308
55654,22327
55691,22360
55737,22422
55771,22493
55790,22568
55793,22606
55795,22646
55784,22723
55778,22739
55758,22796
55718,22863
55666,22921
55651,22933
55604,22968
55554,22992
55551,22993
55480,23019
55423,23033
55346,23038
55269,23027
55238,23016
55195,23001
55162,22981
55128,22961
55070,22909
55046,22876
55024,22847
54990,22777
54978,22729
54971,22701
54966,22624
54977,22547
54986,22521
55003,22473
55031,22425
55043,22406
55095,22348
55157,22302
55157,22302
55157,22302
55177,22292
55210,22276
55281,22250
55338,22236
55415,22232
55492,22243
Z" /> 
<path style="fill:#848400; fill-opacity:1.0; 
stroke:#848400; stroke-width:0; stroke-opacity:1; 
stroke-linecap:round; stroke-linejoin:round;fill-rule:evenodd;"
d="M 20716,22351
20748,22360
20777,22369
20779,22370
20832,22398
20838,22401
20889,22443
20931,22494
20931,22494
20962,22552
20981,22615
20987,22681
20981,22746
20962,22810
20949,22833
20931,22868
20889,22919
20838,22961
20838,22961
20779,22992
20716,23011
20667,23016
20634,23016
20585,23011
20522,22992
20464,22961
20464,22961
20413,22919
20371,22868
20352,22833
20340,22810
20320,22746
20314,22681
20320,22615
20340,22552
20371,22494
20371,22494
20413,22443
20464,22401
20470,22398
20522,22370
20525,22369
20554,22360
20585,22351
20634,22346
20667,22346
20716,22351
Z" /> 
<path style="fill:#848400; fill-opacity:1.0; 
stroke:#848400; stroke-width:0; stroke-opacity:1; 
stroke-linecap:round; stroke-linejoin:round;fill-rule:evenodd;"
d="M 52027,22245
52118,22494
52124,22510
51525,22729
51272,22820
51272,22820
51008,22095
50962,21969
50962,21969
51633,21725
51814,21659
51814,21659
52027,22245
Z" /> 
<path style="fill:#848400; fill-opacity:1.0; 
stroke:#848400; stroke-width:0; stroke-opacity:1; 
stroke-linecap:round; stroke-linejoin:round;fill-rule:evenodd;"
d="M 7293,21365
7422,21418
7538,21496
7637,21595
7714,21711
7768,21840
7795,21977
7795,22117
7768,22254
7714,22383
7637,22499
7538,22598
7422,22675
7293,22729
7156,22756
7016,22756
6879,22729
6750,22675
6634,22598
6535,22499
6458,22383
6404,22254
6377,22117
6377,21977
6404,21840
6458,21711
6535,21595
6634,21496
6750,21418
6879,21365
7016,21338
7156,21338
7293,21365
Z" /> 
<path style="fill:#848400; fill-opacity:1.0; 
stroke:#848400; stroke-width:0; stroke-opacity:1; 
stroke-linecap:round; stroke-linejoin:round;fill-rule:evenodd;"
d="M 60836,21365
60965,21418
61081,21496
61180,21595
61258,21711
61311,21840
61338,21977
61338,22117
61311,22254
61258,22383
61180,22499
61081,22598
60965,22675
60836,22729
60699,22756
60560,22756
60423,22729
60294,22675
60177,22598
60079,22499
60001,22383
59948,22254
59920,22117
59920,21977
59948,21840
60001,21711
60079,21595
60177,21496
60294,21418
60423,21365
60560,21338
60699,21338
60836,21365
Z" /> 
<path style="fill:#848400; fill-opacity:1.0; 
stroke:#848400; stroke-width:0; stroke-opacity:1; 
stroke-linecap:round; stroke-linejoin:round;fill-rule:evenodd;"
d="M 42349,21875
42423,21897
42423,21897
42459,21917
42492,21934
42552,21984
42601,22044
42638,22112
42661,22187
42664,22225
42666,22245
42666,22321
42666,22327
42661,22379
42638,22454
42638,22454
42620,22487
42601,22522
42552,22582
42492,22632
42423,22668
42349,22691
42271,22699
42194,22691
42119,22668
42051,22632
41990,22582
41941,22522
41904,22454
41882,22379
41877,22333
41876,22321
41876,22245
41880,22205
41882,22187
41904,22112
41904,22112
41938,22050
41941,22044
41990,21984
42051,21934
42119,21897
42194,21875
42271,21867
42349,21875
Z" /> 
<path style="fill:#848400; fill-opacity:1.0; 
stroke:#848400; stroke-width:0; stroke-opacity:1; 
stroke-linecap:round; stroke-linejoin:round;fill-rule:evenodd;"
d="M 43349,21875
43423,21897
43423,21897
43459,21917
43492,21934
43552,21984
43601,22044
43638,22112
43661,22187
43664,22225
43666,22245
43666,22321
43666,22327
43661,22379
43638,22454
43638,22454
43620,22487
43601,22522
43552,22582
43492,22632
43423,22668
43349,22691
43271,22699
43194,22691
43119,22668
43051,22632
42990,22582
42941,22522
42904,22454
42882,22379
42877,22333
42876,22321
42876,22245
42880,22205
42882,22187
42904,22112
42904,22112
42938,22050
42941,22044
42990,21984
43051,21934
43119,21897
43194,21875
43271,21867
43349,21875
Z" /> 
<path style="fill:#848400; fill-opacity:1.0; 
stroke:#848400; stroke-width:0; stroke-opacity:1; 
stroke-linecap:round; stroke-linejoin:round;fill-rule:evenodd;"
d="M 41666,22697
40876,22697
40876,21869
41666,21869
41666,22697
Z" /> 
<path style="fill:#848400; fill-opacity:1.0; 
stroke:#848400; stroke-width:0; stroke-opacity:1; 
stroke-linecap:round; stroke-linejoin:round;fill-rule:evenodd;"
d="M 26081,21725
26142,21750
26197,21787
26244,21833
26281,21888
26306,21949
26319,22014
26319,22080
26306,22144
26281,22205
26244,22260
26197,22307
26142,22344
26081,22369
26017,22382
25951,22382
25886,22369
25825,22344
25770,22307
25724,22260
25687,22205
25662,22144
25649,22080
25649,22014
25662,21949
25687,21888
25724,21833
25770,21787
25825,21750
25886,21725
25951,21712
26017,21712
26081,21725
Z" /> 
<path style="fill:#848400; fill-opacity:1.0; 
stroke:#848400; stroke-width:0; stroke-opacity:1; 
stroke-linecap:round; stroke-linejoin:round;fill-rule:evenodd;"
d="M 27604,21437
27647,21446
27730,21480
27804,21529
27867,21593
27917,21667
27951,21749
27968,21837
27968,21926
27951,22014
27945,22028
27918,22094
27917,22096
27867,22170
27804,22233
27730,22283
27647,22317
27609,22325
27560,22335
27471,22335
27422,22325
27383,22317
27301,22283
27226,22233
27163,22170
27114,22096
27113,22094
27086,22028
27080,22014
27062,21926
27062,21837
27080,21749
27114,21667
27163,21593
27226,21529
27301,21480
27383,21446
27427,21437
27471,21428
27560,21428
27604,21437
Z" /> 
<path style="fill:#848400; fill-opacity:1.0; 
stroke:#848400; stroke-width:0; stroke-opacity:1; 
stroke-linecap:round; stroke-linejoin:round;fill-rule:evenodd;"
d="M 16160,21468
16206,21480
16216,21483
16288,21509
16341,21534
16387,21569
16403,21581
16455,21639
16494,21706
16496,21711
16520,21779
16527,21826
16531,21856
16527,21934
16508,22009
16474,22079
16427,22141
16414,22153
16369,22193
16369,22193
16302,22233
16229,22259
16152,22270
16074,22266
16018,22251
15946,22225
15913,22209
15894,22200
15854,22170
15831,22153
15779,22095
15740,22028
15740,22028
15722,21977
15714,21955
15703,21878
15707,21800
15726,21725
15736,21706
15760,21655
15792,21612
15807,21592
15865,21540
15909,21514
15932,21501
15983,21483
16005,21475
16082,21464
16160,21468
Z" /> 
<path style="fill:#848400; fill-opacity:1.0; 
stroke:#848400; stroke-width:0; stroke-opacity:1; 
stroke-linecap:round; stroke-linejoin:round;fill-rule:evenodd;"
d="M 55150,21303
55224,21329
55256,21348
55291,21368
55318,21393
55349,21420
55395,21483
55415,21524
55429,21553
55448,21628
55453,21706
55442,21779
55442,21783
55416,21856
55376,21923
55324,21981
55309,21993
55262,22028
55216,22050
55209,22053
55138,22079
55081,22094
55004,22098
54927,22087
54901,22078
54853,22061
54820,22041
54786,22022
54728,21970
54681,21907
54681,21907
54648,21837
54634,21783
54629,21762
54624,21684
54635,21607
54659,21540
54661,21534
54683,21496
54701,21467
54753,21409
54811,21365
54815,21362
54845,21348
54868,21337
54939,21311
54996,21296
55073,21292
55150,21303
Z" /> 
<path style="fill:#848400; fill-opacity:1.0; 
stroke:#848400; stroke-width:0; stroke-opacity:1; 
stroke-linecap:round; stroke-linejoin:round;fill-rule:evenodd;"
d="M 49963,21406
50024,21431
50079,21468
50126,21514
50163,21569
50188,21630
50201,21695
50201,21761
50188,21826
50163,21887
50126,21941
50079,21988
50024,22025
49963,22050
49899,22063
49833,22063
49768,22050
49707,22025
49652,21988
49605,21941
49569,21887
49543,21826
49531,21761
49531,21695
49543,21630
49569,21569
49605,21514
49652,21468
49707,21431
49768,21406
49833,21393
49899,21393
49963,21406
Z" /> 
<path style="fill:#848400; fill-opacity:1.0; 
stroke:#848400; stroke-width:0; stroke-opacity:1; 
stroke-linecap:round; stroke-linejoin:round;fill-rule:evenodd;"
d="M 46596,21035
46640,21044
46722,21078
46796,21128
46859,21191
46909,21265
46936,21330
46943,21348
46958,21420
46961,21435
46961,21524
46943,21612
46909,21694
46859,21769
46796,21832
46722,21881
46722,21881
46722,21881
46710,21887
46640,21916
46596,21924
46552,21933
46463,21933
46419,21924
46375,21916
46305,21887
46293,21881
46293,21881
46293,21881
46219,21832
46155,21769
46106,21694
46072,21612
46054,21524
46054,21435
46057,21420
46072,21348
46079,21330
46106,21265
46155,21191
46219,21128
46293,21078
46375,21044
46419,21035
46463,21027
46552,21027
46596,21035
Z" /> 
<path style="fill:#848400; fill-opacity:1.0; 
stroke:#848400; stroke-width:0; stroke-opacity:1; 
stroke-linecap:round; stroke-linejoin:round;fill-rule:evenodd;"
d="M 16502,20528
16558,20543
16630,20569
16683,20594
16726,20627
16745,20641
16797,20699
16836,20766
16836,20766
16862,20839
16869,20889
16873,20916
16869,20994
16850,21069
16816,21140
16769,21202
16756,21213
16711,21254
16711,21254
16644,21293
16571,21319
16494,21330
16416,21326
16360,21311
16288,21285
16246,21265
16236,21260
16173,21213
16121,21156
16112,21140
16082,21089
16082,21089
16065,21041
16056,21015
16045,20938
16049,20860
16069,20785
16102,20715
16149,20653
16207,20601
16207,20601
16260,20569
16274,20561
16325,20543
16347,20535
16424,20524
16502,20528
Z" /> 
<path style="fill:#848400; fill-opacity:1.0; 
stroke:#848400; stroke-width:0; stroke-opacity:1; 
stroke-linecap:round; stroke-linejoin:round;fill-rule:evenodd;"
d="M 55192,20908
55220,20985
54443,21268
54443,21268
54172,20526
54341,20464
54950,20243
54950,20243
55192,20908
Z" /> 
<path style="fill:#848400; fill-opacity:1.0; 
stroke:#848400; stroke-width:0; stroke-opacity:1; 
stroke-linecap:round; stroke-linejoin:round;fill-rule:evenodd;"
d="M 23335,19942
23367,19956
23424,19979
23505,20033
23574,20102
23628,20182
23628,20182
23638,20207
23665,20272
23684,20367
23684,20464
23665,20559
23628,20649
23574,20730
23505,20798
23424,20852
23424,20852
23424,20852
23335,20889
23240,20908
23143,20908
23048,20889
22958,20852
22958,20852
22958,20852
22877,20798
22809,20730
22755,20649
22718,20559
22699,20464
22699,20367
22718,20272
22744,20207
22755,20182
22755,20182
22809,20102
22877,20033
22958,19979
23015,19956
23048,19942
23143,19923
23240,19923
23335,19942
Z" /> 
<path style="fill:#848400; fill-opacity:1.0; 
stroke:#848400; stroke-width:0; stroke-opacity:1; 
stroke-linecap:round; stroke-linejoin:round;fill-rule:evenodd;"
d="M 52367,19725
52390,19727
52475,19753
52475,19753
52554,19795
52623,19852
52679,19921
52721,20000
52721,20000
52747,20085
52756,20174
52747,20263
52730,20320
52721,20348
52679,20427
52623,20496
52554,20552
52475,20594
52475,20594
52390,20620
52367,20623
52323,20627
52278,20627
52234,20623
52212,20620
52126,20594
52126,20594
52048,20552
51979,20496
51922,20427
51880,20348
51871,20320
51854,20263
51845,20174
51854,20085
51880,20000
51880,20000
51922,19921
51979,19852
52048,19795
52126,19753
52126,19753
52212,19727
52234,19725
52278,19721
52323,19721
52367,19725
Z" /> 
<path style="fill:#848400; fill-opacity:1.0; 
stroke:#848400; stroke-width:0; stroke-opacity:1; 
stroke-linecap:round; stroke-linejoin:round;fill-rule:evenodd;"
d="M 8444,19788
8505,19813
8560,19849
8606,19896
8643,19951
8668,20012
8681,20077
8681,20143
8668,20207
8643,20268
8606,20323
8560,20370
8505,20407
8444,20432
8379,20445
8313,20445
8248,20432
8187,20407
8132,20370
8086,20323
8049,20268
8024,20207
8011,20143
8011,20077
8024,20012
8049,19951
8086,19896
8132,19849
8187,19813
8248,19788
8313,19775
8379,19775
8444,19788
Z" /> 
<path style="fill:#848400; fill-opacity:1.0; 
stroke:#848400; stroke-width:0; stroke-opacity:1; 
stroke-linecap:round; stroke-linejoin:round;fill-rule:evenodd;"
d="M 24766,19737
24011,20370
23378,19616
24133,18983
24766,19737
Z" /> 
<path style="fill:#848400; fill-opacity:1.0; 
stroke:#848400; stroke-width:0; stroke-opacity:1; 
stroke-linecap:round; stroke-linejoin:round;fill-rule:evenodd;"
d="M 18907,19418
18929,19420
19014,19446
19014,19446
19093,19488
19162,19545
19219,19614
19237,19648
19261,19692
19287,19778
19295,19867
19287,19956
19263,20035
19261,20041
19219,20120
19162,20189
19093,20245
19043,20272
19014,20287
18929,20313
18907,20315
18862,20320
18818,20320
18773,20315
18751,20313
18666,20287
18637,20272
18587,20245
18518,20189
18461,20120
18419,20041
18417,20035
18393,19956
18385,19867
18393,19778
18419,19692
18443,19648
18461,19614
18518,19545
18587,19488
18666,19446
18666,19446
18751,19420
18773,19418
18818,19414
18862,19414
18907,19418
Z" /> 
<path style="fill:#848400; fill-opacity:1.0; 
stroke:#848400; stroke-width:0; stroke-opacity:1; 
stroke-linecap:round; stroke-linejoin:round;fill-rule:evenodd;"
d="M 21774,19540
21835,19565
21890,19601
21937,19648
21974,19703
21999,19764
22012,19829
22012,19895
21999,19959
21974,20020
21937,20075
21890,20122
21835,20159
21774,20184
21710,20197
21644,20197
21579,20184
21518,20159
21463,20122
21416,20075
21380,20020
21355,19959
21342,19895
21342,19829
21355,19764
21380,19703
21416,19648
21463,19601
21518,19565
21579,19540
21644,19527
21710,19527
21774,19540
Z" /> 
<path style="fill:#848400; fill-opacity:1.0; 
stroke:#848400; stroke-width:0; stroke-opacity:1; 
stroke-linecap:round; stroke-linejoin:round;fill-rule:evenodd;"
d="M 10260,19178
10336,19210
10350,19216
10430,19269
10499,19338
10549,19414
10553,19419
10590,19508
10609,19603
10609,19701
10590,19796
10560,19869
10553,19885
10499,19966
10430,20035
10350,20088
10350,20088
10350,20088
10260,20126
10165,20145
10068,20145
9973,20126
9883,20088
9883,20088
9883,20088
9802,20035
9734,19966
9680,19885
9673,19869
9643,19796
9624,19701
9624,19603
9643,19508
9680,19419
9683,19414
9734,19338
9802,19269
9883,19216
9896,19210
9973,19178
10068,19159
10165,19159
10260,19178
Z" /> 
<path style="fill:#848400; fill-opacity:1.0; 
stroke:#848400; stroke-width:0; stroke-opacity:1; 
stroke-linecap:round; stroke-linejoin:round;fill-rule:evenodd;"
d="M 20270,18983
21021,19256
21021,19256
20977,19377
20711,20108
20711,20108
20414,20000
19860,19798
19861,19795
19988,19445
20170,18946
20170,18946
20270,18983
Z" /> 
<path style="fill:#848400; fill-opacity:1.0; 
stroke:#848400; stroke-width:0; stroke-opacity:1; 
stroke-linecap:round; stroke-linejoin:round;fill-rule:evenodd;"
d="M 34034,19113
34100,19133
34100,19133
34162,19166
34216,19210
34240,19239
34260,19264
34293,19326
34314,19393
34319,19445
34319,19578
34314,19630
34293,19697
34260,19759
34256,19764
34216,19813
34179,19843
34162,19857
34100,19890
34034,19910
33964,19917
33895,19910
33828,19890
33766,19857
33712,19813
33668,19759
33635,19697
33614,19630
33612,19603
33609,19578
33609,19445
33614,19393
33614,19393
33635,19326
33657,19285
33668,19264
33712,19210
33754,19176
33766,19166
33828,19133
33895,19113
33964,19106
34034,19113
Z" /> 
<path style="fill:#848400; fill-opacity:1.0; 
stroke:#848400; stroke-width:0; stroke-opacity:1; 
stroke-linecap:round; stroke-linejoin:round;fill-rule:evenodd;"
d="M 33049,19113
33116,19133
33116,19133
33178,19166
33232,19210
33256,19239
33276,19264
33309,19326
33329,19393
33335,19445
33335,19578
33329,19630
33309,19697
33276,19759
33272,19764
33232,19813
33194,19843
33178,19857
33116,19890
33049,19910
32980,19917
32910,19910
32843,19890
32782,19857
32728,19813
32683,19759
32651,19697
32630,19630
32628,19603
32625,19578
32625,19445
32630,19393
32630,19393
32651,19326
32672,19285
32683,19264
32728,19210
32770,19176
32782,19166
32843,19133
32910,19113
32980,19106
33049,19113
Z" /> 
<path style="fill:#848400; fill-opacity:1.0; 
stroke:#848400; stroke-width:0; stroke-opacity:1; 
stroke-linecap:round; stroke-linejoin:round;fill-rule:evenodd;"
d="M 31081,19113
31148,19133
31148,19133
31209,19166
31263,19210
31287,19239
31308,19264
31341,19326
31361,19393
31366,19445
31366,19578
31361,19630
31341,19697
31308,19759
31303,19764
31263,19813
31226,19843
31209,19857
31148,19890
31081,19910
31011,19917
30942,19910
30875,19890
30813,19857
30759,19813
30715,19759
30682,19697
30662,19630
30659,19603
30657,19578
30657,19445
30662,19393
30662,19393
30682,19326
30704,19285
30715,19264
30759,19210
30801,19176
30813,19166
30875,19133
30942,19113
31011,19106
31081,19113
Z" /> 
<path style="fill:#848400; fill-opacity:1.0; 
stroke:#848400; stroke-width:0; stroke-opacity:1; 
stroke-linecap:round; stroke-linejoin:round;fill-rule:evenodd;"
d="M 32065,19113
32132,19133
32132,19133
32194,19166
32248,19210
32271,19239
32292,19264
32325,19326
32345,19393
32350,19445
32350,19578
32345,19630
32325,19697
32292,19759
32287,19764
32248,19813
32210,19843
32194,19857
32132,19890
32065,19910
31996,19917
31926,19910
31859,19890
31798,19857
31744,19813
31699,19759
31666,19697
31646,19630
31643,19603
31641,19578
31641,19445
31646,19393
31646,19393
31666,19326
31688,19285
31699,19264
31744,19210
31786,19176
31798,19166
31859,19133
31926,19113
31996,19106
32065,19113
Z" /> 
<path style="fill:#848400; fill-opacity:1.0; 
stroke:#848400; stroke-width:0; stroke-opacity:1; 
stroke-linecap:round; stroke-linejoin:round;fill-rule:evenodd;"
d="M 30326,19109
30339,19113
30351,19119
30361,19128
30370,19138
30376,19150
30380,19163
30382,19179
30382,19843
30380,19859
30376,19872
30370,19884
30361,19895
30351,19903
30339,19910
30326,19914
30310,19915
29744,19915
29728,19914
29715,19910
29703,19903
29693,19895
29684,19884
29678,19872
29674,19859
29672,19843
29672,19179
29674,19163
29678,19150
29684,19138
29693,19128
29703,19119
29715,19113
29728,19109
29744,19107
30310,19107
30326,19109
Z" /> 
<path style="fill:#848400; fill-opacity:1.0; 
stroke:#848400; stroke-width:0; stroke-opacity:1; 
stroke-linecap:round; stroke-linejoin:round;fill-rule:evenodd;"
d="M 37089,19017
36456,19772
35701,19139
36334,18384
37089,19017
Z" /> 
<path style="fill:#848400; fill-opacity:1.0; 
stroke:#848400; stroke-width:0; stroke-opacity:1; 
stroke-linecap:round; stroke-linejoin:round;fill-rule:evenodd;"
d="M 11691,18973
10937,19607
10303,18852
11058,18219
11691,18973
Z" /> 
<path style="fill:#848400; fill-opacity:1.0; 
stroke:#848400; stroke-width:0; stroke-opacity:1; 
stroke-linecap:round; stroke-linejoin:round;fill-rule:evenodd;"
d="M 26049,18717
26113,18736
26165,18764
26171,18767
26222,18809
26264,18860
26264,18860
26295,18918
26314,18981
26320,19047
26314,19112
26295,19176
26271,19220
26264,19234
26222,19285
26171,19327
26171,19327
26113,19358
26049,19377
26000,19382
25967,19382
25918,19377
25855,19358
25797,19327
25797,19327
25746,19285
25704,19234
25696,19220
25673,19176
25654,19112
25647,19047
25654,18981
25673,18918
25704,18860
25704,18860
25746,18809
25797,18767
25803,18764
25855,18736
25918,18717
25967,18712
26000,18712
26049,18717
Z" /> 
<path style="fill:#848400; fill-opacity:1.0; 
stroke:#848400; stroke-width:0; stroke-opacity:1; 
stroke-linecap:round; stroke-linejoin:round;fill-rule:evenodd;"
d="M 48905,18579
48968,18598
49011,18620
49027,18629
49078,18671
49120,18722
49120,18722
49151,18780
49170,18843
49176,18909
49170,18974
49151,19038
49123,19090
49120,19096
49078,19147
49027,19189
49027,19189
48968,19220
48905,19239
48856,19244
48823,19244
48774,19239
48711,19220
48653,19189
48653,19189
48602,19147
48560,19096
48556,19090
48529,19038
48509,18974
48503,18909
48509,18843
48529,18780
48560,18722
48560,18722
48602,18671
48653,18629
48669,18620
48711,18598
48774,18579
48823,18574
48856,18574
48905,18579
Z" /> 
<path style="fill:#848400; fill-opacity:1.0; 
stroke:#848400; stroke-width:0; stroke-opacity:1; 
stroke-linecap:round; stroke-linejoin:round;fill-rule:evenodd;"
d="M 50241,18032
50264,18034
50349,18060
50349,18060
50428,18102
50497,18159
50553,18228
50593,18303
50595,18307
50621,18392
50630,18481
50621,18570
50602,18634
50595,18655
50553,18734
50497,18803
50428,18859
50349,18902
50349,18902
50264,18927
50241,18930
50197,18934
50152,18934
50108,18930
50086,18927
50000,18902
50000,18902
49922,18859
49853,18803
49796,18734
49754,18655
49748,18634
49728,18570
49719,18481
49728,18392
49754,18307
49756,18303
49796,18228
49853,18159
49922,18102
50000,18060
50000,18060
50086,18034
50108,18032
50152,18028
50197,18028
50241,18032
Z" /> 
<path style="fill:#848400; fill-opacity:1.0; 
stroke:#848400; stroke-width:0; stroke-opacity:1; 
stroke-linecap:round; stroke-linejoin:round;fill-rule:evenodd;"
d="M 37278,17724
37339,17749
37367,17761
37448,17815
37517,17883
37569,17961
37571,17964
37608,18053
37627,18149
37627,18246
37608,18341
37601,18357
37571,18430
37517,18511
37448,18580
37367,18634
37367,18634
37367,18634
37278,18671
37183,18690
37086,18690
36991,18671
36901,18634
36901,18634
36901,18634
36820,18580
36752,18511
36698,18430
36667,18357
36661,18341
36642,18246
36642,18149
36661,18053
36698,17964
36699,17961
36752,17883
36820,17815
36901,17761
36929,17749
36991,17724
37086,17705
37183,17705
37278,17724
Z" /> 
<path style="fill:#848400; fill-opacity:1.0; 
stroke:#848400; stroke-width:0; stroke-opacity:1; 
stroke-linecap:round; stroke-linejoin:round;fill-rule:evenodd;"
d="M 19234,17740
19277,17749
19306,17761
19359,17783
19360,17783
19434,17833
19497,17896
19547,17970
19581,18052
19583,18063
19598,18140
19598,18229
19596,18241
19581,18317
19572,18338
19550,18392
19547,18399
19497,18473
19434,18537
19360,18586
19277,18620
19234,18629
19190,18638
19101,18638
19056,18629
19013,18620
18931,18586
18856,18537
18793,18473
18744,18399
18741,18392
18718,18338
18709,18317
18694,18241
18692,18229
18692,18140
18707,18063
18709,18052
18744,17970
18793,17896
18856,17833
18931,17783
18931,17783
18984,17761
19013,17749
19057,17740
19101,17731
19190,17731
19234,17740
Z" /> 
<path style="fill:#848400; fill-opacity:1.0; 
stroke:#848400; stroke-width:0; stroke-opacity:1; 
stroke-linecap:round; stroke-linejoin:round;fill-rule:evenodd;"
d="M 47382,17839
46749,18593
45994,17960
46628,17205
47382,17839
Z" /> 
<path style="fill:#848400; fill-opacity:1.0; 
stroke:#848400; stroke-width:0; stroke-opacity:1; 
stroke-linecap:round; stroke-linejoin:round;fill-rule:evenodd;"
d="M 9444,17783
9504,17807
9557,17843
9602,17888
9638,17941
9662,18000
9675,18063
9675,18127
9662,18190
9638,18249
9602,18303
9557,18348
9504,18383
9444,18408
9382,18420
9317,18420
9255,18408
9195,18383
9142,18348
9097,18303
9061,18249
9037,18190
9024,18127
9024,18063
9037,18000
9061,17941
9097,17888
9142,17843
9195,17807
9255,17783
9317,17770
9382,17770
9444,17783
Z" /> 
<path style="fill:#848400; fill-opacity:1.0; 
stroke:#848400; stroke-width:0; stroke-opacity:1; 
stroke-linecap:round; stroke-linejoin:round;fill-rule:evenodd;"
d="M 23758,17697
23821,17716
23873,17744
23879,17747
23930,17789
23972,17840
23972,17840
24003,17898
24023,17961
24029,18027
24023,18093
24003,18156
23987,18186
23972,18214
23930,18265
23879,18307
23879,18307
23821,18338
23758,18357
23709,18362
23676,18362
23627,18357
23564,18338
23505,18307
23505,18307
23454,18265
23412,18214
23397,18186
23381,18156
23362,18093
23356,18027
23362,17961
23381,17898
23412,17840
23412,17840
23454,17789
23505,17747
23511,17744
23564,17716
23627,17697
23676,17692
23709,17692
23758,17697
Z" /> 
<path style="fill:#848400; fill-opacity:1.0; 
stroke:#848400; stroke-width:0; stroke-opacity:1; 
stroke-linecap:round; stroke-linejoin:round;fill-rule:evenodd;"
d="M 20790,17705
20851,17730
20906,17767
20953,17813
20989,17868
21015,17929
21027,17994
21027,18060
21015,18125
20989,18186
20953,18241
20906,18287
20851,18324
20790,18349
20725,18362
20659,18362
20595,18349
20534,18324
20479,18287
20432,18241
20396,18186
20370,18125
20357,18060
20357,17994
20370,17929
20396,17868
20432,17813
20479,17767
20534,17730
20595,17705
20659,17692
20725,17692
20790,17705
Z" /> 
<path style="fill:#848400; fill-opacity:1.0; 
stroke:#848400; stroke-width:0; stroke-opacity:1; 
stroke-linecap:round; stroke-linejoin:round;fill-rule:evenodd;"
d="M 6483,17481
6546,17501
6599,17528
6605,17532
6656,17574
6698,17625
6698,17625
6729,17683
6748,17746
6754,17812
6748,17877
6729,17940
6716,17964
6698,17999
6656,18050
6605,18092
6605,18092
6546,18123
6483,18142
6434,18147
6401,18147
6352,18142
6289,18123
6231,18092
6231,18092
6180,18050
6138,17999
6119,17964
6107,17940
6087,17877
6081,17812
6087,17746
6107,17683
6138,17625
6138,17625
6180,17574
6231,17532
6237,17528
6289,17501
6352,17481
6401,17477
6434,17477
6483,17481
Z" /> 
<path style="fill:#848400; fill-opacity:1.0; 
stroke:#848400; stroke-width:0; stroke-opacity:1; 
stroke-linecap:round; stroke-linejoin:round;fill-rule:evenodd;"
d="M 7788,17260
7290,17678
6872,17180
7370,16762
7788,17260
Z" /> 
<path style="fill:#848400; fill-opacity:1.0; 
stroke:#848400; stroke-width:0; stroke-opacity:1; 
stroke-linecap:round; stroke-linejoin:round;fill-rule:evenodd;"
d="M 61538,16923
60904,17677
60150,17044
60783,16290
61538,16923
Z" /> 
<path style="fill:#848400; fill-opacity:1.0; 
stroke:#848400; stroke-width:0; stroke-opacity:1; 
stroke-linecap:round; stroke-linejoin:round;fill-rule:evenodd;"
d="M 45951,16687
46041,16724
46121,16778
46190,16846
46244,16927
46244,16927
46281,17016
46300,17112
46300,17209
46281,17304
46268,17335
46244,17393
46190,17474
46121,17543
46041,17597
46041,17597
46041,17597
45951,17634
45856,17653
45759,17653
45664,17634
45574,17597
45574,17597
45574,17597
45493,17543
45425,17474
45371,17393
45347,17335
45334,17304
45315,17209
45315,17112
45334,17016
45371,16927
45371,16927
45425,16846
45493,16778
45574,16724
45664,16687
45759,16668
45856,16668
45951,16687
Z" /> 
<path style="fill:#848400; fill-opacity:1.0; 
stroke:#848400; stroke-width:0; stroke-opacity:1; 
stroke-linecap:round; stroke-linejoin:round;fill-rule:evenodd;"
d="M 11418,16855
11479,16880
11534,16917
11580,16963
11617,17018
11642,17079
11655,17144
11655,17210
11642,17274
11617,17335
11580,17390
11534,17437
11479,17474
11418,17499
11353,17512
11287,17512
11222,17499
11161,17474
11106,17437
11060,17390
11023,17335
10998,17274
10985,17210
10985,17144
10998,17079
11023,17018
11060,16963
11106,16917
11161,16880
11222,16855
11287,16842
11353,16842
11418,16855
Z" /> 
<path style="fill:#848400; fill-opacity:1.0; 
stroke:#848400; stroke-width:0; stroke-opacity:1; 
stroke-linecap:round; stroke-linejoin:round;fill-rule:evenodd;"
d="M 33915,16240
33958,16249
34003,16267
34033,16280
34041,16283
34115,16333
34178,16396
34228,16470
34262,16552
34279,16640
34279,16729
34262,16817
34228,16899
34178,16973
34115,17037
34041,17086
33958,17120
33915,17129
33871,17138
33782,17138
33738,17129
33694,17120
33612,17086
33537,17037
33474,16973
33425,16899
33391,16817
33373,16729
33373,16640
33391,16552
33425,16470
33474,16396
33537,16333
33612,16283
33619,16280
33649,16267
33694,16249
33738,16240
33782,16231
33871,16231
33915,16240
Z" /> 
<path style="fill:#848400; fill-opacity:1.0; 
stroke:#848400; stroke-width:0; stroke-opacity:1; 
stroke-linecap:round; stroke-linejoin:round;fill-rule:evenodd;"
d="M 61727,15629
61758,15642
61816,15666
61897,15720
61966,15789
62019,15869
62057,15959
62076,16054
62076,16151
62057,16246
62019,16336
61966,16417
61897,16485
61816,16539
61816,16539
61816,16539
61727,16576
61631,16595
61534,16595
61439,16576
61350,16539
61350,16539
61350,16539
61269,16485
61200,16417
61147,16336
61109,16246
61090,16151
61090,16054
61109,15959
61147,15869
61200,15789
61269,15720
61350,15666
61408,15642
61439,15629
61534,15610
61631,15610
61727,15629
Z" /> 
<path style="fill:#848400; fill-opacity:1.0; 
stroke:#848400; stroke-width:0; stroke-opacity:1; 
stroke-linecap:round; stroke-linejoin:round;fill-rule:evenodd;"
d="M 8933,15642
8992,15666
9045,15702
9091,15747
9126,15801
9151,15860
9163,15923
9163,15987
9151,16049
9126,16109
9091,16162
9045,16207
8992,16243
8933,16267
8870,16280
8806,16280
8743,16267
8684,16243
8631,16207
8586,16162
8550,16109
8525,16049
8513,15987
8513,15923
8525,15860
8550,15801
8586,15747
8631,15702
8684,15666
8743,15642
8806,15629
8870,15629
8933,15642
Z" /> 
<path style="fill:#848400; fill-opacity:1.0; 
stroke:#848400; stroke-width:0; stroke-opacity:1; 
stroke-linecap:round; stroke-linejoin:round;fill-rule:evenodd;"
d="M 10152,15347
10213,15372
10268,15409
10315,15455
10352,15510
10377,15571
10390,15636
10390,15702
10377,15767
10352,15827
10315,15882
10268,15929
10213,15966
10152,15991
10088,16004
10022,16004
9957,15991
9896,15966
9841,15929
9794,15882
9758,15827
9732,15767
9720,15702
9720,15636
9732,15571
9758,15510
9794,15455
9841,15409
9896,15372
9957,15347
10022,15334
10088,15334
10152,15347
Z" /> 
<path style="fill:#848400; fill-opacity:1.0; 
stroke:#848400; stroke-width:0; stroke-opacity:1; 
stroke-linecap:round; stroke-linejoin:round;fill-rule:evenodd;"
d="M 60030,15731
59045,15731
59045,14746
60030,14746
60030,15731
Z" /> 
<path style="fill:#848400; fill-opacity:1.0; 
stroke:#848400; stroke-width:0; stroke-opacity:1; 
stroke-linecap:round; stroke-linejoin:round;fill-rule:evenodd;"
d="M 9421,15075
8515,15075
8515,14168
9421,14168
9421,15075
Z" /> 
<path style="fill:#848400; fill-opacity:1.0; 
stroke:#848400; stroke-width:0; stroke-opacity:1; 
stroke-linecap:round; stroke-linejoin:round;fill-rule:evenodd;"
d="M 53169,14587
51554,14587
51554,12972
53169,12972
53169,14587
Z" /> 
<path style="fill:#848400; fill-opacity:1.0; 
stroke:#848400; stroke-width:0; stroke-opacity:1; 
stroke-linecap:round; stroke-linejoin:round;fill-rule:evenodd;"
d="M 40964,14587
39350,14587
39350,12972
40964,12972
40964,14587
Z" /> 
<path style="fill:#848400; fill-opacity:1.0; 
stroke:#848400; stroke-width:0; stroke-opacity:1; 
stroke-linecap:round; stroke-linejoin:round;fill-rule:evenodd;"
d="M 59681,13615
59714,13629
59771,13652
59852,13706
59920,13775
59920,13775
59974,13856
60011,13945
60030,14040
60030,14137
60011,14233
59989,14286
59974,14322
59920,14403
59852,14471
59771,14525
59771,14525
59771,14525
59681,14562
59586,14581
59489,14581
59394,14562
59304,14525
59304,14525
59304,14525
59224,14471
59155,14403
59101,14322
59086,14286
59064,14233
59045,14137
59045,14040
59064,13945
59101,13856
59155,13775
59155,13775
59224,13706
59304,13652
59362,13629
59394,13615
59489,13596
59586,13596
59681,13615
Z" /> 
<path style="fill:#848400; fill-opacity:1.0; 
stroke:#848400; stroke-width:0; stroke-opacity:1; 
stroke-linecap:round; stroke-linejoin:round;fill-rule:evenodd;"
d="M 16062,12995
16209,13056
16209,13056
16341,13144
16453,13256
16500,13326
16542,13389
16603,13536
16634,13692
16634,13851
16603,14007
16589,14040
16542,14154
16453,14286
16341,14398
16209,14487
16209,14487
16209,14487
16062,14548
15906,14579
15747,14579
15591,14548
15444,14487
15444,14487
15444,14487
15312,14398
15199,14286
15111,14154
15064,14040
15050,14007
15019,13851
15019,13692
15050,13536
15111,13389
15153,13326
15199,13256
15312,13144
15444,13056
15444,13056
15591,12995
15747,12964
15906,12964
16062,12995
Z" /> 
<path style="fill:#848400; fill-opacity:1.0; 
stroke:#848400; stroke-width:0; stroke-opacity:1; 
stroke-linecap:round; stroke-linejoin:round;fill-rule:evenodd;"
d="M 28184,12932
28331,12993
28331,12993
28378,13024
28463,13081
28576,13193
28664,13326
28725,13473
28756,13629
28756,13788
28725,13944
28699,14007
28664,14091
28576,14223
28463,14335
28331,14424
28331,14424
28331,14424
28184,14485
28028,14516
27869,14516
27713,14485
27566,14424
27566,14424
27566,14424
27434,14335
27321,14223
27233,14091
27198,14007
27172,13944
27141,13788
27141,13629
27172,13473
27233,13326
27321,13193
27434,13081
27518,13024
27566,12993
27566,12993
27713,12932
27869,12901
28028,12901
28184,12932
Z" /> 
<path style="fill:#848400; fill-opacity:1.0; 
stroke:#848400; stroke-width:0; stroke-opacity:1; 
stroke-linecap:round; stroke-linejoin:round;fill-rule:evenodd;"
d="M 7096,12742
7122,12744
7189,12765
7251,12798
7265,12809
7305,12842
7337,12882
7349,12896
7382,12958
7402,13024
7409,13094
7402,13164
7382,13230
7349,13292
7337,13306
7305,13346
7265,13379
7251,13390
7189,13423
7122,13444
7096,13446
7070,13449
6937,13449
6911,13446
6885,13444
6818,13423
6756,13390
6742,13379
6702,13346
6669,13306
6658,13292
6625,13230
6605,13164
6598,13094
6605,13024
6625,12958
6658,12896
6669,12882
6702,12842
6742,12809
6756,12798
6818,12765
6885,12744
6911,12742
6937,12739
7070,12739
7096,12742
Z" /> 
<path style="fill:#848400; fill-opacity:1.0; 
stroke:#848400; stroke-width:0; stroke-opacity:1; 
stroke-linecap:round; stroke-linejoin:round;fill-rule:evenodd;"
d="M 60429,11929
60488,11953
60541,11989
60587,12034
60622,12087
60647,12146
60659,12209
60659,12273
60647,12336
60622,12395
60587,12449
60541,12494
60488,12529
60429,12554
60366,12566
60302,12566
60239,12554
60180,12529
60127,12494
60081,12449
60046,12395
60021,12336
60009,12273
60009,12209
60021,12146
60046,12087
60081,12034
60127,11989
60180,11953
60239,11929
60302,11916
60366,11916
60429,11929
Z" /> 
<path style="fill:#848400; fill-opacity:1.0; 
stroke:#848400; stroke-width:0; stroke-opacity:1; 
stroke-linecap:round; stroke-linejoin:round;fill-rule:evenodd;"
d="M 7096,11758
7122,11760
7189,11780
7251,11813
7265,11825
7305,11858
7337,11898
7349,11912
7382,11973
7402,12040
7409,12110
7402,12179
7382,12246
7349,12308
7337,12322
7305,12362
7265,12395
7251,12406
7189,12439
7122,12459
7096,12462
7070,12464
6937,12464
6911,12462
6885,12459
6818,12439
6756,12406
6742,12395
6702,12362
6669,12322
6658,12308
6625,12246
6605,12179
6598,12110
6605,12040
6625,11973
6658,11912
6669,11898
6702,11858
6742,11825
6756,11813
6818,11780
6885,11760
6911,11758
6937,11755
7070,11755
7096,11758
Z" /> 
<path style="fill:#848400; fill-opacity:1.0; 
stroke:#848400; stroke-width:0; stroke-opacity:1; 
stroke-linecap:round; stroke-linejoin:round;fill-rule:evenodd;"
d="M 7351,10772
7364,10776
7376,10783
7387,10791
7395,10802
7402,10814
7406,10827
7407,10843
7407,11408
7406,11424
7402,11437
7395,11449
7387,11460
7376,11468
7364,11475
7351,11479
7335,11480
6672,11480
6656,11479
6643,11475
6631,11468
6620,11460
6611,11449
6605,11437
6601,11424
6600,11408
6600,10843
6601,10827
6605,10814
6611,10802
6620,10791
6631,10783
6643,10776
6656,10772
6672,10771
7335,10771
7351,10772
Z" /> 
<path style="fill:#848400; fill-opacity:1.0; 
stroke:#848400; stroke-width:0; stroke-opacity:1; 
stroke-linecap:round; stroke-linejoin:round;fill-rule:evenodd;"
d="M 62300,11016
61802,11434
61384,10936
61882,10518
62300,11016
Z" /> 
<path style="fill:#848400; fill-opacity:1.0; 
stroke:#848400; stroke-width:0; stroke-opacity:1; 
stroke-linecap:round; stroke-linejoin:round;fill-rule:evenodd;"
d="M 9035,10173
9057,10175
9142,10201
9142,10201
9221,10243
9290,10300
9347,10369
9389,10447
9389,10447
9415,10533
9423,10622
9415,10710
9390,10791
9389,10796
9347,10875
9290,10944
9221,11000
9142,11042
9142,11042
9057,11068
9035,11070
8990,11075
8946,11075
8901,11070
8879,11068
8794,11042
8794,11042
8715,11000
8646,10944
8589,10875
8547,10796
8546,10791
8521,10710
8513,10622
8521,10533
8547,10447
8547,10447
8589,10369
8646,10300
8715,10243
8794,10201
8794,10201
8879,10175
8901,10173
8946,10168
8990,10168
9035,10173
Z" /> 
<path style="fill:#848400; fill-opacity:1.0; 
stroke:#848400; stroke-width:0; stroke-opacity:1; 
stroke-linecap:round; stroke-linejoin:round;fill-rule:evenodd;"
d="M 40393,9066
40539,9126
40539,9126
40615,9177
40672,9215
40784,9327
40873,9460
40933,9606
40964,9762
40964,9922
40933,10078
40885,10195
40873,10225
40784,10357
40672,10469
40539,10558
40539,10558
40539,10558
40393,10618
40237,10650
40077,10650
39921,10618
39774,10558
39774,10558
39774,10558
39642,10469
39530,10357
39441,10225
39429,10195
39381,10078
39350,9922
39350,9762
39381,9606
39441,9460
39530,9327
39642,9215
39699,9177
39774,9126
39774,9126
39921,9066
40077,9035
40237,9035
40393,9066
Z" /> 
<path style="fill:#848400; fill-opacity:1.0; 
stroke:#848400; stroke-width:0; stroke-opacity:1; 
stroke-linecap:round; stroke-linejoin:round;fill-rule:evenodd;"
d="M 52597,9066
52744,9126
52744,9126
52820,9177
52876,9215
52989,9327
53077,9460
53138,9606
53169,9762
53169,9922
53138,10078
53089,10195
53077,10225
52989,10357
52876,10469
52744,10558
52744,10558
52744,10558
52597,10618
52441,10650
52282,10650
52126,10618
51979,10558
51979,10558
51979,10558
51847,10469
51734,10357
51646,10225
51634,10195
51585,10078
51554,9922
51554,9762
51585,9606
51646,9460
51734,9327
51847,9215
51903,9177
51979,9126
51979,9126
52126,9066
52282,9035
52441,9035
52597,9066
Z" /> 
<path style="fill:#848400; fill-opacity:1.0; 
stroke:#848400; stroke-width:0; stroke-opacity:1; 
stroke-linecap:round; stroke-linejoin:round;fill-rule:evenodd;"
d="M 16634,10642
15019,10642
15019,9027
16634,9027
16634,10642
Z" /> 
<path style="fill:#848400; fill-opacity:1.0; 
stroke:#848400; stroke-width:0; stroke-opacity:1; 
stroke-linecap:round; stroke-linejoin:round;fill-rule:evenodd;"
d="M 28756,10579
27141,10579
27141,8964
28756,8964
28756,10579
Z" /> 
<path style="fill:#848400; fill-opacity:1.0; 
stroke:#848400; stroke-width:0; stroke-opacity:1; 
stroke-linecap:round; stroke-linejoin:round;fill-rule:evenodd;"
d="M 59918,9788
59977,9812
60030,9848
60075,9893
60111,9947
60135,10006
60148,10069
60148,10133
60135,10195
60111,10255
60075,10308
60030,10353
59977,10389
59918,10413
59855,10426
59791,10426
59728,10413
59669,10389
59615,10353
59570,10308
59535,10255
59510,10195
59498,10133
59498,10069
59510,10006
59535,9947
59570,9893
59615,9848
59669,9812
59728,9788
59791,9775
59855,9775
59918,9788
Z" /> 
<path style="fill:#848400; fill-opacity:1.0; 
stroke:#848400; stroke-width:0; stroke-opacity:1; 
stroke-linecap:round; stroke-linejoin:round;fill-rule:evenodd;"
d="M 9130,9248
8436,9831
7853,9137
8547,8554
9130,9248
Z" /> 
<path style="fill:#848400; fill-opacity:1.0; 
stroke:#848400; stroke-width:0; stroke-opacity:1; 
stroke-linecap:round; stroke-linejoin:round;fill-rule:evenodd;"
d="M 58790,8595
58851,8620
58906,8657
58953,8703
58989,8758
59015,8819
59027,8884
59027,8950
59015,9015
58989,9076
58953,9130
58906,9177
58851,9214
58790,9239
58725,9252
58659,9252
58595,9239
58534,9214
58479,9177
58432,9130
58396,9076
58370,9015
58357,8950
58357,8884
58370,8819
58396,8758
58432,8703
58479,8657
58534,8620
58595,8595
58659,8582
58725,8582
58790,8595
Z" /> 
<path style="fill:#848400; fill-opacity:1.0; 
stroke:#848400; stroke-width:0; stroke-opacity:1; 
stroke-linecap:round; stroke-linejoin:round;fill-rule:evenodd;"
d="M 34268,7555
34329,7581
34384,7617
34431,7664
34467,7719
34493,7780
34505,7845
34505,7911
34493,7975
34467,8036
34431,8091
34384,8138
34329,8174
34268,8200
34203,8213
34137,8213
34073,8200
34012,8174
33957,8138
33910,8091
33873,8036
33848,7975
33835,7911
33835,7845
33848,7780
33873,7719
33910,7664
33957,7617
34012,7581
34073,7555
34137,7543
34203,7543
34268,7555
Z" /> 
<path style="fill:#848400; fill-opacity:1.0; 
stroke:#848400; stroke-width:0; stroke-opacity:1; 
stroke-linecap:round; stroke-linejoin:round;fill-rule:evenodd;"
d="M 60836,6404
60965,6458
61081,6535
61180,6634
61258,6750
61311,6879
61338,7016
61338,7156
61311,7293
61258,7422
61180,7538
61081,7637
60965,7714
60836,7768
60699,7795
60560,7795
60423,7768
60294,7714
60177,7637
60079,7538
60001,7422
59948,7293
59920,7156
59920,7016
59948,6879
60001,6750
60079,6634
60177,6535
60294,6458
60423,6404
60560,6377
60699,6377
60836,6404
Z" /> 
<path style="fill:#848400; fill-opacity:1.0; 
stroke:#848400; stroke-width:0; stroke-opacity:1; 
stroke-linecap:round; stroke-linejoin:round;fill-rule:evenodd;"
d="M 7293,6404
7422,6458
7538,6535
7637,6634
7714,6750
7768,6879
7795,7016
7795,7156
7768,7293
7714,7422
7637,7538
7538,7637
7422,7714
7293,7768
7156,7795
7016,7795
6879,7768
6750,7714
6634,7637
6535,7538
6458,7422
6404,7293
6377,7156
6377,7016
6404,6879
6458,6750
6535,6634
6634,6535
6750,6458
6879,6404
7016,6377
7156,6377
7293,6404
Z" /> 
<path style="fill:#848400; fill-opacity:1.0; 
stroke:#848400; stroke-width:0; stroke-opacity:1; 
stroke-linecap:round; stroke-linejoin:round;fill-rule:evenodd;"
d="M 11622,6172
11645,6175
11730,6201
11730,6201
11809,6243
11878,6299
11934,6368
11954,6404
11976,6447
12002,6532
12002,6532
12011,6621
12002,6710
11976,6796
11934,6874
11878,6943
11809,7000
11730,7042
11730,7042
11645,7068
11622,7070
11578,7074
11534,7074
11489,7070
11467,7068
11382,7042
11382,7042
11303,7000
11234,6943
11177,6874
11135,6796
11109,6710
11100,6621
11109,6532
11109,6532
11135,6447
11158,6404
11177,6368
11234,6299
11303,6243
11382,6201
11382,6201
11467,6175
11489,6172
11534,6168
11578,6168
11622,6172
Z" /> 
<path style="fill:#848400; fill-opacity:1.0; 
stroke:#848400; stroke-width:0; stroke-opacity:1; 
stroke-linecap:round; stroke-linejoin:round;fill-rule:evenodd;"
d="M 33003,6047
33064,6073
33119,6109
33165,6156
33202,6211
33227,6272
33240,6337
33240,6403
33227,6467
33202,6528
33165,6583
33119,6630
33064,6666
33003,6692
32938,6705
32872,6705
32807,6692
32746,6666
32691,6630
32645,6583
32608,6528
32583,6467
32570,6403
32570,6337
32583,6272
32608,6211
32645,6156
32691,6109
32746,6073
32807,6047
32872,6035
32938,6035
33003,6047
Z" /> 
<path style="fill:#848400; fill-opacity:1.0; 
stroke:#848400; stroke-width:0; stroke-opacity:1; 
stroke-linecap:round; stroke-linejoin:round;fill-rule:evenodd;"
d="M 57258,5989
57321,6008
57371,6035
57379,6039
57430,6081
57472,6132
57472,6132
57503,6190
57523,6253
57529,6319
57523,6384
57523,6384
57504,6447
57503,6448
57498,6458
57472,6506
57430,6557
57379,6599
57379,6599
57321,6630
57258,6649
57209,6654
57176,6654
57127,6649
57064,6630
57005,6599
57005,6599
56954,6557
56912,6506
56887,6458
56881,6448
56881,6447
56862,6384
56862,6384
56856,6319
56862,6253
56881,6190
56912,6132
56912,6132
56954,6081
57005,6039
57013,6035
57064,6008
57127,5989
57176,5984
57209,5984
57258,5989
Z" /> 
</g>
<g style="fill:#000000; fill-opacity:1.0; 
stroke:#000000; stroke-width:0; stroke-opacity:1; 
stroke-linecap:round; stroke-linejoin:round;">
</g>
<g style="fill:#C2C200; fill-opacity:1.0; 
stroke:#C2C200; stroke-width:0; stroke-opacity:1; 
stroke-linecap:round; stroke-linejoin:round;">
</g>
<g style="fill:#C2C200; fill-opacity:1.0; 
stroke:#C2C200; stroke-width:19.685; stroke-opacity:1; 
stroke-linecap:round; stroke-linejoin:round;">
</g>
<g style="fill:#C2C200; fill-opacity:0.0; 
stroke:#C2C200; stroke-width:19.685; stroke-opacity:1; 
stroke-linecap:round; stroke-linejoin:round;">
<path d="M62598 25196
L62598 5118
" />
<path d="M5118 25196
L5118 5118
" />
<path d="M62598 25196
L5118 25196
" />
<path d="M5118 5118
L62598 5118
" />
<g >
</g>
<g >
</g>
<g >
</g>
<g >
</g>
<g >
</g>
<g >
</g>
<g >
</g>
<g >
</g>
<g >
</g>
<g >
</g>
<g >
</g>
<g >
</g>
<g >
</g>
<g >
</g>
<g >
</g>
<g >
</g>
<g >
</g>
<g >
</g>
<g >
</g>
<g >
</g>
<g >
</g>
<g >
</g>
<g >
</g>
<g >
</g>
<g >
</g>
<g >
</g>
<g >
</g>
<g >
</g>
<g >
</g>
<g >
</g>
<g >
</g>
<g >
</g>
<g >
</g>
<g >
</g>
<g >
</g>
<g >
</g>
<g >
</g>
<g >
</g>
<g >
</g>
<g >
</g>
<g >
</g>
<g >
</g>
</g> 
</svg>
