M48
; DRILL file {KiCad (5.1.2-1)-1} date Wednesday, May 12, 2021 at 11:45:48 PM
; FORMAT={-:-/ absolute / inch / decimal}
; #@! TF.CreationDate,2021-05-12T23:45:48-04:00
; #@! TF.GenerationSoftware,Kicad,Pcbnew,(5.1.2-1)-1
FMAT,2
INCH
T1C0.0236
T2C0.0315
T3C0.0394
T4C0.0394
T5C0.1378
%
G90
G05
T1
X2.4838Y-2.4774
X2.552Y-2.438
X3.143Y-1.369
X3.143Y-1.4477
X1.643Y-2.557
X1.7033Y-2.5064
X1.9561Y-2.3604
X2.0164Y-2.411
T2
X2.3198Y-1.3699
X2.4698Y-1.1101
X1.2106Y-2.5511
X1.506Y-2.499
X1.8721Y-2.2761
X2.0229Y-2.1495
X2.3799Y-0.6121
X2.3799Y-0.9121
X2.0426Y-0.7442
X2.1452Y-1.0261
X1.877Y-1.174
X1.877Y-1.274
X1.877Y-1.374
X1.877Y-1.474
X1.877Y-1.574
X1.877Y-1.674
X1.877Y-1.774
X2.177Y-1.174
X2.177Y-1.274
X2.177Y-1.374
X2.177Y-1.474
X2.177Y-1.574
X2.177Y-1.674
X2.177Y-1.774
X1.1021Y-0.8177
X1.384Y-0.9203
X1.1613Y-1.1877
X1.4613Y-1.1877
X2.007Y-1.921
X2.1998Y-2.1508
X1.027Y-1.737
X1.0943Y-1.922
X2.722Y-2.22
X2.872Y-1.9602
X0.9829Y-0.9046
X1.035Y-1.2
X1.4671Y-1.6626
X1.749Y-1.56
X1.357Y-1.311
X1.5539Y-1.311
X2.737Y-1.537
X2.8396Y-1.2551
X2.108Y-2.458
X2.3899Y-2.5606
X2.593Y-1.56
X2.7195Y-1.7108
X0.718Y-2.233
X0.9478Y-2.0401
X1.6349Y-2.1784
X1.8277Y-2.4082
X0.7816Y-1.9883
X0.9521Y-1.8898
X1.1661Y-2.4135
X1.4615Y-2.3614
X0.562Y-1.332
X0.8574Y-1.3841
X0.6486Y-1.6911
X0.944Y-1.639
X2.4355Y-1.4355
X2.5855Y-1.1757
X2.2536Y-2.3491
X2.549Y-2.297
X2.597Y-1.41
X2.6954Y-1.2395
X0.957Y-1.32
X1.257Y-1.32
X1.4062Y-1.9431
X1.5088Y-2.225
X1.0227Y-2.1849
X1.3046Y-2.0823
X1.355Y-2.662
X1.6504Y-2.7141
X0.5811Y-1.8886
X0.863Y-1.786
X2.1726Y-1.9151
X2.468Y-1.863
X1.8293Y-0.5553
X1.9319Y-0.8372
X1.5283Y-0.7441
X1.6783Y-1.0039
T3
X1.1061Y-1.6104
X1.294Y-1.542
X0.629Y-1.521
X0.829Y-1.521
X1.5828Y-1.4726
X1.736Y-1.344
X1.1767Y-1.8068
X1.328Y-1.647
X1.3953Y-1.832
X1.1619Y-1.014
X1.3589Y-1.0488
X1.7134Y-0.7307
X1.8134Y-0.9039
X2.632Y-1.83
X2.6667Y-2.027
X1.1484Y-2.2817
X1.3363Y-2.2133
X2.8486Y-1.6409
X2.917Y-1.453
X1.561Y-1.179
X1.761Y-1.179
X1.7891Y-2.1787
X1.9423Y-2.0501
X2.3448Y-2.0201
X2.379Y-2.214
X2.5558Y-2.0829
X2.2126Y-0.7117
X2.2474Y-0.9086
X2.305Y-1.7627
X2.502Y-1.728
X1.5599Y-1.8801
X1.6272Y-2.0651
X1.7786Y-1.9052
T4
X2.049Y-2.591
X1.0347Y-2.3699
X3.047Y-1.813
X3.197Y-1.813
X0.643Y-2.039
X0.895Y-1.186
X0.869Y-1.039
X2.68Y-2.361
X2.104Y-2.263
X0.904Y-2.257
X0.963Y-1.47
X3.049Y-1.204
X3.199Y-1.204
X2.3268Y-1.0368
X1.792Y-2.657
X3.095Y-1.612
X3.245Y-1.612
X2.82Y-1.788
X1.4908Y-1.0091
X2.628Y-1.065
X2.499Y-0.994
X1.8822Y-2.5171
X1.606Y-2.374
X1.943Y-0.9804
T5
X0.69Y-0.69
X0.7Y-2.67
X3.2Y-2.67
X3.2Y-0.7
T0
M30
