  0
SECTION
  2
HEADER
  9
$ACADVER
  1
AC1014
  9
$HANDSEED
  5
FFFF
  9
$MEASUREMENT
 70
     1
  0
ENDSEC
  0
SECTION
  2
TABLES
  0
TABLE
  2
VPORT
  5
8
330
0
100
AcDbSymbolTable
 70
     4
  0
VPORT
  5
2E
330
8
100
AcDbSymbolTableRecord
100
AcDbViewportTableRecord
  2
*ACTIVE
 70
     0
 10
0.0
 20
0.0
 11
1.0
 21
1.0
 12
210.0
 22
148.5
 13
0.0
 23
0.0
 14
10.0
 24
10.0
 15
10.0
 25
10.0
 16
0.0
 26
0.0
 36
1.0
 17
0.0
 27
0.0
 37
0.0
 40
341.0
 41
1.24
 42
50.0
 43
0.0
 44
0.0
 50
0.0
 51
0.0
 71
     0
 72
   100
 73
     1
 74
     3
 75
     0
 76
     0
 77
     0
 78
     0
  0
ENDTAB
  0
TABLE
  2
LTYPE
  5
5
330
0
100
AcDbSymbolTable
 70
     1
  0
LTYPE
  5
14
330
5
100
AcDbSymbolTableRecord
100
AcDbLinetypeTableRecord
  2
BYBLOCK
 70
     0
  3

 72
    65
 73
     0
 40
0.0
  0
LTYPE
  5
15
330
5
100
AcDbSymbolTableRecord
100
AcDbLinetypeTableRecord
  2
BYLAYER
 70
     0
  3

 72
    65
 73
     0
 40
0.0
  0
LTYPE
  5
16
330
5
100
AcDbSymbolTableRecord
100
AcDbLinetypeTableRecord
  2
CONTINUOUS
 70
     0
  3
Solid line
 72
    65
 73
     0
 40
0.0
  0
ENDTAB
  0
TABLE
  2
LAYER
  5
2
100
AcDbSymbolTable
 70
1
  0
LAYER
  5
50
100
AcDbSymbolTableRecord
100
AcDbLayerTableRecord
  2
0
 70
0
  6
CONTINUOUS
  0
ENDTAB
  0
TABLE
  2
STYLE
  5
3
330
0
100
AcDbSymbolTable
 70
     1
  0
STYLE
  5
11
330
3
100
AcDbSymbolTableRecord
100
AcDbTextStyleTableRecord
  2
STANDARD
 70
     0
 40
0.0
 41
1.0
 50
0.0
 71
     0
 42
2.5
  3
txt
  4

  0
ENDTAB
  0
TABLE
  2
VIEW
  5
6
330
0
100
AcDbSymbolTable
 70
     0
  0
ENDTAB
  0
TABLE
  2
UCS
  5
7
330
0
100
AcDbSymbolTable
 70
     0
  0
ENDTAB
  0
TABLE
  2
APPID
  5
9
330
0
100
AcDbSymbolTable
 70
     2
  0
APPID
  5
12
330
9
100
AcDbSymbolTableRecord
100
AcDbRegAppTableRecord
  2
ACAD
 70
     0
  0
ENDTAB
  0
TABLE
  2
DIMSTYLE
  5
A
330
0
100
AcDbSymbolTable
 70
     1
  0
DIMSTYLE
105
27
330
A
100
AcDbSymbolTableRecord
100
AcDbDimStyleTableRecord
  2
ISO-25
 70
     0
  3

  4

  5

  6

  7

 40
1.0
 41
2.5
 42
0.625
 43
3.75
 44
1.25
 45
0.0
 46
0.0
 47
0.0
 48
0.0
140
2.5
141
2.5
142
0.0
143
0.03937007874016
144
1.0
145
0.0
146
1.0
147
0.625
 71
     0
 72
     0
 73
     0
 74
     0
 75
     0
 76
     0
 77
     1
 78
     8
170
     0
171
     3
172
     1
173
     0
174
     0
175
     0
176
     0
177
     0
178
     0
270
     2
271
     2
272
     2
273
     2
274
     3
340
11
275
     0
280
     0
281
     0
282
     0
283
     0
284
     8
285
     0
286
     0
287
     3
288
     0
  0
ENDTAB
  0
TABLE
  2
BLOCK_RECORD
  5
1
330
0
100
AcDbSymbolTable
 70
     1
  0
BLOCK_RECORD
  5
1F
330
1
100
AcDbSymbolTableRecord
100
AcDbBlockTableRecord
  2
*MODEL_SPACE
  0
BLOCK_RECORD
  5
1B
330
1
100
AcDbSymbolTableRecord
100
AcDbBlockTableRecord
  2
*PAPER_SPACE
  0
ENDTAB
  0
ENDSEC
  0
SECTION
  2
BLOCKS
  0
BLOCK
  5
20
330
1F
100
AcDbEntity
  8
0
100
AcDbBlockBegin
  2
*MODEL_SPACE
 70
     0
 10
0.0
 20
0.0
 30
0.0
  3
*MODEL_SPACE
  1

  0
ENDBLK
  5
21
330
1F
100
AcDbEntity
  8
0
100
AcDbBlockEnd
  0
BLOCK
  5
1C
330
1B
100
AcDbEntity
 67
     1
  8
0
100
AcDbBlockBegin
  2
*PAPER_SPACE
  1

  0
ENDBLK
  5
1D
330
1B
100
AcDbEntity
 67
     1
  8
0
100
AcDbBlockEnd
  0
ENDSEC
  0
SECTION
  2
ENTITIES
  0
LWPOLYLINE
  5
100
100
AcDbEntity
  8
0
 62
7
100
AcDbPolyline
 90
2
 70
0
 10
327.474684
 20
783.538890
 30
0.0
 10
327.474684
 20
887.705314
 30
0.0
  0
LWPOLYLINE
  5
101
100
AcDbEntity
  8
0
 62
7
100
AcDbPolyline
 90
2
 70
0
 10
431.641108
 20
783.538890
 30
0.0
 10
327.474684
 20
783.538890
 30
0.0
  0
LWPOLYLINE
  5
102
100
AcDbEntity
  8
0
 62
7
100
AcDbPolyline
 90
2
 70
0
 10
431.641108
 20
887.705314
 30
0.0
 10
431.641108
 20
783.538890
 30
0.0
  0
LWPOLYLINE
  5
103
100
AcDbEntity
  8
0
 62
7
100
AcDbPolyline
 90
2
 70
0
 10
1067.064233
 20
33.524761
 30
0.0
 10
1067.064233
 20
137.691185
 30
0.0
  0
LWPOLYLINE
  5
104
100
AcDbEntity
  8
0
 62
7
100
AcDbPolyline
 90
2
 70
0
 10
1171.230657
 20
137.691185
 30
0.0
 10
1171.230657
 20
33.524761
 30
0.0
  0
LWPOLYLINE
  5
105
100
AcDbEntity
  8
0
 62
7
100
AcDbPolyline
 90
2
 70
0
 10
3612.884231
 20
758.535773
 30
0.0
 10
3664.980672
 20
758.535773
 30
0.0
  0
LWPOLYLINE
  5
106
100
AcDbEntity
  8
0
 62
7
100
AcDbPolyline
 90
2
 70
0
 10
3612.884231
 20
654.369349
 30
0.0
 10
3612.884231
 20
758.535773
 30
0.0
  0
LWPOLYLINE
  5
107
100
AcDbEntity
  8
0
 62
7
100
AcDbPolyline
 90
2
 70
0
 10
3717.050655
 20
654.369349
 30
0.0
 10
3612.884231
 20
654.369349
 30
0.0
  0
LWPOLYLINE
  5
108
100
AcDbEntity
  8
0
 62
7
100
AcDbPolyline
 90
2
 70
0
 10
3717.050655
 20
758.535773
 30
0.0
 10
3717.050655
 20
654.369349
 30
0.0
  0
LWPOLYLINE
  5
109
100
AcDbEntity
  8
0
 62
7
100
AcDbPolyline
 90
2
 70
0
 10
3664.980672
 20
758.535773
 30
0.0
 10
3717.050655
 20
758.535773
 30
0.0
  0
LWPOLYLINE
  5
10a
100
AcDbEntity
  8
0
 62
7
100
AcDbPolyline
 90
2
 70
0
 10
3887.892057
 20
429.367756
 30
0.0
 10
3887.892057
 20
533.534180
 30
0.0
  0
LWPOLYLINE
  5
10b
100
AcDbEntity
  8
0
 62
7
100
AcDbPolyline
 90
2
 70
0
 10
3992.058481
 20
429.367756
 30
0.0
 10
3887.892057
 20
429.367756
 30
0.0
  0
LWPOLYLINE
  5
10c
100
AcDbEntity
  8
0
 62
7
100
AcDbPolyline
 90
2
 70
0
 10
3992.058481
 20
533.534180
 30
0.0
 10
3992.058481
 20
429.367756
 30
0.0
  0
LWPOLYLINE
  5
10d
100
AcDbEntity
  8
0
 62
7
100
AcDbPolyline
 90
2
 70
0
 10
64.981645
 20
412.699012
 30
0.0
 10
64.981645
 20
516.865436
 30
0.0
  0
LWPOLYLINE
  5
10e
100
AcDbEntity
  8
0
 62
7
100
AcDbPolyline
 90
2
 70
0
 10
169.148069
 20
412.699012
 30
0.0
 10
64.981645
 20
412.699012
 30
0.0
  0
LWPOLYLINE
  5
10f
100
AcDbEntity
  8
0
 62
7
100
AcDbPolyline
 90
2
 70
0
 10
169.148069
 20
516.865436
 30
0.0
 10
169.148069
 20
412.699012
 30
0.0
  0
LWPOLYLINE
  5
110
100
AcDbEntity
  8
0
 62
7
100
AcDbPolyline
 90
2
 70
0
 10
1221.236891
 20
556.447089
 30
0.0
 10
1221.236891
 20
660.613514
 30
0.0
  0
LWPOLYLINE
  5
111
100
AcDbEntity
  8
0
 62
7
100
AcDbPolyline
 90
2
 70
0
 10
1325.403315
 20
556.447089
 30
0.0
 10
1221.236891
 20
556.447089
 30
0.0
  0
LWPOLYLINE
  5
112
100
AcDbEntity
  8
0
 62
7
100
AcDbPolyline
 90
2
 70
0
 10
1325.403315
 20
660.613514
 30
0.0
 10
1325.403315
 20
556.447089
 30
0.0
  0
LWPOLYLINE
  5
113
100
AcDbEntity
  8
0
 62
7
100
AcDbPolyline
 90
2
 70
0
 10
3392.063053
 20
121.022441
 30
0.0
 10
3444.133036
 20
121.022441
 30
0.0
  0
LWPOLYLINE
  5
114
100
AcDbEntity
  8
0
 62
7
100
AcDbPolyline
 90
2
 70
0
 10
3392.063053
 20
16.856017
 30
0.0
 10
3392.063053
 20
121.022441
 30
0.0
  0
LWPOLYLINE
  5
115
100
AcDbEntity
  8
0
 62
7
100
AcDbPolyline
 90
2
 70
0
 10
3496.229477
 20
16.856017
 30
0.0
 10
3392.063053
 20
16.856017
 30
0.0
  0
LWPOLYLINE
  5
116
100
AcDbEntity
  8
0
 62
7
100
AcDbPolyline
 90
2
 70
0
 10
3496.229477
 20
121.022441
 30
0.0
 10
3496.229477
 20
16.856017
 30
0.0
  0
LWPOLYLINE
  5
117
100
AcDbEntity
  8
0
 62
7
100
AcDbPolyline
 90
2
 70
0
 10
3444.133036
 20
121.022441
 30
0.0
 10
3496.229477
 20
121.022441
 30
0.0
  0
LWPOLYLINE
  5
118
100
AcDbEntity
  8
0
 62
7
100
AcDbPolyline
 90
2
 70
0
 10
2975.397357
 20
535.624388
 30
0.0
 10
2975.397357
 20
639.790812
 30
0.0
  0
LWPOLYLINE
  5
119
100
AcDbEntity
  8
0
 62
7
100
AcDbPolyline
 90
2
 70
0
 10
3079.563781
 20
535.624388
 30
0.0
 10
2975.397357
 20
535.624388
 30
0.0
  0
LWPOLYLINE
  5
11a
100
AcDbEntity
  8
0
 62
7
100
AcDbPolyline
 90
2
 70
0
 10
931.650528
 20
33.524761
 30
0.0
 10
931.650528
 20
137.691185
 30
0.0
  0
LWPOLYLINE
  5
11b
100
AcDbEntity
  8
0
 62
7
100
AcDbPolyline
 90
2
 70
0
 10
1035.816952
 20
137.691185
 30
0.0
 10
1035.816952
 20
33.524761
 30
0.0
  0
LWPOLYLINE
  5
11c
100
AcDbEntity
  8
0
 62
7
100
AcDbPolyline
 90
2
 70
0
 10
796.236822
 20
33.524761
 30
0.0
 10
796.236822
 20
137.691185
 30
0.0
  0
LWPOLYLINE
  5
11d
100
AcDbEntity
  8
0
 62
7
100
AcDbPolyline
 90
2
 70
0
 10
900.403246
 20
137.691185
 30
0.0
 10
900.403246
 20
33.524761
 30
0.0
  0
LWPOLYLINE
  5
11e
100
AcDbEntity
  8
0
 62
7
100
AcDbPolyline
 90
2
 70
0
 10
660.823116
 20
33.524761
 30
0.0
 10
660.823116
 20
137.691185
 30
0.0
  0
LWPOLYLINE
  5
11f
100
AcDbEntity
  8
0
 62
7
100
AcDbPolyline
 90
2
 70
0
 10
764.989541
 20
137.691185
 30
0.0
 10
764.989541
 20
33.524761
 30
0.0
  0
LWPOLYLINE
  5
120
100
AcDbEntity
  8
0
 62
7
100
AcDbPolyline
 90
2
 70
0
 10
525.382953
 20
33.524761
 30
0.0
 10
525.382953
 20
137.691185
 30
0.0
  0
LWPOLYLINE
  5
121
100
AcDbEntity
  8
0
 62
7
100
AcDbPolyline
 90
2
 70
0
 10
629.549377
 20
137.691185
 30
0.0
 10
629.549377
 20
33.524761
 30
0.0
  0
LWPOLYLINE
  5
122
100
AcDbEntity
  8
0
 62
7
100
AcDbPolyline
 90
2
 70
0
 10
389.969247
 20
33.524761
 30
0.0
 10
389.969247
 20
137.691185
 30
0.0
  0
LWPOLYLINE
  5
123
100
AcDbEntity
  8
0
 62
7
100
AcDbPolyline
 90
2
 70
0
 10
494.135671
 20
137.691185
 30
0.0
 10
494.135671
 20
33.524761
 30
0.0
  0
LWPOLYLINE
  5
124
100
AcDbEntity
  8
0
 62
7
100
AcDbPolyline
 90
2
 70
0
 10
254.555541
 20
33.524761
 30
0.0
 10
254.555541
 20
137.691185
 30
0.0
  0
LWPOLYLINE
  5
125
100
AcDbEntity
  8
0
 62
7
100
AcDbPolyline
 90
2
 70
0
 10
358.721966
 20
137.691185
 30
0.0
 10
358.721966
 20
33.524761
 30
0.0
  0
LWPOLYLINE
  5
126
100
AcDbEntity
  8
0
 62
7
100
AcDbPolyline
 90
2
 70
0
 10
119.141836
 20
33.524761
 30
0.0
 10
119.141836
 20
137.691185
 30
0.0
  0
LWPOLYLINE
  5
127
100
AcDbEntity
  8
0
 62
7
100
AcDbPolyline
 90
2
 70
0
 10
223.308260
 20
137.691185
 30
0.0
 10
223.308260
 20
33.524761
 30
0.0
  0
LWPOLYLINE
  5
128
100
AcDbEntity
  8
0
 62
7
100
AcDbPolyline
 90
2
 70
0
 10
3839.976031
 20
956.444041
 30
0.0
 10
3892.072472
 20
956.444041
 30
0.0
  0
LWPOLYLINE
  5
129
100
AcDbEntity
  8
0
 62
7
100
AcDbPolyline
 90
2
 70
0
 10
3839.976031
 20
852.277617
 30
0.0
 10
3839.976031
 20
956.444041
 30
0.0
  0
LWPOLYLINE
  5
12a
100
AcDbEntity
  8
0
 62
7
100
AcDbPolyline
 90
2
 70
0
 10
3944.142455
 20
852.277617
 30
0.0
 10
3839.976031
 20
852.277617
 30
0.0
  0
LWPOLYLINE
  5
12b
100
AcDbEntity
  8
0
 62
7
100
AcDbPolyline
 90
2
 70
0
 10
3944.142455
 20
956.444041
 30
0.0
 10
3944.142455
 20
852.277617
 30
0.0
  0
LWPOLYLINE
  5
12c
100
AcDbEntity
  8
0
 62
7
100
AcDbPolyline
 90
2
 70
0
 10
3892.072472
 20
956.444041
 30
0.0
 10
3944.142455
 20
956.444041
 30
0.0
  0
LWPOLYLINE
  5
12d
100
AcDbEntity
  8
0
 62
7
100
AcDbPolyline
 90
2
 70
0
 10
3510.913848
 20
1161.866474
 30
0.0
 10
3510.913848
 20
1266.032898
 30
0.0
  0
LWPOLYLINE
  5
12e
100
AcDbEntity
  8
0
 62
7
100
AcDbPolyline
 90
2
 70
0
 10
3615.080272
 20
1161.866474
 30
0.0
 10
3510.913848
 20
1161.866474
 30
0.0
  0
LWPOLYLINE
  5
12f
100
AcDbEntity
  8
0
 62
7
100
AcDbPolyline
 90
2
 70
0
 10
3615.080272
 20
1266.032898
 30
0.0
 10
3615.080272
 20
1161.866474
 30
0.0
  0
LWPOLYLINE
  5
130
100
AcDbEntity
  8
0
 62
7
100
AcDbPolyline
 90
2
 70
0
 10
1273.306874
 20
77.286830
 30
0.0
 10
1273.306874
 20
181.453254
 30
0.0
  0
LWPOLYLINE
  5
131
100
AcDbEntity
  8
0
 62
7
100
AcDbPolyline
 90
2
 70
0
 10
1377.473298
 20
77.286830
 30
0.0
 10
1273.306874
 20
77.286830
 30
0.0
  0
LWPOLYLINE
  5
132
100
AcDbEntity
  8
0
 62
7
100
AcDbPolyline
 90
2
 70
0
 10
1377.473298
 20
181.453254
 30
0.0
 10
1377.473298
 20
77.286830
 30
0.0
  0
LWPOLYLINE
  5
133
100
AcDbEntity
  8
0
 62
7
100
AcDbPolyline
 90
2
 70
0
 10
152.479325
 20
598.118951
 30
0.0
 10
152.479325
 20
702.285375
 30
0.0
  0
LWPOLYLINE
  5
134
100
AcDbEntity
  8
0
 62
7
100
AcDbPolyline
 90
2
 70
0
 10
256.645749
 20
598.118951
 30
0.0
 10
152.479325
 20
598.118951
 30
0.0
  0
LWPOLYLINE
  5
135
100
AcDbEntity
  8
0
 62
7
100
AcDbPolyline
 90
2
 70
0
 10
256.645749
 20
702.285375
 30
0.0
 10
256.645749
 20
598.118951
 30
0.0
  0
LWPOLYLINE
  5
136
100
AcDbEntity
  8
0
 62
7
100
AcDbPolyline
 90
2
 70
0
 10
52.466858
 20
806.451799
 30
0.0
 10
52.466858
 20
910.618223
 30
0.0
  0
LWPOLYLINE
  5
137
100
AcDbEntity
  8
0
 62
7
100
AcDbPolyline
 90
2
 70
0
 10
156.633282
 20
806.451799
 30
0.0
 10
52.466858
 20
806.451799
 30
0.0
  0
LWPOLYLINE
  5
138
100
AcDbEntity
  8
0
 62
7
100
AcDbPolyline
 90
2
 70
0
 10
156.633282
 20
910.618223
 30
0.0
 10
156.633282
 20
806.451799
 30
0.0
  0
LWPOLYLINE
  5
139
100
AcDbEntity
  8
0
 62
7
100
AcDbPolyline
 90
2
 70
0
 10
1048.305281
 20
802.271384
 30
0.0
 10
1100.401722
 20
802.271384
 30
0.0
  0
LWPOLYLINE
  5
13a
100
AcDbEntity
  8
0
 62
7
100
AcDbPolyline
 90
2
 70
0
 10
1048.305281
 20
698.104960
 30
0.0
 10
1048.305281
 20
802.271384
 30
0.0
  0
LWPOLYLINE
  5
13b
100
AcDbEntity
  8
0
 62
7
100
AcDbPolyline
 90
2
 70
0
 10
1152.471705
 20
698.104960
 30
0.0
 10
1048.305281
 20
698.104960
 30
0.0
  0
LWPOLYLINE
  5
13c
100
AcDbEntity
  8
0
 62
7
100
AcDbPolyline
 90
2
 70
0
 10
1152.471705
 20
802.271384
 30
0.0
 10
1152.471705
 20
698.104960
 30
0.0
  0
LWPOLYLINE
  5
13d
100
AcDbEntity
  8
0
 62
7
100
AcDbPolyline
 90
2
 70
0
 10
1100.401722
 20
802.271384
 30
0.0
 10
1152.471705
 20
802.271384
 30
0.0
  0
LWPOLYLINE
  5
13e
100
AcDbEntity
  8
0
 62
7
100
AcDbPolyline
 90
2
 70
0
 10
1274.867915
 20
354.358406
 30
0.0
 10
1274.867915
 20
458.524830
 30
0.0
  0
LWPOLYLINE
  5
13f
100
AcDbEntity
  8
0
 62
7
100
AcDbPolyline
 90
2
 70
0
 10
1379.034339
 20
354.358406
 30
0.0
 10
1274.867915
 20
354.358406
 30
0.0
  0
LWPOLYLINE
  5
140
100
AcDbEntity
  8
0
 62
7
100
AcDbPolyline
 90
2
 70
0
 10
1379.034339
 20
458.524830
 30
0.0
 10
1379.034339
 20
354.358406
 30
0.0
  0
LWPOLYLINE
  5
141
100
AcDbEntity
  8
0
 62
7
100
AcDbPolyline
 90
2
 70
0
 10
1067.064233
 20
168.938467
 30
0.0
 10
1067.064233
 20
273.104891
 30
0.0
  0
LWPOLYLINE
  5
142
100
AcDbEntity
  8
0
 62
7
100
AcDbPolyline
 90
2
 70
0
 10
1171.230657
 20
273.104891
 30
0.0
 10
1171.230657
 20
168.938467
 30
0.0
  0
LWPOLYLINE
  5
143
100
AcDbEntity
  8
0
 62
7
100
AcDbPolyline
 90
2
 70
0
 10
931.650528
 20
168.938467
 30
0.0
 10
931.650528
 20
273.104891
 30
0.0
  0
LWPOLYLINE
  5
144
100
AcDbEntity
  8
0
 62
7
100
AcDbPolyline
 90
2
 70
0
 10
1035.816952
 20
273.104891
 30
0.0
 10
1035.816952
 20
168.938467
 30
0.0
  0
LWPOLYLINE
  5
145
100
AcDbEntity
  8
0
 62
7
100
AcDbPolyline
 90
2
 70
0
 10
796.236822
 20
168.938467
 30
0.0
 10
796.236822
 20
273.104891
 30
0.0
  0
LWPOLYLINE
  5
146
100
AcDbEntity
  8
0
 62
7
100
AcDbPolyline
 90
2
 70
0
 10
900.403246
 20
273.104891
 30
0.0
 10
900.403246
 20
168.938467
 30
0.0
  0
LWPOLYLINE
  5
147
100
AcDbEntity
  8
0
 62
7
100
AcDbPolyline
 90
2
 70
0
 10
660.823116
 20
168.938467
 30
0.0
 10
660.823116
 20
273.104891
 30
0.0
  0
LWPOLYLINE
  5
148
100
AcDbEntity
  8
0
 62
7
100
AcDbPolyline
 90
2
 70
0
 10
764.989541
 20
273.104891
 30
0.0
 10
764.989541
 20
168.938467
 30
0.0
  0
LWPOLYLINE
  5
149
100
AcDbEntity
  8
0
 62
7
100
AcDbPolyline
 90
2
 70
0
 10
525.382953
 20
168.938467
 30
0.0
 10
525.382953
 20
273.104891
 30
0.0
  0
LWPOLYLINE
  5
14a
100
AcDbEntity
  8
0
 62
7
100
AcDbPolyline
 90
2
 70
0
 10
629.549377
 20
273.104891
 30
0.0
 10
629.549377
 20
168.938467
 30
0.0
  0
LWPOLYLINE
  5
14b
100
AcDbEntity
  8
0
 62
7
100
AcDbPolyline
 90
2
 70
0
 10
389.969247
 20
168.938467
 30
0.0
 10
389.969247
 20
273.104891
 30
0.0
  0
LWPOLYLINE
  5
14c
100
AcDbEntity
  8
0
 62
7
100
AcDbPolyline
 90
2
 70
0
 10
494.135671
 20
273.104891
 30
0.0
 10
494.135671
 20
168.938467
 30
0.0
  0
LWPOLYLINE
  5
14d
100
AcDbEntity
  8
0
 62
7
100
AcDbPolyline
 90
2
 70
0
 10
254.555541
 20
168.938467
 30
0.0
 10
254.555541
 20
273.104891
 30
0.0
  0
LWPOLYLINE
  5
14e
100
AcDbEntity
  8
0
 62
7
100
AcDbPolyline
 90
2
 70
0
 10
358.721966
 20
273.104891
 30
0.0
 10
358.721966
 20
168.938467
 30
0.0
  0
LWPOLYLINE
  5
14f
100
AcDbEntity
  8
0
 62
7
100
AcDbPolyline
 90
2
 70
0
 10
119.141836
 20
168.938467
 30
0.0
 10
119.141836
 20
273.104891
 30
0.0
  0
LWPOLYLINE
  5
150
100
AcDbEntity
  8
0
 62
7
100
AcDbPolyline
 90
2
 70
0
 10
223.308260
 20
273.104891
 30
0.0
 10
223.308260
 20
168.938467
 30
0.0
  0
LWPOLYLINE
  5
151
100
AcDbEntity
  8
0
 62
7
100
AcDbPolyline
 90
2
 70
0
 10
1067.064233
 20
33.524761
 30
0.0
 10
1067.064233
 20
137.691185
 30
0.0
  0
LWPOLYLINE
  5
152
100
AcDbEntity
  8
0
 62
7
100
AcDbPolyline
 90
2
 70
0
 10
1171.230657
 20
33.524761
 30
0.0
 10
1067.064233
 20
33.524761
 30
0.0
  0
LWPOLYLINE
  5
153
100
AcDbEntity
  8
0
 62
7
100
AcDbPolyline
 90
2
 70
0
 10
1171.230657
 20
137.691185
 30
0.0
 10
1171.230657
 20
33.524761
 30
0.0
  0
LWPOLYLINE
  5
154
100
AcDbEntity
  8
0
 62
7
100
AcDbPolyline
 90
2
 70
0
 10
1067.064233
 20
137.691185
 30
0.0
 10
1171.230657
 20
137.691185
 30
0.0
  0
LWPOLYLINE
  5
155
100
AcDbEntity
  8
0
 62
7
100
AcDbPolyline
 90
2
 70
0
 10
3612.884231
 20
654.369349
 30
0.0
 10
3612.884231
 20
758.535773
 30
0.0
  0
LWPOLYLINE
  5
156
100
AcDbEntity
  8
0
 62
7
100
AcDbPolyline
 90
2
 70
0
 10
3717.050655
 20
654.369349
 30
0.0
 10
3612.884231
 20
654.369349
 30
0.0
  0
LWPOLYLINE
  5
157
100
AcDbEntity
  8
0
 62
7
100
AcDbPolyline
 90
2
 70
0
 10
3717.050655
 20
758.535773
 30
0.0
 10
3717.050655
 20
654.369349
 30
0.0
  0
LWPOLYLINE
  5
158
100
AcDbEntity
  8
0
 62
7
100
AcDbPolyline
 90
2
 70
0
 10
3612.884231
 20
758.535773
 30
0.0
 10
3717.050655
 20
758.535773
 30
0.0
  0
LWPOLYLINE
  5
159
100
AcDbEntity
  8
0
 62
7
100
AcDbPolyline
 90
2
 70
0
 10
3887.892057
 20
429.367756
 30
0.0
 10
3887.892057
 20
533.534180
 30
0.0
  0
LWPOLYLINE
  5
15a
100
AcDbEntity
  8
0
 62
7
100
AcDbPolyline
 90
2
 70
0
 10
3992.058481
 20
429.367756
 30
0.0
 10
3887.892057
 20
429.367756
 30
0.0
  0
LWPOLYLINE
  5
15b
100
AcDbEntity
  8
0
 62
7
100
AcDbPolyline
 90
2
 70
0
 10
3992.058481
 20
533.534180
 30
0.0
 10
3992.058481
 20
429.367756
 30
0.0
  0
LWPOLYLINE
  5
15c
100
AcDbEntity
  8
0
 62
7
100
AcDbPolyline
 90
2
 70
0
 10
3887.892057
 20
533.534180
 30
0.0
 10
3992.058481
 20
533.534180
 30
0.0
  0
LWPOLYLINE
  5
15d
100
AcDbEntity
  8
0
 62
7
100
AcDbPolyline
 90
2
 70
0
 10
64.981645
 20
412.699012
 30
0.0
 10
64.981645
 20
516.865436
 30
0.0
  0
LWPOLYLINE
  5
15e
100
AcDbEntity
  8
0
 62
7
100
AcDbPolyline
 90
2
 70
0
 10
169.148069
 20
412.699012
 30
0.0
 10
64.981645
 20
412.699012
 30
0.0
  0
LWPOLYLINE
  5
15f
100
AcDbEntity
  8
0
 62
7
100
AcDbPolyline
 90
2
 70
0
 10
169.148069
 20
516.865436
 30
0.0
 10
169.148069
 20
412.699012
 30
0.0
  0
LWPOLYLINE
  5
160
100
AcDbEntity
  8
0
 62
7
100
AcDbPolyline
 90
2
 70
0
 10
64.981645
 20
516.865436
 30
0.0
 10
169.148069
 20
516.865436
 30
0.0
  0
LWPOLYLINE
  5
161
100
AcDbEntity
  8
0
 62
7
100
AcDbPolyline
 90
2
 70
0
 10
1221.236891
 20
556.447089
 30
0.0
 10
1221.236891
 20
660.613514
 30
0.0
  0
LWPOLYLINE
  5
162
100
AcDbEntity
  8
0
 62
7
100
AcDbPolyline
 90
2
 70
0
 10
1325.403315
 20
556.447089
 30
0.0
 10
1221.236891
 20
556.447089
 30
0.0
  0
LWPOLYLINE
  5
163
100
AcDbEntity
  8
0
 62
7
100
AcDbPolyline
 90
2
 70
0
 10
1325.403315
 20
660.613514
 30
0.0
 10
1325.403315
 20
556.447089
 30
0.0
  0
LWPOLYLINE
  5
164
100
AcDbEntity
  8
0
 62
7
100
AcDbPolyline
 90
2
 70
0
 10
1221.236891
 20
660.613514
 30
0.0
 10
1325.403315
 20
660.613514
 30
0.0
  0
LWPOLYLINE
  5
165
100
AcDbEntity
  8
0
 62
7
100
AcDbPolyline
 90
2
 70
0
 10
3392.063053
 20
16.856017
 30
0.0
 10
3392.063053
 20
121.022441
 30
0.0
  0
LWPOLYLINE
  5
166
100
AcDbEntity
  8
0
 62
7
100
AcDbPolyline
 90
2
 70
0
 10
3496.229477
 20
16.856017
 30
0.0
 10
3392.063053
 20
16.856017
 30
0.0
  0
LWPOLYLINE
  5
167
100
AcDbEntity
  8
0
 62
7
100
AcDbPolyline
 90
2
 70
0
 10
3496.229477
 20
121.022441
 30
0.0
 10
3496.229477
 20
16.856017
 30
0.0
  0
LWPOLYLINE
  5
168
100
AcDbEntity
  8
0
 62
7
100
AcDbPolyline
 90
2
 70
0
 10
3392.063053
 20
121.022441
 30
0.0
 10
3496.229477
 20
121.022441
 30
0.0
  0
LWPOLYLINE
  5
169
100
AcDbEntity
  8
0
 62
7
100
AcDbPolyline
 90
2
 70
0
 10
2975.397357
 20
535.624388
 30
0.0
 10
2975.397357
 20
639.790812
 30
0.0
  0
LWPOLYLINE
  5
16a
100
AcDbEntity
  8
0
 62
7
100
AcDbPolyline
 90
2
 70
0
 10
3079.563781
 20
535.624388
 30
0.0
 10
2975.397357
 20
535.624388
 30
0.0
  0
LWPOLYLINE
  5
16b
100
AcDbEntity
  8
0
 62
7
100
AcDbPolyline
 90
2
 70
0
 10
3079.563781
 20
639.790812
 30
0.0
 10
3079.563781
 20
535.624388
 30
0.0
  0
LWPOLYLINE
  5
16c
100
AcDbEntity
  8
0
 62
7
100
AcDbPolyline
 90
2
 70
0
 10
2975.397357
 20
639.790812
 30
0.0
 10
3079.563781
 20
639.790812
 30
0.0
  0
LWPOLYLINE
  5
16d
100
AcDbEntity
  8
0
 62
7
100
AcDbPolyline
 90
2
 70
0
 10
931.650528
 20
33.524761
 30
0.0
 10
931.650528
 20
137.691185
 30
0.0
  0
LWPOLYLINE
  5
16e
100
AcDbEntity
  8
0
 62
7
100
AcDbPolyline
 90
2
 70
0
 10
1035.816952
 20
33.524761
 30
0.0
 10
931.650528
 20
33.524761
 30
0.0
  0
LWPOLYLINE
  5
16f
100
AcDbEntity
  8
0
 62
7
100
AcDbPolyline
 90
2
 70
0
 10
1035.816952
 20
137.691185
 30
0.0
 10
1035.816952
 20
33.524761
 30
0.0
  0
LWPOLYLINE
  5
170
100
AcDbEntity
  8
0
 62
7
100
AcDbPolyline
 90
2
 70
0
 10
931.650528
 20
137.691185
 30
0.0
 10
1035.816952
 20
137.691185
 30
0.0
  0
LWPOLYLINE
  5
171
100
AcDbEntity
  8
0
 62
7
100
AcDbPolyline
 90
2
 70
0
 10
796.236822
 20
33.524761
 30
0.0
 10
796.236822
 20
137.691185
 30
0.0
  0
LWPOLYLINE
  5
172
100
AcDbEntity
  8
0
 62
7
100
AcDbPolyline
 90
2
 70
0
 10
900.403246
 20
33.524761
 30
0.0
 10
796.236822
 20
33.524761
 30
0.0
  0
LWPOLYLINE
  5
173
100
AcDbEntity
  8
0
 62
7
100
AcDbPolyline
 90
2
 70
0
 10
900.403246
 20
137.691185
 30
0.0
 10
900.403246
 20
33.524761
 30
0.0
  0
LWPOLYLINE
  5
174
100
AcDbEntity
  8
0
 62
7
100
AcDbPolyline
 90
2
 70
0
 10
796.236822
 20
137.691185
 30
0.0
 10
900.403246
 20
137.691185
 30
0.0
  0
LWPOLYLINE
  5
175
100
AcDbEntity
  8
0
 62
7
100
AcDbPolyline
 90
2
 70
0
 10
660.823116
 20
33.524761
 30
0.0
 10
660.823116
 20
137.691185
 30
0.0
  0
LWPOLYLINE
  5
176
100
AcDbEntity
  8
0
 62
7
100
AcDbPolyline
 90
2
 70
0
 10
764.989541
 20
33.524761
 30
0.0
 10
660.823116
 20
33.524761
 30
0.0
  0
LWPOLYLINE
  5
177
100
AcDbEntity
  8
0
 62
7
100
AcDbPolyline
 90
2
 70
0
 10
764.989541
 20
137.691185
 30
0.0
 10
764.989541
 20
33.524761
 30
0.0
  0
LWPOLYLINE
  5
178
100
AcDbEntity
  8
0
 62
7
100
AcDbPolyline
 90
2
 70
0
 10
660.823116
 20
137.691185
 30
0.0
 10
764.989541
 20
137.691185
 30
0.0
  0
LWPOLYLINE
  5
179
100
AcDbEntity
  8
0
 62
7
100
AcDbPolyline
 90
2
 70
0
 10
525.382953
 20
33.524761
 30
0.0
 10
525.382953
 20
137.691185
 30
0.0
  0
LWPOLYLINE
  5
17a
100
AcDbEntity
  8
0
 62
7
100
AcDbPolyline
 90
2
 70
0
 10
629.549377
 20
33.524761
 30
0.0
 10
525.382953
 20
33.524761
 30
0.0
  0
LWPOLYLINE
  5
17b
100
AcDbEntity
  8
0
 62
7
100
AcDbPolyline
 90
2
 70
0
 10
629.549377
 20
137.691185
 30
0.0
 10
629.549377
 20
33.524761
 30
0.0
  0
LWPOLYLINE
  5
17c
100
AcDbEntity
  8
0
 62
7
100
AcDbPolyline
 90
2
 70
0
 10
525.382953
 20
137.691185
 30
0.0
 10
629.549377
 20
137.691185
 30
0.0
  0
LWPOLYLINE
  5
17d
100
AcDbEntity
  8
0
 62
7
100
AcDbPolyline
 90
2
 70
0
 10
389.969247
 20
33.524761
 30
0.0
 10
389.969247
 20
137.691185
 30
0.0
  0
LWPOLYLINE
  5
17e
100
AcDbEntity
  8
0
 62
7
100
AcDbPolyline
 90
2
 70
0
 10
494.135671
 20
33.524761
 30
0.0
 10
389.969247
 20
33.524761
 30
0.0
  0
LWPOLYLINE
  5
17f
100
AcDbEntity
  8
0
 62
7
100
AcDbPolyline
 90
2
 70
0
 10
494.135671
 20
137.691185
 30
0.0
 10
494.135671
 20
33.524761
 30
0.0
  0
LWPOLYLINE
  5
180
100
AcDbEntity
  8
0
 62
7
100
AcDbPolyline
 90
2
 70
0
 10
389.969247
 20
137.691185
 30
0.0
 10
494.135671
 20
137.691185
 30
0.0
  0
LWPOLYLINE
  5
181
100
AcDbEntity
  8
0
 62
7
100
AcDbPolyline
 90
2
 70
0
 10
254.555541
 20
33.524761
 30
0.0
 10
254.555541
 20
137.691185
 30
0.0
  0
LWPOLYLINE
  5
182
100
AcDbEntity
  8
0
 62
7
100
AcDbPolyline
 90
2
 70
0
 10
358.721966
 20
33.524761
 30
0.0
 10
254.555541
 20
33.524761
 30
0.0
  0
LWPOLYLINE
  5
183
100
AcDbEntity
  8
0
 62
7
100
AcDbPolyline
 90
2
 70
0
 10
358.721966
 20
137.691185
 30
0.0
 10
358.721966
 20
33.524761
 30
0.0
  0
LWPOLYLINE
  5
184
100
AcDbEntity
  8
0
 62
7
100
AcDbPolyline
 90
2
 70
0
 10
254.555541
 20
137.691185
 30
0.0
 10
358.721966
 20
137.691185
 30
0.0
  0
LWPOLYLINE
  5
185
100
AcDbEntity
  8
0
 62
7
100
AcDbPolyline
 90
2
 70
0
 10
119.141836
 20
33.524761
 30
0.0
 10
119.141836
 20
137.691185
 30
0.0
  0
LWPOLYLINE
  5
186
100
AcDbEntity
  8
0
 62
7
100
AcDbPolyline
 90
2
 70
0
 10
223.308260
 20
33.524761
 30
0.0
 10
119.141836
 20
33.524761
 30
0.0
  0
LWPOLYLINE
  5
187
100
AcDbEntity
  8
0
 62
7
100
AcDbPolyline
 90
2
 70
0
 10
223.308260
 20
137.691185
 30
0.0
 10
223.308260
 20
33.524761
 30
0.0
  0
LWPOLYLINE
  5
188
100
AcDbEntity
  8
0
 62
7
100
AcDbPolyline
 90
2
 70
0
 10
119.141836
 20
137.691185
 30
0.0
 10
223.308260
 20
137.691185
 30
0.0
  0
LWPOLYLINE
  5
189
100
AcDbEntity
  8
0
 62
7
100
AcDbPolyline
 90
2
 70
0
 10
3839.976031
 20
852.277617
 30
0.0
 10
3839.976031
 20
956.444041
 30
0.0
  0
LWPOLYLINE
  5
18a
100
AcDbEntity
  8
0
 62
7
100
AcDbPolyline
 90
2
 70
0
 10
3944.142455
 20
852.277617
 30
0.0
 10
3839.976031
 20
852.277617
 30
0.0
  0
LWPOLYLINE
  5
18b
100
AcDbEntity
  8
0
 62
7
100
AcDbPolyline
 90
2
 70
0
 10
3944.142455
 20
956.444041
 30
0.0
 10
3944.142455
 20
852.277617
 30
0.0
  0
LWPOLYLINE
  5
18c
100
AcDbEntity
  8
0
 62
7
100
AcDbPolyline
 90
2
 70
0
 10
3839.976031
 20
956.444041
 30
0.0
 10
3944.142455
 20
956.444041
 30
0.0
  0
LWPOLYLINE
  5
18d
100
AcDbEntity
  8
0
 62
7
100
AcDbPolyline
 90
2
 70
0
 10
3510.913848
 20
1161.866474
 30
0.0
 10
3510.913848
 20
1266.032898
 30
0.0
  0
LWPOLYLINE
  5
18e
100
AcDbEntity
  8
0
 62
7
100
AcDbPolyline
 90
2
 70
0
 10
3615.080272
 20
1161.866474
 30
0.0
 10
3510.913848
 20
1161.866474
 30
0.0
  0
LWPOLYLINE
  5
18f
100
AcDbEntity
  8
0
 62
7
100
AcDbPolyline
 90
2
 70
0
 10
3615.080272
 20
1266.032898
 30
0.0
 10
3615.080272
 20
1161.866474
 30
0.0
  0
LWPOLYLINE
  5
190
100
AcDbEntity
  8
0
 62
7
100
AcDbPolyline
 90
2
 70
0
 10
3510.913848
 20
1266.032898
 30
0.0
 10
3615.080272
 20
1266.032898
 30
0.0
  0
LWPOLYLINE
  5
191
100
AcDbEntity
  8
0
 62
7
100
AcDbPolyline
 90
2
 70
0
 10
1273.306874
 20
77.286830
 30
0.0
 10
1273.306874
 20
181.453254
 30
0.0
  0
LWPOLYLINE
  5
192
100
AcDbEntity
  8
0
 62
7
100
AcDbPolyline
 90
2
 70
0
 10
1377.473298
 20
77.286830
 30
0.0
 10
1273.306874
 20
77.286830
 30
0.0
  0
LWPOLYLINE
  5
193
100
AcDbEntity
  8
0
 62
7
100
AcDbPolyline
 90
2
 70
0
 10
1377.473298
 20
181.453254
 30
0.0
 10
1377.473298
 20
77.286830
 30
0.0
  0
LWPOLYLINE
  5
194
100
AcDbEntity
  8
0
 62
7
100
AcDbPolyline
 90
2
 70
0
 10
1273.306874
 20
181.453254
 30
0.0
 10
1377.473298
 20
181.453254
 30
0.0
  0
LWPOLYLINE
  5
195
100
AcDbEntity
  8
0
 62
7
100
AcDbPolyline
 90
2
 70
0
 10
152.479325
 20
598.118951
 30
0.0
 10
152.479325
 20
702.285375
 30
0.0
  0
LWPOLYLINE
  5
196
100
AcDbEntity
  8
0
 62
7
100
AcDbPolyline
 90
2
 70
0
 10
256.645749
 20
598.118951
 30
0.0
 10
152.479325
 20
598.118951
 30
0.0
  0
LWPOLYLINE
  5
197
100
AcDbEntity
  8
0
 62
7
100
AcDbPolyline
 90
2
 70
0
 10
256.645749
 20
702.285375
 30
0.0
 10
256.645749
 20
598.118951
 30
0.0
  0
LWPOLYLINE
  5
198
100
AcDbEntity
  8
0
 62
7
100
AcDbPolyline
 90
2
 70
0
 10
152.479325
 20
702.285375
 30
0.0
 10
256.645749
 20
702.285375
 30
0.0
  0
LWPOLYLINE
  5
199
100
AcDbEntity
  8
0
 62
7
100
AcDbPolyline
 90
2
 70
0
 10
52.466858
 20
806.451799
 30
0.0
 10
52.466858
 20
910.618223
 30
0.0
  0
LWPOLYLINE
  5
19a
100
AcDbEntity
  8
0
 62
7
100
AcDbPolyline
 90
2
 70
0
 10
156.633282
 20
806.451799
 30
0.0
 10
52.466858
 20
806.451799
 30
0.0
  0
LWPOLYLINE
  5
19b
100
AcDbEntity
  8
0
 62
7
100
AcDbPolyline
 90
2
 70
0
 10
156.633282
 20
910.618223
 30
0.0
 10
156.633282
 20
806.451799
 30
0.0
  0
LWPOLYLINE
  5
19c
100
AcDbEntity
  8
0
 62
7
100
AcDbPolyline
 90
2
 70
0
 10
52.466858
 20
910.618223
 30
0.0
 10
156.633282
 20
910.618223
 30
0.0
  0
LWPOLYLINE
  5
19d
100
AcDbEntity
  8
0
 62
7
100
AcDbPolyline
 90
2
 70
0
 10
327.555726
 20
783.583816
 30
0.0
 10
327.555726
 20
887.750240
 30
0.0
  0
LWPOLYLINE
  5
19e
100
AcDbEntity
  8
0
 62
7
100
AcDbPolyline
 90
2
 70
0
 10
431.722150
 20
783.583816
 30
0.0
 10
327.555726
 20
783.583816
 30
0.0
  0
LWPOLYLINE
  5
19f
100
AcDbEntity
  8
0
 62
7
100
AcDbPolyline
 90
2
 70
0
 10
431.722150
 20
887.750240
 30
0.0
 10
431.722150
 20
783.583816
 30
0.0
  0
LWPOLYLINE
  5
1a0
100
AcDbEntity
  8
0
 62
7
100
AcDbPolyline
 90
2
 70
0
 10
327.555726
 20
887.750240
 30
0.0
 10
431.722150
 20
887.750240
 30
0.0
  0
LWPOLYLINE
  5
1a1
100
AcDbEntity
  8
0
 62
7
100
AcDbPolyline
 90
2
 70
0
 10
1048.305281
 20
698.104960
 30
0.0
 10
1048.305281
 20
802.271384
 30
0.0
  0
LWPOLYLINE
  5
1a2
100
AcDbEntity
  8
0
 62
7
100
AcDbPolyline
 90
2
 70
0
 10
1152.471705
 20
698.104960
 30
0.0
 10
1048.305281
 20
698.104960
 30
0.0
  0
LWPOLYLINE
  5
1a3
100
AcDbEntity
  8
0
 62
7
100
AcDbPolyline
 90
2
 70
0
 10
1152.471705
 20
802.271384
 30
0.0
 10
1152.471705
 20
698.104960
 30
0.0
  0
LWPOLYLINE
  5
1a4
100
AcDbEntity
  8
0
 62
7
100
AcDbPolyline
 90
2
 70
0
 10
1048.305281
 20
802.271384
 30
0.0
 10
1152.471705
 20
802.271384
 30
0.0
  0
LWPOLYLINE
  5
1a5
100
AcDbEntity
  8
0
 62
7
100
AcDbPolyline
 90
2
 70
0
 10
1274.867915
 20
354.358406
 30
0.0
 10
1274.867915
 20
458.524830
 30
0.0
  0
LWPOLYLINE
  5
1a6
100
AcDbEntity
  8
0
 62
7
100
AcDbPolyline
 90
2
 70
0
 10
1379.034339
 20
354.358406
 30
0.0
 10
1274.867915
 20
354.358406
 30
0.0
  0
LWPOLYLINE
  5
1a7
100
AcDbEntity
  8
0
 62
7
100
AcDbPolyline
 90
2
 70
0
 10
1379.034339
 20
458.524830
 30
0.0
 10
1379.034339
 20
354.358406
 30
0.0
  0
LWPOLYLINE
  5
1a8
100
AcDbEntity
  8
0
 62
7
100
AcDbPolyline
 90
2
 70
0
 10
1274.867915
 20
458.524830
 30
0.0
 10
1379.034339
 20
458.524830
 30
0.0
  0
LWPOLYLINE
  5
1a9
100
AcDbEntity
  8
0
 62
7
100
AcDbPolyline
 90
2
 70
0
 10
1067.064233
 20
168.938467
 30
0.0
 10
1067.064233
 20
273.104891
 30
0.0
  0
LWPOLYLINE
  5
1aa
100
AcDbEntity
  8
0
 62
7
100
AcDbPolyline
 90
2
 70
0
 10
1171.230657
 20
168.938467
 30
0.0
 10
1067.064233
 20
168.938467
 30
0.0
  0
LWPOLYLINE
  5
1ab
100
AcDbEntity
  8
0
 62
7
100
AcDbPolyline
 90
2
 70
0
 10
1171.230657
 20
273.104891
 30
0.0
 10
1171.230657
 20
168.938467
 30
0.0
  0
LWPOLYLINE
  5
1ac
100
AcDbEntity
  8
0
 62
7
100
AcDbPolyline
 90
2
 70
0
 10
1067.064233
 20
273.104891
 30
0.0
 10
1171.230657
 20
273.104891
 30
0.0
  0
LWPOLYLINE
  5
1ad
100
AcDbEntity
  8
0
 62
7
100
AcDbPolyline
 90
2
 70
0
 10
931.650528
 20
168.938467
 30
0.0
 10
931.650528
 20
273.104891
 30
0.0
  0
LWPOLYLINE
  5
1ae
100
AcDbEntity
  8
0
 62
7
100
AcDbPolyline
 90
2
 70
0
 10
1035.816952
 20
168.938467
 30
0.0
 10
931.650528
 20
168.938467
 30
0.0
  0
LWPOLYLINE
  5
1af
100
AcDbEntity
  8
0
 62
7
100
AcDbPolyline
 90
2
 70
0
 10
1035.816952
 20
273.104891
 30
0.0
 10
1035.816952
 20
168.938467
 30
0.0
  0
LWPOLYLINE
  5
1b0
100
AcDbEntity
  8
0
 62
7
100
AcDbPolyline
 90
2
 70
0
 10
931.650528
 20
273.104891
 30
0.0
 10
1035.816952
 20
273.104891
 30
0.0
  0
LWPOLYLINE
  5
1b1
100
AcDbEntity
  8
0
 62
7
100
AcDbPolyline
 90
2
 70
0
 10
796.236822
 20
168.938467
 30
0.0
 10
796.236822
 20
273.104891
 30
0.0
  0
LWPOLYLINE
  5
1b2
100
AcDbEntity
  8
0
 62
7
100
AcDbPolyline
 90
2
 70
0
 10
900.403246
 20
168.938467
 30
0.0
 10
796.236822
 20
168.938467
 30
0.0
  0
LWPOLYLINE
  5
1b3
100
AcDbEntity
  8
0
 62
7
100
AcDbPolyline
 90
2
 70
0
 10
900.403246
 20
273.104891
 30
0.0
 10
900.403246
 20
168.938467
 30
0.0
  0
LWPOLYLINE
  5
1b4
100
AcDbEntity
  8
0
 62
7
100
AcDbPolyline
 90
2
 70
0
 10
796.236822
 20
273.104891
 30
0.0
 10
900.403246
 20
273.104891
 30
0.0
  0
LWPOLYLINE
  5
1b5
100
AcDbEntity
  8
0
 62
7
100
AcDbPolyline
 90
2
 70
0
 10
660.823116
 20
168.938467
 30
0.0
 10
660.823116
 20
273.104891
 30
0.0
  0
LWPOLYLINE
  5
1b6
100
AcDbEntity
  8
0
 62
7
100
AcDbPolyline
 90
2
 70
0
 10
764.989541
 20
168.938467
 30
0.0
 10
660.823116
 20
168.938467
 30
0.0
  0
LWPOLYLINE
  5
1b7
100
AcDbEntity
  8
0
 62
7
100
AcDbPolyline
 90
2
 70
0
 10
764.989541
 20
273.104891
 30
0.0
 10
764.989541
 20
168.938467
 30
0.0
  0
LWPOLYLINE
  5
1b8
100
AcDbEntity
  8
0
 62
7
100
AcDbPolyline
 90
2
 70
0
 10
660.823116
 20
273.104891
 30
0.0
 10
764.989541
 20
273.104891
 30
0.0
  0
LWPOLYLINE
  5
1b9
100
AcDbEntity
  8
0
 62
7
100
AcDbPolyline
 90
2
 70
0
 10
525.382953
 20
168.938467
 30
0.0
 10
525.382953
 20
273.104891
 30
0.0
  0
LWPOLYLINE
  5
1ba
100
AcDbEntity
  8
0
 62
7
100
AcDbPolyline
 90
2
 70
0
 10
629.549377
 20
168.938467
 30
0.0
 10
525.382953
 20
168.938467
 30
0.0
  0
LWPOLYLINE
  5
1bb
100
AcDbEntity
  8
0
 62
7
100
AcDbPolyline
 90
2
 70
0
 10
629.549377
 20
273.104891
 30
0.0
 10
629.549377
 20
168.938467
 30
0.0
  0
LWPOLYLINE
  5
1bc
100
AcDbEntity
  8
0
 62
7
100
AcDbPolyline
 90
2
 70
0
 10
525.382953
 20
273.104891
 30
0.0
 10
629.549377
 20
273.104891
 30
0.0
  0
LWPOLYLINE
  5
1bd
100
AcDbEntity
  8
0
 62
7
100
AcDbPolyline
 90
2
 70
0
 10
389.969247
 20
168.938467
 30
0.0
 10
389.969247
 20
273.104891
 30
0.0
  0
LWPOLYLINE
  5
1be
100
AcDbEntity
  8
0
 62
7
100
AcDbPolyline
 90
2
 70
0
 10
494.135671
 20
168.938467
 30
0.0
 10
389.969247
 20
168.938467
 30
0.0
  0
LWPOLYLINE
  5
1bf
100
AcDbEntity
  8
0
 62
7
100
AcDbPolyline
 90
2
 70
0
 10
494.135671
 20
273.104891
 30
0.0
 10
494.135671
 20
168.938467
 30
0.0
  0
LWPOLYLINE
  5
1c0
100
AcDbEntity
  8
0
 62
7
100
AcDbPolyline
 90
2
 70
0
 10
389.969247
 20
273.104891
 30
0.0
 10
494.135671
 20
273.104891
 30
0.0
  0
LWPOLYLINE
  5
1c1
100
AcDbEntity
  8
0
 62
7
100
AcDbPolyline
 90
2
 70
0
 10
254.555541
 20
168.938467
 30
0.0
 10
254.555541
 20
273.104891
 30
0.0
  0
LWPOLYLINE
  5
1c2
100
AcDbEntity
  8
0
 62
7
100
AcDbPolyline
 90
2
 70
0
 10
358.721966
 20
168.938467
 30
0.0
 10
254.555541
 20
168.938467
 30
0.0
  0
LWPOLYLINE
  5
1c3
100
AcDbEntity
  8
0
 62
7
100
AcDbPolyline
 90
2
 70
0
 10
358.721966
 20
273.104891
 30
0.0
 10
358.721966
 20
168.938467
 30
0.0
  0
LWPOLYLINE
  5
1c4
100
AcDbEntity
  8
0
 62
7
100
AcDbPolyline
 90
2
 70
0
 10
254.555541
 20
273.104891
 30
0.0
 10
358.721966
 20
273.104891
 30
0.0
  0
LWPOLYLINE
  5
1c5
100
AcDbEntity
  8
0
 62
7
100
AcDbPolyline
 90
2
 70
0
 10
119.141836
 20
168.938467
 30
0.0
 10
119.141836
 20
273.104891
 30
0.0
  0
LWPOLYLINE
  5
1c6
100
AcDbEntity
  8
0
 62
7
100
AcDbPolyline
 90
2
 70
0
 10
223.308260
 20
168.938467
 30
0.0
 10
119.141836
 20
168.938467
 30
0.0
  0
LWPOLYLINE
  5
1c7
100
AcDbEntity
  8
0
 62
7
100
AcDbPolyline
 90
2
 70
0
 10
223.308260
 20
273.104891
 30
0.0
 10
223.308260
 20
168.938467
 30
0.0
  0
SPLINE
  5
1c8
100
AcDbEntity
  8
0
 62
7
100
AcDbSpline
 70
8
 71
3
 72
8
 73
4
 74
0
 40
0
 40
0
 40
0
 40
0
 40
1
 40
1
 40
1
 40
1
 10
3053.317123
 20
938.040234
 30
0.0
 10
3038.765145
 20
938.040234
 30
0.0
 10
3025.646049
 20
929.274334
 30
0.0
 10
3020.077249
 20
915.830060
 30
0.0
  0
SPLINE
  5
1c9
100
AcDbEntity
  8
0
 62
7
100
AcDbSpline
 70
8
 71
3
 72
8
 73
4
 74
0
 40
0
 40
0
 40
0
 40
0
 40
1
 40
1
 40
1
 40
1
 10
3020.077249
 20
915.830060
 30
0.0
 10
3014.508448
 20
902.385786
 30
0.0
 10
3017.586623
 20
886.910758
 30
0.0
 10
3027.876425
 20
876.620956
 30
0.0
  0
SPLINE
  5
1ca
100
AcDbEntity
  8
0
 62
7
100
AcDbSpline
 70
8
 71
3
 72
8
 73
4
 74
0
 40
0
 40
0
 40
0
 40
0
 40
1
 40
1
 40
1
 40
1
 10
3027.876425
 20
876.620956
 30
0.0
 10
3038.166227
 20
866.331154
 30
0.0
 10
3053.641255
 20
863.252979
 30
0.0
 10
3067.085529
 20
868.821780
 30
0.0
  0
SPLINE
  5
1cb
100
AcDbEntity
  8
0
 62
7
100
AcDbSpline
 70
8
 71
3
 72
8
 73
4
 74
0
 40
0
 40
0
 40
0
 40
0
 40
1
 40
1
 40
1
 40
1
 10
3067.085529
 20
868.821780
 30
0.0
 10
3080.529803
 20
874.390581
 30
0.0
 10
3089.295703
 20
887.509677
 30
0.0
 10
3089.295703
 20
902.061654
 30
0.0
  0
SPLINE
  5
1cc
100
AcDbEntity
  8
0
 62
7
100
AcDbSpline
 70
8
 71
3
 72
8
 73
4
 74
0
 40
0
 40
0
 40
0
 40
0
 40
1
 40
1
 40
1
 40
1
 10
3089.295703
 20
902.061654
 30
0.0
 10
3089.295703
 20
921.932075
 30
0.0
 10
3073.187544
 20
938.040234
 30
0.0
 10
3053.317123
 20
938.040234
 30
0.0
  0
LWPOLYLINE
  5
1cd
100
AcDbEntity
  8
0
 62
7
100
AcDbPolyline
 90
2
 70
0
 10
119.141836
 20
273.104891
 30
0.0
 10
223.308260
 20
273.104891
 30
0.0
  0
SPLINE
  5
1ce
100
AcDbEntity
  8
0
 62
7
100
AcDbSpline
 70
8
 71
3
 72
8
 73
4
 74
0
 40
0
 40
0
 40
0
 40
0
 40
1
 40
1
 40
1
 40
1
 10
2772.276798
 20
1418.457211
 30
0.0
 10
2757.724821
 20
1418.457211
 30
0.0
 10
2744.605725
 20
1409.691311
 30
0.0
 10
2739.036924
 20
1396.247037
 30
0.0
  0
SPLINE
  5
1cf
100
AcDbEntity
  8
0
 62
7
100
AcDbSpline
 70
8
 71
3
 72
8
 73
4
 74
0
 40
0
 40
0
 40
0
 40
0
 40
1
 40
1
 40
1
 40
1
 10
2739.036924
 20
1396.247037
 30
0.0
 10
2733.468124
 20
1382.802763
 30
0.0
 10
2736.546298
 20
1367.327735
 30
0.0
 10
2746.836100
 20
1357.037933
 30
0.0
  0
SPLINE
  5
1d0
100
AcDbEntity
  8
0
 62
7
100
AcDbSpline
 70
8
 71
3
 72
8
 73
4
 74
0
 40
0
 40
0
 40
0
 40
0
 40
1
 40
1
 40
1
 40
1
 10
2746.836100
 20
1357.037933
 30
0.0
 10
2757.125902
 20
1346.748131
 30
0.0
 10
2772.600931
 20
1343.669956
 30
0.0
 10
2786.045205
 20
1349.238757
 30
0.0
  0
SPLINE
  5
1d1
100
AcDbEntity
  8
0
 62
7
100
AcDbSpline
 70
8
 71
3
 72
8
 73
4
 74
0
 40
0
 40
0
 40
0
 40
0
 40
1
 40
1
 40
1
 40
1
 10
2786.045205
 20
1349.238757
 30
0.0
 10
2799.489479
 20
1354.807558
 30
0.0
 10
2808.255378
 20
1367.926653
 30
0.0
 10
2808.255378
 20
1382.478631
 30
0.0
  0
SPLINE
  5
1d2
100
AcDbEntity
  8
0
 62
7
100
AcDbSpline
 70
8
 71
3
 72
8
 73
4
 74
0
 40
0
 40
0
 40
0
 40
0
 40
1
 40
1
 40
1
 40
1
 10
2808.255378
 20
1382.478631
 30
0.0
 10
2808.255378
 20
1392.020744
 30
0.0
 10
2804.464789
 20
1401.172036
 30
0.0
 10
2797.717496
 20
1407.919329
 30
0.0
  0
SPLINE
  5
1d3
100
AcDbEntity
  8
0
 62
7
100
AcDbSpline
 70
8
 71
3
 72
8
 73
4
 74
0
 40
0
 40
0
 40
0
 40
0
 40
1
 40
1
 40
1
 40
1
 10
2797.717496
 20
1407.919329
 30
0.0
 10
2790.970204
 20
1414.666621
 30
0.0
 10
2781.818911
 20
1418.457211
 30
0.0
 10
2772.276798
 20
1418.457211
 30
0.0
  0
LWPOLYLINE
  5
1d4
100
AcDbEntity
  8
0
 62
7
100
AcDbPolyline
 90
1
 70
1
 10
3053.317123
 20
938.040234
 30
0.0
  0
SPLINE
  5
1d5
100
AcDbEntity
  8
0
 62
7
100
AcDbSpline
 70
8
 71
3
 72
8
 73
4
 74
0
 40
0
 40
0
 40
0
 40
0
 40
1
 40
1
 40
1
 40
1
 10
1313.949559
 20
1711.853472
 30
0.0
 10
1298.150268
 20
1711.853472
 30
0.0
 10
1283.906677
 20
1702.336209
 30
0.0
 10
1277.860550
 20
1687.739567
 30
0.0
  0
SPLINE
  5
1d6
100
AcDbEntity
  8
0
 62
7
100
AcDbSpline
 70
8
 71
3
 72
8
 73
4
 74
0
 40
0
 40
0
 40
0
 40
0
 40
1
 40
1
 40
1
 40
1
 10
1277.860550
 20
1687.739567
 30
0.0
 10
1271.814423
 20
1673.142926
 30
0.0
 10
1275.156442
 20
1656.341465
 30
0.0
 10
1286.328227
 20
1645.169679
 30
0.0
  0
SPLINE
  5
1d7
100
AcDbEntity
  8
0
 62
7
100
AcDbSpline
 70
8
 71
3
 72
8
 73
4
 74
0
 40
0
 40
0
 40
0
 40
0
 40
1
 40
1
 40
1
 40
1
 10
1286.328227
 20
1645.169679
 30
0.0
 10
1297.500013
 20
1633.997893
 30
0.0
 10
1314.301474
 20
1630.655874
 30
0.0
 10
1328.898116
 20
1636.702001
 30
0.0
  0
SPLINE
  5
1d8
100
AcDbEntity
  8
0
 62
7
100
AcDbSpline
 70
8
 71
3
 72
8
 73
4
 74
0
 40
0
 40
0
 40
0
 40
0
 40
1
 40
1
 40
1
 40
1
 10
1328.898116
 20
1636.702001
 30
0.0
 10
1343.494758
 20
1642.748128
 30
0.0
 10
1353.012021
 20
1656.991719
 30
0.0
 10
1353.012021
 20
1672.791010
 30
0.0
  0
SPLINE
  5
1d9
100
AcDbEntity
  8
0
 62
7
100
AcDbSpline
 70
8
 71
3
 72
8
 73
4
 74
0
 40
0
 40
0
 40
0
 40
0
 40
1
 40
1
 40
1
 40
1
 10
1353.012021
 20
1672.791010
 30
0.0
 10
1353.012021
 20
1683.151020
 30
0.0
 10
1348.896523
 20
1693.086710
 30
0.0
 10
1341.570891
 20
1700.412342
 30
0.0
  0
SPLINE
  5
1da
100
AcDbEntity
  8
0
 62
7
100
AcDbSpline
 70
8
 71
3
 72
8
 73
4
 74
0
 40
0
 40
0
 40
0
 40
0
 40
1
 40
1
 40
1
 40
1
 10
1341.570891
 20
1700.412342
 30
0.0
 10
1334.245258
 20
1707.737975
 30
0.0
 10
1324.309568
 20
1711.853472
 30
0.0
 10
1313.949559
 20
1711.853472
 30
0.0
  0
LWPOLYLINE
  5
1db
100
AcDbEntity
  8
0
 62
7
100
AcDbPolyline
 90
1
 70
1
 10
2772.276798
 20
1418.457211
 30
0.0
  0
SPLINE
  5
1dc
100
AcDbEntity
  8
0
 62
7
100
AcDbSpline
 70
8
 71
3
 72
8
 73
4
 74
0
 40
0
 40
0
 40
0
 40
0
 40
1
 40
1
 40
1
 40
1
 10
3943.189956
 20
1721.998753
 30
0.0
 10
3928.637978
 20
1721.998753
 30
0.0
 10
3915.518882
 20
1713.232853
 30
0.0
 10
3909.950082
 20
1699.788579
 30
0.0
  0
SPLINE
  5
1dd
100
AcDbEntity
  8
0
 62
7
100
AcDbSpline
 70
8
 71
3
 72
8
 73
4
 74
0
 40
0
 40
0
 40
0
 40
0
 40
1
 40
1
 40
1
 40
1
 10
3909.950082
 20
1699.788579
 30
0.0
 10
3904.381281
 20
1686.344305
 30
0.0
 10
3907.459456
 20
1670.869277
 30
0.0
 10
3917.749258
 20
1660.579475
 30
0.0
  0
SPLINE
  5
1de
100
AcDbEntity
  8
0
 62
7
100
AcDbSpline
 70
8
 71
3
 72
8
 73
4
 74
0
 40
0
 40
0
 40
0
 40
0
 40
1
 40
1
 40
1
 40
1
 10
3917.749258
 20
1660.579475
 30
0.0
 10
3928.039059
 20
1650.289673
 30
0.0
 10
3943.514088
 20
1647.211498
 30
0.0
 10
3956.958362
 20
1652.780299
 30
0.0
  0
SPLINE
  5
1df
100
AcDbEntity
  8
0
 62
7
100
AcDbSpline
 70
8
 71
3
 72
8
 73
4
 74
0
 40
0
 40
0
 40
0
 40
0
 40
1
 40
1
 40
1
 40
1
 10
3956.958362
 20
1652.780299
 30
0.0
 10
3970.402636
 20
1658.349100
 30
0.0
 10
3979.168536
 20
1671.468195
 30
0.0
 10
3979.168536
 20
1686.020173
 30
0.0
  0
SPLINE
  5
1e0
100
AcDbEntity
  8
0
 62
7
100
AcDbSpline
 70
8
 71
3
 72
8
 73
4
 74
0
 40
0
 40
0
 40
0
 40
0
 40
1
 40
1
 40
1
 40
1
 10
3979.168536
 20
1686.020173
 30
0.0
 10
3979.168536
 20
1695.562286
 30
0.0
 10
3975.377946
 20
1704.713578
 30
0.0
 10
3968.630654
 20
1711.460871
 30
0.0
  0
SPLINE
  5
1e1
100
AcDbEntity
  8
0
 62
7
100
AcDbSpline
 70
8
 71
3
 72
8
 73
4
 74
0
 40
0
 40
0
 40
0
 40
0
 40
1
 40
1
 40
1
 40
1
 10
3968.630654
 20
1711.460871
 30
0.0
 10
3961.883361
 20
1718.208163
 30
0.0
 10
3952.732068
 20
1721.998753
 30
0.0
 10
3943.189956
 20
1721.998753
 30
0.0
  0
LWPOLYLINE
  5
1e2
100
AcDbEntity
  8
0
 62
7
100
AcDbPolyline
 90
1
 70
1
 10
1313.949559
 20
1711.853472
 30
0.0
  0
SPLINE
  5
1e3
100
AcDbEntity
  8
0
 62
7
100
AcDbSpline
 70
8
 71
3
 72
8
 73
4
 74
0
 40
0
 40
0
 40
0
 40
0
 40
1
 40
1
 40
1
 40
1
 10
3744.011688
 20
1721.998753
 30
0.0
 10
3729.459710
 20
1721.998753
 30
0.0
 10
3716.340614
 20
1713.232853
 30
0.0
 10
3710.771814
 20
1699.788579
 30
0.0
  0
SPLINE
  5
1e4
100
AcDbEntity
  8
0
 62
7
100
AcDbSpline
 70
8
 71
3
 72
8
 73
4
 74
0
 40
0
 40
0
 40
0
 40
0
 40
1
 40
1
 40
1
 40
1
 10
3710.771814
 20
1699.788579
 30
0.0
 10
3705.203013
 20
1686.344305
 30
0.0
 10
3708.281188
 20
1670.869277
 30
0.0
 10
3718.570990
 20
1660.579475
 30
0.0
  0
SPLINE
  5
1e5
100
AcDbEntity
  8
0
 62
7
100
AcDbSpline
 70
8
 71
3
 72
8
 73
4
 74
0
 40
0
 40
0
 40
0
 40
0
 40
1
 40
1
 40
1
 40
1
 10
3718.570990
 20
1660.579475
 30
0.0
 10
3728.860791
 20
1650.289673
 30
0.0
 10
3744.335820
 20
1647.211498
 30
0.0
 10
3757.780094
 20
1652.780299
 30
0.0
  0
SPLINE
  5
1e6
100
AcDbEntity
  8
0
 62
7
100
AcDbSpline
 70
8
 71
3
 72
8
 73
4
 74
0
 40
0
 40
0
 40
0
 40
0
 40
1
 40
1
 40
1
 40
1
 10
3757.780094
 20
1652.780299
 30
0.0
 10
3771.224368
 20
1658.349100
 30
0.0
 10
3779.990268
 20
1671.468195
 30
0.0
 10
3779.990268
 20
1686.020173
 30
0.0
  0
SPLINE
  5
1e7
100
AcDbEntity
  8
0
 62
7
100
AcDbSpline
 70
8
 71
3
 72
8
 73
4
 74
0
 40
0
 40
0
 40
0
 40
0
 40
1
 40
1
 40
1
 40
1
 10
3779.990268
 20
1686.020173
 30
0.0
 10
3779.990268
 20
1695.562286
 30
0.0
 10
3776.199678
 20
1704.713578
 30
0.0
 10
3769.452386
 20
1711.460871
 30
0.0
  0
SPLINE
  5
1e8
100
AcDbEntity
  8
0
 62
7
100
AcDbSpline
 70
8
 71
3
 72
8
 73
4
 74
0
 40
0
 40
0
 40
0
 40
0
 40
1
 40
1
 40
1
 40
1
 10
3769.452386
 20
1711.460871
 30
0.0
 10
3762.705093
 20
1718.208163
 30
0.0
 10
3753.553800
 20
1721.998753
 30
0.0
 10
3744.011688
 20
1721.998753
 30
0.0
  0
LWPOLYLINE
  5
1e9
100
AcDbEntity
  8
0
 62
7
100
AcDbPolyline
 90
1
 70
1
 10
3943.189956
 20
1721.998753
 30
0.0
  0
SPLINE
  5
1ea
100
AcDbEntity
  8
0
 62
7
100
AcDbSpline
 70
8
 71
3
 72
8
 73
4
 74
0
 40
0
 40
0
 40
0
 40
0
 40
1
 40
1
 40
1
 40
1
 10
3544.859878
 20
1721.998753
 30
0.0
 10
3530.307901
 20
1721.998753
 30
0.0
 10
3517.188805
 20
1713.232853
 30
0.0
 10
3511.620004
 20
1699.788579
 30
0.0
  0
SPLINE
  5
1eb
100
AcDbEntity
  8
0
 62
7
100
AcDbSpline
 70
8
 71
3
 72
8
 73
4
 74
0
 40
0
 40
0
 40
0
 40
0
 40
1
 40
1
 40
1
 40
1
 10
3511.620004
 20
1699.788579
 30
0.0
 10
3506.051204
 20
1686.344305
 30
0.0
 10
3509.129378
 20
1670.869277
 30
0.0
 10
3519.419180
 20
1660.579475
 30
0.0
  0
SPLINE
  5
1ec
100
AcDbEntity
  8
0
 62
7
100
AcDbSpline
 70
8
 71
3
 72
8
 73
4
 74
0
 40
0
 40
0
 40
0
 40
0
 40
1
 40
1
 40
1
 40
1
 10
3519.419180
 20
1660.579475
 30
0.0
 10
3529.708982
 20
1650.289673
 30
0.0
 10
3545.184011
 20
1647.211498
 30
0.0
 10
3558.628285
 20
1652.780299
 30
0.0
  0
SPLINE
  5
1ed
100
AcDbEntity
  8
0
 62
7
100
AcDbSpline
 70
8
 71
3
 72
8
 73
4
 74
0
 40
0
 40
0
 40
0
 40
0
 40
1
 40
1
 40
1
 40
1
 10
3558.628285
 20
1652.780299
 30
0.0
 10
3572.072559
 20
1658.349100
 30
0.0
 10
3580.838458
 20
1671.468195
 30
0.0
 10
3580.838458
 20
1686.020173
 30
0.0
  0
SPLINE
  5
1ee
100
AcDbEntity
  8
0
 62
7
100
AcDbSpline
 70
8
 71
3
 72
8
 73
4
 74
0
 40
0
 40
0
 40
0
 40
0
 40
1
 40
1
 40
1
 40
1
 10
3580.838458
 20
1686.020173
 30
0.0
 10
3580.838458
 20
1695.562286
 30
0.0
 10
3577.047869
 20
1704.713578
 30
0.0
 10
3570.300576
 20
1711.460871
 30
0.0
  0
SPLINE
  5
1ef
100
AcDbEntity
  8
0
 62
7
100
AcDbSpline
 70
8
 71
3
 72
8
 73
4
 74
0
 40
0
 40
0
 40
0
 40
0
 40
1
 40
1
 40
1
 40
1
 10
3570.300576
 20
1711.460871
 30
0.0
 10
3563.553283
 20
1718.208163
 30
0.0
 10
3554.401991
 20
1721.998753
 30
0.0
 10
3544.859878
 20
1721.998753
 30
0.0
  0
LWPOLYLINE
  5
1f0
100
AcDbEntity
  8
0
 62
7
100
AcDbPolyline
 90
1
 70
1
 10
3744.011688
 20
1721.998753
 30
0.0
  0
SPLINE
  5
1f1
100
AcDbEntity
  8
0
 62
7
100
AcDbSpline
 70
8
 71
3
 72
8
 73
4
 74
0
 40
0
 40
0
 40
0
 40
0
 40
1
 40
1
 40
1
 40
1
 10
3345.681610
 20
1721.998753
 30
0.0
 10
3331.129633
 20
1721.998753
 30
0.0
 10
3318.010537
 20
1713.232853
 30
0.0
 10
3312.441736
 20
1699.788579
 30
0.0
  0
SPLINE
  5
1f2
100
AcDbEntity
  8
0
 62
7
100
AcDbSpline
 70
8
 71
3
 72
8
 73
4
 74
0
 40
0
 40
0
 40
0
 40
0
 40
1
 40
1
 40
1
 40
1
 10
3312.441736
 20
1699.788579
 30
0.0
 10
3306.872936
 20
1686.344305
 30
0.0
 10
3309.951110
 20
1670.869277
 30
0.0
 10
3320.240912
 20
1660.579475
 30
0.0
  0
SPLINE
  5
1f3
100
AcDbEntity
  8
0
 62
7
100
AcDbSpline
 70
8
 71
3
 72
8
 73
4
 74
0
 40
0
 40
0
 40
0
 40
0
 40
1
 40
1
 40
1
 40
1
 10
3320.240912
 20
1660.579475
 30
0.0
 10
3330.530714
 20
1650.289673
 30
0.0
 10
3346.005743
 20
1647.211498
 30
0.0
 10
3359.450017
 20
1652.780299
 30
0.0
  0
SPLINE
  5
1f4
100
AcDbEntity
  8
0
 62
7
100
AcDbSpline
 70
8
 71
3
 72
8
 73
4
 74
0
 40
0
 40
0
 40
0
 40
0
 40
1
 40
1
 40
1
 40
1
 10
3359.450017
 20
1652.780299
 30
0.0
 10
3372.894291
 20
1658.349100
 30
0.0
 10
3381.660190
 20
1671.468195
 30
0.0
 10
3381.660190
 20
1686.020173
 30
0.0
  0
SPLINE
  5
1f5
100
AcDbEntity
  8
0
 62
7
100
AcDbSpline
 70
8
 71
3
 72
8
 73
4
 74
0
 40
0
 40
0
 40
0
 40
0
 40
1
 40
1
 40
1
 40
1
 10
3381.660190
 20
1686.020173
 30
0.0
 10
3381.660190
 20
1695.562286
 30
0.0
 10
3377.869601
 20
1704.713578
 30
0.0
 10
3371.122308
 20
1711.460871
 30
0.0
  0
SPLINE
  5
1f6
100
AcDbEntity
  8
0
 62
7
100
AcDbSpline
 70
8
 71
3
 72
8
 73
4
 74
0
 40
0
 40
0
 40
0
 40
0
 40
1
 40
1
 40
1
 40
1
 10
3371.122308
 20
1711.460871
 30
0.0
 10
3364.375015
 20
1718.208163
 30
0.0
 10
3355.223723
 20
1721.998753
 30
0.0
 10
3345.681610
 20
1721.998753
 30
0.0
  0
LWPOLYLINE
  5
1f7
100
AcDbEntity
  8
0
 62
7
100
AcDbPolyline
 90
1
 70
1
 10
3544.859878
 20
1721.998753
 30
0.0
  0
SPLINE
  5
1f8
100
AcDbEntity
  8
0
 62
7
100
AcDbSpline
 70
8
 71
3
 72
8
 73
4
 74
0
 40
0
 40
0
 40
0
 40
0
 40
1
 40
1
 40
1
 40
1
 10
3146.529800
 20
1721.998753
 30
0.0
 10
3131.977823
 20
1721.998753
 30
0.0
 10
3118.858727
 20
1713.232853
 30
0.0
 10
3113.289927
 20
1699.788579
 30
0.0
  0
SPLINE
  5
1f9
100
AcDbEntity
  8
0
 62
7
100
AcDbSpline
 70
8
 71
3
 72
8
 73
4
 74
0
 40
0
 40
0
 40
0
 40
0
 40
1
 40
1
 40
1
 40
1
 10
3113.289927
 20
1699.788579
 30
0.0
 10
3107.721126
 20
1686.344305
 30
0.0
 10
3110.799301
 20
1670.869277
 30
0.0
 10
3121.089102
 20
1660.579475
 30
0.0
  0
SPLINE
  5
1fa
100
AcDbEntity
  8
0
 62
7
100
AcDbSpline
 70
8
 71
3
 72
8
 73
4
 74
0
 40
0
 40
0
 40
0
 40
0
 40
1
 40
1
 40
1
 40
1
 10
3121.089102
 20
1660.579475
 30
0.0
 10
3131.378904
 20
1650.289673
 30
0.0
 10
3146.853933
 20
1647.211498
 30
0.0
 10
3160.298207
 20
1652.780299
 30
0.0
  0
SPLINE
  5
1fb
100
AcDbEntity
  8
0
 62
7
100
AcDbSpline
 70
8
 71
3
 72
8
 73
4
 74
0
 40
0
 40
0
 40
0
 40
0
 40
1
 40
1
 40
1
 40
1
 10
3160.298207
 20
1652.780299
 30
0.0
 10
3173.742481
 20
1658.349100
 30
0.0
 10
3182.508381
 20
1671.468195
 30
0.0
 10
3182.508381
 20
1686.020173
 30
0.0
  0
SPLINE
  5
1fc
100
AcDbEntity
  8
0
 62
7
100
AcDbSpline
 70
8
 71
3
 72
8
 73
4
 74
0
 40
0
 40
0
 40
0
 40
0
 40
1
 40
1
 40
1
 40
1
 10
3182.508381
 20
1686.020173
 30
0.0
 10
3182.508381
 20
1695.562286
 30
0.0
 10
3178.717791
 20
1704.713578
 30
0.0
 10
3171.970498
 20
1711.460871
 30
0.0
  0
SPLINE
  5
1fd
100
AcDbEntity
  8
0
 62
7
100
AcDbSpline
 70
8
 71
3
 72
8
 73
4
 74
0
 40
0
 40
0
 40
0
 40
0
 40
1
 40
1
 40
1
 40
1
 10
3171.970498
 20
1711.460871
 30
0.0
 10
3165.223206
 20
1718.208163
 30
0.0
 10
3156.071913
 20
1721.998753
 30
0.0
 10
3146.529800
 20
1721.998753
 30
0.0
  0
LWPOLYLINE
  5
1fe
100
AcDbEntity
  8
0
 62
7
100
AcDbPolyline
 90
1
 70
1
 10
3345.681610
 20
1721.998753
 30
0.0
  0
SPLINE
  5
1ff
100
AcDbEntity
  8
0
 62
7
100
AcDbSpline
 70
8
 71
3
 72
8
 73
4
 74
0
 40
0
 40
0
 40
0
 40
0
 40
1
 40
1
 40
1
 40
1
 10
2947.351533
 20
1721.998753
 30
0.0
 10
2932.799555
 20
1721.998753
 30
0.0
 10
2919.680459
 20
1713.232853
 30
0.0
 10
2914.111659
 20
1699.788579
 30
0.0
  0
SPLINE
  5
200
100
AcDbEntity
  8
0
 62
7
100
AcDbSpline
 70
8
 71
3
 72
8
 73
4
 74
0
 40
0
 40
0
 40
0
 40
0
 40
1
 40
1
 40
1
 40
1
 10
2914.111659
 20
1699.788579
 30
0.0
 10
2908.542858
 20
1686.344305
 30
0.0
 10
2911.621033
 20
1670.869277
 30
0.0
 10
2921.910834
 20
1660.579475
 30
0.0
  0
SPLINE
  5
201
100
AcDbEntity
  8
0
 62
7
100
AcDbSpline
 70
8
 71
3
 72
8
 73
4
 74
0
 40
0
 40
0
 40
0
 40
0
 40
1
 40
1
 40
1
 40
1
 10
2921.910834
 20
1660.579475
 30
0.0
 10
2932.200636
 20
1650.289673
 30
0.0
 10
2947.675665
 20
1647.211498
 30
0.0
 10
2961.119939
 20
1652.780299
 30
0.0
  0
SPLINE
  5
202
100
AcDbEntity
  8
0
 62
7
100
AcDbSpline
 70
8
 71
3
 72
8
 73
4
 74
0
 40
0
 40
0
 40
0
 40
0
 40
1
 40
1
 40
1
 40
1
 10
2961.119939
 20
1652.780299
 30
0.0
 10
2974.564213
 20
1658.349100
 30
0.0
 10
2983.330113
 20
1671.468195
 30
0.0
 10
2983.330113
 20
1686.020173
 30
0.0
  0
SPLINE
  5
203
100
AcDbEntity
  8
0
 62
7
100
AcDbSpline
 70
8
 71
3
 72
8
 73
4
 74
0
 40
0
 40
0
 40
0
 40
0
 40
1
 40
1
 40
1
 40
1
 10
2983.330113
 20
1686.020173
 30
0.0
 10
2983.330113
 20
1695.562286
 30
0.0
 10
2979.539523
 20
1704.713578
 30
0.0
 10
2972.792231
 20
1711.460871
 30
0.0
  0
SPLINE
  5
204
100
AcDbEntity
  8
0
 62
7
100
AcDbSpline
 70
8
 71
3
 72
8
 73
4
 74
0
 40
0
 40
0
 40
0
 40
0
 40
1
 40
1
 40
1
 40
1
 10
2972.792231
 20
1711.460871
 30
0.0
 10
2966.044938
 20
1718.208163
 30
0.0
 10
2956.893645
 20
1721.998753
 30
0.0
 10
2947.351533
 20
1721.998753
 30
0.0
  0
LWPOLYLINE
  5
205
100
AcDbEntity
  8
0
 62
7
100
AcDbPolyline
 90
1
 70
1
 10
3146.529800
 20
1721.998753
 30
0.0
  0
SPLINE
  5
206
100
AcDbEntity
  8
0
 62
7
100
AcDbSpline
 70
8
 71
3
 72
8
 73
4
 74
0
 40
0
 40
0
 40
0
 40
0
 40
1
 40
1
 40
1
 40
1
 10
1109.868537
 20
1720.498836
 30
0.0
 10
1095.316559
 20
1720.498836
 30
0.0
 10
1082.197462
 20
1711.732936
 30
0.0
 10
1076.628661
 20
1698.288661
 30
0.0
  0
SPLINE
  5
207
100
AcDbEntity
  8
0
 62
7
100
AcDbSpline
 70
8
 71
3
 72
8
 73
4
 74
0
 40
0
 40
0
 40
0
 40
0
 40
1
 40
1
 40
1
 40
1
 10
1076.628661
 20
1698.288661
 30
0.0
 10
1071.059860
 20
1684.844386
 30
0.0
 10
1074.138035
 20
1669.369356
 30
0.0
 10
1084.427837
 20
1659.079553
 30
0.0
  0
SPLINE
  5
208
100
AcDbEntity
  8
0
 62
7
100
AcDbSpline
 70
8
 71
3
 72
8
 73
4
 74
0
 40
0
 40
0
 40
0
 40
0
 40
1
 40
1
 40
1
 40
1
 10
1084.427837
 20
1659.079553
 30
0.0
 10
1094.717640
 20
1648.789751
 30
0.0
 10
1110.192670
 20
1645.711576
 30
0.0
 10
1123.636945
 20
1651.280377
 30
0.0
  0
SPLINE
  5
209
100
AcDbEntity
  8
0
 62
7
100
AcDbSpline
 70
8
 71
3
 72
8
 73
4
 74
0
 40
0
 40
0
 40
0
 40
0
 40
1
 40
1
 40
1
 40
1
 10
1123.636945
 20
1651.280377
 30
0.0
 10
1137.081220
 20
1656.849178
 30
0.0
 10
1145.847120
 20
1669.968275
 30
0.0
 10
1145.847120
 20
1684.520253
 30
0.0
  0
SPLINE
  5
20a
100
AcDbEntity
  8
0
 62
7
100
AcDbSpline
 70
8
 71
3
 72
8
 73
4
 74
0
 40
0
 40
0
 40
0
 40
0
 40
1
 40
1
 40
1
 40
1
 10
1145.847120
 20
1684.520253
 30
0.0
 10
1145.847120
 20
1694.062366
 30
0.0
 10
1142.056530
 20
1703.213660
 30
0.0
 10
1135.309237
 20
1709.960953
 30
0.0
  0
SPLINE
  5
20b
100
AcDbEntity
  8
0
 62
7
100
AcDbSpline
 70
8
 71
3
 72
8
 73
4
 74
0
 40
0
 40
0
 40
0
 40
0
 40
1
 40
1
 40
1
 40
1
 10
1135.309237
 20
1709.960953
 30
0.0
 10
1128.561944
 20
1716.708246
 30
0.0
 10
1119.410651
 20
1720.498836
 30
0.0
 10
1109.868537
 20
1720.498836
 30
0.0
  0
LWPOLYLINE
  5
20c
100
AcDbEntity
  8
0
 62
7
100
AcDbPolyline
 90
1
 70
1
 10
2947.351533
 20
1721.998753
 30
0.0
  0
SPLINE
  5
20d
100
AcDbEntity
  8
0
 62
7
100
AcDbSpline
 70
8
 71
3
 72
8
 73
4
 74
0
 40
0
 40
0
 40
0
 40
0
 40
1
 40
1
 40
1
 40
1
 10
910.372769
 20
1720.498833
 30
0.0
 10
895.820792
 20
1720.498833
 30
0.0
 10
882.701696
 20
1711.732934
 30
0.0
 10
877.132895
 20
1698.288660
 30
0.0
  0
SPLINE
  5
20e
100
AcDbEntity
  8
0
 62
7
100
AcDbSpline
 70
8
 71
3
 72
8
 73
4
 74
0
 40
0
 40
0
 40
0
 40
0
 40
1
 40
1
 40
1
 40
1
 10
877.132895
 20
1698.288660
 30
0.0
 10
871.564095
 20
1684.844386
 30
0.0
 10
874.642269
 20
1669.369357
 30
0.0
 10
884.932071
 20
1659.079555
 30
0.0
  0
SPLINE
  5
20f
100
AcDbEntity
  8
0
 62
7
100
AcDbSpline
 70
8
 71
3
 72
8
 73
4
 74
0
 40
0
 40
0
 40
0
 40
0
 40
1
 40
1
 40
1
 40
1
 10
884.932071
 20
1659.079555
 30
0.0
 10
895.221873
 20
1648.789753
 30
0.0
 10
910.696902
 20
1645.711579
 30
0.0
 10
924.141176
 20
1651.280379
 30
0.0
  0
SPLINE
  5
210
100
AcDbEntity
  8
0
 62
7
100
AcDbSpline
 70
8
 71
3
 72
8
 73
4
 74
0
 40
0
 40
0
 40
0
 40
0
 40
1
 40
1
 40
1
 40
1
 10
924.141176
 20
1651.280379
 30
0.0
 10
937.585450
 20
1656.849180
 30
0.0
 10
946.351349
 20
1669.968276
 30
0.0
 10
946.351349
 20
1684.520253
 30
0.0
  0
SPLINE
  5
211
100
AcDbEntity
  8
0
 62
7
100
AcDbSpline
 70
8
 71
3
 72
8
 73
4
 74
0
 40
0
 40
0
 40
0
 40
0
 40
1
 40
1
 40
1
 40
1
 10
946.351349
 20
1684.520253
 30
0.0
 10
946.351349
 20
1694.062366
 30
0.0
 10
942.560760
 20
1703.213658
 30
0.0
 10
935.813467
 20
1709.960951
 30
0.0
  0
SPLINE
  5
212
100
AcDbEntity
  8
0
 62
7
100
AcDbSpline
 70
8
 71
3
 72
8
 73
4
 74
0
 40
0
 40
0
 40
0
 40
0
 40
1
 40
1
 40
1
 40
1
 10
935.813467
 20
1709.960951
 30
0.0
 10
929.066175
 20
1716.708244
 30
0.0
 10
919.914882
 20
1720.498833
 30
0.0
 10
910.372769
 20
1720.498833
 30
0.0
  0
LWPOLYLINE
  5
213
100
AcDbEntity
  8
0
 62
7
100
AcDbPolyline
 90
1
 70
1
 10
1109.868537
 20
1720.498836
 30
0.0
  0
SPLINE
  5
214
100
AcDbEntity
  8
0
 62
7
100
AcDbSpline
 70
8
 71
3
 72
8
 73
4
 74
0
 40
0
 40
0
 40
0
 40
0
 40
1
 40
1
 40
1
 40
1
 10
710.877001
 20
1720.498833
 30
0.0
 10
696.325024
 20
1720.498833
 30
0.0
 10
683.205928
 20
1711.732934
 30
0.0
 10
677.637128
 20
1698.288660
 30
0.0
  0
SPLINE
  5
215
100
AcDbEntity
  8
0
 62
7
100
AcDbSpline
 70
8
 71
3
 72
8
 73
4
 74
0
 40
0
 40
0
 40
0
 40
0
 40
1
 40
1
 40
1
 40
1
 10
677.637128
 20
1698.288660
 30
0.0
 10
672.068327
 20
1684.844386
 30
0.0
 10
675.146502
 20
1669.369357
 30
0.0
 10
685.436303
 20
1659.079555
 30
0.0
  0
SPLINE
  5
216
100
AcDbEntity
  8
0
 62
7
100
AcDbSpline
 70
8
 71
3
 72
8
 73
4
 74
0
 40
0
 40
0
 40
0
 40
0
 40
1
 40
1
 40
1
 40
1
 10
685.436303
 20
1659.079555
 30
0.0
 10
695.726105
 20
1648.789753
 30
0.0
 10
711.201134
 20
1645.711579
 30
0.0
 10
724.645408
 20
1651.280379
 30
0.0
  0
SPLINE
  5
217
100
AcDbEntity
  8
0
 62
7
100
AcDbSpline
 70
8
 71
3
 72
8
 73
4
 74
0
 40
0
 40
0
 40
0
 40
0
 40
1
 40
1
 40
1
 40
1
 10
724.645408
 20
1651.280379
 30
0.0
 10
738.089682
 20
1656.849180
 30
0.0
 10
746.855582
 20
1669.968276
 30
0.0
 10
746.855582
 20
1684.520253
 30
0.0
  0
SPLINE
  5
218
100
AcDbEntity
  8
0
 62
7
100
AcDbSpline
 70
8
 71
3
 72
8
 73
4
 74
0
 40
0
 40
0
 40
0
 40
0
 40
1
 40
1
 40
1
 40
1
 10
746.855582
 20
1684.520253
 30
0.0
 10
746.855582
 20
1694.062366
 30
0.0
 10
743.064992
 20
1703.213658
 30
0.0
 10
736.317699
 20
1709.960951
 30
0.0
  0
SPLINE
  5
219
100
AcDbEntity
  8
0
 62
7
100
AcDbSpline
 70
8
 71
3
 72
8
 73
4
 74
0
 40
0
 40
0
 40
0
 40
0
 40
1
 40
1
 40
1
 40
1
 10
736.317699
 20
1709.960951
 30
0.0
 10
729.570407
 20
1716.708244
 30
0.0
 10
720.419114
 20
1720.498833
 30
0.0
 10
710.877001
 20
1720.498833
 30
0.0
  0
LWPOLYLINE
  5
21a
100
AcDbEntity
  8
0
 62
7
100
AcDbPolyline
 90
1
 70
1
 10
910.372769
 20
1720.498833
 30
0.0
  0
SPLINE
  5
21b
100
AcDbEntity
  8
0
 62
7
100
AcDbSpline
 70
8
 71
3
 72
8
 73
4
 74
0
 40
0
 40
0
 40
0
 40
0
 40
1
 40
1
 40
1
 40
1
 10
511.381234
 20
1720.498833
 30
0.0
 10
491.510812
 20
1720.498833
 30
0.0
 10
475.402653
 20
1704.390674
 30
0.0
 10
475.402653
 20
1684.520253
 30
0.0
  0
SPLINE
  5
21c
100
AcDbEntity
  8
0
 62
7
100
AcDbSpline
 70
8
 71
3
 72
8
 73
4
 74
0
 40
0
 40
0
 40
0
 40
0
 40
1
 40
1
 40
1
 40
1
 10
475.402653
 20
1684.520253
 30
0.0
 10
475.402653
 20
1664.649832
 30
0.0
 10
491.510812
 20
1648.541673
 30
0.0
 10
511.381234
 20
1648.541673
 30
0.0
  0
SPLINE
  5
21d
100
AcDbEntity
  8
0
 62
7
100
AcDbSpline
 70
8
 71
3
 72
8
 73
4
 74
0
 40
0
 40
0
 40
0
 40
0
 40
1
 40
1
 40
1
 40
1
 10
511.381234
 20
1648.541673
 30
0.0
 10
531.251655
 20
1648.541673
 30
0.0
 10
547.359814
 20
1664.649832
 30
0.0
 10
547.359814
 20
1684.520253
 30
0.0
  0
SPLINE
  5
21e
100
AcDbEntity
  8
0
 62
7
100
AcDbSpline
 70
8
 71
3
 72
8
 73
4
 74
0
 40
0
 40
0
 40
0
 40
0
 40
1
 40
1
 40
1
 40
1
 10
547.359814
 20
1684.520253
 30
0.0
 10
547.359814
 20
1694.062366
 30
0.0
 10
543.569224
 20
1703.213658
 30
0.0
 10
536.821932
 20
1709.960951
 30
0.0
  0
SPLINE
  5
21f
100
AcDbEntity
  8
0
 62
7
100
AcDbSpline
 70
8
 71
3
 72
8
 73
4
 74
0
 40
0
 40
0
 40
0
 40
0
 40
1
 40
1
 40
1
 40
1
 10
536.821932
 20
1709.960951
 30
0.0
 10
530.074639
 20
1716.708244
 30
0.0
 10
520.923346
 20
1720.498833
 30
0.0
 10
511.381234
 20
1720.498833
 30
0.0
  0
LWPOLYLINE
  5
220
100
AcDbEntity
  8
0
 62
7
100
AcDbPolyline
 90
1
 70
1
 10
710.877001
 20
1720.498833
 30
0.0
  0
SPLINE
  5
221
100
AcDbEntity
  8
0
 62
7
100
AcDbSpline
 70
8
 71
3
 72
8
 73
4
 74
0
 40
0
 40
0
 40
0
 40
0
 40
1
 40
1
 40
1
 40
1
 10
311.885439
 20
1720.498833
 30
0.0
 10
297.333462
 20
1720.498833
 30
0.0
 10
284.214366
 20
1711.732934
 30
0.0
 10
278.645565
 20
1698.288660
 30
0.0
  0
SPLINE
  5
222
100
AcDbEntity
  8
0
 62
7
100
AcDbSpline
 70
8
 71
3
 72
8
 73
4
 74
0
 40
0
 40
0
 40
0
 40
0
 40
1
 40
1
 40
1
 40
1
 10
278.645565
 20
1698.288660
 30
0.0
 10
273.076765
 20
1684.844386
 30
0.0
 10
276.154939
 20
1669.369357
 30
0.0
 10
286.444741
 20
1659.079555
 30
0.0
  0
SPLINE
  5
223
100
AcDbEntity
  8
0
 62
7
100
AcDbSpline
 70
8
 71
3
 72
8
 73
4
 74
0
 40
0
 40
0
 40
0
 40
0
 40
1
 40
1
 40
1
 40
1
 10
286.444741
 20
1659.079555
 30
0.0
 10
296.734543
 20
1648.789753
 30
0.0
 10
312.209572
 20
1645.711579
 30
0.0
 10
325.653846
 20
1651.280379
 30
0.0
  0
SPLINE
  5
224
100
AcDbEntity
  8
0
 62
7
100
AcDbSpline
 70
8
 71
3
 72
8
 73
4
 74
0
 40
0
 40
0
 40
0
 40
0
 40
1
 40
1
 40
1
 40
1
 10
325.653846
 20
1651.280379
 30
0.0
 10
339.098120
 20
1656.849180
 30
0.0
 10
347.864019
 20
1669.968276
 30
0.0
 10
347.864019
 20
1684.520253
 30
0.0
  0
SPLINE
  5
225
100
AcDbEntity
  8
0
 62
7
100
AcDbSpline
 70
8
 71
3
 72
8
 73
4
 74
0
 40
0
 40
0
 40
0
 40
0
 40
1
 40
1
 40
1
 40
1
 10
347.864019
 20
1684.520253
 30
0.0
 10
347.864019
 20
1694.062366
 30
0.0
 10
344.073430
 20
1703.213658
 30
0.0
 10
337.326137
 20
1709.960951
 30
0.0
  0
SPLINE
  5
226
100
AcDbEntity
  8
0
 62
7
100
AcDbSpline
 70
8
 71
3
 72
8
 73
4
 74
0
 40
0
 40
0
 40
0
 40
0
 40
1
 40
1
 40
1
 40
1
 10
337.326137
 20
1709.960951
 30
0.0
 10
330.578845
 20
1716.708244
 30
0.0
 10
321.427552
 20
1720.498833
 30
0.0
 10
311.885439
 20
1720.498833
 30
0.0
  0
LWPOLYLINE
  5
227
100
AcDbEntity
  8
0
 62
7
100
AcDbPolyline
 90
1
 70
1
 10
511.381234
 20
1720.498833
 30
0.0
  0
SPLINE
  5
228
100
AcDbEntity
  8
0
 62
7
100
AcDbSpline
 70
8
 71
3
 72
8
 73
4
 74
0
 40
0
 40
0
 40
0
 40
0
 40
1
 40
1
 40
1
 40
1
 10
112.388349
 20
1720.498833
 30
0.0
 10
97.836371
 20
1720.498833
 30
0.0
 10
84.717275
 20
1711.732934
 30
0.0
 10
79.148475
 20
1698.288660
 30
0.0
  0
SPLINE
  5
229
100
AcDbEntity
  8
0
 62
7
100
AcDbSpline
 70
8
 71
3
 72
8
 73
4
 74
0
 40
0
 40
0
 40
0
 40
0
 40
1
 40
1
 40
1
 40
1
 10
79.148475
 20
1698.288660
 30
0.0
 10
73.579674
 20
1684.844386
 30
0.0
 10
76.657849
 20
1669.369357
 30
0.0
 10
86.947650
 20
1659.079555
 30
0.0
  0
SPLINE
  5
22a
100
AcDbEntity
  8
0
 62
7
100
AcDbSpline
 70
8
 71
3
 72
8
 73
4
 74
0
 40
0
 40
0
 40
0
 40
0
 40
1
 40
1
 40
1
 40
1
 10
86.947650
 20
1659.079555
 30
0.0
 10
97.237452
 20
1648.789753
 30
0.0
 10
112.712481
 20
1645.711579
 30
0.0
 10
126.156755
 20
1651.280379
 30
0.0
  0
SPLINE
  5
22b
100
AcDbEntity
  8
0
 62
7
100
AcDbSpline
 70
8
 71
3
 72
8
 73
4
 74
0
 40
0
 40
0
 40
0
 40
0
 40
1
 40
1
 40
1
 40
1
 10
126.156755
 20
1651.280379
 30
0.0
 10
139.601029
 20
1656.849180
 30
0.0
 10
148.366929
 20
1669.968276
 30
0.0
 10
148.366929
 20
1684.520253
 30
0.0
  0
SPLINE
  5
22c
100
AcDbEntity
  8
0
 62
7
100
AcDbSpline
 70
8
 71
3
 72
8
 73
4
 74
0
 40
0
 40
0
 40
0
 40
0
 40
1
 40
1
 40
1
 40
1
 10
148.366929
 20
1684.520253
 30
0.0
 10
148.366929
 20
1704.390674
 30
0.0
 10
132.258770
 20
1720.498833
 30
0.0
 10
112.388349
 20
1720.498833
 30
0.0
  0
LWPOLYLINE
  5
22d
100
AcDbEntity
  8
0
 62
7
100
AcDbPolyline
 90
1
 70
1
 10
311.885439
 20
1720.498833
 30
0.0
  0
SPLINE
  5
22e
100
AcDbEntity
  8
0
 62
7
100
AcDbSpline
 70
8
 71
3
 72
8
 73
4
 74
0
 40
0
 40
0
 40
0
 40
0
 40
1
 40
1
 40
1
 40
1
 10
2971.243400
 20
1255.436863
 30
0.0
 10
2956.691422
 20
1255.436863
 30
0.0
 10
2943.572326
 20
1246.670963
 30
0.0
 10
2938.003526
 20
1233.226689
 30
0.0
  0
SPLINE
  5
22f
100
AcDbEntity
  8
0
 62
7
100
AcDbSpline
 70
8
 71
3
 72
8
 73
4
 74
0
 40
0
 40
0
 40
0
 40
0
 40
1
 40
1
 40
1
 40
1
 10
2938.003526
 20
1233.226689
 30
0.0
 10
2932.434725
 20
1219.782415
 30
0.0
 10
2935.512900
 20
1204.307387
 30
0.0
 10
2945.802702
 20
1194.017585
 30
0.0
  0
SPLINE
  5
230
100
AcDbEntity
  8
0
 62
7
100
AcDbSpline
 70
8
 71
3
 72
8
 73
4
 74
0
 40
0
 40
0
 40
0
 40
0
 40
1
 40
1
 40
1
 40
1
 10
2945.802702
 20
1194.017585
 30
0.0
 10
2956.092503
 20
1183.727783
 30
0.0
 10
2971.567532
 20
1180.649608
 30
0.0
 10
2985.011806
 20
1186.218409
 30
0.0
  0
SPLINE
  5
231
100
AcDbEntity
  8
0
 62
7
100
AcDbSpline
 70
8
 71
3
 72
8
 73
4
 74
0
 40
0
 40
0
 40
0
 40
0
 40
1
 40
1
 40
1
 40
1
 10
2985.011806
 20
1186.218409
 30
0.0
 10
2998.456080
 20
1191.787210
 30
0.0
 10
3007.221980
 20
1204.906306
 30
0.0
 10
3007.221980
 20
1219.458283
 30
0.0
  0
SPLINE
  5
232
100
AcDbEntity
  8
0
 62
7
100
AcDbSpline
 70
8
 71
3
 72
8
 73
4
 74
0
 40
0
 40
0
 40
0
 40
0
 40
1
 40
1
 40
1
 40
1
 10
3007.221980
 20
1219.458283
 30
0.0
 10
3007.221980
 20
1229.000396
 30
0.0
 10
3003.431390
 20
1238.151688
 30
0.0
 10
2996.684098
 20
1244.898981
 30
0.0
  0
SPLINE
  5
233
100
AcDbEntity
  8
0
 62
7
100
AcDbSpline
 70
8
 71
3
 72
8
 73
4
 74
0
 40
0
 40
0
 40
0
 40
0
 40
1
 40
1
 40
1
 40
1
 10
2996.684098
 20
1244.898981
 30
0.0
 10
2989.936805
 20
1251.646273
 30
0.0
 10
2980.785512
 20
1255.436863
 30
0.0
 10
2971.243400
 20
1255.436863
 30
0.0
  0
LWPOLYLINE
  5
234
100
AcDbEntity
  8
0
 62
7
100
AcDbPolyline
 90
1
 70
1
 10
112.388349
 20
1720.498833
 30
0.0
  0
SPLINE
  5
235
100
AcDbEntity
  8
0
 62
7
100
AcDbSpline
 70
8
 71
3
 72
8
 73
4
 74
0
 40
0
 40
0
 40
0
 40
0
 40
1
 40
1
 40
1
 40
1
 10
2231.762383
 20
1126.750377
 30
0.0
 10
2215.963092
 20
1126.750377
 30
0.0
 10
2201.719501
 20
1117.233114
 30
0.0
 10
2195.673374
 20
1102.636472
 30
0.0
  0
SPLINE
  5
236
100
AcDbEntity
  8
0
 62
7
100
AcDbSpline
 70
8
 71
3
 72
8
 73
4
 74
0
 40
0
 40
0
 40
0
 40
0
 40
1
 40
1
 40
1
 40
1
 10
2195.673374
 20
1102.636472
 30
0.0
 10
2189.627247
 20
1088.039830
 30
0.0
 10
2192.969265
 20
1071.238369
 30
0.0
 10
2204.141051
 20
1060.066583
 30
0.0
  0
SPLINE
  5
237
100
AcDbEntity
  8
0
 62
7
100
AcDbSpline
 70
8
 71
3
 72
8
 73
4
 74
0
 40
0
 40
0
 40
0
 40
0
 40
1
 40
1
 40
1
 40
1
 10
2204.141051
 20
1060.066583
 30
0.0
 10
2215.312837
 20
1048.894797
 30
0.0
 10
2232.114298
 20
1045.552779
 30
0.0
 10
2246.710940
 20
1051.598906
 30
0.0
  0
SPLINE
  5
238
100
AcDbEntity
  8
0
 62
7
100
AcDbSpline
 70
8
 71
3
 72
8
 73
4
 74
0
 40
0
 40
0
 40
0
 40
0
 40
1
 40
1
 40
1
 40
1
 10
2246.710940
 20
1051.598906
 30
0.0
 10
2261.307581
 20
1057.645033
 30
0.0
 10
2270.824845
 20
1071.888624
 30
0.0
 10
2270.824845
 20
1087.687915
 30
0.0
  0
SPLINE
  5
239
100
AcDbEntity
  8
0
 62
7
100
AcDbSpline
 70
8
 71
3
 72
8
 73
4
 74
0
 40
0
 40
0
 40
0
 40
0
 40
1
 40
1
 40
1
 40
1
 10
2270.824845
 20
1087.687915
 30
0.0
 10
2270.824845
 20
1098.047924
 30
0.0
 10
2266.709347
 20
1107.983614
 30
0.0
 10
2259.383715
 20
1115.309247
 30
0.0
  0
SPLINE
  5
23a
100
AcDbEntity
  8
0
 62
7
100
AcDbSpline
 70
8
 71
3
 72
8
 73
4
 74
0
 40
0
 40
0
 40
0
 40
0
 40
1
 40
1
 40
1
 40
1
 10
2259.383715
 20
1115.309247
 30
0.0
 10
2252.058082
 20
1122.634879
 30
0.0
 10
2242.122392
 20
1126.750377
 30
0.0
 10
2231.762383
 20
1126.750377
 30
0.0
  0
LWPOLYLINE
  5
23b
100
AcDbEntity
  8
0
 62
7
100
AcDbPolyline
 90
1
 70
1
 10
2971.243400
 20
1255.436863
 30
0.0
  0
SPLINE
  5
23c
100
AcDbEntity
  8
0
 62
7
100
AcDbSpline
 70
8
 71
3
 72
8
 73
4
 74
0
 40
0
 40
0
 40
0
 40
0
 40
1
 40
1
 40
1
 40
1
 10
1792.805548
 20
863.312829
 30
0.0
 10
1777.006225
 20
863.312829
 30
0.0
 10
1762.762605
 20
853.795546
 30
0.0
 10
1756.716465
 20
839.198875
 30
0.0
  0
SPLINE
  5
23d
100
AcDbEntity
  8
0
 62
7
100
AcDbSpline
 70
8
 71
3
 72
8
 73
4
 74
0
 40
0
 40
0
 40
0
 40
0
 40
1
 40
1
 40
1
 40
1
 10
1756.716465
 20
839.198875
 30
0.0
 10
1750.670326
 20
824.602204
 30
0.0
 10
1754.012351
 20
807.800708
 30
0.0
 10
1765.184160
 20
796.628900
 30
0.0
  0
SPLINE
  5
23e
100
AcDbEntity
  8
0
 62
7
100
AcDbSpline
 70
8
 71
3
 72
8
 73
4
 74
0
 40
0
 40
0
 40
0
 40
0
 40
1
 40
1
 40
1
 40
1
 10
1765.184160
 20
796.628900
 30
0.0
 10
1776.355968
 20
785.457091
 30
0.0
 10
1793.157464
 20
782.115066
 30
0.0
 10
1807.754135
 20
788.161205
 30
0.0
  0
SPLINE
  5
23f
100
AcDbEntity
  8
0
 62
7
100
AcDbSpline
 70
8
 71
3
 72
8
 73
4
 74
0
 40
0
 40
0
 40
0
 40
0
 40
1
 40
1
 40
1
 40
1
 10
1807.754135
 20
788.161205
 30
0.0
 10
1822.350806
 20
794.207344
 30
0.0
 10
1831.868089
 20
808.450964
 30
0.0
 10
1831.868089
 20
824.250288
 30
0.0
  0
SPLINE
  5
240
100
AcDbEntity
  8
0
 62
7
100
AcDbSpline
 70
8
 71
3
 72
8
 73
4
 74
0
 40
0
 40
0
 40
0
 40
0
 40
1
 40
1
 40
1
 40
1
 10
1831.868089
 20
824.250288
 30
0.0
 10
1831.868089
 20
834.610318
 30
0.0
 10
1827.752583
 20
844.546028
 30
0.0
 10
1820.426936
 20
851.871675
 30
0.0
  0
SPLINE
  5
241
100
AcDbEntity
  8
0
 62
7
100
AcDbSpline
 70
8
 71
3
 72
8
 73
4
 74
0
 40
0
 40
0
 40
0
 40
0
 40
1
 40
1
 40
1
 40
1
 10
1820.426936
 20
851.871675
 30
0.0
 10
1813.101288
 20
859.197323
 30
0.0
 10
1803.165578
 20
863.312829
 30
0.0
 10
1792.805548
 20
863.312829
 30
0.0
  0
LWPOLYLINE
  5
242
100
AcDbEntity
  8
0
 62
7
100
AcDbPolyline
 90
1
 70
1
 10
2231.762383
 20
1126.750377
 30
0.0
  0
SPLINE
  5
243
100
AcDbEntity
  8
0
 62
7
100
AcDbSpline
 70
8
 71
3
 72
8
 73
4
 74
0
 40
0
 40
0
 40
0
 40
0
 40
1
 40
1
 40
1
 40
1
 10
2731.451603
 20
1163.207329
 30
0.0
 10
2715.652312
 20
1163.207329
 30
0.0
 10
2701.408721
 20
1153.690066
 30
0.0
 10
2695.362594
 20
1139.093424
 30
0.0
  0
SPLINE
  5
244
100
AcDbEntity
  8
0
 62
7
100
AcDbSpline
 70
8
 71
3
 72
8
 73
4
 74
0
 40
0
 40
0
 40
0
 40
0
 40
1
 40
1
 40
1
 40
1
 10
2695.362594
 20
1139.093424
 30
0.0
 10
2689.316467
 20
1124.496782
 30
0.0
 10
2692.658486
 20
1107.695321
 30
0.0
 10
2703.830272
 20
1096.523535
 30
0.0
  0
SPLINE
  5
245
100
AcDbEntity
  8
0
 62
7
100
AcDbSpline
 70
8
 71
3
 72
8
 73
4
 74
0
 40
0
 40
0
 40
0
 40
0
 40
1
 40
1
 40
1
 40
1
 10
2703.830272
 20
1096.523535
 30
0.0
 10
2715.002057
 20
1085.351749
 30
0.0
 10
2731.803519
 20
1082.009731
 30
0.0
 10
2746.400160
 20
1088.055858
 30
0.0
  0
SPLINE
  5
246
100
AcDbEntity
  8
0
 62
7
100
AcDbSpline
 70
8
 71
3
 72
8
 73
4
 74
0
 40
0
 40
0
 40
0
 40
0
 40
1
 40
1
 40
1
 40
1
 10
2746.400160
 20
1088.055858
 30
0.0
 10
2760.996802
 20
1094.101985
 30
0.0
 10
2770.514065
 20
1108.345576
 30
0.0
 10
2770.514065
 20
1124.144867
 30
0.0
  0
SPLINE
  5
247
100
AcDbEntity
  8
0
 62
7
100
AcDbSpline
 70
8
 71
3
 72
8
 73
4
 74
0
 40
0
 40
0
 40
0
 40
0
 40
1
 40
1
 40
1
 40
1
 10
2770.514065
 20
1124.144867
 30
0.0
 10
2770.514065
 20
1134.504876
 30
0.0
 10
2766.398568
 20
1144.440566
 30
0.0
 10
2759.072935
 20
1151.766199
 30
0.0
  0
SPLINE
  5
248
100
AcDbEntity
  8
0
 62
7
100
AcDbSpline
 70
8
 71
3
 72
8
 73
4
 74
0
 40
0
 40
0
 40
0
 40
0
 40
1
 40
1
 40
1
 40
1
 10
2759.072935
 20
1151.766199
 30
0.0
 10
2751.747302
 20
1159.091831
 30
0.0
 10
2741.811612
 20
1163.207329
 30
0.0
 10
2731.451603
 20
1163.207329
 30
0.0
  0
LWPOLYLINE
  5
249
100
AcDbEntity
  8
0
 62
7
100
AcDbPolyline
 90
1
 70
1
 10
1792.805548
 20
863.312829
 30
0.0
  0
SPLINE
  5
24a
100
AcDbEntity
  8
0
 62
7
100
AcDbSpline
 70
8
 71
3
 72
8
 73
4
 74
0
 40
0
 40
0
 40
0
 40
0
 40
1
 40
1
 40
1
 40
1
 10
3857.597275
 20
1498.624776
 30
0.0
 10
3841.797984
 20
1498.624776
 30
0.0
 10
3827.554393
 20
1489.107512
 30
0.0
 10
3821.508266
 20
1474.510871
 30
0.0
  0
SPLINE
  5
24b
100
AcDbEntity
  8
0
 62
7
100
AcDbSpline
 70
8
 71
3
 72
8
 73
4
 74
0
 40
0
 40
0
 40
0
 40
0
 40
1
 40
1
 40
1
 40
1
 10
3821.508266
 20
1474.510871
 30
0.0
 10
3815.462139
 20
1459.914229
 30
0.0
 10
3818.804158
 20
1443.112768
 30
0.0
 10
3829.975944
 20
1431.940982
 30
0.0
  0
SPLINE
  5
24c
100
AcDbEntity
  8
0
 62
7
100
AcDbSpline
 70
8
 71
3
 72
8
 73
4
 74
0
 40
0
 40
0
 40
0
 40
0
 40
1
 40
1
 40
1
 40
1
 10
3829.975944
 20
1431.940982
 30
0.0
 10
3841.147729
 20
1420.769196
 30
0.0
 10
3857.949191
 20
1417.427178
 30
0.0
 10
3872.545832
 20
1423.473305
 30
0.0
  0
SPLINE
  5
24d
100
AcDbEntity
  8
0
 62
7
100
AcDbSpline
 70
8
 71
3
 72
8
 73
4
 74
0
 40
0
 40
0
 40
0
 40
0
 40
1
 40
1
 40
1
 40
1
 10
3872.545832
 20
1423.473305
 30
0.0
 10
3887.142474
 20
1429.519432
 30
0.0
 10
3896.659737
 20
1443.763023
 30
0.0
 10
3896.659737
 20
1459.562314
 30
0.0
  0
SPLINE
  5
24e
100
AcDbEntity
  8
0
 62
7
100
AcDbSpline
 70
8
 71
3
 72
8
 73
4
 74
0
 40
0
 40
0
 40
0
 40
0
 40
1
 40
1
 40
1
 40
1
 10
3896.659737
 20
1459.562314
 30
0.0
 10
3896.659737
 20
1469.922323
 30
0.0
 10
3892.544240
 20
1479.858013
 30
0.0
 10
3885.218607
 20
1487.183646
 30
0.0
  0
SPLINE
  5
24f
100
AcDbEntity
  8
0
 62
7
100
AcDbSpline
 70
8
 71
3
 72
8
 73
4
 74
0
 40
0
 40
0
 40
0
 40
0
 40
1
 40
1
 40
1
 40
1
 10
3885.218607
 20
1487.183646
 30
0.0
 10
3877.892974
 20
1494.509278
 30
0.0
 10
3867.957284
 20
1498.624776
 30
0.0
 10
3857.597275
 20
1498.624776
 30
0.0
  0
LWPOLYLINE
  5
250
100
AcDbEntity
  8
0
 62
7
100
AcDbPolyline
 90
1
 70
1
 10
2731.451603
 20
1163.207329
 30
0.0
  0
SPLINE
  5
251
100
AcDbEntity
  8
0
 62
7
100
AcDbSpline
 70
8
 71
3
 72
8
 73
4
 74
0
 40
0
 40
0
 40
0
 40
0
 40
1
 40
1
 40
1
 40
1
 10
397.700369
 20
1344.457383
 30
0.0
 10
381.901078
 20
1344.457383
 30
0.0
 10
367.657487
 20
1334.940120
 30
0.0
 10
361.611360
 20
1320.343478
 30
0.0
  0
SPLINE
  5
252
100
AcDbEntity
  8
0
 62
7
100
AcDbSpline
 70
8
 71
3
 72
8
 73
4
 74
0
 40
0
 40
0
 40
0
 40
0
 40
1
 40
1
 40
1
 40
1
 10
361.611360
 20
1320.343478
 30
0.0
 10
355.565233
 20
1305.746837
 30
0.0
 10
358.907252
 20
1288.945375
 30
0.0
 10
370.079038
 20
1277.773590
 30
0.0
  0
SPLINE
  5
253
100
AcDbEntity
  8
0
 62
7
100
AcDbSpline
 70
8
 71
3
 72
8
 73
4
 74
0
 40
0
 40
0
 40
0
 40
0
 40
1
 40
1
 40
1
 40
1
 10
370.079038
 20
1277.773590
 30
0.0
 10
381.250824
 20
1266.601804
 30
0.0
 10
398.052285
 20
1263.259785
 30
0.0
 10
412.648926
 20
1269.305912
 30
0.0
  0
SPLINE
  5
254
100
AcDbEntity
  8
0
 62
7
100
AcDbSpline
 70
8
 71
3
 72
8
 73
4
 74
0
 40
0
 40
0
 40
0
 40
0
 40
1
 40
1
 40
1
 40
1
 10
412.648926
 20
1269.305912
 30
0.0
 10
427.245568
 20
1275.352039
 30
0.0
 10
436.762831
 20
1289.595630
 30
0.0
 10
436.762831
 20
1305.394921
 30
0.0
  0
SPLINE
  5
255
100
AcDbEntity
  8
0
 62
7
100
AcDbSpline
 70
8
 71
3
 72
8
 73
4
 74
0
 40
0
 40
0
 40
0
 40
0
 40
1
 40
1
 40
1
 40
1
 10
436.762831
 20
1305.394921
 30
0.0
 10
436.762831
 20
1315.754930
 30
0.0
 10
432.647334
 20
1325.690620
 30
0.0
 10
425.321701
 20
1333.016253
 30
0.0
  0
SPLINE
  5
256
100
AcDbEntity
  8
0
 62
7
100
AcDbSpline
 70
8
 71
3
 72
8
 73
4
 74
0
 40
0
 40
0
 40
0
 40
0
 40
1
 40
1
 40
1
 40
1
 10
425.321701
 20
1333.016253
 30
0.0
 10
417.996069
 20
1340.341886
 30
0.0
 10
408.060378
 20
1344.457383
 30
0.0
 10
397.700369
 20
1344.457383
 30
0.0
  0
LWPOLYLINE
  5
257
100
AcDbEntity
  8
0
 62
7
100
AcDbPolyline
 90
1
 70
1
 10
3857.597275
 20
1498.624776
 30
0.0
  0
SPLINE
  5
258
100
AcDbEntity
  8
0
 62
7
100
AcDbSpline
 70
8
 71
3
 72
8
 73
4
 74
0
 40
0
 40
0
 40
0
 40
0
 40
1
 40
1
 40
1
 40
1
 10
241.446243
 20
1520.553885
 30
0.0
 10
225.646952
 20
1520.553885
 30
0.0
 10
211.403361
 20
1511.036622
 30
0.0
 10
205.357234
 20
1496.439980
 30
0.0
  0
SPLINE
  5
259
100
AcDbEntity
  8
0
 62
7
100
AcDbSpline
 70
8
 71
3
 72
8
 73
4
 74
0
 40
0
 40
0
 40
0
 40
0
 40
1
 40
1
 40
1
 40
1
 10
205.357234
 20
1496.439980
 30
0.0
 10
199.311107
 20
1481.843338
 30
0.0
 10
202.653126
 20
1465.041877
 30
0.0
 10
213.824912
 20
1453.870091
 30
0.0
  0
SPLINE
  5
25a
100
AcDbEntity
  8
0
 62
7
100
AcDbSpline
 70
8
 71
3
 72
8
 73
4
 74
0
 40
0
 40
0
 40
0
 40
0
 40
1
 40
1
 40
1
 40
1
 10
213.824912
 20
1453.870091
 30
0.0
 10
224.996697
 20
1442.698305
 30
0.0
 10
241.798159
 20
1439.356287
 30
0.0
 10
256.394800
 20
1445.402414
 30
0.0
  0
SPLINE
  5
25b
100
AcDbEntity
  8
0
 62
7
100
AcDbSpline
 70
8
 71
3
 72
8
 73
4
 74
0
 40
0
 40
0
 40
0
 40
0
 40
1
 40
1
 40
1
 40
1
 10
256.394800
 20
1445.402414
 30
0.0
 10
270.991442
 20
1451.448541
 30
0.0
 10
280.508705
 20
1465.692132
 30
0.0
 10
280.508705
 20
1481.491423
 30
0.0
  0
SPLINE
  5
25c
100
AcDbEntity
  8
0
 62
7
100
AcDbSpline
 70
8
 71
3
 72
8
 73
4
 74
0
 40
0
 40
0
 40
0
 40
0
 40
1
 40
1
 40
1
 40
1
 10
280.508705
 20
1481.491423
 30
0.0
 10
280.508705
 20
1491.851432
 30
0.0
 10
276.393208
 20
1501.787122
 30
0.0
 10
269.067575
 20
1509.112755
 30
0.0
  0
SPLINE
  5
25d
100
AcDbEntity
  8
0
 62
7
100
AcDbSpline
 70
8
 71
3
 72
8
 73
4
 74
0
 40
0
 40
0
 40
0
 40
0
 40
1
 40
1
 40
1
 40
1
 10
269.067575
 20
1509.112755
 30
0.0
 10
261.741942
 20
1516.438387
 30
0.0
 10
251.806252
 20
1520.553885
 30
0.0
 10
241.446243
 20
1520.553885
 30
0.0
  0
LWPOLYLINE
  5
25e
100
AcDbEntity
  8
0
 62
7
100
AcDbPolyline
 90
1
 70
1
 10
397.700369
 20
1344.457383
 30
0.0
  0
SPLINE
  5
25f
100
AcDbEntity
  8
0
 62
7
100
AcDbSpline
 70
8
 71
3
 72
8
 73
4
 74
0
 40
0
 40
0
 40
0
 40
0
 40
1
 40
1
 40
1
 40
1
 10
1307.909097
 20
973.625548
 30
0.0
 10
1292.109774
 20
973.625548
 30
0.0
 10
1277.866154
 20
964.108266
 30
0.0
 10
1271.820015
 20
949.511594
 30
0.0
  0
SPLINE
  5
260
100
AcDbEntity
  8
0
 62
7
100
AcDbSpline
 70
8
 71
3
 72
8
 73
4
 74
0
 40
0
 40
0
 40
0
 40
0
 40
1
 40
1
 40
1
 40
1
 10
1271.820015
 20
949.511594
 30
0.0
 10
1265.773875
 20
934.914923
 30
0.0
 10
1269.115901
 20
918.113428
 30
0.0
 10
1280.287709
 20
906.941619
 30
0.0
  0
SPLINE
  5
261
100
AcDbEntity
  8
0
 62
7
100
AcDbSpline
 70
8
 71
3
 72
8
 73
4
 74
0
 40
0
 40
0
 40
0
 40
0
 40
1
 40
1
 40
1
 40
1
 10
1280.287709
 20
906.941619
 30
0.0
 10
1291.459518
 20
895.769811
 30
0.0
 10
1308.261013
 20
892.427785
 30
0.0
 10
1322.857685
 20
898.473925
 30
0.0
  0
SPLINE
  5
262
100
AcDbEntity
  8
0
 62
7
100
AcDbSpline
 70
8
 71
3
 72
8
 73
4
 74
0
 40
0
 40
0
 40
0
 40
0
 40
1
 40
1
 40
1
 40
1
 10
1322.857685
 20
898.473925
 30
0.0
 10
1337.454356
 20
904.520064
 30
0.0
 10
1346.971638
 20
918.763684
 30
0.0
 10
1346.971638
 20
934.563007
 30
0.0
  0
SPLINE
  5
263
100
AcDbEntity
  8
0
 62
7
100
AcDbSpline
 70
8
 71
3
 72
8
 73
4
 74
0
 40
0
 40
0
 40
0
 40
0
 40
1
 40
1
 40
1
 40
1
 10
1346.971638
 20
934.563007
 30
0.0
 10
1346.971638
 20
956.136653
 30
0.0
 10
1329.482743
 20
973.625548
 30
0.0
 10
1307.909097
 20
973.625548
 30
0.0
  0
LWPOLYLINE
  5
264
100
AcDbEntity
  8
0
 62
7
100
AcDbPolyline
 90
1
 70
1
 10
241.446243
 20
1520.553885
 30
0.0
  0
SPLINE
  5
265
100
AcDbEntity
  8
0
 62
7
100
AcDbSpline
 70
8
 71
3
 72
8
 73
4
 74
0
 40
0
 40
0
 40
0
 40
0
 40
1
 40
1
 40
1
 40
1
 10
686.866072
 20
1315.888076
 30
0.0
 10
673.353521
 20
1315.888076
 30
0.0
 10
661.171503
 20
1307.748312
 30
0.0
 10
656.000473
 20
1295.264342
 30
0.0
  0
SPLINE
  5
266
100
AcDbEntity
  8
0
 62
7
100
AcDbSpline
 70
8
 71
3
 72
8
 73
4
 74
0
 40
0
 40
0
 40
0
 40
0
 40
1
 40
1
 40
1
 40
1
 10
656.000473
 20
1295.264342
 30
0.0
 10
650.829444
 20
1282.780373
 30
0.0
 10
653.687749
 20
1268.410703
 30
0.0
 10
663.242565
 20
1258.855886
 30
0.0
  0
SPLINE
  5
267
100
AcDbEntity
  8
0
 62
7
100
AcDbSpline
 70
8
 71
3
 72
8
 73
4
 74
0
 40
0
 40
0
 40
0
 40
0
 40
1
 40
1
 40
1
 40
1
 10
663.242565
 20
1258.855886
 30
0.0
 10
672.797382
 20
1249.301070
 30
0.0
 10
687.167052
 20
1246.442765
 30
0.0
 10
699.651021
 20
1251.613794
 30
0.0
  0
SPLINE
  5
268
100
AcDbEntity
  8
0
 62
7
100
AcDbSpline
 70
8
 71
3
 72
8
 73
4
 74
0
 40
0
 40
0
 40
0
 40
0
 40
1
 40
1
 40
1
 40
1
 10
699.651021
 20
1251.613794
 30
0.0
 10
712.134991
 20
1256.784824
 30
0.0
 10
720.274755
 20
1268.966842
 30
0.0
 10
720.274755
 20
1282.479393
 30
0.0
  0
SPLINE
  5
269
100
AcDbEntity
  8
0
 62
7
100
AcDbSpline
 70
8
 71
3
 72
8
 73
4
 74
0
 40
0
 40
0
 40
0
 40
0
 40
1
 40
1
 40
1
 40
1
 10
720.274755
 20
1282.479393
 30
0.0
 10
720.274755
 20
1291.339926
 30
0.0
 10
716.754922
 20
1299.837556
 30
0.0
 10
710.489578
 20
1306.102899
 30
0.0
  0
SPLINE
  5
26a
100
AcDbEntity
  8
0
 62
7
100
AcDbSpline
 70
8
 71
3
 72
8
 73
4
 74
0
 40
0
 40
0
 40
0
 40
0
 40
1
 40
1
 40
1
 40
1
 10
710.489578
 20
1306.102899
 30
0.0
 10
704.224235
 20
1312.368243
 30
0.0
 10
695.726605
 20
1315.888076
 30
0.0
 10
686.866072
 20
1315.888076
 30
0.0
  0
LWPOLYLINE
  5
26b
100
AcDbEntity
  8
0
 62
7
100
AcDbPolyline
 90
1
 70
1
 10
1307.909097
 20
973.625548
 30
0.0
  0
SPLINE
  5
26c
100
AcDbEntity
  8
0
 62
7
100
AcDbSpline
 70
8
 71
3
 72
8
 73
4
 74
0
 40
0
 40
0
 40
0
 40
0
 40
1
 40
1
 40
1
 40
1
 10
605.617822
 20
1510.124723
 30
0.0
 10
585.747401
 20
1510.124723
 30
0.0
 10
569.639242
 20
1494.016564
 30
0.0
 10
569.639242
 20
1474.146142
 30
0.0
  0
SPLINE
  5
26d
100
AcDbEntity
  8
0
 62
7
100
AcDbSpline
 70
8
 71
3
 72
8
 73
4
 74
0
 40
0
 40
0
 40
0
 40
0
 40
1
 40
1
 40
1
 40
1
 10
569.639242
 20
1474.146142
 30
0.0
 10
569.639242
 20
1454.275721
 30
0.0
 10
585.747401
 20
1438.167562
 30
0.0
 10
605.617822
 20
1438.167562
 30
0.0
  0
SPLINE
  5
26e
100
AcDbEntity
  8
0
 62
7
100
AcDbSpline
 70
8
 71
3
 72
8
 73
4
 74
0
 40
0
 40
0
 40
0
 40
0
 40
1
 40
1
 40
1
 40
1
 10
605.617822
 20
1438.167562
 30
0.0
 10
625.488243
 20
1438.167562
 30
0.0
 10
641.596402
 20
1454.275721
 30
0.0
 10
641.596402
 20
1474.146142
 30
0.0
  0
SPLINE
  5
26f
100
AcDbEntity
  8
0
 62
7
100
AcDbSpline
 70
8
 71
3
 72
8
 73
4
 74
0
 40
0
 40
0
 40
0
 40
0
 40
1
 40
1
 40
1
 40
1
 10
641.596402
 20
1474.146142
 30
0.0
 10
641.596402
 20
1483.688255
 30
0.0
 10
637.805813
 20
1492.839548
 30
0.0
 10
631.058520
 20
1499.586840
 30
0.0
  0
SPLINE
  5
270
100
AcDbEntity
  8
0
 62
7
100
AcDbSpline
 70
8
 71
3
 72
8
 73
4
 74
0
 40
0
 40
0
 40
0
 40
0
 40
1
 40
1
 40
1
 40
1
 10
631.058520
 20
1499.586840
 30
0.0
 10
624.311227
 20
1506.334133
 30
0.0
 10
615.159935
 20
1510.124723
 30
0.0
 10
605.617822
 20
1510.124723
 30
0.0
  0
LWPOLYLINE
  5
271
100
AcDbEntity
  8
0
 62
7
100
AcDbPolyline
 90
1
 70
1
 10
686.866072
 20
1315.888076
 30
0.0
  0
SPLINE
  5
272
100
AcDbEntity
  8
0
 62
7
100
AcDbSpline
 70
8
 71
3
 72
8
 73
4
 74
0
 40
0
 40
0
 40
0
 40
0
 40
1
 40
1
 40
1
 40
1
 10
1097.284905
 20
1080.957441
 30
0.0
 10
1082.732928
 20
1080.957441
 30
0.0
 10
1069.613832
 20
1072.191541
 30
0.0
 10
1064.045031
 20
1058.747267
 30
0.0
  0
SPLINE
  5
273
100
AcDbEntity
  8
0
 62
7
100
AcDbSpline
 70
8
 71
3
 72
8
 73
4
 74
0
 40
0
 40
0
 40
0
 40
0
 40
1
 40
1
 40
1
 40
1
 10
1064.045031
 20
1058.747267
 30
0.0
 10
1058.476231
 20
1045.302993
 30
0.0
 10
1061.554405
 20
1029.827965
 30
0.0
 10
1071.844207
 20
1019.538163
 30
0.0
  0
SPLINE
  5
274
100
AcDbEntity
  8
0
 62
7
100
AcDbSpline
 70
8
 71
3
 72
8
 73
4
 74
0
 40
0
 40
0
 40
0
 40
0
 40
1
 40
1
 40
1
 40
1
 10
1071.844207
 20
1019.538163
 30
0.0
 10
1082.134009
 20
1009.248361
 30
0.0
 10
1097.609038
 20
1006.170186
 30
0.0
 10
1111.053312
 20
1011.738987
 30
0.0
  0
SPLINE
  5
275
100
AcDbEntity
  8
0
 62
7
100
AcDbSpline
 70
8
 71
3
 72
8
 73
4
 74
0
 40
0
 40
0
 40
0
 40
0
 40
1
 40
1
 40
1
 40
1
 10
1111.053312
 20
1011.738987
 30
0.0
 10
1124.497586
 20
1017.307788
 30
0.0
 10
1133.263485
 20
1030.426884
 30
0.0
 10
1133.263485
 20
1044.978861
 30
0.0
  0
SPLINE
  5
276
100
AcDbEntity
  8
0
 62
7
100
AcDbSpline
 70
8
 71
3
 72
8
 73
4
 74
0
 40
0
 40
0
 40
0
 40
0
 40
1
 40
1
 40
1
 40
1
 10
1133.263485
 20
1044.978861
 30
0.0
 10
1133.263485
 20
1054.520974
 30
0.0
 10
1129.472896
 20
1063.672266
 30
0.0
 10
1122.725603
 20
1070.419559
 30
0.0
  0
SPLINE
  5
277
100
AcDbEntity
  8
0
 62
7
100
AcDbSpline
 70
8
 71
3
 72
8
 73
4
 74
0
 40
0
 40
0
 40
0
 40
0
 40
1
 40
1
 40
1
 40
1
 10
1122.725603
 20
1070.419559
 30
0.0
 10
1115.978310
 20
1077.166852
 30
0.0
 10
1106.827018
 20
1080.957441
 30
0.0
 10
1097.284905
 20
1080.957441
 30
0.0
  0
LWPOLYLINE
  5
278
100
AcDbEntity
  8
0
 62
7
100
AcDbPolyline
 90
1
 70
1
 10
605.617822
 20
1510.124723
 30
0.0
  0
SPLINE
  5
279
100
AcDbEntity
  8
0
 62
7
100
AcDbSpline
 70
8
 71
3
 72
8
 73
4
 74
0
 40
0
 40
0
 40
0
 40
0
 40
1
 40
1
 40
1
 40
1
 10
1276.450149
 20
1153.873964
 30
0.0
 10
1261.898172
 20
1153.873964
 30
0.0
 10
1248.779076
 20
1145.108065
 30
0.0
 10
1243.210275
 20
1131.663791
 30
0.0
  0
SPLINE
  5
27a
100
AcDbEntity
  8
0
 62
7
100
AcDbSpline
 70
8
 71
3
 72
8
 73
4
 74
0
 40
0
 40
0
 40
0
 40
0
 40
1
 40
1
 40
1
 40
1
 10
1243.210275
 20
1131.663791
 30
0.0
 10
1237.641475
 20
1118.219517
 30
0.0
 10
1240.719649
 20
1102.744488
 30
0.0
 10
1251.009451
 20
1092.454686
 30
0.0
  0
SPLINE
  5
27b
100
AcDbEntity
  8
0
 62
7
100
AcDbSpline
 70
8
 71
3
 72
8
 73
4
 74
0
 40
0
 40
0
 40
0
 40
0
 40
1
 40
1
 40
1
 40
1
 10
1251.009451
 20
1092.454686
 30
0.0
 10
1261.299253
 20
1082.164884
 30
0.0
 10
1276.774282
 20
1079.086710
 30
0.0
 10
1290.218556
 20
1084.655510
 30
0.0
  0
SPLINE
  5
27c
100
AcDbEntity
  8
0
 62
7
100
AcDbSpline
 70
8
 71
3
 72
8
 73
4
 74
0
 40
0
 40
0
 40
0
 40
0
 40
1
 40
1
 40
1
 40
1
 10
1290.218556
 20
1084.655510
 30
0.0
 10
1303.662830
 20
1090.224311
 30
0.0
 10
1312.428729
 20
1103.343407
 30
0.0
 10
1312.428729
 20
1117.895384
 30
0.0
  0
SPLINE
  5
27d
100
AcDbEntity
  8
0
 62
7
100
AcDbSpline
 70
8
 71
3
 72
8
 73
4
 74
0
 40
0
 40
0
 40
0
 40
0
 40
1
 40
1
 40
1
 40
1
 10
1312.428729
 20
1117.895384
 30
0.0
 10
1312.428729
 20
1127.437497
 30
0.0
 10
1308.638140
 20
1136.588790
 30
0.0
 10
1301.890847
 20
1143.336082
 30
0.0
  0
SPLINE
  5
27e
100
AcDbEntity
  8
0
 62
7
100
AcDbSpline
 70
8
 71
3
 72
8
 73
4
 74
0
 40
0
 40
0
 40
0
 40
0
 40
1
 40
1
 40
1
 40
1
 10
1301.890847
 20
1143.336082
 30
0.0
 10
1295.143555
 20
1150.083375
 30
0.0
 10
1285.992262
 20
1153.873964
 30
0.0
 10
1276.450149
 20
1153.873964
 30
0.0
  0
LWPOLYLINE
  5
27f
100
AcDbEntity
  8
0
 62
7
100
AcDbPolyline
 90
1
 70
1
 10
1097.284905
 20
1080.957441
 30
0.0
  0
SPLINE
  5
280
100
AcDbEntity
  8
0
 62
7
100
AcDbSpline
 70
8
 71
3
 72
8
 73
4
 74
0
 40
0
 40
0
 40
0
 40
0
 40
1
 40
1
 40
1
 40
1
 10
886.867114
 20
1020.539857
 30
0.0
 10
872.315137
 20
1020.539857
 30
0.0
 10
859.196041
 20
1011.773957
 30
0.0
 10
853.627240
 20
998.329683
 30
0.0
  0
SPLINE
  5
281
100
AcDbEntity
  8
0
 62
7
100
AcDbSpline
 70
8
 71
3
 72
8
 73
4
 74
0
 40
0
 40
0
 40
0
 40
0
 40
1
 40
1
 40
1
 40
1
 10
853.627240
 20
998.329683
 30
0.0
 10
848.058440
 20
984.885409
 30
0.0
 10
851.136614
 20
969.410380
 30
0.0
 10
861.426416
 20
959.120579
 30
0.0
  0
SPLINE
  5
282
100
AcDbEntity
  8
0
 62
7
100
AcDbSpline
 70
8
 71
3
 72
8
 73
4
 74
0
 40
0
 40
0
 40
0
 40
0
 40
1
 40
1
 40
1
 40
1
 10
861.426416
 20
959.120579
 30
0.0
 10
871.716218
 20
948.830777
 30
0.0
 10
887.191247
 20
945.752602
 30
0.0
 10
900.635521
 20
951.321403
 30
0.0
  0
SPLINE
  5
283
100
AcDbEntity
  8
0
 62
7
100
AcDbSpline
 70
8
 71
3
 72
8
 73
4
 74
0
 40
0
 40
0
 40
0
 40
0
 40
1
 40
1
 40
1
 40
1
 10
900.635521
 20
951.321403
 30
0.0
 10
914.079795
 20
956.890203
 30
0.0
 10
922.845694
 20
970.009299
 30
0.0
 10
922.845694
 20
984.561277
 30
0.0
  0
SPLINE
  5
284
100
AcDbEntity
  8
0
 62
7
100
AcDbSpline
 70
8
 71
3
 72
8
 73
4
 74
0
 40
0
 40
0
 40
0
 40
0
 40
1
 40
1
 40
1
 40
1
 10
922.845694
 20
984.561277
 30
0.0
 10
922.845694
 20
994.103389
 30
0.0
 10
919.055105
 20
1003.254682
 30
0.0
 10
912.307812
 20
1010.001975
 30
0.0
  0
SPLINE
  5
285
100
AcDbEntity
  8
0
 62
7
100
AcDbSpline
 70
8
 71
3
 72
8
 73
4
 74
0
 40
0
 40
0
 40
0
 40
0
 40
1
 40
1
 40
1
 40
1
 10
912.307812
 20
1010.001975
 30
0.0
 10
905.560520
 20
1016.749267
 30
0.0
 10
896.409227
 20
1020.539857
 30
0.0
 10
886.867114
 20
1020.539857
 30
0.0
  0
LWPOLYLINE
  5
286
100
AcDbEntity
  8
0
 62
7
100
AcDbPolyline
 90
1
 70
1
 10
1276.450149
 20
1153.873964
 30
0.0
  0
SPLINE
  5
287
100
AcDbEntity
  8
0
 62
7
100
AcDbSpline
 70
8
 71
3
 72
8
 73
4
 74
0
 40
0
 40
0
 40
0
 40
0
 40
1
 40
1
 40
1
 40
1
 10
274.367535
 20
1160.123447
 30
0.0
 10
259.815558
 20
1160.123447
 30
0.0
 10
246.696462
 20
1151.357548
 30
0.0
 10
241.127661
 20
1137.913274
 30
0.0
  0
SPLINE
  5
288
100
AcDbEntity
  8
0
 62
7
100
AcDbSpline
 70
8
 71
3
 72
8
 73
4
 74
0
 40
0
 40
0
 40
0
 40
0
 40
1
 40
1
 40
1
 40
1
 10
241.127661
 20
1137.913274
 30
0.0
 10
235.558860
 20
1124.469000
 30
0.0
 10
238.637035
 20
1108.993971
 30
0.0
 10
248.926837
 20
1098.704169
 30
0.0
  0
SPLINE
  5
289
100
AcDbEntity
  8
0
 62
7
100
AcDbSpline
 70
8
 71
3
 72
8
 73
4
 74
0
 40
0
 40
0
 40
0
 40
0
 40
1
 40
1
 40
1
 40
1
 10
248.926837
 20
1098.704169
 30
0.0
 10
259.216639
 20
1088.414367
 30
0.0
 10
274.691668
 20
1085.336193
 30
0.0
 10
288.135941
 20
1090.904993
 30
0.0
  0
SPLINE
  5
28a
100
AcDbEntity
  8
0
 62
7
100
AcDbSpline
 70
8
 71
3
 72
8
 73
4
 74
0
 40
0
 40
0
 40
0
 40
0
 40
1
 40
1
 40
1
 40
1
 10
288.135941
 20
1090.904993
 30
0.0
 10
301.580215
 20
1096.473794
 30
0.0
 10
310.346115
 20
1109.592890
 30
0.0
 10
310.346115
 20
1124.144867
 30
0.0
  0
SPLINE
  5
28b
100
AcDbEntity
  8
0
 62
7
100
AcDbSpline
 70
8
 71
3
 72
8
 73
4
 74
0
 40
0
 40
0
 40
0
 40
0
 40
1
 40
1
 40
1
 40
1
 10
310.346115
 20
1124.144867
 30
0.0
 10
310.346115
 20
1133.686980
 30
0.0
 10
306.555526
 20
1142.838272
 30
0.0
 10
299.808233
 20
1149.585565
 30
0.0
  0
SPLINE
  5
28c
100
AcDbEntity
  8
0
 62
7
100
AcDbSpline
 70
8
 71
3
 72
8
 73
4
 74
0
 40
0
 40
0
 40
0
 40
0
 40
1
 40
1
 40
1
 40
1
 10
299.808233
 20
1149.585565
 30
0.0
 10
293.060940
 20
1156.332858
 30
0.0
 10
283.909648
 20
1160.123447
 30
0.0
 10
274.367535
 20
1160.123447
 30
0.0
  0
LWPOLYLINE
  5
28d
100
AcDbEntity
  8
0
 62
7
100
AcDbPolyline
 90
1
 70
1
 10
886.867114
 20
1020.539857
 30
0.0
  0
SPLINE
  5
28e
100
AcDbEntity
  8
0
 62
7
100
AcDbSpline
 70
8
 71
3
 72
8
 73
4
 74
0
 40
0
 40
0
 40
0
 40
0
 40
1
 40
1
 40
1
 40
1
 10
159.784199
 20
1335.124072
 30
0.0
 10
145.232221
 20
1335.124072
 30
0.0
 10
132.113125
 20
1326.358172
 30
0.0
 10
126.544325
 20
1312.913898
 30
0.0
  0
SPLINE
  5
28f
100
AcDbEntity
  8
0
 62
7
100
AcDbSpline
 70
8
 71
3
 72
8
 73
4
 74
0
 40
0
 40
0
 40
0
 40
0
 40
1
 40
1
 40
1
 40
1
 10
126.544325
 20
1312.913898
 30
0.0
 10
120.975524
 20
1299.469624
 30
0.0
 10
124.053699
 20
1283.994595
 30
0.0
 10
134.343500
 20
1273.704793
 30
0.0
  0
SPLINE
  5
290
100
AcDbEntity
  8
0
 62
7
100
AcDbSpline
 70
8
 71
3
 72
8
 73
4
 74
0
 40
0
 40
0
 40
0
 40
0
 40
1
 40
1
 40
1
 40
1
 10
134.343500
 20
1273.704793
 30
0.0
 10
144.633302
 20
1263.414992
 30
0.0
 10
160.108331
 20
1260.336817
 30
0.0
 10
173.552605
 20
1265.905618
 30
0.0
  0
SPLINE
  5
291
100
AcDbEntity
  8
0
 62
7
100
AcDbSpline
 70
8
 71
3
 72
8
 73
4
 74
0
 40
0
 40
0
 40
0
 40
0
 40
1
 40
1
 40
1
 40
1
 10
173.552605
 20
1265.905618
 30
0.0
 10
186.996879
 20
1271.474418
 30
0.0
 10
195.762779
 20
1284.593514
 30
0.0
 10
195.762779
 20
1299.145491
 30
0.0
  0
SPLINE
  5
292
100
AcDbEntity
  8
0
 62
7
100
AcDbSpline
 70
8
 71
3
 72
8
 73
4
 74
0
 40
0
 40
0
 40
0
 40
0
 40
1
 40
1
 40
1
 40
1
 10
195.762779
 20
1299.145491
 30
0.0
 10
195.762779
 20
1308.687604
 30
0.0
 10
191.972189
 20
1317.838897
 30
0.0
 10
185.224897
 20
1324.586189
 30
0.0
  0
SPLINE
  5
293
100
AcDbEntity
  8
0
 62
7
100
AcDbSpline
 70
8
 71
3
 72
8
 73
4
 74
0
 40
0
 40
0
 40
0
 40
0
 40
1
 40
1
 40
1
 40
1
 10
185.224897
 20
1324.586189
 30
0.0
 10
178.477604
 20
1331.333482
 30
0.0
 10
169.326311
 20
1335.124072
 30
0.0
 10
159.784199
 20
1335.124072
 30
0.0
  0
LWPOLYLINE
  5
294
100
AcDbEntity
  8
0
 62
7
100
AcDbPolyline
 90
1
 70
1
 10
274.367535
 20
1160.123447
 30
0.0
  0
SPLINE
  5
295
100
AcDbEntity
  8
0
 62
7
100
AcDbSpline
 70
8
 71
3
 72
8
 73
4
 74
0
 40
0
 40
0
 40
0
 40
0
 40
1
 40
1
 40
1
 40
1
 10
2295.201376
 20
770.540412
 30
0.0
 10
2280.649398
 20
770.540412
 30
0.0
 10
2267.530302
 20
761.774513
 30
0.0
 10
2261.961502
 20
748.330239
 30
0.0
  0
SPLINE
  5
296
100
AcDbEntity
  8
0
 62
7
100
AcDbSpline
 70
8
 71
3
 72
8
 73
4
 74
0
 40
0
 40
0
 40
0
 40
0
 40
1
 40
1
 40
1
 40
1
 10
2261.961502
 20
748.330239
 30
0.0
 10
2256.392701
 20
734.885965
 30
0.0
 10
2259.470876
 20
719.410936
 30
0.0
 10
2269.760678
 20
709.121134
 30
0.0
  0
SPLINE
  5
297
100
AcDbEntity
  8
0
 62
7
100
AcDbSpline
 70
8
 71
3
 72
8
 73
4
 74
0
 40
0
 40
0
 40
0
 40
0
 40
1
 40
1
 40
1
 40
1
 10
2269.760678
 20
709.121134
 30
0.0
 10
2280.050479
 20
698.831332
 30
0.0
 10
2295.525508
 20
695.753158
 30
0.0
 10
2308.969782
 20
701.321958
 30
0.0
  0
SPLINE
  5
298
100
AcDbEntity
  8
0
 62
7
100
AcDbSpline
 70
8
 71
3
 72
8
 73
4
 74
0
 40
0
 40
0
 40
0
 40
0
 40
1
 40
1
 40
1
 40
1
 10
2308.969782
 20
701.321958
 30
0.0
 10
2322.414056
 20
706.890759
 30
0.0
 10
2331.179956
 20
720.009855
 30
0.0
 10
2331.179956
 20
734.561832
 30
0.0
  0
SPLINE
  5
299
100
AcDbEntity
  8
0
 62
7
100
AcDbSpline
 70
8
 71
3
 72
8
 73
4
 74
0
 40
0
 40
0
 40
0
 40
0
 40
1
 40
1
 40
1
 40
1
 10
2331.179956
 20
734.561832
 30
0.0
 10
2331.179956
 20
744.103945
 30
0.0
 10
2327.389366
 20
753.255238
 30
0.0
 10
2320.642074
 20
760.002530
 30
0.0
  0
SPLINE
  5
29a
100
AcDbEntity
  8
0
 62
7
100
AcDbSpline
 70
8
 71
3
 72
8
 73
4
 74
0
 40
0
 40
0
 40
0
 40
0
 40
1
 40
1
 40
1
 40
1
 10
2320.642074
 20
760.002530
 30
0.0
 10
2313.894781
 20
766.749823
 30
0.0
 10
2304.743488
 20
770.540412
 30
0.0
 10
2295.201376
 20
770.540412
 30
0.0
  0
LWPOLYLINE
  5
29b
100
AcDbEntity
  8
0
 62
7
100
AcDbPolyline
 90
1
 70
1
 10
159.784199
 20
1335.124072
 30
0.0
  0
SPLINE
  5
29c
100
AcDbEntity
  8
0
 62
7
100
AcDbSpline
 70
8
 71
3
 72
8
 73
4
 74
0
 40
0
 40
0
 40
0
 40
0
 40
1
 40
1
 40
1
 40
1
 10
2128.532530
 20
241.373919
 30
0.0
 10
2113.980553
 20
241.373919
 30
0.0
 10
2100.861457
 20
232.608020
 30
0.0
 10
2095.292657
 20
219.163746
 30
0.0
  0
SPLINE
  5
29d
100
AcDbEntity
  8
0
 62
7
100
AcDbSpline
 70
8
 71
3
 72
8
 73
4
 74
0
 40
0
 40
0
 40
0
 40
0
 40
1
 40
1
 40
1
 40
1
 10
2095.292657
 20
219.163746
 30
0.0
 10
2089.723856
 20
205.719472
 30
0.0
 10
2092.802031
 20
190.244443
 30
0.0
 10
2103.091832
 20
179.954641
 30
0.0
  0
SPLINE
  5
29e
100
AcDbEntity
  8
0
 62
7
100
AcDbSpline
 70
8
 71
3
 72
8
 73
4
 74
0
 40
0
 40
0
 40
0
 40
0
 40
1
 40
1
 40
1
 40
1
 10
2103.091832
 20
179.954641
 30
0.0
 10
2113.381634
 20
169.664839
 30
0.0
 10
2128.856663
 20
166.586665
 30
0.0
 10
2142.300937
 20
172.155465
 30
0.0
  0
SPLINE
  5
29f
100
AcDbEntity
  8
0
 62
7
100
AcDbSpline
 70
8
 71
3
 72
8
 73
4
 74
0
 40
0
 40
0
 40
0
 40
0
 40
1
 40
1
 40
1
 40
1
 10
2142.300937
 20
172.155465
 30
0.0
 10
2155.745211
 20
177.724266
 30
0.0
 10
2164.511111
 20
190.843362
 30
0.0
 10
2164.511111
 20
205.395339
 30
0.0
  0
SPLINE
  5
2a0
100
AcDbEntity
  8
0
 62
7
100
AcDbSpline
 70
8
 71
3
 72
8
 73
4
 74
0
 40
0
 40
0
 40
0
 40
0
 40
1
 40
1
 40
1
 40
1
 10
2164.511111
 20
205.395339
 30
0.0
 10
2164.511111
 20
225.265760
 30
0.0
 10
2148.402952
 20
241.373919
 30
0.0
 10
2128.532530
 20
241.373919
 30
0.0
  0
LWPOLYLINE
  5
2a1
100
AcDbEntity
  8
0
 62
7
100
AcDbPolyline
 90
1
 70
1
 10
2295.201376
 20
770.540412
 30
0.0
  0
SPLINE
  5
2a2
100
AcDbEntity
  8
0
 62
7
100
AcDbSpline
 70
8
 71
3
 72
8
 73
4
 74
0
 40
0
 40
0
 40
0
 40
0
 40
1
 40
1
 40
1
 40
1
 10
2151.866074
 20
934.290984
 30
0.0
 10
2137.314097
 20
934.290984
 30
0.0
 10
2124.195001
 20
925.525084
 30
0.0
 10
2118.626200
 20
912.080810
 30
0.0
  0
SPLINE
  5
2a3
100
AcDbEntity
  8
0
 62
7
100
AcDbSpline
 70
8
 71
3
 72
8
 73
4
 74
0
 40
0
 40
0
 40
0
 40
0
 40
1
 40
1
 40
1
 40
1
 10
2118.626200
 20
912.080810
 30
0.0
 10
2113.057400
 20
898.636536
 30
0.0
 10
2116.135574
 20
883.161507
 30
0.0
 10
2126.425376
 20
872.871705
 30
0.0
  0
SPLINE
  5
2a4
100
AcDbEntity
  8
0
 62
7
100
AcDbSpline
 70
8
 71
3
 72
8
 73
4
 74
0
 40
0
 40
0
 40
0
 40
0
 40
1
 40
1
 40
1
 40
1
 10
2126.425376
 20
872.871705
 30
0.0
 10
2136.715178
 20
862.581904
 30
0.0
 10
2152.190207
 20
859.503729
 30
0.0
 10
2165.634481
 20
865.072530
 30
0.0
  0
SPLINE
  5
2a5
100
AcDbEntity
  8
0
 62
7
100
AcDbSpline
 70
8
 71
3
 72
8
 73
4
 74
0
 40
0
 40
0
 40
0
 40
0
 40
1
 40
1
 40
1
 40
1
 10
2165.634481
 20
865.072530
 30
0.0
 10
2179.078755
 20
870.641330
 30
0.0
 10
2187.844654
 20
883.760426
 30
0.0
 10
2187.844654
 20
898.312403
 30
0.0
  0
SPLINE
  5
2a6
100
AcDbEntity
  8
0
 62
7
100
AcDbSpline
 70
8
 71
3
 72
8
 73
4
 74
0
 40
0
 40
0
 40
0
 40
0
 40
1
 40
1
 40
1
 40
1
 10
2187.844654
 20
898.312403
 30
0.0
 10
2187.844654
 20
918.182825
 30
0.0
 10
2171.736495
 20
934.290984
 30
0.0
 10
2151.866074
 20
934.290984
 30
0.0
  0
LWPOLYLINE
  5
2a7
100
AcDbEntity
  8
0
 62
7
100
AcDbPolyline
 90
1
 70
1
 10
2128.532530
 20
241.373919
 30
0.0
  0
SPLINE
  5
2a8
100
AcDbEntity
  8
0
 62
7
100
AcDbSpline
 70
8
 71
3
 72
8
 73
4
 74
0
 40
0
 40
0
 40
0
 40
0
 40
1
 40
1
 40
1
 40
1
 10
2301.450911
 20
403.873118
 30
0.0
 10
2281.580490
 20
403.873118
 30
0.0
 10
2265.472331
 20
387.764959
 30
0.0
 10
2265.472331
 20
367.894538
 30
0.0
  0
SPLINE
  5
2a9
100
AcDbEntity
  8
0
 62
7
100
AcDbSpline
 70
8
 71
3
 72
8
 73
4
 74
0
 40
0
 40
0
 40
0
 40
0
 40
1
 40
1
 40
1
 40
1
 10
2265.472331
 20
367.894538
 30
0.0
 10
2265.472331
 20
348.024116
 30
0.0
 10
2281.580490
 20
331.915957
 30
0.0
 10
2301.450911
 20
331.915957
 30
0.0
  0
SPLINE
  5
2aa
100
AcDbEntity
  8
0
 62
7
100
AcDbSpline
 70
8
 71
3
 72
8
 73
4
 74
0
 40
0
 40
0
 40
0
 40
0
 40
1
 40
1
 40
1
 40
1
 10
2301.450911
 20
331.915957
 30
0.0
 10
2321.321332
 20
331.915957
 30
0.0
 10
2337.429491
 20
348.024116
 30
0.0
 10
2337.429491
 20
367.894538
 30
0.0
  0
SPLINE
  5
2ab
100
AcDbEntity
  8
0
 62
7
100
AcDbSpline
 70
8
 71
3
 72
8
 73
4
 74
0
 40
0
 40
0
 40
0
 40
0
 40
1
 40
1
 40
1
 40
1
 10
2337.429491
 20
367.894538
 30
0.0
 10
2337.429491
 20
377.436650
 30
0.0
 10
2333.638902
 20
386.587943
 30
0.0
 10
2326.891609
 20
393.335236
 30
0.0
  0
SPLINE
  5
2ac
100
AcDbEntity
  8
0
 62
7
100
AcDbSpline
 70
8
 71
3
 72
8
 73
4
 74
0
 40
0
 40
0
 40
0
 40
0
 40
1
 40
1
 40
1
 40
1
 10
2326.891609
 20
393.335236
 30
0.0
 10
2320.144317
 20
400.082528
 30
0.0
 10
2310.993024
 20
403.873118
 30
0.0
 10
2301.450911
 20
403.873118
 30
0.0
  0
LWPOLYLINE
  5
2ad
100
AcDbEntity
  8
0
 62
7
100
AcDbPolyline
 90
1
 70
1
 10
2151.866074
 20
934.290984
 30
0.0
  0
SPLINE
  5
2ae
100
AcDbEntity
  8
0
 62
7
100
AcDbSpline
 70
8
 71
3
 72
8
 73
4
 74
0
 40
0
 40
0
 40
0
 40
0
 40
1
 40
1
 40
1
 40
1
 10
2225.721815
 20
587.935718
 30
0.0
 10
2211.169838
 20
587.935718
 30
0.0
 10
2198.050742
 20
579.169819
 30
0.0
 10
2192.481941
 20
565.725545
 30
0.0
  0
SPLINE
  5
2af
100
AcDbEntity
  8
0
 62
7
100
AcDbSpline
 70
8
 71
3
 72
8
 73
4
 74
0
 40
0
 40
0
 40
0
 40
0
 40
1
 40
1
 40
1
 40
1
 10
2192.481941
 20
565.725545
 30
0.0
 10
2186.913141
 20
552.281271
 30
0.0
 10
2189.991315
 20
536.806242
 30
0.0
 10
2200.281117
 20
526.516440
 30
0.0
  0
SPLINE
  5
2b0
100
AcDbEntity
  8
0
 62
7
100
AcDbSpline
 70
8
 71
3
 72
8
 73
4
 74
0
 40
0
 40
0
 40
0
 40
0
 40
1
 40
1
 40
1
 40
1
 10
2200.281117
 20
526.516440
 30
0.0
 10
2210.570919
 20
516.226638
 30
0.0
 10
2226.045948
 20
513.148464
 30
0.0
 10
2239.490222
 20
518.717264
 30
0.0
  0
SPLINE
  5
2b1
100
AcDbEntity
  8
0
 62
7
100
AcDbSpline
 70
8
 71
3
 72
8
 73
4
 74
0
 40
0
 40
0
 40
0
 40
0
 40
1
 40
1
 40
1
 40
1
 10
2239.490222
 20
518.717264
 30
0.0
 10
2252.934496
 20
524.286065
 30
0.0
 10
2261.700395
 20
537.405161
 30
0.0
 10
2261.700395
 20
551.957138
 30
0.0
  0
SPLINE
  5
2b2
100
AcDbEntity
  8
0
 62
7
100
AcDbSpline
 70
8
 71
3
 72
8
 73
4
 74
0
 40
0
 40
0
 40
0
 40
0
 40
1
 40
1
 40
1
 40
1
 10
2261.700395
 20
551.957138
 30
0.0
 10
2261.700395
 20
561.499251
 30
0.0
 10
2257.909806
 20
570.650544
 30
0.0
 10
2251.162513
 20
577.397836
 30
0.0
  0
SPLINE
  5
2b3
100
AcDbEntity
  8
0
 62
7
100
AcDbSpline
 70
8
 71
3
 72
8
 73
4
 74
0
 40
0
 40
0
 40
0
 40
0
 40
1
 40
1
 40
1
 40
1
 10
2251.162513
 20
577.397836
 30
0.0
 10
2244.415220
 20
584.145129
 30
0.0
 10
2235.263928
 20
587.935718
 30
0.0
 10
2225.721815
 20
587.935718
 30
0.0
  0
LWPOLYLINE
  5
2b4
100
AcDbEntity
  8
0
 62
7
100
AcDbPolyline
 90
1
 70
1
 10
2301.450911
 20
403.873118
 30
0.0
  0
SPLINE
  5
2b5
100
AcDbEntity
  8
0
 62
7
100
AcDbSpline
 70
8
 71
3
 72
8
 73
4
 74
0
 40
0
 40
0
 40
0
 40
0
 40
1
 40
1
 40
1
 40
1
 10
1653.012989
 20
750.749586
 30
0.0
 10
1633.142568
 20
750.749586
 30
0.0
 10
1617.034409
 20
734.641427
 30
0.0
 10
1617.034409
 20
714.771005
 30
0.0
  0
SPLINE
  5
2b6
100
AcDbEntity
  8
0
 62
7
100
AcDbSpline
 70
8
 71
3
 72
8
 73
4
 74
0
 40
0
 40
0
 40
0
 40
0
 40
1
 40
1
 40
1
 40
1
 10
1617.034409
 20
714.771005
 30
0.0
 10
1617.034409
 20
694.900584
 30
0.0
 10
1633.142568
 20
678.792425
 30
0.0
 10
1653.012989
 20
678.792425
 30
0.0
  0
SPLINE
  5
2b7
100
AcDbEntity
  8
0
 62
7
100
AcDbSpline
 70
8
 71
3
 72
8
 73
4
 74
0
 40
0
 40
0
 40
0
 40
0
 40
1
 40
1
 40
1
 40
1
 10
1653.012989
 20
678.792425
 30
0.0
 10
1672.883411
 20
678.792425
 30
0.0
 10
1688.991570
 20
694.900584
 30
0.0
 10
1688.991570
 20
714.771005
 30
0.0
  0
SPLINE
  5
2b8
100
AcDbEntity
  8
0
 62
7
100
AcDbSpline
 70
8
 71
3
 72
8
 73
4
 74
0
 40
0
 40
0
 40
0
 40
0
 40
1
 40
1
 40
1
 40
1
 10
1688.991570
 20
714.771005
 30
0.0
 10
1688.991570
 20
724.313118
 30
0.0
 10
1685.200980
 20
733.464411
 30
0.0
 10
1678.453687
 20
740.211703
 30
0.0
  0
SPLINE
  5
2b9
100
AcDbEntity
  8
0
 62
7
100
AcDbSpline
 70
8
 71
3
 72
8
 73
4
 74
0
 40
0
 40
0
 40
0
 40
0
 40
1
 40
1
 40
1
 40
1
 10
1678.453687
 20
740.211703
 30
0.0
 10
1671.706395
 20
746.958996
 30
0.0
 10
1662.555102
 20
750.749586
 30
0.0
 10
1653.012989
 20
750.749586
 30
0.0
  0
LWPOLYLINE
  5
2ba
100
AcDbEntity
  8
0
 62
7
100
AcDbPolyline
 90
1
 70
1
 10
2225.721815
 20
587.935718
 30
0.0
  0
SPLINE
  5
2bb
100
AcDbEntity
  8
0
 62
7
100
AcDbSpline
 70
8
 71
3
 72
8
 73
4
 74
0
 40
0
 40
0
 40
0
 40
0
 40
1
 40
1
 40
1
 40
1
 10
2059.397140
 20
595.986378
 30
0.0
 10
2044.845163
 20
595.986378
 30
0.0
 10
2031.726067
 20
587.220478
 30
0.0
 10
2026.157266
 20
573.776204
 30
0.0
  0
SPLINE
  5
2bc
100
AcDbEntity
  8
0
 62
7
100
AcDbSpline
 70
8
 71
3
 72
8
 73
4
 74
0
 40
0
 40
0
 40
0
 40
0
 40
1
 40
1
 40
1
 40
1
 10
2026.157266
 20
573.776204
 30
0.0
 10
2020.588465
 20
560.331930
 30
0.0
 10
2023.666640
 20
544.856902
 30
0.0
 10
2033.956442
 20
534.567100
 30
0.0
  0
SPLINE
  5
2bd
100
AcDbEntity
  8
0
 62
7
100
AcDbSpline
 70
8
 71
3
 72
8
 73
4
 74
0
 40
0
 40
0
 40
0
 40
0
 40
1
 40
1
 40
1
 40
1
 10
2033.956442
 20
534.567100
 30
0.0
 10
2044.246244
 20
524.277298
 30
0.0
 10
2059.721272
 20
521.199123
 30
0.0
 10
2073.165546
 20
526.767924
 30
0.0
  0
SPLINE
  5
2be
100
AcDbEntity
  8
0
 62
7
100
AcDbSpline
 70
8
 71
3
 72
8
 73
4
 74
0
 40
0
 40
0
 40
0
 40
0
 40
1
 40
1
 40
1
 40
1
 10
2073.165546
 20
526.767924
 30
0.0
 10
2086.609820
 20
532.336725
 30
0.0
 10
2095.375720
 20
545.455821
 30
0.0
 10
2095.375720
 20
560.007798
 30
0.0
  0
SPLINE
  5
2bf
100
AcDbEntity
  8
0
 62
7
100
AcDbSpline
 70
8
 71
3
 72
8
 73
4
 74
0
 40
0
 40
0
 40
0
 40
0
 40
1
 40
1
 40
1
 40
1
 10
2095.375720
 20
560.007798
 30
0.0
 10
2095.375720
 20
569.549911
 30
0.0
 10
2091.585130
 20
578.701203
 30
0.0
 10
2084.837838
 20
585.448496
 30
0.0
  0
SPLINE
  5
2c0
100
AcDbEntity
  8
0
 62
7
100
AcDbSpline
 70
8
 71
3
 72
8
 73
4
 74
0
 40
0
 40
0
 40
0
 40
0
 40
1
 40
1
 40
1
 40
1
 10
2084.837838
 20
585.448496
 30
0.0
 10
2078.090545
 20
592.195788
 30
0.0
 10
2068.939253
 20
595.986378
 30
0.0
 10
2059.397140
 20
595.986378
 30
0.0
  0
LWPOLYLINE
  5
2c1
100
AcDbEntity
  8
0
 62
7
100
AcDbPolyline
 90
1
 70
1
 10
1653.012989
 20
750.749586
 30
0.0
  0
SPLINE
  5
2c2
100
AcDbEntity
  8
0
 62
7
100
AcDbSpline
 70
8
 71
3
 72
8
 73
4
 74
0
 40
0
 40
0
 40
0
 40
0
 40
1
 40
1
 40
1
 40
1
 10
1568.116057
 20
230.957303
 30
0.0
 10
1553.564080
 20
230.957303
 30
0.0
 10
1540.444984
 20
222.191404
 30
0.0
 10
1534.876183
 20
208.747130
 30
0.0
  0
SPLINE
  5
2c3
100
AcDbEntity
  8
0
 62
7
100
AcDbSpline
 70
8
 71
3
 72
8
 73
4
 74
0
 40
0
 40
0
 40
0
 40
0
 40
1
 40
1
 40
1
 40
1
 10
1534.876183
 20
208.747130
 30
0.0
 10
1529.307383
 20
195.302856
 30
0.0
 10
1532.385557
 20
179.827827
 30
0.0
 10
1542.675359
 20
169.538025
 30
0.0
  0
SPLINE
  5
2c4
100
AcDbEntity
  8
0
 62
7
100
AcDbSpline
 70
8
 71
3
 72
8
 73
4
 74
0
 40
0
 40
0
 40
0
 40
0
 40
1
 40
1
 40
1
 40
1
 10
1542.675359
 20
169.538025
 30
0.0
 10
1552.965161
 20
159.248223
 30
0.0
 10
1568.440190
 20
156.170049
 30
0.0
 10
1581.884464
 20
161.738849
 30
0.0
  0
SPLINE
  5
2c5
100
AcDbEntity
  8
0
 62
7
100
AcDbSpline
 70
8
 71
3
 72
8
 73
4
 74
0
 40
0
 40
0
 40
0
 40
0
 40
1
 40
1
 40
1
 40
1
 10
1581.884464
 20
161.738849
 30
0.0
 10
1595.328738
 20
167.307650
 30
0.0
 10
1604.094638
 20
180.426746
 30
0.0
 10
1604.094638
 20
194.978723
 30
0.0
  0
SPLINE
  5
2c6
100
AcDbEntity
  8
0
 62
7
100
AcDbSpline
 70
8
 71
3
 72
8
 73
4
 74
0
 40
0
 40
0
 40
0
 40
0
 40
1
 40
1
 40
1
 40
1
 10
1604.094638
 20
194.978723
 30
0.0
 10
1604.094638
 20
204.520836
 30
0.0
 10
1600.304048
 20
213.672129
 30
0.0
 10
1593.556755
 20
220.419421
 30
0.0
  0
SPLINE
  5
2c7
100
AcDbEntity
  8
0
 62
7
100
AcDbSpline
 70
8
 71
3
 72
8
 73
4
 74
0
 40
0
 40
0
 40
0
 40
0
 40
1
 40
1
 40
1
 40
1
 10
1593.556755
 20
220.419421
 30
0.0
 10
1586.809463
 20
227.166714
 30
0.0
 10
1577.658170
 20
230.957303
 30
0.0
 10
1568.116057
 20
230.957303
 30
0.0
  0
LWPOLYLINE
  5
2c8
100
AcDbEntity
  8
0
 62
7
100
AcDbPolyline
 90
1
 70
1
 10
2059.397140
 20
595.986378
 30
0.0
  0
SPLINE
  5
2c9
100
AcDbEntity
  8
0
 62
7
100
AcDbSpline
 70
8
 71
3
 72
8
 73
4
 74
0
 40
0
 40
0
 40
0
 40
0
 40
1
 40
1
 40
1
 40
1
 10
1539.575489
 20
932.415141
 30
0.0
 10
1525.023512
 20
932.415141
 30
0.0
 10
1511.904416
 20
923.649242
 30
0.0
 10
1506.335615
 20
910.204968
 30
0.0
  0
SPLINE
  5
2ca
100
AcDbEntity
  8
0
 62
7
100
AcDbSpline
 70
8
 71
3
 72
8
 73
4
 74
0
 40
0
 40
0
 40
0
 40
0
 40
1
 40
1
 40
1
 40
1
 10
1506.335615
 20
910.204968
 30
0.0
 10
1500.766815
 20
896.760694
 30
0.0
 10
1503.844989
 20
881.285665
 30
0.0
 10
1514.134791
 20
870.995863
 30
0.0
  0
SPLINE
  5
2cb
100
AcDbEntity
  8
0
 62
7
100
AcDbSpline
 70
8
 71
3
 72
8
 73
4
 74
0
 40
0
 40
0
 40
0
 40
0
 40
1
 40
1
 40
1
 40
1
 10
1514.134791
 20
870.995863
 30
0.0
 10
1524.424593
 20
860.706061
 30
0.0
 10
1539.899622
 20
857.627887
 30
0.0
 10
1553.343896
 20
863.196687
 30
0.0
  0
SPLINE
  5
2cc
100
AcDbEntity
  8
0
 62
7
100
AcDbSpline
 70
8
 71
3
 72
8
 73
4
 74
0
 40
0
 40
0
 40
0
 40
0
 40
1
 40
1
 40
1
 40
1
 10
1553.343896
 20
863.196687
 30
0.0
 10
1566.788170
 20
868.765488
 30
0.0
 10
1575.554069
 20
881.884584
 30
0.0
 10
1575.554069
 20
896.436561
 30
0.0
  0
SPLINE
  5
2cd
100
AcDbEntity
  8
0
 62
7
100
AcDbSpline
 70
8
 71
3
 72
8
 73
4
 74
0
 40
0
 40
0
 40
0
 40
0
 40
1
 40
1
 40
1
 40
1
 10
1575.554069
 20
896.436561
 30
0.0
 10
1575.554069
 20
916.306982
 30
0.0
 10
1559.445910
 20
932.415141
 30
0.0
 10
1539.575489
 20
932.415141
 30
0.0
  0
LWPOLYLINE
  5
2ce
100
AcDbEntity
  8
0
 62
7
100
AcDbPolyline
 90
1
 70
1
 10
1568.116057
 20
230.957303
 30
0.0
  0
SPLINE
  5
2cf
100
AcDbEntity
  8
0
 62
7
100
AcDbSpline
 70
8
 71
3
 72
8
 73
4
 74
0
 40
0
 40
0
 40
0
 40
0
 40
1
 40
1
 40
1
 40
1
 10
1709.784590
 20
397.623556
 30
0.0
 10
1695.232613
 20
397.623556
 30
0.0
 10
1682.113517
 20
388.857656
 30
0.0
 10
1676.544716
 20
375.413382
 30
0.0
  0
SPLINE
  5
2d0
100
AcDbEntity
  8
0
 62
7
100
AcDbSpline
 70
8
 71
3
 72
8
 73
4
 74
0
 40
0
 40
0
 40
0
 40
0
 40
1
 40
1
 40
1
 40
1
 10
1676.544716
 20
375.413382
 30
0.0
 10
1670.975916
 20
361.969108
 30
0.0
 10
1674.054090
 20
346.494079
 30
0.0
 10
1684.343892
 20
336.204277
 30
0.0
  0
SPLINE
  5
2d1
100
AcDbEntity
  8
0
 62
7
100
AcDbSpline
 70
8
 71
3
 72
8
 73
4
 74
0
 40
0
 40
0
 40
0
 40
0
 40
1
 40
1
 40
1
 40
1
 10
1684.343892
 20
336.204277
 30
0.0
 10
1694.633694
 20
325.914476
 30
0.0
 10
1710.108723
 20
322.836301
 30
0.0
 10
1723.552997
 20
328.405102
 30
0.0
  0
SPLINE
  5
2d2
100
AcDbEntity
  8
0
 62
7
100
AcDbSpline
 70
8
 71
3
 72
8
 73
4
 74
0
 40
0
 40
0
 40
0
 40
0
 40
1
 40
1
 40
1
 40
1
 10
1723.552997
 20
328.405102
 30
0.0
 10
1736.997271
 20
333.973902
 30
0.0
 10
1745.763170
 20
347.092998
 30
0.0
 10
1745.763170
 20
361.644975
 30
0.0
  0
SPLINE
  5
2d3
100
AcDbEntity
  8
0
 62
7
100
AcDbSpline
 70
8
 71
3
 72
8
 73
4
 74
0
 40
0
 40
0
 40
0
 40
0
 40
1
 40
1
 40
1
 40
1
 10
1745.763170
 20
361.644975
 30
0.0
 10
1745.763170
 20
371.187088
 30
0.0
 10
1741.972581
 20
380.338381
 30
0.0
 10
1735.225288
 20
387.085673
 30
0.0
  0
SPLINE
  5
2d4
100
AcDbEntity
  8
0
 62
7
100
AcDbSpline
 70
8
 71
3
 72
8
 73
4
 74
0
 40
0
 40
0
 40
0
 40
0
 40
1
 40
1
 40
1
 40
1
 10
1735.225288
 20
387.085673
 30
0.0
 10
1728.477996
 20
393.832966
 30
0.0
 10
1719.326703
 20
397.623556
 30
0.0
 10
1709.784590
 20
397.623556
 30
0.0
  0
LWPOLYLINE
  5
2d5
100
AcDbEntity
  8
0
 62
7
100
AcDbPolyline
 90
1
 70
1
 10
1539.575489
 20
932.415141
 30
0.0
  0
SPLINE
  5
2d6
100
AcDbEntity
  8
0
 62
7
100
AcDbSpline
 70
8
 71
3
 72
8
 73
4
 74
0
 40
0
 40
0
 40
0
 40
0
 40
1
 40
1
 40
1
 40
1
 10
1611.243127
 20
580.019414
 30
0.0
 10
1596.691149
 20
580.019414
 30
0.0
 10
1583.572053
 20
571.253514
 30
0.0
 10
1578.003253
 20
557.809240
 30
0.0
  0
SPLINE
  5
2d7
100
AcDbEntity
  8
0
 62
7
100
AcDbSpline
 70
8
 71
3
 72
8
 73
4
 74
0
 40
0
 40
0
 40
0
 40
0
 40
1
 40
1
 40
1
 40
1
 10
1578.003253
 20
557.809240
 30
0.0
 10
1572.434452
 20
544.364966
 30
0.0
 10
1575.512627
 20
528.889938
 30
0.0
 10
1585.802428
 20
518.600136
 30
0.0
  0
SPLINE
  5
2d8
100
AcDbEntity
  8
0
 62
7
100
AcDbSpline
 70
8
 71
3
 72
8
 73
4
 74
0
 40
0
 40
0
 40
0
 40
0
 40
1
 40
1
 40
1
 40
1
 10
1585.802428
 20
518.600136
 30
0.0
 10
1596.092230
 20
508.310334
 30
0.0
 10
1611.567259
 20
505.232159
 30
0.0
 10
1625.011533
 20
510.800960
 30
0.0
  0
SPLINE
  5
2d9
100
AcDbEntity
  8
0
 62
7
100
AcDbSpline
 70
8
 71
3
 72
8
 73
4
 74
0
 40
0
 40
0
 40
0
 40
0
 40
1
 40
1
 40
1
 40
1
 10
1625.011533
 20
510.800960
 30
0.0
 10
1638.455807
 20
516.369761
 30
0.0
 10
1647.221707
 20
529.488857
 30
0.0
 10
1647.221707
 20
544.040834
 30
0.0
  0
SPLINE
  5
2da
100
AcDbEntity
  8
0
 62
7
100
AcDbSpline
 70
8
 71
3
 72
8
 73
4
 74
0
 40
0
 40
0
 40
0
 40
0
 40
1
 40
1
 40
1
 40
1
 10
1647.221707
 20
544.040834
 30
0.0
 10
1647.221707
 20
553.582947
 30
0.0
 10
1643.431117
 20
562.734239
 30
0.0
 10
1636.683825
 20
569.481532
 30
0.0
  0
SPLINE
  5
2db
100
AcDbEntity
  8
0
 62
7
100
AcDbSpline
 70
8
 71
3
 72
8
 73
4
 74
0
 40
0
 40
0
 40
0
 40
0
 40
1
 40
1
 40
1
 40
1
 10
1636.683825
 20
569.481532
 30
0.0
 10
1629.936532
 20
576.228825
 30
0.0
 10
1620.785239
 20
580.019414
 30
0.0
 10
1611.243127
 20
580.019414
 30
0.0
  0
LWPOLYLINE
  5
2dc
100
AcDbEntity
  8
0
 62
7
100
AcDbPolyline
 90
1
 70
1
 10
1709.784590
 20
397.623556
 30
0.0
  0
SPLINE
  5
2dd
100
AcDbEntity
  8
0
 62
7
100
AcDbSpline
 70
8
 71
3
 72
8
 73
4
 74
0
 40
0
 40
0
 40
0
 40
0
 40
1
 40
1
 40
1
 40
1
 10
2818.129075
 20
770.540412
 30
0.0
 10
2803.577098
 20
770.540412
 30
0.0
 10
2790.458002
 20
761.774513
 30
0.0
 10
2784.889201
 20
748.330239
 30
0.0
  0
SPLINE
  5
2de
100
AcDbEntity
  8
0
 62
7
100
AcDbSpline
 70
8
 71
3
 72
8
 73
4
 74
0
 40
0
 40
0
 40
0
 40
0
 40
1
 40
1
 40
1
 40
1
 10
2784.889201
 20
748.330239
 30
0.0
 10
2779.320400
 20
734.885965
 30
0.0
 10
2782.398575
 20
719.410936
 30
0.0
 10
2792.688377
 20
709.121134
 30
0.0
  0
SPLINE
  5
2df
100
AcDbEntity
  8
0
 62
7
100
AcDbSpline
 70
8
 71
3
 72
8
 73
4
 74
0
 40
0
 40
0
 40
0
 40
0
 40
1
 40
1
 40
1
 40
1
 10
2792.688377
 20
709.121134
 30
0.0
 10
2802.978179
 20
698.831332
 30
0.0
 10
2818.453207
 20
695.753158
 30
0.0
 10
2831.897481
 20
701.321958
 30
0.0
  0
SPLINE
  5
2e0
100
AcDbEntity
  8
0
 62
7
100
AcDbSpline
 70
8
 71
3
 72
8
 73
4
 74
0
 40
0
 40
0
 40
0
 40
0
 40
1
 40
1
 40
1
 40
1
 10
2831.897481
 20
701.321958
 30
0.0
 10
2845.341755
 20
706.890759
 30
0.0
 10
2854.107655
 20
720.009855
 30
0.0
 10
2854.107655
 20
734.561832
 30
0.0
  0
SPLINE
  5
2e1
100
AcDbEntity
  8
0
 62
7
100
AcDbSpline
 70
8
 71
3
 72
8
 73
4
 74
0
 40
0
 40
0
 40
0
 40
0
 40
1
 40
1
 40
1
 40
1
 10
2854.107655
 20
734.561832
 30
0.0
 10
2854.107655
 20
744.103945
 30
0.0
 10
2850.317066
 20
753.255238
 30
0.0
 10
2843.569773
 20
760.002530
 30
0.0
  0
SPLINE
  5
2e2
100
AcDbEntity
  8
0
 62
7
100
AcDbSpline
 70
8
 71
3
 72
8
 73
4
 74
0
 40
0
 40
0
 40
0
 40
0
 40
1
 40
1
 40
1
 40
1
 10
2843.569773
 20
760.002530
 30
0.0
 10
2836.822480
 20
766.749823
 30
0.0
 10
2827.671188
 20
770.540412
 30
0.0
 10
2818.129075
 20
770.540412
 30
0.0
  0
LWPOLYLINE
  5
2e3
100
AcDbEntity
  8
0
 62
7
100
AcDbPolyline
 90
1
 70
1
 10
1611.243127
 20
580.019414
 30
0.0
  0
SPLINE
  5
2e4
100
AcDbEntity
  8
0
 62
7
100
AcDbSpline
 70
8
 71
3
 72
8
 73
4
 74
0
 40
0
 40
0
 40
0
 40
0
 40
1
 40
1
 40
1
 40
1
 10
2616.971804
 20
880.853132
 30
0.0
 10
2602.419826
 20
880.853132
 30
0.0
 10
2589.300730
 20
872.087232
 30
0.0
 10
2583.731930
 20
858.642958
 30
0.0
  0
SPLINE
  5
2e5
100
AcDbEntity
  8
0
 62
7
100
AcDbSpline
 70
8
 71
3
 72
8
 73
4
 74
0
 40
0
 40
0
 40
0
 40
0
 40
1
 40
1
 40
1
 40
1
 10
2583.731930
 20
858.642958
 30
0.0
 10
2578.163129
 20
845.198684
 30
0.0
 10
2581.241304
 20
829.723655
 30
0.0
 10
2591.531106
 20
819.433854
 30
0.0
  0
SPLINE
  5
2e6
100
AcDbEntity
  8
0
 62
7
100
AcDbSpline
 70
8
 71
3
 72
8
 73
4
 74
0
 40
0
 40
0
 40
0
 40
0
 40
1
 40
1
 40
1
 40
1
 10
2591.531106
 20
819.433854
 30
0.0
 10
2601.820907
 20
809.144052
 30
0.0
 10
2617.295936
 20
806.065877
 30
0.0
 10
2630.740210
 20
811.634678
 30
0.0
  0
SPLINE
  5
2e7
100
AcDbEntity
  8
0
 62
7
100
AcDbSpline
 70
8
 71
3
 72
8
 73
4
 74
0
 40
0
 40
0
 40
0
 40
0
 40
1
 40
1
 40
1
 40
1
 10
2630.740210
 20
811.634678
 30
0.0
 10
2644.184484
 20
817.203478
 30
0.0
 10
2652.950384
 20
830.322574
 30
0.0
 10
2652.950384
 20
844.874552
 30
0.0
  0
SPLINE
  5
2e8
100
AcDbEntity
  8
0
 62
7
100
AcDbSpline
 70
8
 71
3
 72
8
 73
4
 74
0
 40
0
 40
0
 40
0
 40
0
 40
1
 40
1
 40
1
 40
1
 10
2652.950384
 20
844.874552
 30
0.0
 10
2652.950384
 20
854.416664
 30
0.0
 10
2649.159794
 20
863.567957
 30
0.0
 10
2642.412502
 20
870.315250
 30
0.0
  0
SPLINE
  5
2e9
100
AcDbEntity
  8
0
 62
7
100
AcDbSpline
 70
8
 71
3
 72
8
 73
4
 74
0
 40
0
 40
0
 40
0
 40
0
 40
1
 40
1
 40
1
 40
1
 10
2642.412502
 20
870.315250
 30
0.0
 10
2635.665209
 20
877.062542
 30
0.0
 10
2626.513916
 20
880.853132
 30
0.0
 10
2616.971804
 20
880.853132
 30
0.0
  0
LWPOLYLINE
  5
2ea
100
AcDbEntity
  8
0
 62
7
100
AcDbPolyline
 90
1
 70
1
 10
2818.129075
 20
770.540412
 30
0.0
  0
SPLINE
  5
2eb
100
AcDbEntity
  8
0
 62
7
100
AcDbSpline
 70
8
 71
3
 72
8
 73
4
 74
0
 40
0
 40
0
 40
0
 40
0
 40
1
 40
1
 40
1
 40
1
 10
2636.865792
 20
338.207689
 30
0.0
 10
2621.066468
 20
338.207689
 30
0.0
 10
2606.822848
 20
328.690406
 30
0.0
 10
2600.776709
 20
314.093735
 30
0.0
  0
SPLINE
  5
2ec
100
AcDbEntity
  8
0
 62
7
100
AcDbSpline
 70
8
 71
3
 72
8
 73
4
 74
0
 40
0
 40
0
 40
0
 40
0
 40
1
 40
1
 40
1
 40
1
 10
2600.776709
 20
314.093735
 30
0.0
 10
2594.730570
 20
299.497064
 30
0.0
 10
2598.072595
 20
282.695568
 30
0.0
 10
2609.244404
 20
271.523760
 30
0.0
  0
SPLINE
  5
2ed
100
AcDbEntity
  8
0
 62
7
100
AcDbSpline
 70
8
 71
3
 72
8
 73
4
 74
0
 40
0
 40
0
 40
0
 40
0
 40
1
 40
1
 40
1
 40
1
 10
2609.244404
 20
271.523760
 30
0.0
 10
2620.416212
 20
260.351951
 30
0.0
 10
2637.217708
 20
257.009926
 30
0.0
 10
2651.814379
 20
263.056065
 30
0.0
  0
SPLINE
  5
2ee
100
AcDbEntity
  8
0
 62
7
100
AcDbSpline
 70
8
 71
3
 72
8
 73
4
 74
0
 40
0
 40
0
 40
0
 40
0
 40
1
 40
1
 40
1
 40
1
 10
2651.814379
 20
263.056065
 30
0.0
 10
2666.411050
 20
269.102204
 30
0.0
 10
2675.928333
 20
283.345824
 30
0.0
 10
2675.928333
 20
299.145147
 30
0.0
  0
SPLINE
  5
2ef
100
AcDbEntity
  8
0
 62
7
100
AcDbSpline
 70
8
 71
3
 72
8
 73
4
 74
0
 40
0
 40
0
 40
0
 40
0
 40
1
 40
1
 40
1
 40
1
 10
2675.928333
 20
299.145147
 30
0.0
 10
2675.928333
 20
320.718793
 30
0.0
 10
2658.439437
 20
338.207689
 30
0.0
 10
2636.865792
 20
338.207689
 30
0.0
  0
LWPOLYLINE
  5
2f0
100
AcDbEntity
  8
0
 62
7
100
AcDbPolyline
 90
1
 70
1
 10
2616.971804
 20
880.853132
 30
0.0
  0
SPLINE
  5
2f1
100
AcDbEntity
  8
0
 62
7
100
AcDbSpline
 70
8
 71
3
 72
8
 73
4
 74
0
 40
0
 40
0
 40
0
 40
0
 40
1
 40
1
 40
1
 40
1
 10
2768.122841
 20
547.623762
 30
0.0
 10
2753.570864
 20
547.623762
 30
0.0
 10
2740.451768
 20
538.857862
 30
0.0
 10
2734.882967
 20
525.413588
 30
0.0
  0
SPLINE
  5
2f2
100
AcDbEntity
  8
0
 62
7
100
AcDbSpline
 70
8
 71
3
 72
8
 73
4
 74
0
 40
0
 40
0
 40
0
 40
0
 40
1
 40
1
 40
1
 40
1
 10
2734.882967
 20
525.413588
 30
0.0
 10
2729.314167
 20
511.969314
 30
0.0
 10
2732.392341
 20
496.494286
 30
0.0
 10
2742.682143
 20
486.204484
 30
0.0
  0
SPLINE
  5
2f3
100
AcDbEntity
  8
0
 62
7
100
AcDbSpline
 70
8
 71
3
 72
8
 73
4
 74
0
 40
0
 40
0
 40
0
 40
0
 40
1
 40
1
 40
1
 40
1
 10
2742.682143
 20
486.204484
 30
0.0
 10
2752.971945
 20
475.914682
 30
0.0
 10
2768.446974
 20
472.836507
 30
0.0
 10
2781.891248
 20
478.405308
 30
0.0
  0
SPLINE
  5
2f4
100
AcDbEntity
  8
0
 62
7
100
AcDbSpline
 70
8
 71
3
 72
8
 73
4
 74
0
 40
0
 40
0
 40
0
 40
0
 40
1
 40
1
 40
1
 40
1
 10
2781.891248
 20
478.405308
 30
0.0
 10
2795.335522
 20
483.974109
 30
0.0
 10
2804.101422
 20
497.093205
 30
0.0
 10
2804.101422
 20
511.645182
 30
0.0
  0
SPLINE
  5
2f5
100
AcDbEntity
  8
0
 62
7
100
AcDbSpline
 70
8
 71
3
 72
8
 73
4
 74
0
 40
0
 40
0
 40
0
 40
0
 40
1
 40
1
 40
1
 40
1
 10
2804.101422
 20
511.645182
 30
0.0
 10
2804.101422
 20
521.187295
 30
0.0
 10
2800.310832
 20
530.338587
 30
0.0
 10
2793.563539
 20
537.085880
 30
0.0
  0
SPLINE
  5
2f6
100
AcDbEntity
  8
0
 62
7
100
AcDbSpline
 70
8
 71
3
 72
8
 73
4
 74
0
 40
0
 40
0
 40
0
 40
0
 40
1
 40
1
 40
1
 40
1
 10
2793.563539
 20
537.085880
 30
0.0
 10
2786.816247
 20
543.833172
 30
0.0
 10
2777.664954
 20
547.623762
 30
0.0
 10
2768.122841
 20
547.623762
 30
0.0
  0
LWPOLYLINE
  5
2f7
100
AcDbEntity
  8
0
 62
7
100
AcDbPolyline
 90
1
 70
1
 10
2636.865792
 20
338.207689
 30
0.0
  0
SPLINE
  5
2f8
100
AcDbEntity
  8
0
 62
7
100
AcDbSpline
 70
8
 71
3
 72
8
 73
4
 74
0
 40
0
 40
0
 40
0
 40
0
 40
1
 40
1
 40
1
 40
1
 10
3770.205429
 20
1212.206659
 30
0.0
 10
3755.653452
 20
1212.206659
 30
0.0
 10
3742.534356
 20
1203.440760
 30
0.0
 10
3736.965555
 20
1189.996486
 30
0.0
  0
SPLINE
  5
2f9
100
AcDbEntity
  8
0
 62
7
100
AcDbSpline
 70
8
 71
3
 72
8
 73
4
 74
0
 40
0
 40
0
 40
0
 40
0
 40
1
 40
1
 40
1
 40
1
 10
3736.965555
 20
1189.996486
 30
0.0
 10
3731.396755
 20
1176.552212
 30
0.0
 10
3734.474929
 20
1161.077183
 30
0.0
 10
3744.764731
 20
1150.787381
 30
0.0
  0
SPLINE
  5
2fa
100
AcDbEntity
  8
0
 62
7
100
AcDbSpline
 70
8
 71
3
 72
8
 73
4
 74
0
 40
0
 40
0
 40
0
 40
0
 40
1
 40
1
 40
1
 40
1
 10
3744.764731
 20
1150.787381
 30
0.0
 10
3755.054533
 20
1140.497579
 30
0.0
 10
3770.529562
 20
1137.419405
 30
0.0
 10
3783.973836
 20
1142.988205
 30
0.0
  0
SPLINE
  5
2fb
100
AcDbEntity
  8
0
 62
7
100
AcDbSpline
 70
8
 71
3
 72
8
 73
4
 74
0
 40
0
 40
0
 40
0
 40
0
 40
1
 40
1
 40
1
 40
1
 10
3783.973836
 20
1142.988205
 30
0.0
 10
3797.418110
 20
1148.557006
 30
0.0
 10
3806.184009
 20
1161.676102
 30
0.0
 10
3806.184009
 20
1176.228079
 30
0.0
  0
SPLINE
  5
2fc
100
AcDbEntity
  8
0
 62
7
100
AcDbSpline
 70
8
 71
3
 72
8
 73
4
 74
0
 40
0
 40
0
 40
0
 40
0
 40
1
 40
1
 40
1
 40
1
 10
3806.184009
 20
1176.228079
 30
0.0
 10
3806.184009
 20
1185.770192
 30
0.0
 10
3802.393420
 20
1194.921484
 30
0.0
 10
3795.646127
 20
1201.668777
 30
0.0
  0
SPLINE
  5
2fd
100
AcDbEntity
  8
0
 62
7
100
AcDbSpline
 70
8
 71
3
 72
8
 73
4
 74
0
 40
0
 40
0
 40
0
 40
0
 40
1
 40
1
 40
1
 40
1
 10
3795.646127
 20
1201.668777
 30
0.0
 10
3788.898834
 20
1208.416070
 30
0.0
 10
3779.747542
 20
1212.206659
 30
0.0
 10
3770.205429
 20
1212.206659
 30
0.0
  0
LWPOLYLINE
  5
2fe
100
AcDbEntity
  8
0
 62
7
100
AcDbPolyline
 90
1
 70
1
 10
2768.122841
 20
547.623762
 30
0.0
  0
SPLINE
  5
2ff
100
AcDbEntity
  8
0
 62
7
100
AcDbSpline
 70
8
 71
3
 72
8
 73
4
 74
0
 40
0
 40
0
 40
0
 40
0
 40
1
 40
1
 40
1
 40
1
 10
3551.448001
 20
1501.790350
 30
0.0
 10
3536.896024
 20
1501.790350
 30
0.0
 10
3523.776928
 20
1493.024451
 30
0.0
 10
3518.208127
 20
1479.580177
 30
0.0
  0
SPLINE
  5
300
100
AcDbEntity
  8
0
 62
7
100
AcDbSpline
 70
8
 71
3
 72
8
 73
4
 74
0
 40
0
 40
0
 40
0
 40
0
 40
1
 40
1
 40
1
 40
1
 10
3518.208127
 20
1479.580177
 30
0.0
 10
3512.639326
 20
1466.135903
 30
0.0
 10
3515.717501
 20
1450.660874
 30
0.0
 10
3526.007303
 20
1440.371072
 30
0.0
  0
SPLINE
  5
301
100
AcDbEntity
  8
0
 62
7
100
AcDbSpline
 70
8
 71
3
 72
8
 73
4
 74
0
 40
0
 40
0
 40
0
 40
0
 40
1
 40
1
 40
1
 40
1
 10
3526.007303
 20
1440.371072
 30
0.0
 10
3536.297105
 20
1430.081270
 30
0.0
 10
3551.772133
 20
1427.003096
 30
0.0
 10
3565.216407
 20
1432.571896
 30
0.0
  0
SPLINE
  5
302
100
AcDbEntity
  8
0
 62
7
100
AcDbSpline
 70
8
 71
3
 72
8
 73
4
 74
0
 40
0
 40
0
 40
0
 40
0
 40
1
 40
1
 40
1
 40
1
 10
3565.216407
 20
1432.571896
 30
0.0
 10
3578.660681
 20
1438.140697
 30
0.0
 10
3587.426581
 20
1451.259793
 30
0.0
 10
3587.426581
 20
1465.811770
 30
0.0
  0
SPLINE
  5
303
100
AcDbEntity
  8
0
 62
7
100
AcDbSpline
 70
8
 71
3
 72
8
 73
4
 74
0
 40
0
 40
0
 40
0
 40
0
 40
1
 40
1
 40
1
 40
1
 10
3587.426581
 20
1465.811770
 30
0.0
 10
3587.426581
 20
1475.353883
 30
0.0
 10
3583.635992
 20
1484.505175
 30
0.0
 10
3576.888699
 20
1491.252468
 30
0.0
  0
SPLINE
  5
304
100
AcDbEntity
  8
0
 62
7
100
AcDbSpline
 70
8
 71
3
 72
8
 73
4
 74
0
 40
0
 40
0
 40
0
 40
0
 40
1
 40
1
 40
1
 40
1
 10
3576.888699
 20
1491.252468
 30
0.0
 10
3570.141406
 20
1497.999761
 30
0.0
 10
3560.990114
 20
1501.790350
 30
0.0
 10
3551.448001
 20
1501.790350
 30
0.0
  0
LWPOLYLINE
  5
305
100
AcDbEntity
  8
0
 62
7
100
AcDbPolyline
 90
1
 70
1
 10
3770.205429
 20
1212.206659
 30
0.0
  0
SPLINE
  5
306
100
AcDbEntity
  8
0
 62
7
100
AcDbSpline
 70
8
 71
3
 72
8
 73
4
 74
0
 40
0
 40
0
 40
0
 40
0
 40
1
 40
1
 40
1
 40
1
 10
3109.673354
 20
1558.665419
 30
0.0
 10
3095.121377
 20
1558.665419
 30
0.0
 10
3082.002281
 20
1549.899519
 30
0.0
 10
3076.433480
 20
1536.455245
 30
0.0
  0
SPLINE
  5
307
100
AcDbEntity
  8
0
 62
7
100
AcDbSpline
 70
8
 71
3
 72
8
 73
4
 74
0
 40
0
 40
0
 40
0
 40
0
 40
1
 40
1
 40
1
 40
1
 10
3076.433480
 20
1536.455245
 30
0.0
 10
3070.864680
 20
1523.010971
 30
0.0
 10
3073.942854
 20
1507.535943
 30
0.0
 10
3084.232656
 20
1497.246141
 30
0.0
  0
SPLINE
  5
308
100
AcDbEntity
  8
0
 62
7
100
AcDbSpline
 70
8
 71
3
 72
8
 73
4
 74
0
 40
0
 40
0
 40
0
 40
0
 40
1
 40
1
 40
1
 40
1
 10
3084.232656
 20
1497.246141
 30
0.0
 10
3094.522458
 20
1486.956339
 30
0.0
 10
3109.997487
 20
1483.878164
 30
0.0
 10
3123.441761
 20
1489.446965
 30
0.0
  0
SPLINE
  5
309
100
AcDbEntity
  8
0
 62
7
100
AcDbSpline
 70
8
 71
3
 72
8
 73
4
 74
0
 40
0
 40
0
 40
0
 40
0
 40
1
 40
1
 40
1
 40
1
 10
3123.441761
 20
1489.446965
 30
0.0
 10
3136.886035
 20
1495.015766
 30
0.0
 10
3145.651934
 20
1508.134861
 30
0.0
 10
3145.651934
 20
1522.686839
 30
0.0
  0
SPLINE
  5
30a
100
AcDbEntity
  8
0
 62
7
100
AcDbSpline
 70
8
 71
3
 72
8
 73
4
 74
0
 40
0
 40
0
 40
0
 40
0
 40
1
 40
1
 40
1
 40
1
 10
3145.651934
 20
1522.686839
 30
0.0
 10
3145.651934
 20
1532.228951
 30
0.0
 10
3141.861345
 20
1541.380244
 30
0.0
 10
3135.114052
 20
1548.127537
 30
0.0
  0
SPLINE
  5
30b
100
AcDbEntity
  8
0
 62
7
100
AcDbSpline
 70
8
 71
3
 72
8
 73
4
 74
0
 40
0
 40
0
 40
0
 40
0
 40
1
 40
1
 40
1
 40
1
 10
3135.114052
 20
1548.127537
 30
0.0
 10
3128.366760
 20
1554.874829
 30
0.0
 10
3119.215467
 20
1558.665419
 30
0.0
 10
3109.673354
 20
1558.665419
 30
0.0
  0
LWPOLYLINE
  5
30c
100
AcDbEntity
  8
0
 62
7
100
AcDbPolyline
 90
1
 70
1
 10
3551.448001
 20
1501.790350
 30
0.0
  0
SPLINE
  5
30d
100
AcDbEntity
  8
0
 62
7
100
AcDbSpline
 70
8
 71
3
 72
8
 73
4
 74
0
 40
0
 40
0
 40
0
 40
0
 40
1
 40
1
 40
1
 40
1
 10
3730.623775
 20
243.458862
 30
0.0
 10
3716.071798
 20
243.458862
 30
0.0
 10
3702.952702
 20
234.692962
 30
0.0
 10
3697.383902
 20
221.248688
 30
0.0
  0
SPLINE
  5
30e
100
AcDbEntity
  8
0
 62
7
100
AcDbSpline
 70
8
 71
3
 72
8
 73
4
 74
0
 40
0
 40
0
 40
0
 40
0
 40
1
 40
1
 40
1
 40
1
 10
3697.383902
 20
221.248688
 30
0.0
 10
3691.815101
 20
207.804414
 30
0.0
 10
3694.893276
 20
192.329385
 30
0.0
 10
3705.183077
 20
182.039584
 30
0.0
  0
SPLINE
  5
30f
100
AcDbEntity
  8
0
 62
7
100
AcDbSpline
 70
8
 71
3
 72
8
 73
4
 74
0
 40
0
 40
0
 40
0
 40
0
 40
1
 40
1
 40
1
 40
1
 10
3705.183077
 20
182.039584
 30
0.0
 10
3715.472879
 20
171.749782
 30
0.0
 10
3730.947908
 20
168.671607
 30
0.0
 10
3744.392182
 20
174.240408
 30
0.0
  0
SPLINE
  5
310
100
AcDbEntity
  8
0
 62
7
100
AcDbSpline
 70
8
 71
3
 72
8
 73
4
 74
0
 40
0
 40
0
 40
0
 40
0
 40
1
 40
1
 40
1
 40
1
 10
3744.392182
 20
174.240408
 30
0.0
 10
3757.836456
 20
179.809208
 30
0.0
 10
3766.602356
 20
192.928304
 30
0.0
 10
3766.602356
 20
207.480282
 30
0.0
  0
SPLINE
  5
311
100
AcDbEntity
  8
0
 62
7
100
AcDbSpline
 70
8
 71
3
 72
8
 73
4
 74
0
 40
0
 40
0
 40
0
 40
0
 40
1
 40
1
 40
1
 40
1
 10
3766.602356
 20
207.480282
 30
0.0
 10
3766.602356
 20
217.022394
 30
0.0
 10
3762.811766
 20
226.173687
 30
0.0
 10
3756.064473
 20
232.920980
 30
0.0
  0
SPLINE
  5
312
100
AcDbEntity
  8
0
 62
7
100
AcDbSpline
 70
8
 71
3
 72
8
 73
4
 74
0
 40
0
 40
0
 40
0
 40
0
 40
1
 40
1
 40
1
 40
1
 10
3756.064473
 20
232.920980
 30
0.0
 10
3749.317181
 20
239.668272
 30
0.0
 10
3740.165888
 20
243.458862
 30
0.0
 10
3730.623775
 20
243.458862
 30
0.0
  0
LWPOLYLINE
  5
313
100
AcDbEntity
  8
0
 62
7
100
AcDbPolyline
 90
1
 70
1
 10
3109.673354
 20
1558.665419
 30
0.0
  0
SPLINE
  5
314
100
AcDbEntity
  8
0
 62
7
100
AcDbSpline
 70
8
 71
3
 72
8
 73
4
 74
0
 40
0
 40
0
 40
0
 40
0
 40
1
 40
1
 40
1
 40
1
 10
3854.686860
 20
696.999499
 30
0.0
 10
3840.134882
 20
696.999499
 30
0.0
 10
3827.015786
 20
688.233599
 30
0.0
 10
3821.446986
 20
674.789325
 30
0.0
  0
SPLINE
  5
315
100
AcDbEntity
  8
0
 62
7
100
AcDbSpline
 70
8
 71
3
 72
8
 73
4
 74
0
 40
0
 40
0
 40
0
 40
0
 40
1
 40
1
 40
1
 40
1
 10
3821.446986
 20
674.789325
 30
0.0
 10
3815.878185
 20
661.345051
 30
0.0
 10
3818.956360
 20
645.870023
 30
0.0
 10
3829.246162
 20
635.580221
 30
0.0
  0
SPLINE
  5
316
100
AcDbEntity
  8
0
 62
7
100
AcDbSpline
 70
8
 71
3
 72
8
 73
4
 74
0
 40
0
 40
0
 40
0
 40
0
 40
1
 40
1
 40
1
 40
1
 10
3829.246162
 20
635.580221
 30
0.0
 10
3839.535963
 20
625.290419
 30
0.0
 10
3855.010992
 20
622.212244
 30
0.0
 10
3868.455266
 20
627.781045
 30
0.0
  0
SPLINE
  5
317
100
AcDbEntity
  8
0
 62
7
100
AcDbSpline
 70
8
 71
3
 72
8
 73
4
 74
0
 40
0
 40
0
 40
0
 40
0
 40
1
 40
1
 40
1
 40
1
 10
3868.455266
 20
627.781045
 30
0.0
 10
3881.899540
 20
633.349846
 30
0.0
 10
3890.665440
 20
646.468942
 30
0.0
 10
3890.665440
 20
661.020919
 30
0.0
  0
SPLINE
  5
318
100
AcDbEntity
  8
0
 62
7
100
AcDbSpline
 70
8
 71
3
 72
8
 73
4
 74
0
 40
0
 40
0
 40
0
 40
0
 40
1
 40
1
 40
1
 40
1
 10
3890.665440
 20
661.020919
 30
0.0
 10
3890.665440
 20
670.563032
 30
0.0
 10
3886.874850
 20
679.714324
 30
0.0
 10
3880.127558
 20
686.461617
 30
0.0
  0
SPLINE
  5
319
100
AcDbEntity
  8
0
 62
7
100
AcDbSpline
 70
8
 71
3
 72
8
 73
4
 74
0
 40
0
 40
0
 40
0
 40
0
 40
1
 40
1
 40
1
 40
1
 10
3880.127558
 20
686.461617
 30
0.0
 10
3873.380265
 20
693.208910
 30
0.0
 10
3864.228972
 20
696.999499
 30
0.0
 10
3854.686860
 20
696.999499
 30
0.0
  0
LWPOLYLINE
  5
31a
100
AcDbEntity
  8
0
 62
7
100
AcDbPolyline
 90
1
 70
1
 10
3730.623775
 20
243.458862
 30
0.0
  0
SPLINE
  5
31b
100
AcDbEntity
  8
0
 62
7
100
AcDbSpline
 70
8
 71
3
 72
8
 73
4
 74
0
 40
0
 40
0
 40
0
 40
0
 40
1
 40
1
 40
1
 40
1
 10
3907.709342
 20
322.624868
 30
0.0
 10
3893.157365
 20
322.624868
 30
0.0
 10
3880.038269
 20
313.858968
 30
0.0
 10
3874.469468
 20
300.414694
 30
0.0
  0
SPLINE
  5
31c
100
AcDbEntity
  8
0
 62
7
100
AcDbSpline
 70
8
 71
3
 72
8
 73
4
 74
0
 40
0
 40
0
 40
0
 40
0
 40
1
 40
1
 40
1
 40
1
 10
3874.469468
 20
300.414694
 30
0.0
 10
3868.900668
 20
286.970420
 30
0.0
 10
3871.978842
 20
271.495392
 30
0.0
 10
3882.268644
 20
261.205590
 30
0.0
  0
SPLINE
  5
31d
100
AcDbEntity
  8
0
 62
7
100
AcDbSpline
 70
8
 71
3
 72
8
 73
4
 74
0
 40
0
 40
0
 40
0
 40
0
 40
1
 40
1
 40
1
 40
1
 10
3882.268644
 20
261.205590
 30
0.0
 10
3892.558446
 20
250.915788
 30
0.0
 10
3908.033475
 20
247.837613
 30
0.0
 10
3921.477749
 20
253.406414
 30
0.0
  0
SPLINE
  5
31e
100
AcDbEntity
  8
0
 62
7
100
AcDbSpline
 70
8
 71
3
 72
8
 73
4
 74
0
 40
0
 40
0
 40
0
 40
0
 40
1
 40
1
 40
1
 40
1
 10
3921.477749
 20
253.406414
 30
0.0
 10
3934.922023
 20
258.975215
 30
0.0
 10
3943.687922
 20
272.094310
 30
0.0
 10
3943.687922
 20
286.646288
 30
0.0
  0
SPLINE
  5
31f
100
AcDbEntity
  8
0
 62
7
100
AcDbSpline
 70
8
 71
3
 72
8
 73
4
 74
0
 40
0
 40
0
 40
0
 40
0
 40
1
 40
1
 40
1
 40
1
 10
3943.687922
 20
286.646288
 30
0.0
 10
3943.687922
 20
296.188401
 30
0.0
 10
3939.897333
 20
305.339693
 30
0.0
 10
3933.150040
 20
312.086986
 30
0.0
  0
SPLINE
  5
320
100
AcDbEntity
  8
0
 62
7
100
AcDbSpline
 70
8
 71
3
 72
8
 73
4
 74
0
 40
0
 40
0
 40
0
 40
0
 40
1
 40
1
 40
1
 40
1
 10
3933.150040
 20
312.086986
 30
0.0
 10
3926.402748
 20
318.834278
 30
0.0
 10
3917.251455
 20
322.624868
 30
0.0
 10
3907.709342
 20
322.624868
 30
0.0
  0
LWPOLYLINE
  5
321
100
AcDbEntity
  8
0
 62
7
100
AcDbPolyline
 90
1
 70
1
 10
3854.686860
 20
696.999499
 30
0.0
  0
SPLINE
  5
322
100
AcDbEntity
  8
0
 62
7
100
AcDbSpline
 70
8
 71
3
 72
8
 73
4
 74
0
 40
0
 40
0
 40
0
 40
0
 40
1
 40
1
 40
1
 40
1
 10
3429.157624
 20
428.208379
 30
0.0
 10
3413.358301
 20
428.208379
 30
0.0
 10
3399.114681
 20
418.691096
 30
0.0
 10
3393.068542
 20
404.094425
 30
0.0
  0
SPLINE
  5
323
100
AcDbEntity
  8
0
 62
7
100
AcDbSpline
 70
8
 71
3
 72
8
 73
4
 74
0
 40
0
 40
0
 40
0
 40
0
 40
1
 40
1
 40
1
 40
1
 10
3393.068542
 20
404.094425
 30
0.0
 10
3387.022403
 20
389.497754
 30
0.0
 10
3390.364428
 20
372.696258
 30
0.0
 10
3401.536236
 20
361.524450
 30
0.0
  0
SPLINE
  5
324
100
AcDbEntity
  8
0
 62
7
100
AcDbSpline
 70
8
 71
3
 72
8
 73
4
 74
0
 40
0
 40
0
 40
0
 40
0
 40
1
 40
1
 40
1
 40
1
 10
3401.536236
 20
361.524450
 30
0.0
 10
3412.708045
 20
350.352641
 30
0.0
 10
3429.509540
 20
347.010616
 30
0.0
 10
3444.106212
 20
353.056755
 30
0.0
  0
SPLINE
  5
325
100
AcDbEntity
  8
0
 62
7
100
AcDbSpline
 70
8
 71
3
 72
8
 73
4
 74
0
 40
0
 40
0
 40
0
 40
0
 40
1
 40
1
 40
1
 40
1
 10
3444.106212
 20
353.056755
 30
0.0
 10
3458.702883
 20
359.102894
 30
0.0
 10
3468.220166
 20
373.346514
 30
0.0
 10
3468.220166
 20
389.145837
 30
0.0
  0
SPLINE
  5
326
100
AcDbEntity
  8
0
 62
7
100
AcDbSpline
 70
8
 71
3
 72
8
 73
4
 74
0
 40
0
 40
0
 40
0
 40
0
 40
1
 40
1
 40
1
 40
1
 10
3468.220166
 20
389.145837
 30
0.0
 10
3468.220166
 20
399.505868
 30
0.0
 10
3464.104660
 20
409.441578
 30
0.0
 10
3456.779012
 20
416.767225
 30
0.0
  0
SPLINE
  5
327
100
AcDbEntity
  8
0
 62
7
100
AcDbSpline
 70
8
 71
3
 72
8
 73
4
 74
0
 40
0
 40
0
 40
0
 40
0
 40
1
 40
1
 40
1
 40
1
 10
3456.779012
 20
416.767225
 30
0.0
 10
3449.453365
 20
424.092873
 30
0.0
 10
3439.517654
 20
428.208379
 30
0.0
 10
3429.157624
 20
428.208379
 30
0.0
  0
LWPOLYLINE
  5
328
100
AcDbEntity
  8
0
 62
7
100
AcDbPolyline
 90
1
 70
1
 10
3907.709342
 20
322.624868
 30
0.0
  0
SPLINE
  5
329
100
AcDbEntity
  8
0
 62
7
100
AcDbSpline
 70
8
 71
3
 72
8
 73
4
 74
0
 40
0
 40
0
 40
0
 40
0
 40
1
 40
1
 40
1
 40
1
 10
2401.450149
 20
1388.208895
 30
0.0
 10
2385.650858
 20
1388.208895
 30
0.0
 10
2371.407267
 20
1378.691632
 30
0.0
 10
2365.361140
 20
1364.094990
 30
0.0
  0
SPLINE
  5
32a
100
AcDbEntity
  8
0
 62
7
100
AcDbSpline
 70
8
 71
3
 72
8
 73
4
 74
0
 40
0
 40
0
 40
0
 40
0
 40
1
 40
1
 40
1
 40
1
 10
2365.361140
 20
1364.094990
 30
0.0
 10
2359.315013
 20
1349.498349
 30
0.0
 10
2362.657032
 20
1332.696887
 30
0.0
 10
2373.828817
 20
1321.525102
 30
0.0
  0
SPLINE
  5
32b
100
AcDbEntity
  8
0
 62
7
100
AcDbSpline
 70
8
 71
3
 72
8
 73
4
 74
0
 40
0
 40
0
 40
0
 40
0
 40
1
 40
1
 40
1
 40
1
 10
2373.828817
 20
1321.525102
 30
0.0
 10
2385.000603
 20
1310.353316
 30
0.0
 10
2401.802065
 20
1307.011297
 30
0.0
 10
2416.398706
 20
1313.057424
 30
0.0
  0
SPLINE
  5
32c
100
AcDbEntity
  8
0
 62
7
100
AcDbSpline
 70
8
 71
3
 72
8
 73
4
 74
0
 40
0
 40
0
 40
0
 40
0
 40
1
 40
1
 40
1
 40
1
 10
2416.398706
 20
1313.057424
 30
0.0
 10
2430.995348
 20
1319.103551
 30
0.0
 10
2440.512611
 20
1333.347142
 30
0.0
 10
2440.512611
 20
1349.146433
 30
0.0
  0
SPLINE
  5
32d
100
AcDbEntity
  8
0
 62
7
100
AcDbSpline
 70
8
 71
3
 72
8
 73
4
 74
0
 40
0
 40
0
 40
0
 40
0
 40
1
 40
1
 40
1
 40
1
 10
2440.512611
 20
1349.146433
 30
0.0
 10
2440.512611
 20
1359.506442
 30
0.0
 10
2436.397114
 20
1369.442132
 30
0.0
 10
2429.071481
 20
1376.767765
 30
0.0
  0
SPLINE
  5
32e
100
AcDbEntity
  8
0
 62
7
100
AcDbSpline
 70
8
 71
3
 72
8
 73
4
 74
0
 40
0
 40
0
 40
0
 40
0
 40
1
 40
1
 40
1
 40
1
 10
2429.071481
 20
1376.767765
 30
0.0
 10
2421.745848
 20
1384.093398
 30
0.0
 10
2411.810158
 20
1388.208895
 30
0.0
 10
2401.450149
 20
1388.208895
 30
0.0
  0
LWPOLYLINE
  5
32f
100
AcDbEntity
  8
0
 62
7
100
AcDbPolyline
 90
1
 70
1
 10
3429.157624
 20
428.208379
 30
0.0
  0
SPLINE
  5
330
100
AcDbEntity
  8
0
 62
7
100
AcDbSpline
 70
8
 71
3
 72
8
 73
4
 74
0
 40
0
 40
0
 40
0
 40
0
 40
1
 40
1
 40
1
 40
1
 10
2270.200931
 20
1537.207464
 30
0.0
 10
2255.648954
 20
1537.207464
 30
0.0
 10
2242.529858
 20
1528.441564
 30
0.0
 10
2236.961057
 20
1514.997290
 30
0.0
  0
SPLINE
  5
331
100
AcDbEntity
  8
0
 62
7
100
AcDbSpline
 70
8
 71
3
 72
8
 73
4
 74
0
 40
0
 40
0
 40
0
 40
0
 40
1
 40
1
 40
1
 40
1
 10
2236.961057
 20
1514.997290
 30
0.0
 10
2231.392257
 20
1501.553016
 30
0.0
 10
2234.470431
 20
1486.077987
 30
0.0
 10
2244.760233
 20
1475.788185
 30
0.0
  0
SPLINE
  5
332
100
AcDbEntity
  8
0
 62
7
100
AcDbSpline
 70
8
 71
3
 72
8
 73
4
 74
0
 40
0
 40
0
 40
0
 40
0
 40
1
 40
1
 40
1
 40
1
 10
2244.760233
 20
1475.788185
 30
0.0
 10
2255.050035
 20
1465.498384
 30
0.0
 10
2270.525064
 20
1462.420209
 30
0.0
 10
2283.969338
 20
1467.989010
 30
0.0
  0
SPLINE
  5
333
100
AcDbEntity
  8
0
 62
7
100
AcDbSpline
 70
8
 71
3
 72
8
 73
4
 74
0
 40
0
 40
0
 40
0
 40
0
 40
1
 40
1
 40
1
 40
1
 10
2283.969338
 20
1467.989010
 30
0.0
 10
2297.413612
 20
1473.557810
 30
0.0
 10
2306.179511
 20
1486.676906
 30
0.0
 10
2306.179511
 20
1501.228883
 30
0.0
  0
SPLINE
  5
334
100
AcDbEntity
  8
0
 62
7
100
AcDbSpline
 70
8
 71
3
 72
8
 73
4
 74
0
 40
0
 40
0
 40
0
 40
0
 40
1
 40
1
 40
1
 40
1
 10
2306.179511
 20
1501.228883
 30
0.0
 10
2306.179511
 20
1521.099305
 30
0.0
 10
2290.071352
 20
1537.207464
 30
0.0
 10
2270.200931
 20
1537.207464
 30
0.0
  0
LWPOLYLINE
  5
335
100
AcDbEntity
  8
0
 62
7
100
AcDbPolyline
 90
1
 70
1
 10
2401.450149
 20
1388.208895
 30
0.0
  0
SPLINE
  5
336
100
AcDbEntity
  8
0
 62
7
100
AcDbSpline
 70
8
 71
3
 72
8
 73
4
 74
0
 40
0
 40
0
 40
0
 40
0
 40
1
 40
1
 40
1
 40
1
 10
1834.784352
 20
1377.792253
 30
0.0
 10
1818.985061
 20
1377.792253
 30
0.0
 10
1804.741470
 20
1368.274990
 30
0.0
 10
1798.695343
 20
1353.678348
 30
0.0
  0
SPLINE
  5
337
100
AcDbEntity
  8
0
 62
7
100
AcDbSpline
 70
8
 71
3
 72
8
 73
4
 74
0
 40
0
 40
0
 40
0
 40
0
 40
1
 40
1
 40
1
 40
1
 10
1798.695343
 20
1353.678348
 30
0.0
 10
1792.649216
 20
1339.081706
 30
0.0
 10
1795.991234
 20
1322.280245
 30
0.0
 10
1807.163020
 20
1311.108459
 30
0.0
  0
SPLINE
  5
338
100
AcDbEntity
  8
0
 62
7
100
AcDbSpline
 70
8
 71
3
 72
8
 73
4
 74
0
 40
0
 40
0
 40
0
 40
0
 40
1
 40
1
 40
1
 40
1
 10
1807.163020
 20
1311.108459
 30
0.0
 10
1818.334806
 20
1299.936673
 30
0.0
 10
1835.136267
 20
1296.594655
 30
0.0
 10
1849.732909
 20
1302.640782
 30
0.0
  0
SPLINE
  5
339
100
AcDbEntity
  8
0
 62
7
100
AcDbSpline
 70
8
 71
3
 72
8
 73
4
 74
0
 40
0
 40
0
 40
0
 40
0
 40
1
 40
1
 40
1
 40
1
 10
1849.732909
 20
1302.640782
 30
0.0
 10
1864.329551
 20
1308.686909
 30
0.0
 10
1873.846814
 20
1322.930500
 30
0.0
 10
1873.846814
 20
1338.729791
 30
0.0
  0
SPLINE
  5
33a
100
AcDbEntity
  8
0
 62
7
100
AcDbSpline
 70
8
 71
3
 72
8
 73
4
 74
0
 40
0
 40
0
 40
0
 40
0
 40
1
 40
1
 40
1
 40
1
 10
1873.846814
 20
1338.729791
 30
0.0
 10
1873.846814
 20
1349.089800
 30
0.0
 10
1869.731316
 20
1359.025490
 30
0.0
 10
1862.405684
 20
1366.351123
 30
0.0
  0
SPLINE
  5
33b
100
AcDbEntity
  8
0
 62
7
100
AcDbSpline
 70
8
 71
3
 72
8
 73
4
 74
0
 40
0
 40
0
 40
0
 40
0
 40
1
 40
1
 40
1
 40
1
 10
1862.405684
 20
1366.351123
 30
0.0
 10
1855.080051
 20
1373.676755
 30
0.0
 10
1845.144361
 20
1377.792253
 30
0.0
 10
1834.784352
 20
1377.792253
 30
0.0
  0
LWPOLYLINE
  5
33c
100
AcDbEntity
  8
0
 62
7
100
AcDbPolyline
 90
1
 70
1
 10
2270.200931
 20
1537.207464
 30
0.0
  0
SPLINE
  5
33d
100
AcDbEntity
  8
0
 62
7
100
AcDbSpline
 70
8
 71
3
 72
8
 73
4
 74
0
 40
0
 40
0
 40
0
 40
0
 40
1
 40
1
 40
1
 40
1
 10
1649.367006
 20
1510.124723
 30
0.0
 10
1634.815029
 20
1510.124723
 30
0.0
 10
1621.695933
 20
1501.358823
 30
0.0
 10
1616.127132
 20
1487.914549
 30
0.0
  0
SPLINE
  5
33e
100
AcDbEntity
  8
0
 62
7
100
AcDbSpline
 70
8
 71
3
 72
8
 73
4
 74
0
 40
0
 40
0
 40
0
 40
0
 40
1
 40
1
 40
1
 40
1
 10
1616.127132
 20
1487.914549
 30
0.0
 10
1610.558331
 20
1474.470275
 30
0.0
 10
1613.636506
 20
1458.995246
 30
0.0
 10
1623.926308
 20
1448.705444
 30
0.0
  0
SPLINE
  5
33f
100
AcDbEntity
  8
0
 62
7
100
AcDbSpline
 70
8
 71
3
 72
8
 73
4
 74
0
 40
0
 40
0
 40
0
 40
0
 40
1
 40
1
 40
1
 40
1
 10
1623.926308
 20
1448.705444
 30
0.0
 10
1634.216110
 20
1438.415642
 30
0.0
 10
1649.691138
 20
1435.337468
 30
0.0
 10
1663.135412
 20
1440.906269
 30
0.0
  0
SPLINE
  5
340
100
AcDbEntity
  8
0
 62
7
100
AcDbSpline
 70
8
 71
3
 72
8
 73
4
 74
0
 40
0
 40
0
 40
0
 40
0
 40
1
 40
1
 40
1
 40
1
 10
1663.135412
 20
1440.906269
 30
0.0
 10
1676.579686
 20
1446.475069
 30
0.0
 10
1685.345586
 20
1459.594165
 30
0.0
 10
1685.345586
 20
1474.146142
 30
0.0
  0
SPLINE
  5
341
100
AcDbEntity
  8
0
 62
7
100
AcDbSpline
 70
8
 71
3
 72
8
 73
4
 74
0
 40
0
 40
0
 40
0
 40
0
 40
1
 40
1
 40
1
 40
1
 10
1685.345586
 20
1474.146142
 30
0.0
 10
1685.345586
 20
1494.016564
 30
0.0
 10
1669.237427
 20
1510.124723
 30
0.0
 10
1649.367006
 20
1510.124723
 30
0.0
  0
LWPOLYLINE
  5
342
100
AcDbEntity
  8
0
 62
7
100
AcDbPolyline
 90
1
 70
1
 10
1834.784352
 20
1377.792253
 30
0.0
  0
SPLINE
  5
343
100
AcDbEntity
  8
0
 62
7
100
AcDbSpline
 70
8
 71
3
 72
8
 73
4
 74
0
 40
0
 40
0
 40
0
 40
0
 40
1
 40
1
 40
1
 40
1
 10
1155.617547
 20
1409.042180
 30
0.0
 10
1139.818256
 20
1409.042180
 30
0.0
 10
1125.574665
 20
1399.524917
 30
0.0
 10
1119.528538
 20
1384.928275
 30
0.0
  0
SPLINE
  5
344
100
AcDbEntity
  8
0
 62
7
100
AcDbSpline
 70
8
 71
3
 72
8
 73
4
 74
0
 40
0
 40
0
 40
0
 40
0
 40
1
 40
1
 40
1
 40
1
 10
1119.528538
 20
1384.928275
 30
0.0
 10
1113.482411
 20
1370.331634
 30
0.0
 10
1116.824429
 20
1353.530172
 30
0.0
 10
1127.996215
 20
1342.358386
 30
0.0
  0
SPLINE
  5
345
100
AcDbEntity
  8
0
 62
7
100
AcDbSpline
 70
8
 71
3
 72
8
 73
4
 74
0
 40
0
 40
0
 40
0
 40
0
 40
1
 40
1
 40
1
 40
1
 10
1127.996215
 20
1342.358386
 30
0.0
 10
1139.168001
 20
1331.186601
 30
0.0
 10
1155.969462
 20
1327.844582
 30
0.0
 10
1170.566104
 20
1333.890709
 30
0.0
  0
SPLINE
  5
346
100
AcDbEntity
  8
0
 62
7
100
AcDbSpline
 70
8
 71
3
 72
8
 73
4
 74
0
 40
0
 40
0
 40
0
 40
0
 40
1
 40
1
 40
1
 40
1
 10
1170.566104
 20
1333.890709
 30
0.0
 10
1185.162746
 20
1339.936836
 30
0.0
 10
1194.680009
 20
1354.180427
 30
0.0
 10
1194.680009
 20
1369.979718
 30
0.0
  0
SPLINE
  5
347
100
AcDbEntity
  8
0
 62
7
100
AcDbSpline
 70
8
 71
3
 72
8
 73
4
 74
0
 40
0
 40
0
 40
0
 40
0
 40
1
 40
1
 40
1
 40
1
 10
1194.680009
 20
1369.979718
 30
0.0
 10
1194.680009
 20
1380.339727
 30
0.0
 10
1190.564511
 20
1390.275417
 30
0.0
 10
1183.238879
 20
1397.601050
 30
0.0
  0
SPLINE
  5
348
100
AcDbEntity
  8
0
 62
7
100
AcDbSpline
 70
8
 71
3
 72
8
 73
4
 74
0
 40
0
 40
0
 40
0
 40
0
 40
1
 40
1
 40
1
 40
1
 10
1183.238879
 20
1397.601050
 30
0.0
 10
1175.913246
 20
1404.926683
 30
0.0
 10
1165.977556
 20
1409.042180
 30
0.0
 10
1155.617547
 20
1409.042180
 30
0.0
  0
LWPOLYLINE
  5
349
100
AcDbEntity
  8
0
 62
7
100
AcDbPolyline
 90
1
 70
1
 10
1649.367006
 20
1510.124723
 30
0.0
  0
SPLINE
  5
34a
100
AcDbEntity
  8
0
 62
7
100
AcDbSpline
 70
8
 71
3
 72
8
 73
4
 74
0
 40
0
 40
0
 40
0
 40
0
 40
1
 40
1
 40
1
 40
1
 10
943.117512
 20
1510.124723
 30
0.0
 10
928.565535
 20
1510.124723
 30
0.0
 10
915.446439
 20
1501.358823
 30
0.0
 10
909.877639
 20
1487.914549
 30
0.0
  0
SPLINE
  5
34b
100
AcDbEntity
  8
0
 62
7
100
AcDbSpline
 70
8
 71
3
 72
8
 73
4
 74
0
 40
0
 40
0
 40
0
 40
0
 40
1
 40
1
 40
1
 40
1
 10
909.877639
 20
1487.914549
 30
0.0
 10
904.308838
 20
1474.470275
 30
0.0
 10
907.387013
 20
1458.995246
 30
0.0
 10
917.676814
 20
1448.705444
 30
0.0
  0
SPLINE
  5
34c
100
AcDbEntity
  8
0
 62
7
100
AcDbSpline
 70
8
 71
3
 72
8
 73
4
 74
0
 40
0
 40
0
 40
0
 40
0
 40
1
 40
1
 40
1
 40
1
 10
917.676814
 20
1448.705444
 30
0.0
 10
927.966616
 20
1438.415642
 30
0.0
 10
943.441645
 20
1435.337468
 30
0.0
 10
956.885919
 20
1440.906269
 30
0.0
  0
SPLINE
  5
34d
100
AcDbEntity
  8
0
 62
7
100
AcDbSpline
 70
8
 71
3
 72
8
 73
4
 74
0
 40
0
 40
0
 40
0
 40
0
 40
1
 40
1
 40
1
 40
1
 10
956.885919
 20
1440.906269
 30
0.0
 10
970.330193
 20
1446.475069
 30
0.0
 10
979.096093
 20
1459.594165
 30
0.0
 10
979.096093
 20
1474.146142
 30
0.0
  0
SPLINE
  5
34e
100
AcDbEntity
  8
0
 62
7
100
AcDbSpline
 70
8
 71
3
 72
8
 73
4
 74
0
 40
0
 40
0
 40
0
 40
0
 40
1
 40
1
 40
1
 40
1
 10
979.096093
 20
1474.146142
 30
0.0
 10
979.096093
 20
1483.688255
 30
0.0
 10
975.305503
 20
1492.839548
 30
0.0
 10
968.558211
 20
1499.586840
 30
0.0
  0
SPLINE
  5
34f
100
AcDbEntity
  8
0
 62
7
100
AcDbSpline
 70
8
 71
3
 72
8
 73
4
 74
0
 40
0
 40
0
 40
0
 40
0
 40
1
 40
1
 40
1
 40
1
 10
968.558211
 20
1499.586840
 30
0.0
 10
961.810918
 20
1506.334133
 30
0.0
 10
952.659625
 20
1510.124723
 30
0.0
 10
943.117512
 20
1510.124723
 30
0.0
  0
LWPOLYLINE
  5
350
100
AcDbEntity
  8
0
 62
7
100
AcDbPolyline
 90
1
 70
1
 10
1155.617547
 20
1409.042180
 30
0.0
  0
SPLINE
  5
351
100
AcDbEntity
  8
0
 62
7
100
AcDbSpline
 70
8
 71
3
 72
8
 73
4
 74
0
 40
0
 40
0
 40
0
 40
0
 40
1
 40
1
 40
1
 40
1
 10
2552.492866
 20
1535.905701
 30
0.0
 10
2538.045768
 20
1535.905701
 30
0.0
 10
2525.021224
 20
1527.202979
 30
0.0
 10
2519.492559
 20
1513.855600
 30
0.0
  0
SPLINE
  5
352
100
AcDbEntity
  8
0
 62
7
100
AcDbSpline
 70
8
 71
3
 72
8
 73
4
 74
0
 40
0
 40
0
 40
0
 40
0
 40
1
 40
1
 40
1
 40
1
 10
2519.492559
 20
1513.855600
 30
0.0
 10
2513.963894
 20
1500.508222
 30
0.0
 10
2517.019883
 20
1485.144725
 30
0.0
 10
2527.235525
 20
1474.929084
 30
0.0
  0
SPLINE
  5
353
100
AcDbEntity
  8
0
 62
7
100
AcDbSpline
 70
8
 71
3
 72
8
 73
4
 74
0
 40
0
 40
0
 40
0
 40
0
 40
1
 40
1
 40
1
 40
1
 10
2527.235525
 20
1474.929084
 30
0.0
 10
2537.451166
 20
1464.713442
 30
0.0
 10
2552.814663
 20
1461.657453
 30
0.0
 10
2566.162041
 20
1467.186118
 30
0.0
  0
SPLINE
  5
354
100
AcDbEntity
  8
0
 62
7
100
AcDbSpline
 70
8
 71
3
 72
8
 73
4
 74
0
 40
0
 40
0
 40
0
 40
0
 40
1
 40
1
 40
1
 40
1
 10
2566.162041
 20
1467.186118
 30
0.0
 10
2579.509420
 20
1472.714783
 30
0.0
 10
2588.212142
 20
1485.739327
 30
0.0
 10
2588.212142
 20
1500.186425
 30
0.0
  0
SPLINE
  5
355
100
AcDbEntity
  8
0
 62
7
100
AcDbSpline
 70
8
 71
3
 72
8
 73
4
 74
0
 40
0
 40
0
 40
0
 40
0
 40
1
 40
1
 40
1
 40
1
 10
2588.212142
 20
1500.186425
 30
0.0
 10
2588.212142
 20
1509.659766
 30
0.0
 10
2584.448872
 20
1518.745104
 30
0.0
 10
2577.750208
 20
1525.443767
 30
0.0
  0
SPLINE
  5
356
100
AcDbEntity
  8
0
 62
7
100
AcDbSpline
 70
8
 71
3
 72
8
 73
4
 74
0
 40
0
 40
0
 40
0
 40
0
 40
1
 40
1
 40
1
 40
1
 10
2577.750208
 20
1525.443767
 30
0.0
 10
2571.051545
 20
1532.142431
 30
0.0
 10
2561.966207
 20
1535.905701
 30
0.0
 10
2552.492866
 20
1535.905701
 30
0.0
  0
LWPOLYLINE
  5
357
100
AcDbEntity
  8
0
 62
7
100
AcDbPolyline
 90
1
 70
1
 10
943.117512
 20
1510.124723
 30
0.0
  0
SPLINE
  5
358
100
AcDbEntity
  8
0
 62
7
100
AcDbSpline
 70
8
 71
3
 72
8
 73
4
 74
0
 40
0
 40
0
 40
0
 40
0
 40
1
 40
1
 40
1
 40
1
 10
2008.742466
 20
1500.488587
 30
0.0
 10
1994.295367
 20
1500.488587
 30
0.0
 10
1981.270823
 20
1491.785865
 30
0.0
 10
1975.742158
 20
1478.438487
 30
0.0
  0
SPLINE
  5
359
100
AcDbEntity
  8
0
 62
7
100
AcDbSpline
 70
8
 71
3
 72
8
 73
4
 74
0
 40
0
 40
0
 40
0
 40
0
 40
1
 40
1
 40
1
 40
1
 10
1975.742158
 20
1478.438487
 30
0.0
 10
1970.213493
 20
1465.091109
 30
0.0
 10
1973.269483
 20
1449.727611
 30
0.0
 10
1983.485124
 20
1439.511970
 30
0.0
  0
SPLINE
  5
35a
100
AcDbEntity
  8
0
 62
7
100
AcDbSpline
 70
8
 71
3
 72
8
 73
4
 74
0
 40
0
 40
0
 40
0
 40
0
 40
1
 40
1
 40
1
 40
1
 10
1983.485124
 20
1439.511970
 30
0.0
 10
1993.700765
 20
1429.296329
 30
0.0
 10
2009.064262
 20
1426.240339
 30
0.0
 10
2022.411641
 20
1431.769005
 30
0.0
  0
SPLINE
  5
35b
100
AcDbEntity
  8
0
 62
7
100
AcDbSpline
 70
8
 71
3
 72
8
 73
4
 74
0
 40
0
 40
0
 40
0
 40
0
 40
1
 40
1
 40
1
 40
1
 10
2022.411641
 20
1431.769005
 30
0.0
 10
2035.759019
 20
1437.297670
 30
0.0
 10
2044.461741
 20
1450.322214
 30
0.0
 10
2044.461741
 20
1464.769312
 30
0.0
  0
SPLINE
  5
35c
100
AcDbEntity
  8
0
 62
7
100
AcDbSpline
 70
8
 71
3
 72
8
 73
4
 74
0
 40
0
 40
0
 40
0
 40
0
 40
1
 40
1
 40
1
 40
1
 10
2044.461741
 20
1464.769312
 30
0.0
 10
2044.461741
 20
1474.242653
 30
0.0
 10
2040.698471
 20
1483.327990
 30
0.0
 10
2033.999807
 20
1490.026654
 30
0.0
  0
SPLINE
  5
35d
100
AcDbEntity
  8
0
 62
7
100
AcDbSpline
 70
8
 71
3
 72
8
 73
4
 74
0
 40
0
 40
0
 40
0
 40
0
 40
1
 40
1
 40
1
 40
1
 10
2033.999807
 20
1490.026654
 30
0.0
 10
2027.301144
 20
1496.725317
 30
0.0
 10
2018.215806
 20
1500.488587
 30
0.0
 10
2008.742466
 20
1500.488587
 30
0.0
  0
LWPOLYLINE
  5
35e
100
AcDbEntity
  8
0
 62
7
100
AcDbPolyline
 90
1
 70
1
 10
2552.492866
 20
1535.905701
 30
0.0
  0
SPLINE
  5
35f
100
AcDbEntity
  8
0
 62
7
100
AcDbSpline
 70
8
 71
3
 72
8
 73
4
 74
0
 40
0
 40
0
 40
0
 40
0
 40
1
 40
1
 40
1
 40
1
 10
1358.740804
 20
1515.072416
 30
0.0
 10
1344.293706
 20
1515.072416
 30
0.0
 10
1331.269162
 20
1506.369694
 30
0.0
 10
1325.740497
 20
1493.022316
 30
0.0
  0
SPLINE
  5
360
100
AcDbEntity
  8
0
 62
7
100
AcDbSpline
 70
8
 71
3
 72
8
 73
4
 74
0
 40
0
 40
0
 40
0
 40
0
 40
1
 40
1
 40
1
 40
1
 10
1325.740497
 20
1493.022316
 30
0.0
 10
1320.211831
 20
1479.674937
 30
0.0
 10
1323.267821
 20
1464.311440
 30
0.0
 10
1333.483462
 20
1454.095799
 30
0.0
  0
SPLINE
  5
361
100
AcDbEntity
  8
0
 62
7
100
AcDbSpline
 70
8
 71
3
 72
8
 73
4
 74
0
 40
0
 40
0
 40
0
 40
0
 40
1
 40
1
 40
1
 40
1
 10
1333.483462
 20
1454.095799
 30
0.0
 10
1343.699103
 20
1443.880158
 30
0.0
 10
1359.062600
 20
1440.824168
 30
0.0
 10
1372.409979
 20
1446.352833
 30
0.0
  0
SPLINE
  5
362
100
AcDbEntity
  8
0
 62
7
100
AcDbSpline
 70
8
 71
3
 72
8
 73
4
 74
0
 40
0
 40
0
 40
0
 40
0
 40
1
 40
1
 40
1
 40
1
 10
1372.409979
 20
1446.352833
 30
0.0
 10
1385.757357
 20
1451.881498
 30
0.0
 10
1394.460079
 20
1464.906042
 30
0.0
 10
1394.460079
 20
1479.353141
 30
0.0
  0
SPLINE
  5
363
100
AcDbEntity
  8
0
 62
7
100
AcDbSpline
 70
8
 71
3
 72
8
 73
4
 74
0
 40
0
 40
0
 40
0
 40
0
 40
1
 40
1
 40
1
 40
1
 10
1394.460079
 20
1479.353141
 30
0.0
 10
1394.460079
 20
1488.826481
 30
0.0
 10
1390.696809
 20
1497.911819
 30
0.0
 10
1383.998146
 20
1504.610482
 30
0.0
  0
SPLINE
  5
364
100
AcDbEntity
  8
0
 62
7
100
AcDbSpline
 70
8
 71
3
 72
8
 73
4
 74
0
 40
0
 40
0
 40
0
 40
0
 40
1
 40
1
 40
1
 40
1
 10
1383.998146
 20
1504.610482
 30
0.0
 10
1377.299482
 20
1511.309146
 30
0.0
 10
1368.214145
 20
1515.072416
 30
0.0
 10
1358.740804
 20
1515.072416
 30
0.0
  0
LWPOLYLINE
  5
365
100
AcDbEntity
  8
0
 62
7
100
AcDbPolyline
 90
1
 70
1
 10
2008.742466
 20
1500.488587
 30
0.0
  0
SPLINE
  5
366
100
AcDbEntity
  8
0
 62
7
100
AcDbSpline
 70
8
 71
3
 72
8
 73
4
 74
0
 40
0
 40
0
 40
0
 40
0
 40
1
 40
1
 40
1
 40
1
 10
2544.158494
 20
1050.490694
 30
0.0
 10
2524.431283
 20
1050.490694
 30
0.0
 10
2508.439219
 20
1034.498629
 30
0.0
 10
2508.439219
 20
1014.771418
 30
0.0
  0
SPLINE
  5
367
100
AcDbEntity
  8
0
 62
7
100
AcDbSpline
 70
8
 71
3
 72
8
 73
4
 74
0
 40
0
 40
0
 40
0
 40
0
 40
1
 40
1
 40
1
 40
1
 10
2508.439219
 20
1014.771418
 30
0.0
 10
2508.439219
 20
995.044207
 30
0.0
 10
2524.431283
 20
979.052143
 30
0.0
 10
2544.158494
 20
979.052143
 30
0.0
  0
SPLINE
  5
368
100
AcDbEntity
  8
0
 62
7
100
AcDbSpline
 70
8
 71
3
 72
8
 73
4
 74
0
 40
0
 40
0
 40
0
 40
0
 40
1
 40
1
 40
1
 40
1
 10
2544.158494
 20
979.052143
 30
0.0
 10
2563.885705
 20
979.052143
 30
0.0
 10
2579.877770
 20
995.044207
 30
0.0
 10
2579.877770
 20
1014.771418
 30
0.0
  0
SPLINE
  5
369
100
AcDbEntity
  8
0
 62
7
100
AcDbSpline
 70
8
 71
3
 72
8
 73
4
 74
0
 40
0
 40
0
 40
0
 40
0
 40
1
 40
1
 40
1
 40
1
 10
2579.877770
 20
1014.771418
 30
0.0
 10
2579.877770
 20
1024.244759
 30
0.0
 10
2576.114500
 20
1033.330096
 30
0.0
 10
2569.415836
 20
1040.028760
 30
0.0
  0
SPLINE
  5
36a
100
AcDbEntity
  8
0
 62
7
100
AcDbSpline
 70
8
 71
3
 72
8
 73
4
 74
0
 40
0
 40
0
 40
0
 40
0
 40
1
 40
1
 40
1
 40
1
 10
2569.415836
 20
1040.028760
 30
0.0
 10
2562.717173
 20
1046.727424
 30
0.0
 10
2553.631835
 20
1050.490694
 30
0.0
 10
2544.158494
 20
1050.490694
 30
0.0
  0
LWPOLYLINE
  5
36b
100
AcDbEntity
  8
0
 62
7
100
AcDbPolyline
 90
1
 70
1
 10
1358.740804
 20
1515.072416
 30
0.0
  0
SPLINE
  5
36c
100
AcDbEntity
  8
0
 62
7
100
AcDbSpline
 70
8
 71
3
 72
8
 73
4
 74
0
 40
0
 40
0
 40
0
 40
0
 40
1
 40
1
 40
1
 40
1
 10
2400.407744
 20
167.155766
 30
0.0
 10
2385.960646
 20
167.155766
 30
0.0
 10
2372.936102
 20
158.453044
 30
0.0
 10
2367.407437
 20
145.105665
 30
0.0
  0
SPLINE
  5
36d
100
AcDbEntity
  8
0
 62
7
100
AcDbSpline
 70
8
 71
3
 72
8
 73
4
 74
0
 40
0
 40
0
 40
0
 40
0
 40
1
 40
1
 40
1
 40
1
 10
2367.407437
 20
145.105665
 30
0.0
 10
2361.878772
 20
131.758287
 30
0.0
 10
2364.934761
 20
116.394790
 30
0.0
 10
2375.150402
 20
106.179148
 30
0.0
  0
SPLINE
  5
36e
100
AcDbEntity
  8
0
 62
7
100
AcDbSpline
 70
8
 71
3
 72
8
 73
4
 74
0
 40
0
 40
0
 40
0
 40
0
 40
1
 40
1
 40
1
 40
1
 10
2375.150402
 20
106.179148
 30
0.0
 10
2385.366043
 20
95.963507
 30
0.0
 10
2400.729541
 20
92.907518
 30
0.0
 10
2414.076919
 20
98.436183
 30
0.0
  0
SPLINE
  5
36f
100
AcDbEntity
  8
0
 62
7
100
AcDbSpline
 70
8
 71
3
 72
8
 73
4
 74
0
 40
0
 40
0
 40
0
 40
0
 40
1
 40
1
 40
1
 40
1
 10
2414.076919
 20
98.436183
 30
0.0
 10
2427.424297
 20
103.964848
 30
0.0
 10
2436.127020
 20
116.989392
 30
0.0
 10
2436.127020
 20
131.436490
 30
0.0
  0
SPLINE
  5
370
100
AcDbEntity
  8
0
 62
7
100
AcDbSpline
 70
8
 71
3
 72
8
 73
4
 74
0
 40
0
 40
0
 40
0
 40
0
 40
1
 40
1
 40
1
 40
1
 10
2436.127020
 20
131.436490
 30
0.0
 10
2436.127020
 20
140.909831
 30
0.0
 10
2432.363750
 20
149.995168
 30
0.0
 10
2425.665086
 20
156.693832
 30
0.0
  0
SPLINE
  5
371
100
AcDbEntity
  8
0
 62
7
100
AcDbSpline
 70
8
 71
3
 72
8
 73
4
 74
0
 40
0
 40
0
 40
0
 40
0
 40
1
 40
1
 40
1
 40
1
 10
2425.665086
 20
156.693832
 30
0.0
 10
2418.966422
 20
163.392496
 30
0.0
 10
2409.881085
 20
167.155766
 30
0.0
 10
2400.407744
 20
167.155766
 30
0.0
  0
LWPOLYLINE
  5
372
100
AcDbEntity
  8
0
 62
7
100
AcDbPolyline
 90
1
 70
1
 10
2544.158494
 20
1050.490694
 30
0.0
  0
SPLINE
  5
373
100
AcDbEntity
  8
0
 62
7
100
AcDbSpline
 70
8
 71
3
 72
8
 73
4
 74
0
 40
0
 40
0
 40
0
 40
0
 40
1
 40
1
 40
1
 40
1
 10
1804.574105
 20
162.991146
 30
0.0
 10
1790.127006
 20
162.991146
 30
0.0
 10
1777.102462
 20
154.288424
 30
0.0
 10
1771.573797
 20
140.941045
 30
0.0
  0
SPLINE
  5
374
100
AcDbEntity
  8
0
 62
7
100
AcDbSpline
 70
8
 71
3
 72
8
 73
4
 74
0
 40
0
 40
0
 40
0
 40
0
 40
1
 40
1
 40
1
 40
1
 10
1771.573797
 20
140.941045
 30
0.0
 10
1766.045132
 20
127.593667
 30
0.0
 10
1769.101122
 20
112.230170
 30
0.0
 10
1779.316763
 20
102.014529
 30
0.0
  0
SPLINE
  5
375
100
AcDbEntity
  8
0
 62
7
100
AcDbSpline
 70
8
 71
3
 72
8
 73
4
 74
0
 40
0
 40
0
 40
0
 40
0
 40
1
 40
1
 40
1
 40
1
 10
1779.316763
 20
102.014529
 30
0.0
 10
1789.532404
 20
91.798887
 30
0.0
 10
1804.895901
 20
88.742898
 30
0.0
 10
1818.243280
 20
94.271563
 30
0.0
  0
SPLINE
  5
376
100
AcDbEntity
  8
0
 62
7
100
AcDbSpline
 70
8
 71
3
 72
8
 73
4
 74
0
 40
0
 40
0
 40
0
 40
0
 40
1
 40
1
 40
1
 40
1
 10
1818.243280
 20
94.271563
 30
0.0
 10
1831.590658
 20
99.800228
 30
0.0
 10
1840.293380
 20
112.824772
 30
0.0
 10
1840.293380
 20
127.271871
 30
0.0
  0
SPLINE
  5
377
100
AcDbEntity
  8
0
 62
7
100
AcDbSpline
 70
8
 71
3
 72
8
 73
4
 74
0
 40
0
 40
0
 40
0
 40
0
 40
1
 40
1
 40
1
 40
1
 10
1840.293380
 20
127.271871
 30
0.0
 10
1840.293380
 20
136.745211
 30
0.0
 10
1836.530110
 20
145.830549
 30
0.0
 10
1829.831447
 20
152.529212
 30
0.0
  0
SPLINE
  5
378
100
AcDbEntity
  8
0
 62
7
100
AcDbSpline
 70
8
 71
3
 72
8
 73
4
 74
0
 40
0
 40
0
 40
0
 40
0
 40
1
 40
1
 40
1
 40
1
 10
1829.831447
 20
152.529212
 30
0.0
 10
1823.132783
 20
159.227876
 30
0.0
 10
1814.047446
 20
162.991146
 30
0.0
 10
1804.574105
 20
162.991146
 30
0.0
  0
LWPOLYLINE
  5
379
100
AcDbEntity
  8
0
 62
7
100
AcDbPolyline
 90
1
 70
1
 10
2400.407744
 20
167.155766
 30
0.0
  0
SPLINE
  5
37a
100
AcDbEntity
  8
0
 62
7
100
AcDbSpline
 70
8
 71
3
 72
8
 73
4
 74
0
 40
0
 40
0
 40
0
 40
0
 40
1
 40
1
 40
1
 40
1
 10
1460.824984
 20
1129.656647
 30
0.0
 10
1446.377886
 20
1129.656647
 30
0.0
 10
1433.353342
 20
1120.953925
 30
0.0
 10
1427.824677
 20
1107.606546
 30
0.0
  0
SPLINE
  5
37b
100
AcDbEntity
  8
0
 62
7
100
AcDbSpline
 70
8
 71
3
 72
8
 73
4
 74
0
 40
0
 40
0
 40
0
 40
0
 40
1
 40
1
 40
1
 40
1
 10
1427.824677
 20
1107.606546
 30
0.0
 10
1422.296012
 20
1094.259168
 30
0.0
 10
1425.352001
 20
1078.895671
 30
0.0
 10
1435.567643
 20
1068.680029
 30
0.0
  0
SPLINE
  5
37c
100
AcDbEntity
  8
0
 62
7
100
AcDbSpline
 70
8
 71
3
 72
8
 73
4
 74
0
 40
0
 40
0
 40
0
 40
0
 40
1
 40
1
 40
1
 40
1
 10
1435.567643
 20
1068.680029
 30
0.0
 10
1445.783284
 20
1058.464388
 30
0.0
 10
1461.146781
 20
1055.408399
 30
0.0
 10
1474.494159
 20
1060.937064
 30
0.0
  0
SPLINE
  5
37d
100
AcDbEntity
  8
0
 62
7
100
AcDbSpline
 70
8
 71
3
 72
8
 73
4
 74
0
 40
0
 40
0
 40
0
 40
0
 40
1
 40
1
 40
1
 40
1
 10
1474.494159
 20
1060.937064
 30
0.0
 10
1487.841538
 20
1066.465729
 30
0.0
 10
1496.544260
 20
1079.490273
 30
0.0
 10
1496.544260
 20
1093.937371
 30
0.0
  0
SPLINE
  5
37e
100
AcDbEntity
  8
0
 62
7
100
AcDbSpline
 70
8
 71
3
 72
8
 73
4
 74
0
 40
0
 40
0
 40
0
 40
0
 40
1
 40
1
 40
1
 40
1
 10
1496.544260
 20
1093.937371
 30
0.0
 10
1496.544260
 20
1113.664582
 30
0.0
 10
1480.552195
 20
1129.656647
 30
0.0
 10
1460.824984
 20
1129.656647
 30
0.0
  0
LWPOLYLINE
  5
37f
100
AcDbEntity
  8
0
 62
7
100
AcDbPolyline
 90
1
 70
1
 10
1804.574105
 20
162.991146
 30
0.0
  0
SPLINE
  5
380
100
AcDbEntity
  8
0
 62
7
100
AcDbSpline
 70
8
 71
3
 72
8
 73
4
 74
0
 40
0
 40
0
 40
0
 40
0
 40
1
 40
1
 40
1
 40
1
 10
448.325728
 20
1058.822420
 30
0.0
 10
433.878630
 20
1058.822420
 30
0.0
 10
420.854086
 20
1050.119698
 30
0.0
 10
415.325420
 20
1036.772319
 30
0.0
  0
SPLINE
  5
381
100
AcDbEntity
  8
0
 62
7
100
AcDbSpline
 70
8
 71
3
 72
8
 73
4
 74
0
 40
0
 40
0
 40
0
 40
0
 40
1
 40
1
 40
1
 40
1
 10
415.325420
 20
1036.772319
 30
0.0
 10
409.796755
 20
1023.424941
 30
0.0
 10
412.852745
 20
1008.061444
 30
0.0
 10
423.068386
 20
997.845803
 30
0.0
  0
SPLINE
  5
382
100
AcDbEntity
  8
0
 62
7
100
AcDbSpline
 70
8
 71
3
 72
8
 73
4
 74
0
 40
0
 40
0
 40
0
 40
0
 40
1
 40
1
 40
1
 40
1
 10
423.068386
 20
997.845803
 30
0.0
 10
433.284027
 20
987.630162
 30
0.0
 10
448.647524
 20
984.574172
 30
0.0
 10
461.994903
 20
990.102837
 30
0.0
  0
SPLINE
  5
383
100
AcDbEntity
  8
0
 62
7
100
AcDbSpline
 70
8
 71
3
 72
8
 73
4
 74
0
 40
0
 40
0
 40
0
 40
0
 40
1
 40
1
 40
1
 40
1
 10
461.994903
 20
990.102837
 30
0.0
 10
475.342281
 20
995.631502
 30
0.0
 10
484.045003
 20
1008.656046
 30
0.0
 10
484.045003
 20
1023.103145
 30
0.0
  0
SPLINE
  5
384
100
AcDbEntity
  8
0
 62
7
100
AcDbSpline
 70
8
 71
3
 72
8
 73
4
 74
0
 40
0
 40
0
 40
0
 40
0
 40
1
 40
1
 40
1
 40
1
 10
484.045003
 20
1023.103145
 30
0.0
 10
484.045003
 20
1032.576485
 30
0.0
 10
480.281733
 20
1041.661823
 30
0.0
 10
473.583070
 20
1048.360486
 30
0.0
  0
SPLINE
  5
385
100
AcDbEntity
  8
0
 62
7
100
AcDbSpline
 70
8
 71
3
 72
8
 73
4
 74
0
 40
0
 40
0
 40
0
 40
0
 40
1
 40
1
 40
1
 40
1
 10
473.583070
 20
1048.360486
 30
0.0
 10
466.884406
 20
1055.059150
 30
0.0
 10
457.799069
 20
1058.822420
 30
0.0
 10
448.325728
 20
1058.822420
 30
0.0
  0
LWPOLYLINE
  5
386
100
AcDbEntity
  8
0
 62
7
100
AcDbPolyline
 90
1
 70
1
 10
1460.824984
 20
1129.656647
 30
0.0
  0
SPLINE
  5
387
100
AcDbEntity
  8
0
 62
7
100
AcDbSpline
 70
8
 71
3
 72
8
 73
4
 74
0
 40
0
 40
0
 40
0
 40
0
 40
1
 40
1
 40
1
 40
1
 10
2204.576454
 20
1344.238978
 30
0.0
 10
2190.129356
 20
1344.238978
 30
0.0
 10
2177.104812
 20
1335.536256
 30
0.0
 10
2171.576147
 20
1322.188877
 30
0.0
  0
SPLINE
  5
388
100
AcDbEntity
  8
0
 62
7
100
AcDbSpline
 70
8
 71
3
 72
8
 73
4
 74
0
 40
0
 40
0
 40
0
 40
0
 40
1
 40
1
 40
1
 40
1
 10
2171.576147
 20
1322.188877
 30
0.0
 10
2166.047482
 20
1308.841499
 30
0.0
 10
2169.103471
 20
1293.478002
 30
0.0
 10
2179.319112
 20
1283.262361
 30
0.0
  0
SPLINE
  5
389
100
AcDbEntity
  8
0
 62
7
100
AcDbSpline
 70
8
 71
3
 72
8
 73
4
 74
0
 40
0
 40
0
 40
0
 40
0
 40
1
 40
1
 40
1
 40
1
 10
2179.319112
 20
1283.262361
 30
0.0
 10
2189.534754
 20
1273.046719
 30
0.0
 10
2204.898251
 20
1269.990730
 30
0.0
 10
2218.245629
 20
1275.519395
 30
0.0
  0
SPLINE
  5
38a
100
AcDbEntity
  8
0
 62
7
100
AcDbSpline
 70
8
 71
3
 72
8
 73
4
 74
0
 40
0
 40
0
 40
0
 40
0
 40
1
 40
1
 40
1
 40
1
 10
2218.245629
 20
1275.519395
 30
0.0
 10
2231.593008
 20
1281.048060
 30
0.0
 10
2240.295730
 20
1294.072604
 30
0.0
 10
2240.295730
 20
1308.519702
 30
0.0
  0
SPLINE
  5
38b
100
AcDbEntity
  8
0
 62
7
100
AcDbSpline
 70
8
 71
3
 72
8
 73
4
 74
0
 40
0
 40
0
 40
0
 40
0
 40
1
 40
1
 40
1
 40
1
 10
2240.295730
 20
1308.519702
 30
0.0
 10
2240.295730
 20
1317.993043
 30
0.0
 10
2236.532460
 20
1327.078381
 30
0.0
 10
2229.833796
 20
1333.777044
 30
0.0
  0
SPLINE
  5
38c
100
AcDbEntity
  8
0
 62
7
100
AcDbSpline
 70
8
 71
3
 72
8
 73
4
 74
0
 40
0
 40
0
 40
0
 40
0
 40
1
 40
1
 40
1
 40
1
 10
2229.833796
 20
1333.777044
 30
0.0
 10
2223.135133
 20
1340.475708
 30
0.0
 10
2214.049795
 20
1344.238978
 30
0.0
 10
2204.576454
 20
1344.238978
 30
0.0
  0
LWPOLYLINE
  5
38d
100
AcDbEntity
  8
0
 62
7
100
AcDbPolyline
 90
1
 70
1
 10
448.325728
 20
1058.822420
 30
0.0
  0
SPLINE
  5
38e
100
AcDbEntity
  8
0
 62
7
100
AcDbSpline
 70
8
 71
3
 72
8
 73
4
 74
0
 40
0
 40
0
 40
0
 40
0
 40
1
 40
1
 40
1
 40
1
 10
1533.741428
 20
1310.906754
 30
0.0
 10
1519.294330
 20
1310.906754
 30
0.0
 10
1506.269786
 20
1302.204032
 30
0.0
 10
1500.741121
 20
1288.856653
 30
0.0
  0
SPLINE
  5
38f
100
AcDbEntity
  8
0
 62
7
100
AcDbSpline
 70
8
 71
3
 72
8
 73
4
 74
0
 40
0
 40
0
 40
0
 40
0
 40
1
 40
1
 40
1
 40
1
 10
1500.741121
 20
1288.856653
 30
0.0
 10
1495.212456
 20
1275.509275
 30
0.0
 10
1498.268445
 20
1260.145778
 30
0.0
 10
1508.484087
 20
1249.930137
 30
0.0
  0
SPLINE
  5
390
100
AcDbEntity
  8
0
 62
7
100
AcDbSpline
 70
8
 71
3
 72
8
 73
4
 74
0
 40
0
 40
0
 40
0
 40
0
 40
1
 40
1
 40
1
 40
1
 10
1508.484087
 20
1249.930137
 30
0.0
 10
1518.699728
 20
1239.714495
 30
0.0
 10
1534.063225
 20
1236.658506
 30
0.0
 10
1547.410603
 20
1242.187171
 30
0.0
  0
SPLINE
  5
391
100
AcDbEntity
  8
0
 62
7
100
AcDbSpline
 70
8
 71
3
 72
8
 73
4
 74
0
 40
0
 40
0
 40
0
 40
0
 40
1
 40
1
 40
1
 40
1
 10
1547.410603
 20
1242.187171
 30
0.0
 10
1560.757982
 20
1247.715836
 30
0.0
 10
1569.460704
 20
1260.740380
 30
0.0
 10
1569.460704
 20
1275.187478
 30
0.0
  0
SPLINE
  5
392
100
AcDbEntity
  8
0
 62
7
100
AcDbSpline
 70
8
 71
3
 72
8
 73
4
 74
0
 40
0
 40
0
 40
0
 40
0
 40
1
 40
1
 40
1
 40
1
 10
1569.460704
 20
1275.187478
 30
0.0
 10
1569.460704
 20
1284.660819
 30
0.0
 10
1565.697434
 20
1293.746157
 30
0.0
 10
1558.998770
 20
1300.444820
 30
0.0
  0
SPLINE
  5
393
100
AcDbEntity
  8
0
 62
7
100
AcDbSpline
 70
8
 71
3
 72
8
 73
4
 74
0
 40
0
 40
0
 40
0
 40
0
 40
1
 40
1
 40
1
 40
1
 10
1558.998770
 20
1300.444820
 30
0.0
 10
1552.300107
 20
1307.143484
 30
0.0
 10
1543.214769
 20
1310.906754
 30
0.0
 10
1533.741428
 20
1310.906754
 30
0.0
  0
LWPOLYLINE
  5
394
100
AcDbEntity
  8
0
 62
7
100
AcDbPolyline
 90
1
 70
1
 10
2204.576454
 20
1344.238978
 30
0.0
  0
SPLINE
  5
395
100
AcDbEntity
  8
0
 62
7
100
AcDbSpline
 70
8
 71
3
 72
8
 73
4
 74
0
 40
0
 40
0
 40
0
 40
0
 40
1
 40
1
 40
1
 40
1
 10
904.575697
 20
1287.988580
 30
0.0
 10
890.128599
 20
1287.988580
 30
0.0
 10
877.104055
 20
1279.285857
 30
0.0
 10
871.575390
 20
1265.938479
 30
0.0
  0
SPLINE
  5
396
100
AcDbEntity
  8
0
 62
7
100
AcDbSpline
 70
8
 71
3
 72
8
 73
4
 74
0
 40
0
 40
0
 40
0
 40
0
 40
1
 40
1
 40
1
 40
1
 10
871.575390
 20
1265.938479
 30
0.0
 10
866.046725
 20
1252.591101
 30
0.0
 10
869.102714
 20
1237.227603
 30
0.0
 10
879.318356
 20
1227.011962
 30
0.0
  0
SPLINE
  5
397
100
AcDbEntity
  8
0
 62
7
100
AcDbSpline
 70
8
 71
3
 72
8
 73
4
 74
0
 40
0
 40
0
 40
0
 40
0
 40
1
 40
1
 40
1
 40
1
 10
879.318356
 20
1227.011962
 30
0.0
 10
889.533997
 20
1216.796321
 30
0.0
 10
904.897494
 20
1213.740332
 30
0.0
 10
918.244872
 20
1219.268997
 30
0.0
  0
SPLINE
  5
398
100
AcDbEntity
  8
0
 62
7
100
AcDbSpline
 70
8
 71
3
 72
8
 73
4
 74
0
 40
0
 40
0
 40
0
 40
0
 40
1
 40
1
 40
1
 40
1
 10
918.244872
 20
1219.268997
 30
0.0
 10
931.592251
 20
1224.797662
 30
0.0
 10
940.294973
 20
1237.822206
 30
0.0
 10
940.294973
 20
1252.269304
 30
0.0
  0
SPLINE
  5
399
100
AcDbEntity
  8
0
 62
7
100
AcDbSpline
 70
8
 71
3
 72
8
 73
4
 74
0
 40
0
 40
0
 40
0
 40
0
 40
1
 40
1
 40
1
 40
1
 10
940.294973
 20
1252.269304
 30
0.0
 10
940.294973
 20
1261.742645
 30
0.0
 10
936.531703
 20
1270.827982
 30
0.0
 10
929.833039
 20
1277.526646
 30
0.0
  0
SPLINE
  5
39a
100
AcDbEntity
  8
0
 62
7
100
AcDbSpline
 70
8
 71
3
 72
8
 73
4
 74
0
 40
0
 40
0
 40
0
 40
0
 40
1
 40
1
 40
1
 40
1
 10
929.833039
 20
1277.526646
 30
0.0
 10
923.134376
 20
1284.225310
 30
0.0
 10
914.049038
 20
1287.988580
 30
0.0
 10
904.575697
 20
1287.988580
 30
0.0
  0
LWPOLYLINE
  5
39b
100
AcDbEntity
  8
0
 62
7
100
AcDbPolyline
 90
1
 70
1
 10
1533.741428
 20
1310.906754
 30
0.0
  0
SPLINE
  5
39c
100
AcDbEntity
  8
0
 62
7
100
AcDbSpline
 70
8
 71
3
 72
8
 73
4
 74
0
 40
0
 40
0
 40
0
 40
0
 40
1
 40
1
 40
1
 40
1
 10
2806.249287
 20
153.407967
 30
0.0
 10
2791.802189
 20
153.407967
 30
0.0
 10
2778.777645
 20
144.705245
 30
0.0
 10
2773.248980
 20
131.357867
 30
0.0
  0
SPLINE
  5
39d
100
AcDbEntity
  8
0
 62
7
100
AcDbSpline
 70
8
 71
3
 72
8
 73
4
 74
0
 40
0
 40
0
 40
0
 40
0
 40
1
 40
1
 40
1
 40
1
 10
2773.248980
 20
131.357867
 30
0.0
 10
2767.720315
 20
118.010488
 30
0.0
 10
2770.776304
 20
102.646991
 30
0.0
 10
2780.991945
 20
92.431350
 30
0.0
  0
SPLINE
  5
39e
100
AcDbEntity
  8
0
 62
7
100
AcDbSpline
 70
8
 71
3
 72
8
 73
4
 74
0
 40
0
 40
0
 40
0
 40
0
 40
1
 40
1
 40
1
 40
1
 10
2780.991945
 20
92.431350
 30
0.0
 10
2791.207586
 20
82.215709
 30
0.0
 10
2806.571084
 20
79.159719
 30
0.0
 10
2819.918462
 20
84.688384
 30
0.0
  0
SPLINE
  5
39f
100
AcDbEntity
  8
0
 62
7
100
AcDbSpline
 70
8
 71
3
 72
8
 73
4
 74
0
 40
0
 40
0
 40
0
 40
0
 40
1
 40
1
 40
1
 40
1
 10
2819.918462
 20
84.688384
 30
0.0
 10
2833.265840
 20
90.217050
 30
0.0
 10
2841.968563
 20
103.241593
 30
0.0
 10
2841.968563
 20
117.688692
 30
0.0
  0
SPLINE
  5
3a0
100
AcDbEntity
  8
0
 62
7
100
AcDbSpline
 70
8
 71
3
 72
8
 73
4
 74
0
 40
0
 40
0
 40
0
 40
0
 40
1
 40
1
 40
1
 40
1
 10
2841.968563
 20
117.688692
 30
0.0
 10
2841.968563
 20
127.162033
 30
0.0
 10
2838.205293
 20
136.247370
 30
0.0
 10
2831.506629
 20
142.946034
 30
0.0
  0
SPLINE
  5
3a1
100
AcDbEntity
  8
0
 62
7
100
AcDbSpline
 70
8
 71
3
 72
8
 73
4
 74
0
 40
0
 40
0
 40
0
 40
0
 40
1
 40
1
 40
1
 40
1
 10
2831.506629
 20
142.946034
 30
0.0
 10
2824.807965
 20
149.644697
 30
0.0
 10
2815.722628
 20
153.407967
 30
0.0
 10
2806.249287
 20
153.407967
 30
0.0
  0
LWPOLYLINE
  5
3a2
100
AcDbEntity
  8
0
 62
7
100
AcDbPolyline
 90
1
 70
1
 10
904.575697
 20
1287.988580
 30
0.0
  0
SPLINE
  5
3a3
100
AcDbEntity
  8
0
 62
7
100
AcDbSpline
 70
8
 71
3
 72
8
 73
4
 74
0
 40
0
 40
0
 40
0
 40
0
 40
1
 40
1
 40
1
 40
1
 10
2098.324982
 20
742.155908
 30
0.0
 10
2083.877884
 20
742.155908
 30
0.0
 10
2070.853340
 20
733.453186
 30
0.0
 10
2065.324674
 20
720.105808
 30
0.0
  0
SPLINE
  5
3a4
100
AcDbEntity
  8
0
 62
7
100
AcDbSpline
 70
8
 71
3
 72
8
 73
4
 74
0
 40
0
 40
0
 40
0
 40
0
 40
1
 40
1
 40
1
 40
1
 10
2065.324674
 20
720.105808
 30
0.0
 10
2059.796009
 20
706.758430
 30
0.0
 10
2062.851999
 20
691.394932
 30
0.0
 10
2073.067640
 20
681.179291
 30
0.0
  0
SPLINE
  5
3a5
100
AcDbEntity
  8
0
 62
7
100
AcDbSpline
 70
8
 71
3
 72
8
 73
4
 74
0
 40
0
 40
0
 40
0
 40
0
 40
1
 40
1
 40
1
 40
1
 10
2073.067640
 20
681.179291
 30
0.0
 10
2083.283281
 20
670.963650
 30
0.0
 10
2098.646778
 20
667.907661
 30
0.0
 10
2111.994157
 20
673.436326
 30
0.0
  0
SPLINE
  5
3a6
100
AcDbEntity
  8
0
 62
7
100
AcDbSpline
 70
8
 71
3
 72
8
 73
4
 74
0
 40
0
 40
0
 40
0
 40
0
 40
1
 40
1
 40
1
 40
1
 10
2111.994157
 20
673.436326
 30
0.0
 10
2125.341535
 20
678.964991
 30
0.0
 10
2134.044257
 20
691.989535
 30
0.0
 10
2134.044257
 20
706.436633
 30
0.0
  0
SPLINE
  5
3a7
100
AcDbEntity
  8
0
 62
7
100
AcDbSpline
 70
8
 71
3
 72
8
 73
4
 74
0
 40
0
 40
0
 40
0
 40
0
 40
1
 40
1
 40
1
 40
1
 10
2134.044257
 20
706.436633
 30
0.0
 10
2134.044257
 20
726.163844
 30
0.0
 10
2118.052193
 20
742.155908
 30
0.0
 10
2098.324982
 20
742.155908
 30
0.0
  0
LWPOLYLINE
  5
3a8
100
AcDbEntity
  8
0
 62
7
100
AcDbPolyline
 90
1
 70
1
 10
2806.249287
 20
153.407967
 30
0.0
  0
SPLINE
  5
3a9
100
AcDbEntity
  8
0
 62
7
100
AcDbSpline
 70
8
 71
3
 72
8
 73
4
 74
0
 40
0
 40
0
 40
0
 40
0
 40
1
 40
1
 40
1
 40
1
 10
1452.493179
 20
733.824235
 30
0.0
 10
1438.046080
 20
733.824235
 30
0.0
 10
1425.021536
 20
725.121513
 30
0.0
 10
1419.492871
 20
711.774134
 30
0.0
  0
SPLINE
  5
3aa
100
AcDbEntity
  8
0
 62
7
100
AcDbSpline
 70
8
 71
3
 72
8
 73
4
 74
0
 40
0
 40
0
 40
0
 40
0
 40
1
 40
1
 40
1
 40
1
 10
1419.492871
 20
711.774134
 30
0.0
 10
1413.964206
 20
698.426756
 30
0.0
 10
1417.020196
 20
683.063259
 30
0.0
 10
1427.235837
 20
672.847618
 30
0.0
  0
SPLINE
  5
3ab
100
AcDbEntity
  8
0
 62
7
100
AcDbSpline
 70
8
 71
3
 72
8
 73
4
 74
0
 40
0
 40
0
 40
0
 40
0
 40
1
 40
1
 40
1
 40
1
 10
1427.235837
 20
672.847618
 30
0.0
 10
1437.451478
 20
662.631977
 30
0.0
 10
1452.814975
 20
659.575987
 30
0.0
 10
1466.162354
 20
665.104652
 30
0.0
  0
SPLINE
  5
3ac
100
AcDbEntity
  8
0
 62
7
100
AcDbSpline
 70
8
 71
3
 72
8
 73
4
 74
0
 40
0
 40
0
 40
0
 40
0
 40
1
 40
1
 40
1
 40
1
 10
1466.162354
 20
665.104652
 30
0.0
 10
1479.509732
 20
670.633317
 30
0.0
 10
1488.212454
 20
683.657861
 30
0.0
 10
1488.212454
 20
698.104960
 30
0.0
  0
SPLINE
  5
3ad
100
AcDbEntity
  8
0
 62
7
100
AcDbSpline
 70
8
 71
3
 72
8
 73
4
 74
0
 40
0
 40
0
 40
0
 40
0
 40
1
 40
1
 40
1
 40
1
 10
1488.212454
 20
698.104960
 30
0.0
 10
1488.212454
 20
707.578300
 30
0.0
 10
1484.449184
 20
716.663638
 30
0.0
 10
1477.750520
 20
723.362301
 30
0.0
  0
SPLINE
  5
3ae
100
AcDbEntity
  8
0
 62
7
100
AcDbSpline
 70
8
 71
3
 72
8
 73
4
 74
0
 40
0
 40
0
 40
0
 40
0
 40
1
 40
1
 40
1
 40
1
 10
1477.750520
 20
723.362301
 30
0.0
 10
1471.051857
 20
730.060965
 30
0.0
 10
1461.966519
 20
733.824235
 30
0.0
 10
1452.493179
 20
733.824235
 30
0.0
  0
LWPOLYLINE
  5
3af
100
AcDbEntity
  8
0
 62
7
100
AcDbPolyline
 90
1
 70
1
 10
2098.324982
 20
742.155908
 30
0.0
  0
SPLINE
  5
3b0
100
AcDbEntity
  8
0
 62
7
100
AcDbSpline
 70
8
 71
3
 72
8
 73
4
 74
0
 40
0
 40
0
 40
0
 40
0
 40
1
 40
1
 40
1
 40
1
 10
717.076160
 20
923.406095
 30
0.0
 10
702.629062
 20
923.406095
 30
0.0
 10
689.604518
 20
914.703373
 30
0.0
 10
684.075853
 20
901.355995
 30
0.0
  0
SPLINE
  5
3b1
100
AcDbEntity
  8
0
 62
7
100
AcDbSpline
 70
8
 71
3
 72
8
 73
4
 74
0
 40
0
 40
0
 40
0
 40
0
 40
1
 40
1
 40
1
 40
1
 10
684.075853
 20
901.355995
 30
0.0
 10
678.547188
 20
888.008616
 30
0.0
 10
681.603177
 20
872.645119
 30
0.0
 10
691.818819
 20
862.429478
 30
0.0
  0
SPLINE
  5
3b2
100
AcDbEntity
  8
0
 62
7
100
AcDbSpline
 70
8
 71
3
 72
8
 73
4
 74
0
 40
0
 40
0
 40
0
 40
0
 40
1
 40
1
 40
1
 40
1
 10
691.818819
 20
862.429478
 30
0.0
 10
702.034460
 20
852.213837
 30
0.0
 10
717.397957
 20
849.157847
 30
0.0
 10
730.745335
 20
854.686512
 30
0.0
  0
SPLINE
  5
3b3
100
AcDbEntity
  8
0
 62
7
100
AcDbSpline
 70
8
 71
3
 72
8
 73
4
 74
0
 40
0
 40
0
 40
0
 40
0
 40
1
 40
1
 40
1
 40
1
 10
730.745335
 20
854.686512
 30
0.0
 10
744.092714
 20
860.215177
 30
0.0
 10
752.795436
 20
873.239721
 30
0.0
 10
752.795436
 20
887.686820
 30
0.0
  0
SPLINE
  5
3b4
100
AcDbEntity
  8
0
 62
7
100
AcDbSpline
 70
8
 71
3
 72
8
 73
4
 74
0
 40
0
 40
0
 40
0
 40
0
 40
1
 40
1
 40
1
 40
1
 10
752.795436
 20
887.686820
 30
0.0
 10
752.795436
 20
897.160160
 30
0.0
 10
749.032166
 20
906.245498
 30
0.0
 10
742.333502
 20
912.944161
 30
0.0
  0
SPLINE
  5
3b5
100
AcDbEntity
  8
0
 62
7
100
AcDbSpline
 70
8
 71
3
 72
8
 73
4
 74
0
 40
0
 40
0
 40
0
 40
0
 40
1
 40
1
 40
1
 40
1
 10
742.333502
 20
912.944161
 30
0.0
 10
735.634839
 20
919.642825
 30
0.0
 10
726.549501
 20
923.406095
 30
0.0
 10
717.076160
 20
923.406095
 30
0.0
  0
LWPOLYLINE
  5
3b6
100
AcDbEntity
  8
0
 62
7
100
AcDbPolyline
 90
1
 70
1
 10
1452.493179
 20
733.824235
 30
0.0
  0
SPLINE
  5
3b7
100
AcDbEntity
  8
0
 62
7
100
AcDbSpline
 70
8
 71
3
 72
8
 73
4
 74
0
 40
0
 40
0
 40
0
 40
0
 40
1
 40
1
 40
1
 40
1
 10
437.909085
 20
1548.406211
 30
0.0
 10
423.461987
 20
1548.406211
 30
0.0
 10
410.437443
 20
1539.703489
 30
0.0
 10
404.908778
 20
1526.356111
 30
0.0
  0
SPLINE
  5
3b8
100
AcDbEntity
  8
0
 62
7
100
AcDbSpline
 70
8
 71
3
 72
8
 73
4
 74
0
 40
0
 40
0
 40
0
 40
0
 40
1
 40
1
 40
1
 40
1
 10
404.908778
 20
1526.356111
 30
0.0
 10
399.380113
 20
1513.008733
 30
0.0
 10
402.436102
 20
1497.645235
 30
0.0
 10
412.651744
 20
1487.429594
 30
0.0
  0
SPLINE
  5
3b9
100
AcDbEntity
  8
0
 62
7
100
AcDbSpline
 70
8
 71
3
 72
8
 73
4
 74
0
 40
0
 40
0
 40
0
 40
0
 40
1
 40
1
 40
1
 40
1
 10
412.651744
 20
1487.429594
 30
0.0
 10
422.867385
 20
1477.213953
 30
0.0
 10
438.230882
 20
1474.157964
 30
0.0
 10
451.578260
 20
1479.686629
 30
0.0
  0
SPLINE
  5
3ba
100
AcDbEntity
  8
0
 62
7
100
AcDbSpline
 70
8
 71
3
 72
8
 73
4
 74
0
 40
0
 40
0
 40
0
 40
0
 40
1
 40
1
 40
1
 40
1
 10
451.578260
 20
1479.686629
 30
0.0
 10
464.925639
 20
1485.215294
 30
0.0
 10
473.628361
 20
1498.239838
 30
0.0
 10
473.628361
 20
1512.686936
 30
0.0
  0
SPLINE
  5
3bb
100
AcDbEntity
  8
0
 62
7
100
AcDbSpline
 70
8
 71
3
 72
8
 73
4
 74
0
 40
0
 40
0
 40
0
 40
0
 40
1
 40
1
 40
1
 40
1
 10
473.628361
 20
1512.686936
 30
0.0
 10
473.628361
 20
1522.160277
 30
0.0
 10
469.865091
 20
1531.245614
 30
0.0
 10
463.166427
 20
1537.944278
 30
0.0
  0
SPLINE
  5
3bc
100
AcDbEntity
  8
0
 62
7
100
AcDbSpline
 70
8
 71
3
 72
8
 73
4
 74
0
 40
0
 40
0
 40
0
 40
0
 40
1
 40
1
 40
1
 40
1
 10
463.166427
 20
1537.944278
 30
0.0
 10
456.467764
 20
1544.642941
 30
0.0
 10
447.382426
 20
1548.406211
 30
0.0
 10
437.909085
 20
1548.406211
 30
0.0
  0
LWPOLYLINE
  5
3bd
100
AcDbEntity
  8
0
 62
7
100
AcDbPolyline
 90
1
 70
1
 10
717.076160
 20
923.406095
 30
0.0
  0
SPLINE
  5
3be
100
AcDbEntity
  8
0
 62
7
100
AcDbSpline
 70
8
 71
3
 72
8
 73
4
 74
0
 40
0
 40
0
 40
0
 40
0
 40
1
 40
1
 40
1
 40
1
 10
3336.553488
 20
178.683120
 30
0.0
 10
3328.399016
 20
178.683120
 30
0.0
 10
3321.047485
 20
173.770984
 30
0.0
 10
3317.926904
 20
166.237234
 30
0.0
  0
SPLINE
  5
3bf
100
AcDbEntity
  8
0
 62
7
100
AcDbSpline
 70
8
 71
3
 72
8
 73
4
 74
0
 40
0
 40
0
 40
0
 40
0
 40
1
 40
1
 40
1
 40
1
 10
3317.926904
 20
166.237234
 30
0.0
 10
3314.806323
 20
158.703484
 30
0.0
 10
3316.531235
 20
150.031763
 30
0.0
 10
3322.297318
 20
144.265680
 30
0.0
  0
SPLINE
  5
3c0
100
AcDbEntity
  8
0
 62
7
100
AcDbSpline
 70
8
 71
3
 72
8
 73
4
 74
0
 40
0
 40
0
 40
0
 40
0
 40
1
 40
1
 40
1
 40
1
 10
3322.297318
 20
144.265680
 30
0.0
 10
3328.063400
 20
138.499598
 30
0.0
 10
3336.735122
 20
136.774685
 30
0.0
 10
3344.268872
 20
139.895267
 30
0.0
  0
SPLINE
  5
3c1
100
AcDbEntity
  8
0
 62
7
100
AcDbSpline
 70
8
 71
3
 72
8
 73
4
 74
0
 40
0
 40
0
 40
0
 40
0
 40
1
 40
1
 40
1
 40
1
 10
3344.268872
 20
139.895267
 30
0.0
 10
3351.802622
 20
143.015848
 30
0.0
 10
3356.714757
 20
150.367378
 30
0.0
 10
3356.714757
 20
158.521851
 30
0.0
  0
SPLINE
  5
3c2
100
AcDbEntity
  8
0
 62
7
100
AcDbSpline
 70
8
 71
3
 72
8
 73
4
 74
0
 40
0
 40
0
 40
0
 40
0
 40
1
 40
1
 40
1
 40
1
 10
3356.714757
 20
158.521851
 30
0.0
 10
3356.714757
 20
163.868952
 30
0.0
 10
3354.590630
 20
168.997049
 30
0.0
 10
3350.809658
 20
172.778021
 30
0.0
  0
SPLINE
  5
3c3
100
AcDbEntity
  8
0
 62
7
100
AcDbSpline
 70
8
 71
3
 72
8
 73
4
 74
0
 40
0
 40
0
 40
0
 40
0
 40
1
 40
1
 40
1
 40
1
 10
3350.809658
 20
172.778021
 30
0.0
 10
3347.028687
 20
176.558992
 30
0.0
 10
3341.900589
 20
178.683120
 30
0.0
 10
3336.553488
 20
178.683120
 30
0.0
  0
LWPOLYLINE
  5
3c4
100
AcDbEntity
  8
0
 62
7
100
AcDbPolyline
 90
1
 70
1
 10
437.909085
 20
1548.406211
 30
0.0
  0
SPLINE
  5
3c5
100
AcDbEntity
  8
0
 62
7
100
AcDbSpline
 70
8
 71
3
 72
8
 73
4
 74
0
 40
0
 40
0
 40
0
 40
0
 40
1
 40
1
 40
1
 40
1
 10
3244.875393
 20
280.764602
 30
0.0
 10
3236.720921
 20
280.764602
 30
0.0
 10
3229.369391
 20
275.852466
 30
0.0
 10
3226.248809
 20
268.318716
 30
0.0
  0
SPLINE
  5
3c6
100
AcDbEntity
  8
0
 62
7
100
AcDbSpline
 70
8
 71
3
 72
8
 73
4
 74
0
 40
0
 40
0
 40
0
 40
0
 40
1
 40
1
 40
1
 40
1
 10
3226.248809
 20
268.318716
 30
0.0
 10
3223.128228
 20
260.784966
 30
0.0
 10
3224.853140
 20
252.113245
 30
0.0
 10
3230.619223
 20
246.347162
 30
0.0
  0
SPLINE
  5
3c7
100
AcDbEntity
  8
0
 62
7
100
AcDbSpline
 70
8
 71
3
 72
8
 73
4
 74
0
 40
0
 40
0
 40
0
 40
0
 40
1
 40
1
 40
1
 40
1
 10
3230.619223
 20
246.347162
 30
0.0
 10
3236.385306
 20
240.581080
 30
0.0
 10
3245.057027
 20
238.856167
 30
0.0
 10
3252.590777
 20
241.976748
 30
0.0
  0
SPLINE
  5
3c8
100
AcDbEntity
  8
0
 62
7
100
AcDbSpline
 70
8
 71
3
 72
8
 73
4
 74
0
 40
0
 40
0
 40
0
 40
0
 40
1
 40
1
 40
1
 40
1
 10
3252.590777
 20
241.976748
 30
0.0
 10
3260.124527
 20
245.097330
 30
0.0
 10
3265.036662
 20
252.448860
 30
0.0
 10
3265.036662
 20
260.603332
 30
0.0
  0
SPLINE
  5
3c9
100
AcDbEntity
  8
0
 62
7
100
AcDbSpline
 70
8
 71
3
 72
8
 73
4
 74
0
 40
0
 40
0
 40
0
 40
0
 40
1
 40
1
 40
1
 40
1
 10
3265.036662
 20
260.603332
 30
0.0
 10
3265.036662
 20
271.738094
 30
0.0
 10
3256.010155
 20
280.764602
 30
0.0
 10
3244.875393
 20
280.764602
 30
0.0
  0
LWPOLYLINE
  5
3ca
100
AcDbEntity
  8
0
 62
7
100
AcDbPolyline
 90
1
 70
1
 10
3336.553488
 20
178.683120
 30
0.0
  0
SPLINE
  5
3cb
100
AcDbEntity
  8
0
 62
7
100
AcDbSpline
 70
8
 71
3
 72
8
 73
4
 74
0
 40
0
 40
0
 40
0
 40
0
 40
1
 40
1
 40
1
 40
1
 10
3159.467921
 20
387.015968
 30
0.0
 10
3151.313449
 20
387.015968
 30
0.0
 10
3143.961919
 20
382.103833
 30
0.0
 10
3140.841337
 20
374.570083
 30
0.0
  0
SPLINE
  5
3cc
100
AcDbEntity
  8
0
 62
7
100
AcDbSpline
 70
8
 71
3
 72
8
 73
4
 74
0
 40
0
 40
0
 40
0
 40
0
 40
1
 40
1
 40
1
 40
1
 10
3140.841337
 20
374.570083
 30
0.0
 10
3137.720756
 20
367.036333
 30
0.0
 10
3139.445668
 20
358.364611
 30
0.0
 10
3145.211751
 20
352.598529
 30
0.0
  0
SPLINE
  5
3cd
100
AcDbEntity
  8
0
 62
7
100
AcDbSpline
 70
8
 71
3
 72
8
 73
4
 74
0
 40
0
 40
0
 40
0
 40
0
 40
1
 40
1
 40
1
 40
1
 10
3145.211751
 20
352.598529
 30
0.0
 10
3150.977834
 20
346.832446
 30
0.0
 10
3159.649555
 20
345.107533
 30
0.0
 10
3167.183305
 20
348.228115
 30
0.0
  0
SPLINE
  5
3ce
100
AcDbEntity
  8
0
 62
7
100
AcDbSpline
 70
8
 71
3
 72
8
 73
4
 74
0
 40
0
 40
0
 40
0
 40
0
 40
1
 40
1
 40
1
 40
1
 10
3167.183305
 20
348.228115
 30
0.0
 10
3174.717055
 20
351.348696
 30
0.0
 10
3179.629191
 20
358.700227
 30
0.0
 10
3179.629191
 20
366.854699
 30
0.0
  0
SPLINE
  5
3cf
100
AcDbEntity
  8
0
 62
7
100
AcDbSpline
 70
8
 71
3
 72
8
 73
4
 74
0
 40
0
 40
0
 40
0
 40
0
 40
1
 40
1
 40
1
 40
1
 10
3179.629191
 20
366.854699
 30
0.0
 10
3179.629191
 20
372.201800
 30
0.0
 10
3177.505063
 20
377.329898
 30
0.0
 10
3173.724091
 20
381.110869
 30
0.0
  0
SPLINE
  5
3d0
100
AcDbEntity
  8
0
 62
7
100
AcDbSpline
 70
8
 71
3
 72
8
 73
4
 74
0
 40
0
 40
0
 40
0
 40
0
 40
1
 40
1
 40
1
 40
1
 10
3173.724091
 20
381.110869
 30
0.0
 10
3169.943120
 20
384.891841
 30
0.0
 10
3164.815022
 20
387.015968
 30
0.0
 10
3159.467921
 20
387.015968
 30
0.0
  0
LWPOLYLINE
  5
3d1
100
AcDbEntity
  8
0
 62
7
100
AcDbPolyline
 90
1
 70
1
 10
3244.875393
 20
280.764602
 30
0.0
  0
SPLINE
  5
3d2
100
AcDbEntity
  8
0
 62
7
100
AcDbSpline
 70
8
 71
3
 72
8
 73
4
 74
0
 40
0
 40
0
 40
0
 40
0
 40
1
 40
1
 40
1
 40
1
 10
3088.638986
 20
495.349579
 30
0.0
 10
3080.484514
 20
495.349579
 30
0.0
 10
3073.132983
 20
490.437443
 30
0.0
 10
3070.012402
 20
482.903693
 30
0.0
  0
SPLINE
  5
3d3
100
AcDbEntity
  8
0
 62
7
100
AcDbSpline
 70
8
 71
3
 72
8
 73
4
 74
0
 40
0
 40
0
 40
0
 40
0
 40
1
 40
1
 40
1
 40
1
 10
3070.012402
 20
482.903693
 30
0.0
 10
3066.891821
 20
475.369943
 30
0.0
 10
3068.616733
 20
466.698222
 30
0.0
 10
3074.382816
 20
460.932139
 30
0.0
  0
SPLINE
  5
3d4
100
AcDbEntity
  8
0
 62
7
100
AcDbSpline
 70
8
 71
3
 72
8
 73
4
 74
0
 40
0
 40
0
 40
0
 40
0
 40
1
 40
1
 40
1
 40
1
 10
3074.382816
 20
460.932139
 30
0.0
 10
3080.148898
 20
455.166056
 30
0.0
 10
3088.820620
 20
453.441144
 30
0.0
 10
3096.354370
 20
456.561725
 30
0.0
  0
SPLINE
  5
3d5
100
AcDbEntity
  8
0
 62
7
100
AcDbSpline
 70
8
 71
3
 72
8
 73
4
 74
0
 40
0
 40
0
 40
0
 40
0
 40
1
 40
1
 40
1
 40
1
 10
3096.354370
 20
456.561725
 30
0.0
 10
3103.888120
 20
459.682307
 30
0.0
 10
3108.800255
 20
467.033837
 30
0.0
 10
3108.800255
 20
475.188309
 30
0.0
  0
SPLINE
  5
3d6
100
AcDbEntity
  8
0
 62
7
100
AcDbSpline
 70
8
 71
3
 72
8
 73
4
 74
0
 40
0
 40
0
 40
0
 40
0
 40
1
 40
1
 40
1
 40
1
 10
3108.800255
 20
475.188309
 30
0.0
 10
3108.800255
 20
480.535410
 30
0.0
 10
3106.676128
 20
485.663508
 30
0.0
 10
3102.895156
 20
489.444479
 30
0.0
  0
SPLINE
  5
3d7
100
AcDbEntity
  8
0
 62
7
100
AcDbSpline
 70
8
 71
3
 72
8
 73
4
 74
0
 40
0
 40
0
 40
0
 40
0
 40
1
 40
1
 40
1
 40
1
 10
3102.895156
 20
489.444479
 30
0.0
 10
3099.114185
 20
493.225451
 30
0.0
 10
3093.986087
 20
495.349579
 30
0.0
 10
3088.638986
 20
495.349579
 30
0.0
  0
LWPOLYLINE
  5
3d8
100
AcDbEntity
  8
0
 62
7
100
AcDbPolyline
 90
1
 70
1
 10
3159.467921
 20
387.015968
 30
0.0
  0
SPLINE
  5
3d9
100
AcDbEntity
  8
0
 62
7
100
AcDbSpline
 70
8
 71
3
 72
8
 73
4
 74
0
 40
0
 40
0
 40
0
 40
0
 40
1
 40
1
 40
1
 40
1
 10
320.201291
 20
467.119269
 30
0.0
 10
298.768695
 20
467.119269
 30
0.0
 10
281.394144
 20
449.744717
 30
0.0
 10
281.394144
 20
428.312122
 30
0.0
  0
SPLINE
  5
3da
100
AcDbEntity
  8
0
 62
7
100
AcDbSpline
 70
8
 71
3
 72
8
 73
4
 74
0
 40
0
 40
0
 40
0
 40
0
 40
1
 40
1
 40
1
 40
1
 10
281.394144
 20
428.312122
 30
0.0
 10
281.394144
 20
406.879526
 30
0.0
 10
298.768695
 20
389.504975
 30
0.0
 10
320.201291
 20
389.504975
 30
0.0
  0
SPLINE
  5
3db
100
AcDbEntity
  8
0
 62
7
100
AcDbSpline
 70
8
 71
3
 72
8
 73
4
 74
0
 40
0
 40
0
 40
0
 40
0
 40
1
 40
1
 40
1
 40
1
 10
320.201291
 20
389.504975
 30
0.0
 10
341.633886
 20
389.504975
 30
0.0
 10
359.008438
 20
406.879526
 30
0.0
 10
359.008438
 20
428.312122
 30
0.0
  0
SPLINE
  5
3dc
100
AcDbEntity
  8
0
 62
7
100
AcDbSpline
 70
8
 71
3
 72
8
 73
4
 74
0
 40
0
 40
0
 40
0
 40
0
 40
1
 40
1
 40
1
 40
1
 10
359.008438
 20
428.312122
 30
0.0
 10
359.008438
 20
438.604417
 30
0.0
 10
354.919839
 20
448.475167
 30
0.0
 10
347.642088
 20
455.752919
 30
0.0
  0
SPLINE
  5
3dd
100
AcDbEntity
  8
0
 62
7
100
AcDbSpline
 70
8
 71
3
 72
8
 73
4
 74
0
 40
0
 40
0
 40
0
 40
0
 40
1
 40
1
 40
1
 40
1
 10
347.642088
 20
455.752919
 30
0.0
 10
340.364336
 20
463.030671
 30
0.0
 10
330.493586
 20
467.119269
 30
0.0
 10
320.201291
 20
467.119269
 30
0.0
  0
LWPOLYLINE
  5
3de
100
AcDbEntity
  8
0
 62
7
100
AcDbPolyline
 90
1
 70
1
 10
3088.638986
 20
495.349579
 30
0.0
  0
SPLINE
  5
3df
100
AcDbEntity
  8
0
 62
7
100
AcDbSpline
 70
8
 71
3
 72
8
 73
4
 74
0
 40
0
 40
0
 40
0
 40
0
 40
1
 40
1
 40
1
 40
1
 10
1122.282757
 20
456.702521
 30
0.0
 10
1106.586731
 20
456.702521
 30
0.0
 10
1092.436237
 20
447.247463
 30
0.0
 10
1086.429628
 20
432.746226
 30
0.0
  0
SPLINE
  5
3e0
100
AcDbEntity
  8
0
 62
7
100
AcDbSpline
 70
8
 71
3
 72
8
 73
4
 74
0
 40
0
 40
0
 40
0
 40
0
 40
1
 40
1
 40
1
 40
1
 10
1086.429628
 20
432.746226
 30
0.0
 10
1080.423019
 20
418.244989
 30
0.0
 10
1083.743193
 20
401.553343
 30
0.0
 10
1094.841960
 20
390.454577
 30
0.0
  0
SPLINE
  5
3e1
100
AcDbEntity
  8
0
 62
7
100
AcDbSpline
 70
8
 71
3
 72
8
 73
4
 74
0
 40
0
 40
0
 40
0
 40
0
 40
1
 40
1
 40
1
 40
1
 10
1094.841960
 20
390.454577
 30
0.0
 10
1105.940726
 20
379.355811
 30
0.0
 10
1122.632372
 20
376.035636
 30
0.0
 10
1137.133609
 20
382.042245
 30
0.0
  0
SPLINE
  5
3e2
100
AcDbEntity
  8
0
 62
7
100
AcDbSpline
 70
8
 71
3
 72
8
 73
4
 74
0
 40
0
 40
0
 40
0
 40
0
 40
1
 40
1
 40
1
 40
1
 10
1137.133609
 20
382.042245
 30
0.0
 10
1151.634846
 20
388.048854
 30
0.0
 10
1161.089904
 20
402.199348
 30
0.0
 10
1161.089904
 20
417.895374
 30
0.0
  0
SPLINE
  5
3e3
100
AcDbEntity
  8
0
 62
7
100
AcDbSpline
 70
8
 71
3
 72
8
 73
4
 74
0
 40
0
 40
0
 40
0
 40
0
 40
1
 40
1
 40
1
 40
1
 10
1161.089904
 20
417.895374
 30
0.0
 10
1161.089904
 20
428.187669
 30
0.0
 10
1157.001305
 20
438.058419
 30
0.0
 10
1149.723553
 20
445.336171
 30
0.0
  0
SPLINE
  5
3e4
100
AcDbEntity
  8
0
 62
7
100
AcDbSpline
 70
8
 71
3
 72
8
 73
4
 74
0
 40
0
 40
0
 40
0
 40
0
 40
1
 40
1
 40
1
 40
1
 10
1149.723553
 20
445.336171
 30
0.0
 10
1142.445802
 20
452.613922
 30
0.0
 10
1132.575052
 20
456.702521
 30
0.0
 10
1122.282757
 20
456.702521
 30
0.0
  0
LWPOLYLINE
  5
3e5
100
AcDbEntity
  8
0
 62
7
100
AcDbPolyline
 90
1
 70
1
 10
320.201291
 20
467.119269
 30
0.0
  0
LWPOLYLINE
  5
3e6
100
AcDbEntity
  8
0
 62
7
100
AcDbPolyline
 90
1
 70
1
 10
1122.282757
 20
456.702521
 30
0.0
  0
LWPOLYLINE
  5
3e7
100
AcDbEntity
  8
0
 62
7
100
AcDbPolyline
 90
2
 70
0
 10
14.896037
 20
1773.000857
 30
0.0
 10
4033.915551
 20
1773.000857
 30
0.0
  0
LWPOLYLINE
  5
3e8
100
AcDbEntity
  8
0
 62
7
100
AcDbPolyline
 90
2
 70
0
 10
14.896037
 20
1741.250867
 30
0.0
 10
14.896037
 20
1773.000857
 30
0.0
  0
LWPOLYLINE
  5
3e9
100
AcDbEntity
  8
0
 62
7
100
AcDbPolyline
 90
2
 70
0
 10
4033.730343
 20
1587.713209
 30
0.0
 10
4033.915551
 20
1773.000857
 30
0.0
  0
LWPOLYLINE
  5
3ea
100
AcDbEntity
  8
0
 62
7
100
AcDbPolyline
 90
2
 70
0
 10
14.975412
 20
1587.713209
 30
0.0
 10
14.896037
 20
1741.250867
 30
0.0
  0
LWPOLYLINE
  5
3eb
100
AcDbEntity
  8
0
 62
7
100
AcDbPolyline
 90
2
 70
0
 10
4033.730343
 20
0.213730
 30
0.0
 10
4033.730343
 20
1587.713209
 30
0.0
  0
LWPOLYLINE
  5
3ec
100
AcDbEntity
  8
0
 62
7
100
AcDbPolyline
 90
2
 70
0
 10
3189.974370
 20
0.213730
 30
0.0
 10
4033.730343
 20
0.213730
 30
0.0
  0
LWPOLYLINE
  5
3ed
100
AcDbEntity
  8
0
 62
7
100
AcDbPolyline
 90
2
 70
0
 10
14.975412
 20
0.213730
 30
0.0
 10
3189.974370
 20
0.213730
 30
0.0
  0
SPLINE
  5
3ee
100
AcDbEntity
  8
0
 62
7
100
AcDbSpline
 70
8
 71
3
 72
8
 73
4
 74
0
 40
0
 40
0
 40
0
 40
0
 40
1
 40
1
 40
1
 40
1
 10
1459.613273
 20
558.834763
 30
0.0
 10
1445.061295
 20
558.834763
 30
0.0
 10
1431.942199
 20
550.068863
 30
0.0
 10
1426.373399
 20
536.624589
 30
0.0
  0
SPLINE
  5
3ef
100
AcDbEntity
  8
0
 62
7
100
AcDbSpline
 70
8
 71
3
 72
8
 73
4
 74
0
 40
0
 40
0
 40
0
 40
0
 40
1
 40
1
 40
1
 40
1
 10
1426.373399
 20
536.624589
 30
0.0
 10
1420.804598
 20
523.180315
 30
0.0
 10
1423.882773
 20
507.705286
 30
0.0
 10
1434.172575
 20
497.415485
 30
0.0
  0
SPLINE
  5
3f0
100
AcDbEntity
  8
0
 62
7
100
AcDbSpline
 70
8
 71
3
 72
8
 73
4
 74
0
 40
0
 40
0
 40
0
 40
0
 40
1
 40
1
 40
1
 40
1
 10
1434.172575
 20
497.415485
 30
0.0
 10
1444.462376
 20
487.125683
 30
0.0
 10
1459.937405
 20
484.047508
 30
0.0
 10
1473.381679
 20
489.616309
 30
0.0
  0
SPLINE
  5
3f1
100
AcDbEntity
  8
0
 62
7
100
AcDbSpline
 70
8
 71
3
 72
8
 73
4
 74
0
 40
0
 40
0
 40
0
 40
0
 40
1
 40
1
 40
1
 40
1
 10
1473.381679
 20
489.616309
 30
0.0
 10
1486.825953
 20
495.185109
 30
0.0
 10
1495.591853
 20
508.304205
 30
0.0
 10
1495.591853
 20
522.856183
 30
0.0
  0
SPLINE
  5
3f2
100
AcDbEntity
  8
0
 62
7
100
AcDbSpline
 70
8
 71
3
 72
8
 73
4
 74
0
 40
0
 40
0
 40
0
 40
0
 40
1
 40
1
 40
1
 40
1
 10
1495.591853
 20
522.856183
 30
0.0
 10
1495.591853
 20
532.398295
 30
0.0
 10
1491.801263
 20
541.549588
 30
0.0
 10
1485.053971
 20
548.296881
 30
0.0
  0
SPLINE
  5
3f3
100
AcDbEntity
  8
0
 62
7
100
AcDbSpline
 70
8
 71
3
 72
8
 73
4
 74
0
 40
0
 40
0
 40
0
 40
0
 40
1
 40
1
 40
1
 40
1
 10
1485.053971
 20
548.296881
 30
0.0
 10
1478.306678
 20
555.044173
 30
0.0
 10
1469.155385
 20
558.834763
 30
0.0
 10
1459.613273
 20
558.834763
 30
0.0
  0
LWPOLYLINE
  5
3f4
100
AcDbEntity
  8
0
 62
7
100
AcDbPolyline
 90
2
 70
0
 10
14.975412
 20
1587.713209
 30
0.0
 10
14.975412
 20
0.213730
 30
0.0
  0
SPLINE
  5
3f5
100
AcDbEntity
  8
0
 62
7
100
AcDbSpline
 70
8
 71
3
 72
8
 73
4
 74
0
 40
0
 40
0
 40
0
 40
0
 40
1
 40
1
 40
1
 40
1
 10
3977.406390
 20
809.020341
 30
0.0
 10
3962.854413
 20
809.020341
 30
0.0
 10
3949.735317
 20
800.254442
 30
0.0
 10
3944.166516
 20
786.810168
 30
0.0
  0
SPLINE
  5
3f6
100
AcDbEntity
  8
0
 62
7
100
AcDbSpline
 70
8
 71
3
 72
8
 73
4
 74
0
 40
0
 40
0
 40
0
 40
0
 40
1
 40
1
 40
1
 40
1
 10
3944.166516
 20
786.810168
 30
0.0
 10
3938.597716
 20
773.365894
 30
0.0
 10
3941.675890
 20
757.890865
 30
0.0
 10
3951.965692
 20
747.601063
 30
0.0
  0
SPLINE
  5
3f7
100
AcDbEntity
  8
0
 62
7
100
AcDbSpline
 70
8
 71
3
 72
8
 73
4
 74
0
 40
0
 40
0
 40
0
 40
0
 40
1
 40
1
 40
1
 40
1
 10
3951.965692
 20
747.601063
 30
0.0
 10
3962.255494
 20
737.311261
 30
0.0
 10
3977.730523
 20
734.233087
 30
0.0
 10
3991.174797
 20
739.801887
 30
0.0
  0
SPLINE
  5
3f8
100
AcDbEntity
  8
0
 62
7
100
AcDbSpline
 70
8
 71
3
 72
8
 73
4
 74
0
 40
0
 40
0
 40
0
 40
0
 40
1
 40
1
 40
1
 40
1
 10
3991.174797
 20
739.801887
 30
0.0
 10
4004.619071
 20
745.370688
 30
0.0
 10
4013.384970
 20
758.489784
 30
0.0
 10
4013.384970
 20
773.041761
 30
0.0
  0
SPLINE
  5
3f9
100
AcDbEntity
  8
0
 62
7
100
AcDbSpline
 70
8
 71
3
 72
8
 73
4
 74
0
 40
0
 40
0
 40
0
 40
0
 40
1
 40
1
 40
1
 40
1
 10
4013.384970
 20
773.041761
 30
0.0
 10
4013.384970
 20
782.583874
 30
0.0
 10
4009.594381
 20
791.735167
 30
0.0
 10
4002.847088
 20
798.482459
 30
0.0
  0
SPLINE
  5
3fa
100
AcDbEntity
  8
0
 62
7
100
AcDbSpline
 70
8
 71
3
 72
8
 73
4
 74
0
 40
0
 40
0
 40
0
 40
0
 40
1
 40
1
 40
1
 40
1
 10
4002.847088
 20
798.482459
 30
0.0
 10
3996.099796
 20
805.229752
 30
0.0
 10
3986.948503
 20
809.020341
 30
0.0
 10
3977.406390
 20
809.020341
 30
0.0
  0
LWPOLYLINE
  5
3fb
100
AcDbEntity
  8
0
 62
7
100
AcDbPolyline
 90
1
 70
1
 10
1459.613273
 20
558.834763
 30
0.0
  0
LWPOLYLINE
  5
3fc
100
AcDbEntity
  8
0
 62
7
100
AcDbPolyline
 90
1
 70
1
 10
3977.406390
 20
809.020341
 30
0.0
  0
LWPOLYLINE
  5
3fd
100
AcDbEntity
  8
0
 62
7
100
AcDbPolyline
 90
2
 70
0
 10
500.591793
 20
344.470903
 30
0.0
 10
500.591793
 20
758.659757
 30
0.0
  0
LWPOLYLINE
  5
3fe
100
AcDbEntity
  8
0
 62
7
100
AcDbPolyline
 90
2
 70
0
 10
934.445744
 20
344.470903
 30
0.0
 10
500.591793
 20
344.470903
 30
0.0
  0
LWPOLYLINE
  5
3ff
100
AcDbEntity
  8
0
 62
7
100
AcDbPolyline
 90
2
 70
0
 10
934.445744
 20
758.659757
 30
0.0
 10
934.445744
 20
344.470903
 30
0.0
  0
LWPOLYLINE
  5
400
100
AcDbEntity
  8
0
 62
7
100
AcDbPolyline
 90
2
 70
0
 10
500.591793
 20
758.659757
 30
0.0
 10
934.445744
 20
758.659757
 30
0.0
  0
ENDSEC
  0
SECTION
  2
OBJECTS
  0
DICTIONARY
  5
C
330
0
100
AcDbDictionary
  3
ACAD_GROUP
350
D
  3
ACAD_MLINESTYLE
350
17
  0
DICTIONARY
  5
D
330
C
100
AcDbDictionary
  0
DICTIONARY
  5
1A
330
C
100
AcDbDictionary
  0
DICTIONARY
  5
17
330
C
100
AcDbDictionary
  3
STANDARD
350
18
  0
DICTIONARY
  5
19
330
C
100
AcDbDictionary
  0
ENDSEC
  0
EOF
