  0
SECTION
  2
HEADER
  9
$ACADVER
  1
AC1014
  9
$HANDSEED
  5
FFFF
  9
$MEASUREMENT
 70
     1
  0
ENDSEC
  0
SECTION
  2
TABLES
  0
TABLE
  2
VPORT
  5
8
330
0
100
AcDbSymbolTable
 70
     4
  0
VPORT
  5
2E
330
8
100
AcDbSymbolTableRecord
100
AcDbViewportTableRecord
  2
*ACTIVE
 70
     0
 10
0.0
 20
0.0
 11
1.0
 21
1.0
 12
210.0
 22
148.5
 13
0.0
 23
0.0
 14
10.0
 24
10.0
 15
10.0
 25
10.0
 16
0.0
 26
0.0
 36
1.0
 17
0.0
 27
0.0
 37
0.0
 40
341.0
 41
1.24
 42
50.0
 43
0.0
 44
0.0
 50
0.0
 51
0.0
 71
     0
 72
   100
 73
     1
 74
     3
 75
     0
 76
     0
 77
     0
 78
     0
  0
ENDTAB
  0
TABLE
  2
LTYPE
  5
5
330
0
100
AcDbSymbolTable
 70
     1
  0
LTYPE
  5
14
330
5
100
AcDbSymbolTableRecord
100
AcDbLinetypeTableRecord
  2
BYBLOCK
 70
     0
  3

 72
    65
 73
     0
 40
0.0
  0
LTYPE
  5
15
330
5
100
AcDbSymbolTableRecord
100
AcDbLinetypeTableRecord
  2
BYLAYER
 70
     0
  3

 72
    65
 73
     0
 40
0.0
  0
LTYPE
  5
16
330
5
100
AcDbSymbolTableRecord
100
AcDbLinetypeTableRecord
  2
CONTINUOUS
 70
     0
  3
Solid line
 72
    65
 73
     0
 40
0.0
  0
ENDTAB
  0
TABLE
  2
LAYER
  5
2
100
AcDbSymbolTable
 70
1
  0
LAYER
  5
50
100
AcDbSymbolTableRecord
100
AcDbLayerTableRecord
  2
0
 70
0
  6
CONTINUOUS
  0
ENDTAB
  0
TABLE
  2
STYLE
  5
3
330
0
100
AcDbSymbolTable
 70
     1
  0
STYLE
  5
11
330
3
100
AcDbSymbolTableRecord
100
AcDbTextStyleTableRecord
  2
STANDARD
 70
     0
 40
0.0
 41
1.0
 50
0.0
 71
     0
 42
2.5
  3
txt
  4

  0
ENDTAB
  0
TABLE
  2
VIEW
  5
6
330
0
100
AcDbSymbolTable
 70
     0
  0
ENDTAB
  0
TABLE
  2
UCS
  5
7
330
0
100
AcDbSymbolTable
 70
     0
  0
ENDTAB
  0
TABLE
  2
APPID
  5
9
330
0
100
AcDbSymbolTable
 70
     2
  0
APPID
  5
12
330
9
100
AcDbSymbolTableRecord
100
AcDbRegAppTableRecord
  2
ACAD
 70
     0
  0
ENDTAB
  0
TABLE
  2
DIMSTYLE
  5
A
330
0
100
AcDbSymbolTable
 70
     1
  0
DIMSTYLE
105
27
330
A
100
AcDbSymbolTableRecord
100
AcDbDimStyleTableRecord
  2
ISO-25
 70
     0
  3

  4

  5

  6

  7

 40
1.0
 41
2.5
 42
0.625
 43
3.75
 44
1.25
 45
0.0
 46
0.0
 47
0.0
 48
0.0
140
2.5
141
2.5
142
0.0
143
0.03937007874016
144
1.0
145
0.0
146
1.0
147
0.625
 71
     0
 72
     0
 73
     0
 74
     0
 75
     0
 76
     0
 77
     1
 78
     8
170
     0
171
     3
172
     1
173
     0
174
     0
175
     0
176
     0
177
     0
178
     0
270
     2
271
     2
272
     2
273
     2
274
     3
340
11
275
     0
280
     0
281
     0
282
     0
283
     0
284
     8
285
     0
286
     0
287
     3
288
     0
  0
ENDTAB
  0
TABLE
  2
BLOCK_RECORD
  5
1
330
0
100
AcDbSymbolTable
 70
     1
  0
BLOCK_RECORD
  5
1F
330
1
100
AcDbSymbolTableRecord
100
AcDbBlockTableRecord
  2
*MODEL_SPACE
  0
BLOCK_RECORD
  5
1B
330
1
100
AcDbSymbolTableRecord
100
AcDbBlockTableRecord
  2
*PAPER_SPACE
  0
ENDTAB
  0
ENDSEC
  0
SECTION
  2
BLOCKS
  0
BLOCK
  5
20
330
1F
100
AcDbEntity
  8
0
100
AcDbBlockBegin
  2
*MODEL_SPACE
 70
     0
 10
0.0
 20
0.0
 30
0.0
  3
*MODEL_SPACE
  1

  0
ENDBLK
  5
21
330
1F
100
AcDbEntity
  8
0
100
AcDbBlockEnd
  0
BLOCK
  5
1C
330
1B
100
AcDbEntity
 67
     1
  8
0
100
AcDbBlockBegin
  2
*PAPER_SPACE
  1

  0
ENDBLK
  5
1D
330
1B
100
AcDbEntity
 67
     1
  8
0
100
AcDbBlockEnd
  0
ENDSEC
  0
SECTION
  2
ENTITIES
  0
LWPOLYLINE
  5
100
100
AcDbEntity
  8
0
 62
7
100
AcDbPolyline
 90
2
 70
0
 10
128.927039
 20
308.479863
 30
0.0
 10
128.927039
 20
349.490265
 30
0.0
  0
LWPOLYLINE
  5
101
100
AcDbEntity
  8
0
 62
7
100
AcDbPolyline
 90
2
 70
0
 10
169.937442
 20
308.479863
 30
0.0
 10
128.927039
 20
308.479863
 30
0.0
  0
LWPOLYLINE
  5
102
100
AcDbEntity
  8
0
 62
7
100
AcDbPolyline
 90
2
 70
0
 10
169.937442
 20
349.490265
 30
0.0
 10
169.937442
 20
308.479863
 30
0.0
  0
LWPOLYLINE
  5
103
100
AcDbEntity
  8
0
 62
7
100
AcDbPolyline
 90
2
 70
0
 10
420.104022
 20
13.198714
 30
0.0
 10
420.104022
 20
54.209117
 30
0.0
  0
LWPOLYLINE
  5
104
100
AcDbEntity
  8
0
 62
7
100
AcDbPolyline
 90
2
 70
0
 10
461.114425
 20
54.209117
 30
0.0
 10
461.114425
 20
13.198714
 30
0.0
  0
LWPOLYLINE
  5
105
100
AcDbEntity
  8
0
 62
7
100
AcDbPolyline
 90
2
 70
0
 10
1422.395345
 20
298.636116
 30
0.0
 10
1442.905755
 20
298.636116
 30
0.0
  0
LWPOLYLINE
  5
106
100
AcDbEntity
  8
0
 62
7
100
AcDbPolyline
 90
2
 70
0
 10
1422.395345
 20
257.625714
 30
0.0
 10
1422.395345
 20
298.636116
 30
0.0
  0
LWPOLYLINE
  5
107
100
AcDbEntity
  8
0
 62
7
100
AcDbPolyline
 90
2
 70
0
 10
1463.405748
 20
257.625714
 30
0.0
 10
1422.395345
 20
257.625714
 30
0.0
  0
LWPOLYLINE
  5
108
100
AcDbEntity
  8
0
 62
7
100
AcDbPolyline
 90
2
 70
0
 10
1463.405748
 20
298.636116
 30
0.0
 10
1463.405748
 20
257.625714
 30
0.0
  0
LWPOLYLINE
  5
109
100
AcDbEntity
  8
0
 62
7
100
AcDbPolyline
 90
2
 70
0
 10
1442.905755
 20
298.636116
 30
0.0
 10
1463.405748
 20
298.636116
 30
0.0
  0
LWPOLYLINE
  5
10a
100
AcDbEntity
  8
0
 62
7
100
AcDbPolyline
 90
2
 70
0
 10
1530.666141
 20
169.042411
 30
0.0
 10
1530.666141
 20
210.052813
 30
0.0
  0
LWPOLYLINE
  5
10b
100
AcDbEntity
  8
0
 62
7
100
AcDbPolyline
 90
2
 70
0
 10
1571.676544
 20
169.042411
 30
0.0
 10
1530.666141
 20
169.042411
 30
0.0
  0
LWPOLYLINE
  5
10c
100
AcDbEntity
  8
0
 62
7
100
AcDbPolyline
 90
2
 70
0
 10
1571.676544
 20
210.052813
 30
0.0
 10
1571.676544
 20
169.042411
 30
0.0
  0
LWPOLYLINE
  5
10d
100
AcDbEntity
  8
0
 62
7
100
AcDbPolyline
 90
2
 70
0
 10
25.583325
 20
162.479913
 30
0.0
 10
25.583325
 20
203.490316
 30
0.0
  0
LWPOLYLINE
  5
10e
100
AcDbEntity
  8
0
 62
7
100
AcDbPolyline
 90
2
 70
0
 10
66.593727
 20
162.479913
 30
0.0
 10
25.583325
 20
162.479913
 30
0.0
  0
LWPOLYLINE
  5
10f
100
AcDbEntity
  8
0
 62
7
100
AcDbPolyline
 90
2
 70
0
 10
66.593727
 20
203.490316
 30
0.0
 10
66.593727
 20
162.479913
 30
0.0
  0
LWPOLYLINE
  5
110
100
AcDbEntity
  8
0
 62
7
100
AcDbPolyline
 90
2
 70
0
 10
480.801918
 20
219.073644
 30
0.0
 10
480.801918
 20
260.084046
 30
0.0
  0
LWPOLYLINE
  5
111
100
AcDbEntity
  8
0
 62
7
100
AcDbPolyline
 90
2
 70
0
 10
521.812321
 20
219.073644
 30
0.0
 10
480.801918
 20
219.073644
 30
0.0
  0
LWPOLYLINE
  5
112
100
AcDbEntity
  8
0
 62
7
100
AcDbPolyline
 90
2
 70
0
 10
521.812321
 20
260.084046
 30
0.0
 10
521.812321
 20
219.073644
 30
0.0
  0
LWPOLYLINE
  5
113
100
AcDbEntity
  8
0
 62
7
100
AcDbPolyline
 90
2
 70
0
 10
1335.457875
 20
47.646619
 30
0.0
 10
1355.957868
 20
47.646619
 30
0.0
  0
LWPOLYLINE
  5
114
100
AcDbEntity
  8
0
 62
7
100
AcDbPolyline
 90
2
 70
0
 10
1335.457875
 20
6.636216
 30
0.0
 10
1335.457875
 20
47.646619
 30
0.0
  0
LWPOLYLINE
  5
115
100
AcDbEntity
  8
0
 62
7
100
AcDbPolyline
 90
2
 70
0
 10
1376.468278
 20
6.636216
 30
0.0
 10
1335.457875
 20
6.636216
 30
0.0
  0
LWPOLYLINE
  5
116
100
AcDbEntity
  8
0
 62
7
100
AcDbPolyline
 90
2
 70
0
 10
1376.468278
 20
47.646619
 30
0.0
 10
1376.468278
 20
6.636216
 30
0.0
  0
LWPOLYLINE
  5
117
100
AcDbEntity
  8
0
 62
7
100
AcDbPolyline
 90
2
 70
0
 10
1355.957868
 20
47.646619
 30
0.0
 10
1376.468278
 20
47.646619
 30
0.0
  0
LWPOLYLINE
  5
118
100
AcDbEntity
  8
0
 62
7
100
AcDbPolyline
 90
2
 70
0
 10
1171.416265
 20
210.875730
 30
0.0
 10
1171.416265
 20
251.886132
 30
0.0
  0
LWPOLYLINE
  5
119
100
AcDbEntity
  8
0
 62
7
100
AcDbPolyline
 90
2
 70
0
 10
1212.426667
 20
210.875730
 30
0.0
 10
1171.416265
 20
210.875730
 30
0.0
  0
LWPOLYLINE
  5
11a
100
AcDbEntity
  8
0
 62
7
100
AcDbPolyline
 90
2
 70
0
 10
366.791541
 20
13.198714
 30
0.0
 10
366.791541
 20
54.209117
 30
0.0
  0
LWPOLYLINE
  5
11b
100
AcDbEntity
  8
0
 62
7
100
AcDbPolyline
 90
2
 70
0
 10
407.801943
 20
54.209117
 30
0.0
 10
407.801943
 20
13.198714
 30
0.0
  0
LWPOLYLINE
  5
11c
100
AcDbEntity
  8
0
 62
7
100
AcDbPolyline
 90
2
 70
0
 10
313.479059
 20
13.198714
 30
0.0
 10
313.479059
 20
54.209117
 30
0.0
  0
LWPOLYLINE
  5
11d
100
AcDbEntity
  8
0
 62
7
100
AcDbPolyline
 90
2
 70
0
 10
354.489462
 20
54.209117
 30
0.0
 10
354.489462
 20
13.198714
 30
0.0
  0
LWPOLYLINE
  5
11e
100
AcDbEntity
  8
0
 62
7
100
AcDbPolyline
 90
2
 70
0
 10
260.166577
 20
13.198714
 30
0.0
 10
260.166577
 20
54.209117
 30
0.0
  0
LWPOLYLINE
  5
11f
100
AcDbEntity
  8
0
 62
7
100
AcDbPolyline
 90
2
 70
0
 10
301.176980
 20
54.209117
 30
0.0
 10
301.176980
 20
13.198714
 30
0.0
  0
LWPOLYLINE
  5
120
100
AcDbEntity
  8
0
 62
7
100
AcDbPolyline
 90
2
 70
0
 10
206.843679
 20
13.198714
 30
0.0
 10
206.843679
 20
54.209117
 30
0.0
  0
LWPOLYLINE
  5
121
100
AcDbEntity
  8
0
 62
7
100
AcDbPolyline
 90
2
 70
0
 10
247.854082
 20
54.209117
 30
0.0
 10
247.854082
 20
13.198714
 30
0.0
  0
LWPOLYLINE
  5
122
100
AcDbEntity
  8
0
 62
7
100
AcDbPolyline
 90
2
 70
0
 10
153.531197
 20
13.198714
 30
0.0
 10
153.531197
 20
54.209117
 30
0.0
  0
LWPOLYLINE
  5
123
100
AcDbEntity
  8
0
 62
7
100
AcDbPolyline
 90
2
 70
0
 10
194.541600
 20
54.209117
 30
0.0
 10
194.541600
 20
13.198714
 30
0.0
  0
LWPOLYLINE
  5
124
100
AcDbEntity
  8
0
 62
7
100
AcDbPolyline
 90
2
 70
0
 10
100.218716
 20
13.198714
 30
0.0
 10
100.218716
 20
54.209117
 30
0.0
  0
LWPOLYLINE
  5
125
100
AcDbEntity
  8
0
 62
7
100
AcDbPolyline
 90
2
 70
0
 10
141.229118
 20
54.209117
 30
0.0
 10
141.229118
 20
13.198714
 30
0.0
  0
LWPOLYLINE
  5
126
100
AcDbEntity
  8
0
 62
7
100
AcDbPolyline
 90
2
 70
0
 10
46.906234
 20
13.198714
 30
0.0
 10
46.906234
 20
54.209117
 30
0.0
  0
LWPOLYLINE
  5
127
100
AcDbEntity
  8
0
 62
7
100
AcDbPolyline
 90
2
 70
0
 10
87.916636
 20
54.209117
 30
0.0
 10
87.916636
 20
13.198714
 30
0.0
  0
LWPOLYLINE
  5
128
100
AcDbEntity
  8
0
 62
7
100
AcDbPolyline
 90
2
 70
0
 10
1511.801565
 20
376.552756
 30
0.0
 10
1532.311974
 20
376.552756
 30
0.0
  0
LWPOLYLINE
  5
129
100
AcDbEntity
  8
0
 62
7
100
AcDbPolyline
 90
2
 70
0
 10
1511.801565
 20
335.542354
 30
0.0
 10
1511.801565
 20
376.552756
 30
0.0
  0
LWPOLYLINE
  5
12a
100
AcDbEntity
  8
0
 62
7
100
AcDbPolyline
 90
2
 70
0
 10
1552.811967
 20
335.542354
 30
0.0
 10
1511.801565
 20
335.542354
 30
0.0
  0
LWPOLYLINE
  5
12b
100
AcDbEntity
  8
0
 62
7
100
AcDbPolyline
 90
2
 70
0
 10
1552.811967
 20
376.552756
 30
0.0
 10
1552.811967
 20
335.542354
 30
0.0
  0
LWPOLYLINE
  5
12c
100
AcDbEntity
  8
0
 62
7
100
AcDbPolyline
 90
2
 70
0
 10
1532.311974
 20
376.552756
 30
0.0
 10
1552.811967
 20
376.552756
 30
0.0
  0
LWPOLYLINE
  5
12d
100
AcDbEntity
  8
0
 62
7
100
AcDbPolyline
 90
2
 70
0
 10
1382.249526
 20
457.427728
 30
0.0
 10
1382.249526
 20
498.438131
 30
0.0
  0
LWPOLYLINE
  5
12e
100
AcDbEntity
  8
0
 62
7
100
AcDbPolyline
 90
2
 70
0
 10
1423.259928
 20
457.427728
 30
0.0
 10
1382.249526
 20
457.427728
 30
0.0
  0
LWPOLYLINE
  5
12f
100
AcDbEntity
  8
0
 62
7
100
AcDbPolyline
 90
2
 70
0
 10
1423.259928
 20
498.438131
 30
0.0
 10
1423.259928
 20
457.427728
 30
0.0
  0
LWPOLYLINE
  5
130
100
AcDbEntity
  8
0
 62
7
100
AcDbPolyline
 90
2
 70
0
 10
501.301911
 20
30.427875
 30
0.0
 10
501.301911
 20
71.438278
 30
0.0
  0
LWPOLYLINE
  5
131
100
AcDbEntity
  8
0
 62
7
100
AcDbPolyline
 90
2
 70
0
 10
542.312314
 20
30.427875
 30
0.0
 10
501.301911
 20
30.427875
 30
0.0
  0
LWPOLYLINE
  5
132
100
AcDbEntity
  8
0
 62
7
100
AcDbPolyline
 90
2
 70
0
 10
542.312314
 20
71.438278
 30
0.0
 10
542.312314
 20
30.427875
 30
0.0
  0
LWPOLYLINE
  5
133
100
AcDbEntity
  8
0
 62
7
100
AcDbPolyline
 90
2
 70
0
 10
60.031229
 20
235.479888
 30
0.0
 10
60.031229
 20
276.490291
 30
0.0
  0
LWPOLYLINE
  5
134
100
AcDbEntity
  8
0
 62
7
100
AcDbPolyline
 90
2
 70
0
 10
101.041632
 20
235.479888
 30
0.0
 10
60.031229
 20
235.479888
 30
0.0
  0
LWPOLYLINE
  5
135
100
AcDbEntity
  8
0
 62
7
100
AcDbPolyline
 90
2
 70
0
 10
101.041632
 20
276.490291
 30
0.0
 10
101.041632
 20
235.479888
 30
0.0
  0
LWPOLYLINE
  5
136
100
AcDbEntity
  8
0
 62
7
100
AcDbPolyline
 90
2
 70
0
 10
20.656243
 20
317.500693
 30
0.0
 10
20.656243
 20
358.511096
 30
0.0
  0
LWPOLYLINE
  5
137
100
AcDbEntity
  8
0
 62
7
100
AcDbPolyline
 90
2
 70
0
 10
61.666646
 20
317.500693
 30
0.0
 10
20.656243
 20
317.500693
 30
0.0
  0
LWPOLYLINE
  5
138
100
AcDbEntity
  8
0
 62
7
100
AcDbPolyline
 90
2
 70
0
 10
61.666646
 20
358.511096
 30
0.0
 10
61.666646
 20
317.500693
 30
0.0
  0
LWPOLYLINE
  5
139
100
AcDbEntity
  8
0
 62
7
100
AcDbPolyline
 90
2
 70
0
 10
412.718608
 20
315.854860
 30
0.0
 10
433.229018
 20
315.854860
 30
0.0
  0
LWPOLYLINE
  5
13a
100
AcDbEntity
  8
0
 62
7
100
AcDbPolyline
 90
2
 70
0
 10
412.718608
 20
274.844458
 30
0.0
 10
412.718608
 20
315.854860
 30
0.0
  0
LWPOLYLINE
  5
13b
100
AcDbEntity
  8
0
 62
7
100
AcDbPolyline
 90
2
 70
0
 10
453.729011
 20
274.844458
 30
0.0
 10
412.718608
 20
274.844458
 30
0.0
  0
LWPOLYLINE
  5
13c
100
AcDbEntity
  8
0
 62
7
100
AcDbPolyline
 90
2
 70
0
 10
453.729011
 20
315.854860
 30
0.0
 10
453.729011
 20
274.844458
 30
0.0
  0
LWPOLYLINE
  5
13d
100
AcDbEntity
  8
0
 62
7
100
AcDbPolyline
 90
2
 70
0
 10
433.229018
 20
315.854860
 30
0.0
 10
453.729011
 20
315.854860
 30
0.0
  0
LWPOLYLINE
  5
13e
100
AcDbEntity
  8
0
 62
7
100
AcDbPolyline
 90
2
 70
0
 10
501.916494
 20
139.511171
 30
0.0
 10
501.916494
 20
180.521573
 30
0.0
  0
LWPOLYLINE
  5
13f
100
AcDbEntity
  8
0
 62
7
100
AcDbPolyline
 90
2
 70
0
 10
542.926897
 20
139.511171
 30
0.0
 10
501.916494
 20
139.511171
 30
0.0
  0
LWPOLYLINE
  5
140
100
AcDbEntity
  8
0
 62
7
100
AcDbPolyline
 90
2
 70
0
 10
542.926897
 20
180.521573
 30
0.0
 10
542.926897
 20
139.511171
 30
0.0
  0
LWPOLYLINE
  5
141
100
AcDbEntity
  8
0
 62
7
100
AcDbPolyline
 90
2
 70
0
 10
420.104022
 20
66.511196
 30
0.0
 10
420.104022
 20
107.521599
 30
0.0
  0
LWPOLYLINE
  5
142
100
AcDbEntity
  8
0
 62
7
100
AcDbPolyline
 90
2
 70
0
 10
461.114425
 20
107.521599
 30
0.0
 10
461.114425
 20
66.511196
 30
0.0
  0
LWPOLYLINE
  5
143
100
AcDbEntity
  8
0
 62
7
100
AcDbPolyline
 90
2
 70
0
 10
366.791541
 20
66.511196
 30
0.0
 10
366.791541
 20
107.521599
 30
0.0
  0
LWPOLYLINE
  5
144
100
AcDbEntity
  8
0
 62
7
100
AcDbPolyline
 90
2
 70
0
 10
407.801943
 20
107.521599
 30
0.0
 10
407.801943
 20
66.511196
 30
0.0
  0
LWPOLYLINE
  5
145
100
AcDbEntity
  8
0
 62
7
100
AcDbPolyline
 90
2
 70
0
 10
313.479059
 20
66.511196
 30
0.0
 10
313.479059
 20
107.521599
 30
0.0
  0
LWPOLYLINE
  5
146
100
AcDbEntity
  8
0
 62
7
100
AcDbPolyline
 90
2
 70
0
 10
354.489462
 20
107.521599
 30
0.0
 10
354.489462
 20
66.511196
 30
0.0
  0
LWPOLYLINE
  5
147
100
AcDbEntity
  8
0
 62
7
100
AcDbPolyline
 90
2
 70
0
 10
260.166577
 20
66.511196
 30
0.0
 10
260.166577
 20
107.521599
 30
0.0
  0
LWPOLYLINE
  5
148
100
AcDbEntity
  8
0
 62
7
100
AcDbPolyline
 90
2
 70
0
 10
301.176980
 20
107.521599
 30
0.0
 10
301.176980
 20
66.511196
 30
0.0
  0
LWPOLYLINE
  5
149
100
AcDbEntity
  8
0
 62
7
100
AcDbPolyline
 90
2
 70
0
 10
206.843679
 20
66.511196
 30
0.0
 10
206.843679
 20
107.521599
 30
0.0
  0
LWPOLYLINE
  5
14a
100
AcDbEntity
  8
0
 62
7
100
AcDbPolyline
 90
2
 70
0
 10
247.854082
 20
107.521599
 30
0.0
 10
247.854082
 20
66.511196
 30
0.0
  0
LWPOLYLINE
  5
14b
100
AcDbEntity
  8
0
 62
7
100
AcDbPolyline
 90
2
 70
0
 10
153.531197
 20
66.511196
 30
0.0
 10
153.531197
 20
107.521599
 30
0.0
  0
LWPOLYLINE
  5
14c
100
AcDbEntity
  8
0
 62
7
100
AcDbPolyline
 90
2
 70
0
 10
194.541600
 20
107.521599
 30
0.0
 10
194.541600
 20
66.511196
 30
0.0
  0
LWPOLYLINE
  5
14d
100
AcDbEntity
  8
0
 62
7
100
AcDbPolyline
 90
2
 70
0
 10
100.218716
 20
66.511196
 30
0.0
 10
100.218716
 20
107.521599
 30
0.0
  0
LWPOLYLINE
  5
14e
100
AcDbEntity
  8
0
 62
7
100
AcDbPolyline
 90
2
 70
0
 10
141.229118
 20
107.521599
 30
0.0
 10
141.229118
 20
66.511196
 30
0.0
  0
LWPOLYLINE
  5
14f
100
AcDbEntity
  8
0
 62
7
100
AcDbPolyline
 90
2
 70
0
 10
46.906234
 20
66.511196
 30
0.0
 10
46.906234
 20
107.521599
 30
0.0
  0
LWPOLYLINE
  5
150
100
AcDbEntity
  8
0
 62
7
100
AcDbPolyline
 90
2
 70
0
 10
87.916636
 20
107.521599
 30
0.0
 10
87.916636
 20
66.511196
 30
0.0
  0
LWPOLYLINE
  5
151
100
AcDbEntity
  8
0
 62
7
100
AcDbPolyline
 90
2
 70
0
 10
420.104022
 20
13.198714
 30
0.0
 10
420.104022
 20
54.209117
 30
0.0
  0
LWPOLYLINE
  5
152
100
AcDbEntity
  8
0
 62
7
100
AcDbPolyline
 90
2
 70
0
 10
461.114425
 20
13.198714
 30
0.0
 10
420.104022
 20
13.198714
 30
0.0
  0
LWPOLYLINE
  5
153
100
AcDbEntity
  8
0
 62
7
100
AcDbPolyline
 90
2
 70
0
 10
461.114425
 20
54.209117
 30
0.0
 10
461.114425
 20
13.198714
 30
0.0
  0
LWPOLYLINE
  5
154
100
AcDbEntity
  8
0
 62
7
100
AcDbPolyline
 90
2
 70
0
 10
420.104022
 20
54.209117
 30
0.0
 10
461.114425
 20
54.209117
 30
0.0
  0
LWPOLYLINE
  5
155
100
AcDbEntity
  8
0
 62
7
100
AcDbPolyline
 90
2
 70
0
 10
1422.395345
 20
257.625714
 30
0.0
 10
1422.395345
 20
298.636116
 30
0.0
  0
LWPOLYLINE
  5
156
100
AcDbEntity
  8
0
 62
7
100
AcDbPolyline
 90
2
 70
0
 10
1463.405748
 20
257.625714
 30
0.0
 10
1422.395345
 20
257.625714
 30
0.0
  0
LWPOLYLINE
  5
157
100
AcDbEntity
  8
0
 62
7
100
AcDbPolyline
 90
2
 70
0
 10
1463.405748
 20
298.636116
 30
0.0
 10
1463.405748
 20
257.625714
 30
0.0
  0
LWPOLYLINE
  5
158
100
AcDbEntity
  8
0
 62
7
100
AcDbPolyline
 90
2
 70
0
 10
1422.395345
 20
298.636116
 30
0.0
 10
1463.405748
 20
298.636116
 30
0.0
  0
LWPOLYLINE
  5
159
100
AcDbEntity
  8
0
 62
7
100
AcDbPolyline
 90
2
 70
0
 10
1530.666141
 20
169.042411
 30
0.0
 10
1530.666141
 20
210.052813
 30
0.0
  0
LWPOLYLINE
  5
15a
100
AcDbEntity
  8
0
 62
7
100
AcDbPolyline
 90
2
 70
0
 10
1571.676544
 20
169.042411
 30
0.0
 10
1530.666141
 20
169.042411
 30
0.0
  0
LWPOLYLINE
  5
15b
100
AcDbEntity
  8
0
 62
7
100
AcDbPolyline
 90
2
 70
0
 10
1571.676544
 20
210.052813
 30
0.0
 10
1571.676544
 20
169.042411
 30
0.0
  0
LWPOLYLINE
  5
15c
100
AcDbEntity
  8
0
 62
7
100
AcDbPolyline
 90
2
 70
0
 10
1530.666141
 20
210.052813
 30
0.0
 10
1571.676544
 20
210.052813
 30
0.0
  0
LWPOLYLINE
  5
15d
100
AcDbEntity
  8
0
 62
7
100
AcDbPolyline
 90
2
 70
0
 10
25.583325
 20
162.479913
 30
0.0
 10
25.583325
 20
203.490316
 30
0.0
  0
LWPOLYLINE
  5
15e
100
AcDbEntity
  8
0
 62
7
100
AcDbPolyline
 90
2
 70
0
 10
66.593727
 20
162.479913
 30
0.0
 10
25.583325
 20
162.479913
 30
0.0
  0
LWPOLYLINE
  5
15f
100
AcDbEntity
  8
0
 62
7
100
AcDbPolyline
 90
2
 70
0
 10
66.593727
 20
203.490316
 30
0.0
 10
66.593727
 20
162.479913
 30
0.0
  0
LWPOLYLINE
  5
160
100
AcDbEntity
  8
0
 62
7
100
AcDbPolyline
 90
2
 70
0
 10
25.583325
 20
203.490316
 30
0.0
 10
66.593727
 20
203.490316
 30
0.0
  0
LWPOLYLINE
  5
161
100
AcDbEntity
  8
0
 62
7
100
AcDbPolyline
 90
2
 70
0
 10
480.801918
 20
219.073644
 30
0.0
 10
480.801918
 20
260.084046
 30
0.0
  0
LWPOLYLINE
  5
162
100
AcDbEntity
  8
0
 62
7
100
AcDbPolyline
 90
2
 70
0
 10
521.812321
 20
219.073644
 30
0.0
 10
480.801918
 20
219.073644
 30
0.0
  0
LWPOLYLINE
  5
163
100
AcDbEntity
  8
0
 62
7
100
AcDbPolyline
 90
2
 70
0
 10
521.812321
 20
260.084046
 30
0.0
 10
521.812321
 20
219.073644
 30
0.0
  0
LWPOLYLINE
  5
164
100
AcDbEntity
  8
0
 62
7
100
AcDbPolyline
 90
2
 70
0
 10
480.801918
 20
260.084046
 30
0.0
 10
521.812321
 20
260.084046
 30
0.0
  0
LWPOLYLINE
  5
165
100
AcDbEntity
  8
0
 62
7
100
AcDbPolyline
 90
2
 70
0
 10
1335.457875
 20
6.636216
 30
0.0
 10
1335.457875
 20
47.646619
 30
0.0
  0
LWPOLYLINE
  5
166
100
AcDbEntity
  8
0
 62
7
100
AcDbPolyline
 90
2
 70
0
 10
1376.468278
 20
6.636216
 30
0.0
 10
1335.457875
 20
6.636216
 30
0.0
  0
LWPOLYLINE
  5
167
100
AcDbEntity
  8
0
 62
7
100
AcDbPolyline
 90
2
 70
0
 10
1376.468278
 20
47.646619
 30
0.0
 10
1376.468278
 20
6.636216
 30
0.0
  0
LWPOLYLINE
  5
168
100
AcDbEntity
  8
0
 62
7
100
AcDbPolyline
 90
2
 70
0
 10
1335.457875
 20
47.646619
 30
0.0
 10
1376.468278
 20
47.646619
 30
0.0
  0
LWPOLYLINE
  5
169
100
AcDbEntity
  8
0
 62
7
100
AcDbPolyline
 90
2
 70
0
 10
1171.416265
 20
210.875730
 30
0.0
 10
1171.416265
 20
251.886132
 30
0.0
  0
LWPOLYLINE
  5
16a
100
AcDbEntity
  8
0
 62
7
100
AcDbPolyline
 90
2
 70
0
 10
1212.426667
 20
210.875730
 30
0.0
 10
1171.416265
 20
210.875730
 30
0.0
  0
LWPOLYLINE
  5
16b
100
AcDbEntity
  8
0
 62
7
100
AcDbPolyline
 90
2
 70
0
 10
1212.426667
 20
251.886132
 30
0.0
 10
1212.426667
 20
210.875730
 30
0.0
  0
LWPOLYLINE
  5
16c
100
AcDbEntity
  8
0
 62
7
100
AcDbPolyline
 90
2
 70
0
 10
1171.416265
 20
251.886132
 30
0.0
 10
1212.426667
 20
251.886132
 30
0.0
  0
LWPOLYLINE
  5
16d
100
AcDbEntity
  8
0
 62
7
100
AcDbPolyline
 90
2
 70
0
 10
366.791541
 20
13.198714
 30
0.0
 10
366.791541
 20
54.209117
 30
0.0
  0
LWPOLYLINE
  5
16e
100
AcDbEntity
  8
0
 62
7
100
AcDbPolyline
 90
2
 70
0
 10
407.801943
 20
13.198714
 30
0.0
 10
366.791541
 20
13.198714
 30
0.0
  0
LWPOLYLINE
  5
16f
100
AcDbEntity
  8
0
 62
7
100
AcDbPolyline
 90
2
 70
0
 10
407.801943
 20
54.209117
 30
0.0
 10
407.801943
 20
13.198714
 30
0.0
  0
LWPOLYLINE
  5
170
100
AcDbEntity
  8
0
 62
7
100
AcDbPolyline
 90
2
 70
0
 10
366.791541
 20
54.209117
 30
0.0
 10
407.801943
 20
54.209117
 30
0.0
  0
LWPOLYLINE
  5
171
100
AcDbEntity
  8
0
 62
7
100
AcDbPolyline
 90
2
 70
0
 10
313.479059
 20
13.198714
 30
0.0
 10
313.479059
 20
54.209117
 30
0.0
  0
LWPOLYLINE
  5
172
100
AcDbEntity
  8
0
 62
7
100
AcDbPolyline
 90
2
 70
0
 10
354.489462
 20
13.198714
 30
0.0
 10
313.479059
 20
13.198714
 30
0.0
  0
LWPOLYLINE
  5
173
100
AcDbEntity
  8
0
 62
7
100
AcDbPolyline
 90
2
 70
0
 10
354.489462
 20
54.209117
 30
0.0
 10
354.489462
 20
13.198714
 30
0.0
  0
LWPOLYLINE
  5
174
100
AcDbEntity
  8
0
 62
7
100
AcDbPolyline
 90
2
 70
0
 10
313.479059
 20
54.209117
 30
0.0
 10
354.489462
 20
54.209117
 30
0.0
  0
LWPOLYLINE
  5
175
100
AcDbEntity
  8
0
 62
7
100
AcDbPolyline
 90
2
 70
0
 10
260.166577
 20
13.198714
 30
0.0
 10
260.166577
 20
54.209117
 30
0.0
  0
LWPOLYLINE
  5
176
100
AcDbEntity
  8
0
 62
7
100
AcDbPolyline
 90
2
 70
0
 10
301.176980
 20
13.198714
 30
0.0
 10
260.166577
 20
13.198714
 30
0.0
  0
LWPOLYLINE
  5
177
100
AcDbEntity
  8
0
 62
7
100
AcDbPolyline
 90
2
 70
0
 10
301.176980
 20
54.209117
 30
0.0
 10
301.176980
 20
13.198714
 30
0.0
  0
LWPOLYLINE
  5
178
100
AcDbEntity
  8
0
 62
7
100
AcDbPolyline
 90
2
 70
0
 10
260.166577
 20
54.209117
 30
0.0
 10
301.176980
 20
54.209117
 30
0.0
  0
LWPOLYLINE
  5
179
100
AcDbEntity
  8
0
 62
7
100
AcDbPolyline
 90
2
 70
0
 10
206.843679
 20
13.198714
 30
0.0
 10
206.843679
 20
54.209117
 30
0.0
  0
LWPOLYLINE
  5
17a
100
AcDbEntity
  8
0
 62
7
100
AcDbPolyline
 90
2
 70
0
 10
247.854082
 20
13.198714
 30
0.0
 10
206.843679
 20
13.198714
 30
0.0
  0
LWPOLYLINE
  5
17b
100
AcDbEntity
  8
0
 62
7
100
AcDbPolyline
 90
2
 70
0
 10
247.854082
 20
54.209117
 30
0.0
 10
247.854082
 20
13.198714
 30
0.0
  0
LWPOLYLINE
  5
17c
100
AcDbEntity
  8
0
 62
7
100
AcDbPolyline
 90
2
 70
0
 10
206.843679
 20
54.209117
 30
0.0
 10
247.854082
 20
54.209117
 30
0.0
  0
LWPOLYLINE
  5
17d
100
AcDbEntity
  8
0
 62
7
100
AcDbPolyline
 90
2
 70
0
 10
153.531197
 20
13.198714
 30
0.0
 10
153.531197
 20
54.209117
 30
0.0
  0
LWPOLYLINE
  5
17e
100
AcDbEntity
  8
0
 62
7
100
AcDbPolyline
 90
2
 70
0
 10
194.541600
 20
13.198714
 30
0.0
 10
153.531197
 20
13.198714
 30
0.0
  0
LWPOLYLINE
  5
17f
100
AcDbEntity
  8
0
 62
7
100
AcDbPolyline
 90
2
 70
0
 10
194.541600
 20
54.209117
 30
0.0
 10
194.541600
 20
13.198714
 30
0.0
  0
LWPOLYLINE
  5
180
100
AcDbEntity
  8
0
 62
7
100
AcDbPolyline
 90
2
 70
0
 10
153.531197
 20
54.209117
 30
0.0
 10
194.541600
 20
54.209117
 30
0.0
  0
LWPOLYLINE
  5
181
100
AcDbEntity
  8
0
 62
7
100
AcDbPolyline
 90
2
 70
0
 10
100.218716
 20
13.198714
 30
0.0
 10
100.218716
 20
54.209117
 30
0.0
  0
LWPOLYLINE
  5
182
100
AcDbEntity
  8
0
 62
7
100
AcDbPolyline
 90
2
 70
0
 10
141.229118
 20
13.198714
 30
0.0
 10
100.218716
 20
13.198714
 30
0.0
  0
LWPOLYLINE
  5
183
100
AcDbEntity
  8
0
 62
7
100
AcDbPolyline
 90
2
 70
0
 10
141.229118
 20
54.209117
 30
0.0
 10
141.229118
 20
13.198714
 30
0.0
  0
LWPOLYLINE
  5
184
100
AcDbEntity
  8
0
 62
7
100
AcDbPolyline
 90
2
 70
0
 10
100.218716
 20
54.209117
 30
0.0
 10
141.229118
 20
54.209117
 30
0.0
  0
LWPOLYLINE
  5
185
100
AcDbEntity
  8
0
 62
7
100
AcDbPolyline
 90
2
 70
0
 10
46.906234
 20
13.198714
 30
0.0
 10
46.906234
 20
54.209117
 30
0.0
  0
LWPOLYLINE
  5
186
100
AcDbEntity
  8
0
 62
7
100
AcDbPolyline
 90
2
 70
0
 10
87.916636
 20
13.198714
 30
0.0
 10
46.906234
 20
13.198714
 30
0.0
  0
LWPOLYLINE
  5
187
100
AcDbEntity
  8
0
 62
7
100
AcDbPolyline
 90
2
 70
0
 10
87.916636
 20
54.209117
 30
0.0
 10
87.916636
 20
13.198714
 30
0.0
  0
LWPOLYLINE
  5
188
100
AcDbEntity
  8
0
 62
7
100
AcDbPolyline
 90
2
 70
0
 10
46.906234
 20
54.209117
 30
0.0
 10
87.916636
 20
54.209117
 30
0.0
  0
LWPOLYLINE
  5
189
100
AcDbEntity
  8
0
 62
7
100
AcDbPolyline
 90
2
 70
0
 10
1511.801565
 20
335.542354
 30
0.0
 10
1511.801565
 20
376.552756
 30
0.0
  0
LWPOLYLINE
  5
18a
100
AcDbEntity
  8
0
 62
7
100
AcDbPolyline
 90
2
 70
0
 10
1552.811967
 20
335.542354
 30
0.0
 10
1511.801565
 20
335.542354
 30
0.0
  0
LWPOLYLINE
  5
18b
100
AcDbEntity
  8
0
 62
7
100
AcDbPolyline
 90
2
 70
0
 10
1552.811967
 20
376.552756
 30
0.0
 10
1552.811967
 20
335.542354
 30
0.0
  0
LWPOLYLINE
  5
18c
100
AcDbEntity
  8
0
 62
7
100
AcDbPolyline
 90
2
 70
0
 10
1511.801565
 20
376.552756
 30
0.0
 10
1552.811967
 20
376.552756
 30
0.0
  0
LWPOLYLINE
  5
18d
100
AcDbEntity
  8
0
 62
7
100
AcDbPolyline
 90
2
 70
0
 10
1382.249526
 20
457.427728
 30
0.0
 10
1382.249526
 20
498.438131
 30
0.0
  0
LWPOLYLINE
  5
18e
100
AcDbEntity
  8
0
 62
7
100
AcDbPolyline
 90
2
 70
0
 10
1423.259928
 20
457.427728
 30
0.0
 10
1382.249526
 20
457.427728
 30
0.0
  0
LWPOLYLINE
  5
18f
100
AcDbEntity
  8
0
 62
7
100
AcDbPolyline
 90
2
 70
0
 10
1423.259928
 20
498.438131
 30
0.0
 10
1423.259928
 20
457.427728
 30
0.0
  0
LWPOLYLINE
  5
190
100
AcDbEntity
  8
0
 62
7
100
AcDbPolyline
 90
2
 70
0
 10
1382.249526
 20
498.438131
 30
0.0
 10
1423.259928
 20
498.438131
 30
0.0
  0
LWPOLYLINE
  5
191
100
AcDbEntity
  8
0
 62
7
100
AcDbPolyline
 90
2
 70
0
 10
501.301911
 20
30.427875
 30
0.0
 10
501.301911
 20
71.438278
 30
0.0
  0
LWPOLYLINE
  5
192
100
AcDbEntity
  8
0
 62
7
100
AcDbPolyline
 90
2
 70
0
 10
542.312314
 20
30.427875
 30
0.0
 10
501.301911
 20
30.427875
 30
0.0
  0
LWPOLYLINE
  5
193
100
AcDbEntity
  8
0
 62
7
100
AcDbPolyline
 90
2
 70
0
 10
542.312314
 20
71.438278
 30
0.0
 10
542.312314
 20
30.427875
 30
0.0
  0
LWPOLYLINE
  5
194
100
AcDbEntity
  8
0
 62
7
100
AcDbPolyline
 90
2
 70
0
 10
501.301911
 20
71.438278
 30
0.0
 10
542.312314
 20
71.438278
 30
0.0
  0
LWPOLYLINE
  5
195
100
AcDbEntity
  8
0
 62
7
100
AcDbPolyline
 90
2
 70
0
 10
60.031229
 20
235.479888
 30
0.0
 10
60.031229
 20
276.490291
 30
0.0
  0
LWPOLYLINE
  5
196
100
AcDbEntity
  8
0
 62
7
100
AcDbPolyline
 90
2
 70
0
 10
101.041632
 20
235.479888
 30
0.0
 10
60.031229
 20
235.479888
 30
0.0
  0
LWPOLYLINE
  5
197
100
AcDbEntity
  8
0
 62
7
100
AcDbPolyline
 90
2
 70
0
 10
101.041632
 20
276.490291
 30
0.0
 10
101.041632
 20
235.479888
 30
0.0
  0
LWPOLYLINE
  5
198
100
AcDbEntity
  8
0
 62
7
100
AcDbPolyline
 90
2
 70
0
 10
60.031229
 20
276.490291
 30
0.0
 10
101.041632
 20
276.490291
 30
0.0
  0
LWPOLYLINE
  5
199
100
AcDbEntity
  8
0
 62
7
100
AcDbPolyline
 90
2
 70
0
 10
20.656243
 20
317.500693
 30
0.0
 10
20.656243
 20
358.511096
 30
0.0
  0
LWPOLYLINE
  5
19a
100
AcDbEntity
  8
0
 62
7
100
AcDbPolyline
 90
2
 70
0
 10
61.666646
 20
317.500693
 30
0.0
 10
20.656243
 20
317.500693
 30
0.0
  0
LWPOLYLINE
  5
19b
100
AcDbEntity
  8
0
 62
7
100
AcDbPolyline
 90
2
 70
0
 10
61.666646
 20
358.511096
 30
0.0
 10
61.666646
 20
317.500693
 30
0.0
  0
LWPOLYLINE
  5
19c
100
AcDbEntity
  8
0
 62
7
100
AcDbPolyline
 90
2
 70
0
 10
20.656243
 20
358.511096
 30
0.0
 10
61.666646
 20
358.511096
 30
0.0
  0
LWPOLYLINE
  5
19d
100
AcDbEntity
  8
0
 62
7
100
AcDbPolyline
 90
2
 70
0
 10
128.958945
 20
308.497550
 30
0.0
 10
128.958945
 20
349.507953
 30
0.0
  0
LWPOLYLINE
  5
19e
100
AcDbEntity
  8
0
 62
7
100
AcDbPolyline
 90
2
 70
0
 10
169.969348
 20
308.497550
 30
0.0
 10
128.958945
 20
308.497550
 30
0.0
  0
LWPOLYLINE
  5
19f
100
AcDbEntity
  8
0
 62
7
100
AcDbPolyline
 90
2
 70
0
 10
169.969348
 20
349.507953
 30
0.0
 10
169.969348
 20
308.497550
 30
0.0
  0
LWPOLYLINE
  5
1a0
100
AcDbEntity
  8
0
 62
7
100
AcDbPolyline
 90
2
 70
0
 10
128.958945
 20
349.507953
 30
0.0
 10
169.969348
 20
349.507953
 30
0.0
  0
LWPOLYLINE
  5
1a1
100
AcDbEntity
  8
0
 62
7
100
AcDbPolyline
 90
2
 70
0
 10
412.718608
 20
274.844458
 30
0.0
 10
412.718608
 20
315.854860
 30
0.0
  0
LWPOLYLINE
  5
1a2
100
AcDbEntity
  8
0
 62
7
100
AcDbPolyline
 90
2
 70
0
 10
453.729011
 20
274.844458
 30
0.0
 10
412.718608
 20
274.844458
 30
0.0
  0
LWPOLYLINE
  5
1a3
100
AcDbEntity
  8
0
 62
7
100
AcDbPolyline
 90
2
 70
0
 10
453.729011
 20
315.854860
 30
0.0
 10
453.729011
 20
274.844458
 30
0.0
  0
LWPOLYLINE
  5
1a4
100
AcDbEntity
  8
0
 62
7
100
AcDbPolyline
 90
2
 70
0
 10
412.718608
 20
315.854860
 30
0.0
 10
453.729011
 20
315.854860
 30
0.0
  0
LWPOLYLINE
  5
1a5
100
AcDbEntity
  8
0
 62
7
100
AcDbPolyline
 90
2
 70
0
 10
501.916494
 20
139.511171
 30
0.0
 10
501.916494
 20
180.521573
 30
0.0
  0
LWPOLYLINE
  5
1a6
100
AcDbEntity
  8
0
 62
7
100
AcDbPolyline
 90
2
 70
0
 10
542.926897
 20
139.511171
 30
0.0
 10
501.916494
 20
139.511171
 30
0.0
  0
LWPOLYLINE
  5
1a7
100
AcDbEntity
  8
0
 62
7
100
AcDbPolyline
 90
2
 70
0
 10
542.926897
 20
180.521573
 30
0.0
 10
542.926897
 20
139.511171
 30
0.0
  0
LWPOLYLINE
  5
1a8
100
AcDbEntity
  8
0
 62
7
100
AcDbPolyline
 90
2
 70
0
 10
501.916494
 20
180.521573
 30
0.0
 10
542.926897
 20
180.521573
 30
0.0
  0
LWPOLYLINE
  5
1a9
100
AcDbEntity
  8
0
 62
7
100
AcDbPolyline
 90
2
 70
0
 10
420.104022
 20
66.511196
 30
0.0
 10
420.104022
 20
107.521599
 30
0.0
  0
LWPOLYLINE
  5
1aa
100
AcDbEntity
  8
0
 62
7
100
AcDbPolyline
 90
2
 70
0
 10
461.114425
 20
66.511196
 30
0.0
 10
420.104022
 20
66.511196
 30
0.0
  0
LWPOLYLINE
  5
1ab
100
AcDbEntity
  8
0
 62
7
100
AcDbPolyline
 90
2
 70
0
 10
461.114425
 20
107.521599
 30
0.0
 10
461.114425
 20
66.511196
 30
0.0
  0
LWPOLYLINE
  5
1ac
100
AcDbEntity
  8
0
 62
7
100
AcDbPolyline
 90
2
 70
0
 10
420.104022
 20
107.521599
 30
0.0
 10
461.114425
 20
107.521599
 30
0.0
  0
LWPOLYLINE
  5
1ad
100
AcDbEntity
  8
0
 62
7
100
AcDbPolyline
 90
2
 70
0
 10
366.791541
 20
66.511196
 30
0.0
 10
366.791541
 20
107.521599
 30
0.0
  0
LWPOLYLINE
  5
1ae
100
AcDbEntity
  8
0
 62
7
100
AcDbPolyline
 90
2
 70
0
 10
407.801943
 20
66.511196
 30
0.0
 10
366.791541
 20
66.511196
 30
0.0
  0
LWPOLYLINE
  5
1af
100
AcDbEntity
  8
0
 62
7
100
AcDbPolyline
 90
2
 70
0
 10
407.801943
 20
107.521599
 30
0.0
 10
407.801943
 20
66.511196
 30
0.0
  0
LWPOLYLINE
  5
1b0
100
AcDbEntity
  8
0
 62
7
100
AcDbPolyline
 90
2
 70
0
 10
366.791541
 20
107.521599
 30
0.0
 10
407.801943
 20
107.521599
 30
0.0
  0
LWPOLYLINE
  5
1b1
100
AcDbEntity
  8
0
 62
7
100
AcDbPolyline
 90
2
 70
0
 10
313.479059
 20
66.511196
 30
0.0
 10
313.479059
 20
107.521599
 30
0.0
  0
LWPOLYLINE
  5
1b2
100
AcDbEntity
  8
0
 62
7
100
AcDbPolyline
 90
2
 70
0
 10
354.489462
 20
66.511196
 30
0.0
 10
313.479059
 20
66.511196
 30
0.0
  0
LWPOLYLINE
  5
1b3
100
AcDbEntity
  8
0
 62
7
100
AcDbPolyline
 90
2
 70
0
 10
354.489462
 20
107.521599
 30
0.0
 10
354.489462
 20
66.511196
 30
0.0
  0
LWPOLYLINE
  5
1b4
100
AcDbEntity
  8
0
 62
7
100
AcDbPolyline
 90
2
 70
0
 10
313.479059
 20
107.521599
 30
0.0
 10
354.489462
 20
107.521599
 30
0.0
  0
LWPOLYLINE
  5
1b5
100
AcDbEntity
  8
0
 62
7
100
AcDbPolyline
 90
2
 70
0
 10
260.166577
 20
66.511196
 30
0.0
 10
260.166577
 20
107.521599
 30
0.0
  0
LWPOLYLINE
  5
1b6
100
AcDbEntity
  8
0
 62
7
100
AcDbPolyline
 90
2
 70
0
 10
301.176980
 20
66.511196
 30
0.0
 10
260.166577
 20
66.511196
 30
0.0
  0
LWPOLYLINE
  5
1b7
100
AcDbEntity
  8
0
 62
7
100
AcDbPolyline
 90
2
 70
0
 10
301.176980
 20
107.521599
 30
0.0
 10
301.176980
 20
66.511196
 30
0.0
  0
LWPOLYLINE
  5
1b8
100
AcDbEntity
  8
0
 62
7
100
AcDbPolyline
 90
2
 70
0
 10
260.166577
 20
107.521599
 30
0.0
 10
301.176980
 20
107.521599
 30
0.0
  0
LWPOLYLINE
  5
1b9
100
AcDbEntity
  8
0
 62
7
100
AcDbPolyline
 90
2
 70
0
 10
206.843679
 20
66.511196
 30
0.0
 10
206.843679
 20
107.521599
 30
0.0
  0
LWPOLYLINE
  5
1ba
100
AcDbEntity
  8
0
 62
7
100
AcDbPolyline
 90
2
 70
0
 10
247.854082
 20
66.511196
 30
0.0
 10
206.843679
 20
66.511196
 30
0.0
  0
LWPOLYLINE
  5
1bb
100
AcDbEntity
  8
0
 62
7
100
AcDbPolyline
 90
2
 70
0
 10
247.854082
 20
107.521599
 30
0.0
 10
247.854082
 20
66.511196
 30
0.0
  0
LWPOLYLINE
  5
1bc
100
AcDbEntity
  8
0
 62
7
100
AcDbPolyline
 90
2
 70
0
 10
206.843679
 20
107.521599
 30
0.0
 10
247.854082
 20
107.521599
 30
0.0
  0
LWPOLYLINE
  5
1bd
100
AcDbEntity
  8
0
 62
7
100
AcDbPolyline
 90
2
 70
0
 10
153.531197
 20
66.511196
 30
0.0
 10
153.531197
 20
107.521599
 30
0.0
  0
LWPOLYLINE
  5
1be
100
AcDbEntity
  8
0
 62
7
100
AcDbPolyline
 90
2
 70
0
 10
194.541600
 20
66.511196
 30
0.0
 10
153.531197
 20
66.511196
 30
0.0
  0
LWPOLYLINE
  5
1bf
100
AcDbEntity
  8
0
 62
7
100
AcDbPolyline
 90
2
 70
0
 10
194.541600
 20
107.521599
 30
0.0
 10
194.541600
 20
66.511196
 30
0.0
  0
LWPOLYLINE
  5
1c0
100
AcDbEntity
  8
0
 62
7
100
AcDbPolyline
 90
2
 70
0
 10
153.531197
 20
107.521599
 30
0.0
 10
194.541600
 20
107.521599
 30
0.0
  0
LWPOLYLINE
  5
1c1
100
AcDbEntity
  8
0
 62
7
100
AcDbPolyline
 90
2
 70
0
 10
100.218716
 20
66.511196
 30
0.0
 10
100.218716
 20
107.521599
 30
0.0
  0
LWPOLYLINE
  5
1c2
100
AcDbEntity
  8
0
 62
7
100
AcDbPolyline
 90
2
 70
0
 10
141.229118
 20
66.511196
 30
0.0
 10
100.218716
 20
66.511196
 30
0.0
  0
LWPOLYLINE
  5
1c3
100
AcDbEntity
  8
0
 62
7
100
AcDbPolyline
 90
2
 70
0
 10
141.229118
 20
107.521599
 30
0.0
 10
141.229118
 20
66.511196
 30
0.0
  0
LWPOLYLINE
  5
1c4
100
AcDbEntity
  8
0
 62
7
100
AcDbPolyline
 90
2
 70
0
 10
100.218716
 20
107.521599
 30
0.0
 10
141.229118
 20
107.521599
 30
0.0
  0
LWPOLYLINE
  5
1c5
100
AcDbEntity
  8
0
 62
7
100
AcDbPolyline
 90
2
 70
0
 10
46.906234
 20
66.511196
 30
0.0
 10
46.906234
 20
107.521599
 30
0.0
  0
LWPOLYLINE
  5
1c6
100
AcDbEntity
  8
0
 62
7
100
AcDbPolyline
 90
2
 70
0
 10
87.916636
 20
66.511196
 30
0.0
 10
46.906234
 20
66.511196
 30
0.0
  0
LWPOLYLINE
  5
1c7
100
AcDbEntity
  8
0
 62
7
100
AcDbPolyline
 90
2
 70
0
 10
87.916636
 20
107.521599
 30
0.0
 10
87.916636
 20
66.511196
 30
0.0
  0
SPLINE
  5
1c8
100
AcDbEntity
  8
0
 62
7
100
AcDbSpline
 70
8
 71
3
 72
8
 73
4
 74
0
 40
0
 40
0
 40
0
 40
0
 40
1
 40
1
 40
1
 40
1
 10
1202.093337
 20
369.307163
 30
0.0
 10
1196.364213
 20
369.307163
 30
0.0
 10
1191.199214
 20
365.856021
 30
0.0
 10
1189.006773
 20
360.563000
 30
0.0
  0
SPLINE
  5
1c9
100
AcDbEntity
  8
0
 62
7
100
AcDbSpline
 70
8
 71
3
 72
8
 73
4
 74
0
 40
0
 40
0
 40
0
 40
0
 40
1
 40
1
 40
1
 40
1
 10
1189.006773
 20
360.563000
 30
0.0
 10
1186.814332
 20
355.269979
 30
0.0
 10
1188.026212
 20
349.177448
 30
0.0
 10
1192.077315
 20
345.126345
 30
0.0
  0
SPLINE
  5
1ca
100
AcDbEntity
  8
0
 62
7
100
AcDbSpline
 70
8
 71
3
 72
8
 73
4
 74
0
 40
0
 40
0
 40
0
 40
0
 40
1
 40
1
 40
1
 40
1
 10
1192.077315
 20
345.126345
 30
0.0
 10
1196.128418
 20
341.075242
 30
0.0
 10
1202.220949
 20
339.863362
 30
0.0
 10
1207.513970
 20
342.055803
 30
0.0
  0
SPLINE
  5
1cb
100
AcDbEntity
  8
0
 62
7
100
AcDbSpline
 70
8
 71
3
 72
8
 73
4
 74
0
 40
0
 40
0
 40
0
 40
0
 40
1
 40
1
 40
1
 40
1
 10
1207.513970
 20
342.055803
 30
0.0
 10
1212.806991
 20
344.248245
 30
0.0
 10
1216.258133
 20
349.413243
 30
0.0
 10
1216.258133
 20
355.142368
 30
0.0
  0
SPLINE
  5
1cc
100
AcDbEntity
  8
0
 62
7
100
AcDbSpline
 70
8
 71
3
 72
8
 73
4
 74
0
 40
0
 40
0
 40
0
 40
0
 40
1
 40
1
 40
1
 40
1
 10
1216.258133
 20
355.142368
 30
0.0
 10
1216.258133
 20
362.965368
 30
0.0
 10
1209.916338
 20
369.307163
 30
0.0
 10
1202.093337
 20
369.307163
 30
0.0
  0
LWPOLYLINE
  5
1cd
100
AcDbEntity
  8
0
 62
7
100
AcDbPolyline
 90
2
 70
0
 10
46.906234
 20
107.521599
 30
0.0
 10
87.916636
 20
107.521599
 30
0.0
  0
SPLINE
  5
1ce
100
AcDbEntity
  8
0
 62
7
100
AcDbSpline
 70
8
 71
3
 72
8
 73
4
 74
0
 40
0
 40
0
 40
0
 40
0
 40
1
 40
1
 40
1
 40
1
 10
1091.447542
 20
558.447702
 30
0.0
 10
1085.718417
 20
558.447702
 30
0.0
 10
1080.553419
 20
554.996561
 30
0.0
 10
1078.360978
 20
549.703539
 30
0.0
  0
SPLINE
  5
1cf
100
AcDbEntity
  8
0
 62
7
100
AcDbSpline
 70
8
 71
3
 72
8
 73
4
 74
0
 40
0
 40
0
 40
0
 40
0
 40
1
 40
1
 40
1
 40
1
 10
1078.360978
 20
549.703539
 30
0.0
 10
1076.168537
 20
544.410518
 30
0.0
 10
1077.380416
 20
538.317987
 30
0.0
 10
1081.431519
 20
534.266884
 30
0.0
  0
SPLINE
  5
1d0
100
AcDbEntity
  8
0
 62
7
100
AcDbSpline
 70
8
 71
3
 72
8
 73
4
 74
0
 40
0
 40
0
 40
0
 40
0
 40
1
 40
1
 40
1
 40
1
 10
1081.431519
 20
534.266884
 30
0.0
 10
1085.482622
 20
530.215781
 30
0.0
 10
1091.575153
 20
529.003901
 30
0.0
 10
1096.868175
 20
531.196343
 30
0.0
  0
SPLINE
  5
1d1
100
AcDbEntity
  8
0
 62
7
100
AcDbSpline
 70
8
 71
3
 72
8
 73
4
 74
0
 40
0
 40
0
 40
0
 40
0
 40
1
 40
1
 40
1
 40
1
 10
1096.868175
 20
531.196343
 30
0.0
 10
1102.161196
 20
533.388784
 30
0.0
 10
1105.612337
 20
538.553782
 30
0.0
 10
1105.612337
 20
544.282907
 30
0.0
  0
SPLINE
  5
1d2
100
AcDbEntity
  8
0
 62
7
100
AcDbSpline
 70
8
 71
3
 72
8
 73
4
 74
0
 40
0
 40
0
 40
0
 40
0
 40
1
 40
1
 40
1
 40
1
 10
1105.612337
 20
544.282907
 30
0.0
 10
1105.612337
 20
548.039644
 30
0.0
 10
1104.119979
 20
551.642515
 30
0.0
 10
1101.463565
 20
554.298930
 30
0.0
  0
SPLINE
  5
1d3
100
AcDbEntity
  8
0
 62
7
100
AcDbSpline
 70
8
 71
3
 72
8
 73
4
 74
0
 40
0
 40
0
 40
0
 40
0
 40
1
 40
1
 40
1
 40
1
 10
1101.463565
 20
554.298930
 30
0.0
 10
1098.807150
 20
556.955344
 30
0.0
 10
1095.204279
 20
558.447702
 30
0.0
 10
1091.447542
 20
558.447702
 30
0.0
  0
LWPOLYLINE
  5
1d4
100
AcDbEntity
  8
0
 62
7
100
AcDbPolyline
 90
1
 70
1
 10
1202.093337
 20
369.307163
 30
0.0
  0
SPLINE
  5
1d5
100
AcDbEntity
  8
0
 62
7
100
AcDbSpline
 70
8
 71
3
 72
8
 73
4
 74
0
 40
0
 40
0
 40
0
 40
0
 40
1
 40
1
 40
1
 40
1
 10
517.302968
 20
673.958040
 30
0.0
 10
511.082775
 20
673.958040
 30
0.0
 10
505.475062
 20
670.211086
 30
0.0
 10
503.094697
 20
664.464376
 30
0.0
  0
SPLINE
  5
1d6
100
AcDbEntity
  8
0
 62
7
100
AcDbSpline
 70
8
 71
3
 72
8
 73
4
 74
0
 40
0
 40
0
 40
0
 40
0
 40
1
 40
1
 40
1
 40
1
 10
503.094697
 20
664.464376
 30
0.0
 10
500.714332
 20
658.717667
 30
0.0
 10
502.030088
 20
652.102919
 30
0.0
 10
506.428428
 20
647.704578
 30
0.0
  0
SPLINE
  5
1d7
100
AcDbEntity
  8
0
 62
7
100
AcDbSpline
 70
8
 71
3
 72
8
 73
4
 74
0
 40
0
 40
0
 40
0
 40
0
 40
1
 40
1
 40
1
 40
1
 10
506.428428
 20
647.704578
 30
0.0
 10
510.826769
 20
643.306237
 30
0.0
 10
517.441518
 20
641.990482
 30
0.0
 10
523.188227
 20
644.370847
 30
0.0
  0
SPLINE
  5
1d8
100
AcDbEntity
  8
0
 62
7
100
AcDbSpline
 70
8
 71
3
 72
8
 73
4
 74
0
 40
0
 40
0
 40
0
 40
0
 40
1
 40
1
 40
1
 40
1
 10
523.188227
 20
644.370847
 30
0.0
 10
528.934936
 20
646.751212
 30
0.0
 10
532.681890
 20
652.358925
 30
0.0
 10
532.681890
 20
658.579118
 30
0.0
  0
SPLINE
  5
1d9
100
AcDbEntity
  8
0
 62
7
100
AcDbSpline
 70
8
 71
3
 72
8
 73
4
 74
0
 40
0
 40
0
 40
0
 40
0
 40
1
 40
1
 40
1
 40
1
 10
532.681890
 20
658.579118
 30
0.0
 10
532.681890
 20
662.657861
 30
0.0
 10
531.061616
 20
666.569550
 30
0.0
 10
528.177508
 20
669.453658
 30
0.0
  0
SPLINE
  5
1da
100
AcDbEntity
  8
0
 62
7
100
AcDbSpline
 70
8
 71
3
 72
8
 73
4
 74
0
 40
0
 40
0
 40
0
 40
0
 40
1
 40
1
 40
1
 40
1
 10
528.177508
 20
669.453658
 30
0.0
 10
525.293401
 20
672.337765
 30
0.0
 10
521.381712
 20
673.958040
 30
0.0
 10
517.302968
 20
673.958040
 30
0.0
  0
LWPOLYLINE
  5
1db
100
AcDbEntity
  8
0
 62
7
100
AcDbPolyline
 90
1
 70
1
 10
1091.447542
 20
558.447702
 30
0.0
  0
SPLINE
  5
1dc
100
AcDbEntity
  8
0
 62
7
100
AcDbSpline
 70
8
 71
3
 72
8
 73
4
 74
0
 40
0
 40
0
 40
0
 40
0
 40
1
 40
1
 40
1
 40
1
 10
1552.436967
 20
677.952244
 30
0.0
 10
1546.707842
 20
677.952244
 30
0.0
 10
1541.542844
 20
674.501103
 30
0.0
 10
1539.350403
 20
669.208082
 30
0.0
  0
SPLINE
  5
1dd
100
AcDbEntity
  8
0
 62
7
100
AcDbSpline
 70
8
 71
3
 72
8
 73
4
 74
0
 40
0
 40
0
 40
0
 40
0
 40
1
 40
1
 40
1
 40
1
 10
1539.350403
 20
669.208082
 30
0.0
 10
1537.157962
 20
663.915061
 30
0.0
 10
1538.369842
 20
657.822530
 30
0.0
 10
1542.420945
 20
653.771427
 30
0.0
  0
SPLINE
  5
1de
100
AcDbEntity
  8
0
 62
7
100
AcDbSpline
 70
8
 71
3
 72
8
 73
4
 74
0
 40
0
 40
0
 40
0
 40
0
 40
1
 40
1
 40
1
 40
1
 10
1542.420945
 20
653.771427
 30
0.0
 10
1546.472048
 20
649.720324
 30
0.0
 10
1552.564578
 20
648.508444
 30
0.0
 10
1557.857600
 20
650.700885
 30
0.0
  0
SPLINE
  5
1df
100
AcDbEntity
  8
0
 62
7
100
AcDbSpline
 70
8
 71
3
 72
8
 73
4
 74
0
 40
0
 40
0
 40
0
 40
0
 40
1
 40
1
 40
1
 40
1
 10
1557.857600
 20
650.700885
 30
0.0
 10
1563.150621
 20
652.893326
 30
0.0
 10
1566.601762
 20
658.058324
 30
0.0
 10
1566.601762
 20
663.787449
 30
0.0
  0
SPLINE
  5
1e0
100
AcDbEntity
  8
0
 62
7
100
AcDbSpline
 70
8
 71
3
 72
8
 73
4
 74
0
 40
0
 40
0
 40
0
 40
0
 40
1
 40
1
 40
1
 40
1
 10
1566.601762
 20
663.787449
 30
0.0
 10
1566.601762
 20
667.544187
 30
0.0
 10
1565.109404
 20
671.147058
 30
0.0
 10
1562.452990
 20
673.803472
 30
0.0
  0
SPLINE
  5
1e1
100
AcDbEntity
  8
0
 62
7
100
AcDbSpline
 70
8
 71
3
 72
8
 73
4
 74
0
 40
0
 40
0
 40
0
 40
0
 40
1
 40
1
 40
1
 40
1
 10
1562.452990
 20
673.803472
 30
0.0
 10
1559.796576
 20
676.459886
 30
0.0
 10
1556.193704
 20
677.952244
 30
0.0
 10
1552.436967
 20
677.952244
 30
0.0
  0
LWPOLYLINE
  5
1e2
100
AcDbEntity
  8
0
 62
7
100
AcDbPolyline
 90
1
 70
1
 10
517.302968
 20
673.958040
 30
0.0
  0
SPLINE
  5
1e3
100
AcDbEntity
  8
0
 62
7
100
AcDbSpline
 70
8
 71
3
 72
8
 73
4
 74
0
 40
0
 40
0
 40
0
 40
0
 40
1
 40
1
 40
1
 40
1
 10
1474.020327
 20
677.952244
 30
0.0
 10
1468.291203
 20
677.952244
 30
0.0
 10
1463.126204
 20
674.501103
 30
0.0
 10
1460.933763
 20
669.208082
 30
0.0
  0
SPLINE
  5
1e4
100
AcDbEntity
  8
0
 62
7
100
AcDbSpline
 70
8
 71
3
 72
8
 73
4
 74
0
 40
0
 40
0
 40
0
 40
0
 40
1
 40
1
 40
1
 40
1
 10
1460.933763
 20
669.208082
 30
0.0
 10
1458.741322
 20
663.915061
 30
0.0
 10
1459.953202
 20
657.822530
 30
0.0
 10
1464.004305
 20
653.771427
 30
0.0
  0
SPLINE
  5
1e5
100
AcDbEntity
  8
0
 62
7
100
AcDbSpline
 70
8
 71
3
 72
8
 73
4
 74
0
 40
0
 40
0
 40
0
 40
0
 40
1
 40
1
 40
1
 40
1
 10
1464.004305
 20
653.771427
 30
0.0
 10
1468.055408
 20
649.720324
 30
0.0
 10
1474.147939
 20
648.508444
 30
0.0
 10
1479.440960
 20
650.700885
 30
0.0
  0
SPLINE
  5
1e6
100
AcDbEntity
  8
0
 62
7
100
AcDbSpline
 70
8
 71
3
 72
8
 73
4
 74
0
 40
0
 40
0
 40
0
 40
0
 40
1
 40
1
 40
1
 40
1
 10
1479.440960
 20
650.700885
 30
0.0
 10
1484.733981
 20
652.893326
 30
0.0
 10
1488.185123
 20
658.058324
 30
0.0
 10
1488.185123
 20
663.787449
 30
0.0
  0
SPLINE
  5
1e7
100
AcDbEntity
  8
0
 62
7
100
AcDbSpline
 70
8
 71
3
 72
8
 73
4
 74
0
 40
0
 40
0
 40
0
 40
0
 40
1
 40
1
 40
1
 40
1
 10
1488.185123
 20
663.787449
 30
0.0
 10
1488.185123
 20
667.544187
 30
0.0
 10
1486.692765
 20
671.147058
 30
0.0
 10
1484.036350
 20
673.803472
 30
0.0
  0
SPLINE
  5
1e8
100
AcDbEntity
  8
0
 62
7
100
AcDbSpline
 70
8
 71
3
 72
8
 73
4
 74
0
 40
0
 40
0
 40
0
 40
0
 40
1
 40
1
 40
1
 40
1
 10
1484.036350
 20
673.803472
 30
0.0
 10
1481.379936
 20
676.459886
 30
0.0
 10
1477.777065
 20
677.952244
 30
0.0
 10
1474.020327
 20
677.952244
 30
0.0
  0
LWPOLYLINE
  5
1e9
100
AcDbEntity
  8
0
 62
7
100
AcDbPolyline
 90
1
 70
1
 10
1552.436967
 20
677.952244
 30
0.0
  0
SPLINE
  5
1ea
100
AcDbEntity
  8
0
 62
7
100
AcDbSpline
 70
8
 71
3
 72
8
 73
4
 74
0
 40
0
 40
0
 40
0
 40
0
 40
1
 40
1
 40
1
 40
1
 10
1395.614104
 20
677.952244
 30
0.0
 10
1389.884980
 20
677.952244
 30
0.0
 10
1384.719981
 20
674.501103
 30
0.0
 10
1382.527540
 20
669.208082
 30
0.0
  0
SPLINE
  5
1eb
100
AcDbEntity
  8
0
 62
7
100
AcDbSpline
 70
8
 71
3
 72
8
 73
4
 74
0
 40
0
 40
0
 40
0
 40
0
 40
1
 40
1
 40
1
 40
1
 10
1382.527540
 20
669.208082
 30
0.0
 10
1380.335099
 20
663.915061
 30
0.0
 10
1381.546979
 20
657.822530
 30
0.0
 10
1385.598082
 20
653.771427
 30
0.0
  0
SPLINE
  5
1ec
100
AcDbEntity
  8
0
 62
7
100
AcDbSpline
 70
8
 71
3
 72
8
 73
4
 74
0
 40
0
 40
0
 40
0
 40
0
 40
1
 40
1
 40
1
 40
1
 10
1385.598082
 20
653.771427
 30
0.0
 10
1389.649185
 20
649.720324
 30
0.0
 10
1395.741716
 20
648.508444
 30
0.0
 10
1401.034737
 20
650.700885
 30
0.0
  0
SPLINE
  5
1ed
100
AcDbEntity
  8
0
 62
7
100
AcDbSpline
 70
8
 71
3
 72
8
 73
4
 74
0
 40
0
 40
0
 40
0
 40
0
 40
1
 40
1
 40
1
 40
1
 10
1401.034737
 20
650.700885
 30
0.0
 10
1406.327758
 20
652.893326
 30
0.0
 10
1409.778900
 20
658.058324
 30
0.0
 10
1409.778900
 20
663.787449
 30
0.0
  0
SPLINE
  5
1ee
100
AcDbEntity
  8
0
 62
7
100
AcDbSpline
 70
8
 71
3
 72
8
 73
4
 74
0
 40
0
 40
0
 40
0
 40
0
 40
1
 40
1
 40
1
 40
1
 10
1409.778900
 20
663.787449
 30
0.0
 10
1409.778900
 20
667.544187
 30
0.0
 10
1408.286541
 20
671.147058
 30
0.0
 10
1405.630127
 20
673.803472
 30
0.0
  0
SPLINE
  5
1ef
100
AcDbEntity
  8
0
 62
7
100
AcDbSpline
 70
8
 71
3
 72
8
 73
4
 74
0
 40
0
 40
0
 40
0
 40
0
 40
1
 40
1
 40
1
 40
1
 10
1405.630127
 20
673.803472
 30
0.0
 10
1402.973713
 20
676.459886
 30
0.0
 10
1399.370842
 20
677.952244
 30
0.0
 10
1395.614104
 20
677.952244
 30
0.0
  0
LWPOLYLINE
  5
1f0
100
AcDbEntity
  8
0
 62
7
100
AcDbPolyline
 90
1
 70
1
 10
1474.020327
 20
677.952244
 30
0.0
  0
SPLINE
  5
1f1
100
AcDbEntity
  8
0
 62
7
100
AcDbSpline
 70
8
 71
3
 72
8
 73
4
 74
0
 40
0
 40
0
 40
0
 40
0
 40
1
 40
1
 40
1
 40
1
 10
1317.197465
 20
677.952244
 30
0.0
 10
1311.468340
 20
677.952244
 30
0.0
 10
1306.303341
 20
674.501103
 30
0.0
 10
1304.110900
 20
669.208082
 30
0.0
  0
SPLINE
  5
1f2
100
AcDbEntity
  8
0
 62
7
100
AcDbSpline
 70
8
 71
3
 72
8
 73
4
 74
0
 40
0
 40
0
 40
0
 40
0
 40
1
 40
1
 40
1
 40
1
 10
1304.110900
 20
669.208082
 30
0.0
 10
1301.918459
 20
663.915061
 30
0.0
 10
1303.130339
 20
657.822530
 30
0.0
 10
1307.181442
 20
653.771427
 30
0.0
  0
SPLINE
  5
1f3
100
AcDbEntity
  8
0
 62
7
100
AcDbSpline
 70
8
 71
3
 72
8
 73
4
 74
0
 40
0
 40
0
 40
0
 40
0
 40
1
 40
1
 40
1
 40
1
 10
1307.181442
 20
653.771427
 30
0.0
 10
1311.232545
 20
649.720324
 30
0.0
 10
1317.325076
 20
648.508444
 30
0.0
 10
1322.618097
 20
650.700885
 30
0.0
  0
SPLINE
  5
1f4
100
AcDbEntity
  8
0
 62
7
100
AcDbSpline
 70
8
 71
3
 72
8
 73
4
 74
0
 40
0
 40
0
 40
0
 40
0
 40
1
 40
1
 40
1
 40
1
 10
1322.618097
 20
650.700885
 30
0.0
 10
1327.911118
 20
652.893326
 30
0.0
 10
1331.362260
 20
658.058324
 30
0.0
 10
1331.362260
 20
663.787449
 30
0.0
  0
SPLINE
  5
1f5
100
AcDbEntity
  8
0
 62
7
100
AcDbSpline
 70
8
 71
3
 72
8
 73
4
 74
0
 40
0
 40
0
 40
0
 40
0
 40
1
 40
1
 40
1
 40
1
 10
1331.362260
 20
663.787449
 30
0.0
 10
1331.362260
 20
667.544187
 30
0.0
 10
1329.869902
 20
671.147058
 30
0.0
 10
1327.213487
 20
673.803472
 30
0.0
  0
SPLINE
  5
1f6
100
AcDbEntity
  8
0
 62
7
100
AcDbSpline
 70
8
 71
3
 72
8
 73
4
 74
0
 40
0
 40
0
 40
0
 40
0
 40
1
 40
1
 40
1
 40
1
 10
1327.213487
 20
673.803472
 30
0.0
 10
1324.557073
 20
676.459886
 30
0.0
 10
1320.954202
 20
677.952244
 30
0.0
 10
1317.197465
 20
677.952244
 30
0.0
  0
LWPOLYLINE
  5
1f7
100
AcDbEntity
  8
0
 62
7
100
AcDbPolyline
 90
1
 70
1
 10
1395.614104
 20
677.952244
 30
0.0
  0
SPLINE
  5
1f8
100
AcDbEntity
  8
0
 62
7
100
AcDbSpline
 70
8
 71
3
 72
8
 73
4
 74
0
 40
0
 40
0
 40
0
 40
0
 40
1
 40
1
 40
1
 40
1
 10
1238.791242
 20
677.952244
 30
0.0
 10
1233.062117
 20
677.952244
 30
0.0
 10
1227.897118
 20
674.501103
 30
0.0
 10
1225.704677
 20
669.208082
 30
0.0
  0
SPLINE
  5
1f9
100
AcDbEntity
  8
0
 62
7
100
AcDbSpline
 70
8
 71
3
 72
8
 73
4
 74
0
 40
0
 40
0
 40
0
 40
0
 40
1
 40
1
 40
1
 40
1
 10
1225.704677
 20
669.208082
 30
0.0
 10
1223.512236
 20
663.915061
 30
0.0
 10
1224.724116
 20
657.822530
 30
0.0
 10
1228.775219
 20
653.771427
 30
0.0
  0
SPLINE
  5
1fa
100
AcDbEntity
  8
0
 62
7
100
AcDbSpline
 70
8
 71
3
 72
8
 73
4
 74
0
 40
0
 40
0
 40
0
 40
0
 40
1
 40
1
 40
1
 40
1
 10
1228.775219
 20
653.771427
 30
0.0
 10
1232.826322
 20
649.720324
 30
0.0
 10
1238.918853
 20
648.508444
 30
0.0
 10
1244.211874
 20
650.700885
 30
0.0
  0
SPLINE
  5
1fb
100
AcDbEntity
  8
0
 62
7
100
AcDbSpline
 70
8
 71
3
 72
8
 73
4
 74
0
 40
0
 40
0
 40
0
 40
0
 40
1
 40
1
 40
1
 40
1
 10
1244.211874
 20
650.700885
 30
0.0
 10
1249.504895
 20
652.893326
 30
0.0
 10
1252.956037
 20
658.058324
 30
0.0
 10
1252.956037
 20
663.787449
 30
0.0
  0
SPLINE
  5
1fc
100
AcDbEntity
  8
0
 62
7
100
AcDbSpline
 70
8
 71
3
 72
8
 73
4
 74
0
 40
0
 40
0
 40
0
 40
0
 40
1
 40
1
 40
1
 40
1
 10
1252.956037
 20
663.787449
 30
0.0
 10
1252.956037
 20
667.544187
 30
0.0
 10
1251.463679
 20
671.147058
 30
0.0
 10
1248.807264
 20
673.803472
 30
0.0
  0
SPLINE
  5
1fd
100
AcDbEntity
  8
0
 62
7
100
AcDbSpline
 70
8
 71
3
 72
8
 73
4
 74
0
 40
0
 40
0
 40
0
 40
0
 40
1
 40
1
 40
1
 40
1
 10
1248.807264
 20
673.803472
 30
0.0
 10
1246.150850
 20
676.459886
 30
0.0
 10
1242.547979
 20
677.952244
 30
0.0
 10
1238.791242
 20
677.952244
 30
0.0
  0
LWPOLYLINE
  5
1fe
100
AcDbEntity
  8
0
 62
7
100
AcDbPolyline
 90
1
 70
1
 10
1317.197465
 20
677.952244
 30
0.0
  0
SPLINE
  5
1ff
100
AcDbEntity
  8
0
 62
7
100
AcDbSpline
 70
8
 71
3
 72
8
 73
4
 74
0
 40
0
 40
0
 40
0
 40
0
 40
1
 40
1
 40
1
 40
1
 10
1160.374602
 20
677.952244
 30
0.0
 10
1154.645477
 20
677.952244
 30
0.0
 10
1149.480479
 20
674.501103
 30
0.0
 10
1147.288037
 20
669.208082
 30
0.0
  0
SPLINE
  5
200
100
AcDbEntity
  8
0
 62
7
100
AcDbSpline
 70
8
 71
3
 72
8
 73
4
 74
0
 40
0
 40
0
 40
0
 40
0
 40
1
 40
1
 40
1
 40
1
 10
1147.288037
 20
669.208082
 30
0.0
 10
1145.095596
 20
663.915061
 30
0.0
 10
1146.307476
 20
657.822530
 30
0.0
 10
1150.358579
 20
653.771427
 30
0.0
  0
SPLINE
  5
201
100
AcDbEntity
  8
0
 62
7
100
AcDbSpline
 70
8
 71
3
 72
8
 73
4
 74
0
 40
0
 40
0
 40
0
 40
0
 40
1
 40
1
 40
1
 40
1
 10
1150.358579
 20
653.771427
 30
0.0
 10
1154.409682
 20
649.720324
 30
0.0
 10
1160.502213
 20
648.508444
 30
0.0
 10
1165.795234
 20
650.700885
 30
0.0
  0
SPLINE
  5
202
100
AcDbEntity
  8
0
 62
7
100
AcDbSpline
 70
8
 71
3
 72
8
 73
4
 74
0
 40
0
 40
0
 40
0
 40
0
 40
1
 40
1
 40
1
 40
1
 10
1165.795234
 20
650.700885
 30
0.0
 10
1171.088255
 20
652.893326
 30
0.0
 10
1174.539397
 20
658.058324
 30
0.0
 10
1174.539397
 20
663.787449
 30
0.0
  0
SPLINE
  5
203
100
AcDbEntity
  8
0
 62
7
100
AcDbSpline
 70
8
 71
3
 72
8
 73
4
 74
0
 40
0
 40
0
 40
0
 40
0
 40
1
 40
1
 40
1
 40
1
 10
1174.539397
 20
663.787449
 30
0.0
 10
1174.539397
 20
667.544187
 30
0.0
 10
1173.047039
 20
671.147058
 30
0.0
 10
1170.390624
 20
673.803472
 30
0.0
  0
SPLINE
  5
204
100
AcDbEntity
  8
0
 62
7
100
AcDbSpline
 70
8
 71
3
 72
8
 73
4
 74
0
 40
0
 40
0
 40
0
 40
0
 40
1
 40
1
 40
1
 40
1
 10
1170.390624
 20
673.803472
 30
0.0
 10
1167.734210
 20
676.459886
 30
0.0
 10
1164.131339
 20
677.952244
 30
0.0
 10
1160.374602
 20
677.952244
 30
0.0
  0
LWPOLYLINE
  5
205
100
AcDbEntity
  8
0
 62
7
100
AcDbPolyline
 90
1
 70
1
 10
1238.791242
 20
677.952244
 30
0.0
  0
SPLINE
  5
206
100
AcDbEntity
  8
0
 62
7
100
AcDbSpline
 70
8
 71
3
 72
8
 73
4
 74
0
 40
0
 40
0
 40
0
 40
0
 40
1
 40
1
 40
1
 40
1
 10
436.956110
 20
677.361726
 30
0.0
 10
431.226985
 20
677.361726
 30
0.0
 10
426.061987
 20
673.910584
 30
0.0
 10
423.869545
 20
668.617563
 30
0.0
  0
SPLINE
  5
207
100
AcDbEntity
  8
0
 62
7
100
AcDbSpline
 70
8
 71
3
 72
8
 73
4
 74
0
 40
0
 40
0
 40
0
 40
0
 40
1
 40
1
 40
1
 40
1
 10
423.869545
 20
668.617563
 30
0.0
 10
421.677104
 20
663.324541
 30
0.0
 10
422.888984
 20
657.232010
 30
0.0
 10
426.940087
 20
653.180906
 30
0.0
  0
SPLINE
  5
208
100
AcDbEntity
  8
0
 62
7
100
AcDbSpline
 70
8
 71
3
 72
8
 73
4
 74
0
 40
0
 40
0
 40
0
 40
0
 40
1
 40
1
 40
1
 40
1
 10
426.940087
 20
653.180906
 30
0.0
 10
430.991190
 20
649.129803
 30
0.0
 10
437.083722
 20
647.917923
 30
0.0
 10
442.376743
 20
650.110364
 30
0.0
  0
SPLINE
  5
209
100
AcDbEntity
  8
0
 62
7
100
AcDbSpline
 70
8
 71
3
 72
8
 73
4
 74
0
 40
0
 40
0
 40
0
 40
0
 40
1
 40
1
 40
1
 40
1
 10
442.376743
 20
650.110364
 30
0.0
 10
447.669765
 20
652.302806
 30
0.0
 10
451.120907
 20
657.467804
 30
0.0
 10
451.120907
 20
663.196930
 30
0.0
  0
SPLINE
  5
20a
100
AcDbEntity
  8
0
 62
7
100
AcDbSpline
 70
8
 71
3
 72
8
 73
4
 74
0
 40
0
 40
0
 40
0
 40
0
 40
1
 40
1
 40
1
 40
1
 10
451.120907
 20
663.196930
 30
0.0
 10
451.120907
 20
666.953667
 30
0.0
 10
449.628548
 20
670.556539
 30
0.0
 10
446.972134
 20
673.212953
 30
0.0
  0
SPLINE
  5
20b
100
AcDbEntity
  8
0
 62
7
100
AcDbSpline
 70
8
 71
3
 72
8
 73
4
 74
0
 40
0
 40
0
 40
0
 40
0
 40
1
 40
1
 40
1
 40
1
 10
446.972134
 20
673.212953
 30
0.0
 10
444.315719
 20
675.869368
 30
0.0
 10
440.712848
 20
677.361726
 30
0.0
 10
436.956110
 20
677.361726
 30
0.0
  0
LWPOLYLINE
  5
20c
100
AcDbEntity
  8
0
 62
7
100
AcDbPolyline
 90
1
 70
1
 10
1160.374602
 20
677.952244
 30
0.0
  0
SPLINE
  5
20d
100
AcDbEntity
  8
0
 62
7
100
AcDbSpline
 70
8
 71
3
 72
8
 73
4
 74
0
 40
0
 40
0
 40
0
 40
0
 40
1
 40
1
 40
1
 40
1
 10
358.414471
 20
677.361725
 30
0.0
 10
352.685346
 20
677.361725
 30
0.0
 10
347.520348
 20
673.910583
 30
0.0
 10
345.327906
 20
668.617562
 30
0.0
  0
SPLINE
  5
20e
100
AcDbEntity
  8
0
 62
7
100
AcDbSpline
 70
8
 71
3
 72
8
 73
4
 74
0
 40
0
 40
0
 40
0
 40
0
 40
1
 40
1
 40
1
 40
1
 10
345.327906
 20
668.617562
 30
0.0
 10
343.135465
 20
663.324541
 30
0.0
 10
344.347345
 20
657.232010
 30
0.0
 10
348.398448
 20
653.180907
 30
0.0
  0
SPLINE
  5
20f
100
AcDbEntity
  8
0
 62
7
100
AcDbSpline
 70
8
 71
3
 72
8
 73
4
 74
0
 40
0
 40
0
 40
0
 40
0
 40
1
 40
1
 40
1
 40
1
 10
348.398448
 20
653.180907
 30
0.0
 10
352.449551
 20
649.129804
 30
0.0
 10
358.542082
 20
647.917924
 30
0.0
 10
363.835103
 20
650.110365
 30
0.0
  0
SPLINE
  5
210
100
AcDbEntity
  8
0
 62
7
100
AcDbSpline
 70
8
 71
3
 72
8
 73
4
 74
0
 40
0
 40
0
 40
0
 40
0
 40
1
 40
1
 40
1
 40
1
 10
363.835103
 20
650.110365
 30
0.0
 10
369.128124
 20
652.302807
 30
0.0
 10
372.579266
 20
657.467805
 30
0.0
 10
372.579266
 20
663.196930
 30
0.0
  0
SPLINE
  5
211
100
AcDbEntity
  8
0
 62
7
100
AcDbSpline
 70
8
 71
3
 72
8
 73
4
 74
0
 40
0
 40
0
 40
0
 40
0
 40
1
 40
1
 40
1
 40
1
 10
372.579266
 20
663.196930
 30
0.0
 10
372.579266
 20
666.953667
 30
0.0
 10
371.086908
 20
670.556538
 30
0.0
 10
368.430493
 20
673.212952
 30
0.0
  0
SPLINE
  5
212
100
AcDbEntity
  8
0
 62
7
100
AcDbSpline
 70
8
 71
3
 72
8
 73
4
 74
0
 40
0
 40
0
 40
0
 40
0
 40
1
 40
1
 40
1
 40
1
 10
368.430493
 20
673.212952
 30
0.0
 10
365.774079
 20
675.869367
 30
0.0
 10
362.171208
 20
677.361725
 30
0.0
 10
358.414471
 20
677.361725
 30
0.0
  0
LWPOLYLINE
  5
213
100
AcDbEntity
  8
0
 62
7
100
AcDbPolyline
 90
1
 70
1
 10
436.956110
 20
677.361726
 30
0.0
  0
SPLINE
  5
214
100
AcDbEntity
  8
0
 62
7
100
AcDbSpline
 70
8
 71
3
 72
8
 73
4
 74
0
 40
0
 40
0
 40
0
 40
0
 40
1
 40
1
 40
1
 40
1
 10
279.872831
 20
677.361725
 30
0.0
 10
274.143706
 20
677.361725
 30
0.0
 10
268.978708
 20
673.910583
 30
0.0
 10
266.786267
 20
668.617562
 30
0.0
  0
SPLINE
  5
215
100
AcDbEntity
  8
0
 62
7
100
AcDbSpline
 70
8
 71
3
 72
8
 73
4
 74
0
 40
0
 40
0
 40
0
 40
0
 40
1
 40
1
 40
1
 40
1
 10
266.786267
 20
668.617562
 30
0.0
 10
264.593826
 20
663.324541
 30
0.0
 10
265.805705
 20
657.232010
 30
0.0
 10
269.856808
 20
653.180907
 30
0.0
  0
SPLINE
  5
216
100
AcDbEntity
  8
0
 62
7
100
AcDbSpline
 70
8
 71
3
 72
8
 73
4
 74
0
 40
0
 40
0
 40
0
 40
0
 40
1
 40
1
 40
1
 40
1
 10
269.856808
 20
653.180907
 30
0.0
 10
273.907911
 20
649.129804
 30
0.0
 10
280.000442
 20
647.917924
 30
0.0
 10
285.293463
 20
650.110365
 30
0.0
  0
SPLINE
  5
217
100
AcDbEntity
  8
0
 62
7
100
AcDbSpline
 70
8
 71
3
 72
8
 73
4
 74
0
 40
0
 40
0
 40
0
 40
0
 40
1
 40
1
 40
1
 40
1
 10
285.293463
 20
650.110365
 30
0.0
 10
290.586485
 20
652.302807
 30
0.0
 10
294.037626
 20
657.467805
 30
0.0
 10
294.037626
 20
663.196930
 30
0.0
  0
SPLINE
  5
218
100
AcDbEntity
  8
0
 62
7
100
AcDbSpline
 70
8
 71
3
 72
8
 73
4
 74
0
 40
0
 40
0
 40
0
 40
0
 40
1
 40
1
 40
1
 40
1
 10
294.037626
 20
663.196930
 30
0.0
 10
294.037626
 20
666.953667
 30
0.0
 10
292.545268
 20
670.556538
 30
0.0
 10
289.888854
 20
673.212952
 30
0.0
  0
SPLINE
  5
219
100
AcDbEntity
  8
0
 62
7
100
AcDbSpline
 70
8
 71
3
 72
8
 73
4
 74
0
 40
0
 40
0
 40
0
 40
0
 40
1
 40
1
 40
1
 40
1
 10
289.888854
 20
673.212952
 30
0.0
 10
287.232439
 20
675.869367
 30
0.0
 10
283.629568
 20
677.361725
 30
0.0
 10
279.872831
 20
677.361725
 30
0.0
  0
LWPOLYLINE
  5
21a
100
AcDbEntity
  8
0
 62
7
100
AcDbPolyline
 90
1
 70
1
 10
358.414471
 20
677.361725
 30
0.0
  0
SPLINE
  5
21b
100
AcDbEntity
  8
0
 62
7
100
AcDbSpline
 70
8
 71
3
 72
8
 73
4
 74
0
 40
0
 40
0
 40
0
 40
0
 40
1
 40
1
 40
1
 40
1
 10
201.331191
 20
677.361725
 30
0.0
 10
193.508191
 20
677.361725
 30
0.0
 10
187.166396
 20
671.019930
 30
0.0
 10
187.166396
 20
663.196930
 30
0.0
  0
SPLINE
  5
21c
100
AcDbEntity
  8
0
 62
7
100
AcDbSpline
 70
8
 71
3
 72
8
 73
4
 74
0
 40
0
 40
0
 40
0
 40
0
 40
1
 40
1
 40
1
 40
1
 10
187.166396
 20
663.196930
 30
0.0
 10
187.166396
 20
655.373929
 30
0.0
 10
193.508191
 20
649.032135
 30
0.0
 10
201.331191
 20
649.032135
 30
0.0
  0
SPLINE
  5
21d
100
AcDbEntity
  8
0
 62
7
100
AcDbSpline
 70
8
 71
3
 72
8
 73
4
 74
0
 40
0
 40
0
 40
0
 40
0
 40
1
 40
1
 40
1
 40
1
 10
201.331191
 20
649.032135
 30
0.0
 10
209.154192
 20
649.032135
 30
0.0
 10
215.495986
 20
655.373929
 30
0.0
 10
215.495986
 20
663.196930
 30
0.0
  0
SPLINE
  5
21e
100
AcDbEntity
  8
0
 62
7
100
AcDbSpline
 70
8
 71
3
 72
8
 73
4
 74
0
 40
0
 40
0
 40
0
 40
0
 40
1
 40
1
 40
1
 40
1
 10
215.495986
 20
663.196930
 30
0.0
 10
215.495986
 20
666.953667
 30
0.0
 10
214.003628
 20
670.556538
 30
0.0
 10
211.347214
 20
673.212952
 30
0.0
  0
SPLINE
  5
21f
100
AcDbEntity
  8
0
 62
7
100
AcDbSpline
 70
8
 71
3
 72
8
 73
4
 74
0
 40
0
 40
0
 40
0
 40
0
 40
1
 40
1
 40
1
 40
1
 10
211.347214
 20
673.212952
 30
0.0
 10
208.690800
 20
675.869367
 30
0.0
 10
205.087929
 20
677.361725
 30
0.0
 10
201.331191
 20
677.361725
 30
0.0
  0
LWPOLYLINE
  5
220
100
AcDbEntity
  8
0
 62
7
100
AcDbPolyline
 90
1
 70
1
 10
279.872831
 20
677.361725
 30
0.0
  0
SPLINE
  5
221
100
AcDbEntity
  8
0
 62
7
100
AcDbSpline
 70
8
 71
3
 72
8
 73
4
 74
0
 40
0
 40
0
 40
0
 40
0
 40
1
 40
1
 40
1
 40
1
 10
122.789541
 20
677.361725
 30
0.0
 10
117.060416
 20
677.361725
 30
0.0
 10
111.895418
 20
673.910583
 30
0.0
 10
109.702977
 20
668.617562
 30
0.0
  0
SPLINE
  5
222
100
AcDbEntity
  8
0
 62
7
100
AcDbSpline
 70
8
 71
3
 72
8
 73
4
 74
0
 40
0
 40
0
 40
0
 40
0
 40
1
 40
1
 40
1
 40
1
 10
109.702977
 20
668.617562
 30
0.0
 10
107.510536
 20
663.324541
 30
0.0
 10
108.722415
 20
657.232010
 30
0.0
 10
112.773518
 20
653.180907
 30
0.0
  0
SPLINE
  5
223
100
AcDbEntity
  8
0
 62
7
100
AcDbSpline
 70
8
 71
3
 72
8
 73
4
 74
0
 40
0
 40
0
 40
0
 40
0
 40
1
 40
1
 40
1
 40
1
 10
112.773518
 20
653.180907
 30
0.0
 10
116.824622
 20
649.129804
 30
0.0
 10
122.917152
 20
647.917924
 30
0.0
 10
128.210174
 20
650.110365
 30
0.0
  0
SPLINE
  5
224
100
AcDbEntity
  8
0
 62
7
100
AcDbSpline
 70
8
 71
3
 72
8
 73
4
 74
0
 40
0
 40
0
 40
0
 40
0
 40
1
 40
1
 40
1
 40
1
 10
128.210174
 20
650.110365
 30
0.0
 10
133.503195
 20
652.302807
 30
0.0
 10
136.954336
 20
657.467805
 30
0.0
 10
136.954336
 20
663.196930
 30
0.0
  0
SPLINE
  5
225
100
AcDbEntity
  8
0
 62
7
100
AcDbSpline
 70
8
 71
3
 72
8
 73
4
 74
0
 40
0
 40
0
 40
0
 40
0
 40
1
 40
1
 40
1
 40
1
 10
136.954336
 20
663.196930
 30
0.0
 10
136.954336
 20
666.953667
 30
0.0
 10
135.461978
 20
670.556538
 30
0.0
 10
132.805564
 20
673.212952
 30
0.0
  0
SPLINE
  5
226
100
AcDbEntity
  8
0
 62
7
100
AcDbSpline
 70
8
 71
3
 72
8
 73
4
 74
0
 40
0
 40
0
 40
0
 40
0
 40
1
 40
1
 40
1
 40
1
 10
132.805564
 20
673.212952
 30
0.0
 10
130.149150
 20
675.869367
 30
0.0
 10
126.546278
 20
677.361725
 30
0.0
 10
122.789541
 20
677.361725
 30
0.0
  0
LWPOLYLINE
  5
227
100
AcDbEntity
  8
0
 62
7
100
AcDbPolyline
 90
1
 70
1
 10
201.331191
 20
677.361725
 30
0.0
  0
SPLINE
  5
228
100
AcDbEntity
  8
0
 62
7
100
AcDbSpline
 70
8
 71
3
 72
8
 73
4
 74
0
 40
0
 40
0
 40
0
 40
0
 40
1
 40
1
 40
1
 40
1
 10
44.247381
 20
677.361725
 30
0.0
 10
38.518256
 20
677.361725
 30
0.0
 10
33.353257
 20
673.910583
 30
0.0
 10
31.160816
 20
668.617562
 30
0.0
  0
SPLINE
  5
229
100
AcDbEntity
  8
0
 62
7
100
AcDbSpline
 70
8
 71
3
 72
8
 73
4
 74
0
 40
0
 40
0
 40
0
 40
0
 40
1
 40
1
 40
1
 40
1
 10
31.160816
 20
668.617562
 30
0.0
 10
28.968375
 20
663.324541
 30
0.0
 10
30.180255
 20
657.232010
 30
0.0
 10
34.231358
 20
653.180907
 30
0.0
  0
SPLINE
  5
22a
100
AcDbEntity
  8
0
 62
7
100
AcDbSpline
 70
8
 71
3
 72
8
 73
4
 74
0
 40
0
 40
0
 40
0
 40
0
 40
1
 40
1
 40
1
 40
1
 10
34.231358
 20
653.180907
 30
0.0
 10
38.282461
 20
649.129804
 30
0.0
 10
44.374992
 20
647.917924
 30
0.0
 10
49.668013
 20
650.110365
 30
0.0
  0
SPLINE
  5
22b
100
AcDbEntity
  8
0
 62
7
100
AcDbSpline
 70
8
 71
3
 72
8
 73
4
 74
0
 40
0
 40
0
 40
0
 40
0
 40
1
 40
1
 40
1
 40
1
 10
49.668013
 20
650.110365
 30
0.0
 10
54.961034
 20
652.302807
 30
0.0
 10
58.412176
 20
657.467805
 30
0.0
 10
58.412176
 20
663.196930
 30
0.0
  0
SPLINE
  5
22c
100
AcDbEntity
  8
0
 62
7
100
AcDbSpline
 70
8
 71
3
 72
8
 73
4
 74
0
 40
0
 40
0
 40
0
 40
0
 40
1
 40
1
 40
1
 40
1
 10
58.412176
 20
663.196930
 30
0.0
 10
58.412176
 20
671.019930
 30
0.0
 10
52.070381
 20
677.361725
 30
0.0
 10
44.247381
 20
677.361725
 30
0.0
  0
LWPOLYLINE
  5
22d
100
AcDbEntity
  8
0
 62
7
100
AcDbPolyline
 90
1
 70
1
 10
122.789541
 20
677.361725
 30
0.0
  0
SPLINE
  5
22e
100
AcDbEntity
  8
0
 62
7
100
AcDbSpline
 70
8
 71
3
 72
8
 73
4
 74
0
 40
0
 40
0
 40
0
 40
0
 40
1
 40
1
 40
1
 40
1
 10
1169.780849
 20
494.266464
 30
0.0
 10
1164.051724
 20
494.266464
 30
0.0
 10
1158.886725
 20
490.815322
 30
0.0
 10
1156.694284
 20
485.522301
 30
0.0
  0
SPLINE
  5
22f
100
AcDbEntity
  8
0
 62
7
100
AcDbSpline
 70
8
 71
3
 72
8
 73
4
 74
0
 40
0
 40
0
 40
0
 40
0
 40
1
 40
1
 40
1
 40
1
 10
1156.694284
 20
485.522301
 30
0.0
 10
1154.501843
 20
480.229280
 30
0.0
 10
1155.713723
 20
474.136749
 30
0.0
 10
1159.764826
 20
470.085646
 30
0.0
  0
SPLINE
  5
230
100
AcDbEntity
  8
0
 62
7
100
AcDbSpline
 70
8
 71
3
 72
8
 73
4
 74
0
 40
0
 40
0
 40
0
 40
0
 40
1
 40
1
 40
1
 40
1
 10
1159.764826
 20
470.085646
 30
0.0
 10
1163.815929
 20
466.034543
 30
0.0
 10
1169.908460
 20
464.822663
 30
0.0
 10
1175.201481
 20
467.015104
 30
0.0
  0
SPLINE
  5
231
100
AcDbEntity
  8
0
 62
7
100
AcDbSpline
 70
8
 71
3
 72
8
 73
4
 74
0
 40
0
 40
0
 40
0
 40
0
 40
1
 40
1
 40
1
 40
1
 10
1175.201481
 20
467.015104
 30
0.0
 10
1180.494502
 20
469.207545
 30
0.0
 10
1183.945644
 20
474.372544
 30
0.0
 10
1183.945644
 20
480.101669
 30
0.0
  0
SPLINE
  5
232
100
AcDbEntity
  8
0
 62
7
100
AcDbSpline
 70
8
 71
3
 72
8
 73
4
 74
0
 40
0
 40
0
 40
0
 40
0
 40
1
 40
1
 40
1
 40
1
 10
1183.945644
 20
480.101669
 30
0.0
 10
1183.945644
 20
483.858406
 30
0.0
 10
1182.453286
 20
487.461277
 30
0.0
 10
1179.796871
 20
490.117691
 30
0.0
  0
SPLINE
  5
233
100
AcDbEntity
  8
0
 62
7
100
AcDbSpline
 70
8
 71
3
 72
8
 73
4
 74
0
 40
0
 40
0
 40
0
 40
0
 40
1
 40
1
 40
1
 40
1
 10
1179.796871
 20
490.117691
 30
0.0
 10
1177.140457
 20
492.774106
 30
0.0
 10
1173.537586
 20
494.266464
 30
0.0
 10
1169.780849
 20
494.266464
 30
0.0
  0
LWPOLYLINE
  5
234
100
AcDbEntity
  8
0
 62
7
100
AcDbPolyline
 90
1
 70
1
 10
44.247381
 20
677.361725
 30
0.0
  0
SPLINE
  5
235
100
AcDbEntity
  8
0
 62
7
100
AcDbSpline
 70
8
 71
3
 72
8
 73
4
 74
0
 40
0
 40
0
 40
0
 40
0
 40
1
 40
1
 40
1
 40
1
 10
878.646594
 20
443.602494
 30
0.0
 10
872.426401
 20
443.602494
 30
0.0
 10
866.818688
 20
439.855540
 30
0.0
 10
864.438323
 20
434.108830
 30
0.0
  0
SPLINE
  5
236
100
AcDbEntity
  8
0
 62
7
100
AcDbSpline
 70
8
 71
3
 72
8
 73
4
 74
0
 40
0
 40
0
 40
0
 40
0
 40
1
 40
1
 40
1
 40
1
 10
864.438323
 20
434.108830
 30
0.0
 10
862.057958
 20
428.362121
 30
0.0
 10
863.373714
 20
421.747373
 30
0.0
 10
867.772054
 20
417.349032
 30
0.0
  0
SPLINE
  5
237
100
AcDbEntity
  8
0
 62
7
100
AcDbSpline
 70
8
 71
3
 72
8
 73
4
 74
0
 40
0
 40
0
 40
0
 40
0
 40
1
 40
1
 40
1
 40
1
 10
867.772054
 20
417.349032
 30
0.0
 10
872.170395
 20
412.950691
 30
0.0
 10
878.785144
 20
411.634936
 30
0.0
 10
884.531853
 20
414.015301
 30
0.0
  0
SPLINE
  5
238
100
AcDbEntity
  8
0
 62
7
100
AcDbSpline
 70
8
 71
3
 72
8
 73
4
 74
0
 40
0
 40
0
 40
0
 40
0
 40
1
 40
1
 40
1
 40
1
 10
884.531853
 20
414.015301
 30
0.0
 10
890.278562
 20
416.395666
 30
0.0
 10
894.025516
 20
422.003379
 30
0.0
 10
894.025516
 20
428.223572
 30
0.0
  0
SPLINE
  5
239
100
AcDbEntity
  8
0
 62
7
100
AcDbSpline
 70
8
 71
3
 72
8
 73
4
 74
0
 40
0
 40
0
 40
0
 40
0
 40
1
 40
1
 40
1
 40
1
 10
894.025516
 20
428.223572
 30
0.0
 10
894.025516
 20
432.302315
 30
0.0
 10
892.405241
 20
436.214004
 30
0.0
 10
889.521134
 20
439.098112
 30
0.0
  0
SPLINE
  5
23a
100
AcDbEntity
  8
0
 62
7
100
AcDbSpline
 70
8
 71
3
 72
8
 73
4
 74
0
 40
0
 40
0
 40
0
 40
0
 40
1
 40
1
 40
1
 40
1
 10
889.521134
 20
439.098112
 30
0.0
 10
886.637027
 20
441.982219
 30
0.0
 10
882.725338
 20
443.602494
 30
0.0
 10
878.646594
 20
443.602494
 30
0.0
  0
LWPOLYLINE
  5
23b
100
AcDbEntity
  8
0
 62
7
100
AcDbPolyline
 90
1
 70
1
 10
1169.780849
 20
494.266464
 30
0.0
  0
SPLINE
  5
23c
100
AcDbEntity
  8
0
 62
7
100
AcDbSpline
 70
8
 71
3
 72
8
 73
4
 74
0
 40
0
 40
0
 40
0
 40
0
 40
1
 40
1
 40
1
 40
1
 10
705.828945
 20
339.886925
 30
0.0
 10
699.608739
 20
339.886925
 30
0.0
 10
694.001015
 20
336.139963
 30
0.0
 10
691.620645
 20
330.393243
 30
0.0
  0
SPLINE
  5
23d
100
AcDbEntity
  8
0
 62
7
100
AcDbSpline
 70
8
 71
3
 72
8
 73
4
 74
0
 40
0
 40
0
 40
0
 40
0
 40
1
 40
1
 40
1
 40
1
 10
691.620645
 20
330.393243
 30
0.0
 10
689.240276
 20
324.646522
 30
0.0
 10
690.556034
 20
318.031760
 30
0.0
 10
694.954383
 20
313.633410
 30
0.0
  0
SPLINE
  5
23e
100
AcDbEntity
  8
0
 62
7
100
AcDbSpline
 70
8
 71
3
 72
8
 73
4
 74
0
 40
0
 40
0
 40
0
 40
0
 40
1
 40
1
 40
1
 40
1
 10
694.954383
 20
313.633410
 30
0.0
 10
699.352733
 20
309.235060
 30
0.0
 10
705.967495
 20
307.919302
 30
0.0
 10
711.714216
 20
310.299672
 30
0.0
  0
SPLINE
  5
23f
100
AcDbEntity
  8
0
 62
7
100
AcDbSpline
 70
8
 71
3
 72
8
 73
4
 74
0
 40
0
 40
0
 40
0
 40
0
 40
1
 40
1
 40
1
 40
1
 10
711.714216
 20
310.299672
 30
0.0
 10
717.460937
 20
312.680042
 30
0.0
 10
721.207898
 20
318.287766
 30
0.0
 10
721.207898
 20
324.507972
 30
0.0
  0
SPLINE
  5
240
100
AcDbEntity
  8
0
 62
7
100
AcDbSpline
 70
8
 71
3
 72
8
 73
4
 74
0
 40
0
 40
0
 40
0
 40
0
 40
1
 40
1
 40
1
 40
1
 10
721.207898
 20
324.507972
 30
0.0
 10
721.207898
 20
328.586724
 30
0.0
 10
719.587620
 20
332.498421
 30
0.0
 10
716.703507
 20
335.382534
 30
0.0
  0
SPLINE
  5
241
100
AcDbEntity
  8
0
 62
7
100
AcDbSpline
 70
8
 71
3
 72
8
 73
4
 74
0
 40
0
 40
0
 40
0
 40
0
 40
1
 40
1
 40
1
 40
1
 10
716.703507
 20
335.382534
 30
0.0
 10
713.819394
 20
338.266647
 30
0.0
 10
709.907697
 20
339.886925
 30
0.0
 10
705.828945
 20
339.886925
 30
0.0
  0
LWPOLYLINE
  5
242
100
AcDbEntity
  8
0
 62
7
100
AcDbPolyline
 90
1
 70
1
 10
878.646594
 20
443.602494
 30
0.0
  0
SPLINE
  5
243
100
AcDbEntity
  8
0
 62
7
100
AcDbSpline
 70
8
 71
3
 72
8
 73
4
 74
0
 40
0
 40
0
 40
0
 40
0
 40
1
 40
1
 40
1
 40
1
 10
1075.374631
 20
457.955624
 30
0.0
 10
1069.154438
 20
457.955624
 30
0.0
 10
1063.546725
 20
454.208670
 30
0.0
 10
1061.166360
 20
448.461961
 30
0.0
  0
SPLINE
  5
244
100
AcDbEntity
  8
0
 62
7
100
AcDbSpline
 70
8
 71
3
 72
8
 73
4
 74
0
 40
0
 40
0
 40
0
 40
0
 40
1
 40
1
 40
1
 40
1
 10
1061.166360
 20
448.461961
 30
0.0
 10
1058.785995
 20
442.715252
 30
0.0
 10
1060.101750
 20
436.100503
 30
0.0
 10
1064.500091
 20
431.702162
 30
0.0
  0
SPLINE
  5
245
100
AcDbEntity
  8
0
 62
7
100
AcDbSpline
 70
8
 71
3
 72
8
 73
4
 74
0
 40
0
 40
0
 40
0
 40
0
 40
1
 40
1
 40
1
 40
1
 10
1064.500091
 20
431.702162
 30
0.0
 10
1068.898432
 20
427.303822
 30
0.0
 10
1075.513180
 20
425.988066
 30
0.0
 10
1081.259890
 20
428.368431
 30
0.0
  0
SPLINE
  5
246
100
AcDbEntity
  8
0
 62
7
100
AcDbSpline
 70
8
 71
3
 72
8
 73
4
 74
0
 40
0
 40
0
 40
0
 40
0
 40
1
 40
1
 40
1
 40
1
 10
1081.259890
 20
428.368431
 30
0.0
 10
1087.006599
 20
430.748796
 30
0.0
 10
1090.753553
 20
436.356509
 30
0.0
 10
1090.753553
 20
442.576702
 30
0.0
  0
SPLINE
  5
247
100
AcDbEntity
  8
0
 62
7
100
AcDbSpline
 70
8
 71
3
 72
8
 73
4
 74
0
 40
0
 40
0
 40
0
 40
0
 40
1
 40
1
 40
1
 40
1
 10
1090.753553
 20
442.576702
 30
0.0
 10
1090.753553
 20
446.655446
 30
0.0
 10
1089.133278
 20
450.567135
 30
0.0
 10
1086.249171
 20
453.451242
 30
0.0
  0
SPLINE
  5
248
100
AcDbEntity
  8
0
 62
7
100
AcDbSpline
 70
8
 71
3
 72
8
 73
4
 74
0
 40
0
 40
0
 40
0
 40
0
 40
1
 40
1
 40
1
 40
1
 10
1086.249171
 20
453.451242
 30
0.0
 10
1083.365064
 20
456.335349
 30
0.0
 10
1079.453375
 20
457.955624
 30
0.0
 10
1075.374631
 20
457.955624
 30
0.0
  0
LWPOLYLINE
  5
249
100
AcDbEntity
  8
0
 62
7
100
AcDbPolyline
 90
1
 70
1
 10
705.828945
 20
339.886925
 30
0.0
  0
SPLINE
  5
24a
100
AcDbEntity
  8
0
 62
7
100
AcDbSpline
 70
8
 71
3
 72
8
 73
4
 74
0
 40
0
 40
0
 40
0
 40
0
 40
1
 40
1
 40
1
 40
1
 10
1518.739062
 20
590.009735
 30
0.0
 10
1512.518869
 20
590.009735
 30
0.0
 10
1506.911156
 20
586.262781
 30
0.0
 10
1504.530791
 20
580.516072
 30
0.0
  0
SPLINE
  5
24b
100
AcDbEntity
  8
0
 62
7
100
AcDbSpline
 70
8
 71
3
 72
8
 73
4
 74
0
 40
0
 40
0
 40
0
 40
0
 40
1
 40
1
 40
1
 40
1
 10
1504.530791
 20
580.516072
 30
0.0
 10
1502.150426
 20
574.769363
 30
0.0
 10
1503.466181
 20
568.154614
 30
0.0
 10
1507.864522
 20
563.756273
 30
0.0
  0
SPLINE
  5
24c
100
AcDbEntity
  8
0
 62
7
100
AcDbSpline
 70
8
 71
3
 72
8
 73
4
 74
0
 40
0
 40
0
 40
0
 40
0
 40
1
 40
1
 40
1
 40
1
 10
1507.864522
 20
563.756273
 30
0.0
 10
1512.262863
 20
559.357933
 30
0.0
 10
1518.877611
 20
558.042177
 30
0.0
 10
1524.624321
 20
560.422542
 30
0.0
  0
SPLINE
  5
24d
100
AcDbEntity
  8
0
 62
7
100
AcDbSpline
 70
8
 71
3
 72
8
 73
4
 74
0
 40
0
 40
0
 40
0
 40
0
 40
1
 40
1
 40
1
 40
1
 10
1524.624321
 20
560.422542
 30
0.0
 10
1530.371030
 20
562.802907
 30
0.0
 10
1534.117984
 20
568.410620
 30
0.0
 10
1534.117984
 20
574.630813
 30
0.0
  0
SPLINE
  5
24e
100
AcDbEntity
  8
0
 62
7
100
AcDbSpline
 70
8
 71
3
 72
8
 73
4
 74
0
 40
0
 40
0
 40
0
 40
0
 40
1
 40
1
 40
1
 40
1
 10
1534.117984
 20
574.630813
 30
0.0
 10
1534.117984
 20
578.709557
 30
0.0
 10
1532.497709
 20
582.621246
 30
0.0
 10
1529.613602
 20
585.505353
 30
0.0
  0
SPLINE
  5
24f
100
AcDbEntity
  8
0
 62
7
100
AcDbSpline
 70
8
 71
3
 72
8
 73
4
 74
0
 40
0
 40
0
 40
0
 40
0
 40
1
 40
1
 40
1
 40
1
 10
1529.613602
 20
585.505353
 30
0.0
 10
1526.729495
 20
588.389460
 30
0.0
 10
1522.817806
 20
590.009735
 30
0.0
 10
1518.739062
 20
590.009735
 30
0.0
  0
LWPOLYLINE
  5
250
100
AcDbEntity
  8
0
 62
7
100
AcDbPolyline
 90
1
 70
1
 10
1075.374631
 20
457.955624
 30
0.0
  0
SPLINE
  5
251
100
AcDbEntity
  8
0
 62
7
100
AcDbSpline
 70
8
 71
3
 72
8
 73
4
 74
0
 40
0
 40
0
 40
0
 40
0
 40
1
 40
1
 40
1
 40
1
 10
156.574946
 20
529.313912
 30
0.0
 10
150.354753
 20
529.313912
 30
0.0
 10
144.747040
 20
525.566958
 30
0.0
 10
142.366675
 20
519.820249
 30
0.0
  0
SPLINE
  5
252
100
AcDbEntity
  8
0
 62
7
100
AcDbSpline
 70
8
 71
3
 72
8
 73
4
 74
0
 40
0
 40
0
 40
0
 40
0
 40
1
 40
1
 40
1
 40
1
 10
142.366675
 20
519.820249
 30
0.0
 10
139.986310
 20
514.073540
 30
0.0
 10
141.302066
 20
507.458791
 30
0.0
 10
145.700406
 20
503.060450
 30
0.0
  0
SPLINE
  5
253
100
AcDbEntity
  8
0
 62
7
100
AcDbSpline
 70
8
 71
3
 72
8
 73
4
 74
0
 40
0
 40
0
 40
0
 40
0
 40
1
 40
1
 40
1
 40
1
 10
145.700406
 20
503.060450
 30
0.0
 10
150.098747
 20
498.662110
 30
0.0
 10
156.713496
 20
497.346354
 30
0.0
 10
162.460205
 20
499.726719
 30
0.0
  0
SPLINE
  5
254
100
AcDbEntity
  8
0
 62
7
100
AcDbSpline
 70
8
 71
3
 72
8
 73
4
 74
0
 40
0
 40
0
 40
0
 40
0
 40
1
 40
1
 40
1
 40
1
 10
162.460205
 20
499.726719
 30
0.0
 10
168.206914
 20
502.107084
 30
0.0
 10
171.953868
 20
507.714797
 30
0.0
 10
171.953868
 20
513.934990
 30
0.0
  0
SPLINE
  5
255
100
AcDbEntity
  8
0
 62
7
100
AcDbSpline
 70
8
 71
3
 72
8
 73
4
 74
0
 40
0
 40
0
 40
0
 40
0
 40
1
 40
1
 40
1
 40
1
 10
171.953868
 20
513.934990
 30
0.0
 10
171.953868
 20
518.013734
 30
0.0
 10
170.333593
 20
521.925423
 30
0.0
 10
167.449486
 20
524.809530
 30
0.0
  0
SPLINE
  5
256
100
AcDbEntity
  8
0
 62
7
100
AcDbSpline
 70
8
 71
3
 72
8
 73
4
 74
0
 40
0
 40
0
 40
0
 40
0
 40
1
 40
1
 40
1
 40
1
 10
167.449486
 20
524.809530
 30
0.0
 10
164.565379
 20
527.693637
 30
0.0
 10
160.653690
 20
529.313912
 30
0.0
 10
156.574946
 20
529.313912
 30
0.0
  0
LWPOLYLINE
  5
257
100
AcDbEntity
  8
0
 62
7
100
AcDbPolyline
 90
1
 70
1
 10
1518.739062
 20
590.009735
 30
0.0
  0
SPLINE
  5
258
100
AcDbEntity
  8
0
 62
7
100
AcDbSpline
 70
8
 71
3
 72
8
 73
4
 74
0
 40
0
 40
0
 40
0
 40
0
 40
1
 40
1
 40
1
 40
1
 10
95.057575
 20
598.643242
 30
0.0
 10
88.837381
 20
598.643242
 30
0.0
 10
83.229668
 20
594.896288
 30
0.0
 10
80.849304
 20
589.149579
 30
0.0
  0
SPLINE
  5
259
100
AcDbEntity
  8
0
 62
7
100
AcDbSpline
 70
8
 71
3
 72
8
 73
4
 74
0
 40
0
 40
0
 40
0
 40
0
 40
1
 40
1
 40
1
 40
1
 10
80.849304
 20
589.149579
 30
0.0
 10
78.468939
 20
583.402870
 30
0.0
 10
79.784694
 20
576.788122
 30
0.0
 10
84.183035
 20
572.389781
 30
0.0
  0
SPLINE
  5
25a
100
AcDbEntity
  8
0
 62
7
100
AcDbSpline
 70
8
 71
3
 72
8
 73
4
 74
0
 40
0
 40
0
 40
0
 40
0
 40
1
 40
1
 40
1
 40
1
 10
84.183035
 20
572.389781
 30
0.0
 10
88.581376
 20
567.991440
 30
0.0
 10
95.196124
 20
566.675685
 30
0.0
 10
100.942833
 20
569.056050
 30
0.0
  0
SPLINE
  5
25b
100
AcDbEntity
  8
0
 62
7
100
AcDbSpline
 70
8
 71
3
 72
8
 73
4
 74
0
 40
0
 40
0
 40
0
 40
0
 40
1
 40
1
 40
1
 40
1
 10
100.942833
 20
569.056050
 30
0.0
 10
106.689542
 20
571.436414
 30
0.0
 10
110.436496
 20
577.044127
 30
0.0
 10
110.436496
 20
583.264321
 30
0.0
  0
SPLINE
  5
25c
100
AcDbEntity
  8
0
 62
7
100
AcDbSpline
 70
8
 71
3
 72
8
 73
4
 74
0
 40
0
 40
0
 40
0
 40
0
 40
1
 40
1
 40
1
 40
1
 10
110.436496
 20
583.264321
 30
0.0
 10
110.436496
 20
587.343064
 30
0.0
 10
108.816222
 20
591.254753
 30
0.0
 10
105.932115
 20
594.138861
 30
0.0
  0
SPLINE
  5
25d
100
AcDbEntity
  8
0
 62
7
100
AcDbSpline
 70
8
 71
3
 72
8
 73
4
 74
0
 40
0
 40
0
 40
0
 40
0
 40
1
 40
1
 40
1
 40
1
 10
105.932115
 20
594.138861
 30
0.0
 10
103.048007
 20
597.022968
 30
0.0
 10
99.136318
 20
598.643242
 30
0.0
 10
95.057575
 20
598.643242
 30
0.0
  0
LWPOLYLINE
  5
25e
100
AcDbEntity
  8
0
 62
7
100
AcDbPolyline
 90
1
 70
1
 10
156.574946
 20
529.313912
 30
0.0
  0
SPLINE
  5
25f
100
AcDbEntity
  8
0
 62
7
100
AcDbSpline
 70
8
 71
3
 72
8
 73
4
 74
0
 40
0
 40
0
 40
0
 40
0
 40
1
 40
1
 40
1
 40
1
 10
514.924834
 20
383.317129
 30
0.0
 10
508.704628
 20
383.317129
 30
0.0
 10
503.096903
 20
379.570167
 30
0.0
 10
500.716534
 20
373.823446
 30
0.0
  0
SPLINE
  5
260
100
AcDbEntity
  8
0
 62
7
100
AcDbSpline
 70
8
 71
3
 72
8
 73
4
 74
0
 40
0
 40
0
 40
0
 40
0
 40
1
 40
1
 40
1
 40
1
 10
500.716534
 20
373.823446
 30
0.0
 10
498.336164
 20
368.076725
 30
0.0
 10
499.651922
 20
361.461964
 30
0.0
 10
504.050272
 20
357.063614
 30
0.0
  0
SPLINE
  5
261
100
AcDbEntity
  8
0
 62
7
100
AcDbSpline
 70
8
 71
3
 72
8
 73
4
 74
0
 40
0
 40
0
 40
0
 40
0
 40
1
 40
1
 40
1
 40
1
 10
504.050272
 20
357.063614
 30
0.0
 10
508.448621
 20
352.665264
 30
0.0
 10
515.063383
 20
351.349506
 30
0.0
 10
520.810104
 20
353.729876
 30
0.0
  0
SPLINE
  5
262
100
AcDbEntity
  8
0
 62
7
100
AcDbSpline
 70
8
 71
3
 72
8
 73
4
 74
0
 40
0
 40
0
 40
0
 40
0
 40
1
 40
1
 40
1
 40
1
 10
520.810104
 20
353.729876
 30
0.0
 10
526.556825
 20
356.110246
 30
0.0
 10
530.303787
 20
361.717970
 30
0.0
 10
530.303787
 20
367.938176
 30
0.0
  0
SPLINE
  5
263
100
AcDbEntity
  8
0
 62
7
100
AcDbSpline
 70
8
 71
3
 72
8
 73
4
 74
0
 40
0
 40
0
 40
0
 40
0
 40
1
 40
1
 40
1
 40
1
 10
530.303787
 20
367.938176
 30
0.0
 10
530.303787
 20
376.431737
 30
0.0
 10
523.418395
 20
383.317129
 30
0.0
 10
514.924834
 20
383.317129
 30
0.0
  0
LWPOLYLINE
  5
264
100
AcDbEntity
  8
0
 62
7
100
AcDbPolyline
 90
1
 70
1
 10
95.057575
 20
598.643242
 30
0.0
  0
SPLINE
  5
265
100
AcDbEntity
  8
0
 62
7
100
AcDbSpline
 70
8
 71
3
 72
8
 73
4
 74
0
 40
0
 40
0
 40
0
 40
0
 40
1
 40
1
 40
1
 40
1
 10
270.419709
 20
518.066153
 30
0.0
 10
265.099807
 20
518.066153
 30
0.0
 10
260.303737
 20
514.861522
 30
0.0
 10
258.267899
 20
509.946573
 30
0.0
  0
SPLINE
  5
266
100
AcDbEntity
  8
0
 62
7
100
AcDbSpline
 70
8
 71
3
 72
8
 73
4
 74
0
 40
0
 40
0
 40
0
 40
0
 40
1
 40
1
 40
1
 40
1
 10
258.267899
 20
509.946573
 30
0.0
 10
256.232061
 20
505.031625
 30
0.0
 10
257.357378
 20
499.374275
 30
0.0
 10
261.119116
 20
495.612536
 30
0.0
  0
SPLINE
  5
267
100
AcDbEntity
  8
0
 62
7
100
AcDbSpline
 70
8
 71
3
 72
8
 73
4
 74
0
 40
0
 40
0
 40
0
 40
0
 40
1
 40
1
 40
1
 40
1
 10
261.119116
 20
495.612536
 30
0.0
 10
264.880855
 20
491.850797
 30
0.0
 10
270.538205
 20
490.725480
 30
0.0
 10
275.453154
 20
492.761319
 30
0.0
  0
SPLINE
  5
268
100
AcDbEntity
  8
0
 62
7
100
AcDbSpline
 70
8
 71
3
 72
8
 73
4
 74
0
 40
0
 40
0
 40
0
 40
0
 40
1
 40
1
 40
1
 40
1
 10
275.453154
 20
492.761319
 30
0.0
 10
280.368102
 20
494.797157
 30
0.0
 10
283.572734
 20
499.593227
 30
0.0
 10
283.572734
 20
504.913129
 30
0.0
  0
SPLINE
  5
269
100
AcDbEntity
  8
0
 62
7
100
AcDbSpline
 70
8
 71
3
 72
8
 73
4
 74
0
 40
0
 40
0
 40
0
 40
0
 40
1
 40
1
 40
1
 40
1
 10
283.572734
 20
504.913129
 30
0.0
 10
283.572734
 20
508.401528
 30
0.0
 10
282.186973
 20
511.747051
 30
0.0
 10
279.720302
 20
514.213722
 30
0.0
  0
SPLINE
  5
26a
100
AcDbEntity
  8
0
 62
7
100
AcDbSpline
 70
8
 71
3
 72
8
 73
4
 74
0
 40
0
 40
0
 40
0
 40
0
 40
1
 40
1
 40
1
 40
1
 10
279.720302
 20
514.213722
 30
0.0
 10
277.253632
 20
516.680392
 30
0.0
 10
273.908108
 20
518.066153
 30
0.0
 10
270.419709
 20
518.066153
 30
0.0
  0
LWPOLYLINE
  5
26b
100
AcDbEntity
  8
0
 62
7
100
AcDbPolyline
 90
1
 70
1
 10
514.924834
 20
383.317129
 30
0.0
  0
SPLINE
  5
26c
100
AcDbEntity
  8
0
 62
7
100
AcDbSpline
 70
8
 71
3
 72
8
 73
4
 74
0
 40
0
 40
0
 40
0
 40
0
 40
1
 40
1
 40
1
 40
1
 10
238.432210
 20
594.537273
 30
0.0
 10
230.609210
 20
594.537273
 30
0.0
 10
224.267415
 20
588.195478
 30
0.0
 10
224.267415
 20
580.372478
 30
0.0
  0
SPLINE
  5
26d
100
AcDbEntity
  8
0
 62
7
100
AcDbSpline
 70
8
 71
3
 72
8
 73
4
 74
0
 40
0
 40
0
 40
0
 40
0
 40
1
 40
1
 40
1
 40
1
 10
224.267415
 20
580.372478
 30
0.0
 10
224.267415
 20
572.549478
 30
0.0
 10
230.609210
 20
566.207683
 30
0.0
 10
238.432210
 20
566.207683
 30
0.0
  0
SPLINE
  5
26e
100
AcDbEntity
  8
0
 62
7
100
AcDbSpline
 70
8
 71
3
 72
8
 73
4
 74
0
 40
0
 40
0
 40
0
 40
0
 40
1
 40
1
 40
1
 40
1
 10
238.432210
 20
566.207683
 30
0.0
 10
246.255210
 20
566.207683
 30
0.0
 10
252.597005
 20
572.549478
 30
0.0
 10
252.597005
 20
580.372478
 30
0.0
  0
SPLINE
  5
26f
100
AcDbEntity
  8
0
 62
7
100
AcDbSpline
 70
8
 71
3
 72
8
 73
4
 74
0
 40
0
 40
0
 40
0
 40
0
 40
1
 40
1
 40
1
 40
1
 10
252.597005
 20
580.372478
 30
0.0
 10
252.597005
 20
584.129215
 30
0.0
 10
251.104647
 20
587.732086
 30
0.0
 10
248.448233
 20
590.388501
 30
0.0
  0
SPLINE
  5
270
100
AcDbEntity
  8
0
 62
7
100
AcDbSpline
 70
8
 71
3
 72
8
 73
4
 74
0
 40
0
 40
0
 40
0
 40
0
 40
1
 40
1
 40
1
 40
1
 10
248.448233
 20
590.388501
 30
0.0
 10
245.791818
 20
593.044915
 30
0.0
 10
242.188947
 20
594.537273
 30
0.0
 10
238.432210
 20
594.537273
 30
0.0
  0
LWPOLYLINE
  5
271
100
AcDbEntity
  8
0
 62
7
100
AcDbPolyline
 90
1
 70
1
 10
270.419709
 20
518.066153
 30
0.0
  0
SPLINE
  5
272
100
AcDbEntity
  8
0
 62
7
100
AcDbSpline
 70
8
 71
3
 72
8
 73
4
 74
0
 40
0
 40
0
 40
0
 40
0
 40
1
 40
1
 40
1
 40
1
 10
432.001925
 20
425.573779
 30
0.0
 10
426.272800
 20
425.573779
 30
0.0
 10
421.107802
 20
422.122637
 30
0.0
 10
418.915360
 20
416.829616
 30
0.0
  0
SPLINE
  5
273
100
AcDbEntity
  8
0
 62
7
100
AcDbSpline
 70
8
 71
3
 72
8
 73
4
 74
0
 40
0
 40
0
 40
0
 40
0
 40
1
 40
1
 40
1
 40
1
 10
418.915360
 20
416.829616
 30
0.0
 10
416.722919
 20
411.536595
 30
0.0
 10
417.934799
 20
405.444064
 30
0.0
 10
421.985902
 20
401.392961
 30
0.0
  0
SPLINE
  5
274
100
AcDbEntity
  8
0
 62
7
100
AcDbSpline
 70
8
 71
3
 72
8
 73
4
 74
0
 40
0
 40
0
 40
0
 40
0
 40
1
 40
1
 40
1
 40
1
 10
421.985902
 20
401.392961
 30
0.0
 10
426.037005
 20
397.341858
 30
0.0
 10
432.129536
 20
396.129978
 30
0.0
 10
437.422557
 20
398.322420
 30
0.0
  0
SPLINE
  5
275
100
AcDbEntity
  8
0
 62
7
100
AcDbSpline
 70
8
 71
3
 72
8
 73
4
 74
0
 40
0
 40
0
 40
0
 40
0
 40
1
 40
1
 40
1
 40
1
 10
437.422557
 20
398.322420
 30
0.0
 10
442.715578
 20
400.514861
 30
0.0
 10
446.166720
 20
405.679859
 30
0.0
 10
446.166720
 20
411.408984
 30
0.0
  0
SPLINE
  5
276
100
AcDbEntity
  8
0
 62
7
100
AcDbSpline
 70
8
 71
3
 72
8
 73
4
 74
0
 40
0
 40
0
 40
0
 40
0
 40
1
 40
1
 40
1
 40
1
 10
446.166720
 20
411.408984
 30
0.0
 10
446.166720
 20
415.165721
 30
0.0
 10
444.674362
 20
418.768592
 30
0.0
 10
442.017947
 20
421.425007
 30
0.0
  0
SPLINE
  5
277
100
AcDbEntity
  8
0
 62
7
100
AcDbSpline
 70
8
 71
3
 72
8
 73
4
 74
0
 40
0
 40
0
 40
0
 40
0
 40
1
 40
1
 40
1
 40
1
 10
442.017947
 20
421.425007
 30
0.0
 10
439.361533
 20
424.081421
 30
0.0
 10
435.758662
 20
425.573779
 30
0.0
 10
432.001925
 20
425.573779
 30
0.0
  0
LWPOLYLINE
  5
278
100
AcDbEntity
  8
0
 62
7
100
AcDbPolyline
 90
1
 70
1
 10
238.432210
 20
594.537273
 30
0.0
  0
SPLINE
  5
279
100
AcDbEntity
  8
0
 62
7
100
AcDbSpline
 70
8
 71
3
 72
8
 73
4
 74
0
 40
0
 40
0
 40
0
 40
0
 40
1
 40
1
 40
1
 40
1
 10
502.539421
 20
454.281071
 30
0.0
 10
496.810296
 20
454.281071
 30
0.0
 10
491.645298
 20
450.829930
 30
0.0
 10
489.452857
 20
445.536908
 30
0.0
  0
SPLINE
  5
27a
100
AcDbEntity
  8
0
 62
7
100
AcDbSpline
 70
8
 71
3
 72
8
 73
4
 74
0
 40
0
 40
0
 40
0
 40
0
 40
1
 40
1
 40
1
 40
1
 10
489.452857
 20
445.536908
 30
0.0
 10
487.260416
 20
440.243887
 30
0.0
 10
488.472296
 20
434.151356
 30
0.0
 10
492.523399
 20
430.100253
 30
0.0
  0
SPLINE
  5
27b
100
AcDbEntity
  8
0
 62
7
100
AcDbSpline
 70
8
 71
3
 72
8
 73
4
 74
0
 40
0
 40
0
 40
0
 40
0
 40
1
 40
1
 40
1
 40
1
 10
492.523399
 20
430.100253
 30
0.0
 10
496.574502
 20
426.049150
 30
0.0
 10
502.667033
 20
424.837271
 30
0.0
 10
507.960054
 20
427.029712
 30
0.0
  0
SPLINE
  5
27c
100
AcDbEntity
  8
0
 62
7
100
AcDbSpline
 70
8
 71
3
 72
8
 73
4
 74
0
 40
0
 40
0
 40
0
 40
0
 40
1
 40
1
 40
1
 40
1
 10
507.960054
 20
427.029712
 30
0.0
 10
513.253075
 20
429.222153
 30
0.0
 10
516.704216
 20
434.387151
 30
0.0
 10
516.704216
 20
440.116276
 30
0.0
  0
SPLINE
  5
27d
100
AcDbEntity
  8
0
 62
7
100
AcDbSpline
 70
8
 71
3
 72
8
 73
4
 74
0
 40
0
 40
0
 40
0
 40
0
 40
1
 40
1
 40
1
 40
1
 10
516.704216
 20
440.116276
 30
0.0
 10
516.704216
 20
443.873013
 30
0.0
 10
515.211858
 20
447.475884
 30
0.0
 10
512.555444
 20
450.132299
 30
0.0
  0
SPLINE
  5
27e
100
AcDbEntity
  8
0
 62
7
100
AcDbSpline
 70
8
 71
3
 72
8
 73
4
 74
0
 40
0
 40
0
 40
0
 40
0
 40
1
 40
1
 40
1
 40
1
 10
512.555444
 20
450.132299
 30
0.0
 10
509.899030
 20
452.788713
 30
0.0
 10
506.296159
 20
454.281071
 30
0.0
 10
502.539421
 20
454.281071
 30
0.0
  0
LWPOLYLINE
  5
27f
100
AcDbEntity
  8
0
 62
7
100
AcDbPolyline
 90
1
 70
1
 10
432.001925
 20
425.573779
 30
0.0
  0
SPLINE
  5
280
100
AcDbEntity
  8
0
 62
7
100
AcDbSpline
 70
8
 71
3
 72
8
 73
4
 74
0
 40
0
 40
0
 40
0
 40
0
 40
1
 40
1
 40
1
 40
1
 10
349.160276
 20
401.787329
 30
0.0
 10
343.431151
 20
401.787329
 30
0.0
 10
338.266153
 20
398.336187
 30
0.0
 10
336.073712
 20
393.043166
 30
0.0
  0
SPLINE
  5
281
100
AcDbEntity
  8
0
 62
7
100
AcDbSpline
 70
8
 71
3
 72
8
 73
4
 74
0
 40
0
 40
0
 40
0
 40
0
 40
1
 40
1
 40
1
 40
1
 10
336.073712
 20
393.043166
 30
0.0
 10
333.881271
 20
387.750145
 30
0.0
 10
335.093150
 20
381.657614
 30
0.0
 10
339.144253
 20
377.606511
 30
0.0
  0
SPLINE
  5
282
100
AcDbEntity
  8
0
 62
7
100
AcDbSpline
 70
8
 71
3
 72
8
 73
4
 74
0
 40
0
 40
0
 40
0
 40
0
 40
1
 40
1
 40
1
 40
1
 10
339.144253
 20
377.606511
 30
0.0
 10
343.195356
 20
373.555408
 30
0.0
 10
349.287887
 20
372.343528
 30
0.0
 10
354.580908
 20
374.535969
 30
0.0
  0
SPLINE
  5
283
100
AcDbEntity
  8
0
 62
7
100
AcDbSpline
 70
8
 71
3
 72
8
 73
4
 74
0
 40
0
 40
0
 40
0
 40
0
 40
1
 40
1
 40
1
 40
1
 10
354.580908
 20
374.535969
 30
0.0
 10
359.873930
 20
376.728410
 30
0.0
 10
363.325071
 20
381.893409
 30
0.0
 10
363.325071
 20
387.622534
 30
0.0
  0
SPLINE
  5
284
100
AcDbEntity
  8
0
 62
7
100
AcDbSpline
 70
8
 71
3
 72
8
 73
4
 74
0
 40
0
 40
0
 40
0
 40
0
 40
1
 40
1
 40
1
 40
1
 10
363.325071
 20
387.622534
 30
0.0
 10
363.325071
 20
391.379271
 30
0.0
 10
361.832713
 20
394.982142
 30
0.0
 10
359.176299
 20
397.638556
 30
0.0
  0
SPLINE
  5
285
100
AcDbEntity
  8
0
 62
7
100
AcDbSpline
 70
8
 71
3
 72
8
 73
4
 74
0
 40
0
 40
0
 40
0
 40
0
 40
1
 40
1
 40
1
 40
1
 10
359.176299
 20
397.638556
 30
0.0
 10
356.519884
 20
400.294971
 30
0.0
 10
352.917013
 20
401.787329
 30
0.0
 10
349.160276
 20
401.787329
 30
0.0
  0
LWPOLYLINE
  5
286
100
AcDbEntity
  8
0
 62
7
100
AcDbPolyline
 90
1
 70
1
 10
502.539421
 20
454.281071
 30
0.0
  0
SPLINE
  5
287
100
AcDbEntity
  8
0
 62
7
100
AcDbSpline
 70
8
 71
3
 72
8
 73
4
 74
0
 40
0
 40
0
 40
0
 40
0
 40
1
 40
1
 40
1
 40
1
 10
108.018713
 20
456.741497
 30
0.0
 10
102.289588
 20
456.741497
 30
0.0
 10
97.124590
 20
453.290356
 30
0.0
 10
94.932149
 20
447.997335
 30
0.0
  0
SPLINE
  5
288
100
AcDbEntity
  8
0
 62
7
100
AcDbSpline
 70
8
 71
3
 72
8
 73
4
 74
0
 40
0
 40
0
 40
0
 40
0
 40
1
 40
1
 40
1
 40
1
 10
94.932149
 20
447.997335
 30
0.0
 10
92.739707
 20
442.704314
 30
0.0
 10
93.951587
 20
436.611783
 30
0.0
 10
98.002690
 20
432.560680
 30
0.0
  0
SPLINE
  5
289
100
AcDbEntity
  8
0
 62
7
100
AcDbSpline
 70
8
 71
3
 72
8
 73
4
 74
0
 40
0
 40
0
 40
0
 40
0
 40
1
 40
1
 40
1
 40
1
 10
98.002690
 20
432.560680
 30
0.0
 10
102.053793
 20
428.509577
 30
0.0
 10
108.146324
 20
427.297697
 30
0.0
 10
113.439345
 20
429.490138
 30
0.0
  0
SPLINE
  5
28a
100
AcDbEntity
  8
0
 62
7
100
AcDbSpline
 70
8
 71
3
 72
8
 73
4
 74
0
 40
0
 40
0
 40
0
 40
0
 40
1
 40
1
 40
1
 40
1
 10
113.439345
 20
429.490138
 30
0.0
 10
118.732367
 20
431.682579
 30
0.0
 10
122.183508
 20
436.847577
 30
0.0
 10
122.183508
 20
442.576702
 30
0.0
  0
SPLINE
  5
28b
100
AcDbEntity
  8
0
 62
7
100
AcDbSpline
 70
8
 71
3
 72
8
 73
4
 74
0
 40
0
 40
0
 40
0
 40
0
 40
1
 40
1
 40
1
 40
1
 10
122.183508
 20
442.576702
 30
0.0
 10
122.183508
 20
446.333440
 30
0.0
 10
120.691150
 20
449.936311
 30
0.0
 10
118.034736
 20
452.592725
 30
0.0
  0
SPLINE
  5
28c
100
AcDbEntity
  8
0
 62
7
100
AcDbSpline
 70
8
 71
3
 72
8
 73
4
 74
0
 40
0
 40
0
 40
0
 40
0
 40
1
 40
1
 40
1
 40
1
 10
118.034736
 20
452.592725
 30
0.0
 10
115.378321
 20
455.249139
 30
0.0
 10
111.775450
 20
456.741497
 30
0.0
 10
108.018713
 20
456.741497
 30
0.0
  0
LWPOLYLINE
  5
28d
100
AcDbEntity
  8
0
 62
7
100
AcDbPolyline
 90
1
 70
1
 10
349.160276
 20
401.787329
 30
0.0
  0
SPLINE
  5
28e
100
AcDbEntity
  8
0
 62
7
100
AcDbSpline
 70
8
 71
3
 72
8
 73
4
 74
0
 40
0
 40
0
 40
0
 40
0
 40
1
 40
1
 40
1
 40
1
 10
62.907164
 20
525.639380
 30
0.0
 10
57.178039
 20
525.639380
 30
0.0
 10
52.013041
 20
522.188238
 30
0.0
 10
49.820600
 20
516.895217
 30
0.0
  0
SPLINE
  5
28f
100
AcDbEntity
  8
0
 62
7
100
AcDbSpline
 70
8
 71
3
 72
8
 73
4
 74
0
 40
0
 40
0
 40
0
 40
0
 40
1
 40
1
 40
1
 40
1
 10
49.820600
 20
516.895217
 30
0.0
 10
47.628158
 20
511.602196
 30
0.0
 10
48.840038
 20
505.509665
 30
0.0
 10
52.891141
 20
501.458562
 30
0.0
  0
SPLINE
  5
290
100
AcDbEntity
  8
0
 62
7
100
AcDbSpline
 70
8
 71
3
 72
8
 73
4
 74
0
 40
0
 40
0
 40
0
 40
0
 40
1
 40
1
 40
1
 40
1
 10
52.891141
 20
501.458562
 30
0.0
 10
56.942244
 20
497.407459
 30
0.0
 10
63.034775
 20
496.195579
 30
0.0
 10
68.327796
 20
498.388021
 30
0.0
  0
SPLINE
  5
291
100
AcDbEntity
  8
0
 62
7
100
AcDbSpline
 70
8
 71
3
 72
8
 73
4
 74
0
 40
0
 40
0
 40
0
 40
0
 40
1
 40
1
 40
1
 40
1
 10
68.327796
 20
498.388021
 30
0.0
 10
73.620817
 20
500.580462
 30
0.0
 10
77.071959
 20
505.745460
 30
0.0
 10
77.071959
 20
511.474585
 30
0.0
  0
SPLINE
  5
292
100
AcDbEntity
  8
0
 62
7
100
AcDbSpline
 70
8
 71
3
 72
8
 73
4
 74
0
 40
0
 40
0
 40
0
 40
0
 40
1
 40
1
 40
1
 40
1
 10
77.071959
 20
511.474585
 30
0.0
 10
77.071959
 20
515.231322
 30
0.0
 10
75.579601
 20
518.834193
 30
0.0
 10
72.923187
 20
521.490608
 30
0.0
  0
SPLINE
  5
293
100
AcDbEntity
  8
0
 62
7
100
AcDbSpline
 70
8
 71
3
 72
8
 73
4
 74
0
 40
0
 40
0
 40
0
 40
0
 40
1
 40
1
 40
1
 40
1
 10
72.923187
 20
521.490608
 30
0.0
 10
70.266772
 20
524.147022
 30
0.0
 10
66.663901
 20
525.639380
 30
0.0
 10
62.907164
 20
525.639380
 30
0.0
  0
LWPOLYLINE
  5
294
100
AcDbEntity
  8
0
 62
7
100
AcDbPolyline
 90
1
 70
1
 10
108.018713
 20
456.741497
 30
0.0
  0
SPLINE
  5
295
100
AcDbEntity
  8
0
 62
7
100
AcDbSpline
 70
8
 71
3
 72
8
 73
4
 74
0
 40
0
 40
0
 40
0
 40
0
 40
1
 40
1
 40
1
 40
1
 10
903.622575
 20
303.362352
 30
0.0
 10
897.893450
 20
303.362352
 30
0.0
 10
892.728452
 20
299.911211
 30
0.0
 10
890.536011
 20
294.618189
 30
0.0
  0
SPLINE
  5
296
100
AcDbEntity
  8
0
 62
7
100
AcDbSpline
 70
8
 71
3
 72
8
 73
4
 74
0
 40
0
 40
0
 40
0
 40
0
 40
1
 40
1
 40
1
 40
1
 10
890.536011
 20
294.618189
 30
0.0
 10
888.343570
 20
289.325168
 30
0.0
 10
889.555450
 20
283.232637
 30
0.0
 10
893.606553
 20
279.181534
 30
0.0
  0
SPLINE
  5
297
100
AcDbEntity
  8
0
 62
7
100
AcDbSpline
 70
8
 71
3
 72
8
 73
4
 74
0
 40
0
 40
0
 40
0
 40
0
 40
1
 40
1
 40
1
 40
1
 10
893.606553
 20
279.181534
 30
0.0
 10
897.657656
 20
275.130431
 30
0.0
 10
903.750187
 20
273.918552
 30
0.0
 10
909.043208
 20
276.110993
 30
0.0
  0
SPLINE
  5
298
100
AcDbEntity
  8
0
 62
7
100
AcDbSpline
 70
8
 71
3
 72
8
 73
4
 74
0
 40
0
 40
0
 40
0
 40
0
 40
1
 40
1
 40
1
 40
1
 10
909.043208
 20
276.110993
 30
0.0
 10
914.336229
 20
278.303434
 30
0.0
 10
917.787370
 20
283.468432
 30
0.0
 10
917.787370
 20
289.197557
 30
0.0
  0
SPLINE
  5
299
100
AcDbEntity
  8
0
 62
7
100
AcDbSpline
 70
8
 71
3
 72
8
 73
4
 74
0
 40
0
 40
0
 40
0
 40
0
 40
1
 40
1
 40
1
 40
1
 10
917.787370
 20
289.197557
 30
0.0
 10
917.787370
 20
292.954294
 30
0.0
 10
916.295012
 20
296.557165
 30
0.0
 10
913.638598
 20
299.213580
 30
0.0
  0
SPLINE
  5
29a
100
AcDbEntity
  8
0
 62
7
100
AcDbSpline
 70
8
 71
3
 72
8
 73
4
 74
0
 40
0
 40
0
 40
0
 40
0
 40
1
 40
1
 40
1
 40
1
 10
913.638598
 20
299.213580
 30
0.0
 10
910.982184
 20
301.869994
 30
0.0
 10
907.379313
 20
303.362352
 30
0.0
 10
903.622575
 20
303.362352
 30
0.0
  0
LWPOLYLINE
  5
29b
100
AcDbEntity
  8
0
 62
7
100
AcDbPolyline
 90
1
 70
1
 10
62.907164
 20
525.639380
 30
0.0
  0
SPLINE
  5
29c
100
AcDbEntity
  8
0
 62
7
100
AcDbSpline
 70
8
 71
3
 72
8
 73
4
 74
0
 40
0
 40
0
 40
0
 40
0
 40
1
 40
1
 40
1
 40
1
 10
838.004921
 20
95.029090
 30
0.0
 10
832.275796
 20
95.029090
 30
0.0
 10
827.110798
 20
91.577949
 30
0.0
 10
824.918356
 20
86.284928
 30
0.0
  0
SPLINE
  5
29d
100
AcDbEntity
  8
0
 62
7
100
AcDbSpline
 70
8
 71
3
 72
8
 73
4
 74
0
 40
0
 40
0
 40
0
 40
0
 40
1
 40
1
 40
1
 40
1
 10
824.918356
 20
86.284928
 30
0.0
 10
822.725915
 20
80.991906
 30
0.0
 10
823.937795
 20
74.899375
 30
0.0
 10
827.988898
 20
70.848272
 30
0.0
  0
SPLINE
  5
29e
100
AcDbEntity
  8
0
 62
7
100
AcDbSpline
 70
8
 71
3
 72
8
 73
4
 74
0
 40
0
 40
0
 40
0
 40
0
 40
1
 40
1
 40
1
 40
1
 10
827.988898
 20
70.848272
 30
0.0
 10
832.040001
 20
66.797169
 30
0.0
 10
838.132532
 20
65.585290
 30
0.0
 10
843.425553
 20
67.777731
 30
0.0
  0
SPLINE
  5
29f
100
AcDbEntity
  8
0
 62
7
100
AcDbSpline
 70
8
 71
3
 72
8
 73
4
 74
0
 40
0
 40
0
 40
0
 40
0
 40
1
 40
1
 40
1
 40
1
 10
843.425553
 20
67.777731
 30
0.0
 10
848.718574
 20
69.970172
 30
0.0
 10
852.169716
 20
75.135170
 30
0.0
 10
852.169716
 20
80.864295
 30
0.0
  0
SPLINE
  5
2a0
100
AcDbEntity
  8
0
 62
7
100
AcDbSpline
 70
8
 71
3
 72
8
 73
4
 74
0
 40
0
 40
0
 40
0
 40
0
 40
1
 40
1
 40
1
 40
1
 10
852.169716
 20
80.864295
 30
0.0
 10
852.169716
 20
88.687296
 30
0.0
 10
845.827921
 20
95.029090
 30
0.0
 10
838.004921
 20
95.029090
 30
0.0
  0
LWPOLYLINE
  5
2a1
100
AcDbEntity
  8
0
 62
7
100
AcDbPolyline
 90
1
 70
1
 10
903.622575
 20
303.362352
 30
0.0
  0
SPLINE
  5
2a2
100
AcDbEntity
  8
0
 62
7
100
AcDbSpline
 70
8
 71
3
 72
8
 73
4
 74
0
 40
0
 40
0
 40
0
 40
0
 40
1
 40
1
 40
1
 40
1
 10
847.191355
 20
367.831080
 30
0.0
 10
841.462230
 20
367.831080
 30
0.0
 10
836.297232
 20
364.379938
 30
0.0
 10
834.104791
 20
359.086917
 30
0.0
  0
SPLINE
  5
2a3
100
AcDbEntity
  8
0
 62
7
100
AcDbSpline
 70
8
 71
3
 72
8
 73
4
 74
0
 40
0
 40
0
 40
0
 40
0
 40
1
 40
1
 40
1
 40
1
 10
834.104791
 20
359.086917
 30
0.0
 10
831.912350
 20
353.793896
 30
0.0
 10
833.124229
 20
347.701365
 30
0.0
 10
837.175332
 20
343.650262
 30
0.0
  0
SPLINE
  5
2a4
100
AcDbEntity
  8
0
 62
7
100
AcDbSpline
 70
8
 71
3
 72
8
 73
4
 74
0
 40
0
 40
0
 40
0
 40
0
 40
1
 40
1
 40
1
 40
1
 10
837.175332
 20
343.650262
 30
0.0
 10
841.226435
 20
339.599159
 30
0.0
 10
847.318966
 20
338.387279
 30
0.0
 10
852.611988
 20
340.579721
 30
0.0
  0
SPLINE
  5
2a5
100
AcDbEntity
  8
0
 62
7
100
AcDbSpline
 70
8
 71
3
 72
8
 73
4
 74
0
 40
0
 40
0
 40
0
 40
0
 40
1
 40
1
 40
1
 40
1
 10
852.611988
 20
340.579721
 30
0.0
 10
857.905009
 20
342.772162
 30
0.0
 10
861.356150
 20
347.937160
 30
0.0
 10
861.356150
 20
353.666285
 30
0.0
  0
SPLINE
  5
2a6
100
AcDbEntity
  8
0
 62
7
100
AcDbSpline
 70
8
 71
3
 72
8
 73
4
 74
0
 40
0
 40
0
 40
0
 40
0
 40
1
 40
1
 40
1
 40
1
 10
861.356150
 20
353.666285
 30
0.0
 10
861.356150
 20
361.489285
 30
0.0
 10
855.014355
 20
367.831080
 30
0.0
 10
847.191355
 20
367.831080
 30
0.0
  0
LWPOLYLINE
  5
2a7
100
AcDbEntity
  8
0
 62
7
100
AcDbPolyline
 90
1
 70
1
 10
838.004921
 20
95.029090
 30
0.0
  0
SPLINE
  5
2a8
100
AcDbEntity
  8
0
 62
7
100
AcDbSpline
 70
8
 71
3
 72
8
 73
4
 74
0
 40
0
 40
0
 40
0
 40
0
 40
1
 40
1
 40
1
 40
1
 10
906.083022
 20
159.005152
 30
0.0
 10
898.260022
 20
159.005152
 30
0.0
 10
891.918227
 20
152.663357
 30
0.0
 10
891.918227
 20
144.840357
 30
0.0
  0
SPLINE
  5
2a9
100
AcDbEntity
  8
0
 62
7
100
AcDbSpline
 70
8
 71
3
 72
8
 73
4
 74
0
 40
0
 40
0
 40
0
 40
0
 40
1
 40
1
 40
1
 40
1
 10
891.918227
 20
144.840357
 30
0.0
 10
891.918227
 20
137.017356
 30
0.0
 10
898.260022
 20
130.675561
 30
0.0
 10
906.083022
 20
130.675561
 30
0.0
  0
SPLINE
  5
2aa
100
AcDbEntity
  8
0
 62
7
100
AcDbSpline
 70
8
 71
3
 72
8
 73
4
 74
0
 40
0
 40
0
 40
0
 40
0
 40
1
 40
1
 40
1
 40
1
 10
906.083022
 20
130.675561
 30
0.0
 10
913.906023
 20
130.675561
 30
0.0
 10
920.247818
 20
137.017356
 30
0.0
 10
920.247818
 20
144.840357
 30
0.0
  0
SPLINE
  5
2ab
100
AcDbEntity
  8
0
 62
7
100
AcDbSpline
 70
8
 71
3
 72
8
 73
4
 74
0
 40
0
 40
0
 40
0
 40
0
 40
1
 40
1
 40
1
 40
1
 10
920.247818
 20
144.840357
 30
0.0
 10
920.247818
 20
148.597094
 30
0.0
 10
918.755459
 20
152.199965
 30
0.0
 10
916.099045
 20
154.856379
 30
0.0
  0
SPLINE
  5
2ac
100
AcDbEntity
  8
0
 62
7
100
AcDbSpline
 70
8
 71
3
 72
8
 73
4
 74
0
 40
0
 40
0
 40
0
 40
0
 40
1
 40
1
 40
1
 40
1
 10
916.099045
 20
154.856379
 30
0.0
 10
913.442631
 20
157.512794
 30
0.0
 10
909.839760
 20
159.005152
 30
0.0
 10
906.083022
 20
159.005152
 30
0.0
  0
LWPOLYLINE
  5
2ad
100
AcDbEntity
  8
0
 62
7
100
AcDbPolyline
 90
1
 70
1
 10
847.191355
 20
367.831080
 30
0.0
  0
SPLINE
  5
2ae
100
AcDbEntity
  8
0
 62
7
100
AcDbSpline
 70
8
 71
3
 72
8
 73
4
 74
0
 40
0
 40
0
 40
0
 40
0
 40
1
 40
1
 40
1
 40
1
 10
876.268418
 20
231.470741
 30
0.0
 10
870.539293
 20
231.470741
 30
0.0
 10
865.374295
 20
228.019600
 30
0.0
 10
863.181854
 20
222.726579
 30
0.0
  0
SPLINE
  5
2af
100
AcDbEntity
  8
0
 62
7
100
AcDbSpline
 70
8
 71
3
 72
8
 73
4
 74
0
 40
0
 40
0
 40
0
 40
0
 40
1
 40
1
 40
1
 40
1
 10
863.181854
 20
222.726579
 30
0.0
 10
860.989413
 20
217.433558
 30
0.0
 10
862.201292
 20
211.341027
 30
0.0
 10
866.252395
 20
207.289924
 30
0.0
  0
SPLINE
  5
2b0
100
AcDbEntity
  8
0
 62
7
100
AcDbSpline
 70
8
 71
3
 72
8
 73
4
 74
0
 40
0
 40
0
 40
0
 40
0
 40
1
 40
1
 40
1
 40
1
 10
866.252395
 20
207.289924
 30
0.0
 10
870.303498
 20
203.238821
 30
0.0
 10
876.396029
 20
202.026941
 30
0.0
 10
881.689050
 20
204.219382
 30
0.0
  0
SPLINE
  5
2b1
100
AcDbEntity
  8
0
 62
7
100
AcDbSpline
 70
8
 71
3
 72
8
 73
4
 74
0
 40
0
 40
0
 40
0
 40
0
 40
1
 40
1
 40
1
 40
1
 10
881.689050
 20
204.219382
 30
0.0
 10
886.982072
 20
206.411823
 30
0.0
 10
890.433213
 20
211.576821
 30
0.0
 10
890.433213
 20
217.305946
 30
0.0
  0
SPLINE
  5
2b2
100
AcDbEntity
  8
0
 62
7
100
AcDbSpline
 70
8
 71
3
 72
8
 73
4
 74
0
 40
0
 40
0
 40
0
 40
0
 40
1
 40
1
 40
1
 40
1
 10
890.433213
 20
217.305946
 30
0.0
 10
890.433213
 20
221.062684
 30
0.0
 10
888.940855
 20
224.665555
 30
0.0
 10
886.284441
 20
227.321969
 30
0.0
  0
SPLINE
  5
2b3
100
AcDbEntity
  8
0
 62
7
100
AcDbSpline
 70
8
 71
3
 72
8
 73
4
 74
0
 40
0
 40
0
 40
0
 40
0
 40
1
 40
1
 40
1
 40
1
 10
886.284441
 20
227.321969
 30
0.0
 10
883.628026
 20
229.978383
 30
0.0
 10
880.025155
 20
231.470741
 30
0.0
 10
876.268418
 20
231.470741
 30
0.0
  0
LWPOLYLINE
  5
2b4
100
AcDbEntity
  8
0
 62
7
100
AcDbPolyline
 90
1
 70
1
 10
906.083022
 20
159.005152
 30
0.0
  0
SPLINE
  5
2b5
100
AcDbEntity
  8
0
 62
7
100
AcDbSpline
 70
8
 71
3
 72
8
 73
4
 74
0
 40
0
 40
0
 40
0
 40
0
 40
1
 40
1
 40
1
 40
1
 10
650.792506
 20
295.570688
 30
0.0
 10
642.969505
 20
295.570688
 30
0.0
 10
636.627711
 20
289.228893
 30
0.0
 10
636.627711
 20
281.405893
 30
0.0
  0
SPLINE
  5
2b6
100
AcDbEntity
  8
0
 62
7
100
AcDbSpline
 70
8
 71
3
 72
8
 73
4
 74
0
 40
0
 40
0
 40
0
 40
0
 40
1
 40
1
 40
1
 40
1
 10
636.627711
 20
281.405893
 30
0.0
 10
636.627711
 20
273.582893
 30
0.0
 10
642.969505
 20
267.241098
 30
0.0
 10
650.792506
 20
267.241098
 30
0.0
  0
SPLINE
  5
2b7
100
AcDbEntity
  8
0
 62
7
100
AcDbSpline
 70
8
 71
3
 72
8
 73
4
 74
0
 40
0
 40
0
 40
0
 40
0
 40
1
 40
1
 40
1
 40
1
 10
650.792506
 20
267.241098
 30
0.0
 10
658.615506
 20
267.241098
 30
0.0
 10
664.957301
 20
273.582893
 30
0.0
 10
664.957301
 20
281.405893
 30
0.0
  0
SPLINE
  5
2b8
100
AcDbEntity
  8
0
 62
7
100
AcDbSpline
 70
8
 71
3
 72
8
 73
4
 74
0
 40
0
 40
0
 40
0
 40
0
 40
1
 40
1
 40
1
 40
1
 10
664.957301
 20
281.405893
 30
0.0
 10
664.957301
 20
285.162630
 30
0.0
 10
663.464943
 20
288.765501
 30
0.0
 10
660.808529
 20
291.421916
 30
0.0
  0
SPLINE
  5
2b9
100
AcDbEntity
  8
0
 62
7
100
AcDbSpline
 70
8
 71
3
 72
8
 73
4
 74
0
 40
0
 40
0
 40
0
 40
0
 40
1
 40
1
 40
1
 40
1
 10
660.808529
 20
291.421916
 30
0.0
 10
658.152114
 20
294.078330
 30
0.0
 10
654.549243
 20
295.570688
 30
0.0
 10
650.792506
 20
295.570688
 30
0.0
  0
LWPOLYLINE
  5
2ba
100
AcDbEntity
  8
0
 62
7
100
AcDbPolyline
 90
1
 70
1
 10
876.268418
 20
231.470741
 30
0.0
  0
SPLINE
  5
2bb
100
AcDbEntity
  8
0
 62
7
100
AcDbSpline
 70
8
 71
3
 72
8
 73
4
 74
0
 40
0
 40
0
 40
0
 40
0
 40
1
 40
1
 40
1
 40
1
 10
810.786263
 20
234.640292
 30
0.0
 10
805.057139
 20
234.640292
 30
0.0
 10
799.892140
 20
231.189151
 30
0.0
 10
797.699699
 20
225.896130
 30
0.0
  0
SPLINE
  5
2bc
100
AcDbEntity
  8
0
 62
7
100
AcDbSpline
 70
8
 71
3
 72
8
 73
4
 74
0
 40
0
 40
0
 40
0
 40
0
 40
1
 40
1
 40
1
 40
1
 10
797.699699
 20
225.896130
 30
0.0
 10
795.507258
 20
220.603108
 30
0.0
 10
796.719138
 20
214.510578
 30
0.0
 10
800.770241
 20
210.459475
 30
0.0
  0
SPLINE
  5
2bd
100
AcDbEntity
  8
0
 62
7
100
AcDbSpline
 70
8
 71
3
 72
8
 73
4
 74
0
 40
0
 40
0
 40
0
 40
0
 40
1
 40
1
 40
1
 40
1
 10
800.770241
 20
210.459475
 30
0.0
 10
804.821344
 20
206.408372
 30
0.0
 10
810.913875
 20
205.196492
 30
0.0
 10
816.206896
 20
207.388933
 30
0.0
  0
SPLINE
  5
2be
100
AcDbEntity
  8
0
 62
7
100
AcDbSpline
 70
8
 71
3
 72
8
 73
4
 74
0
 40
0
 40
0
 40
0
 40
0
 40
1
 40
1
 40
1
 40
1
 10
816.206896
 20
207.388933
 30
0.0
 10
821.499917
 20
209.581374
 30
0.0
 10
824.951059
 20
214.746372
 30
0.0
 10
824.951059
 20
220.475497
 30
0.0
  0
SPLINE
  5
2bf
100
AcDbEntity
  8
0
 62
7
100
AcDbSpline
 70
8
 71
3
 72
8
 73
4
 74
0
 40
0
 40
0
 40
0
 40
0
 40
1
 40
1
 40
1
 40
1
 10
824.951059
 20
220.475497
 30
0.0
 10
824.951059
 20
224.232234
 30
0.0
 10
823.458700
 20
227.835106
 30
0.0
 10
820.802286
 20
230.491520
 30
0.0
  0
SPLINE
  5
2c0
100
AcDbEntity
  8
0
 62
7
100
AcDbSpline
 70
8
 71
3
 72
8
 73
4
 74
0
 40
0
 40
0
 40
0
 40
0
 40
1
 40
1
 40
1
 40
1
 10
820.802286
 20
230.491520
 30
0.0
 10
818.145872
 20
233.147934
 30
0.0
 10
814.543001
 20
234.640292
 30
0.0
 10
810.786263
 20
234.640292
 30
0.0
  0
LWPOLYLINE
  5
2c1
100
AcDbEntity
  8
0
 62
7
100
AcDbPolyline
 90
1
 70
1
 10
650.792506
 20
295.570688
 30
0.0
  0
SPLINE
  5
2c2
100
AcDbEntity
  8
0
 62
7
100
AcDbSpline
 70
8
 71
3
 72
8
 73
4
 74
0
 40
0
 40
0
 40
0
 40
0
 40
1
 40
1
 40
1
 40
1
 10
617.368517
 20
90.928060
 30
0.0
 10
611.639392
 20
90.928060
 30
0.0
 10
606.474394
 20
87.476919
 30
0.0
 10
604.281953
 20
82.183898
 30
0.0
  0
SPLINE
  5
2c3
100
AcDbEntity
  8
0
 62
7
100
AcDbSpline
 70
8
 71
3
 72
8
 73
4
 74
0
 40
0
 40
0
 40
0
 40
0
 40
1
 40
1
 40
1
 40
1
 10
604.281953
 20
82.183898
 30
0.0
 10
602.089512
 20
76.890877
 30
0.0
 10
603.301392
 20
70.798346
 30
0.0
 10
607.352495
 20
66.747243
 30
0.0
  0
SPLINE
  5
2c4
100
AcDbEntity
  8
0
 62
7
100
AcDbSpline
 70
8
 71
3
 72
8
 73
4
 74
0
 40
0
 40
0
 40
0
 40
0
 40
1
 40
1
 40
1
 40
1
 10
607.352495
 20
66.747243
 30
0.0
 10
611.403598
 20
62.696140
 30
0.0
 10
617.496129
 20
61.484260
 30
0.0
 10
622.789150
 20
63.676701
 30
0.0
  0
SPLINE
  5
2c5
100
AcDbEntity
  8
0
 62
7
100
AcDbSpline
 70
8
 71
3
 72
8
 73
4
 74
0
 40
0
 40
0
 40
0
 40
0
 40
1
 40
1
 40
1
 40
1
 10
622.789150
 20
63.676701
 30
0.0
 10
628.082171
 20
65.869142
 30
0.0
 10
631.533312
 20
71.034140
 30
0.0
 10
631.533312
 20
76.763265
 30
0.0
  0
SPLINE
  5
2c6
100
AcDbEntity
  8
0
 62
7
100
AcDbSpline
 70
8
 71
3
 72
8
 73
4
 74
0
 40
0
 40
0
 40
0
 40
0
 40
1
 40
1
 40
1
 40
1
 10
631.533312
 20
76.763265
 30
0.0
 10
631.533312
 20
80.520003
 30
0.0
 10
630.040954
 20
84.122874
 30
0.0
 10
627.384540
 20
86.779288
 30
0.0
  0
SPLINE
  5
2c7
100
AcDbEntity
  8
0
 62
7
100
AcDbSpline
 70
8
 71
3
 72
8
 73
4
 74
0
 40
0
 40
0
 40
0
 40
0
 40
1
 40
1
 40
1
 40
1
 10
627.384540
 20
86.779288
 30
0.0
 10
624.728126
 20
89.435702
 30
0.0
 10
621.125255
 20
90.928060
 30
0.0
 10
617.368517
 20
90.928060
 30
0.0
  0
LWPOLYLINE
  5
2c8
100
AcDbEntity
  8
0
 62
7
100
AcDbPolyline
 90
1
 70
1
 10
810.786263
 20
234.640292
 30
0.0
  0
SPLINE
  5
2c9
100
AcDbEntity
  8
0
 62
7
100
AcDbSpline
 70
8
 71
3
 72
8
 73
4
 74
0
 40
0
 40
0
 40
0
 40
0
 40
1
 40
1
 40
1
 40
1
 10
606.132073
 20
367.092559
 30
0.0
 10
600.402948
 20
367.092559
 30
0.0
 10
595.237950
 20
363.641418
 30
0.0
 10
593.045509
 20
358.348397
 30
0.0
  0
SPLINE
  5
2ca
100
AcDbEntity
  8
0
 62
7
100
AcDbSpline
 70
8
 71
3
 72
8
 73
4
 74
0
 40
0
 40
0
 40
0
 40
0
 40
1
 40
1
 40
1
 40
1
 10
593.045509
 20
358.348397
 30
0.0
 10
590.853068
 20
353.055376
 30
0.0
 10
592.064948
 20
346.962845
 30
0.0
 10
596.116051
 20
342.911742
 30
0.0
  0
SPLINE
  5
2cb
100
AcDbEntity
  8
0
 62
7
100
AcDbSpline
 70
8
 71
3
 72
8
 73
4
 74
0
 40
0
 40
0
 40
0
 40
0
 40
1
 40
1
 40
1
 40
1
 10
596.116051
 20
342.911742
 30
0.0
 10
600.167154
 20
338.860639
 30
0.0
 10
606.259684
 20
337.648759
 30
0.0
 10
611.552706
 20
339.841200
 30
0.0
  0
SPLINE
  5
2cc
100
AcDbEntity
  8
0
 62
7
100
AcDbSpline
 70
8
 71
3
 72
8
 73
4
 74
0
 40
0
 40
0
 40
0
 40
0
 40
1
 40
1
 40
1
 40
1
 10
611.552706
 20
339.841200
 30
0.0
 10
616.845727
 20
342.033641
 30
0.0
 10
620.296868
 20
347.198639
 30
0.0
 10
620.296868
 20
352.927764
 30
0.0
  0
SPLINE
  5
2cd
100
AcDbEntity
  8
0
 62
7
100
AcDbSpline
 70
8
 71
3
 72
8
 73
4
 74
0
 40
0
 40
0
 40
0
 40
0
 40
1
 40
1
 40
1
 40
1
 10
620.296868
 20
352.927764
 30
0.0
 10
620.296868
 20
360.750765
 30
0.0
 10
613.955074
 20
367.092559
 30
0.0
 10
606.132073
 20
367.092559
 30
0.0
  0
LWPOLYLINE
  5
2ce
100
AcDbEntity
  8
0
 62
7
100
AcDbPolyline
 90
1
 70
1
 10
617.368517
 20
90.928060
 30
0.0
  0
SPLINE
  5
2cf
100
AcDbEntity
  8
0
 62
7
100
AcDbSpline
 70
8
 71
3
 72
8
 73
4
 74
0
 40
0
 40
0
 40
0
 40
0
 40
1
 40
1
 40
1
 40
1
 10
673.143529
 20
156.544694
 30
0.0
 10
667.414405
 20
156.544694
 30
0.0
 10
662.249406
 20
153.093553
 30
0.0
 10
660.056965
 20
147.800531
 30
0.0
  0
SPLINE
  5
2d0
100
AcDbEntity
  8
0
 62
7
100
AcDbSpline
 70
8
 71
3
 72
8
 73
4
 74
0
 40
0
 40
0
 40
0
 40
0
 40
1
 40
1
 40
1
 40
1
 10
660.056965
 20
147.800531
 30
0.0
 10
657.864524
 20
142.507510
 30
0.0
 10
659.076404
 20
136.414979
 30
0.0
 10
663.127507
 20
132.363876
 30
0.0
  0
SPLINE
  5
2d1
100
AcDbEntity
  8
0
 62
7
100
AcDbSpline
 70
8
 71
3
 72
8
 73
4
 74
0
 40
0
 40
0
 40
0
 40
0
 40
1
 40
1
 40
1
 40
1
 10
663.127507
 20
132.363876
 30
0.0
 10
667.178610
 20
128.312773
 30
0.0
 10
673.271141
 20
127.100894
 30
0.0
 10
678.564162
 20
129.293335
 30
0.0
  0
SPLINE
  5
2d2
100
AcDbEntity
  8
0
 62
7
100
AcDbSpline
 70
8
 71
3
 72
8
 73
4
 74
0
 40
0
 40
0
 40
0
 40
0
 40
1
 40
1
 40
1
 40
1
 10
678.564162
 20
129.293335
 30
0.0
 10
683.857183
 20
131.485776
 30
0.0
 10
687.308325
 20
136.650774
 30
0.0
 10
687.308325
 20
142.379899
 30
0.0
  0
SPLINE
  5
2d3
100
AcDbEntity
  8
0
 62
7
100
AcDbSpline
 70
8
 71
3
 72
8
 73
4
 74
0
 40
0
 40
0
 40
0
 40
0
 40
1
 40
1
 40
1
 40
1
 10
687.308325
 20
142.379899
 30
0.0
 10
687.308325
 20
146.136636
 30
0.0
 10
685.815966
 20
149.739507
 30
0.0
 10
683.159552
 20
152.395922
 30
0.0
  0
SPLINE
  5
2d4
100
AcDbEntity
  8
0
 62
7
100
AcDbSpline
 70
8
 71
3
 72
8
 73
4
 74
0
 40
0
 40
0
 40
0
 40
0
 40
1
 40
1
 40
1
 40
1
 10
683.159552
 20
152.395922
 30
0.0
 10
680.503138
 20
155.052336
 30
0.0
 10
676.900267
 20
156.544694
 30
0.0
 10
673.143529
 20
156.544694
 30
0.0
  0
LWPOLYLINE
  5
2d5
100
AcDbEntity
  8
0
 62
7
100
AcDbPolyline
 90
1
 70
1
 10
606.132073
 20
367.092559
 30
0.0
  0
SPLINE
  5
2d6
100
AcDbEntity
  8
0
 62
7
100
AcDbSpline
 70
8
 71
3
 72
8
 73
4
 74
0
 40
0
 40
0
 40
0
 40
0
 40
1
 40
1
 40
1
 40
1
 10
634.347678
 20
228.354086
 30
0.0
 10
628.618553
 20
228.354086
 30
0.0
 10
623.453555
 20
224.902945
 30
0.0
 10
621.261114
 20
219.609924
 30
0.0
  0
SPLINE
  5
2d7
100
AcDbEntity
  8
0
 62
7
100
AcDbSpline
 70
8
 71
3
 72
8
 73
4
 74
0
 40
0
 40
0
 40
0
 40
0
 40
1
 40
1
 40
1
 40
1
 10
621.261114
 20
219.609924
 30
0.0
 10
619.068673
 20
214.316902
 30
0.0
 10
620.280552
 20
208.224371
 30
0.0
 10
624.331655
 20
204.173268
 30
0.0
  0
SPLINE
  5
2d8
100
AcDbEntity
  8
0
 62
7
100
AcDbSpline
 70
8
 71
3
 72
8
 73
4
 74
0
 40
0
 40
0
 40
0
 40
0
 40
1
 40
1
 40
1
 40
1
 10
624.331655
 20
204.173268
 30
0.0
 10
628.382758
 20
200.122165
 30
0.0
 10
634.475289
 20
198.910286
 30
0.0
 10
639.768311
 20
201.102727
 30
0.0
  0
SPLINE
  5
2d9
100
AcDbEntity
  8
0
 62
7
100
AcDbSpline
 70
8
 71
3
 72
8
 73
4
 74
0
 40
0
 40
0
 40
0
 40
0
 40
1
 40
1
 40
1
 40
1
 10
639.768311
 20
201.102727
 30
0.0
 10
645.061332
 20
203.295168
 30
0.0
 10
648.512473
 20
208.460166
 30
0.0
 10
648.512473
 20
214.189291
 30
0.0
  0
SPLINE
  5
2da
100
AcDbEntity
  8
0
 62
7
100
AcDbSpline
 70
8
 71
3
 72
8
 73
4
 74
0
 40
0
 40
0
 40
0
 40
0
 40
1
 40
1
 40
1
 40
1
 10
648.512473
 20
214.189291
 30
0.0
 10
648.512473
 20
217.946028
 30
0.0
 10
647.020115
 20
221.548899
 30
0.0
 10
644.363701
 20
224.205314
 30
0.0
  0
SPLINE
  5
2db
100
AcDbEntity
  8
0
 62
7
100
AcDbSpline
 70
8
 71
3
 72
8
 73
4
 74
0
 40
0
 40
0
 40
0
 40
0
 40
1
 40
1
 40
1
 40
1
 10
644.363701
 20
224.205314
 30
0.0
 10
641.707286
 20
226.861728
 30
0.0
 10
638.104415
 20
228.354086
 30
0.0
 10
634.347678
 20
228.354086
 30
0.0
  0
LWPOLYLINE
  5
2dc
100
AcDbEntity
  8
0
 62
7
100
AcDbPolyline
 90
1
 70
1
 10
673.143529
 20
156.544694
 30
0.0
  0
SPLINE
  5
2dd
100
AcDbEntity
  8
0
 62
7
100
AcDbSpline
 70
8
 71
3
 72
8
 73
4
 74
0
 40
0
 40
0
 40
0
 40
0
 40
1
 40
1
 40
1
 40
1
 10
1109.499619
 20
303.362352
 30
0.0
 10
1103.770494
 20
303.362352
 30
0.0
 10
1098.605496
 20
299.911211
 30
0.0
 10
1096.413055
 20
294.618189
 30
0.0
  0
SPLINE
  5
2de
100
AcDbEntity
  8
0
 62
7
100
AcDbSpline
 70
8
 71
3
 72
8
 73
4
 74
0
 40
0
 40
0
 40
0
 40
0
 40
1
 40
1
 40
1
 40
1
 10
1096.413055
 20
294.618189
 30
0.0
 10
1094.220614
 20
289.325168
 30
0.0
 10
1095.432494
 20
283.232637
 30
0.0
 10
1099.483597
 20
279.181534
 30
0.0
  0
SPLINE
  5
2df
100
AcDbEntity
  8
0
 62
7
100
AcDbSpline
 70
8
 71
3
 72
8
 73
4
 74
0
 40
0
 40
0
 40
0
 40
0
 40
1
 40
1
 40
1
 40
1
 10
1099.483597
 20
279.181534
 30
0.0
 10
1103.534700
 20
275.130431
 30
0.0
 10
1109.627230
 20
273.918552
 30
0.0
 10
1114.920252
 20
276.110993
 30
0.0
  0
SPLINE
  5
2e0
100
AcDbEntity
  8
0
 62
7
100
AcDbSpline
 70
8
 71
3
 72
8
 73
4
 74
0
 40
0
 40
0
 40
0
 40
0
 40
1
 40
1
 40
1
 40
1
 10
1114.920252
 20
276.110993
 30
0.0
 10
1120.213273
 20
278.303434
 30
0.0
 10
1123.664414
 20
283.468432
 30
0.0
 10
1123.664414
 20
289.197557
 30
0.0
  0
SPLINE
  5
2e1
100
AcDbEntity
  8
0
 62
7
100
AcDbSpline
 70
8
 71
3
 72
8
 73
4
 74
0
 40
0
 40
0
 40
0
 40
0
 40
1
 40
1
 40
1
 40
1
 10
1123.664414
 20
289.197557
 30
0.0
 10
1123.664414
 20
292.954294
 30
0.0
 10
1122.172056
 20
296.557165
 30
0.0
 10
1119.515642
 20
299.213580
 30
0.0
  0
SPLINE
  5
2e2
100
AcDbEntity
  8
0
 62
7
100
AcDbSpline
 70
8
 71
3
 72
8
 73
4
 74
0
 40
0
 40
0
 40
0
 40
0
 40
1
 40
1
 40
1
 40
1
 10
1119.515642
 20
299.213580
 30
0.0
 10
1116.859228
 20
301.869994
 30
0.0
 10
1113.256356
 20
303.362352
 30
0.0
 10
1109.499619
 20
303.362352
 30
0.0
  0
LWPOLYLINE
  5
2e3
100
AcDbEntity
  8
0
 62
7
100
AcDbPolyline
 90
1
 70
1
 10
634.347678
 20
228.354086
 30
0.0
  0
SPLINE
  5
2e4
100
AcDbEntity
  8
0
 62
7
100
AcDbSpline
 70
8
 71
3
 72
8
 73
4
 74
0
 40
0
 40
0
 40
0
 40
0
 40
1
 40
1
 40
1
 40
1
 10
1030.303844
 20
346.792556
 30
0.0
 10
1024.574719
 20
346.792556
 30
0.0
 10
1019.409721
 20
343.341414
 30
0.0
 10
1017.217280
 20
338.048393
 30
0.0
  0
SPLINE
  5
2e5
100
AcDbEntity
  8
0
 62
7
100
AcDbSpline
 70
8
 71
3
 72
8
 73
4
 74
0
 40
0
 40
0
 40
0
 40
0
 40
1
 40
1
 40
1
 40
1
 10
1017.217280
 20
338.048393
 30
0.0
 10
1015.024839
 20
332.755372
 30
0.0
 10
1016.236719
 20
326.662841
 30
0.0
 10
1020.287822
 20
322.611738
 30
0.0
  0
SPLINE
  5
2e6
100
AcDbEntity
  8
0
 62
7
100
AcDbSpline
 70
8
 71
3
 72
8
 73
4
 74
0
 40
0
 40
0
 40
0
 40
0
 40
1
 40
1
 40
1
 40
1
 10
1020.287822
 20
322.611738
 30
0.0
 10
1024.338925
 20
318.560635
 30
0.0
 10
1030.431456
 20
317.348755
 30
0.0
 10
1035.724477
 20
319.541197
 30
0.0
  0
SPLINE
  5
2e7
100
AcDbEntity
  8
0
 62
7
100
AcDbSpline
 70
8
 71
3
 72
8
 73
4
 74
0
 40
0
 40
0
 40
0
 40
0
 40
1
 40
1
 40
1
 40
1
 10
1035.724477
 20
319.541197
 30
0.0
 10
1041.017498
 20
321.733638
 30
0.0
 10
1044.468639
 20
326.898636
 30
0.0
 10
1044.468639
 20
332.627761
 30
0.0
  0
SPLINE
  5
2e8
100
AcDbEntity
  8
0
 62
7
100
AcDbSpline
 70
8
 71
3
 72
8
 73
4
 74
0
 40
0
 40
0
 40
0
 40
0
 40
1
 40
1
 40
1
 40
1
 10
1044.468639
 20
332.627761
 30
0.0
 10
1044.468639
 20
336.384498
 30
0.0
 10
1042.976281
 20
339.987369
 30
0.0
 10
1040.319867
 20
342.643784
 30
0.0
  0
SPLINE
  5
2e9
100
AcDbEntity
  8
0
 62
7
100
AcDbSpline
 70
8
 71
3
 72
8
 73
4
 74
0
 40
0
 40
0
 40
0
 40
0
 40
1
 40
1
 40
1
 40
1
 10
1040.319867
 20
342.643784
 30
0.0
 10
1037.663453
 20
345.300198
 30
0.0
 10
1034.060582
 20
346.792556
 30
0.0
 10
1030.303844
 20
346.792556
 30
0.0
  0
LWPOLYLINE
  5
2ea
100
AcDbEntity
  8
0
 62
7
100
AcDbPolyline
 90
1
 70
1
 10
1109.499619
 20
303.362352
 30
0.0
  0
SPLINE
  5
2eb
100
AcDbEntity
  8
0
 62
7
100
AcDbSpline
 70
8
 71
3
 72
8
 73
4
 74
0
 40
0
 40
0
 40
0
 40
0
 40
1
 40
1
 40
1
 40
1
 10
1038.136123
 20
133.152621
 30
0.0
 10
1031.915917
 20
133.152621
 30
0.0
 10
1026.308193
 20
129.405659
 30
0.0
 10
1023.927823
 20
123.658938
 30
0.0
  0
SPLINE
  5
2ec
100
AcDbEntity
  8
0
 62
7
100
AcDbSpline
 70
8
 71
3
 72
8
 73
4
 74
0
 40
0
 40
0
 40
0
 40
0
 40
1
 40
1
 40
1
 40
1
 10
1023.927823
 20
123.658938
 30
0.0
 10
1021.547453
 20
117.912218
 30
0.0
 10
1022.863211
 20
111.297456
 30
0.0
 10
1027.261561
 20
106.899106
 30
0.0
  0
SPLINE
  5
2ed
100
AcDbEntity
  8
0
 62
7
100
AcDbSpline
 70
8
 71
3
 72
8
 73
4
 74
0
 40
0
 40
0
 40
0
 40
0
 40
1
 40
1
 40
1
 40
1
 10
1027.261561
 20
106.899106
 30
0.0
 10
1031.659911
 20
102.500756
 30
0.0
 10
1038.274673
 20
101.184998
 30
0.0
 10
1044.021393
 20
103.565368
 30
0.0
  0
SPLINE
  5
2ee
100
AcDbEntity
  8
0
 62
7
100
AcDbSpline
 70
8
 71
3
 72
8
 73
4
 74
0
 40
0
 40
0
 40
0
 40
0
 40
1
 40
1
 40
1
 40
1
 10
1044.021393
 20
103.565368
 30
0.0
 10
1049.768114
 20
105.945738
 30
0.0
 10
1053.515076
 20
111.553462
 30
0.0
 10
1053.515076
 20
117.773668
 30
0.0
  0
SPLINE
  5
2ef
100
AcDbEntity
  8
0
 62
7
100
AcDbSpline
 70
8
 71
3
 72
8
 73
4
 74
0
 40
0
 40
0
 40
0
 40
0
 40
1
 40
1
 40
1
 40
1
 10
1053.515076
 20
117.773668
 30
0.0
 10
1053.515076
 20
126.267229
 30
0.0
 10
1046.629684
 20
133.152621
 30
0.0
 10
1038.136123
 20
133.152621
 30
0.0
  0
LWPOLYLINE
  5
2f0
100
AcDbEntity
  8
0
 62
7
100
AcDbPolyline
 90
1
 70
1
 10
1030.303844
 20
346.792556
 30
0.0
  0
SPLINE
  5
2f1
100
AcDbEntity
  8
0
 62
7
100
AcDbSpline
 70
8
 71
3
 72
8
 73
4
 74
0
 40
0
 40
0
 40
0
 40
0
 40
1
 40
1
 40
1
 40
1
 10
1089.812126
 20
215.599893
 30
0.0
 10
1084.083001
 20
215.599893
 30
0.0
 10
1078.918003
 20
212.148751
 30
0.0
 10
1076.725562
 20
206.855730
 30
0.0
  0
SPLINE
  5
2f2
100
AcDbEntity
  8
0
 62
7
100
AcDbSpline
 70
8
 71
3
 72
8
 73
4
 74
0
 40
0
 40
0
 40
0
 40
0
 40
1
 40
1
 40
1
 40
1
 10
1076.725562
 20
206.855730
 30
0.0
 10
1074.533121
 20
201.562709
 30
0.0
 10
1075.745000
 20
195.470178
 30
0.0
 10
1079.796103
 20
191.419075
 30
0.0
  0
SPLINE
  5
2f3
100
AcDbEntity
  8
0
 62
7
100
AcDbSpline
 70
8
 71
3
 72
8
 73
4
 74
0
 40
0
 40
0
 40
0
 40
0
 40
1
 40
1
 40
1
 40
1
 10
1079.796103
 20
191.419075
 30
0.0
 10
1083.847206
 20
187.367972
 30
0.0
 10
1089.939737
 20
186.156092
 30
0.0
 10
1095.232758
 20
188.348533
 30
0.0
  0
SPLINE
  5
2f4
100
AcDbEntity
  8
0
 62
7
100
AcDbSpline
 70
8
 71
3
 72
8
 73
4
 74
0
 40
0
 40
0
 40
0
 40
0
 40
1
 40
1
 40
1
 40
1
 10
1095.232758
 20
188.348533
 30
0.0
 10
1100.525780
 20
190.540974
 30
0.0
 10
1103.976921
 20
195.705973
 30
0.0
 10
1103.976921
 20
201.435098
 30
0.0
  0
SPLINE
  5
2f5
100
AcDbEntity
  8
0
 62
7
100
AcDbSpline
 70
8
 71
3
 72
8
 73
4
 74
0
 40
0
 40
0
 40
0
 40
0
 40
1
 40
1
 40
1
 40
1
 10
1103.976921
 20
201.435098
 30
0.0
 10
1103.976921
 20
205.191835
 30
0.0
 10
1102.484563
 20
208.794706
 30
0.0
 10
1099.828149
 20
211.451120
 30
0.0
  0
SPLINE
  5
2f6
100
AcDbEntity
  8
0
 62
7
100
AcDbSpline
 70
8
 71
3
 72
8
 73
4
 74
0
 40
0
 40
0
 40
0
 40
0
 40
1
 40
1
 40
1
 40
1
 10
1099.828149
 20
211.451120
 30
0.0
 10
1097.171734
 20
214.107535
 30
0.0
 10
1093.568863
 20
215.599893
 30
0.0
 10
1089.812126
 20
215.599893
 30
0.0
  0
LWPOLYLINE
  5
2f7
100
AcDbEntity
  8
0
 62
7
100
AcDbPolyline
 90
1
 70
1
 10
1038.136123
 20
133.152621
 30
0.0
  0
SPLINE
  5
2f8
100
AcDbEntity
  8
0
 62
7
100
AcDbSpline
 70
8
 71
3
 72
8
 73
4
 74
0
 40
0
 40
0
 40
0
 40
0
 40
1
 40
1
 40
1
 40
1
 10
1484.332824
 20
477.246699
 30
0.0
 10
1478.603699
 20
477.246699
 30
0.0
 10
1473.438701
 20
473.795557
 30
0.0
 10
1471.246260
 20
468.502536
 30
0.0
  0
SPLINE
  5
2f9
100
AcDbEntity
  8
0
 62
7
100
AcDbSpline
 70
8
 71
3
 72
8
 73
4
 74
0
 40
0
 40
0
 40
0
 40
0
 40
1
 40
1
 40
1
 40
1
 10
1471.246260
 20
468.502536
 30
0.0
 10
1469.053818
 20
463.209515
 30
0.0
 10
1470.265698
 20
457.116984
 30
0.0
 10
1474.316801
 20
453.065881
 30
0.0
  0
SPLINE
  5
2fa
100
AcDbEntity
  8
0
 62
7
100
AcDbSpline
 70
8
 71
3
 72
8
 73
4
 74
0
 40
0
 40
0
 40
0
 40
0
 40
1
 40
1
 40
1
 40
1
 10
1474.316801
 20
453.065881
 30
0.0
 10
1478.367904
 20
449.014778
 30
0.0
 10
1484.460435
 20
447.802898
 30
0.0
 10
1489.753456
 20
449.995339
 30
0.0
  0
SPLINE
  5
2fb
100
AcDbEntity
  8
0
 62
7
100
AcDbSpline
 70
8
 71
3
 72
8
 73
4
 74
0
 40
0
 40
0
 40
0
 40
0
 40
1
 40
1
 40
1
 40
1
 10
1489.753456
 20
449.995339
 30
0.0
 10
1495.046478
 20
452.187780
 30
0.0
 10
1498.497619
 20
457.352779
 30
0.0
 10
1498.497619
 20
463.081904
 30
0.0
  0
SPLINE
  5
2fc
100
AcDbEntity
  8
0
 62
7
100
AcDbSpline
 70
8
 71
3
 72
8
 73
4
 74
0
 40
0
 40
0
 40
0
 40
0
 40
1
 40
1
 40
1
 40
1
 10
1498.497619
 20
463.081904
 30
0.0
 10
1498.497619
 20
466.838641
 30
0.0
 10
1497.005261
 20
470.441512
 30
0.0
 10
1494.348847
 20
473.097926
 30
0.0
  0
SPLINE
  5
2fd
100
AcDbEntity
  8
0
 62
7
100
AcDbSpline
 70
8
 71
3
 72
8
 73
4
 74
0
 40
0
 40
0
 40
0
 40
0
 40
1
 40
1
 40
1
 40
1
 10
1494.348847
 20
473.097926
 30
0.0
 10
1491.692432
 20
475.754341
 30
0.0
 10
1488.089561
 20
477.246699
 30
0.0
 10
1484.332824
 20
477.246699
 30
0.0
  0
LWPOLYLINE
  5
2fe
100
AcDbEntity
  8
0
 62
7
100
AcDbPolyline
 90
1
 70
1
 10
1089.812126
 20
215.599893
 30
0.0
  0
SPLINE
  5
2ff
100
AcDbEntity
  8
0
 62
7
100
AcDbSpline
 70
8
 71
3
 72
8
 73
4
 74
0
 40
0
 40
0
 40
0
 40
0
 40
1
 40
1
 40
1
 40
1
 10
1398.207853
 20
591.256024
 30
0.0
 10
1392.478729
 20
591.256024
 30
0.0
 10
1387.313730
 20
587.804883
 30
0.0
 10
1385.121289
 20
582.511861
 30
0.0
  0
SPLINE
  5
300
100
AcDbEntity
  8
0
 62
7
100
AcDbSpline
 70
8
 71
3
 72
8
 73
4
 74
0
 40
0
 40
0
 40
0
 40
0
 40
1
 40
1
 40
1
 40
1
 10
1385.121289
 20
582.511861
 30
0.0
 10
1382.928848
 20
577.218840
 30
0.0
 10
1384.140728
 20
571.126309
 30
0.0
 10
1388.191831
 20
567.075206
 30
0.0
  0
SPLINE
  5
301
100
AcDbEntity
  8
0
 62
7
100
AcDbSpline
 70
8
 71
3
 72
8
 73
4
 74
0
 40
0
 40
0
 40
0
 40
0
 40
1
 40
1
 40
1
 40
1
 10
1388.191831
 20
567.075206
 30
0.0
 10
1392.242934
 20
563.024103
 30
0.0
 10
1398.335465
 20
561.812224
 30
0.0
 10
1403.628486
 20
564.004665
 30
0.0
  0
SPLINE
  5
302
100
AcDbEntity
  8
0
 62
7
100
AcDbSpline
 70
8
 71
3
 72
8
 73
4
 74
0
 40
0
 40
0
 40
0
 40
0
 40
1
 40
1
 40
1
 40
1
 10
1403.628486
 20
564.004665
 30
0.0
 10
1408.921507
 20
566.197106
 30
0.0
 10
1412.372649
 20
571.362104
 30
0.0
 10
1412.372649
 20
577.091229
 30
0.0
  0
SPLINE
  5
303
100
AcDbEntity
  8
0
 62
7
100
AcDbSpline
 70
8
 71
3
 72
8
 73
4
 74
0
 40
0
 40
0
 40
0
 40
0
 40
1
 40
1
 40
1
 40
1
 10
1412.372649
 20
577.091229
 30
0.0
 10
1412.372649
 20
580.847966
 30
0.0
 10
1410.880291
 20
584.450837
 30
0.0
 10
1408.223876
 20
587.107252
 30
0.0
  0
SPLINE
  5
304
100
AcDbEntity
  8
0
 62
7
100
AcDbSpline
 70
8
 71
3
 72
8
 73
4
 74
0
 40
0
 40
0
 40
0
 40
0
 40
1
 40
1
 40
1
 40
1
 10
1408.223876
 20
587.107252
 30
0.0
 10
1405.567462
 20
589.763666
 30
0.0
 10
1401.964591
 20
591.256024
 30
0.0
 10
1398.207853
 20
591.256024
 30
0.0
  0
LWPOLYLINE
  5
305
100
AcDbEntity
  8
0
 62
7
100
AcDbPolyline
 90
1
 70
1
 10
1484.332824
 20
477.246699
 30
0.0
  0
SPLINE
  5
306
100
AcDbEntity
  8
0
 62
7
100
AcDbSpline
 70
8
 71
3
 72
8
 73
4
 74
0
 40
0
 40
0
 40
0
 40
0
 40
1
 40
1
 40
1
 40
1
 10
1224.280830
 20
613.647783
 30
0.0
 10
1218.551705
 20
613.647783
 30
0.0
 10
1213.386707
 20
610.196642
 30
0.0
 10
1211.194266
 20
604.903620
 30
0.0
  0
SPLINE
  5
307
100
AcDbEntity
  8
0
 62
7
100
AcDbSpline
 70
8
 71
3
 72
8
 73
4
 74
0
 40
0
 40
0
 40
0
 40
0
 40
1
 40
1
 40
1
 40
1
 10
1211.194266
 20
604.903620
 30
0.0
 10
1209.001824
 20
599.610599
 30
0.0
 10
1210.213704
 20
593.518068
 30
0.0
 10
1214.264807
 20
589.466965
 30
0.0
  0
SPLINE
  5
308
100
AcDbEntity
  8
0
 62
7
100
AcDbSpline
 70
8
 71
3
 72
8
 73
4
 74
0
 40
0
 40
0
 40
0
 40
0
 40
1
 40
1
 40
1
 40
1
 10
1214.264807
 20
589.466965
 30
0.0
 10
1218.315910
 20
585.415862
 30
0.0
 10
1224.408441
 20
584.203983
 30
0.0
 10
1229.701462
 20
586.396424
 30
0.0
  0
SPLINE
  5
309
100
AcDbEntity
  8
0
 62
7
100
AcDbSpline
 70
8
 71
3
 72
8
 73
4
 74
0
 40
0
 40
0
 40
0
 40
0
 40
1
 40
1
 40
1
 40
1
 10
1229.701462
 20
586.396424
 30
0.0
 10
1234.994483
 20
588.588865
 30
0.0
 10
1238.445625
 20
593.753863
 30
0.0
 10
1238.445625
 20
599.482988
 30
0.0
  0
SPLINE
  5
30a
100
AcDbEntity
  8
0
 62
7
100
AcDbSpline
 70
8
 71
3
 72
8
 73
4
 74
0
 40
0
 40
0
 40
0
 40
0
 40
1
 40
1
 40
1
 40
1
 10
1238.445625
 20
599.482988
 30
0.0
 10
1238.445625
 20
603.239725
 30
0.0
 10
1236.953267
 20
606.842596
 30
0.0
 10
1234.296853
 20
609.499011
 30
0.0
  0
SPLINE
  5
30b
100
AcDbEntity
  8
0
 62
7
100
AcDbSpline
 70
8
 71
3
 72
8
 73
4
 74
0
 40
0
 40
0
 40
0
 40
0
 40
1
 40
1
 40
1
 40
1
 10
1234.296853
 20
609.499011
 30
0.0
 10
1231.640438
 20
612.155425
 30
0.0
 10
1228.037567
 20
613.647783
 30
0.0
 10
1224.280830
 20
613.647783
 30
0.0
  0
LWPOLYLINE
  5
30c
100
AcDbEntity
  8
0
 62
7
100
AcDbPolyline
 90
1
 70
1
 10
1398.207853
 20
591.256024
 30
0.0
  0
SPLINE
  5
30d
100
AcDbEntity
  8
0
 62
7
100
AcDbSpline
 70
8
 71
3
 72
8
 73
4
 74
0
 40
0
 40
0
 40
0
 40
0
 40
1
 40
1
 40
1
 40
1
 10
1468.749496
 20
95.849934
 30
0.0
 10
1463.020371
 20
95.849934
 30
0.0
 10
1457.855373
 20
92.398792
 30
0.0
 10
1455.662932
 20
87.105771
 30
0.0
  0
SPLINE
  5
30e
100
AcDbEntity
  8
0
 62
7
100
AcDbSpline
 70
8
 71
3
 72
8
 73
4
 74
0
 40
0
 40
0
 40
0
 40
0
 40
1
 40
1
 40
1
 40
1
 10
1455.662932
 20
87.105771
 30
0.0
 10
1453.470490
 20
81.812750
 30
0.0
 10
1454.682370
 20
75.720219
 30
0.0
 10
1458.733473
 20
71.669116
 30
0.0
  0
SPLINE
  5
30f
100
AcDbEntity
  8
0
 62
7
100
AcDbSpline
 70
8
 71
3
 72
8
 73
4
 74
0
 40
0
 40
0
 40
0
 40
0
 40
1
 40
1
 40
1
 40
1
 10
1458.733473
 20
71.669116
 30
0.0
 10
1462.784576
 20
67.618013
 30
0.0
 10
1468.877107
 20
66.406133
 30
0.0
 10
1474.170128
 20
68.598574
 30
0.0
  0
SPLINE
  5
310
100
AcDbEntity
  8
0
 62
7
100
AcDbSpline
 70
8
 71
3
 72
8
 73
4
 74
0
 40
0
 40
0
 40
0
 40
0
 40
1
 40
1
 40
1
 40
1
 10
1474.170128
 20
68.598574
 30
0.0
 10
1479.463150
 20
70.791015
 30
0.0
 10
1482.914291
 20
75.956014
 30
0.0
 10
1482.914291
 20
81.685139
 30
0.0
  0
SPLINE
  5
311
100
AcDbEntity
  8
0
 62
7
100
AcDbSpline
 70
8
 71
3
 72
8
 73
4
 74
0
 40
0
 40
0
 40
0
 40
0
 40
1
 40
1
 40
1
 40
1
 10
1482.914291
 20
81.685139
 30
0.0
 10
1482.914291
 20
85.441876
 30
0.0
 10
1481.421933
 20
89.044747
 30
0.0
 10
1478.765519
 20
91.701161
 30
0.0
  0
SPLINE
  5
312
100
AcDbEntity
  8
0
 62
7
100
AcDbSpline
 70
8
 71
3
 72
8
 73
4
 74
0
 40
0
 40
0
 40
0
 40
0
 40
1
 40
1
 40
1
 40
1
 10
1478.765519
 20
91.701161
 30
0.0
 10
1476.109104
 20
94.357576
 30
0.0
 10
1472.506233
 20
95.849934
 30
0.0
 10
1468.749496
 20
95.849934
 30
0.0
  0
LWPOLYLINE
  5
313
100
AcDbEntity
  8
0
 62
7
100
AcDbPolyline
 90
1
 70
1
 10
1224.280830
 20
613.647783
 30
0.0
  0
SPLINE
  5
314
100
AcDbEntity
  8
0
 62
7
100
AcDbSpline
 70
8
 71
3
 72
8
 73
4
 74
0
 40
0
 40
0
 40
0
 40
0
 40
1
 40
1
 40
1
 40
1
 10
1517.593229
 20
274.409237
 30
0.0
 10
1511.864104
 20
274.409237
 30
0.0
 10
1506.699106
 20
270.958096
 30
0.0
 10
1504.506665
 20
265.665074
 30
0.0
  0
SPLINE
  5
315
100
AcDbEntity
  8
0
 62
7
100
AcDbSpline
 70
8
 71
3
 72
8
 73
4
 74
0
 40
0
 40
0
 40
0
 40
0
 40
1
 40
1
 40
1
 40
1
 10
1504.506665
 20
265.665074
 30
0.0
 10
1502.314224
 20
260.372053
 30
0.0
 10
1503.526103
 20
254.279522
 30
0.0
 10
1507.577206
 20
250.228419
 30
0.0
  0
SPLINE
  5
316
100
AcDbEntity
  8
0
 62
7
100
AcDbSpline
 70
8
 71
3
 72
8
 73
4
 74
0
 40
0
 40
0
 40
0
 40
0
 40
1
 40
1
 40
1
 40
1
 10
1507.577206
 20
250.228419
 30
0.0
 10
1511.628310
 20
246.177316
 30
0.0
 10
1517.720840
 20
244.965436
 30
0.0
 10
1523.013862
 20
247.157878
 30
0.0
  0
SPLINE
  5
317
100
AcDbEntity
  8
0
 62
7
100
AcDbSpline
 70
8
 71
3
 72
8
 73
4
 74
0
 40
0
 40
0
 40
0
 40
0
 40
1
 40
1
 40
1
 40
1
 10
1523.013862
 20
247.157878
 30
0.0
 10
1528.306883
 20
249.350319
 30
0.0
 10
1531.758024
 20
254.515317
 30
0.0
 10
1531.758024
 20
260.244442
 30
0.0
  0
SPLINE
  5
318
100
AcDbEntity
  8
0
 62
7
100
AcDbSpline
 70
8
 71
3
 72
8
 73
4
 74
0
 40
0
 40
0
 40
0
 40
0
 40
1
 40
1
 40
1
 40
1
 10
1531.758024
 20
260.244442
 30
0.0
 10
1531.758024
 20
264.001179
 30
0.0
 10
1530.265666
 20
267.604050
 30
0.0
 10
1527.609252
 20
270.260465
 30
0.0
  0
SPLINE
  5
319
100
AcDbEntity
  8
0
 62
7
100
AcDbSpline
 70
8
 71
3
 72
8
 73
4
 74
0
 40
0
 40
0
 40
0
 40
0
 40
1
 40
1
 40
1
 40
1
 10
1527.609252
 20
270.260465
 30
0.0
 10
1524.952838
 20
272.916879
 30
0.0
 10
1521.349966
 20
274.409237
 30
0.0
 10
1517.593229
 20
274.409237
 30
0.0
  0
LWPOLYLINE
  5
31a
100
AcDbEntity
  8
0
 62
7
100
AcDbPolyline
 90
1
 70
1
 10
1468.749496
 20
95.849934
 30
0.0
  0
SPLINE
  5
31b
100
AcDbEntity
  8
0
 62
7
100
AcDbSpline
 70
8
 71
3
 72
8
 73
4
 74
0
 40
0
 40
0
 40
0
 40
0
 40
1
 40
1
 40
1
 40
1
 10
1538.468222
 20
127.017652
 30
0.0
 10
1532.739097
 20
127.017652
 30
0.0
 10
1527.574099
 20
123.566511
 30
0.0
 10
1525.381658
 20
118.273490
 30
0.0
  0
SPLINE
  5
31c
100
AcDbEntity
  8
0
 62
7
100
AcDbSpline
 70
8
 71
3
 72
8
 73
4
 74
0
 40
0
 40
0
 40
0
 40
0
 40
1
 40
1
 40
1
 40
1
 10
1525.381658
 20
118.273490
 30
0.0
 10
1523.189217
 20
112.980468
 30
0.0
 10
1524.401096
 20
106.887937
 30
0.0
 10
1528.452199
 20
102.836834
 30
0.0
  0
SPLINE
  5
31d
100
AcDbEntity
  8
0
 62
7
100
AcDbSpline
 70
8
 71
3
 72
8
 73
4
 74
0
 40
0
 40
0
 40
0
 40
0
 40
1
 40
1
 40
1
 40
1
 10
1528.452199
 20
102.836834
 30
0.0
 10
1532.503302
 20
98.785731
 30
0.0
 10
1538.595833
 20
97.573852
 30
0.0
 10
1543.888854
 20
99.766293
 30
0.0
  0
SPLINE
  5
31e
100
AcDbEntity
  8
0
 62
7
100
AcDbSpline
 70
8
 71
3
 72
8
 73
4
 74
0
 40
0
 40
0
 40
0
 40
0
 40
1
 40
1
 40
1
 40
1
 10
1543.888854
 20
99.766293
 30
0.0
 10
1549.181876
 20
101.958734
 30
0.0
 10
1552.633017
 20
107.123732
 30
0.0
 10
1552.633017
 20
112.852857
 30
0.0
  0
SPLINE
  5
31f
100
AcDbEntity
  8
0
 62
7
100
AcDbSpline
 70
8
 71
3
 72
8
 73
4
 74
0
 40
0
 40
0
 40
0
 40
0
 40
1
 40
1
 40
1
 40
1
 10
1552.633017
 20
112.852857
 30
0.0
 10
1552.633017
 20
116.609594
 30
0.0
 10
1551.140659
 20
120.212465
 30
0.0
 10
1548.484245
 20
122.868880
 30
0.0
  0
SPLINE
  5
320
100
AcDbEntity
  8
0
 62
7
100
AcDbSpline
 70
8
 71
3
 72
8
 73
4
 74
0
 40
0
 40
0
 40
0
 40
0
 40
1
 40
1
 40
1
 40
1
 10
1548.484245
 20
122.868880
 30
0.0
 10
1545.827830
 20
125.525294
 30
0.0
 10
1542.224959
 20
127.017652
 30
0.0
 10
1538.468222
 20
127.017652
 30
0.0
  0
LWPOLYLINE
  5
321
100
AcDbEntity
  8
0
 62
7
100
AcDbPolyline
 90
1
 70
1
 10
1517.593229
 20
274.409237
 30
0.0
  0
SPLINE
  5
322
100
AcDbEntity
  8
0
 62
7
100
AcDbSpline
 70
8
 71
3
 72
8
 73
4
 74
0
 40
0
 40
0
 40
0
 40
0
 40
1
 40
1
 40
1
 40
1
 10
1350.062037
 20
168.585963
 30
0.0
 10
1343.841831
 20
168.585963
 30
0.0
 10
1338.234106
 20
164.839001
 30
0.0
 10
1335.853737
 20
159.092280
 30
0.0
  0
SPLINE
  5
323
100
AcDbEntity
  8
0
 62
7
100
AcDbSpline
 70
8
 71
3
 72
8
 73
4
 74
0
 40
0
 40
0
 40
0
 40
0
 40
1
 40
1
 40
1
 40
1
 10
1335.853737
 20
159.092280
 30
0.0
 10
1333.473367
 20
153.345560
 30
0.0
 10
1334.789125
 20
146.730798
 30
0.0
 10
1339.187475
 20
142.332448
 30
0.0
  0
SPLINE
  5
324
100
AcDbEntity
  8
0
 62
7
100
AcDbSpline
 70
8
 71
3
 72
8
 73
4
 74
0
 40
0
 40
0
 40
0
 40
0
 40
1
 40
1
 40
1
 40
1
 10
1339.187475
 20
142.332448
 30
0.0
 10
1343.585824
 20
137.934098
 30
0.0
 10
1350.200586
 20
136.618340
 30
0.0
 10
1355.947307
 20
138.998710
 30
0.0
  0
SPLINE
  5
325
100
AcDbEntity
  8
0
 62
7
100
AcDbSpline
 70
8
 71
3
 72
8
 73
4
 74
0
 40
0
 40
0
 40
0
 40
0
 40
1
 40
1
 40
1
 40
1
 10
1355.947307
 20
138.998710
 30
0.0
 10
1361.694028
 20
141.379080
 30
0.0
 10
1365.440990
 20
146.986804
 30
0.0
 10
1365.440990
 20
153.207010
 30
0.0
  0
SPLINE
  5
326
100
AcDbEntity
  8
0
 62
7
100
AcDbSpline
 70
8
 71
3
 72
8
 73
4
 74
0
 40
0
 40
0
 40
0
 40
0
 40
1
 40
1
 40
1
 40
1
 10
1365.440990
 20
153.207010
 30
0.0
 10
1365.440990
 20
157.285762
 30
0.0
 10
1363.820712
 20
161.197459
 30
0.0
 10
1360.936599
 20
164.081572
 30
0.0
  0
SPLINE
  5
327
100
AcDbEntity
  8
0
 62
7
100
AcDbSpline
 70
8
 71
3
 72
8
 73
4
 74
0
 40
0
 40
0
 40
0
 40
0
 40
1
 40
1
 40
1
 40
1
 10
1360.936599
 20
164.081572
 30
0.0
 10
1358.052486
 20
166.965685
 30
0.0
 10
1354.140789
 20
168.585963
 30
0.0
 10
1350.062037
 20
168.585963
 30
0.0
  0
LWPOLYLINE
  5
328
100
AcDbEntity
  8
0
 62
7
100
AcDbPolyline
 90
1
 70
1
 10
1538.468222
 20
127.017652
 30
0.0
  0
SPLINE
  5
329
100
AcDbEntity
  8
0
 62
7
100
AcDbSpline
 70
8
 71
3
 72
8
 73
4
 74
0
 40
0
 40
0
 40
0
 40
0
 40
1
 40
1
 40
1
 40
1
 10
945.452801
 20
546.538917
 30
0.0
 10
939.232607
 20
546.538917
 30
0.0
 10
933.624894
 20
542.791963
 30
0.0
 10
931.244529
 20
537.045253
 30
0.0
  0
SPLINE
  5
32a
100
AcDbEntity
  8
0
 62
7
100
AcDbSpline
 70
8
 71
3
 72
8
 73
4
 74
0
 40
0
 40
0
 40
0
 40
0
 40
1
 40
1
 40
1
 40
1
 10
931.244529
 20
537.045253
 30
0.0
 10
928.864165
 20
531.298544
 30
0.0
 10
930.179920
 20
524.683796
 30
0.0
 10
934.578261
 20
520.285455
 30
0.0
  0
SPLINE
  5
32b
100
AcDbEntity
  8
0
 62
7
100
AcDbSpline
 70
8
 71
3
 72
8
 73
4
 74
0
 40
0
 40
0
 40
0
 40
0
 40
1
 40
1
 40
1
 40
1
 10
934.578261
 20
520.285455
 30
0.0
 10
938.976601
 20
515.887114
 30
0.0
 10
945.591350
 20
514.571359
 30
0.0
 10
951.338059
 20
516.951724
 30
0.0
  0
SPLINE
  5
32c
100
AcDbEntity
  8
0
 62
7
100
AcDbSpline
 70
8
 71
3
 72
8
 73
4
 74
0
 40
0
 40
0
 40
0
 40
0
 40
1
 40
1
 40
1
 40
1
 10
951.338059
 20
516.951724
 30
0.0
 10
957.084768
 20
519.332089
 30
0.0
 10
960.831722
 20
524.939802
 30
0.0
 10
960.831722
 20
531.159995
 30
0.0
  0
SPLINE
  5
32d
100
AcDbEntity
  8
0
 62
7
100
AcDbSpline
 70
8
 71
3
 72
8
 73
4
 74
0
 40
0
 40
0
 40
0
 40
0
 40
1
 40
1
 40
1
 40
1
 10
960.831722
 20
531.159995
 30
0.0
 10
960.831722
 20
535.238738
 30
0.0
 10
959.211448
 20
539.150427
 30
0.0
 10
956.327340
 20
542.034535
 30
0.0
  0
SPLINE
  5
32e
100
AcDbEntity
  8
0
 62
7
100
AcDbSpline
 70
8
 71
3
 72
8
 73
4
 74
0
 40
0
 40
0
 40
0
 40
0
 40
1
 40
1
 40
1
 40
1
 10
956.327340
 20
542.034535
 30
0.0
 10
953.443233
 20
544.918642
 30
0.0
 10
949.531544
 20
546.538917
 30
0.0
 10
945.452801
 20
546.538917
 30
0.0
  0
LWPOLYLINE
  5
32f
100
AcDbEntity
  8
0
 62
7
100
AcDbPolyline
 90
1
 70
1
 10
1350.062037
 20
168.585963
 30
0.0
  0
SPLINE
  5
330
100
AcDbEntity
  8
0
 62
7
100
AcDbSpline
 70
8
 71
3
 72
8
 73
4
 74
0
 40
0
 40
0
 40
0
 40
0
 40
1
 40
1
 40
1
 40
1
 10
893.779881
 20
605.199769
 30
0.0
 10
888.050756
 20
605.199769
 30
0.0
 10
882.885758
 20
601.748628
 30
0.0
 10
880.693316
 20
596.455607
 30
0.0
  0
SPLINE
  5
331
100
AcDbEntity
  8
0
 62
7
100
AcDbSpline
 70
8
 71
3
 72
8
 73
4
 74
0
 40
0
 40
0
 40
0
 40
0
 40
1
 40
1
 40
1
 40
1
 10
880.693316
 20
596.455607
 30
0.0
 10
878.500875
 20
591.162585
 30
0.0
 10
879.712755
 20
585.070055
 30
0.0
 10
883.763858
 20
581.018952
 30
0.0
  0
SPLINE
  5
332
100
AcDbEntity
  8
0
 62
7
100
AcDbSpline
 70
8
 71
3
 72
8
 73
4
 74
0
 40
0
 40
0
 40
0
 40
0
 40
1
 40
1
 40
1
 40
1
 10
883.763858
 20
581.018952
 30
0.0
 10
887.814961
 20
576.967849
 30
0.0
 10
893.907492
 20
575.755969
 30
0.0
 10
899.200513
 20
577.948410
 30
0.0
  0
SPLINE
  5
333
100
AcDbEntity
  8
0
 62
7
100
AcDbSpline
 70
8
 71
3
 72
8
 73
4
 74
0
 40
0
 40
0
 40
0
 40
0
 40
1
 40
1
 40
1
 40
1
 10
899.200513
 20
577.948410
 30
0.0
 10
904.493534
 20
580.140851
 30
0.0
 10
907.944676
 20
585.305849
 30
0.0
 10
907.944676
 20
591.034974
 30
0.0
  0
SPLINE
  5
334
100
AcDbEntity
  8
0
 62
7
100
AcDbSpline
 70
8
 71
3
 72
8
 73
4
 74
0
 40
0
 40
0
 40
0
 40
0
 40
1
 40
1
 40
1
 40
1
 10
907.944676
 20
591.034974
 30
0.0
 10
907.944676
 20
598.857975
 30
0.0
 10
901.602881
 20
605.199769
 30
0.0
 10
893.779881
 20
605.199769
 30
0.0
  0
LWPOLYLINE
  5
335
100
AcDbEntity
  8
0
 62
7
100
AcDbPolyline
 90
1
 70
1
 10
945.452801
 20
546.538917
 30
0.0
  0
SPLINE
  5
336
100
AcDbEntity
  8
0
 62
7
100
AcDbSpline
 70
8
 71
3
 72
8
 73
4
 74
0
 40
0
 40
0
 40
0
 40
0
 40
1
 40
1
 40
1
 40
1
 10
722.356033
 20
542.437876
 30
0.0
 10
716.135840
 20
542.437876
 30
0.0
 10
710.528127
 20
538.690922
 30
0.0
 10
708.147762
 20
532.944213
 30
0.0
  0
SPLINE
  5
337
100
AcDbEntity
  8
0
 62
7
100
AcDbSpline
 70
8
 71
3
 72
8
 73
4
 74
0
 40
0
 40
0
 40
0
 40
0
 40
1
 40
1
 40
1
 40
1
 10
708.147762
 20
532.944213
 30
0.0
 10
705.767397
 20
527.197504
 30
0.0
 10
707.083153
 20
520.582755
 30
0.0
 10
711.481493
 20
516.184415
 30
0.0
  0
SPLINE
  5
338
100
AcDbEntity
  8
0
 62
7
100
AcDbSpline
 70
8
 71
3
 72
8
 73
4
 74
0
 40
0
 40
0
 40
0
 40
0
 40
1
 40
1
 40
1
 40
1
 10
711.481493
 20
516.184415
 30
0.0
 10
715.879834
 20
511.786074
 30
0.0
 10
722.494583
 20
510.470319
 30
0.0
 10
728.241292
 20
512.850683
 30
0.0
  0
SPLINE
  5
339
100
AcDbEntity
  8
0
 62
7
100
AcDbSpline
 70
8
 71
3
 72
8
 73
4
 74
0
 40
0
 40
0
 40
0
 40
0
 40
1
 40
1
 40
1
 40
1
 10
728.241292
 20
512.850683
 30
0.0
 10
733.988001
 20
515.231048
 30
0.0
 10
737.734955
 20
520.838761
 30
0.0
 10
737.734955
 20
527.058955
 30
0.0
  0
SPLINE
  5
33a
100
AcDbEntity
  8
0
 62
7
100
AcDbSpline
 70
8
 71
3
 72
8
 73
4
 74
0
 40
0
 40
0
 40
0
 40
0
 40
1
 40
1
 40
1
 40
1
 10
737.734955
 20
527.058955
 30
0.0
 10
737.734955
 20
531.137698
 30
0.0
 10
736.114681
 20
535.049387
 30
0.0
 10
733.230573
 20
537.933494
 30
0.0
  0
SPLINE
  5
33b
100
AcDbEntity
  8
0
 62
7
100
AcDbSpline
 70
8
 71
3
 72
8
 73
4
 74
0
 40
0
 40
0
 40
0
 40
0
 40
1
 40
1
 40
1
 40
1
 10
733.230573
 20
537.933494
 30
0.0
 10
730.346466
 20
540.817602
 30
0.0
 10
726.434777
 20
542.437876
 30
0.0
 10
722.356033
 20
542.437876
 30
0.0
  0
LWPOLYLINE
  5
33c
100
AcDbEntity
  8
0
 62
7
100
AcDbPolyline
 90
1
 70
1
 10
893.779881
 20
605.199769
 30
0.0
  0
SPLINE
  5
33d
100
AcDbEntity
  8
0
 62
7
100
AcDbSpline
 70
8
 71
3
 72
8
 73
4
 74
0
 40
0
 40
0
 40
0
 40
0
 40
1
 40
1
 40
1
 40
1
 10
649.357079
 20
594.537273
 30
0.0
 10
643.627954
 20
594.537273
 30
0.0
 10
638.462956
 20
591.086132
 30
0.0
 10
636.270515
 20
585.793110
 30
0.0
  0
SPLINE
  5
33e
100
AcDbEntity
  8
0
 62
7
100
AcDbSpline
 70
8
 71
3
 72
8
 73
4
 74
0
 40
0
 40
0
 40
0
 40
0
 40
1
 40
1
 40
1
 40
1
 10
636.270515
 20
585.793110
 30
0.0
 10
634.078074
 20
580.500089
 30
0.0
 10
635.289954
 20
574.407558
 30
0.0
 10
639.341057
 20
570.356455
 30
0.0
  0
SPLINE
  5
33f
100
AcDbEntity
  8
0
 62
7
100
AcDbSpline
 70
8
 71
3
 72
8
 73
4
 74
0
 40
0
 40
0
 40
0
 40
0
 40
1
 40
1
 40
1
 40
1
 10
639.341057
 20
570.356455
 30
0.0
 10
643.392160
 20
566.305352
 30
0.0
 10
649.484690
 20
565.093472
 30
0.0
 10
654.777712
 20
567.285914
 30
0.0
  0
SPLINE
  5
340
100
AcDbEntity
  8
0
 62
7
100
AcDbSpline
 70
8
 71
3
 72
8
 73
4
 74
0
 40
0
 40
0
 40
0
 40
0
 40
1
 40
1
 40
1
 40
1
 10
654.777712
 20
567.285914
 30
0.0
 10
660.070733
 20
569.478355
 30
0.0
 10
663.521874
 20
574.643353
 30
0.0
 10
663.521874
 20
580.372478
 30
0.0
  0
SPLINE
  5
341
100
AcDbEntity
  8
0
 62
7
100
AcDbSpline
 70
8
 71
3
 72
8
 73
4
 74
0
 40
0
 40
0
 40
0
 40
0
 40
1
 40
1
 40
1
 40
1
 10
663.521874
 20
580.372478
 30
0.0
 10
663.521874
 20
588.195478
 30
0.0
 10
657.180080
 20
594.537273
 30
0.0
 10
649.357079
 20
594.537273
 30
0.0
  0
LWPOLYLINE
  5
342
100
AcDbEntity
  8
0
 62
7
100
AcDbPolyline
 90
1
 70
1
 10
722.356033
 20
542.437876
 30
0.0
  0
SPLINE
  5
343
100
AcDbEntity
  8
0
 62
7
100
AcDbSpline
 70
8
 71
3
 72
8
 73
4
 74
0
 40
0
 40
0
 40
0
 40
0
 40
1
 40
1
 40
1
 40
1
 10
454.967531
 20
554.740997
 30
0.0
 10
448.747338
 20
554.740997
 30
0.0
 10
443.139625
 20
550.994043
 30
0.0
 10
440.759260
 20
545.247334
 30
0.0
  0
SPLINE
  5
344
100
AcDbEntity
  8
0
 62
7
100
AcDbSpline
 70
8
 71
3
 72
8
 73
4
 74
0
 40
0
 40
0
 40
0
 40
0
 40
1
 40
1
 40
1
 40
1
 10
440.759260
 20
545.247334
 30
0.0
 10
438.378895
 20
539.500625
 30
0.0
 10
439.694651
 20
532.885876
 30
0.0
 10
444.092991
 20
528.487535
 30
0.0
  0
SPLINE
  5
345
100
AcDbEntity
  8
0
 62
7
100
AcDbSpline
 70
8
 71
3
 72
8
 73
4
 74
0
 40
0
 40
0
 40
0
 40
0
 40
1
 40
1
 40
1
 40
1
 10
444.092991
 20
528.487535
 30
0.0
 10
448.491332
 20
524.089195
 30
0.0
 10
455.106081
 20
522.773439
 30
0.0
 10
460.852790
 20
525.153804
 30
0.0
  0
SPLINE
  5
346
100
AcDbEntity
  8
0
 62
7
100
AcDbSpline
 70
8
 71
3
 72
8
 73
4
 74
0
 40
0
 40
0
 40
0
 40
0
 40
1
 40
1
 40
1
 40
1
 10
460.852790
 20
525.153804
 30
0.0
 10
466.599499
 20
527.534169
 30
0.0
 10
470.346453
 20
533.141882
 30
0.0
 10
470.346453
 20
539.362075
 30
0.0
  0
SPLINE
  5
347
100
AcDbEntity
  8
0
 62
7
100
AcDbSpline
 70
8
 71
3
 72
8
 73
4
 74
0
 40
0
 40
0
 40
0
 40
0
 40
1
 40
1
 40
1
 40
1
 10
470.346453
 20
539.362075
 30
0.0
 10
470.346453
 20
543.440819
 30
0.0
 10
468.726179
 20
547.352508
 30
0.0
 10
465.842071
 20
550.236615
 30
0.0
  0
SPLINE
  5
348
100
AcDbEntity
  8
0
 62
7
100
AcDbSpline
 70
8
 71
3
 72
8
 73
4
 74
0
 40
0
 40
0
 40
0
 40
0
 40
1
 40
1
 40
1
 40
1
 10
465.842071
 20
550.236615
 30
0.0
 10
462.957964
 20
553.120723
 30
0.0
 10
459.046275
 20
554.740997
 30
0.0
 10
454.967531
 20
554.740997
 30
0.0
  0
LWPOLYLINE
  5
349
100
AcDbEntity
  8
0
 62
7
100
AcDbPolyline
 90
1
 70
1
 10
649.357079
 20
594.537273
 30
0.0
  0
SPLINE
  5
34a
100
AcDbEntity
  8
0
 62
7
100
AcDbSpline
 70
8
 71
3
 72
8
 73
4
 74
0
 40
0
 40
0
 40
0
 40
0
 40
1
 40
1
 40
1
 40
1
 10
371.306102
 20
594.537273
 30
0.0
 10
365.576977
 20
594.537273
 30
0.0
 10
360.411979
 20
591.086132
 30
0.0
 10
358.219537
 20
585.793110
 30
0.0
  0
SPLINE
  5
34b
100
AcDbEntity
  8
0
 62
7
100
AcDbSpline
 70
8
 71
3
 72
8
 73
4
 74
0
 40
0
 40
0
 40
0
 40
0
 40
1
 40
1
 40
1
 40
1
 10
358.219537
 20
585.793110
 30
0.0
 10
356.027096
 20
580.500089
 30
0.0
 10
357.238976
 20
574.407558
 30
0.0
 10
361.290079
 20
570.356455
 30
0.0
  0
SPLINE
  5
34c
100
AcDbEntity
  8
0
 62
7
100
AcDbSpline
 70
8
 71
3
 72
8
 73
4
 74
0
 40
0
 40
0
 40
0
 40
0
 40
1
 40
1
 40
1
 40
1
 10
361.290079
 20
570.356455
 30
0.0
 10
365.341182
 20
566.305352
 30
0.0
 10
371.433713
 20
565.093472
 30
0.0
 10
376.726734
 20
567.285914
 30
0.0
  0
SPLINE
  5
34d
100
AcDbEntity
  8
0
 62
7
100
AcDbSpline
 70
8
 71
3
 72
8
 73
4
 74
0
 40
0
 40
0
 40
0
 40
0
 40
1
 40
1
 40
1
 40
1
 10
376.726734
 20
567.285914
 30
0.0
 10
382.019755
 20
569.478355
 30
0.0
 10
385.470897
 20
574.643353
 30
0.0
 10
385.470897
 20
580.372478
 30
0.0
  0
SPLINE
  5
34e
100
AcDbEntity
  8
0
 62
7
100
AcDbSpline
 70
8
 71
3
 72
8
 73
4
 74
0
 40
0
 40
0
 40
0
 40
0
 40
1
 40
1
 40
1
 40
1
 10
385.470897
 20
580.372478
 30
0.0
 10
385.470897
 20
584.129215
 30
0.0
 10
383.978539
 20
587.732086
 30
0.0
 10
381.322124
 20
590.388501
 30
0.0
  0
SPLINE
  5
34f
100
AcDbEntity
  8
0
 62
7
100
AcDbSpline
 70
8
 71
3
 72
8
 73
4
 74
0
 40
0
 40
0
 40
0
 40
0
 40
1
 40
1
 40
1
 40
1
 10
381.322124
 20
590.388501
 30
0.0
 10
378.665710
 20
593.044915
 30
0.0
 10
375.062839
 20
594.537273
 30
0.0
 10
371.306102
 20
594.537273
 30
0.0
  0
LWPOLYLINE
  5
350
100
AcDbEntity
  8
0
 62
7
100
AcDbPolyline
 90
1
 70
1
 10
454.967531
 20
554.740997
 30
0.0
  0
SPLINE
  5
351
100
AcDbEntity
  8
0
 62
7
100
AcDbSpline
 70
8
 71
3
 72
8
 73
4
 74
0
 40
0
 40
0
 40
0
 40
0
 40
1
 40
1
 40
1
 40
1
 10
1004.918436
 20
604.687264
 30
0.0
 10
999.230602
 20
604.687264
 30
0.0
 10
994.102829
 20
601.260996
 30
0.0
 10
991.926190
 20
596.006123
 30
0.0
  0
SPLINE
  5
352
100
AcDbEntity
  8
0
 62
7
100
AcDbSpline
 70
8
 71
3
 72
8
 73
4
 74
0
 40
0
 40
0
 40
0
 40
0
 40
1
 40
1
 40
1
 40
1
 10
991.926190
 20
596.006123
 30
0.0
 10
989.749550
 20
590.751249
 30
0.0
 10
990.952695
 20
584.702628
 30
0.0
 10
994.974601
 20
580.680723
 30
0.0
  0
SPLINE
  5
353
100
AcDbEntity
  8
0
 62
7
100
AcDbSpline
 70
8
 71
3
 72
8
 73
4
 74
0
 40
0
 40
0
 40
0
 40
0
 40
1
 40
1
 40
1
 40
1
 10
994.974601
 20
580.680723
 30
0.0
 10
998.996507
 20
576.658817
 30
0.0
 10
1005.045128
 20
575.455671
 30
0.0
 10
1010.300001
 20
577.632311
 30
0.0
  0
SPLINE
  5
354
100
AcDbEntity
  8
0
 62
7
100
AcDbSpline
 70
8
 71
3
 72
8
 73
4
 74
0
 40
0
 40
0
 40
0
 40
0
 40
1
 40
1
 40
1
 40
1
 10
1010.300001
 20
577.632311
 30
0.0
 10
1015.554875
 20
579.808951
 30
0.0
 10
1018.981143
 20
584.936724
 30
0.0
 10
1018.981143
 20
590.624558
 30
0.0
  0
SPLINE
  5
355
100
AcDbEntity
  8
0
 62
7
100
AcDbSpline
 70
8
 71
3
 72
8
 73
4
 74
0
 40
0
 40
0
 40
0
 40
0
 40
1
 40
1
 40
1
 40
1
 10
1018.981143
 20
590.624558
 30
0.0
 10
1018.981143
 20
594.354219
 30
0.0
 10
1017.499541
 20
597.931124
 30
0.0
 10
1014.862272
 20
600.568393
 30
0.0
  0
SPLINE
  5
356
100
AcDbEntity
  8
0
 62
7
100
AcDbSpline
 70
8
 71
3
 72
8
 73
4
 74
0
 40
0
 40
0
 40
0
 40
0
 40
1
 40
1
 40
1
 40
1
 10
1014.862272
 20
600.568393
 30
0.0
 10
1012.225003
 20
603.205662
 30
0.0
 10
1008.648098
 20
604.687264
 30
0.0
 10
1004.918436
 20
604.687264
 30
0.0
  0
LWPOLYLINE
  5
357
100
AcDbEntity
  8
0
 62
7
100
AcDbPolyline
 90
1
 70
1
 10
371.306102
 20
594.537273
 30
0.0
  0
SPLINE
  5
358
100
AcDbEntity
  8
0
 62
7
100
AcDbSpline
 70
8
 71
3
 72
8
 73
4
 74
0
 40
0
 40
0
 40
0
 40
0
 40
1
 40
1
 40
1
 40
1
 10
790.843479
 20
590.743519
 30
0.0
 10
785.155645
 20
590.743519
 30
0.0
 10
780.027872
 20
587.317251
 30
0.0
 10
777.851232
 20
582.062377
 30
0.0
  0
SPLINE
  5
359
100
AcDbEntity
  8
0
 62
7
100
AcDbSpline
 70
8
 71
3
 72
8
 73
4
 74
0
 40
0
 40
0
 40
0
 40
0
 40
1
 40
1
 40
1
 40
1
 10
777.851232
 20
582.062377
 30
0.0
 10
775.674592
 20
576.807504
 30
0.0
 10
776.877737
 20
570.758883
 30
0.0
 10
780.899643
 20
566.736977
 30
0.0
  0
SPLINE
  5
35a
100
AcDbEntity
  8
0
 62
7
100
AcDbSpline
 70
8
 71
3
 72
8
 73
4
 74
0
 40
0
 40
0
 40
0
 40
0
 40
1
 40
1
 40
1
 40
1
 10
780.899643
 20
566.736977
 30
0.0
 10
784.921549
 20
562.715071
 30
0.0
 10
790.970170
 20
561.511926
 30
0.0
 10
796.225043
 20
563.688566
 30
0.0
  0
SPLINE
  5
35b
100
AcDbEntity
  8
0
 62
7
100
AcDbSpline
 70
8
 71
3
 72
8
 73
4
 74
0
 40
0
 40
0
 40
0
 40
0
 40
1
 40
1
 40
1
 40
1
 10
796.225043
 20
563.688566
 30
0.0
 10
801.479917
 20
565.865205
 30
0.0
 10
804.906185
 20
570.992979
 30
0.0
 10
804.906185
 20
576.680813
 30
0.0
  0
SPLINE
  5
35c
100
AcDbEntity
  8
0
 62
7
100
AcDbSpline
 70
8
 71
3
 72
8
 73
4
 74
0
 40
0
 40
0
 40
0
 40
0
 40
1
 40
1
 40
1
 40
1
 10
804.906185
 20
576.680813
 30
0.0
 10
804.906185
 20
580.410474
 30
0.0
 10
803.424583
 20
583.987379
 30
0.0
 10
800.787314
 20
586.624648
 30
0.0
  0
SPLINE
  5
35d
100
AcDbEntity
  8
0
 62
7
100
AcDbSpline
 70
8
 71
3
 72
8
 73
4
 74
0
 40
0
 40
0
 40
0
 40
0
 40
1
 40
1
 40
1
 40
1
 10
800.787314
 20
586.624648
 30
0.0
 10
798.150045
 20
589.261917
 30
0.0
 10
794.573140
 20
590.743519
 30
0.0
 10
790.843479
 20
590.743519
 30
0.0
  0
LWPOLYLINE
  5
35e
100
AcDbEntity
  8
0
 62
7
100
AcDbPolyline
 90
1
 70
1
 10
1004.918436
 20
604.687264
 30
0.0
  0
SPLINE
  5
35f
100
AcDbEntity
  8
0
 62
7
100
AcDbSpline
 70
8
 71
3
 72
8
 73
4
 74
0
 40
0
 40
0
 40
0
 40
0
 40
1
 40
1
 40
1
 40
1
 10
534.937316
 20
596.485184
 30
0.0
 10
529.249483
 20
596.485184
 30
0.0
 10
524.121709
 20
593.058915
 30
0.0
 10
521.945070
 20
587.804042
 30
0.0
  0
SPLINE
  5
360
100
AcDbEntity
  8
0
 62
7
100
AcDbSpline
 70
8
 71
3
 72
8
 73
4
 74
0
 40
0
 40
0
 40
0
 40
0
 40
1
 40
1
 40
1
 40
1
 10
521.945070
 20
587.804042
 30
0.0
 10
519.768430
 20
582.549169
 30
0.0
 10
520.971575
 20
576.500548
 30
0.0
 10
524.993481
 20
572.478642
 30
0.0
  0
SPLINE
  5
361
100
AcDbEntity
  8
0
 62
7
100
AcDbSpline
 70
8
 71
3
 72
8
 73
4
 74
0
 40
0
 40
0
 40
0
 40
0
 40
1
 40
1
 40
1
 40
1
 10
524.993481
 20
572.478642
 30
0.0
 10
529.015387
 20
568.456736
 30
0.0
 10
535.064008
 20
567.253591
 30
0.0
 10
540.318881
 20
569.430230
 30
0.0
  0
SPLINE
  5
362
100
AcDbEntity
  8
0
 62
7
100
AcDbSpline
 70
8
 71
3
 72
8
 73
4
 74
0
 40
0
 40
0
 40
0
 40
0
 40
1
 40
1
 40
1
 40
1
 10
540.318881
 20
569.430230
 30
0.0
 10
545.573755
 20
571.606870
 30
0.0
 10
549.000023
 20
576.734643
 30
0.0
 10
549.000023
 20
582.422477
 30
0.0
  0
SPLINE
  5
363
100
AcDbEntity
  8
0
 62
7
100
AcDbSpline
 70
8
 71
3
 72
8
 73
4
 74
0
 40
0
 40
0
 40
0
 40
0
 40
1
 40
1
 40
1
 40
1
 10
549.000023
 20
582.422477
 30
0.0
 10
549.000023
 20
586.152139
 30
0.0
 10
547.518421
 20
589.729043
 30
0.0
 10
544.881152
 20
592.366312
 30
0.0
  0
SPLINE
  5
364
100
AcDbEntity
  8
0
 62
7
100
AcDbSpline
 70
8
 71
3
 72
8
 73
4
 74
0
 40
0
 40
0
 40
0
 40
0
 40
1
 40
1
 40
1
 40
1
 10
544.881152
 20
592.366312
 30
0.0
 10
542.243883
 20
595.003582
 30
0.0
 10
538.666978
 20
596.485184
 30
0.0
 10
534.937316
 20
596.485184
 30
0.0
  0
LWPOLYLINE
  5
365
100
AcDbEntity
  8
0
 62
7
100
AcDbPolyline
 90
1
 70
1
 10
790.843479
 20
590.743519
 30
0.0
  0
SPLINE
  5
366
100
AcDbEntity
  8
0
 62
7
100
AcDbSpline
 70
8
 71
3
 72
8
 73
4
 74
0
 40
0
 40
0
 40
0
 40
0
 40
1
 40
1
 40
1
 40
1
 10
1001.637188
 20
413.578997
 30
0.0
 10
993.870569
 20
413.578997
 30
0.0
 10
987.574481
 20
407.282908
 30
0.0
 10
987.574481
 20
399.516290
 30
0.0
  0
SPLINE
  5
367
100
AcDbEntity
  8
0
 62
7
100
AcDbSpline
 70
8
 71
3
 72
8
 73
4
 74
0
 40
0
 40
0
 40
0
 40
0
 40
1
 40
1
 40
1
 40
1
 10
987.574481
 20
399.516290
 30
0.0
 10
987.574481
 20
391.749672
 30
0.0
 10
993.870569
 20
385.453583
 30
0.0
 10
1001.637188
 20
385.453583
 30
0.0
  0
SPLINE
  5
368
100
AcDbEntity
  8
0
 62
7
100
AcDbSpline
 70
8
 71
3
 72
8
 73
4
 74
0
 40
0
 40
0
 40
0
 40
0
 40
1
 40
1
 40
1
 40
1
 10
1001.637188
 20
385.453583
 30
0.0
 10
1009.403806
 20
385.453583
 30
0.0
 10
1015.699894
 20
391.749672
 30
0.0
 10
1015.699894
 20
399.516290
 30
0.0
  0
SPLINE
  5
369
100
AcDbEntity
  8
0
 62
7
100
AcDbSpline
 70
8
 71
3
 72
8
 73
4
 74
0
 40
0
 40
0
 40
0
 40
0
 40
1
 40
1
 40
1
 40
1
 10
1015.699894
 20
399.516290
 30
0.0
 10
1015.699894
 20
403.245952
 30
0.0
 10
1014.218292
 20
406.822856
 30
0.0
 10
1011.581023
 20
409.460125
 30
0.0
  0
SPLINE
  5
36a
100
AcDbEntity
  8
0
 62
7
100
AcDbSpline
 70
8
 71
3
 72
8
 73
4
 74
0
 40
0
 40
0
 40
0
 40
0
 40
1
 40
1
 40
1
 40
1
 10
1011.581023
 20
409.460125
 30
0.0
 10
1008.943754
 20
412.097394
 30
0.0
 10
1005.366849
 20
413.578997
 30
0.0
 10
1001.637188
 20
413.578997
 30
0.0
  0
LWPOLYLINE
  5
36b
100
AcDbEntity
  8
0
 62
7
100
AcDbPolyline
 90
1
 70
1
 10
534.937316
 20
596.485184
 30
0.0
  0
SPLINE
  5
36c
100
AcDbEntity
  8
0
 62
7
100
AcDbSpline
 70
8
 71
3
 72
8
 73
4
 74
0
 40
0
 40
0
 40
0
 40
0
 40
1
 40
1
 40
1
 40
1
 10
945.042405
 20
65.809345
 30
0.0
 10
939.354571
 20
65.809345
 30
0.0
 10
934.226798
 20
62.383077
 30
0.0
 10
932.050158
 20
57.128203
 30
0.0
  0
SPLINE
  5
36d
100
AcDbEntity
  8
0
 62
7
100
AcDbSpline
 70
8
 71
3
 72
8
 73
4
 74
0
 40
0
 40
0
 40
0
 40
0
 40
1
 40
1
 40
1
 40
1
 10
932.050158
 20
57.128203
 30
0.0
 10
929.873518
 20
51.873330
 30
0.0
 10
931.076664
 20
45.824709
 30
0.0
 10
935.098570
 20
41.802803
 30
0.0
  0
SPLINE
  5
36e
100
AcDbEntity
  8
0
 62
7
100
AcDbSpline
 70
8
 71
3
 72
8
 73
4
 74
0
 40
0
 40
0
 40
0
 40
0
 40
1
 40
1
 40
1
 40
1
 10
935.098570
 20
41.802803
 30
0.0
 10
939.120476
 20
37.780897
 30
0.0
 10
945.169096
 20
36.577752
 30
0.0
 10
950.423970
 20
38.754392
 30
0.0
  0
SPLINE
  5
36f
100
AcDbEntity
  8
0
 62
7
100
AcDbSpline
 70
8
 71
3
 72
8
 73
4
 74
0
 40
0
 40
0
 40
0
 40
0
 40
1
 40
1
 40
1
 40
1
 10
950.423970
 20
38.754392
 30
0.0
 10
955.678843
 20
40.931031
 30
0.0
 10
959.105111
 20
46.058805
 30
0.0
 10
959.105111
 20
51.746638
 30
0.0
  0
SPLINE
  5
370
100
AcDbEntity
  8
0
 62
7
100
AcDbSpline
 70
8
 71
3
 72
8
 73
4
 74
0
 40
0
 40
0
 40
0
 40
0
 40
1
 40
1
 40
1
 40
1
 10
959.105111
 20
51.746638
 30
0.0
 10
959.105111
 20
55.476300
 30
0.0
 10
957.623509
 20
59.053205
 30
0.0
 10
954.986240
 20
61.690474
 30
0.0
  0
SPLINE
  5
371
100
AcDbEntity
  8
0
 62
7
100
AcDbSpline
 70
8
 71
3
 72
8
 73
4
 74
0
 40
0
 40
0
 40
0
 40
0
 40
1
 40
1
 40
1
 40
1
 10
954.986240
 20
61.690474
 30
0.0
 10
952.348971
 20
64.327743
 30
0.0
 10
948.772067
 20
65.809345
 30
0.0
 10
945.042405
 20
65.809345
 30
0.0
  0
LWPOLYLINE
  5
372
100
AcDbEntity
  8
0
 62
7
100
AcDbPolyline
 90
1
 70
1
 10
1001.637188
 20
413.578997
 30
0.0
  0
SPLINE
  5
373
100
AcDbEntity
  8
0
 62
7
100
AcDbSpline
 70
8
 71
3
 72
8
 73
4
 74
0
 40
0
 40
0
 40
0
 40
0
 40
1
 40
1
 40
1
 40
1
 10
710.462235
 20
64.169731
 30
0.0
 10
704.774401
 20
64.169731
 30
0.0
 10
699.646628
 20
60.743463
 30
0.0
 10
697.469989
 20
55.488589
 30
0.0
  0
SPLINE
  5
374
100
AcDbEntity
  8
0
 62
7
100
AcDbSpline
 70
8
 71
3
 72
8
 73
4
 74
0
 40
0
 40
0
 40
0
 40
0
 40
1
 40
1
 40
1
 40
1
 10
697.469989
 20
55.488589
 30
0.0
 10
695.293349
 20
50.233716
 30
0.0
 10
696.496494
 20
44.185095
 30
0.0
 10
700.518400
 20
40.163189
 30
0.0
  0
SPLINE
  5
375
100
AcDbEntity
  8
0
 62
7
100
AcDbSpline
 70
8
 71
3
 72
8
 73
4
 74
0
 40
0
 40
0
 40
0
 40
0
 40
1
 40
1
 40
1
 40
1
 10
700.518400
 20
40.163189
 30
0.0
 10
704.540306
 20
36.141283
 30
0.0
 10
710.588927
 20
34.938138
 30
0.0
 10
715.843800
 20
37.114778
 30
0.0
  0
SPLINE
  5
376
100
AcDbEntity
  8
0
 62
7
100
AcDbSpline
 70
8
 71
3
 72
8
 73
4
 74
0
 40
0
 40
0
 40
0
 40
0
 40
1
 40
1
 40
1
 40
1
 10
715.843800
 20
37.114778
 30
0.0
 10
721.098674
 20
39.291417
 30
0.0
 10
724.524942
 20
44.419191
 30
0.0
 10
724.524942
 20
50.107024
 30
0.0
  0
SPLINE
  5
377
100
AcDbEntity
  8
0
 62
7
100
AcDbSpline
 70
8
 71
3
 72
8
 73
4
 74
0
 40
0
 40
0
 40
0
 40
0
 40
1
 40
1
 40
1
 40
1
 10
724.524942
 20
50.107024
 30
0.0
 10
724.524942
 20
53.836686
 30
0.0
 10
723.043340
 20
57.413591
 30
0.0
 10
720.406071
 20
60.050860
 30
0.0
  0
SPLINE
  5
378
100
AcDbEntity
  8
0
 62
7
100
AcDbSpline
 70
8
 71
3
 72
8
 73
4
 74
0
 40
0
 40
0
 40
0
 40
0
 40
1
 40
1
 40
1
 40
1
 10
720.406071
 20
60.050860
 30
0.0
 10
717.768801
 20
62.688129
 30
0.0
 10
714.191897
 20
64.169731
 30
0.0
 10
710.462235
 20
64.169731
 30
0.0
  0
LWPOLYLINE
  5
379
100
AcDbEntity
  8
0
 62
7
100
AcDbPolyline
 90
1
 70
1
 10
945.042405
 20
65.809345
 30
0.0
  0
SPLINE
  5
37a
100
AcDbEntity
  8
0
 62
7
100
AcDbSpline
 70
8
 71
3
 72
8
 73
4
 74
0
 40
0
 40
0
 40
0
 40
0
 40
1
 40
1
 40
1
 40
1
 10
575.127938
 20
444.746694
 30
0.0
 10
569.440104
 20
444.746694
 30
0.0
 10
564.312331
 20
441.320426
 30
0.0
 10
562.135691
 20
436.065552
 30
0.0
  0
SPLINE
  5
37b
100
AcDbEntity
  8
0
 62
7
100
AcDbSpline
 70
8
 71
3
 72
8
 73
4
 74
0
 40
0
 40
0
 40
0
 40
0
 40
1
 40
1
 40
1
 40
1
 10
562.135691
 20
436.065552
 30
0.0
 10
559.959051
 20
430.810679
 30
0.0
 10
561.162197
 20
424.762058
 30
0.0
 10
565.184103
 20
420.740152
 30
0.0
  0
SPLINE
  5
37c
100
AcDbEntity
  8
0
 62
7
100
AcDbSpline
 70
8
 71
3
 72
8
 73
4
 74
0
 40
0
 40
0
 40
0
 40
0
 40
1
 40
1
 40
1
 40
1
 10
565.184103
 20
420.740152
 30
0.0
 10
569.206009
 20
416.718246
 30
0.0
 10
575.254630
 20
415.515101
 30
0.0
 10
580.509503
 20
417.691741
 30
0.0
  0
SPLINE
  5
37d
100
AcDbEntity
  8
0
 62
7
100
AcDbSpline
 70
8
 71
3
 72
8
 73
4
 74
0
 40
0
 40
0
 40
0
 40
0
 40
1
 40
1
 40
1
 40
1
 10
580.509503
 20
417.691741
 30
0.0
 10
585.764376
 20
419.868381
 30
0.0
 10
589.190645
 20
424.996154
 30
0.0
 10
589.190645
 20
430.683988
 30
0.0
  0
SPLINE
  5
37e
100
AcDbEntity
  8
0
 62
7
100
AcDbSpline
 70
8
 71
3
 72
8
 73
4
 74
0
 40
0
 40
0
 40
0
 40
0
 40
1
 40
1
 40
1
 40
1
 10
589.190645
 20
430.683988
 30
0.0
 10
589.190645
 20
438.450606
 30
0.0
 10
582.894556
 20
444.746694
 30
0.0
 10
575.127938
 20
444.746694
 30
0.0
  0
LWPOLYLINE
  5
37f
100
AcDbEntity
  8
0
 62
7
100
AcDbPolyline
 90
1
 70
1
 10
710.462235
 20
64.169731
 30
0.0
  0
SPLINE
  5
380
100
AcDbEntity
  8
0
 62
7
100
AcDbSpline
 70
8
 71
3
 72
8
 73
4
 74
0
 40
0
 40
0
 40
0
 40
0
 40
1
 40
1
 40
1
 40
1
 10
176.506189
 20
416.859204
 30
0.0
 10
170.818356
 20
416.859204
 30
0.0
 10
165.690582
 20
413.432935
 30
0.0
 10
163.513943
 20
408.178062
 30
0.0
  0
SPLINE
  5
381
100
AcDbEntity
  8
0
 62
7
100
AcDbSpline
 70
8
 71
3
 72
8
 73
4
 74
0
 40
0
 40
0
 40
0
 40
0
 40
1
 40
1
 40
1
 40
1
 10
163.513943
 20
408.178062
 30
0.0
 10
161.337303
 20
402.923189
 30
0.0
 10
162.540448
 20
396.874568
 30
0.0
 10
166.562354
 20
392.852662
 30
0.0
  0
SPLINE
  5
382
100
AcDbEntity
  8
0
 62
7
100
AcDbSpline
 70
8
 71
3
 72
8
 73
4
 74
0
 40
0
 40
0
 40
0
 40
0
 40
1
 40
1
 40
1
 40
1
 10
166.562354
 20
392.852662
 30
0.0
 10
170.584260
 20
388.830756
 30
0.0
 10
176.632881
 20
387.627611
 30
0.0
 10
181.887754
 20
389.804250
 30
0.0
  0
SPLINE
  5
383
100
AcDbEntity
  8
0
 62
7
100
AcDbSpline
 70
8
 71
3
 72
8
 73
4
 74
0
 40
0
 40
0
 40
0
 40
0
 40
1
 40
1
 40
1
 40
1
 10
181.887754
 20
389.804250
 30
0.0
 10
187.142628
 20
391.980890
 30
0.0
 10
190.568896
 20
397.108663
 30
0.0
 10
190.568896
 20
402.796497
 30
0.0
  0
SPLINE
  5
384
100
AcDbEntity
  8
0
 62
7
100
AcDbSpline
 70
8
 71
3
 72
8
 73
4
 74
0
 40
0
 40
0
 40
0
 40
0
 40
1
 40
1
 40
1
 40
1
 10
190.568896
 20
402.796497
 30
0.0
 10
190.568896
 20
406.526159
 30
0.0
 10
189.087294
 20
410.103063
 30
0.0
 10
186.450025
 20
412.740332
 30
0.0
  0
SPLINE
  5
385
100
AcDbEntity
  8
0
 62
7
100
AcDbSpline
 70
8
 71
3
 72
8
 73
4
 74
0
 40
0
 40
0
 40
0
 40
0
 40
1
 40
1
 40
1
 40
1
 10
186.450025
 20
412.740332
 30
0.0
 10
183.812756
 20
415.377601
 30
0.0
 10
180.235851
 20
416.859204
 30
0.0
 10
176.506189
 20
416.859204
 30
0.0
  0
LWPOLYLINE
  5
386
100
AcDbEntity
  8
0
 62
7
100
AcDbPolyline
 90
1
 70
1
 10
575.127938
 20
444.746694
 30
0.0
  0
SPLINE
  5
387
100
AcDbEntity
  8
0
 62
7
100
AcDbSpline
 70
8
 71
3
 72
8
 73
4
 74
0
 40
0
 40
0
 40
0
 40
0
 40
1
 40
1
 40
1
 40
1
 10
867.943473
 20
529.227926
 30
0.0
 10
862.255639
 20
529.227926
 30
0.0
 10
857.127866
 20
525.801657
 30
0.0
 10
854.951226
 20
520.546784
 30
0.0
  0
SPLINE
  5
388
100
AcDbEntity
  8
0
 62
7
100
AcDbSpline
 70
8
 71
3
 72
8
 73
4
 74
0
 40
0
 40
0
 40
0
 40
0
 40
1
 40
1
 40
1
 40
1
 10
854.951226
 20
520.546784
 30
0.0
 10
852.774586
 20
515.291911
 30
0.0
 10
853.977732
 20
509.243290
 30
0.0
 10
857.999638
 20
505.221384
 30
0.0
  0
SPLINE
  5
389
100
AcDbEntity
  8
0
 62
7
100
AcDbSpline
 70
8
 71
3
 72
8
 73
4
 74
0
 40
0
 40
0
 40
0
 40
0
 40
1
 40
1
 40
1
 40
1
 10
857.999638
 20
505.221384
 30
0.0
 10
862.021544
 20
501.199478
 30
0.0
 10
868.070164
 20
499.996332
 30
0.0
 10
873.325038
 20
502.172972
 30
0.0
  0
SPLINE
  5
38a
100
AcDbEntity
  8
0
 62
7
100
AcDbSpline
 70
8
 71
3
 72
8
 73
4
 74
0
 40
0
 40
0
 40
0
 40
0
 40
1
 40
1
 40
1
 40
1
 10
873.325038
 20
502.172972
 30
0.0
 10
878.579911
 20
504.349612
 30
0.0
 10
882.006180
 20
509.477385
 30
0.0
 10
882.006180
 20
515.165219
 30
0.0
  0
SPLINE
  5
38b
100
AcDbEntity
  8
0
 62
7
100
AcDbSpline
 70
8
 71
3
 72
8
 73
4
 74
0
 40
0
 40
0
 40
0
 40
0
 40
1
 40
1
 40
1
 40
1
 10
882.006180
 20
515.165219
 30
0.0
 10
882.006180
 20
518.894881
 30
0.0
 10
880.524577
 20
522.471785
 30
0.0
 10
877.887308
 20
525.109054
 30
0.0
  0
SPLINE
  5
38c
100
AcDbEntity
  8
0
 62
7
100
AcDbSpline
 70
8
 71
3
 72
8
 73
4
 74
0
 40
0
 40
0
 40
0
 40
0
 40
1
 40
1
 40
1
 40
1
 10
877.887308
 20
525.109054
 30
0.0
 10
875.250039
 20
527.746323
 30
0.0
 10
871.673135
 20
529.227926
 30
0.0
 10
867.943473
 20
529.227926
 30
0.0
  0
LWPOLYLINE
  5
38d
100
AcDbEntity
  8
0
 62
7
100
AcDbPolyline
 90
1
 70
1
 10
176.506189
 20
416.859204
 30
0.0
  0
SPLINE
  5
38e
100
AcDbEntity
  8
0
 62
7
100
AcDbSpline
 70
8
 71
3
 72
8
 73
4
 74
0
 40
0
 40
0
 40
0
 40
0
 40
1
 40
1
 40
1
 40
1
 10
603.835199
 20
516.105003
 30
0.0
 10
598.147365
 20
516.105003
 30
0.0
 10
593.019592
 20
512.678735
 30
0.0
 10
590.842952
 20
507.423861
 30
0.0
  0
SPLINE
  5
38f
100
AcDbEntity
  8
0
 62
7
100
AcDbSpline
 70
8
 71
3
 72
8
 73
4
 74
0
 40
0
 40
0
 40
0
 40
0
 40
1
 40
1
 40
1
 40
1
 10
590.842952
 20
507.423861
 30
0.0
 10
588.666312
 20
502.168988
 30
0.0
 10
589.869458
 20
496.120367
 30
0.0
 10
593.891364
 20
492.098461
 30
0.0
  0
SPLINE
  5
390
100
AcDbEntity
  8
0
 62
7
100
AcDbSpline
 70
8
 71
3
 72
8
 73
4
 74
0
 40
0
 40
0
 40
0
 40
0
 40
1
 40
1
 40
1
 40
1
 10
593.891364
 20
492.098461
 30
0.0
 10
597.913270
 20
488.076555
 30
0.0
 10
603.961891
 20
486.873410
 30
0.0
 10
609.216764
 20
489.050050
 30
0.0
  0
SPLINE
  5
391
100
AcDbEntity
  8
0
 62
7
100
AcDbSpline
 70
8
 71
3
 72
8
 73
4
 74
0
 40
0
 40
0
 40
0
 40
0
 40
1
 40
1
 40
1
 40
1
 10
609.216764
 20
489.050050
 30
0.0
 10
614.471637
 20
491.226689
 30
0.0
 10
617.897906
 20
496.354463
 30
0.0
 10
617.897906
 20
502.042296
 30
0.0
  0
SPLINE
  5
392
100
AcDbEntity
  8
0
 62
7
100
AcDbSpline
 70
8
 71
3
 72
8
 73
4
 74
0
 40
0
 40
0
 40
0
 40
0
 40
1
 40
1
 40
1
 40
1
 10
617.897906
 20
502.042296
 30
0.0
 10
617.897906
 20
505.771958
 30
0.0
 10
616.416303
 20
509.348863
 30
0.0
 10
613.779034
 20
511.986132
 30
0.0
  0
SPLINE
  5
393
100
AcDbEntity
  8
0
 62
7
100
AcDbSpline
 70
8
 71
3
 72
8
 73
4
 74
0
 40
0
 40
0
 40
0
 40
0
 40
1
 40
1
 40
1
 40
1
 10
613.779034
 20
511.986132
 30
0.0
 10
611.141765
 20
514.623401
 30
0.0
 10
607.564861
 20
516.105003
 30
0.0
 10
603.835199
 20
516.105003
 30
0.0
  0
LWPOLYLINE
  5
394
100
AcDbEntity
  8
0
 62
7
100
AcDbPolyline
 90
1
 70
1
 10
867.943473
 20
529.227926
 30
0.0
  0
SPLINE
  5
395
100
AcDbEntity
  8
0
 62
7
100
AcDbSpline
 70
8
 71
3
 72
8
 73
4
 74
0
 40
0
 40
0
 40
0
 40
0
 40
1
 40
1
 40
1
 40
1
 10
356.132159
 20
507.082100
 30
0.0
 10
350.444325
 20
507.082100
 30
0.0
 10
345.316552
 20
503.655831
 30
0.0
 10
343.139912
 20
498.400958
 30
0.0
  0
SPLINE
  5
396
100
AcDbEntity
  8
0
 62
7
100
AcDbSpline
 70
8
 71
3
 72
8
 73
4
 74
0
 40
0
 40
0
 40
0
 40
0
 40
1
 40
1
 40
1
 40
1
 10
343.139912
 20
498.400958
 30
0.0
 10
340.963272
 20
493.146085
 30
0.0
 10
342.166418
 20
487.097464
 30
0.0
 10
346.188324
 20
483.075558
 30
0.0
  0
SPLINE
  5
397
100
AcDbEntity
  8
0
 62
7
100
AcDbSpline
 70
8
 71
3
 72
8
 73
4
 74
0
 40
0
 40
0
 40
0
 40
0
 40
1
 40
1
 40
1
 40
1
 10
346.188324
 20
483.075558
 30
0.0
 10
350.210230
 20
479.053652
 30
0.0
 10
356.258851
 20
477.850507
 30
0.0
 10
361.513724
 20
480.027146
 30
0.0
  0
SPLINE
  5
398
100
AcDbEntity
  8
0
 62
7
100
AcDbSpline
 70
8
 71
3
 72
8
 73
4
 74
0
 40
0
 40
0
 40
0
 40
0
 40
1
 40
1
 40
1
 40
1
 10
361.513724
 20
480.027146
 30
0.0
 10
366.768597
 20
482.203786
 30
0.0
 10
370.194866
 20
487.331559
 30
0.0
 10
370.194866
 20
493.019393
 30
0.0
  0
SPLINE
  5
399
100
AcDbEntity
  8
0
 62
7
100
AcDbSpline
 70
8
 71
3
 72
8
 73
4
 74
0
 40
0
 40
0
 40
0
 40
0
 40
1
 40
1
 40
1
 40
1
 10
370.194866
 20
493.019393
 30
0.0
 10
370.194866
 20
496.749055
 30
0.0
 10
368.713263
 20
500.325959
 30
0.0
 10
366.075994
 20
502.963229
 30
0.0
  0
SPLINE
  5
39a
100
AcDbEntity
  8
0
 62
7
100
AcDbSpline
 70
8
 71
3
 72
8
 73
4
 74
0
 40
0
 40
0
 40
0
 40
0
 40
1
 40
1
 40
1
 40
1
 10
366.075994
 20
502.963229
 30
0.0
 10
363.438725
 20
505.600498
 30
0.0
 10
359.861821
 20
507.082100
 30
0.0
 10
356.132159
 20
507.082100
 30
0.0
  0
LWPOLYLINE
  5
39b
100
AcDbEntity
  8
0
 62
7
100
AcDbPolyline
 90
1
 70
1
 10
603.835199
 20
516.105003
 30
0.0
  0
SPLINE
  5
39c
100
AcDbEntity
  8
0
 62
7
100
AcDbSpline
 70
8
 71
3
 72
8
 73
4
 74
0
 40
0
 40
0
 40
0
 40
0
 40
1
 40
1
 40
1
 40
1
 10
1104.822538
 20
60.396826
 30
0.0
 10
1099.134704
 20
60.396826
 30
0.0
 10
1094.006930
 20
56.970558
 30
0.0
 10
1091.830291
 20
51.715684
 30
0.0
  0
SPLINE
  5
39d
100
AcDbEntity
  8
0
 62
7
100
AcDbSpline
 70
8
 71
3
 72
8
 73
4
 74
0
 40
0
 40
0
 40
0
 40
0
 40
1
 40
1
 40
1
 40
1
 10
1091.830291
 20
51.715684
 30
0.0
 10
1089.653651
 20
46.460811
 30
0.0
 10
1090.856796
 20
40.412190
 30
0.0
 10
1094.878702
 20
36.390284
 30
0.0
  0
SPLINE
  5
39e
100
AcDbEntity
  8
0
 62
7
100
AcDbSpline
 70
8
 71
3
 72
8
 73
4
 74
0
 40
0
 40
0
 40
0
 40
0
 40
1
 40
1
 40
1
 40
1
 10
1094.878702
 20
36.390284
 30
0.0
 10
1098.900608
 20
32.368378
 30
0.0
 10
1104.949229
 20
31.165233
 30
0.0
 10
1110.204102
 20
33.341873
 30
0.0
  0
SPLINE
  5
39f
100
AcDbEntity
  8
0
 62
7
100
AcDbSpline
 70
8
 71
3
 72
8
 73
4
 74
0
 40
0
 40
0
 40
0
 40
0
 40
1
 40
1
 40
1
 40
1
 10
1110.204102
 20
33.341873
 30
0.0
 10
1115.458976
 20
35.518512
 30
0.0
 10
1118.885244
 20
40.646286
 30
0.0
 10
1118.885244
 20
46.334120
 30
0.0
  0
SPLINE
  5
3a0
100
AcDbEntity
  8
0
 62
7
100
AcDbSpline
 70
8
 71
3
 72
8
 73
4
 74
0
 40
0
 40
0
 40
0
 40
0
 40
1
 40
1
 40
1
 40
1
 10
1118.885244
 20
46.334120
 30
0.0
 10
1118.885244
 20
50.063781
 30
0.0
 10
1117.403642
 20
53.640686
 30
0.0
 10
1114.766373
 20
56.277955
 30
0.0
  0
SPLINE
  5
3a1
100
AcDbEntity
  8
0
 62
7
100
AcDbSpline
 70
8
 71
3
 72
8
 73
4
 74
0
 40
0
 40
0
 40
0
 40
0
 40
1
 40
1
 40
1
 40
1
 10
1114.766373
 20
56.277955
 30
0.0
 10
1112.129104
 20
58.915224
 30
0.0
 10
1108.552199
 20
60.396826
 30
0.0
 10
1104.822538
 20
60.396826
 30
0.0
  0
LWPOLYLINE
  5
3a2
100
AcDbEntity
  8
0
 62
7
100
AcDbPolyline
 90
1
 70
1
 10
356.132159
 20
507.082100
 30
0.0
  0
SPLINE
  5
3a3
100
AcDbEntity
  8
0
 62
7
100
AcDbSpline
 70
8
 71
3
 72
8
 73
4
 74
0
 40
0
 40
0
 40
0
 40
0
 40
1
 40
1
 40
1
 40
1
 10
826.112185
 20
292.187351
 30
0.0
 10
820.424351
 20
292.187351
 30
0.0
 10
815.296578
 20
288.761082
 30
0.0
 10
813.119938
 20
283.506209
 30
0.0
  0
SPLINE
  5
3a4
100
AcDbEntity
  8
0
 62
7
100
AcDbSpline
 70
8
 71
3
 72
8
 73
4
 74
0
 40
0
 40
0
 40
0
 40
0
 40
1
 40
1
 40
1
 40
1
 10
813.119938
 20
283.506209
 30
0.0
 10
810.943299
 20
278.251336
 30
0.0
 10
812.146444
 20
272.202715
 30
0.0
 10
816.168350
 20
268.180809
 30
0.0
  0
SPLINE
  5
3a5
100
AcDbEntity
  8
0
 62
7
100
AcDbSpline
 70
8
 71
3
 72
8
 73
4
 74
0
 40
0
 40
0
 40
0
 40
0
 40
1
 40
1
 40
1
 40
1
 10
816.168350
 20
268.180809
 30
0.0
 10
820.190256
 20
264.158903
 30
0.0
 10
826.238877
 20
262.955758
 30
0.0
 10
831.493750
 20
265.132397
 30
0.0
  0
SPLINE
  5
3a6
100
AcDbEntity
  8
0
 62
7
100
AcDbSpline
 70
8
 71
3
 72
8
 73
4
 74
0
 40
0
 40
0
 40
0
 40
0
 40
1
 40
1
 40
1
 40
1
 10
831.493750
 20
265.132397
 30
0.0
 10
836.748623
 20
267.309037
 30
0.0
 10
840.174892
 20
272.436810
 30
0.0
 10
840.174892
 20
278.124644
 30
0.0
  0
SPLINE
  5
3a7
100
AcDbEntity
  8
0
 62
7
100
AcDbSpline
 70
8
 71
3
 72
8
 73
4
 74
0
 40
0
 40
0
 40
0
 40
0
 40
1
 40
1
 40
1
 40
1
 10
840.174892
 20
278.124644
 30
0.0
 10
840.174892
 20
285.891263
 30
0.0
 10
833.878804
 20
292.187351
 30
0.0
 10
826.112185
 20
292.187351
 30
0.0
  0
LWPOLYLINE
  5
3a8
100
AcDbEntity
  8
0
 62
7
100
AcDbPolyline
 90
1
 70
1
 10
1104.822538
 20
60.396826
 30
0.0
  0
SPLINE
  5
3a9
100
AcDbEntity
  8
0
 62
7
100
AcDbSpline
 70
8
 71
3
 72
8
 73
4
 74
0
 40
0
 40
0
 40
0
 40
0
 40
1
 40
1
 40
1
 40
1
 10
571.847700
 20
288.907164
 30
0.0
 10
566.159866
 20
288.907164
 30
0.0
 10
561.032093
 20
285.480896
 30
0.0
 10
558.855453
 20
280.226023
 30
0.0
  0
SPLINE
  5
3aa
100
AcDbEntity
  8
0
 62
7
100
AcDbSpline
 70
8
 71
3
 72
8
 73
4
 74
0
 40
0
 40
0
 40
0
 40
0
 40
1
 40
1
 40
1
 40
1
 10
558.855453
 20
280.226023
 30
0.0
 10
556.678813
 20
274.971149
 30
0.0
 10
557.881958
 20
268.922528
 30
0.0
 10
561.903864
 20
264.900623
 30
0.0
  0
SPLINE
  5
3ab
100
AcDbEntity
  8
0
 62
7
100
AcDbSpline
 70
8
 71
3
 72
8
 73
4
 74
0
 40
0
 40
0
 40
0
 40
0
 40
1
 40
1
 40
1
 40
1
 10
561.903864
 20
264.900623
 30
0.0
 10
565.925770
 20
260.878717
 30
0.0
 10
571.974391
 20
259.675571
 30
0.0
 10
577.229264
 20
261.852211
 30
0.0
  0
SPLINE
  5
3ac
100
AcDbEntity
  8
0
 62
7
100
AcDbSpline
 70
8
 71
3
 72
8
 73
4
 74
0
 40
0
 40
0
 40
0
 40
0
 40
1
 40
1
 40
1
 40
1
 10
577.229264
 20
261.852211
 30
0.0
 10
582.484138
 20
264.028851
 30
0.0
 10
585.910406
 20
269.156624
 30
0.0
 10
585.910406
 20
274.844458
 30
0.0
  0
SPLINE
  5
3ad
100
AcDbEntity
  8
0
 62
7
100
AcDbSpline
 70
8
 71
3
 72
8
 73
4
 74
0
 40
0
 40
0
 40
0
 40
0
 40
1
 40
1
 40
1
 40
1
 10
585.910406
 20
274.844458
 30
0.0
 10
585.910406
 20
278.574119
 30
0.0
 10
584.428804
 20
282.151024
 30
0.0
 10
581.791535
 20
284.788293
 30
0.0
  0
SPLINE
  5
3ae
100
AcDbEntity
  8
0
 62
7
100
AcDbSpline
 70
8
 71
3
 72
8
 73
4
 74
0
 40
0
 40
0
 40
0
 40
0
 40
1
 40
1
 40
1
 40
1
 10
581.791535
 20
284.788293
 30
0.0
 10
579.154266
 20
287.425562
 30
0.0
 10
575.577361
 20
288.907164
 30
0.0
 10
571.847700
 20
288.907164
 30
0.0
  0
LWPOLYLINE
  5
3af
100
AcDbEntity
  8
0
 62
7
100
AcDbPolyline
 90
1
 70
1
 10
826.112185
 20
292.187351
 30
0.0
  0
SPLINE
  5
3b0
100
AcDbEntity
  8
0
 62
7
100
AcDbSpline
 70
8
 71
3
 72
8
 73
4
 74
0
 40
0
 40
0
 40
0
 40
0
 40
1
 40
1
 40
1
 40
1
 10
282.313445
 20
363.545691
 30
0.0
 10
276.625611
 20
363.545691
 30
0.0
 10
271.497838
 20
360.119422
 30
0.0
 10
269.321198
 20
354.864549
 30
0.0
  0
SPLINE
  5
3b1
100
AcDbEntity
  8
0
 62
7
100
AcDbSpline
 70
8
 71
3
 72
8
 73
4
 74
0
 40
0
 40
0
 40
0
 40
0
 40
1
 40
1
 40
1
 40
1
 10
269.321198
 20
354.864549
 30
0.0
 10
267.144558
 20
349.609676
 30
0.0
 10
268.347704
 20
343.561055
 30
0.0
 10
272.369610
 20
339.539149
 30
0.0
  0
SPLINE
  5
3b2
100
AcDbEntity
  8
0
 62
7
100
AcDbSpline
 70
8
 71
3
 72
8
 73
4
 74
0
 40
0
 40
0
 40
0
 40
0
 40
1
 40
1
 40
1
 40
1
 10
272.369610
 20
339.539149
 30
0.0
 10
276.391515
 20
335.517243
 30
0.0
 10
282.440136
 20
334.314098
 30
0.0
 10
287.695010
 20
336.490737
 30
0.0
  0
SPLINE
  5
3b3
100
AcDbEntity
  8
0
 62
7
100
AcDbSpline
 70
8
 71
3
 72
8
 73
4
 74
0
 40
0
 40
0
 40
0
 40
0
 40
1
 40
1
 40
1
 40
1
 10
287.695010
 20
336.490737
 30
0.0
 10
292.949883
 20
338.667377
 30
0.0
 10
296.376151
 20
343.795150
 30
0.0
 10
296.376151
 20
349.482984
 30
0.0
  0
SPLINE
  5
3b4
100
AcDbEntity
  8
0
 62
7
100
AcDbSpline
 70
8
 71
3
 72
8
 73
4
 74
0
 40
0
 40
0
 40
0
 40
0
 40
1
 40
1
 40
1
 40
1
 10
296.376151
 20
349.482984
 30
0.0
 10
296.376151
 20
353.212646
 30
0.0
 10
294.894549
 20
356.789550
 30
0.0
 10
292.257280
 20
359.426819
 30
0.0
  0
SPLINE
  5
3b5
100
AcDbEntity
  8
0
 62
7
100
AcDbSpline
 70
8
 71
3
 72
8
 73
4
 74
0
 40
0
 40
0
 40
0
 40
0
 40
1
 40
1
 40
1
 40
1
 10
292.257280
 20
359.426819
 30
0.0
 10
289.620011
 20
362.064089
 30
0.0
 10
286.043106
 20
363.545691
 30
0.0
 10
282.313445
 20
363.545691
 30
0.0
  0
LWPOLYLINE
  5
3b6
100
AcDbEntity
  8
0
 62
7
100
AcDbPolyline
 90
1
 70
1
 10
571.847700
 20
288.907164
 30
0.0
  0
SPLINE
  5
3b7
100
AcDbEntity
  8
0
 62
7
100
AcDbSpline
 70
8
 71
3
 72
8
 73
4
 74
0
 40
0
 40
0
 40
0
 40
0
 40
1
 40
1
 40
1
 40
1
 10
172.405149
 20
609.608725
 30
0.0
 10
166.717315
 20
609.608725
 30
0.0
 10
161.589542
 20
606.182457
 30
0.0
 10
159.412902
 20
600.927583
 30
0.0
  0
SPLINE
  5
3b8
100
AcDbEntity
  8
0
 62
7
100
AcDbSpline
 70
8
 71
3
 72
8
 73
4
 74
0
 40
0
 40
0
 40
0
 40
0
 40
1
 40
1
 40
1
 40
1
 10
159.412902
 20
600.927583
 30
0.0
 10
157.236263
 20
595.672710
 30
0.0
 10
158.439408
 20
589.624089
 30
0.0
 10
162.461314
 20
585.602183
 30
0.0
  0
SPLINE
  5
3b9
100
AcDbEntity
  8
0
 62
7
100
AcDbSpline
 70
8
 71
3
 72
8
 73
4
 74
0
 40
0
 40
0
 40
0
 40
0
 40
1
 40
1
 40
1
 40
1
 10
162.461314
 20
585.602183
 30
0.0
 10
166.483220
 20
581.580277
 30
0.0
 10
172.531841
 20
580.377132
 30
0.0
 10
177.786714
 20
582.553772
 30
0.0
  0
SPLINE
  5
3ba
100
AcDbEntity
  8
0
 62
7
100
AcDbSpline
 70
8
 71
3
 72
8
 73
4
 74
0
 40
0
 40
0
 40
0
 40
0
 40
1
 40
1
 40
1
 40
1
 10
177.786714
 20
582.553772
 30
0.0
 10
183.041587
 20
584.730412
 30
0.0
 10
186.467856
 20
589.858185
 30
0.0
 10
186.467856
 20
595.546019
 30
0.0
  0
SPLINE
  5
3bb
100
AcDbEntity
  8
0
 62
7
100
AcDbSpline
 70
8
 71
3
 72
8
 73
4
 74
0
 40
0
 40
0
 40
0
 40
0
 40
1
 40
1
 40
1
 40
1
 10
186.467856
 20
595.546019
 30
0.0
 10
186.467856
 20
599.275680
 30
0.0
 10
184.986253
 20
602.852585
 30
0.0
 10
182.348984
 20
605.489854
 30
0.0
  0
SPLINE
  5
3bc
100
AcDbEntity
  8
0
 62
7
100
AcDbSpline
 70
8
 71
3
 72
8
 73
4
 74
0
 40
0
 40
0
 40
0
 40
0
 40
1
 40
1
 40
1
 40
1
 10
182.348984
 20
605.489854
 30
0.0
 10
179.711715
 20
608.127123
 30
0.0
 10
176.134811
 20
609.608725
 30
0.0
 10
172.405149
 20
609.608725
 30
0.0
  0
LWPOLYLINE
  5
3bd
100
AcDbEntity
  8
0
 62
7
100
AcDbPolyline
 90
1
 70
1
 10
282.313445
 20
363.545691
 30
0.0
  0
SPLINE
  5
3be
100
AcDbEntity
  8
0
 62
7
100
AcDbSpline
 70
8
 71
3
 72
8
 73
4
 74
0
 40
0
 40
0
 40
0
 40
0
 40
1
 40
1
 40
1
 40
1
 10
1313.603716
 20
70.347674
 30
0.0
 10
1310.393294
 20
70.347674
 30
0.0
 10
1307.498991
 20
68.413762
 30
0.0
 10
1306.270415
 20
65.447719
 30
0.0
  0
SPLINE
  5
3bf
100
AcDbEntity
  8
0
 62
7
100
AcDbSpline
 70
8
 71
3
 72
8
 73
4
 74
0
 40
0
 40
0
 40
0
 40
0
 40
1
 40
1
 40
1
 40
1
 10
1306.270415
 20
65.447719
 30
0.0
 10
1305.041840
 20
62.481675
 30
0.0
 10
1305.720939
 20
59.067612
 30
0.0
 10
1307.991050
 20
56.797501
 30
0.0
  0
SPLINE
  5
3c0
100
AcDbEntity
  8
0
 62
7
100
AcDbSpline
 70
8
 71
3
 72
8
 73
4
 74
0
 40
0
 40
0
 40
0
 40
0
 40
1
 40
1
 40
1
 40
1
 10
1307.991050
 20
56.797501
 30
0.0
 10
1310.261162
 20
54.527389
 30
0.0
 10
1313.675225
 20
53.848290
 30
0.0
 10
1316.641268
 20
55.076865
 30
0.0
  0
SPLINE
  5
3c1
100
AcDbEntity
  8
0
 62
7
100
AcDbSpline
 70
8
 71
3
 72
8
 73
4
 74
0
 40
0
 40
0
 40
0
 40
0
 40
1
 40
1
 40
1
 40
1
 10
1316.641268
 20
55.076865
 30
0.0
 10
1319.607312
 20
56.305441
 30
0.0
 10
1321.541223
 20
59.199744
 30
0.0
 10
1321.541223
 20
62.410166
 30
0.0
  0
SPLINE
  5
3c2
100
AcDbEntity
  8
0
 62
7
100
AcDbSpline
 70
8
 71
3
 72
8
 73
4
 74
0
 40
0
 40
0
 40
0
 40
0
 40
1
 40
1
 40
1
 40
1
 10
1321.541223
 20
62.410166
 30
0.0
 10
1321.541223
 20
64.515324
 30
0.0
 10
1320.704953
 20
66.534260
 30
0.0
 10
1319.216381
 20
68.022831
 30
0.0
  0
SPLINE
  5
3c3
100
AcDbEntity
  8
0
 62
7
100
AcDbSpline
 70
8
 71
3
 72
8
 73
4
 74
0
 40
0
 40
0
 40
0
 40
0
 40
1
 40
1
 40
1
 40
1
 10
1319.216381
 20
68.022831
 30
0.0
 10
1317.727810
 20
69.511403
 30
0.0
 10
1315.708874
 20
70.347674
 30
0.0
 10
1313.603716
 20
70.347674
 30
0.0
  0
LWPOLYLINE
  5
3c4
100
AcDbEntity
  8
0
 62
7
100
AcDbPolyline
 90
1
 70
1
 10
172.405149
 20
609.608725
 30
0.0
  0
SPLINE
  5
3c5
100
AcDbEntity
  8
0
 62
7
100
AcDbSpline
 70
8
 71
3
 72
8
 73
4
 74
0
 40
0
 40
0
 40
0
 40
0
 40
1
 40
1
 40
1
 40
1
 10
1277.509978
 20
110.537233
 30
0.0
 10
1274.299556
 20
110.537233
 30
0.0
 10
1271.405253
 20
108.603321
 30
0.0
 10
1270.176678
 20
105.637278
 30
0.0
  0
SPLINE
  5
3c6
100
AcDbEntity
  8
0
 62
7
100
AcDbSpline
 70
8
 71
3
 72
8
 73
4
 74
0
 40
0
 40
0
 40
0
 40
0
 40
1
 40
1
 40
1
 40
1
 10
1270.176678
 20
105.637278
 30
0.0
 10
1268.948102
 20
102.671235
 30
0.0
 10
1269.627202
 20
99.257171
 30
0.0
 10
1271.897313
 20
96.987060
 30
0.0
  0
SPLINE
  5
3c7
100
AcDbEntity
  8
0
 62
7
100
AcDbSpline
 70
8
 71
3
 72
8
 73
4
 74
0
 40
0
 40
0
 40
0
 40
0
 40
1
 40
1
 40
1
 40
1
 10
1271.897313
 20
96.987060
 30
0.0
 10
1274.167424
 20
94.716949
 30
0.0
 10
1277.581488
 20
94.037849
 30
0.0
 10
1280.547531
 20
95.266425
 30
0.0
  0
SPLINE
  5
3c8
100
AcDbEntity
  8
0
 62
7
100
AcDbSpline
 70
8
 71
3
 72
8
 73
4
 74
0
 40
0
 40
0
 40
0
 40
0
 40
1
 40
1
 40
1
 40
1
 10
1280.547531
 20
95.266425
 30
0.0
 10
1283.513574
 20
96.495000
 30
0.0
 10
1285.447486
 20
99.389303
 30
0.0
 10
1285.447486
 20
102.599725
 30
0.0
  0
SPLINE
  5
3c9
100
AcDbEntity
  8
0
 62
7
100
AcDbSpline
 70
8
 71
3
 72
8
 73
4
 74
0
 40
0
 40
0
 40
0
 40
0
 40
1
 40
1
 40
1
 40
1
 10
1285.447486
 20
102.599725
 30
0.0
 10
1285.447486
 20
106.983490
 30
0.0
 10
1281.893743
 20
110.537233
 30
0.0
 10
1277.509978
 20
110.537233
 30
0.0
  0
LWPOLYLINE
  5
3ca
100
AcDbEntity
  8
0
 62
7
100
AcDbPolyline
 90
1
 70
1
 10
1313.603716
 20
70.347674
 30
0.0
  0
SPLINE
  5
3cb
100
AcDbEntity
  8
0
 62
7
100
AcDbSpline
 70
8
 71
3
 72
8
 73
4
 74
0
 40
0
 40
0
 40
0
 40
0
 40
1
 40
1
 40
1
 40
1
 10
1243.884990
 20
152.368479
 30
0.0
 10
1240.674568
 20
152.368479
 30
0.0
 10
1237.780264
 20
150.434567
 30
0.0
 10
1236.551689
 20
147.468524
 30
0.0
  0
SPLINE
  5
3cc
100
AcDbEntity
  8
0
 62
7
100
AcDbSpline
 70
8
 71
3
 72
8
 73
4
 74
0
 40
0
 40
0
 40
0
 40
0
 40
1
 40
1
 40
1
 40
1
 10
1236.551689
 20
147.468524
 30
0.0
 10
1235.323114
 20
144.502481
 30
0.0
 10
1236.002213
 20
141.088417
 30
0.0
 10
1238.272324
 20
138.818306
 30
0.0
  0
SPLINE
  5
3cd
100
AcDbEntity
  8
0
 62
7
100
AcDbSpline
 70
8
 71
3
 72
8
 73
4
 74
0
 40
0
 40
0
 40
0
 40
0
 40
1
 40
1
 40
1
 40
1
 10
1238.272324
 20
138.818306
 30
0.0
 10
1240.542436
 20
136.548195
 30
0.0
 10
1243.956499
 20
135.869095
 30
0.0
 10
1246.922542
 20
137.097671
 30
0.0
  0
SPLINE
  5
3ce
100
AcDbEntity
  8
0
 62
7
100
AcDbSpline
 70
8
 71
3
 72
8
 73
4
 74
0
 40
0
 40
0
 40
0
 40
0
 40
1
 40
1
 40
1
 40
1
 10
1246.922542
 20
137.097671
 30
0.0
 10
1249.888586
 20
138.326246
 30
0.0
 10
1251.822497
 20
141.220549
 30
0.0
 10
1251.822497
 20
144.430971
 30
0.0
  0
SPLINE
  5
3cf
100
AcDbEntity
  8
0
 62
7
100
AcDbSpline
 70
8
 71
3
 72
8
 73
4
 74
0
 40
0
 40
0
 40
0
 40
0
 40
1
 40
1
 40
1
 40
1
 10
1251.822497
 20
144.430971
 30
0.0
 10
1251.822497
 20
146.536129
 30
0.0
 10
1250.986227
 20
148.555065
 30
0.0
 10
1249.497655
 20
150.043637
 30
0.0
  0
SPLINE
  5
3d0
100
AcDbEntity
  8
0
 62
7
100
AcDbSpline
 70
8
 71
3
 72
8
 73
4
 74
0
 40
0
 40
0
 40
0
 40
0
 40
1
 40
1
 40
1
 40
1
 10
1249.497655
 20
150.043637
 30
0.0
 10
1248.009084
 20
151.532208
 30
0.0
 10
1245.990148
 20
152.368479
 30
0.0
 10
1243.884990
 20
152.368479
 30
0.0
  0
LWPOLYLINE
  5
3d1
100
AcDbEntity
  8
0
 62
7
100
AcDbPolyline
 90
1
 70
1
 10
1277.509978
 20
110.537233
 30
0.0
  0
SPLINE
  5
3d2
100
AcDbEntity
  8
0
 62
7
100
AcDbSpline
 70
8
 71
3
 72
8
 73
4
 74
0
 40
0
 40
0
 40
0
 40
0
 40
1
 40
1
 40
1
 40
1
 10
1215.999583
 20
195.019506
 30
0.0
 10
1212.789161
 20
195.019506
 30
0.0
 10
1209.894857
 20
193.085594
 30
0.0
 10
1208.666282
 20
190.119551
 30
0.0
  0
SPLINE
  5
3d3
100
AcDbEntity
  8
0
 62
7
100
AcDbSpline
 70
8
 71
3
 72
8
 73
4
 74
0
 40
0
 40
0
 40
0
 40
0
 40
1
 40
1
 40
1
 40
1
 10
1208.666282
 20
190.119551
 30
0.0
 10
1207.437707
 20
187.153508
 30
0.0
 10
1208.116806
 20
183.739444
 30
0.0
 10
1210.386917
 20
181.469333
 30
0.0
  0
SPLINE
  5
3d4
100
AcDbEntity
  8
0
 62
7
100
AcDbSpline
 70
8
 71
3
 72
8
 73
4
 74
0
 40
0
 40
0
 40
0
 40
0
 40
1
 40
1
 40
1
 40
1
 10
1210.386917
 20
181.469333
 30
0.0
 10
1212.657029
 20
179.199222
 30
0.0
 10
1216.071092
 20
178.520122
 30
0.0
 10
1219.037135
 20
179.748698
 30
0.0
  0
SPLINE
  5
3d5
100
AcDbEntity
  8
0
 62
7
100
AcDbSpline
 70
8
 71
3
 72
8
 73
4
 74
0
 40
0
 40
0
 40
0
 40
0
 40
1
 40
1
 40
1
 40
1
 10
1219.037135
 20
179.748698
 30
0.0
 10
1222.003179
 20
180.977273
 30
0.0
 10
1223.937090
 20
183.871576
 30
0.0
 10
1223.937090
 20
187.081998
 30
0.0
  0
SPLINE
  5
3d6
100
AcDbEntity
  8
0
 62
7
100
AcDbSpline
 70
8
 71
3
 72
8
 73
4
 74
0
 40
0
 40
0
 40
0
 40
0
 40
1
 40
1
 40
1
 40
1
 10
1223.937090
 20
187.081998
 30
0.0
 10
1223.937090
 20
189.187156
 30
0.0
 10
1223.100819
 20
191.206092
 30
0.0
 10
1221.612248
 20
192.694664
 30
0.0
  0
SPLINE
  5
3d7
100
AcDbEntity
  8
0
 62
7
100
AcDbSpline
 70
8
 71
3
 72
8
 73
4
 74
0
 40
0
 40
0
 40
0
 40
0
 40
1
 40
1
 40
1
 40
1
 10
1221.612248
 20
192.694664
 30
0.0
 10
1220.123677
 20
194.183235
 30
0.0
 10
1218.104741
 20
195.019506
 30
0.0
 10
1215.999583
 20
195.019506
 30
0.0
  0
LWPOLYLINE
  5
3d8
100
AcDbEntity
  8
0
 62
7
100
AcDbPolyline
 90
1
 70
1
 10
1243.884990
 20
152.368479
 30
0.0
  0
SPLINE
  5
3d9
100
AcDbEntity
  8
0
 62
7
100
AcDbSpline
 70
8
 71
3
 72
8
 73
4
 74
0
 40
0
 40
0
 40
0
 40
0
 40
1
 40
1
 40
1
 40
1
 10
126.063498
 20
183.905211
 30
0.0
 10
117.625469
 20
183.905211
 30
0.0
 10
110.785094
 20
177.064836
 30
0.0
 10
110.785094
 20
168.626807
 30
0.0
  0
SPLINE
  5
3da
100
AcDbEntity
  8
0
 62
7
100
AcDbSpline
 70
8
 71
3
 72
8
 73
4
 74
0
 40
0
 40
0
 40
0
 40
0
 40
1
 40
1
 40
1
 40
1
 10
110.785094
 20
168.626807
 30
0.0
 10
110.785094
 20
160.188777
 30
0.0
 10
117.625469
 20
153.348403
 30
0.0
 10
126.063498
 20
153.348403
 30
0.0
  0
SPLINE
  5
3db
100
AcDbEntity
  8
0
 62
7
100
AcDbSpline
 70
8
 71
3
 72
8
 73
4
 74
0
 40
0
 40
0
 40
0
 40
0
 40
1
 40
1
 40
1
 40
1
 10
126.063498
 20
153.348403
 30
0.0
 10
134.501528
 20
153.348403
 30
0.0
 10
141.341903
 20
160.188777
 30
0.0
 10
141.341903
 20
168.626807
 30
0.0
  0
SPLINE
  5
3dc
100
AcDbEntity
  8
0
 62
7
100
AcDbSpline
 70
8
 71
3
 72
8
 73
4
 74
0
 40
0
 40
0
 40
0
 40
0
 40
1
 40
1
 40
1
 40
1
 10
141.341903
 20
168.626807
 30
0.0
 10
141.341903
 20
172.678891
 30
0.0
 10
139.732218
 20
176.565013
 30
0.0
 10
136.866962
 20
179.430270
 30
0.0
  0
SPLINE
  5
3dd
100
AcDbEntity
  8
0
 62
7
100
AcDbSpline
 70
8
 71
3
 72
8
 73
4
 74
0
 40
0
 40
0
 40
0
 40
0
 40
1
 40
1
 40
1
 40
1
 10
136.866962
 20
179.430270
 30
0.0
 10
134.001705
 20
182.295526
 30
0.0
 10
130.115583
 20
183.905211
 30
0.0
 10
126.063498
 20
183.905211
 30
0.0
  0
LWPOLYLINE
  5
3de
100
AcDbEntity
  8
0
 62
7
100
AcDbPolyline
 90
1
 70
1
 10
1215.999583
 20
195.019506
 30
0.0
  0
SPLINE
  5
3df
100
AcDbEntity
  8
0
 62
7
100
AcDbSpline
 70
8
 71
3
 72
8
 73
4
 74
0
 40
0
 40
0
 40
0
 40
0
 40
1
 40
1
 40
1
 40
1
 10
441.843598
 20
179.804129
 30
0.0
 10
435.664061
 20
179.804129
 30
0.0
 10
430.093000
 20
176.081665
 30
0.0
 10
427.728194
 20
170.372517
 30
0.0
  0
SPLINE
  5
3e0
100
AcDbEntity
  8
0
 62
7
100
AcDbSpline
 70
8
 71
3
 72
8
 73
4
 74
0
 40
0
 40
0
 40
0
 40
0
 40
1
 40
1
 40
1
 40
1
 10
427.728194
 20
170.372517
 30
0.0
 10
425.363387
 20
164.663369
 30
0.0
 10
426.670542
 20
158.091855
 30
0.0
 10
431.040135
 20
153.722262
 30
0.0
  0
SPLINE
  5
3e1
100
AcDbEntity
  8
0
 62
7
100
AcDbSpline
 70
8
 71
3
 72
8
 73
4
 74
0
 40
0
 40
0
 40
0
 40
0
 40
1
 40
1
 40
1
 40
1
 10
431.040135
 20
153.722262
 30
0.0
 10
435.409728
 20
149.352669
 30
0.0
 10
441.981242
 20
148.045513
 30
0.0
 10
447.690391
 20
150.410320
 30
0.0
  0
SPLINE
  5
3e2
100
AcDbEntity
  8
0
 62
7
100
AcDbSpline
 70
8
 71
3
 72
8
 73
4
 74
0
 40
0
 40
0
 40
0
 40
0
 40
1
 40
1
 40
1
 40
1
 10
447.690391
 20
150.410320
 30
0.0
 10
453.399539
 20
152.775127
 30
0.0
 10
457.122002
 20
158.346187
 30
0.0
 10
457.122002
 20
164.525725
 30
0.0
  0
SPLINE
  5
3e3
100
AcDbEntity
  8
0
 62
7
100
AcDbSpline
 70
8
 71
3
 72
8
 73
4
 74
0
 40
0
 40
0
 40
0
 40
0
 40
1
 40
1
 40
1
 40
1
 10
457.122002
 20
164.525725
 30
0.0
 10
457.122002
 20
168.577810
 30
0.0
 10
455.512318
 20
172.463931
 30
0.0
 10
452.647062
 20
175.329188
 30
0.0
  0
SPLINE
  5
3e4
100
AcDbEntity
  8
0
 62
7
100
AcDbSpline
 70
8
 71
3
 72
8
 73
4
 74
0
 40
0
 40
0
 40
0
 40
0
 40
1
 40
1
 40
1
 40
1
 10
452.647062
 20
175.329188
 30
0.0
 10
449.781805
 20
178.194445
 30
0.0
 10
445.895683
 20
179.804129
 30
0.0
 10
441.843598
 20
179.804129
 30
0.0
  0
LWPOLYLINE
  5
3e5
100
AcDbEntity
  8
0
 62
7
100
AcDbPolyline
 90
1
 70
1
 10
126.063498
 20
183.905211
 30
0.0
  0
LWPOLYLINE
  5
3e6
100
AcDbEntity
  8
0
 62
7
100
AcDbPolyline
 90
1
 70
1
 10
441.843598
 20
179.804129
 30
0.0
  0
LWPOLYLINE
  5
3e7
100
AcDbEntity
  8
0
 62
7
100
AcDbPolyline
 90
2
 70
0
 10
5.864581
 20
698.031813
 30
0.0
 10
1588.155705
 20
698.031813
 30
0.0
  0
LWPOLYLINE
  5
3e8
100
AcDbEntity
  8
0
 62
7
100
AcDbPolyline
 90
2
 70
0
 10
5.864581
 20
685.531817
 30
0.0
 10
5.864581
 20
698.031813
 30
0.0
  0
LWPOLYLINE
  5
3e9
100
AcDbEntity
  8
0
 62
7
100
AcDbPolyline
 90
2
 70
0
 10
1588.082788
 20
625.083921
 30
0.0
 10
1588.155705
 20
698.031813
 30
0.0
  0
LWPOLYLINE
  5
3ea
100
AcDbEntity
  8
0
 62
7
100
AcDbPolyline
 90
2
 70
0
 10
5.895831
 20
625.083921
 30
0.0
 10
5.864581
 20
685.531817
 30
0.0
  0
LWPOLYLINE
  5
3eb
100
AcDbEntity
  8
0
 62
7
100
AcDbPolyline
 90
2
 70
0
 10
1588.082788
 20
0.084135
 30
0.0
 10
1588.082788
 20
625.083921
 30
0.0
  0
LWPOLYLINE
  5
3ec
100
AcDbEntity
  8
0
 62
7
100
AcDbPolyline
 90
2
 70
0
 10
1255.895402
 20
0.084135
 30
0.0
 10
1588.082788
 20
0.084135
 30
0.0
  0
LWPOLYLINE
  5
3ed
100
AcDbEntity
  8
0
 62
7
100
AcDbPolyline
 90
2
 70
0
 10
5.895831
 20
0.084135
 30
0.0
 10
1255.895402
 20
0.084135
 30
0.0
  0
SPLINE
  5
3ee
100
AcDbEntity
  8
0
 62
7
100
AcDbSpline
 70
8
 71
3
 72
8
 73
4
 74
0
 40
0
 40
0
 40
0
 40
0
 40
1
 40
1
 40
1
 40
1
 10
574.650886
 20
220.013672
 30
0.0
 10
568.921761
 20
220.013672
 30
0.0
 10
563.756763
 20
216.562531
 30
0.0
 10
561.564322
 20
211.269510
 30
0.0
  0
SPLINE
  5
3ef
100
AcDbEntity
  8
0
 62
7
100
AcDbSpline
 70
8
 71
3
 72
8
 73
4
 74
0
 40
0
 40
0
 40
0
 40
0
 40
1
 40
1
 40
1
 40
1
 10
561.564322
 20
211.269510
 30
0.0
 10
559.371881
 20
205.976489
 30
0.0
 10
560.583760
 20
199.883958
 30
0.0
 10
564.634863
 20
195.832855
 30
0.0
  0
SPLINE
  5
3f0
100
AcDbEntity
  8
0
 62
7
100
AcDbSpline
 70
8
 71
3
 72
8
 73
4
 74
0
 40
0
 40
0
 40
0
 40
0
 40
1
 40
1
 40
1
 40
1
 10
564.634863
 20
195.832855
 30
0.0
 10
568.685966
 20
191.781752
 30
0.0
 10
574.778497
 20
190.569872
 30
0.0
 10
580.071519
 20
192.762313
 30
0.0
  0
SPLINE
  5
3f1
100
AcDbEntity
  8
0
 62
7
100
AcDbSpline
 70
8
 71
3
 72
8
 73
4
 74
0
 40
0
 40
0
 40
0
 40
0
 40
1
 40
1
 40
1
 40
1
 10
580.071519
 20
192.762313
 30
0.0
 10
585.364540
 20
194.954754
 30
0.0
 10
588.815681
 20
200.119752
 30
0.0
 10
588.815681
 20
205.848877
 30
0.0
  0
SPLINE
  5
3f2
100
AcDbEntity
  8
0
 62
7
100
AcDbSpline
 70
8
 71
3
 72
8
 73
4
 74
0
 40
0
 40
0
 40
0
 40
0
 40
1
 40
1
 40
1
 40
1
 10
588.815681
 20
205.848877
 30
0.0
 10
588.815681
 20
209.605615
 30
0.0
 10
587.323323
 20
213.208486
 30
0.0
 10
584.666909
 20
215.864900
 30
0.0
  0
SPLINE
  5
3f3
100
AcDbEntity
  8
0
 62
7
100
AcDbSpline
 70
8
 71
3
 72
8
 73
4
 74
0
 40
0
 40
0
 40
0
 40
0
 40
1
 40
1
 40
1
 40
1
 10
584.666909
 20
215.864900
 30
0.0
 10
582.010494
 20
218.521314
 30
0.0
 10
578.407623
 20
220.013672
 30
0.0
 10
574.650886
 20
220.013672
 30
0.0
  0
LWPOLYLINE
  5
3f4
100
AcDbEntity
  8
0
 62
7
100
AcDbPolyline
 90
2
 70
0
 10
5.895831
 20
625.083921
 30
0.0
 10
5.895831
 20
0.084135
 30
0.0
  0
SPLINE
  5
3f5
100
AcDbEntity
  8
0
 62
7
100
AcDbSpline
 70
8
 71
3
 72
8
 73
4
 74
0
 40
0
 40
0
 40
0
 40
0
 40
1
 40
1
 40
1
 40
1
 10
1565.908004
 20
318.511930
 30
0.0
 10
1560.178879
 20
318.511930
 30
0.0
 10
1555.013881
 20
315.060789
 30
0.0
 10
1552.821440
 20
309.767768
 30
0.0
  0
SPLINE
  5
3f6
100
AcDbEntity
  8
0
 62
7
100
AcDbSpline
 70
8
 71
3
 72
8
 73
4
 74
0
 40
0
 40
0
 40
0
 40
0
 40
1
 40
1
 40
1
 40
1
 10
1552.821440
 20
309.767768
 30
0.0
 10
1550.628999
 20
304.474746
 30
0.0
 10
1551.840879
 20
298.382215
 30
0.0
 10
1555.891982
 20
294.331112
 30
0.0
  0
SPLINE
  5
3f7
100
AcDbEntity
  8
0
 62
7
100
AcDbSpline
 70
8
 71
3
 72
8
 73
4
 74
0
 40
0
 40
0
 40
0
 40
0
 40
1
 40
1
 40
1
 40
1
 10
1555.891982
 20
294.331112
 30
0.0
 10
1559.943085
 20
290.280009
 30
0.0
 10
1566.035616
 20
289.068130
 30
0.0
 10
1571.328637
 20
291.260571
 30
0.0
  0
SPLINE
  5
3f8
100
AcDbEntity
  8
0
 62
7
100
AcDbSpline
 70
8
 71
3
 72
8
 73
4
 74
0
 40
0
 40
0
 40
0
 40
0
 40
1
 40
1
 40
1
 40
1
 10
1571.328637
 20
291.260571
 30
0.0
 10
1576.621658
 20
293.453012
 30
0.0
 10
1580.072799
 20
298.618010
 30
0.0
 10
1580.072799
 20
304.347135
 30
0.0
  0
SPLINE
  5
3f9
100
AcDbEntity
  8
0
 62
7
100
AcDbSpline
 70
8
 71
3
 72
8
 73
4
 74
0
 40
0
 40
0
 40
0
 40
0
 40
1
 40
1
 40
1
 40
1
 10
1580.072799
 20
304.347135
 30
0.0
 10
1580.072799
 20
308.103872
 30
0.0
 10
1578.580441
 20
311.706743
 30
0.0
 10
1575.924027
 20
314.363158
 30
0.0
  0
SPLINE
  5
3fa
100
AcDbEntity
  8
0
 62
7
100
AcDbSpline
 70
8
 71
3
 72
8
 73
4
 74
0
 40
0
 40
0
 40
0
 40
0
 40
1
 40
1
 40
1
 40
1
 10
1575.924027
 20
314.363158
 30
0.0
 10
1573.267613
 20
317.019572
 30
0.0
 10
1569.664742
 20
318.511930
 30
0.0
 10
1565.908004
 20
318.511930
 30
0.0
  0
LWPOLYLINE
  5
3fb
100
AcDbEntity
  8
0
 62
7
100
AcDbPolyline
 90
1
 70
1
 10
574.650886
 20
220.013672
 30
0.0
  0
LWPOLYLINE
  5
3fc
100
AcDbEntity
  8
0
 62
7
100
AcDbPolyline
 90
1
 70
1
 10
1565.908004
 20
318.511930
 30
0.0
  0
LWPOLYLINE
  5
3fd
100
AcDbEntity
  8
0
 62
7
100
AcDbPolyline
 90
2
 70
0
 10
197.083380
 20
135.618453
 30
0.0
 10
197.083380
 20
298.684929
 30
0.0
  0
LWPOLYLINE
  5
3fe
100
AcDbEntity
  8
0
 62
7
100
AcDbPolyline
 90
2
 70
0
 10
367.892020
 20
135.618453
 30
0.0
 10
197.083380
 20
135.618453
 30
0.0
  0
LWPOLYLINE
  5
3ff
100
AcDbEntity
  8
0
 62
7
100
AcDbPolyline
 90
2
 70
0
 10
367.892020
 20
298.684929
 30
0.0
 10
367.892020
 20
135.618453
 30
0.0
  0
LWPOLYLINE
  5
400
100
AcDbEntity
  8
0
 62
7
100
AcDbPolyline
 90
2
 70
0
 10
197.083380
 20
298.684929
 30
0.0
 10
367.892020
 20
298.684929
 30
0.0
  0
ENDSEC
  0
SECTION
  2
OBJECTS
  0
DICTIONARY
  5
C
330
0
100
AcDbDictionary
  3
ACAD_GROUP
350
D
  3
ACAD_MLINESTYLE
350
17
  0
DICTIONARY
  5
D
330
C
100
AcDbDictionary
  0
DICTIONARY
  5
1A
330
C
100
AcDbDictionary
  0
DICTIONARY
  5
17
330
C
100
AcDbDictionary
  3
STANDARD
350
18
  0
DICTIONARY
  5
19
330
C
100
AcDbDictionary
  0
ENDSEC
  0
EOF
