  0
SECTION
  2
HEADER
  9
$ACADVER
  1
AC1014
  9
$HANDSEED
  5
FFFF
  9
$MEASUREMENT
 70
     1
  0
ENDSEC
  0
SECTION
  2
TABLES
  0
TABLE
  2
VPORT
  5
8
330
0
100
AcDbSymbolTable
 70
     4
  0
VPORT
  5
2E
330
8
100
AcDbSymbolTableRecord
100
AcDbViewportTableRecord
  2
*ACTIVE
 70
     0
 10
0.0
 20
0.0
 11
1.0
 21
1.0
 12
210.0
 22
148.5
 13
0.0
 23
0.0
 14
10.0
 24
10.0
 15
10.0
 25
10.0
 16
0.0
 26
0.0
 36
1.0
 17
0.0
 27
0.0
 37
0.0
 40
341.0
 41
1.24
 42
50.0
 43
0.0
 44
0.0
 50
0.0
 51
0.0
 71
     0
 72
   100
 73
     1
 74
     3
 75
     0
 76
     0
 77
     0
 78
     0
  0
ENDTAB
  0
TABLE
  2
LTYPE
  5
5
330
0
100
AcDbSymbolTable
 70
     1
  0
LTYPE
  5
14
330
5
100
AcDbSymbolTableRecord
100
AcDbLinetypeTableRecord
  2
BYBLOCK
 70
     0
  3

 72
    65
 73
     0
 40
0.0
  0
LTYPE
  5
15
330
5
100
AcDbSymbolTableRecord
100
AcDbLinetypeTableRecord
  2
BYLAYER
 70
     0
  3

 72
    65
 73
     0
 40
0.0
  0
LTYPE
  5
16
330
5
100
AcDbSymbolTableRecord
100
AcDbLinetypeTableRecord
  2
CONTINUOUS
 70
     0
  3
Solid line
 72
    65
 73
     0
 40
0.0
  0
ENDTAB
  0
TABLE
  2
LAYER
  5
2
100
AcDbSymbolTable
 70
1
  0
LAYER
  5
50
100
AcDbSymbolTableRecord
100
AcDbLayerTableRecord
  2
0
 70
0
  6
CONTINUOUS
  0
ENDTAB
  0
TABLE
  2
STYLE
  5
3
330
0
100
AcDbSymbolTable
 70
     1
  0
STYLE
  5
11
330
3
100
AcDbSymbolTableRecord
100
AcDbTextStyleTableRecord
  2
STANDARD
 70
     0
 40
0.0
 41
1.0
 50
0.0
 71
     0
 42
2.5
  3
txt
  4

  0
ENDTAB
  0
TABLE
  2
VIEW
  5
6
330
0
100
AcDbSymbolTable
 70
     0
  0
ENDTAB
  0
TABLE
  2
UCS
  5
7
330
0
100
AcDbSymbolTable
 70
     0
  0
ENDTAB
  0
TABLE
  2
APPID
  5
9
330
0
100
AcDbSymbolTable
 70
     2
  0
APPID
  5
12
330
9
100
AcDbSymbolTableRecord
100
AcDbRegAppTableRecord
  2
ACAD
 70
     0
  0
ENDTAB
  0
TABLE
  2
DIMSTYLE
  5
A
330
0
100
AcDbSymbolTable
 70
     1
  0
DIMSTYLE
105
27
330
A
100
AcDbSymbolTableRecord
100
AcDbDimStyleTableRecord
  2
ISO-25
 70
     0
  3

  4

  5

  6

  7

 40
1.0
 41
2.5
 42
0.625
 43
3.75
 44
1.25
 45
0.0
 46
0.0
 47
0.0
 48
0.0
140
2.5
141
2.5
142
0.0
143
0.03937007874016
144
1.0
145
0.0
146
1.0
147
0.625
 71
     0
 72
     0
 73
     0
 74
     0
 75
     0
 76
     0
 77
     1
 78
     8
170
     0
171
     3
172
     1
173
     0
174
     0
175
     0
176
     0
177
     0
178
     0
270
     2
271
     2
272
     2
273
     2
274
     3
340
11
275
     0
280
     0
281
     0
282
     0
283
     0
284
     8
285
     0
286
     0
287
     3
288
     0
  0
ENDTAB
  0
TABLE
  2
BLOCK_RECORD
  5
1
330
0
100
AcDbSymbolTable
 70
     1
  0
BLOCK_RECORD
  5
1F
330
1
100
AcDbSymbolTableRecord
100
AcDbBlockTableRecord
  2
*MODEL_SPACE
  0
BLOCK_RECORD
  5
1B
330
1
100
AcDbSymbolTableRecord
100
AcDbBlockTableRecord
  2
*PAPER_SPACE
  0
ENDTAB
  0
ENDSEC
  0
SECTION
  2
BLOCKS
  0
BLOCK
  5
20
330
1F
100
AcDbEntity
  8
0
100
AcDbBlockBegin
  2
*MODEL_SPACE
 70
     0
 10
0.0
 20
0.0
 30
0.0
  3
*MODEL_SPACE
  1

  0
ENDBLK
  5
21
330
1F
100
AcDbEntity
  8
0
100
AcDbBlockEnd
  0
BLOCK
  5
1C
330
1B
100
AcDbEntity
 67
     1
  8
0
100
AcDbBlockBegin
  2
*PAPER_SPACE
  1

  0
ENDBLK
  5
1D
330
1B
100
AcDbEntity
 67
     1
  8
0
100
AcDbBlockEnd
  0
ENDSEC
  0
SECTION
  2
ENTITIES
  0
LWPOLYLINE
  5
100
100
AcDbEntity
  8
0
 62
7
100
AcDbPolyline
 90
2
 70
0
 10
3274.746891
 20
7835.389280
 30
0.0
 10
3274.746891
 20
8877.053537
 30
0.0
  0
LWPOLYLINE
  5
101
100
AcDbEntity
  8
0
 62
7
100
AcDbPolyline
 90
2
 70
0
 10
4316.411148
 20
7835.389280
 30
0.0
 10
3274.746891
 20
7835.389280
 30
0.0
  0
LWPOLYLINE
  5
102
100
AcDbEntity
  8
0
 62
7
100
AcDbPolyline
 90
2
 70
0
 10
4316.411148
 20
8877.053537
 30
0.0
 10
4316.411148
 20
7835.389280
 30
0.0
  0
LWPOLYLINE
  5
103
100
AcDbEntity
  8
0
 62
7
100
AcDbPolyline
 90
2
 70
0
 10
10670.642490
 20
335.247880
 30
0.0
 10
10670.642490
 20
1376.912137
 30
0.0
  0
LWPOLYLINE
  5
104
100
AcDbEntity
  8
0
 62
7
100
AcDbPolyline
 90
2
 70
0
 10
11712.306747
 20
1376.912137
 30
0.0
 10
11712.306747
 20
335.247880
 30
0.0
  0
LWPOLYLINE
  5
105
100
AcDbEntity
  8
0
 62
7
100
AcDbPolyline
 90
2
 70
0
 10
36128.842846
 20
7585.358109
 30
0.0
 10
36649.807266
 20
7585.358109
 30
0.0
  0
LWPOLYLINE
  5
106
100
AcDbEntity
  8
0
 62
7
100
AcDbPolyline
 90
2
 70
0
 10
36128.842846
 20
6543.693852
 30
0.0
 10
36128.842846
 20
7585.358109
 30
0.0
  0
LWPOLYLINE
  5
107
100
AcDbEntity
  8
0
 62
7
100
AcDbPolyline
 90
2
 70
0
 10
37170.507103
 20
6543.693852
 30
0.0
 10
36128.842846
 20
6543.693852
 30
0.0
  0
LWPOLYLINE
  5
108
100
AcDbEntity
  8
0
 62
7
100
AcDbPolyline
 90
2
 70
0
 10
37170.507103
 20
7585.358109
 30
0.0
 10
37170.507103
 20
6543.693852
 30
0.0
  0
LWPOLYLINE
  5
109
100
AcDbEntity
  8
0
 62
7
100
AcDbPolyline
 90
2
 70
0
 10
36649.807266
 20
7585.358109
 30
0.0
 10
37170.507103
 20
7585.358109
 30
0.0
  0
LWPOLYLINE
  5
10a
100
AcDbEntity
  8
0
 62
7
100
AcDbPolyline
 90
2
 70
0
 10
38878.921151
 20
4293.677890
 30
0.0
 10
38878.921151
 20
5335.342147
 30
0.0
  0
LWPOLYLINE
  5
10b
100
AcDbEntity
  8
0
 62
7
100
AcDbPolyline
 90
2
 70
0
 10
39920.585408
 20
4293.677890
 30
0.0
 10
38878.921151
 20
4293.677890
 30
0.0
  0
LWPOLYLINE
  5
10c
100
AcDbEntity
  8
0
 62
7
100
AcDbPolyline
 90
2
 70
0
 10
39920.585408
 20
5335.342147
 30
0.0
 10
39920.585408
 20
4293.677890
 30
0.0
  0
LWPOLYLINE
  5
10d
100
AcDbEntity
  8
0
 62
7
100
AcDbPolyline
 90
2
 70
0
 10
649.816463
 20
4126.990442
 30
0.0
 10
649.816463
 20
5168.654699
 30
0.0
  0
LWPOLYLINE
  5
10e
100
AcDbEntity
  8
0
 62
7
100
AcDbPolyline
 90
2
 70
0
 10
1691.480720
 20
4126.990442
 30
0.0
 10
649.816463
 20
4126.990442
 30
0.0
  0
LWPOLYLINE
  5
10f
100
AcDbEntity
  8
0
 62
7
100
AcDbPolyline
 90
2
 70
0
 10
1691.480720
 20
5168.654699
 30
0.0
 10
1691.480720
 20
4126.990442
 30
0.0
  0
LWPOLYLINE
  5
110
100
AcDbEntity
  8
0
 62
7
100
AcDbPolyline
 90
2
 70
0
 10
12212.369090
 20
5564.471242
 30
0.0
 10
12212.369090
 20
6606.135499
 30
0.0
  0
LWPOLYLINE
  5
111
100
AcDbEntity
  8
0
 62
7
100
AcDbPolyline
 90
2
 70
0
 10
13254.033347
 20
5564.471242
 30
0.0
 10
12212.369090
 20
5564.471242
 30
0.0
  0
LWPOLYLINE
  5
112
100
AcDbEntity
  8
0
 62
7
100
AcDbPolyline
 90
2
 70
0
 10
13254.033347
 20
6606.135499
 30
0.0
 10
13254.033347
 20
5564.471242
 30
0.0
  0
LWPOLYLINE
  5
113
100
AcDbEntity
  8
0
 62
7
100
AcDbPolyline
 90
2
 70
0
 10
33920.631038
 20
1210.224690
 30
0.0
 10
34441.330875
 20
1210.224690
 30
0.0
  0
LWPOLYLINE
  5
114
100
AcDbEntity
  8
0
 62
7
100
AcDbPolyline
 90
2
 70
0
 10
33920.631038
 20
168.560433
 30
0.0
 10
33920.631038
 20
1210.224690
 30
0.0
  0
LWPOLYLINE
  5
115
100
AcDbEntity
  8
0
 62
7
100
AcDbPolyline
 90
2
 70
0
 10
34962.295295
 20
168.560433
 30
0.0
 10
33920.631038
 20
168.560433
 30
0.0
  0
LWPOLYLINE
  5
116
100
AcDbEntity
  8
0
 62
7
100
AcDbPolyline
 90
2
 70
0
 10
34962.295295
 20
1210.224690
 30
0.0
 10
34962.295295
 20
168.560433
 30
0.0
  0
LWPOLYLINE
  5
117
100
AcDbEntity
  8
0
 62
7
100
AcDbPolyline
 90
2
 70
0
 10
34441.330875
 20
1210.224690
 30
0.0
 10
34962.295295
 20
1210.224690
 30
0.0
  0
LWPOLYLINE
  5
118
100
AcDbEntity
  8
0
 62
7
100
AcDbPolyline
 90
2
 70
0
 10
29753.974010
 20
5356.244224
 30
0.0
 10
29753.974010
 20
6397.908481
 30
0.0
  0
LWPOLYLINE
  5
119
100
AcDbEntity
  8
0
 62
7
100
AcDbPolyline
 90
2
 70
0
 10
30795.638267
 20
5356.244224
 30
0.0
 10
29753.974010
 20
5356.244224
 30
0.0
  0
LWPOLYLINE
  5
11a
100
AcDbEntity
  8
0
 62
7
100
AcDbPolyline
 90
2
 70
0
 10
9316.505414
 20
335.247880
 30
0.0
 10
9316.505414
 20
1376.912137
 30
0.0
  0
LWPOLYLINE
  5
11b
100
AcDbEntity
  8
0
 62
7
100
AcDbPolyline
 90
2
 70
0
 10
10358.169671
 20
1376.912137
 30
0.0
 10
10358.169671
 20
335.247880
 30
0.0
  0
LWPOLYLINE
  5
11c
100
AcDbEntity
  8
0
 62
7
100
AcDbPolyline
 90
2
 70
0
 10
7962.368338
 20
335.247880
 30
0.0
 10
7962.368338
 20
1376.912137
 30
0.0
  0
LWPOLYLINE
  5
11d
100
AcDbEntity
  8
0
 62
7
100
AcDbPolyline
 90
2
 70
0
 10
9004.032595
 20
1376.912137
 30
0.0
 10
9004.032595
 20
335.247880
 30
0.0
  0
LWPOLYLINE
  5
11e
100
AcDbEntity
  8
0
 62
7
100
AcDbPolyline
 90
2
 70
0
 10
6608.231263
 20
335.247880
 30
0.0
 10
6608.231263
 20
1376.912137
 30
0.0
  0
LWPOLYLINE
  5
11f
100
AcDbEntity
  8
0
 62
7
100
AcDbPolyline
 90
2
 70
0
 10
7649.895520
 20
1376.912137
 30
0.0
 10
7649.895520
 20
335.247880
 30
0.0
  0
LWPOLYLINE
  5
120
100
AcDbEntity
  8
0
 62
7
100
AcDbPolyline
 90
2
 70
0
 10
5253.829604
 20
335.247880
 30
0.0
 10
5253.829604
 20
1376.912137
 30
0.0
  0
LWPOLYLINE
  5
121
100
AcDbEntity
  8
0
 62
7
100
AcDbPolyline
 90
2
 70
0
 10
6295.493861
 20
1376.912137
 30
0.0
 10
6295.493861
 20
335.247880
 30
0.0
  0
LWPOLYLINE
  5
122
100
AcDbEntity
  8
0
 62
7
100
AcDbPolyline
 90
2
 70
0
 10
3899.692528
 20
335.247880
 30
0.0
 10
3899.692528
 20
1376.912137
 30
0.0
  0
LWPOLYLINE
  5
123
100
AcDbEntity
  8
0
 62
7
100
AcDbPolyline
 90
2
 70
0
 10
4941.356785
 20
1376.912137
 30
0.0
 10
4941.356785
 20
335.247880
 30
0.0
  0
LWPOLYLINE
  5
124
100
AcDbEntity
  8
0
 62
7
100
AcDbPolyline
 90
2
 70
0
 10
2545.555452
 20
335.247880
 30
0.0
 10
2545.555452
 20
1376.912137
 30
0.0
  0
LWPOLYLINE
  5
125
100
AcDbEntity
  8
0
 62
7
100
AcDbPolyline
 90
2
 70
0
 10
3587.219709
 20
1376.912137
 30
0.0
 10
3587.219709
 20
335.247880
 30
0.0
  0
LWPOLYLINE
  5
126
100
AcDbEntity
  8
0
 62
7
100
AcDbPolyline
 90
2
 70
0
 10
1191.418377
 20
335.247880
 30
0.0
 10
1191.418377
 20
1376.912137
 30
0.0
  0
LWPOLYLINE
  5
127
100
AcDbEntity
  8
0
 62
7
100
AcDbPolyline
 90
2
 70
0
 10
2233.082634
 20
1376.912137
 30
0.0
 10
2233.082634
 20
335.247880
 30
0.0
  0
LWPOLYLINE
  5
128
100
AcDbEntity
  8
0
 62
7
100
AcDbPolyline
 90
2
 70
0
 10
38399.760885
 20
9564.440822
 30
0.0
 10
38920.725305
 20
9564.440822
 30
0.0
  0
LWPOLYLINE
  5
129
100
AcDbEntity
  8
0
 62
7
100
AcDbPolyline
 90
2
 70
0
 10
38399.760885
 20
8522.776565
 30
0.0
 10
38399.760885
 20
9564.440822
 30
0.0
  0
LWPOLYLINE
  5
12a
100
AcDbEntity
  8
0
 62
7
100
AcDbPolyline
 90
2
 70
0
 10
39441.425141
 20
8522.776565
 30
0.0
 10
38399.760885
 20
8522.776565
 30
0.0
  0
LWPOLYLINE
  5
12b
100
AcDbEntity
  8
0
 62
7
100
AcDbPolyline
 90
2
 70
0
 10
39441.425141
 20
9564.440822
 30
0.0
 10
39441.425141
 20
8522.776565
 30
0.0
  0
LWPOLYLINE
  5
12c
100
AcDbEntity
  8
0
 62
7
100
AcDbPolyline
 90
2
 70
0
 10
38920.725305
 20
9564.440822
 30
0.0
 10
39441.425141
 20
9564.440822
 30
0.0
  0
LWPOLYLINE
  5
12d
100
AcDbEntity
  8
0
 62
7
100
AcDbPolyline
 90
2
 70
0
 10
35109.138999
 20
11618.665178
 30
0.0
 10
35109.138999
 20
12660.329435
 30
0.0
  0
LWPOLYLINE
  5
12e
100
AcDbEntity
  8
0
 62
7
100
AcDbPolyline
 90
2
 70
0
 10
36150.803256
 20
11618.665178
 30
0.0
 10
35109.138999
 20
11618.665178
 30
0.0
  0
LWPOLYLINE
  5
12f
100
AcDbEntity
  8
0
 62
7
100
AcDbPolyline
 90
2
 70
0
 10
36150.803256
 20
12660.329435
 30
0.0
 10
36150.803256
 20
11618.665178
 30
0.0
  0
LWPOLYLINE
  5
130
100
AcDbEntity
  8
0
 62
7
100
AcDbPolyline
 90
2
 70
0
 10
12733.068927
 20
772.868577
 30
0.0
 10
12733.068927
 20
1814.532834
 30
0.0
  0
LWPOLYLINE
  5
131
100
AcDbEntity
  8
0
 62
7
100
AcDbPolyline
 90
2
 70
0
 10
13774.733184
 20
772.868577
 30
0.0
 10
12733.068927
 20
772.868577
 30
0.0
  0
LWPOLYLINE
  5
132
100
AcDbEntity
  8
0
 62
7
100
AcDbPolyline
 90
2
 70
0
 10
13774.733184
 20
1814.532834
 30
0.0
 10
13774.733184
 20
772.868577
 30
0.0
  0
LWPOLYLINE
  5
133
100
AcDbEntity
  8
0
 62
7
100
AcDbPolyline
 90
2
 70
0
 10
1524.793272
 20
5981.189861
 30
0.0
 10
1524.793272
 20
7022.854118
 30
0.0
  0
LWPOLYLINE
  5
134
100
AcDbEntity
  8
0
 62
7
100
AcDbPolyline
 90
2
 70
0
 10
2566.457529
 20
5981.189861
 30
0.0
 10
1524.793272
 20
5981.189861
 30
0.0
  0
LWPOLYLINE
  5
135
100
AcDbEntity
  8
0
 62
7
100
AcDbPolyline
 90
2
 70
0
 10
2566.457529
 20
7022.854118
 30
0.0
 10
2566.457529
 20
5981.189861
 30
0.0
  0
LWPOLYLINE
  5
136
100
AcDbEntity
  8
0
 62
7
100
AcDbPolyline
 90
2
 70
0
 10
524.668586
 20
8064.518375
 30
0.0
 10
524.668586
 20
9106.182632
 30
0.0
  0
LWPOLYLINE
  5
137
100
AcDbEntity
  8
0
 62
7
100
AcDbPolyline
 90
2
 70
0
 10
1566.332843
 20
8064.518375
 30
0.0
 10
524.668586
 20
8064.518375
 30
0.0
  0
LWPOLYLINE
  5
138
100
AcDbEntity
  8
0
 62
7
100
AcDbPolyline
 90
2
 70
0
 10
1566.332843
 20
9106.182632
 30
0.0
 10
1566.332843
 20
8064.518375
 30
0.0
  0
LWPOLYLINE
  5
139
100
AcDbEntity
  8
0
 62
7
100
AcDbPolyline
 90
2
 70
0
 10
10483.052965
 20
8022.714222
 30
0.0
 10
11004.017385
 20
8022.714222
 30
0.0
  0
LWPOLYLINE
  5
13a
100
AcDbEntity
  8
0
 62
7
100
AcDbPolyline
 90
2
 70
0
 10
10483.052965
 20
6981.049965
 30
0.0
 10
10483.052965
 20
8022.714222
 30
0.0
  0
LWPOLYLINE
  5
13b
100
AcDbEntity
  8
0
 62
7
100
AcDbPolyline
 90
2
 70
0
 10
11524.717222
 20
6981.049965
 30
0.0
 10
10483.052965
 20
6981.049965
 30
0.0
  0
LWPOLYLINE
  5
13c
100
AcDbEntity
  8
0
 62
7
100
AcDbPolyline
 90
2
 70
0
 10
11524.717222
 20
8022.714222
 30
0.0
 10
11524.717222
 20
6981.049965
 30
0.0
  0
LWPOLYLINE
  5
13d
100
AcDbEntity
  8
0
 62
7
100
AcDbPolyline
 90
2
 70
0
 10
11004.017385
 20
8022.714222
 30
0.0
 10
11524.717222
 20
8022.714222
 30
0.0
  0
LWPOLYLINE
  5
13e
100
AcDbEntity
  8
0
 62
7
100
AcDbPolyline
 90
2
 70
0
 10
12748.679339
 20
3543.584375
 30
0.0
 10
12748.679339
 20
4585.248632
 30
0.0
  0
LWPOLYLINE
  5
13f
100
AcDbEntity
  8
0
 62
7
100
AcDbPolyline
 90
2
 70
0
 10
13790.343596
 20
3543.584375
 30
0.0
 10
12748.679339
 20
3543.584375
 30
0.0
  0
LWPOLYLINE
  5
140
100
AcDbEntity
  8
0
 62
7
100
AcDbPolyline
 90
2
 70
0
 10
13790.343596
 20
4585.248632
 30
0.0
 10
13790.343596
 20
3543.584375
 30
0.0
  0
LWPOLYLINE
  5
141
100
AcDbEntity
  8
0
 62
7
100
AcDbPolyline
 90
2
 70
0
 10
10670.642490
 20
1689.384956
 30
0.0
 10
10670.642490
 20
2731.049213
 30
0.0
  0
LWPOLYLINE
  5
142
100
AcDbEntity
  8
0
 62
7
100
AcDbPolyline
 90
2
 70
0
 10
11712.306747
 20
2731.049213
 30
0.0
 10
11712.306747
 20
1689.384956
 30
0.0
  0
LWPOLYLINE
  5
143
100
AcDbEntity
  8
0
 62
7
100
AcDbPolyline
 90
2
 70
0
 10
9316.505414
 20
1689.384956
 30
0.0
 10
9316.505414
 20
2731.049213
 30
0.0
  0
LWPOLYLINE
  5
144
100
AcDbEntity
  8
0
 62
7
100
AcDbPolyline
 90
2
 70
0
 10
10358.169671
 20
2731.049213
 30
0.0
 10
10358.169671
 20
1689.384956
 30
0.0
  0
LWPOLYLINE
  5
145
100
AcDbEntity
  8
0
 62
7
100
AcDbPolyline
 90
2
 70
0
 10
7962.368338
 20
1689.384956
 30
0.0
 10
7962.368338
 20
2731.049213
 30
0.0
  0
LWPOLYLINE
  5
146
100
AcDbEntity
  8
0
 62
7
100
AcDbPolyline
 90
2
 70
0
 10
9004.032595
 20
2731.049213
 30
0.0
 10
9004.032595
 20
1689.384956
 30
0.0
  0
LWPOLYLINE
  5
147
100
AcDbEntity
  8
0
 62
7
100
AcDbPolyline
 90
2
 70
0
 10
6608.231263
 20
1689.384956
 30
0.0
 10
6608.231263
 20
2731.049213
 30
0.0
  0
LWPOLYLINE
  5
148
100
AcDbEntity
  8
0
 62
7
100
AcDbPolyline
 90
2
 70
0
 10
7649.895520
 20
2731.049213
 30
0.0
 10
7649.895520
 20
1689.384956
 30
0.0
  0
LWPOLYLINE
  5
149
100
AcDbEntity
  8
0
 62
7
100
AcDbPolyline
 90
2
 70
0
 10
5253.829604
 20
1689.384956
 30
0.0
 10
5253.829604
 20
2731.049213
 30
0.0
  0
LWPOLYLINE
  5
14a
100
AcDbEntity
  8
0
 62
7
100
AcDbPolyline
 90
2
 70
0
 10
6295.493861
 20
2731.049213
 30
0.0
 10
6295.493861
 20
1689.384956
 30
0.0
  0
LWPOLYLINE
  5
14b
100
AcDbEntity
  8
0
 62
7
100
AcDbPolyline
 90
2
 70
0
 10
3899.692528
 20
1689.384956
 30
0.0
 10
3899.692528
 20
2731.049213
 30
0.0
  0
LWPOLYLINE
  5
14c
100
AcDbEntity
  8
0
 62
7
100
AcDbPolyline
 90
2
 70
0
 10
4941.356785
 20
2731.049213
 30
0.0
 10
4941.356785
 20
1689.384956
 30
0.0
  0
LWPOLYLINE
  5
14d
100
AcDbEntity
  8
0
 62
7
100
AcDbPolyline
 90
2
 70
0
 10
2545.555452
 20
1689.384956
 30
0.0
 10
2545.555452
 20
2731.049213
 30
0.0
  0
LWPOLYLINE
  5
14e
100
AcDbEntity
  8
0
 62
7
100
AcDbPolyline
 90
2
 70
0
 10
3587.219709
 20
2731.049213
 30
0.0
 10
3587.219709
 20
1689.384956
 30
0.0
  0
LWPOLYLINE
  5
14f
100
AcDbEntity
  8
0
 62
7
100
AcDbPolyline
 90
2
 70
0
 10
1191.418377
 20
1689.384956
 30
0.0
 10
1191.418377
 20
2731.049213
 30
0.0
  0
LWPOLYLINE
  5
150
100
AcDbEntity
  8
0
 62
7
100
AcDbPolyline
 90
2
 70
0
 10
2233.082634
 20
2731.049213
 30
0.0
 10
2233.082634
 20
1689.384956
 30
0.0
  0
LWPOLYLINE
  5
151
100
AcDbEntity
  8
0
 62
7
100
AcDbPolyline
 90
2
 70
0
 10
10670.642490
 20
335.247880
 30
0.0
 10
10670.642490
 20
1376.912137
 30
0.0
  0
LWPOLYLINE
  5
152
100
AcDbEntity
  8
0
 62
7
100
AcDbPolyline
 90
2
 70
0
 10
11712.306747
 20
335.247880
 30
0.0
 10
10670.642490
 20
335.247880
 30
0.0
  0
LWPOLYLINE
  5
153
100
AcDbEntity
  8
0
 62
7
100
AcDbPolyline
 90
2
 70
0
 10
11712.306747
 20
1376.912137
 30
0.0
 10
11712.306747
 20
335.247880
 30
0.0
  0
LWPOLYLINE
  5
154
100
AcDbEntity
  8
0
 62
7
100
AcDbPolyline
 90
2
 70
0
 10
10670.642490
 20
1376.912137
 30
0.0
 10
11712.306747
 20
1376.912137
 30
0.0
  0
LWPOLYLINE
  5
155
100
AcDbEntity
  8
0
 62
7
100
AcDbPolyline
 90
2
 70
0
 10
36128.842846
 20
6543.693852
 30
0.0
 10
36128.842846
 20
7585.358109
 30
0.0
  0
LWPOLYLINE
  5
156
100
AcDbEntity
  8
0
 62
7
100
AcDbPolyline
 90
2
 70
0
 10
37170.507103
 20
6543.693852
 30
0.0
 10
36128.842846
 20
6543.693852
 30
0.0
  0
LWPOLYLINE
  5
157
100
AcDbEntity
  8
0
 62
7
100
AcDbPolyline
 90
2
 70
0
 10
37170.507103
 20
7585.358109
 30
0.0
 10
37170.507103
 20
6543.693852
 30
0.0
  0
LWPOLYLINE
  5
158
100
AcDbEntity
  8
0
 62
7
100
AcDbPolyline
 90
2
 70
0
 10
36128.842846
 20
7585.358109
 30
0.0
 10
37170.507103
 20
7585.358109
 30
0.0
  0
LWPOLYLINE
  5
159
100
AcDbEntity
  8
0
 62
7
100
AcDbPolyline
 90
2
 70
0
 10
38878.921151
 20
4293.677890
 30
0.0
 10
38878.921151
 20
5335.342147
 30
0.0
  0
LWPOLYLINE
  5
15a
100
AcDbEntity
  8
0
 62
7
100
AcDbPolyline
 90
2
 70
0
 10
39920.585408
 20
4293.677890
 30
0.0
 10
38878.921151
 20
4293.677890
 30
0.0
  0
LWPOLYLINE
  5
15b
100
AcDbEntity
  8
0
 62
7
100
AcDbPolyline
 90
2
 70
0
 10
39920.585408
 20
5335.342147
 30
0.0
 10
39920.585408
 20
4293.677890
 30
0.0
  0
LWPOLYLINE
  5
15c
100
AcDbEntity
  8
0
 62
7
100
AcDbPolyline
 90
2
 70
0
 10
38878.921151
 20
5335.342147
 30
0.0
 10
39920.585408
 20
5335.342147
 30
0.0
  0
LWPOLYLINE
  5
15d
100
AcDbEntity
  8
0
 62
7
100
AcDbPolyline
 90
2
 70
0
 10
649.816463
 20
4126.990442
 30
0.0
 10
649.816463
 20
5168.654699
 30
0.0
  0
LWPOLYLINE
  5
15e
100
AcDbEntity
  8
0
 62
7
100
AcDbPolyline
 90
2
 70
0
 10
1691.480720
 20
4126.990442
 30
0.0
 10
649.816463
 20
4126.990442
 30
0.0
  0
LWPOLYLINE
  5
15f
100
AcDbEntity
  8
0
 62
7
100
AcDbPolyline
 90
2
 70
0
 10
1691.480720
 20
5168.654699
 30
0.0
 10
1691.480720
 20
4126.990442
 30
0.0
  0
LWPOLYLINE
  5
160
100
AcDbEntity
  8
0
 62
7
100
AcDbPolyline
 90
2
 70
0
 10
649.816463
 20
5168.654699
 30
0.0
 10
1691.480720
 20
5168.654699
 30
0.0
  0
LWPOLYLINE
  5
161
100
AcDbEntity
  8
0
 62
7
100
AcDbPolyline
 90
2
 70
0
 10
12212.369090
 20
5564.471242
 30
0.0
 10
12212.369090
 20
6606.135499
 30
0.0
  0
LWPOLYLINE
  5
162
100
AcDbEntity
  8
0
 62
7
100
AcDbPolyline
 90
2
 70
0
 10
13254.033347
 20
5564.471242
 30
0.0
 10
12212.369090
 20
5564.471242
 30
0.0
  0
LWPOLYLINE
  5
163
100
AcDbEntity
  8
0
 62
7
100
AcDbPolyline
 90
2
 70
0
 10
13254.033347
 20
6606.135499
 30
0.0
 10
13254.033347
 20
5564.471242
 30
0.0
  0
LWPOLYLINE
  5
164
100
AcDbEntity
  8
0
 62
7
100
AcDbPolyline
 90
2
 70
0
 10
12212.369090
 20
6606.135499
 30
0.0
 10
13254.033347
 20
6606.135499
 30
0.0
  0
LWPOLYLINE
  5
165
100
AcDbEntity
  8
0
 62
7
100
AcDbPolyline
 90
2
 70
0
 10
33920.631038
 20
168.560433
 30
0.0
 10
33920.631038
 20
1210.224690
 30
0.0
  0
LWPOLYLINE
  5
166
100
AcDbEntity
  8
0
 62
7
100
AcDbPolyline
 90
2
 70
0
 10
34962.295295
 20
168.560433
 30
0.0
 10
33920.631038
 20
168.560433
 30
0.0
  0
LWPOLYLINE
  5
167
100
AcDbEntity
  8
0
 62
7
100
AcDbPolyline
 90
2
 70
0
 10
34962.295295
 20
1210.224690
 30
0.0
 10
34962.295295
 20
168.560433
 30
0.0
  0
LWPOLYLINE
  5
168
100
AcDbEntity
  8
0
 62
7
100
AcDbPolyline
 90
2
 70
0
 10
33920.631038
 20
1210.224690
 30
0.0
 10
34962.295295
 20
1210.224690
 30
0.0
  0
LWPOLYLINE
  5
169
100
AcDbEntity
  8
0
 62
7
100
AcDbPolyline
 90
2
 70
0
 10
29753.974010
 20
5356.244224
 30
0.0
 10
29753.974010
 20
6397.908481
 30
0.0
  0
LWPOLYLINE
  5
16a
100
AcDbEntity
  8
0
 62
7
100
AcDbPolyline
 90
2
 70
0
 10
30795.638267
 20
5356.244224
 30
0.0
 10
29753.974010
 20
5356.244224
 30
0.0
  0
LWPOLYLINE
  5
16b
100
AcDbEntity
  8
0
 62
7
100
AcDbPolyline
 90
2
 70
0
 10
30795.638267
 20
6397.908481
 30
0.0
 10
30795.638267
 20
5356.244224
 30
0.0
  0
LWPOLYLINE
  5
16c
100
AcDbEntity
  8
0
 62
7
100
AcDbPolyline
 90
2
 70
0
 10
29753.974010
 20
6397.908481
 30
0.0
 10
30795.638267
 20
6397.908481
 30
0.0
  0
LWPOLYLINE
  5
16d
100
AcDbEntity
  8
0
 62
7
100
AcDbPolyline
 90
2
 70
0
 10
9316.505414
 20
335.247880
 30
0.0
 10
9316.505414
 20
1376.912137
 30
0.0
  0
LWPOLYLINE
  5
16e
100
AcDbEntity
  8
0
 62
7
100
AcDbPolyline
 90
2
 70
0
 10
10358.169671
 20
335.247880
 30
0.0
 10
9316.505414
 20
335.247880
 30
0.0
  0
LWPOLYLINE
  5
16f
100
AcDbEntity
  8
0
 62
7
100
AcDbPolyline
 90
2
 70
0
 10
10358.169671
 20
1376.912137
 30
0.0
 10
10358.169671
 20
335.247880
 30
0.0
  0
LWPOLYLINE
  5
170
100
AcDbEntity
  8
0
 62
7
100
AcDbPolyline
 90
2
 70
0
 10
9316.505414
 20
1376.912137
 30
0.0
 10
10358.169671
 20
1376.912137
 30
0.0
  0
LWPOLYLINE
  5
171
100
AcDbEntity
  8
0
 62
7
100
AcDbPolyline
 90
2
 70
0
 10
7962.368338
 20
335.247880
 30
0.0
 10
7962.368338
 20
1376.912137
 30
0.0
  0
LWPOLYLINE
  5
172
100
AcDbEntity
  8
0
 62
7
100
AcDbPolyline
 90
2
 70
0
 10
9004.032595
 20
335.247880
 30
0.0
 10
7962.368338
 20
335.247880
 30
0.0
  0
LWPOLYLINE
  5
173
100
AcDbEntity
  8
0
 62
7
100
AcDbPolyline
 90
2
 70
0
 10
9004.032595
 20
1376.912137
 30
0.0
 10
9004.032595
 20
335.247880
 30
0.0
  0
LWPOLYLINE
  5
174
100
AcDbEntity
  8
0
 62
7
100
AcDbPolyline
 90
2
 70
0
 10
7962.368338
 20
1376.912137
 30
0.0
 10
9004.032595
 20
1376.912137
 30
0.0
  0
LWPOLYLINE
  5
175
100
AcDbEntity
  8
0
 62
7
100
AcDbPolyline
 90
2
 70
0
 10
6608.231263
 20
335.247880
 30
0.0
 10
6608.231263
 20
1376.912137
 30
0.0
  0
LWPOLYLINE
  5
176
100
AcDbEntity
  8
0
 62
7
100
AcDbPolyline
 90
2
 70
0
 10
7649.895520
 20
335.247880
 30
0.0
 10
6608.231263
 20
335.247880
 30
0.0
  0
LWPOLYLINE
  5
177
100
AcDbEntity
  8
0
 62
7
100
AcDbPolyline
 90
2
 70
0
 10
7649.895520
 20
1376.912137
 30
0.0
 10
7649.895520
 20
335.247880
 30
0.0
  0
LWPOLYLINE
  5
178
100
AcDbEntity
  8
0
 62
7
100
AcDbPolyline
 90
2
 70
0
 10
6608.231263
 20
1376.912137
 30
0.0
 10
7649.895520
 20
1376.912137
 30
0.0
  0
LWPOLYLINE
  5
179
100
AcDbEntity
  8
0
 62
7
100
AcDbPolyline
 90
2
 70
0
 10
5253.829604
 20
335.247880
 30
0.0
 10
5253.829604
 20
1376.912137
 30
0.0
  0
LWPOLYLINE
  5
17a
100
AcDbEntity
  8
0
 62
7
100
AcDbPolyline
 90
2
 70
0
 10
6295.493861
 20
335.247880
 30
0.0
 10
5253.829604
 20
335.247880
 30
0.0
  0
LWPOLYLINE
  5
17b
100
AcDbEntity
  8
0
 62
7
100
AcDbPolyline
 90
2
 70
0
 10
6295.493861
 20
1376.912137
 30
0.0
 10
6295.493861
 20
335.247880
 30
0.0
  0
LWPOLYLINE
  5
17c
100
AcDbEntity
  8
0
 62
7
100
AcDbPolyline
 90
2
 70
0
 10
5253.829604
 20
1376.912137
 30
0.0
 10
6295.493861
 20
1376.912137
 30
0.0
  0
LWPOLYLINE
  5
17d
100
AcDbEntity
  8
0
 62
7
100
AcDbPolyline
 90
2
 70
0
 10
3899.692528
 20
335.247880
 30
0.0
 10
3899.692528
 20
1376.912137
 30
0.0
  0
LWPOLYLINE
  5
17e
100
AcDbEntity
  8
0
 62
7
100
AcDbPolyline
 90
2
 70
0
 10
4941.356785
 20
335.247880
 30
0.0
 10
3899.692528
 20
335.247880
 30
0.0
  0
LWPOLYLINE
  5
17f
100
AcDbEntity
  8
0
 62
7
100
AcDbPolyline
 90
2
 70
0
 10
4941.356785
 20
1376.912137
 30
0.0
 10
4941.356785
 20
335.247880
 30
0.0
  0
LWPOLYLINE
  5
180
100
AcDbEntity
  8
0
 62
7
100
AcDbPolyline
 90
2
 70
0
 10
3899.692528
 20
1376.912137
 30
0.0
 10
4941.356785
 20
1376.912137
 30
0.0
  0
LWPOLYLINE
  5
181
100
AcDbEntity
  8
0
 62
7
100
AcDbPolyline
 90
2
 70
0
 10
2545.555452
 20
335.247880
 30
0.0
 10
2545.555452
 20
1376.912137
 30
0.0
  0
LWPOLYLINE
  5
182
100
AcDbEntity
  8
0
 62
7
100
AcDbPolyline
 90
2
 70
0
 10
3587.219709
 20
335.247880
 30
0.0
 10
2545.555452
 20
335.247880
 30
0.0
  0
LWPOLYLINE
  5
183
100
AcDbEntity
  8
0
 62
7
100
AcDbPolyline
 90
2
 70
0
 10
3587.219709
 20
1376.912137
 30
0.0
 10
3587.219709
 20
335.247880
 30
0.0
  0
LWPOLYLINE
  5
184
100
AcDbEntity
  8
0
 62
7
100
AcDbPolyline
 90
2
 70
0
 10
2545.555452
 20
1376.912137
 30
0.0
 10
3587.219709
 20
1376.912137
 30
0.0
  0
LWPOLYLINE
  5
185
100
AcDbEntity
  8
0
 62
7
100
AcDbPolyline
 90
2
 70
0
 10
1191.418377
 20
335.247880
 30
0.0
 10
1191.418377
 20
1376.912137
 30
0.0
  0
LWPOLYLINE
  5
186
100
AcDbEntity
  8
0
 62
7
100
AcDbPolyline
 90
2
 70
0
 10
2233.082634
 20
335.247880
 30
0.0
 10
1191.418377
 20
335.247880
 30
0.0
  0
LWPOLYLINE
  5
187
100
AcDbEntity
  8
0
 62
7
100
AcDbPolyline
 90
2
 70
0
 10
2233.082634
 20
1376.912137
 30
0.0
 10
2233.082634
 20
335.247880
 30
0.0
  0
LWPOLYLINE
  5
188
100
AcDbEntity
  8
0
 62
7
100
AcDbPolyline
 90
2
 70
0
 10
1191.418377
 20
1376.912137
 30
0.0
 10
2233.082634
 20
1376.912137
 30
0.0
  0
LWPOLYLINE
  5
189
100
AcDbEntity
  8
0
 62
7
100
AcDbPolyline
 90
2
 70
0
 10
38399.760885
 20
8522.776565
 30
0.0
 10
38399.760885
 20
9564.440822
 30
0.0
  0
LWPOLYLINE
  5
18a
100
AcDbEntity
  8
0
 62
7
100
AcDbPolyline
 90
2
 70
0
 10
39441.425141
 20
8522.776565
 30
0.0
 10
38399.760885
 20
8522.776565
 30
0.0
  0
LWPOLYLINE
  5
18b
100
AcDbEntity
  8
0
 62
7
100
AcDbPolyline
 90
2
 70
0
 10
39441.425141
 20
9564.440822
 30
0.0
 10
39441.425141
 20
8522.776565
 30
0.0
  0
LWPOLYLINE
  5
18c
100
AcDbEntity
  8
0
 62
7
100
AcDbPolyline
 90
2
 70
0
 10
38399.760885
 20
9564.440822
 30
0.0
 10
39441.425141
 20
9564.440822
 30
0.0
  0
LWPOLYLINE
  5
18d
100
AcDbEntity
  8
0
 62
7
100
AcDbPolyline
 90
2
 70
0
 10
35109.138999
 20
11618.665178
 30
0.0
 10
35109.138999
 20
12660.329435
 30
0.0
  0
LWPOLYLINE
  5
18e
100
AcDbEntity
  8
0
 62
7
100
AcDbPolyline
 90
2
 70
0
 10
36150.803256
 20
11618.665178
 30
0.0
 10
35109.138999
 20
11618.665178
 30
0.0
  0
LWPOLYLINE
  5
18f
100
AcDbEntity
  8
0
 62
7
100
AcDbPolyline
 90
2
 70
0
 10
36150.803256
 20
12660.329435
 30
0.0
 10
36150.803256
 20
11618.665178
 30
0.0
  0
LWPOLYLINE
  5
190
100
AcDbEntity
  8
0
 62
7
100
AcDbPolyline
 90
2
 70
0
 10
35109.138999
 20
12660.329435
 30
0.0
 10
36150.803256
 20
12660.329435
 30
0.0
  0
LWPOLYLINE
  5
191
100
AcDbEntity
  8
0
 62
7
100
AcDbPolyline
 90
2
 70
0
 10
12733.068927
 20
772.868577
 30
0.0
 10
12733.068927
 20
1814.532834
 30
0.0
  0
LWPOLYLINE
  5
192
100
AcDbEntity
  8
0
 62
7
100
AcDbPolyline
 90
2
 70
0
 10
13774.733184
 20
772.868577
 30
0.0
 10
12733.068927
 20
772.868577
 30
0.0
  0
LWPOLYLINE
  5
193
100
AcDbEntity
  8
0
 62
7
100
AcDbPolyline
 90
2
 70
0
 10
13774.733184
 20
1814.532834
 30
0.0
 10
13774.733184
 20
772.868577
 30
0.0
  0
LWPOLYLINE
  5
194
100
AcDbEntity
  8
0
 62
7
100
AcDbPolyline
 90
2
 70
0
 10
12733.068927
 20
1814.532834
 30
0.0
 10
13774.733184
 20
1814.532834
 30
0.0
  0
LWPOLYLINE
  5
195
100
AcDbEntity
  8
0
 62
7
100
AcDbPolyline
 90
2
 70
0
 10
1524.793272
 20
5981.189861
 30
0.0
 10
1524.793272
 20
7022.854118
 30
0.0
  0
LWPOLYLINE
  5
196
100
AcDbEntity
  8
0
 62
7
100
AcDbPolyline
 90
2
 70
0
 10
2566.457529
 20
5981.189861
 30
0.0
 10
1524.793272
 20
5981.189861
 30
0.0
  0
LWPOLYLINE
  5
197
100
AcDbEntity
  8
0
 62
7
100
AcDbPolyline
 90
2
 70
0
 10
2566.457529
 20
7022.854118
 30
0.0
 10
2566.457529
 20
5981.189861
 30
0.0
  0
LWPOLYLINE
  5
198
100
AcDbEntity
  8
0
 62
7
100
AcDbPolyline
 90
2
 70
0
 10
1524.793272
 20
7022.854118
 30
0.0
 10
2566.457529
 20
7022.854118
 30
0.0
  0
LWPOLYLINE
  5
199
100
AcDbEntity
  8
0
 62
7
100
AcDbPolyline
 90
2
 70
0
 10
524.668586
 20
8064.518375
 30
0.0
 10
524.668586
 20
9106.182632
 30
0.0
  0
LWPOLYLINE
  5
19a
100
AcDbEntity
  8
0
 62
7
100
AcDbPolyline
 90
2
 70
0
 10
1566.332843
 20
8064.518375
 30
0.0
 10
524.668586
 20
8064.518375
 30
0.0
  0
LWPOLYLINE
  5
19b
100
AcDbEntity
  8
0
 62
7
100
AcDbPolyline
 90
2
 70
0
 10
1566.332843
 20
9106.182632
 30
0.0
 10
1566.332843
 20
8064.518375
 30
0.0
  0
LWPOLYLINE
  5
19c
100
AcDbEntity
  8
0
 62
7
100
AcDbPolyline
 90
2
 70
0
 10
524.668586
 20
9106.182632
 30
0.0
 10
1566.332843
 20
9106.182632
 30
0.0
  0
LWPOLYLINE
  5
19d
100
AcDbEntity
  8
0
 62
7
100
AcDbPolyline
 90
2
 70
0
 10
3275.557309
 20
7835.838543
 30
0.0
 10
3275.557309
 20
8877.502800
 30
0.0
  0
LWPOLYLINE
  5
19e
100
AcDbEntity
  8
0
 62
7
100
AcDbPolyline
 90
2
 70
0
 10
4317.221566
 20
7835.838543
 30
0.0
 10
3275.557309
 20
7835.838543
 30
0.0
  0
LWPOLYLINE
  5
19f
100
AcDbEntity
  8
0
 62
7
100
AcDbPolyline
 90
2
 70
0
 10
4317.221566
 20
8877.502800
 30
0.0
 10
4317.221566
 20
7835.838543
 30
0.0
  0
LWPOLYLINE
  5
1a0
100
AcDbEntity
  8
0
 62
7
100
AcDbPolyline
 90
2
 70
0
 10
3275.557309
 20
8877.502800
 30
0.0
 10
4317.221566
 20
8877.502800
 30
0.0
  0
LWPOLYLINE
  5
1a1
100
AcDbEntity
  8
0
 62
7
100
AcDbPolyline
 90
2
 70
0
 10
10483.052965
 20
6981.049965
 30
0.0
 10
10483.052965
 20
8022.714222
 30
0.0
  0
LWPOLYLINE
  5
1a2
100
AcDbEntity
  8
0
 62
7
100
AcDbPolyline
 90
2
 70
0
 10
11524.717222
 20
6981.049965
 30
0.0
 10
10483.052965
 20
6981.049965
 30
0.0
  0
LWPOLYLINE
  5
1a3
100
AcDbEntity
  8
0
 62
7
100
AcDbPolyline
 90
2
 70
0
 10
11524.717222
 20
8022.714222
 30
0.0
 10
11524.717222
 20
6981.049965
 30
0.0
  0
LWPOLYLINE
  5
1a4
100
AcDbEntity
  8
0
 62
7
100
AcDbPolyline
 90
2
 70
0
 10
10483.052965
 20
8022.714222
 30
0.0
 10
11524.717222
 20
8022.714222
 30
0.0
  0
LWPOLYLINE
  5
1a5
100
AcDbEntity
  8
0
 62
7
100
AcDbPolyline
 90
2
 70
0
 10
12748.679339
 20
3543.584375
 30
0.0
 10
12748.679339
 20
4585.248632
 30
0.0
  0
LWPOLYLINE
  5
1a6
100
AcDbEntity
  8
0
 62
7
100
AcDbPolyline
 90
2
 70
0
 10
13790.343596
 20
3543.584375
 30
0.0
 10
12748.679339
 20
3543.584375
 30
0.0
  0
LWPOLYLINE
  5
1a7
100
AcDbEntity
  8
0
 62
7
100
AcDbPolyline
 90
2
 70
0
 10
13790.343596
 20
4585.248632
 30
0.0
 10
13790.343596
 20
3543.584375
 30
0.0
  0
LWPOLYLINE
  5
1a8
100
AcDbEntity
  8
0
 62
7
100
AcDbPolyline
 90
2
 70
0
 10
12748.679339
 20
4585.248632
 30
0.0
 10
13790.343596
 20
4585.248632
 30
0.0
  0
LWPOLYLINE
  5
1a9
100
AcDbEntity
  8
0
 62
7
100
AcDbPolyline
 90
2
 70
0
 10
10670.642490
 20
1689.384956
 30
0.0
 10
10670.642490
 20
2731.049213
 30
0.0
  0
LWPOLYLINE
  5
1aa
100
AcDbEntity
  8
0
 62
7
100
AcDbPolyline
 90
2
 70
0
 10
11712.306747
 20
1689.384956
 30
0.0
 10
10670.642490
 20
1689.384956
 30
0.0
  0
LWPOLYLINE
  5
1ab
100
AcDbEntity
  8
0
 62
7
100
AcDbPolyline
 90
2
 70
0
 10
11712.306747
 20
2731.049213
 30
0.0
 10
11712.306747
 20
1689.384956
 30
0.0
  0
LWPOLYLINE
  5
1ac
100
AcDbEntity
  8
0
 62
7
100
AcDbPolyline
 90
2
 70
0
 10
10670.642490
 20
2731.049213
 30
0.0
 10
11712.306747
 20
2731.049213
 30
0.0
  0
LWPOLYLINE
  5
1ad
100
AcDbEntity
  8
0
 62
7
100
AcDbPolyline
 90
2
 70
0
 10
9316.505414
 20
1689.384956
 30
0.0
 10
9316.505414
 20
2731.049213
 30
0.0
  0
LWPOLYLINE
  5
1ae
100
AcDbEntity
  8
0
 62
7
100
AcDbPolyline
 90
2
 70
0
 10
10358.169671
 20
1689.384956
 30
0.0
 10
9316.505414
 20
1689.384956
 30
0.0
  0
LWPOLYLINE
  5
1af
100
AcDbEntity
  8
0
 62
7
100
AcDbPolyline
 90
2
 70
0
 10
10358.169671
 20
2731.049213
 30
0.0
 10
10358.169671
 20
1689.384956
 30
0.0
  0
LWPOLYLINE
  5
1b0
100
AcDbEntity
  8
0
 62
7
100
AcDbPolyline
 90
2
 70
0
 10
9316.505414
 20
2731.049213
 30
0.0
 10
10358.169671
 20
2731.049213
 30
0.0
  0
LWPOLYLINE
  5
1b1
100
AcDbEntity
  8
0
 62
7
100
AcDbPolyline
 90
2
 70
0
 10
7962.368338
 20
1689.384956
 30
0.0
 10
7962.368338
 20
2731.049213
 30
0.0
  0
LWPOLYLINE
  5
1b2
100
AcDbEntity
  8
0
 62
7
100
AcDbPolyline
 90
2
 70
0
 10
9004.032595
 20
1689.384956
 30
0.0
 10
7962.368338
 20
1689.384956
 30
0.0
  0
LWPOLYLINE
  5
1b3
100
AcDbEntity
  8
0
 62
7
100
AcDbPolyline
 90
2
 70
0
 10
9004.032595
 20
2731.049213
 30
0.0
 10
9004.032595
 20
1689.384956
 30
0.0
  0
LWPOLYLINE
  5
1b4
100
AcDbEntity
  8
0
 62
7
100
AcDbPolyline
 90
2
 70
0
 10
7962.368338
 20
2731.049213
 30
0.0
 10
9004.032595
 20
2731.049213
 30
0.0
  0
LWPOLYLINE
  5
1b5
100
AcDbEntity
  8
0
 62
7
100
AcDbPolyline
 90
2
 70
0
 10
6608.231263
 20
1689.384956
 30
0.0
 10
6608.231263
 20
2731.049213
 30
0.0
  0
LWPOLYLINE
  5
1b6
100
AcDbEntity
  8
0
 62
7
100
AcDbPolyline
 90
2
 70
0
 10
7649.895520
 20
1689.384956
 30
0.0
 10
6608.231263
 20
1689.384956
 30
0.0
  0
LWPOLYLINE
  5
1b7
100
AcDbEntity
  8
0
 62
7
100
AcDbPolyline
 90
2
 70
0
 10
7649.895520
 20
2731.049213
 30
0.0
 10
7649.895520
 20
1689.384956
 30
0.0
  0
LWPOLYLINE
  5
1b8
100
AcDbEntity
  8
0
 62
7
100
AcDbPolyline
 90
2
 70
0
 10
6608.231263
 20
2731.049213
 30
0.0
 10
7649.895520
 20
2731.049213
 30
0.0
  0
LWPOLYLINE
  5
1b9
100
AcDbEntity
  8
0
 62
7
100
AcDbPolyline
 90
2
 70
0
 10
5253.829604
 20
1689.384956
 30
0.0
 10
5253.829604
 20
2731.049213
 30
0.0
  0
LWPOLYLINE
  5
1ba
100
AcDbEntity
  8
0
 62
7
100
AcDbPolyline
 90
2
 70
0
 10
6295.493861
 20
1689.384956
 30
0.0
 10
5253.829604
 20
1689.384956
 30
0.0
  0
LWPOLYLINE
  5
1bb
100
AcDbEntity
  8
0
 62
7
100
AcDbPolyline
 90
2
 70
0
 10
6295.493861
 20
2731.049213
 30
0.0
 10
6295.493861
 20
1689.384956
 30
0.0
  0
LWPOLYLINE
  5
1bc
100
AcDbEntity
  8
0
 62
7
100
AcDbPolyline
 90
2
 70
0
 10
5253.829604
 20
2731.049213
 30
0.0
 10
6295.493861
 20
2731.049213
 30
0.0
  0
LWPOLYLINE
  5
1bd
100
AcDbEntity
  8
0
 62
7
100
AcDbPolyline
 90
2
 70
0
 10
3899.692528
 20
1689.384956
 30
0.0
 10
3899.692528
 20
2731.049213
 30
0.0
  0
LWPOLYLINE
  5
1be
100
AcDbEntity
  8
0
 62
7
100
AcDbPolyline
 90
2
 70
0
 10
4941.356785
 20
1689.384956
 30
0.0
 10
3899.692528
 20
1689.384956
 30
0.0
  0
LWPOLYLINE
  5
1bf
100
AcDbEntity
  8
0
 62
7
100
AcDbPolyline
 90
2
 70
0
 10
4941.356785
 20
2731.049213
 30
0.0
 10
4941.356785
 20
1689.384956
 30
0.0
  0
LWPOLYLINE
  5
1c0
100
AcDbEntity
  8
0
 62
7
100
AcDbPolyline
 90
2
 70
0
 10
3899.692528
 20
2731.049213
 30
0.0
 10
4941.356785
 20
2731.049213
 30
0.0
  0
LWPOLYLINE
  5
1c1
100
AcDbEntity
  8
0
 62
7
100
AcDbPolyline
 90
2
 70
0
 10
2545.555452
 20
1689.384956
 30
0.0
 10
2545.555452
 20
2731.049213
 30
0.0
  0
LWPOLYLINE
  5
1c2
100
AcDbEntity
  8
0
 62
7
100
AcDbPolyline
 90
2
 70
0
 10
3587.219709
 20
1689.384956
 30
0.0
 10
2545.555452
 20
1689.384956
 30
0.0
  0
LWPOLYLINE
  5
1c3
100
AcDbEntity
  8
0
 62
7
100
AcDbPolyline
 90
2
 70
0
 10
3587.219709
 20
2731.049213
 30
0.0
 10
3587.219709
 20
1689.384956
 30
0.0
  0
LWPOLYLINE
  5
1c4
100
AcDbEntity
  8
0
 62
7
100
AcDbPolyline
 90
2
 70
0
 10
2545.555452
 20
2731.049213
 30
0.0
 10
3587.219709
 20
2731.049213
 30
0.0
  0
LWPOLYLINE
  5
1c5
100
AcDbEntity
  8
0
 62
7
100
AcDbPolyline
 90
2
 70
0
 10
1191.418377
 20
1689.384956
 30
0.0
 10
1191.418377
 20
2731.049213
 30
0.0
  0
LWPOLYLINE
  5
1c6
100
AcDbEntity
  8
0
 62
7
100
AcDbPolyline
 90
2
 70
0
 10
2233.082634
 20
1689.384956
 30
0.0
 10
1191.418377
 20
1689.384956
 30
0.0
  0
LWPOLYLINE
  5
1c7
100
AcDbEntity
  8
0
 62
7
100
AcDbPolyline
 90
2
 70
0
 10
2233.082634
 20
2731.049213
 30
0.0
 10
2233.082634
 20
1689.384956
 30
0.0
  0
SPLINE
  5
1c8
100
AcDbEntity
  8
0
 62
7
100
AcDbSpline
 70
8
 71
3
 72
8
 73
4
 74
0
 40
0
 40
0
 40
0
 40
0
 40
1
 40
1
 40
1
 40
1
 10
30533.171683
 20
9380.402745
 30
0.0
 10
30387.651908
 20
9380.402745
 30
0.0
 10
30256.460946
 20
9292.743748
 30
0.0
 10
30200.772939
 20
9158.301006
 30
0.0
  0
SPLINE
  5
1c9
100
AcDbEntity
  8
0
 62
7
100
AcDbSpline
 70
8
 71
3
 72
8
 73
4
 74
0
 40
0
 40
0
 40
0
 40
0
 40
1
 40
1
 40
1
 40
1
 10
30200.772939
 20
9158.301006
 30
0.0
 10
30145.084932
 20
9023.858264
 30
0.0
 10
30175.866679
 20
8869.107974
 30
0.0
 10
30278.764699
 20
8766.209954
 30
0.0
  0
SPLINE
  5
1ca
100
AcDbEntity
  8
0
 62
7
100
AcDbSpline
 70
8
 71
3
 72
8
 73
4
 74
0
 40
0
 40
0
 40
0
 40
0
 40
1
 40
1
 40
1
 40
1
 10
30278.764699
 20
8766.209954
 30
0.0
 10
30381.662719
 20
8663.311934
 30
0.0
 10
30536.413008
 20
8632.530188
 30
0.0
 10
30670.855750
 20
8688.218195
 30
0.0
  0
SPLINE
  5
1cb
100
AcDbEntity
  8
0
 62
7
100
AcDbSpline
 70
8
 71
3
 72
8
 73
4
 74
0
 40
0
 40
0
 40
0
 40
0
 40
1
 40
1
 40
1
 40
1
 10
30670.855750
 20
8688.218195
 30
0.0
 10
30805.298492
 20
8743.906202
 30
0.0
 10
30892.957490
 20
8875.097163
 30
0.0
 10
30892.957490
 20
9020.616938
 30
0.0
  0
SPLINE
  5
1cc
100
AcDbEntity
  8
0
 62
7
100
AcDbSpline
 70
8
 71
3
 72
8
 73
4
 74
0
 40
0
 40
0
 40
0
 40
0
 40
1
 40
1
 40
1
 40
1
 10
30892.957490
 20
9020.616938
 30
0.0
 10
30892.957490
 20
9219.321153
 30
0.0
 10
30731.875897
 20
9380.402745
 30
0.0
 10
30533.171683
 20
9380.402745
 30
0.0
  0
LWPOLYLINE
  5
1cd
100
AcDbEntity
  8
0
 62
7
100
AcDbPolyline
 90
2
 70
0
 10
1191.418377
 20
2731.049213
 30
0.0
 10
2233.082634
 20
2731.049213
 30
0.0
  0
SPLINE
  5
1ce
100
AcDbEntity
  8
0
 62
7
100
AcDbSpline
 70
8
 71
3
 72
8
 73
4
 74
0
 40
0
 40
0
 40
0
 40
0
 40
1
 40
1
 40
1
 40
1
 10
27722.768397
 20
14184.572586
 30
0.0
 10
27577.248621
 20
14184.572586
 30
0.0
 10
27446.057660
 20
14096.913588
 30
0.0
 10
27390.369653
 20
13962.470846
 30
0.0
  0
SPLINE
  5
1cf
100
AcDbEntity
  8
0
 62
7
100
AcDbSpline
 70
8
 71
3
 72
8
 73
4
 74
0
 40
0
 40
0
 40
0
 40
0
 40
1
 40
1
 40
1
 40
1
 10
27390.369653
 20
13962.470846
 30
0.0
 10
27334.681646
 20
13828.028104
 30
0.0
 10
27365.463393
 20
13673.277814
 30
0.0
 10
27468.361413
 20
13570.379794
 30
0.0
  0
SPLINE
  5
1d0
100
AcDbEntity
  8
0
 62
7
100
AcDbSpline
 70
8
 71
3
 72
8
 73
4
 74
0
 40
0
 40
0
 40
0
 40
0
 40
1
 40
1
 40
1
 40
1
 10
27468.361413
 20
13570.379794
 30
0.0
 10
27571.259432
 20
13467.481775
 30
0.0
 10
27726.009722
 20
13436.700028
 30
0.0
 10
27860.452464
 20
13492.388035
 30
0.0
  0
SPLINE
  5
1d1
100
AcDbEntity
  8
0
 62
7
100
AcDbSpline
 70
8
 71
3
 72
8
 73
4
 74
0
 40
0
 40
0
 40
0
 40
0
 40
1
 40
1
 40
1
 40
1
 10
27860.452464
 20
13492.388035
 30
0.0
 10
27994.895206
 20
13548.076042
 30
0.0
 10
28082.554204
 20
13679.267003
 30
0.0
 10
28082.554204
 20
13824.786779
 30
0.0
  0
SPLINE
  5
1d2
100
AcDbEntity
  8
0
 62
7
100
AcDbSpline
 70
8
 71
3
 72
8
 73
4
 74
0
 40
0
 40
0
 40
0
 40
0
 40
1
 40
1
 40
1
 40
1
 10
28082.554204
 20
13824.786779
 30
0.0
 10
28082.554204
 20
13920.207907
 30
0.0
 10
28044.648308
 20
14011.720835
 30
0.0
 10
27977.175381
 20
14079.193763
 30
0.0
  0
SPLINE
  5
1d3
100
AcDbEntity
  8
0
 62
7
100
AcDbSpline
 70
8
 71
3
 72
8
 73
4
 74
0
 40
0
 40
0
 40
0
 40
0
 40
1
 40
1
 40
1
 40
1
 10
27977.175381
 20
14079.193763
 30
0.0
 10
27909.702453
 20
14146.666690
 30
0.0
 10
27818.189526
 20
14184.572586
 30
0.0
 10
27722.768397
 20
14184.572586
 30
0.0
  0
LWPOLYLINE
  5
1d4
100
AcDbEntity
  8
0
 62
7
100
AcDbPolyline
 90
1
 70
1
 10
30533.171683
 20
9380.402745
 30
0.0
  0
SPLINE
  5
1d5
100
AcDbEntity
  8
0
 62
7
100
AcDbSpline
 70
8
 71
3
 72
8
 73
4
 74
0
 40
0
 40
0
 40
0
 40
0
 40
1
 40
1
 40
1
 40
1
 10
13139.495787
 20
17118.535244
 30
0.0
 10
12981.502874
 20
17118.535244
 30
0.0
 10
12839.066961
 20
17023.362610
 30
0.0
 10
12778.605691
 20
16877.396191
 30
0.0
  0
SPLINE
  5
1d6
100
AcDbEntity
  8
0
 62
7
100
AcDbSpline
 70
8
 71
3
 72
8
 73
4
 74
0
 40
0
 40
0
 40
0
 40
0
 40
1
 40
1
 40
1
 40
1
 10
12778.605691
 20
16877.396191
 30
0.0
 10
12718.144420
 20
16731.429773
 30
0.0
 10
12751.564605
 20
16563.415157
 30
0.0
 10
12863.282465
 20
16451.697297
 30
0.0
  0
SPLINE
  5
1d7
100
AcDbEntity
  8
0
 62
7
100
AcDbSpline
 70
8
 71
3
 72
8
 73
4
 74
0
 40
0
 40
0
 40
0
 40
0
 40
1
 40
1
 40
1
 40
1
 10
12863.282465
 20
16451.697297
 30
0.0
 10
12975.000326
 20
16339.979437
 30
0.0
 10
13143.014941
 20
16306.559252
 30
0.0
 10
13288.981360
 20
16367.020522
 30
0.0
  0
SPLINE
  5
1d8
100
AcDbEntity
  8
0
 62
7
100
AcDbSpline
 70
8
 71
3
 72
8
 73
4
 74
0
 40
0
 40
0
 40
0
 40
0
 40
1
 40
1
 40
1
 40
1
 10
13288.981360
 20
16367.020522
 30
0.0
 10
13434.947778
 20
16427.481793
 30
0.0
 10
13530.120413
 20
16569.917706
 30
0.0
 10
13530.120413
 20
16727.910619
 30
0.0
  0
SPLINE
  5
1d9
100
AcDbEntity
  8
0
 62
7
100
AcDbSpline
 70
8
 71
3
 72
8
 73
4
 74
0
 40
0
 40
0
 40
0
 40
0
 40
1
 40
1
 40
1
 40
1
 10
13530.120413
 20
16727.910619
 30
0.0
 10
13530.120413
 20
16831.510711
 30
0.0
 10
13488.965436
 20
16930.867613
 30
0.0
 10
13415.709109
 20
17004.123941
 30
0.0
  0
SPLINE
  5
1da
100
AcDbEntity
  8
0
 62
7
100
AcDbSpline
 70
8
 71
3
 72
8
 73
4
 74
0
 40
0
 40
0
 40
0
 40
0
 40
1
 40
1
 40
1
 40
1
 10
13415.709109
 20
17004.123941
 30
0.0
 10
13342.452781
 20
17077.380268
 30
0.0
 10
13243.095879
 20
17118.535244
 30
0.0
 10
13139.495787
 20
17118.535244
 30
0.0
  0
LWPOLYLINE
  5
1db
100
AcDbEntity
  8
0
 62
7
100
AcDbPolyline
 90
1
 70
1
 10
27722.768397
 20
14184.572586
 30
0.0
  0
SPLINE
  5
1dc
100
AcDbEntity
  8
0
 62
7
100
AcDbSpline
 70
8
 71
3
 72
8
 73
4
 74
0
 40
0
 40
0
 40
0
 40
0
 40
1
 40
1
 40
1
 40
1
 10
39431.900144
 20
17219.988051
 30
0.0
 10
39286.380369
 20
17219.988051
 30
0.0
 10
39155.189408
 20
17132.329054
 30
0.0
 10
39099.501401
 20
16997.886312
 30
0.0
  0
SPLINE
  5
1dd
100
AcDbEntity
  8
0
 62
7
100
AcDbSpline
 70
8
 71
3
 72
8
 73
4
 74
0
 40
0
 40
0
 40
0
 40
0
 40
1
 40
1
 40
1
 40
1
 10
39099.501401
 20
16997.886312
 30
0.0
 10
39043.813394
 20
16863.443570
 30
0.0
 10
39074.595140
 20
16708.693280
 30
0.0
 10
39177.493160
 20
16605.795260
 30
0.0
  0
SPLINE
  5
1de
100
AcDbEntity
  8
0
 62
7
100
AcDbSpline
 70
8
 71
3
 72
8
 73
4
 74
0
 40
0
 40
0
 40
0
 40
0
 40
1
 40
1
 40
1
 40
1
 10
39177.493160
 20
16605.795260
 30
0.0
 10
39280.391180
 20
16502.897240
 30
0.0
 10
39435.141470
 20
16472.115494
 30
0.0
 10
39569.584212
 20
16527.803501
 30
0.0
  0
SPLINE
  5
1df
100
AcDbEntity
  8
0
 62
7
100
AcDbSpline
 70
8
 71
3
 72
8
 73
4
 74
0
 40
0
 40
0
 40
0
 40
0
 40
1
 40
1
 40
1
 40
1
 10
39569.584212
 20
16527.803501
 30
0.0
 10
39704.026954
 20
16583.491508
 30
0.0
 10
39791.685952
 20
16714.682469
 30
0.0
 10
39791.685952
 20
16860.202244
 30
0.0
  0
SPLINE
  5
1e0
100
AcDbEntity
  8
0
 62
7
100
AcDbSpline
 70
8
 71
3
 72
8
 73
4
 74
0
 40
0
 40
0
 40
0
 40
0
 40
1
 40
1
 40
1
 40
1
 10
39791.685952
 20
16860.202244
 30
0.0
 10
39791.685952
 20
16955.623373
 30
0.0
 10
39753.780056
 20
17047.136301
 30
0.0
 10
39686.307129
 20
17114.609228
 30
0.0
  0
SPLINE
  5
1e1
100
AcDbEntity
  8
0
 62
7
100
AcDbSpline
 70
8
 71
3
 72
8
 73
4
 74
0
 40
0
 40
0
 40
0
 40
0
 40
1
 40
1
 40
1
 40
1
 10
39686.307129
 20
17114.609228
 30
0.0
 10
39618.834201
 20
17182.082156
 30
0.0
 10
39527.321273
 20
17219.988051
 30
0.0
 10
39431.900144
 20
17219.988051
 30
0.0
  0
LWPOLYLINE
  5
1e2
100
AcDbEntity
  8
0
 62
7
100
AcDbPolyline
 90
1
 70
1
 10
13139.495787
 20
17118.535244
 30
0.0
  0
SPLINE
  5
1e3
100
AcDbEntity
  8
0
 62
7
100
AcDbSpline
 70
8
 71
3
 72
8
 73
4
 74
0
 40
0
 40
0
 40
0
 40
0
 40
1
 40
1
 40
1
 40
1
 10
37440.117435
 20
17219.988051
 30
0.0
 10
37294.597660
 20
17219.988051
 30
0.0
 10
37163.406699
 20
17132.329054
 30
0.0
 10
37107.718692
 20
16997.886312
 30
0.0
  0
SPLINE
  5
1e4
100
AcDbEntity
  8
0
 62
7
100
AcDbSpline
 70
8
 71
3
 72
8
 73
4
 74
0
 40
0
 40
0
 40
0
 40
0
 40
1
 40
1
 40
1
 40
1
 10
37107.718692
 20
16997.886312
 30
0.0
 10
37052.030685
 20
16863.443570
 30
0.0
 10
37082.812431
 20
16708.693280
 30
0.0
 10
37185.710451
 20
16605.795260
 30
0.0
  0
SPLINE
  5
1e5
100
AcDbEntity
  8
0
 62
7
100
AcDbSpline
 70
8
 71
3
 72
8
 73
4
 74
0
 40
0
 40
0
 40
0
 40
0
 40
1
 40
1
 40
1
 40
1
 10
37185.710451
 20
16605.795260
 30
0.0
 10
37288.608471
 20
16502.897240
 30
0.0
 10
37443.358761
 20
16472.115494
 30
0.0
 10
37577.801503
 20
16527.803501
 30
0.0
  0
SPLINE
  5
1e6
100
AcDbEntity
  8
0
 62
7
100
AcDbSpline
 70
8
 71
3
 72
8
 73
4
 74
0
 40
0
 40
0
 40
0
 40
0
 40
1
 40
1
 40
1
 40
1
 10
37577.801503
 20
16527.803501
 30
0.0
 10
37712.244245
 20
16583.491508
 30
0.0
 10
37799.903242
 20
16714.682469
 30
0.0
 10
37799.903242
 20
16860.202244
 30
0.0
  0
SPLINE
  5
1e7
100
AcDbEntity
  8
0
 62
7
100
AcDbSpline
 70
8
 71
3
 72
8
 73
4
 74
0
 40
0
 40
0
 40
0
 40
0
 40
1
 40
1
 40
1
 40
1
 10
37799.903242
 20
16860.202244
 30
0.0
 10
37799.903242
 20
16955.623373
 30
0.0
 10
37761.997347
 20
17047.136301
 30
0.0
 10
37694.524419
 20
17114.609228
 30
0.0
  0
SPLINE
  5
1e8
100
AcDbEntity
  8
0
 62
7
100
AcDbSpline
 70
8
 71
3
 72
8
 73
4
 74
0
 40
0
 40
0
 40
0
 40
0
 40
1
 40
1
 40
1
 40
1
 10
37694.524419
 20
17114.609228
 30
0.0
 10
37627.051492
 20
17182.082156
 30
0.0
 10
37535.538564
 20
17219.988051
 30
0.0
 10
37440.117435
 20
17219.988051
 30
0.0
  0
LWPOLYLINE
  5
1e9
100
AcDbEntity
  8
0
 62
7
100
AcDbPolyline
 90
1
 70
1
 10
39431.900144
 20
17219.988051
 30
0.0
  0
SPLINE
  5
1ea
100
AcDbEntity
  8
0
 62
7
100
AcDbSpline
 70
8
 71
3
 72
8
 73
4
 74
0
 40
0
 40
0
 40
0
 40
0
 40
1
 40
1
 40
1
 40
1
 10
35448.599309
 20
17219.988051
 30
0.0
 10
35303.079534
 20
17219.988051
 30
0.0
 10
35171.888573
 20
17132.329054
 30
0.0
 10
35116.200566
 20
16997.886312
 30
0.0
  0
SPLINE
  5
1eb
100
AcDbEntity
  8
0
 62
7
100
AcDbSpline
 70
8
 71
3
 72
8
 73
4
 74
0
 40
0
 40
0
 40
0
 40
0
 40
1
 40
1
 40
1
 40
1
 10
35116.200566
 20
16997.886312
 30
0.0
 10
35060.512559
 20
16863.443570
 30
0.0
 10
35091.294305
 20
16708.693280
 30
0.0
 10
35194.192325
 20
16605.795260
 30
0.0
  0
SPLINE
  5
1ec
100
AcDbEntity
  8
0
 62
7
100
AcDbSpline
 70
8
 71
3
 72
8
 73
4
 74
0
 40
0
 40
0
 40
0
 40
0
 40
1
 40
1
 40
1
 40
1
 10
35194.192325
 20
16605.795260
 30
0.0
 10
35297.090345
 20
16502.897240
 30
0.0
 10
35451.840635
 20
16472.115494
 30
0.0
 10
35586.283377
 20
16527.803501
 30
0.0
  0
SPLINE
  5
1ed
100
AcDbEntity
  8
0
 62
7
100
AcDbSpline
 70
8
 71
3
 72
8
 73
4
 74
0
 40
0
 40
0
 40
0
 40
0
 40
1
 40
1
 40
1
 40
1
 10
35586.283377
 20
16527.803501
 30
0.0
 10
35720.726119
 20
16583.491508
 30
0.0
 10
35808.385117
 20
16714.682469
 30
0.0
 10
35808.385117
 20
16860.202244
 30
0.0
  0
SPLINE
  5
1ee
100
AcDbEntity
  8
0
 62
7
100
AcDbSpline
 70
8
 71
3
 72
8
 73
4
 74
0
 40
0
 40
0
 40
0
 40
0
 40
1
 40
1
 40
1
 40
1
 10
35808.385117
 20
16860.202244
 30
0.0
 10
35808.385117
 20
16955.623373
 30
0.0
 10
35770.479221
 20
17047.136301
 30
0.0
 10
35703.006293
 20
17114.609228
 30
0.0
  0
SPLINE
  5
1ef
100
AcDbEntity
  8
0
 62
7
100
AcDbSpline
 70
8
 71
3
 72
8
 73
4
 74
0
 40
0
 40
0
 40
0
 40
0
 40
1
 40
1
 40
1
 40
1
 10
35703.006293
 20
17114.609228
 30
0.0
 10
35635.533366
 20
17182.082156
 30
0.0
 10
35544.020438
 20
17219.988051
 30
0.0
 10
35448.599309
 20
17219.988051
 30
0.0
  0
LWPOLYLINE
  5
1f0
100
AcDbEntity
  8
0
 62
7
100
AcDbPolyline
 90
1
 70
1
 10
37440.117435
 20
17219.988051
 30
0.0
  0
SPLINE
  5
1f1
100
AcDbEntity
  8
0
 62
7
100
AcDbSpline
 70
8
 71
3
 72
8
 73
4
 74
0
 40
0
 40
0
 40
0
 40
0
 40
1
 40
1
 40
1
 40
1
 10
33456.816600
 20
17219.988051
 30
0.0
 10
33311.296825
 20
17219.988051
 30
0.0
 10
33180.105864
 20
17132.329054
 30
0.0
 10
33124.417857
 20
16997.886312
 30
0.0
  0
SPLINE
  5
1f2
100
AcDbEntity
  8
0
 62
7
100
AcDbSpline
 70
8
 71
3
 72
8
 73
4
 74
0
 40
0
 40
0
 40
0
 40
0
 40
1
 40
1
 40
1
 40
1
 10
33124.417857
 20
16997.886312
 30
0.0
 10
33068.729850
 20
16863.443570
 30
0.0
 10
33099.511596
 20
16708.693280
 30
0.0
 10
33202.409616
 20
16605.795260
 30
0.0
  0
SPLINE
  5
1f3
100
AcDbEntity
  8
0
 62
7
100
AcDbSpline
 70
8
 71
3
 72
8
 73
4
 74
0
 40
0
 40
0
 40
0
 40
0
 40
1
 40
1
 40
1
 40
1
 10
33202.409616
 20
16605.795260
 30
0.0
 10
33305.307636
 20
16502.897240
 30
0.0
 10
33460.057926
 20
16472.115494
 30
0.0
 10
33594.500668
 20
16527.803501
 30
0.0
  0
SPLINE
  5
1f4
100
AcDbEntity
  8
0
 62
7
100
AcDbSpline
 70
8
 71
3
 72
8
 73
4
 74
0
 40
0
 40
0
 40
0
 40
0
 40
1
 40
1
 40
1
 40
1
 10
33594.500668
 20
16527.803501
 30
0.0
 10
33728.943410
 20
16583.491508
 30
0.0
 10
33816.602407
 20
16714.682469
 30
0.0
 10
33816.602407
 20
16860.202244
 30
0.0
  0
SPLINE
  5
1f5
100
AcDbEntity
  8
0
 62
7
100
AcDbSpline
 70
8
 71
3
 72
8
 73
4
 74
0
 40
0
 40
0
 40
0
 40
0
 40
1
 40
1
 40
1
 40
1
 10
33816.602407
 20
16860.202244
 30
0.0
 10
33816.602407
 20
16955.623373
 30
0.0
 10
33778.696511
 20
17047.136301
 30
0.0
 10
33711.223584
 20
17114.609228
 30
0.0
  0
SPLINE
  5
1f6
100
AcDbEntity
  8
0
 62
7
100
AcDbSpline
 70
8
 71
3
 72
8
 73
4
 74
0
 40
0
 40
0
 40
0
 40
0
 40
1
 40
1
 40
1
 40
1
 10
33711.223584
 20
17114.609228
 30
0.0
 10
33643.750657
 20
17182.082156
 30
0.0
 10
33552.237729
 20
17219.988051
 30
0.0
 10
33456.816600
 20
17219.988051
 30
0.0
  0
LWPOLYLINE
  5
1f7
100
AcDbEntity
  8
0
 62
7
100
AcDbPolyline
 90
1
 70
1
 10
35448.599309
 20
17219.988051
 30
0.0
  0
SPLINE
  5
1f8
100
AcDbEntity
  8
0
 62
7
100
AcDbSpline
 70
8
 71
3
 72
8
 73
4
 74
0
 40
0
 40
0
 40
0
 40
0
 40
1
 40
1
 40
1
 40
1
 10
31465.298474
 20
17219.988051
 30
0.0
 10
31319.778699
 20
17219.988051
 30
0.0
 10
31188.587738
 20
17132.329054
 30
0.0
 10
31132.899731
 20
16997.886312
 30
0.0
  0
SPLINE
  5
1f9
100
AcDbEntity
  8
0
 62
7
100
AcDbSpline
 70
8
 71
3
 72
8
 73
4
 74
0
 40
0
 40
0
 40
0
 40
0
 40
1
 40
1
 40
1
 40
1
 10
31132.899731
 20
16997.886312
 30
0.0
 10
31077.211724
 20
16863.443570
 30
0.0
 10
31107.993470
 20
16708.693280
 30
0.0
 10
31210.891490
 20
16605.795260
 30
0.0
  0
SPLINE
  5
1fa
100
AcDbEntity
  8
0
 62
7
100
AcDbSpline
 70
8
 71
3
 72
8
 73
4
 74
0
 40
0
 40
0
 40
0
 40
0
 40
1
 40
1
 40
1
 40
1
 10
31210.891490
 20
16605.795260
 30
0.0
 10
31313.789510
 20
16502.897240
 30
0.0
 10
31468.539800
 20
16472.115494
 30
0.0
 10
31602.982542
 20
16527.803501
 30
0.0
  0
SPLINE
  5
1fb
100
AcDbEntity
  8
0
 62
7
100
AcDbSpline
 70
8
 71
3
 72
8
 73
4
 74
0
 40
0
 40
0
 40
0
 40
0
 40
1
 40
1
 40
1
 40
1
 10
31602.982542
 20
16527.803501
 30
0.0
 10
31737.425284
 20
16583.491508
 30
0.0
 10
31825.084281
 20
16714.682469
 30
0.0
 10
31825.084281
 20
16860.202244
 30
0.0
  0
SPLINE
  5
1fc
100
AcDbEntity
  8
0
 62
7
100
AcDbSpline
 70
8
 71
3
 72
8
 73
4
 74
0
 40
0
 40
0
 40
0
 40
0
 40
1
 40
1
 40
1
 40
1
 10
31825.084281
 20
16860.202244
 30
0.0
 10
31825.084281
 20
16955.623373
 30
0.0
 10
31787.178385
 20
17047.136301
 30
0.0
 10
31719.705458
 20
17114.609228
 30
0.0
  0
SPLINE
  5
1fd
100
AcDbEntity
  8
0
 62
7
100
AcDbSpline
 70
8
 71
3
 72
8
 73
4
 74
0
 40
0
 40
0
 40
0
 40
0
 40
1
 40
1
 40
1
 40
1
 10
31719.705458
 20
17114.609228
 30
0.0
 10
31652.232531
 20
17182.082156
 30
0.0
 10
31560.719603
 20
17219.988051
 30
0.0
 10
31465.298474
 20
17219.988051
 30
0.0
  0
LWPOLYLINE
  5
1fe
100
AcDbEntity
  8
0
 62
7
100
AcDbPolyline
 90
1
 70
1
 10
33456.816600
 20
17219.988051
 30
0.0
  0
SPLINE
  5
1ff
100
AcDbEntity
  8
0
 62
7
100
AcDbSpline
 70
8
 71
3
 72
8
 73
4
 74
0
 40
0
 40
0
 40
0
 40
0
 40
1
 40
1
 40
1
 40
1
 10
29473.515765
 20
17219.988051
 30
0.0
 10
29327.995990
 20
17219.988051
 30
0.0
 10
29196.805028
 20
17132.329054
 30
0.0
 10
29141.117021
 20
16997.886312
 30
0.0
  0
SPLINE
  5
200
100
AcDbEntity
  8
0
 62
7
100
AcDbSpline
 70
8
 71
3
 72
8
 73
4
 74
0
 40
0
 40
0
 40
0
 40
0
 40
1
 40
1
 40
1
 40
1
 10
29141.117021
 20
16997.886312
 30
0.0
 10
29085.429014
 20
16863.443570
 30
0.0
 10
29116.210761
 20
16708.693280
 30
0.0
 10
29219.108781
 20
16605.795260
 30
0.0
  0
SPLINE
  5
201
100
AcDbEntity
  8
0
 62
7
100
AcDbSpline
 70
8
 71
3
 72
8
 73
4
 74
0
 40
0
 40
0
 40
0
 40
0
 40
1
 40
1
 40
1
 40
1
 10
29219.108781
 20
16605.795260
 30
0.0
 10
29322.006801
 20
16502.897240
 30
0.0
 10
29476.757091
 20
16472.115494
 30
0.0
 10
29611.199832
 20
16527.803501
 30
0.0
  0
SPLINE
  5
202
100
AcDbEntity
  8
0
 62
7
100
AcDbSpline
 70
8
 71
3
 72
8
 73
4
 74
0
 40
0
 40
0
 40
0
 40
0
 40
1
 40
1
 40
1
 40
1
 10
29611.199832
 20
16527.803501
 30
0.0
 10
29745.642574
 20
16583.491508
 30
0.0
 10
29833.301572
 20
16714.682469
 30
0.0
 10
29833.301572
 20
16860.202244
 30
0.0
  0
SPLINE
  5
203
100
AcDbEntity
  8
0
 62
7
100
AcDbSpline
 70
8
 71
3
 72
8
 73
4
 74
0
 40
0
 40
0
 40
0
 40
0
 40
1
 40
1
 40
1
 40
1
 10
29833.301572
 20
16860.202244
 30
0.0
 10
29833.301572
 20
16955.623373
 30
0.0
 10
29795.395676
 20
17047.136301
 30
0.0
 10
29727.922749
 20
17114.609228
 30
0.0
  0
SPLINE
  5
204
100
AcDbEntity
  8
0
 62
7
100
AcDbSpline
 70
8
 71
3
 72
8
 73
4
 74
0
 40
0
 40
0
 40
0
 40
0
 40
1
 40
1
 40
1
 40
1
 10
29727.922749
 20
17114.609228
 30
0.0
 10
29660.449822
 20
17182.082156
 30
0.0
 10
29568.936894
 20
17219.988051
 30
0.0
 10
29473.515765
 20
17219.988051
 30
0.0
  0
LWPOLYLINE
  5
205
100
AcDbEntity
  8
0
 62
7
100
AcDbPolyline
 90
1
 70
1
 10
31465.298474
 20
17219.988051
 30
0.0
  0
SPLINE
  5
206
100
AcDbEntity
  8
0
 62
7
100
AcDbSpline
 70
8
 71
3
 72
8
 73
4
 74
0
 40
0
 40
0
 40
0
 40
0
 40
1
 40
1
 40
1
 40
1
 10
11098.685537
 20
17204.988880
 30
0.0
 10
10953.165751
 20
17204.988880
 30
0.0
 10
10821.974780
 20
17117.329876
 30
0.0
 10
10766.286769
 20
16982.887124
 30
0.0
  0
SPLINE
  5
207
100
AcDbEntity
  8
0
 62
7
100
AcDbSpline
 70
8
 71
3
 72
8
 73
4
 74
0
 40
0
 40
0
 40
0
 40
0
 40
1
 40
1
 40
1
 40
1
 10
10766.286769
 20
16982.887124
 30
0.0
 10
10710.598758
 20
16848.444372
 30
0.0
 10
10741.380507
 20
16693.694071
 30
0.0
 10
10844.278534
 20
16590.796043
 30
0.0
  0
SPLINE
  5
208
100
AcDbEntity
  8
0
 62
7
100
AcDbSpline
 70
8
 71
3
 72
8
 73
4
 74
0
 40
0
 40
0
 40
0
 40
0
 40
1
 40
1
 40
1
 40
1
 10
10844.278534
 20
16590.796043
 30
0.0
 10
10947.176562
 20
16487.898016
 30
0.0
 10
11101.926863
 20
16457.116267
 30
0.0
 10
11236.369615
 20
16512.804278
 30
0.0
  0
SPLINE
  5
209
100
AcDbEntity
  8
0
 62
7
100
AcDbSpline
 70
8
 71
3
 72
8
 73
4
 74
0
 40
0
 40
0
 40
0
 40
0
 40
1
 40
1
 40
1
 40
1
 10
11236.369615
 20
16512.804278
 30
0.0
 10
11370.812367
 20
16568.492289
 30
0.0
 10
11458.471371
 20
16699.683260
 30
0.0
 10
11458.471371
 20
16845.203046
 30
0.0
  0
SPLINE
  5
20a
100
AcDbEntity
  8
0
 62
7
100
AcDbSpline
 70
8
 71
3
 72
8
 73
4
 74
0
 40
0
 40
0
 40
0
 40
0
 40
1
 40
1
 40
1
 40
1
 10
11458.471371
 20
16845.203046
 30
0.0
 10
11458.471371
 20
16940.624182
 30
0.0
 10
11420.565472
 20
17032.137117
 30
0.0
 10
11353.092540
 20
17099.610049
 30
0.0
  0
SPLINE
  5
20b
100
AcDbEntity
  8
0
 62
7
100
AcDbSpline
 70
8
 71
3
 72
8
 73
4
 74
0
 40
0
 40
0
 40
0
 40
0
 40
1
 40
1
 40
1
 40
1
 10
11353.092540
 20
17099.610049
 30
0.0
 10
11285.619607
 20
17167.082981
 30
0.0
 10
11194.106673
 20
17204.988880
 30
0.0
 10
11098.685537
 20
17204.988880
 30
0.0
  0
LWPOLYLINE
  5
20c
100
AcDbEntity
  8
0
 62
7
100
AcDbPolyline
 90
1
 70
1
 10
29473.515765
 20
17219.988051
 30
0.0
  0
SPLINE
  5
20d
100
AcDbEntity
  8
0
 62
7
100
AcDbSpline
 70
8
 71
3
 72
8
 73
4
 74
0
 40
0
 40
0
 40
0
 40
0
 40
1
 40
1
 40
1
 40
1
 10
9103.727829
 20
17204.988853
 30
0.0
 10
8958.208053
 20
17204.988853
 30
0.0
 10
8827.017092
 20
17117.329856
 30
0.0
 10
8771.329085
 20
16982.887114
 30
0.0
  0
SPLINE
  5
20e
100
AcDbEntity
  8
0
 62
7
100
AcDbSpline
 70
8
 71
3
 72
8
 73
4
 74
0
 40
0
 40
0
 40
0
 40
0
 40
1
 40
1
 40
1
 40
1
 10
8771.329085
 20
16982.887114
 30
0.0
 10
8715.641078
 20
16848.444372
 30
0.0
 10
8746.422825
 20
16693.694082
 30
0.0
 10
8849.320845
 20
16590.796062
 30
0.0
  0
SPLINE
  5
20f
100
AcDbEntity
  8
0
 62
7
100
AcDbSpline
 70
8
 71
3
 72
8
 73
4
 74
0
 40
0
 40
0
 40
0
 40
0
 40
1
 40
1
 40
1
 40
1
 10
8849.320845
 20
16590.796062
 30
0.0
 10
8952.218864
 20
16487.898042
 30
0.0
 10
9106.969154
 20
16457.116296
 30
0.0
 10
9241.411896
 20
16512.804303
 30
0.0
  0
SPLINE
  5
210
100
AcDbEntity
  8
0
 62
7
100
AcDbSpline
 70
8
 71
3
 72
8
 73
4
 74
0
 40
0
 40
0
 40
0
 40
0
 40
1
 40
1
 40
1
 40
1
 10
9241.411896
 20
16512.804303
 30
0.0
 10
9375.854638
 20
16568.492310
 30
0.0
 10
9463.513636
 20
16699.683271
 30
0.0
 10
9463.513636
 20
16845.203046
 30
0.0
  0
SPLINE
  5
211
100
AcDbEntity
  8
0
 62
7
100
AcDbSpline
 70
8
 71
3
 72
8
 73
4
 74
0
 40
0
 40
0
 40
0
 40
0
 40
1
 40
1
 40
1
 40
1
 10
9463.513636
 20
16845.203046
 30
0.0
 10
9463.513636
 20
16940.624175
 30
0.0
 10
9425.607740
 20
17032.137103
 30
0.0
 10
9358.134813
 20
17099.610030
 30
0.0
  0
SPLINE
  5
212
100
AcDbEntity
  8
0
 62
7
100
AcDbSpline
 70
8
 71
3
 72
8
 73
4
 74
0
 40
0
 40
0
 40
0
 40
0
 40
1
 40
1
 40
1
 40
1
 10
9358.134813
 20
17099.610030
 30
0.0
 10
9290.661885
 20
17167.082958
 30
0.0
 10
9199.148958
 20
17204.988853
 30
0.0
 10
9103.727829
 20
17204.988853
 30
0.0
  0
LWPOLYLINE
  5
213
100
AcDbEntity
  8
0
 62
7
100
AcDbPolyline
 90
1
 70
1
 10
11098.685537
 20
17204.988880
 30
0.0
  0
SPLINE
  5
214
100
AcDbEntity
  8
0
 62
7
100
AcDbSpline
 70
8
 71
3
 72
8
 73
4
 74
0
 40
0
 40
0
 40
0
 40
0
 40
1
 40
1
 40
1
 40
1
 10
7108.770120
 20
17204.988853
 30
0.0
 10
6963.250345
 20
17204.988853
 30
0.0
 10
6832.059384
 20
17117.329856
 30
0.0
 10
6776.371377
 20
16982.887114
 30
0.0
  0
SPLINE
  5
215
100
AcDbEntity
  8
0
 62
7
100
AcDbSpline
 70
8
 71
3
 72
8
 73
4
 74
0
 40
0
 40
0
 40
0
 40
0
 40
1
 40
1
 40
1
 40
1
 10
6776.371377
 20
16982.887114
 30
0.0
 10
6720.683370
 20
16848.444372
 30
0.0
 10
6751.465116
 20
16693.694082
 30
0.0
 10
6854.363136
 20
16590.796062
 30
0.0
  0
SPLINE
  5
216
100
AcDbEntity
  8
0
 62
7
100
AcDbSpline
 70
8
 71
3
 72
8
 73
4
 74
0
 40
0
 40
0
 40
0
 40
0
 40
1
 40
1
 40
1
 40
1
 10
6854.363136
 20
16590.796062
 30
0.0
 10
6957.261156
 20
16487.898042
 30
0.0
 10
7112.011446
 20
16457.116296
 30
0.0
 10
7246.454188
 20
16512.804303
 30
0.0
  0
SPLINE
  5
217
100
AcDbEntity
  8
0
 62
7
100
AcDbSpline
 70
8
 71
3
 72
8
 73
4
 74
0
 40
0
 40
0
 40
0
 40
0
 40
1
 40
1
 40
1
 40
1
 10
7246.454188
 20
16512.804303
 30
0.0
 10
7380.896930
 20
16568.492310
 30
0.0
 10
7468.555928
 20
16699.683271
 30
0.0
 10
7468.555928
 20
16845.203046
 30
0.0
  0
SPLINE
  5
218
100
AcDbEntity
  8
0
 62
7
100
AcDbSpline
 70
8
 71
3
 72
8
 73
4
 74
0
 40
0
 40
0
 40
0
 40
0
 40
1
 40
1
 40
1
 40
1
 10
7468.555928
 20
16845.203046
 30
0.0
 10
7468.555928
 20
16940.624175
 30
0.0
 10
7430.650032
 20
17032.137103
 30
0.0
 10
7363.177105
 20
17099.610030
 30
0.0
  0
SPLINE
  5
219
100
AcDbEntity
  8
0
 62
7
100
AcDbSpline
 70
8
 71
3
 72
8
 73
4
 74
0
 40
0
 40
0
 40
0
 40
0
 40
1
 40
1
 40
1
 40
1
 10
7363.177105
 20
17099.610030
 30
0.0
 10
7295.704177
 20
17167.082958
 30
0.0
 10
7204.191249
 20
17204.988853
 30
0.0
 10
7108.770120
 20
17204.988853
 30
0.0
  0
LWPOLYLINE
  5
21a
100
AcDbEntity
  8
0
 62
7
100
AcDbPolyline
 90
1
 70
1
 10
9103.727829
 20
17204.988853
 30
0.0
  0
SPLINE
  5
21b
100
AcDbEntity
  8
0
 62
7
100
AcDbSpline
 70
8
 71
3
 72
8
 73
4
 74
0
 40
0
 40
0
 40
0
 40
0
 40
1
 40
1
 40
1
 40
1
 10
5113.812412
 20
17204.988853
 30
0.0
 10
4915.108198
 20
17204.988853
 30
0.0
 10
4754.026605
 20
17043.907261
 30
0.0
 10
4754.026605
 20
16845.203046
 30
0.0
  0
SPLINE
  5
21c
100
AcDbEntity
  8
0
 62
7
100
AcDbSpline
 70
8
 71
3
 72
8
 73
4
 74
0
 40
0
 40
0
 40
0
 40
0
 40
1
 40
1
 40
1
 40
1
 10
4754.026605
 20
16845.203046
 30
0.0
 10
4754.026605
 20
16646.498832
 30
0.0
 10
4915.108198
 20
16485.417239
 30
0.0
 10
5113.812412
 20
16485.417239
 30
0.0
  0
SPLINE
  5
21d
100
AcDbEntity
  8
0
 62
7
100
AcDbSpline
 70
8
 71
3
 72
8
 73
4
 74
0
 40
0
 40
0
 40
0
 40
0
 40
1
 40
1
 40
1
 40
1
 10
5113.812412
 20
16485.417239
 30
0.0
 10
5312.516627
 20
16485.417239
 30
0.0
 10
5473.598219
 20
16646.498832
 30
0.0
 10
5473.598219
 20
16845.203046
 30
0.0
  0
SPLINE
  5
21e
100
AcDbEntity
  8
0
 62
7
100
AcDbSpline
 70
8
 71
3
 72
8
 73
4
 74
0
 40
0
 40
0
 40
0
 40
0
 40
1
 40
1
 40
1
 40
1
 10
5473.598219
 20
16845.203046
 30
0.0
 10
5473.598219
 20
16940.624175
 30
0.0
 10
5435.692324
 20
17032.137103
 30
0.0
 10
5368.219396
 20
17099.610030
 30
0.0
  0
SPLINE
  5
21f
100
AcDbEntity
  8
0
 62
7
100
AcDbSpline
 70
8
 71
3
 72
8
 73
4
 74
0
 40
0
 40
0
 40
0
 40
0
 40
1
 40
1
 40
1
 40
1
 10
5368.219396
 20
17099.610030
 30
0.0
 10
5300.746469
 20
17167.082958
 30
0.0
 10
5209.233541
 20
17204.988853
 30
0.0
 10
5113.812412
 20
17204.988853
 30
0.0
  0
LWPOLYLINE
  5
220
100
AcDbEntity
  8
0
 62
7
100
AcDbPolyline
 90
1
 70
1
 10
7108.770120
 20
17204.988853
 30
0.0
  0
SPLINE
  5
221
100
AcDbEntity
  8
0
 62
7
100
AcDbSpline
 70
8
 71
3
 72
8
 73
4
 74
0
 40
0
 40
0
 40
0
 40
0
 40
1
 40
1
 40
1
 40
1
 10
3118.854439
 20
17204.988853
 30
0.0
 10
2973.334664
 20
17204.988853
 30
0.0
 10
2842.143703
 20
17117.329856
 30
0.0
 10
2786.455696
 20
16982.887114
 30
0.0
  0
SPLINE
  5
222
100
AcDbEntity
  8
0
 62
7
100
AcDbSpline
 70
8
 71
3
 72
8
 73
4
 74
0
 40
0
 40
0
 40
0
 40
0
 40
1
 40
1
 40
1
 40
1
 10
2786.455696
 20
16982.887114
 30
0.0
 10
2730.767689
 20
16848.444372
 30
0.0
 10
2761.549435
 20
16693.694082
 30
0.0
 10
2864.447455
 20
16590.796062
 30
0.0
  0
SPLINE
  5
223
100
AcDbEntity
  8
0
 62
7
100
AcDbSpline
 70
8
 71
3
 72
8
 73
4
 74
0
 40
0
 40
0
 40
0
 40
0
 40
1
 40
1
 40
1
 40
1
 10
2864.447455
 20
16590.796062
 30
0.0
 10
2967.345475
 20
16487.898042
 30
0.0
 10
3122.095765
 20
16457.116296
 30
0.0
 10
3256.538507
 20
16512.804303
 30
0.0
  0
SPLINE
  5
224
100
AcDbEntity
  8
0
 62
7
100
AcDbSpline
 70
8
 71
3
 72
8
 73
4
 74
0
 40
0
 40
0
 40
0
 40
0
 40
1
 40
1
 40
1
 40
1
 10
3256.538507
 20
16512.804303
 30
0.0
 10
3390.981249
 20
16568.492310
 30
0.0
 10
3478.640247
 20
16699.683271
 30
0.0
 10
3478.640247
 20
16845.203046
 30
0.0
  0
SPLINE
  5
225
100
AcDbEntity
  8
0
 62
7
100
AcDbSpline
 70
8
 71
3
 72
8
 73
4
 74
0
 40
0
 40
0
 40
0
 40
0
 40
1
 40
1
 40
1
 40
1
 10
3478.640247
 20
16845.203046
 30
0.0
 10
3478.640247
 20
16940.624175
 30
0.0
 10
3440.734351
 20
17032.137103
 30
0.0
 10
3373.261423
 20
17099.610030
 30
0.0
  0
SPLINE
  5
226
100
AcDbEntity
  8
0
 62
7
100
AcDbSpline
 70
8
 71
3
 72
8
 73
4
 74
0
 40
0
 40
0
 40
0
 40
0
 40
1
 40
1
 40
1
 40
1
 10
3373.261423
 20
17099.610030
 30
0.0
 10
3305.788496
 20
17167.082958
 30
0.0
 10
3214.275568
 20
17204.988853
 30
0.0
 10
3118.854439
 20
17204.988853
 30
0.0
  0
LWPOLYLINE
  5
227
100
AcDbEntity
  8
0
 62
7
100
AcDbPolyline
 90
1
 70
1
 10
5113.812412
 20
17204.988853
 30
0.0
  0
SPLINE
  5
228
100
AcDbEntity
  8
0
 62
7
100
AcDbSpline
 70
8
 71
3
 72
8
 73
4
 74
0
 40
0
 40
0
 40
0
 40
0
 40
1
 40
1
 40
1
 40
1
 10
1123.883502
 20
17204.988853
 30
0.0
 10
978.363727
 20
17204.988853
 30
0.0
 10
847.172766
 20
17117.329856
 30
0.0
 10
791.484759
 20
16982.887114
 30
0.0
  0
SPLINE
  5
229
100
AcDbEntity
  8
0
 62
7
100
AcDbSpline
 70
8
 71
3
 72
8
 73
4
 74
0
 40
0
 40
0
 40
0
 40
0
 40
1
 40
1
 40
1
 40
1
 10
791.484759
 20
16982.887114
 30
0.0
 10
735.796752
 20
16848.444372
 30
0.0
 10
766.578498
 20
16693.694082
 30
0.0
 10
869.476518
 20
16590.796062
 30
0.0
  0
SPLINE
  5
22a
100
AcDbEntity
  8
0
 62
7
100
AcDbSpline
 70
8
 71
3
 72
8
 73
4
 74
0
 40
0
 40
0
 40
0
 40
0
 40
1
 40
1
 40
1
 40
1
 10
869.476518
 20
16590.796062
 30
0.0
 10
972.374538
 20
16487.898042
 30
0.0
 10
1127.124828
 20
16457.116296
 30
0.0
 10
1261.567570
 20
16512.804303
 30
0.0
  0
SPLINE
  5
22b
100
AcDbEntity
  8
0
 62
7
100
AcDbSpline
 70
8
 71
3
 72
8
 73
4
 74
0
 40
0
 40
0
 40
0
 40
0
 40
1
 40
1
 40
1
 40
1
 10
1261.567570
 20
16512.804303
 30
0.0
 10
1396.010312
 20
16568.492310
 30
0.0
 10
1483.669309
 20
16699.683271
 30
0.0
 10
1483.669309
 20
16845.203046
 30
0.0
  0
SPLINE
  5
22c
100
AcDbEntity
  8
0
 62
7
100
AcDbSpline
 70
8
 71
3
 72
8
 73
4
 74
0
 40
0
 40
0
 40
0
 40
0
 40
1
 40
1
 40
1
 40
1
 10
1483.669309
 20
16845.203046
 30
0.0
 10
1483.669309
 20
17043.907261
 30
0.0
 10
1322.587717
 20
17204.988853
 30
0.0
 10
1123.883502
 20
17204.988853
 30
0.0
  0
LWPOLYLINE
  5
22d
100
AcDbEntity
  8
0
 62
7
100
AcDbPolyline
 90
1
 70
1
 10
3118.854439
 20
17204.988853
 30
0.0
  0
SPLINE
  5
22e
100
AcDbEntity
  8
0
 62
7
100
AcDbSpline
 70
8
 71
3
 72
8
 73
4
 74
0
 40
0
 40
0
 40
0
 40
0
 40
1
 40
1
 40
1
 40
1
 10
29712.434440
 20
12554.369082
 30
0.0
 10
29566.914665
 20
12554.369082
 30
0.0
 10
29435.723704
 20
12466.710084
 30
0.0
 10
29380.035697
 20
12332.267342
 30
0.0
  0
SPLINE
  5
22f
100
AcDbEntity
  8
0
 62
7
100
AcDbSpline
 70
8
 71
3
 72
8
 73
4
 74
0
 40
0
 40
0
 40
0
 40
0
 40
1
 40
1
 40
1
 40
1
 10
29380.035697
 20
12332.267342
 30
0.0
 10
29324.347689
 20
12197.824601
 30
0.0
 10
29355.129436
 20
12043.074311
 30
0.0
 10
29458.027456
 20
11940.176291
 30
0.0
  0
SPLINE
  5
230
100
AcDbEntity
  8
0
 62
7
100
AcDbSpline
 70
8
 71
3
 72
8
 73
4
 74
0
 40
0
 40
0
 40
0
 40
0
 40
1
 40
1
 40
1
 40
1
 10
29458.027456
 20
11940.176291
 30
0.0
 10
29560.925476
 20
11837.278271
 30
0.0
 10
29715.675766
 20
11806.496524
 30
0.0
 10
29850.118508
 20
11862.184531
 30
0.0
  0
SPLINE
  5
231
100
AcDbEntity
  8
0
 62
7
100
AcDbSpline
 70
8
 71
3
 72
8
 73
4
 74
0
 40
0
 40
0
 40
0
 40
0
 40
1
 40
1
 40
1
 40
1
 10
29850.118508
 20
11862.184531
 30
0.0
 10
29984.561250
 20
11917.872538
 30
0.0
 10
30072.220247
 20
12049.063500
 30
0.0
 10
30072.220247
 20
12194.583275
 30
0.0
  0
SPLINE
  5
232
100
AcDbEntity
  8
0
 62
7
100
AcDbSpline
 70
8
 71
3
 72
8
 73
4
 74
0
 40
0
 40
0
 40
0
 40
0
 40
1
 40
1
 40
1
 40
1
 10
30072.220247
 20
12194.583275
 30
0.0
 10
30072.220247
 20
12290.004404
 30
0.0
 10
30034.314351
 20
12381.517332
 30
0.0
 10
29966.841424
 20
12448.990259
 30
0.0
  0
SPLINE
  5
233
100
AcDbEntity
  8
0
 62
7
100
AcDbSpline
 70
8
 71
3
 72
8
 73
4
 74
0
 40
0
 40
0
 40
0
 40
0
 40
1
 40
1
 40
1
 40
1
 10
29966.841424
 20
12448.990259
 30
0.0
 10
29899.368497
 20
12516.463186
 30
0.0
 10
29807.855569
 20
12554.369082
 30
0.0
 10
29712.434440
 20
12554.369082
 30
0.0
  0
LWPOLYLINE
  5
234
100
AcDbEntity
  8
0
 62
7
100
AcDbPolyline
 90
1
 70
1
 10
1123.883502
 20
17204.988853
 30
0.0
  0
SPLINE
  5
235
100
AcDbEntity
  8
0
 62
7
100
AcDbSpline
 70
8
 71
3
 72
8
 73
4
 74
0
 40
0
 40
0
 40
0
 40
0
 40
1
 40
1
 40
1
 40
1
 10
22317.624161
 20
11267.504203
 30
0.0
 10
22159.631248
 20
11267.504203
 30
0.0
 10
22017.195335
 20
11172.331568
 30
0.0
 10
21956.734065
 20
11026.365150
 30
0.0
  0
SPLINE
  5
236
100
AcDbEntity
  8
0
 62
7
100
AcDbSpline
 70
8
 71
3
 72
8
 73
4
 74
0
 40
0
 40
0
 40
0
 40
0
 40
1
 40
1
 40
1
 40
1
 10
21956.734065
 20
11026.365150
 30
0.0
 10
21896.272795
 20
10880.398731
 30
0.0
 10
21929.692979
 20
10712.384116
 30
0.0
 10
22041.410840
 20
10600.666256
 30
0.0
  0
SPLINE
  5
237
100
AcDbEntity
  8
0
 62
7
100
AcDbSpline
 70
8
 71
3
 72
8
 73
4
 74
0
 40
0
 40
0
 40
0
 40
0
 40
1
 40
1
 40
1
 40
1
 10
22041.410840
 20
10600.666256
 30
0.0
 10
22153.128700
 20
10488.948396
 30
0.0
 10
22321.143315
 20
10455.528211
 30
0.0
 10
22467.109734
 20
10515.989481
 30
0.0
  0
SPLINE
  5
238
100
AcDbEntity
  8
0
 62
7
100
AcDbSpline
 70
8
 71
3
 72
8
 73
4
 74
0
 40
0
 40
0
 40
0
 40
0
 40
1
 40
1
 40
1
 40
1
 10
22467.109734
 20
10515.989481
 30
0.0
 10
22613.076152
 20
10576.450751
 30
0.0
 10
22708.248787
 20
10718.886664
 30
0.0
 10
22708.248787
 20
10876.879577
 30
0.0
  0
SPLINE
  5
239
100
AcDbEntity
  8
0
 62
7
100
AcDbSpline
 70
8
 71
3
 72
8
 73
4
 74
0
 40
0
 40
0
 40
0
 40
0
 40
1
 40
1
 40
1
 40
1
 10
22708.248787
 20
10876.879577
 30
0.0
 10
22708.248787
 20
10980.479669
 30
0.0
 10
22667.093810
 20
11079.836571
 30
0.0
 10
22593.837483
 20
11153.092899
 30
0.0
  0
SPLINE
  5
23a
100
AcDbEntity
  8
0
 62
7
100
AcDbSpline
 70
8
 71
3
 72
8
 73
4
 74
0
 40
0
 40
0
 40
0
 40
0
 40
1
 40
1
 40
1
 40
1
 10
22593.837483
 20
11153.092899
 30
0.0
 10
22520.581155
 20
11226.349226
 30
0.0
 10
22421.224253
 20
11267.504203
 30
0.0
 10
22317.624161
 20
11267.504203
 30
0.0
  0
LWPOLYLINE
  5
23b
100
AcDbEntity
  8
0
 62
7
100
AcDbPolyline
 90
1
 70
1
 10
29712.434440
 20
12554.369082
 30
0.0
  0
SPLINE
  5
23c
100
AcDbEntity
  8
0
 62
7
100
AcDbSpline
 70
8
 71
3
 72
8
 73
4
 74
0
 40
0
 40
0
 40
0
 40
0
 40
1
 40
1
 40
1
 40
1
 10
17928.055745
 20
8633.128682
 30
0.0
 10
17770.062511
 20
8633.128682
 30
0.0
 10
17627.626308
 20
8537.955854
 30
0.0
 10
17567.164915
 20
8391.989139
 30
0.0
  0
SPLINE
  5
23d
100
AcDbEntity
  8
0
 62
7
100
AcDbSpline
 70
8
 71
3
 72
8
 73
4
 74
0
 40
0
 40
0
 40
0
 40
0
 40
1
 40
1
 40
1
 40
1
 10
17567.164915
 20
8391.989139
 30
0.0
 10
17506.703522
 20
8246.022424
 30
0.0
 10
17540.123775
 20
8078.007467
 30
0.0
 10
17651.841862
 20
7966.289380
 30
0.0
  0
SPLINE
  5
23e
100
AcDbEntity
  8
0
 62
7
100
AcDbSpline
 70
8
 71
3
 72
8
 73
4
 74
0
 40
0
 40
0
 40
0
 40
0
 40
1
 40
1
 40
1
 40
1
 10
17651.841862
 20
7966.289380
 30
0.0
 10
17763.559949
 20
7854.571293
 30
0.0
 10
17931.574906
 20
7821.151040
 30
0.0
 10
18077.541621
 20
7881.612433
 30
0.0
  0
SPLINE
  5
23f
100
AcDbEntity
  8
0
 62
7
100
AcDbSpline
 70
8
 71
3
 72
8
 73
4
 74
0
 40
0
 40
0
 40
0
 40
0
 40
1
 40
1
 40
1
 40
1
 10
18077.541621
 20
7881.612433
 30
0.0
 10
18223.508336
 20
7942.073826
 30
0.0
 10
18318.681164
 20
8084.510029
 30
0.0
 10
18318.681164
 20
8242.503263
 30
0.0
  0
SPLINE
  5
240
100
AcDbEntity
  8
0
 62
7
100
AcDbSpline
 70
8
 71
3
 72
8
 73
4
 74
0
 40
0
 40
0
 40
0
 40
0
 40
1
 40
1
 40
1
 40
1
 10
18318.681164
 20
8242.503263
 30
0.0
 10
18318.681164
 20
8346.103566
 30
0.0
 10
18277.526104
 20
8445.460670
 30
0.0
 10
18204.269628
 20
8518.717146
 30
0.0
  0
SPLINE
  5
241
100
AcDbEntity
  8
0
 62
7
100
AcDbSpline
 70
8
 71
3
 72
8
 73
4
 74
0
 40
0
 40
0
 40
0
 40
0
 40
1
 40
1
 40
1
 40
1
 10
18204.269628
 20
8518.717146
 30
0.0
 10
18131.013151
 20
8591.973622
 30
0.0
 10
18031.656047
 20
8633.128682
 30
0.0
 10
17928.055745
 20
8633.128682
 30
0.0
  0
LWPOLYLINE
  5
242
100
AcDbEntity
  8
0
 62
7
100
AcDbPolyline
 90
1
 70
1
 10
22317.624161
 20
11267.504203
 30
0.0
  0
SPLINE
  5
243
100
AcDbEntity
  8
0
 62
7
100
AcDbSpline
 70
8
 71
3
 72
8
 73
4
 74
0
 40
0
 40
0
 40
0
 40
0
 40
1
 40
1
 40
1
 40
1
 10
27314.516441
 20
11632.073728
 30
0.0
 10
27156.523528
 20
11632.073728
 30
0.0
 10
27014.087615
 20
11536.901094
 30
0.0
 10
26953.626345
 20
11390.934675
 30
0.0
  0
SPLINE
  5
244
100
AcDbEntity
  8
0
 62
7
100
AcDbSpline
 70
8
 71
3
 72
8
 73
4
 74
0
 40
0
 40
0
 40
0
 40
0
 40
1
 40
1
 40
1
 40
1
 10
26953.626345
 20
11390.934675
 30
0.0
 10
26893.165075
 20
11244.968257
 30
0.0
 10
26926.585260
 20
11076.953641
 30
0.0
 10
27038.303120
 20
10965.235781
 30
0.0
  0
SPLINE
  5
245
100
AcDbEntity
  8
0
 62
7
100
AcDbSpline
 70
8
 71
3
 72
8
 73
4
 74
0
 40
0
 40
0
 40
0
 40
0
 40
1
 40
1
 40
1
 40
1
 10
27038.303120
 20
10965.235781
 30
0.0
 10
27150.020980
 20
10853.517921
 30
0.0
 10
27318.035595
 20
10820.097736
 30
0.0
 10
27464.002014
 20
10880.559006
 30
0.0
  0
SPLINE
  5
246
100
AcDbEntity
  8
0
 62
7
100
AcDbSpline
 70
8
 71
3
 72
8
 73
4
 74
0
 40
0
 40
0
 40
0
 40
0
 40
1
 40
1
 40
1
 40
1
 10
27464.002014
 20
10880.559006
 30
0.0
 10
27609.968432
 20
10941.020276
 30
0.0
 10
27705.141067
 20
11083.456190
 30
0.0
 10
27705.141067
 20
11241.449103
 30
0.0
  0
SPLINE
  5
247
100
AcDbEntity
  8
0
 62
7
100
AcDbSpline
 70
8
 71
3
 72
8
 73
4
 74
0
 40
0
 40
0
 40
0
 40
0
 40
1
 40
1
 40
1
 40
1
 10
27705.141067
 20
11241.449103
 30
0.0
 10
27705.141067
 20
11345.049195
 30
0.0
 10
27663.986091
 20
11444.406097
 30
0.0
 10
27590.729763
 20
11517.662424
 30
0.0
  0
SPLINE
  5
248
100
AcDbEntity
  8
0
 62
7
100
AcDbSpline
 70
8
 71
3
 72
8
 73
4
 74
0
 40
0
 40
0
 40
0
 40
0
 40
1
 40
1
 40
1
 40
1
 10
27590.729763
 20
11517.662424
 30
0.0
 10
27517.473435
 20
11590.918752
 30
0.0
 10
27418.116533
 20
11632.073728
 30
0.0
 10
27314.516441
 20
11632.073728
 30
0.0
  0
LWPOLYLINE
  5
249
100
AcDbEntity
  8
0
 62
7
100
AcDbPolyline
 90
1
 70
1
 10
17928.055745
 20
8633.128682
 30
0.0
  0
SPLINE
  5
24a
100
AcDbEntity
  8
0
 62
7
100
AcDbSpline
 70
8
 71
3
 72
8
 73
4
 74
0
 40
0
 40
0
 40
0
 40
0
 40
1
 40
1
 40
1
 40
1
 10
38575.973329
 20
14986.248246
 30
0.0
 10
38417.980416
 20
14986.248246
 30
0.0
 10
38275.544503
 20
14891.075611
 30
0.0
 10
38215.083233
 20
14745.109193
 30
0.0
  0
SPLINE
  5
24b
100
AcDbEntity
  8
0
 62
7
100
AcDbSpline
 70
8
 71
3
 72
8
 73
4
 74
0
 40
0
 40
0
 40
0
 40
0
 40
1
 40
1
 40
1
 40
1
 10
38215.083233
 20
14745.109193
 30
0.0
 10
38154.621963
 20
14599.142774
 30
0.0
 10
38188.042148
 20
14431.128159
 30
0.0
 10
38299.760008
 20
14319.410299
 30
0.0
  0
SPLINE
  5
24c
100
AcDbEntity
  8
0
 62
7
100
AcDbSpline
 70
8
 71
3
 72
8
 73
4
 74
0
 40
0
 40
0
 40
0
 40
0
 40
1
 40
1
 40
1
 40
1
 10
38299.760008
 20
14319.410299
 30
0.0
 10
38411.477868
 20
14207.692439
 30
0.0
 10
38579.492483
 20
14174.272254
 30
0.0
 10
38725.458902
 20
14234.733524
 30
0.0
  0
SPLINE
  5
24d
100
AcDbEntity
  8
0
 62
7
100
AcDbSpline
 70
8
 71
3
 72
8
 73
4
 74
0
 40
0
 40
0
 40
0
 40
0
 40
1
 40
1
 40
1
 40
1
 10
38725.458902
 20
14234.733524
 30
0.0
 10
38871.425320
 20
14295.194794
 30
0.0
 10
38966.597955
 20
14437.630707
 30
0.0
 10
38966.597955
 20
14595.623620
 30
0.0
  0
SPLINE
  5
24e
100
AcDbEntity
  8
0
 62
7
100
AcDbSpline
 70
8
 71
3
 72
8
 73
4
 74
0
 40
0
 40
0
 40
0
 40
0
 40
1
 40
1
 40
1
 40
1
 10
38966.597955
 20
14595.623620
 30
0.0
 10
38966.597955
 20
14699.223712
 30
0.0
 10
38925.442979
 20
14798.580614
 30
0.0
 10
38852.186651
 20
14871.836942
 30
0.0
  0
SPLINE
  5
24f
100
AcDbEntity
  8
0
 62
7
100
AcDbSpline
 70
8
 71
3
 72
8
 73
4
 74
0
 40
0
 40
0
 40
0
 40
0
 40
1
 40
1
 40
1
 40
1
 10
38852.186651
 20
14871.836942
 30
0.0
 10
38778.930323
 20
14945.093270
 30
0.0
 10
38679.573421
 20
14986.248246
 30
0.0
 10
38575.973329
 20
14986.248246
 30
0.0
  0
LWPOLYLINE
  5
250
100
AcDbEntity
  8
0
 62
7
100
AcDbPolyline
 90
1
 70
1
 10
27314.516441
 20
11632.073728
 30
0.0
  0
SPLINE
  5
251
100
AcDbEntity
  8
0
 62
7
100
AcDbSpline
 70
8
 71
3
 72
8
 73
4
 74
0
 40
0
 40
0
 40
0
 40
0
 40
1
 40
1
 40
1
 40
1
 10
3977.003754
 20
13444.574298
 30
0.0
 10
3819.010841
 20
13444.574298
 30
0.0
 10
3676.574928
 20
13349.401663
 30
0.0
 10
3616.113657
 20
13203.435245
 30
0.0
  0
SPLINE
  5
252
100
AcDbEntity
  8
0
 62
7
100
AcDbSpline
 70
8
 71
3
 72
8
 73
4
 74
0
 40
0
 40
0
 40
0
 40
0
 40
1
 40
1
 40
1
 40
1
 10
3616.113657
 20
13203.435245
 30
0.0
 10
3555.652387
 20
13057.468826
 30
0.0
 10
3589.072572
 20
12889.454211
 30
0.0
 10
3700.790432
 20
12777.736351
 30
0.0
  0
SPLINE
  5
253
100
AcDbEntity
  8
0
 62
7
100
AcDbSpline
 70
8
 71
3
 72
8
 73
4
 74
0
 40
0
 40
0
 40
0
 40
0
 40
1
 40
1
 40
1
 40
1
 10
3700.790432
 20
12777.736351
 30
0.0
 10
3812.508292
 20
12666.018490
 30
0.0
 10
3980.522908
 20
12632.598306
 30
0.0
 10
4126.489326
 20
12693.059576
 30
0.0
  0
SPLINE
  5
254
100
AcDbEntity
  8
0
 62
7
100
AcDbSpline
 70
8
 71
3
 72
8
 73
4
 74
0
 40
0
 40
0
 40
0
 40
0
 40
1
 40
1
 40
1
 40
1
 10
4126.489326
 20
12693.059576
 30
0.0
 10
4272.455745
 20
12753.520846
 30
0.0
 10
4367.628379
 20
12895.956759
 30
0.0
 10
4367.628379
 20
13053.949672
 30
0.0
  0
SPLINE
  5
255
100
AcDbEntity
  8
0
 62
7
100
AcDbSpline
 70
8
 71
3
 72
8
 73
4
 74
0
 40
0
 40
0
 40
0
 40
0
 40
1
 40
1
 40
1
 40
1
 10
4367.628379
 20
13053.949672
 30
0.0
 10
4367.628379
 20
13157.549764
 30
0.0
 10
4326.473403
 20
13256.906666
 30
0.0
 10
4253.217075
 20
13330.162994
 30
0.0
  0
SPLINE
  5
256
100
AcDbEntity
  8
0
 62
7
100
AcDbSpline
 70
8
 71
3
 72
8
 73
4
 74
0
 40
0
 40
0
 40
0
 40
0
 40
1
 40
1
 40
1
 40
1
 10
4253.217075
 20
13330.162994
 30
0.0
 10
4179.960748
 20
13403.419321
 30
0.0
 10
4080.603846
 20
13444.574298
 30
0.0
 10
3977.003754
 20
13444.574298
 30
0.0
  0
LWPOLYLINE
  5
257
100
AcDbEntity
  8
0
 62
7
100
AcDbPolyline
 90
1
 70
1
 10
38575.973329
 20
14986.248246
 30
0.0
  0
SPLINE
  5
258
100
AcDbEntity
  8
0
 62
7
100
AcDbSpline
 70
8
 71
3
 72
8
 73
4
 74
0
 40
0
 40
0
 40
0
 40
0
 40
1
 40
1
 40
1
 40
1
 10
2414.462469
 20
15205.539342
 30
0.0
 10
2256.469556
 20
15205.539342
 30
0.0
 10
2114.033642
 20
15110.366707
 30
0.0
 10
2053.572372
 20
14964.400289
 30
0.0
  0
SPLINE
  5
259
100
AcDbEntity
  8
0
 62
7
100
AcDbSpline
 70
8
 71
3
 72
8
 73
4
 74
0
 40
0
 40
0
 40
0
 40
0
 40
1
 40
1
 40
1
 40
1
 10
2053.572372
 20
14964.400289
 30
0.0
 10
1993.111102
 20
14818.433870
 30
0.0
 10
2026.531287
 20
14650.419255
 30
0.0
 10
2138.249147
 20
14538.701395
 30
0.0
  0
SPLINE
  5
25a
100
AcDbEntity
  8
0
 62
7
100
AcDbSpline
 70
8
 71
3
 72
8
 73
4
 74
0
 40
0
 40
0
 40
0
 40
0
 40
1
 40
1
 40
1
 40
1
 10
2138.249147
 20
14538.701395
 30
0.0
 10
2249.967007
 20
14426.983535
 30
0.0
 10
2417.981623
 20
14393.563350
 30
0.0
 10
2563.948041
 20
14454.024620
 30
0.0
  0
SPLINE
  5
25b
100
AcDbEntity
  8
0
 62
7
100
AcDbSpline
 70
8
 71
3
 72
8
 73
4
 74
0
 40
0
 40
0
 40
0
 40
0
 40
1
 40
1
 40
1
 40
1
 10
2563.948041
 20
14454.024620
 30
0.0
 10
2709.914460
 20
14514.485890
 30
0.0
 10
2805.087094
 20
14656.921803
 30
0.0
 10
2805.087094
 20
14814.914716
 30
0.0
  0
SPLINE
  5
25c
100
AcDbEntity
  8
0
 62
7
100
AcDbSpline
 70
8
 71
3
 72
8
 73
4
 74
0
 40
0
 40
0
 40
0
 40
0
 40
1
 40
1
 40
1
 40
1
 10
2805.087094
 20
14814.914716
 30
0.0
 10
2805.087094
 20
14918.514808
 30
0.0
 10
2763.932118
 20
15017.871710
 30
0.0
 10
2690.675790
 20
15091.128038
 30
0.0
  0
SPLINE
  5
25d
100
AcDbEntity
  8
0
 62
7
100
AcDbSpline
 70
8
 71
3
 72
8
 73
4
 74
0
 40
0
 40
0
 40
0
 40
0
 40
1
 40
1
 40
1
 40
1
 10
2690.675790
 20
15091.128038
 30
0.0
 10
2617.419463
 20
15164.384365
 30
0.0
 10
2518.062561
 20
15205.539342
 30
0.0
 10
2414.462469
 20
15205.539342
 30
0.0
  0
LWPOLYLINE
  5
25e
100
AcDbEntity
  8
0
 62
7
100
AcDbPolyline
 90
1
 70
1
 10
3977.003754
 20
13444.574298
 30
0.0
  0
SPLINE
  5
25f
100
AcDbEntity
  8
0
 62
7
100
AcDbSpline
 70
8
 71
3
 72
8
 73
4
 74
0
 40
0
 40
0
 40
0
 40
0
 40
1
 40
1
 40
1
 40
1
 10
13079.091166
 20
9736.255893
 30
0.0
 10
12921.097932
 20
9736.255893
 30
0.0
 10
12778.661730
 20
9641.083065
 30
0.0
 10
12718.200337
 20
9495.116350
 30
0.0
  0
SPLINE
  5
260
100
AcDbEntity
  8
0
 62
7
100
AcDbSpline
 70
8
 71
3
 72
8
 73
4
 74
0
 40
0
 40
0
 40
0
 40
0
 40
1
 40
1
 40
1
 40
1
 10
12718.200337
 20
9495.116350
 30
0.0
 10
12657.738944
 20
9349.149635
 30
0.0
 10
12691.159196
 20
9181.134678
 30
0.0
 10
12802.877284
 20
9069.416591
 30
0.0
  0
SPLINE
  5
261
100
AcDbEntity
  8
0
 62
7
100
AcDbSpline
 70
8
 71
3
 72
8
 73
4
 74
0
 40
0
 40
0
 40
0
 40
0
 40
1
 40
1
 40
1
 40
1
 10
12802.877284
 20
9069.416591
 30
0.0
 10
12914.595371
 20
8957.698504
 30
0.0
 10
13082.610327
 20
8924.278251
 30
0.0
 10
13228.577043
 20
8984.739644
 30
0.0
  0
SPLINE
  5
262
100
AcDbEntity
  8
0
 62
7
100
AcDbSpline
 70
8
 71
3
 72
8
 73
4
 74
0
 40
0
 40
0
 40
0
 40
0
 40
1
 40
1
 40
1
 40
1
 10
13228.577043
 20
8984.739644
 30
0.0
 10
13374.543758
 20
9045.201037
 30
0.0
 10
13469.716586
 20
9187.637240
 30
0.0
 10
13469.716586
 20
9345.630474
 30
0.0
  0
SPLINE
  5
263
100
AcDbEntity
  8
0
 62
7
100
AcDbSpline
 70
8
 71
3
 72
8
 73
4
 74
0
 40
0
 40
0
 40
0
 40
0
 40
1
 40
1
 40
1
 40
1
 10
13469.716586
 20
9345.630474
 30
0.0
 10
13469.716586
 20
9561.366936
 30
0.0
 10
13294.827628
 20
9736.255893
 30
0.0
 10
13079.091166
 20
9736.255893
 30
0.0
  0
LWPOLYLINE
  5
264
100
AcDbEntity
  8
0
 62
7
100
AcDbPolyline
 90
1
 70
1
 10
2414.462469
 20
15205.539342
 30
0.0
  0
SPLINE
  5
265
100
AcDbEntity
  8
0
 62
7
100
AcDbSpline
 70
8
 71
3
 72
8
 73
4
 74
0
 40
0
 40
0
 40
0
 40
0
 40
1
 40
1
 40
1
 40
1
 10
6868.660821
 20
13158.881220
 30
0.0
 10
6733.535309
 20
13158.881220
 30
0.0
 10
6611.715125
 20
13077.483575
 30
0.0
 10
6560.004831
 20
12952.643881
 30
0.0
  0
SPLINE
  5
266
100
AcDbEntity
  8
0
 62
7
100
AcDbSpline
 70
8
 71
3
 72
8
 73
4
 74
0
 40
0
 40
0
 40
0
 40
0
 40
1
 40
1
 40
1
 40
1
 10
6560.004831
 20
12952.643881
 30
0.0
 10
6508.294536
 20
12827.804186
 30
0.0
 10
6536.877588
 20
12684.107482
 30
0.0
 10
6632.425753
 20
12588.559316
 30
0.0
  0
SPLINE
  5
267
100
AcDbEntity
  8
0
 62
7
100
AcDbSpline
 70
8
 71
3
 72
8
 73
4
 74
0
 40
0
 40
0
 40
0
 40
0
 40
1
 40
1
 40
1
 40
1
 10
6632.425753
 20
12588.559316
 30
0.0
 10
6727.973919
 20
12493.011151
 30
0.0
 10
6871.670623
 20
12464.428099
 30
0.0
 10
6996.510318
 20
12516.138394
 30
0.0
  0
SPLINE
  5
268
100
AcDbEntity
  8
0
 62
7
100
AcDbSpline
 70
8
 71
3
 72
8
 73
4
 74
0
 40
0
 40
0
 40
0
 40
0
 40
1
 40
1
 40
1
 40
1
 10
6996.510318
 20
12516.138394
 30
0.0
 10
7121.350012
 20
12567.848688
 30
0.0
 10
7202.747657
 20
12689.668872
 30
0.0
 10
7202.747657
 20
12824.794384
 30
0.0
  0
SPLINE
  5
269
100
AcDbEntity
  8
0
 62
7
100
AcDbSpline
 70
8
 71
3
 72
8
 73
4
 74
0
 40
0
 40
0
 40
0
 40
0
 40
1
 40
1
 40
1
 40
1
 10
7202.747657
 20
12824.794384
 30
0.0
 10
7202.747657
 20
12913.399722
 30
0.0
 10
7167.549323
 20
12998.376016
 30
0.0
 10
7104.895888
 20
13061.029451
 30
0.0
  0
SPLINE
  5
26a
100
AcDbEntity
  8
0
 62
7
100
AcDbSpline
 70
8
 71
3
 72
8
 73
4
 74
0
 40
0
 40
0
 40
0
 40
0
 40
1
 40
1
 40
1
 40
1
 10
7104.895888
 20
13061.029451
 30
0.0
 10
7042.242453
 20
13123.682886
 30
0.0
 10
6957.266159
 20
13158.881220
 30
0.0
 10
6868.660821
 20
13158.881220
 30
0.0
  0
LWPOLYLINE
  5
26b
100
AcDbEntity
  8
0
 62
7
100
AcDbPolyline
 90
1
 70
1
 10
13079.091166
 20
9736.255893
 30
0.0
  0
SPLINE
  5
26c
100
AcDbEntity
  8
0
 62
7
100
AcDbSpline
 70
8
 71
3
 72
8
 73
4
 74
0
 40
0
 40
0
 40
0
 40
0
 40
1
 40
1
 40
1
 40
1
 10
6056.178311
 20
15101.247715
 30
0.0
 10
5857.474096
 20
15101.247715
 30
0.0
 10
5696.392503
 20
14940.166123
 30
0.0
 10
5696.392503
 20
14741.461908
 30
0.0
  0
SPLINE
  5
26d
100
AcDbEntity
  8
0
 62
7
100
AcDbSpline
 70
8
 71
3
 72
8
 73
4
 74
0
 40
0
 40
0
 40
0
 40
0
 40
1
 40
1
 40
1
 40
1
 10
5696.392503
 20
14741.461908
 30
0.0
 10
5696.392503
 20
14542.757693
 30
0.0
 10
5857.474096
 20
14381.676101
 30
0.0
 10
6056.178311
 20
14381.676101
 30
0.0
  0
SPLINE
  5
26e
100
AcDbEntity
  8
0
 62
7
100
AcDbSpline
 70
8
 71
3
 72
8
 73
4
 74
0
 40
0
 40
0
 40
0
 40
0
 40
1
 40
1
 40
1
 40
1
 10
6056.178311
 20
14381.676101
 30
0.0
 10
6254.882525
 20
14381.676101
 30
0.0
 10
6415.964118
 20
14542.757693
 30
0.0
 10
6415.964118
 20
14741.461908
 30
0.0
  0
SPLINE
  5
26f
100
AcDbEntity
  8
0
 62
7
100
AcDbSpline
 70
8
 71
3
 72
8
 73
4
 74
0
 40
0
 40
0
 40
0
 40
0
 40
1
 40
1
 40
1
 40
1
 10
6415.964118
 20
14741.461908
 30
0.0
 10
6415.964118
 20
14836.883037
 30
0.0
 10
6378.058222
 20
14928.395965
 30
0.0
 10
6310.585295
 20
14995.868892
 30
0.0
  0
SPLINE
  5
270
100
AcDbEntity
  8
0
 62
7
100
AcDbSpline
 70
8
 71
3
 72
8
 73
4
 74
0
 40
0
 40
0
 40
0
 40
0
 40
1
 40
1
 40
1
 40
1
 10
6310.585295
 20
14995.868892
 30
0.0
 10
6243.112367
 20
15063.341819
 30
0.0
 10
6151.599440
 20
15101.247715
 30
0.0
 10
6056.178311
 20
15101.247715
 30
0.0
  0
LWPOLYLINE
  5
271
100
AcDbEntity
  8
0
 62
7
100
AcDbPolyline
 90
1
 70
1
 10
6868.660821
 20
13158.881220
 30
0.0
  0
SPLINE
  5
272
100
AcDbEntity
  8
0
 62
7
100
AcDbSpline
 70
8
 71
3
 72
8
 73
4
 74
0
 40
0
 40
0
 40
0
 40
0
 40
1
 40
1
 40
1
 40
1
 10
10972.849214
 20
10809.574837
 30
0.0
 10
10827.329439
 20
10809.574837
 30
0.0
 10
10696.138478
 20
10721.915839
 30
0.0
 10
10640.450470
 20
10587.473097
 30
0.0
  0
SPLINE
  5
273
100
AcDbEntity
  8
0
 62
7
100
AcDbSpline
 70
8
 71
3
 72
8
 73
4
 74
0
 40
0
 40
0
 40
0
 40
0
 40
1
 40
1
 40
1
 40
1
 10
10640.450470
 20
10587.473097
 30
0.0
 10
10584.762463
 20
10453.030356
 30
0.0
 10
10615.544210
 20
10298.280066
 30
0.0
 10
10718.442230
 20
10195.382046
 30
0.0
  0
SPLINE
  5
274
100
AcDbEntity
  8
0
 62
7
100
AcDbSpline
 70
8
 71
3
 72
8
 73
4
 74
0
 40
0
 40
0
 40
0
 40
0
 40
1
 40
1
 40
1
 40
1
 10
10718.442230
 20
10195.382046
 30
0.0
 10
10821.340250
 20
10092.484026
 30
0.0
 10
10976.090540
 20
10061.702279
 30
0.0
 10
11110.533282
 20
10117.390286
 30
0.0
  0
SPLINE
  5
275
100
AcDbEntity
  8
0
 62
7
100
AcDbSpline
 70
8
 71
3
 72
8
 73
4
 74
0
 40
0
 40
0
 40
0
 40
0
 40
1
 40
1
 40
1
 40
1
 10
11110.533282
 20
10117.390286
 30
0.0
 10
11244.976023
 20
10173.078293
 30
0.0
 10
11332.635021
 20
10304.269255
 30
0.0
 10
11332.635021
 20
10449.789030
 30
0.0
  0
SPLINE
  5
276
100
AcDbEntity
  8
0
 62
7
100
AcDbSpline
 70
8
 71
3
 72
8
 73
4
 74
0
 40
0
 40
0
 40
0
 40
0
 40
1
 40
1
 40
1
 40
1
 10
11332.635021
 20
10449.789030
 30
0.0
 10
11332.635021
 20
10545.210159
 30
0.0
 10
11294.729125
 20
10636.723087
 30
0.0
 10
11227.256198
 20
10704.196014
 30
0.0
  0
SPLINE
  5
277
100
AcDbEntity
  8
0
 62
7
100
AcDbSpline
 70
8
 71
3
 72
8
 73
4
 74
0
 40
0
 40
0
 40
0
 40
0
 40
1
 40
1
 40
1
 40
1
 10
11227.256198
 20
10704.196014
 30
0.0
 10
11159.783271
 20
10771.668941
 30
0.0
 10
11068.270343
 20
10809.574837
 30
0.0
 10
10972.849214
 20
10809.574837
 30
0.0
  0
LWPOLYLINE
  5
278
100
AcDbEntity
  8
0
 62
7
100
AcDbPolyline
 90
1
 70
1
 10
6056.178311
 20
15101.247715
 30
0.0
  0
SPLINE
  5
279
100
AcDbEntity
  8
0
 62
7
100
AcDbSpline
 70
8
 71
3
 72
8
 73
4
 74
0
 40
0
 40
0
 40
0
 40
0
 40
1
 40
1
 40
1
 40
1
 10
12764.501682
 20
11538.740082
 30
0.0
 10
12618.981906
 20
11538.740082
 30
0.0
 10
12487.790945
 20
11451.081084
 30
0.0
 10
12432.102938
 20
11316.638342
 30
0.0
  0
SPLINE
  5
27a
100
AcDbEntity
  8
0
 62
7
100
AcDbSpline
 70
8
 71
3
 72
8
 73
4
 74
0
 40
0
 40
0
 40
0
 40
0
 40
1
 40
1
 40
1
 40
1
 10
12432.102938
 20
11316.638342
 30
0.0
 10
12376.414931
 20
11182.195600
 30
0.0
 10
12407.196678
 20
11027.445310
 30
0.0
 10
12510.094698
 20
10924.547290
 30
0.0
  0
SPLINE
  5
27b
100
AcDbEntity
  8
0
 62
7
100
AcDbSpline
 70
8
 71
3
 72
8
 73
4
 74
0
 40
0
 40
0
 40
0
 40
0
 40
1
 40
1
 40
1
 40
1
 10
12510.094698
 20
10924.547290
 30
0.0
 10
12612.992717
 20
10821.649270
 30
0.0
 10
12767.743007
 20
10790.867524
 30
0.0
 10
12902.185749
 20
10846.555531
 30
0.0
  0
SPLINE
  5
27c
100
AcDbEntity
  8
0
 62
7
100
AcDbSpline
 70
8
 71
3
 72
8
 73
4
 74
0
 40
0
 40
0
 40
0
 40
0
 40
1
 40
1
 40
1
 40
1
 10
12902.185749
 20
10846.555531
 30
0.0
 10
13036.628491
 20
10902.243538
 30
0.0
 10
13124.287489
 20
11033.434499
 30
0.0
 10
13124.287489
 20
11178.954274
 30
0.0
  0
SPLINE
  5
27d
100
AcDbEntity
  8
0
 62
7
100
AcDbSpline
 70
8
 71
3
 72
8
 73
4
 74
0
 40
0
 40
0
 40
0
 40
0
 40
1
 40
1
 40
1
 40
1
 10
13124.287489
 20
11178.954274
 30
0.0
 10
13124.287489
 20
11274.375403
 30
0.0
 10
13086.381593
 20
11365.888331
 30
0.0
 10
13018.908666
 20
11433.361258
 30
0.0
  0
SPLINE
  5
27e
100
AcDbEntity
  8
0
 62
7
100
AcDbSpline
 70
8
 71
3
 72
8
 73
4
 74
0
 40
0
 40
0
 40
0
 40
0
 40
1
 40
1
 40
1
 40
1
 10
13018.908666
 20
11433.361258
 30
0.0
 10
12951.435738
 20
11500.834186
 30
0.0
 10
12859.922811
 20
11538.740082
 30
0.0
 10
12764.501682
 20
11538.740082
 30
0.0
  0
LWPOLYLINE
  5
27f
100
AcDbEntity
  8
0
 62
7
100
AcDbPolyline
 90
1
 70
1
 10
10972.849214
 20
10809.574837
 30
0.0
  0
SPLINE
  5
280
100
AcDbEntity
  8
0
 62
7
100
AcDbSpline
 70
8
 71
3
 72
8
 73
4
 74
0
 40
0
 40
0
 40
0
 40
0
 40
1
 40
1
 40
1
 40
1
 10
8868.671275
 20
10205.398985
 30
0.0
 10
8723.151500
 20
10205.398985
 30
0.0
 10
8591.960539
 20
10117.739987
 30
0.0
 10
8536.272532
 20
9983.297245
 30
0.0
  0
SPLINE
  5
281
100
AcDbEntity
  8
0
 62
7
100
AcDbSpline
 70
8
 71
3
 72
8
 73
4
 74
0
 40
0
 40
0
 40
0
 40
0
 40
1
 40
1
 40
1
 40
1
 10
8536.272532
 20
9983.297245
 30
0.0
 10
8480.584525
 20
9848.854503
 30
0.0
 10
8511.366271
 20
9694.104213
 30
0.0
 10
8614.264291
 20
9591.206193
 30
0.0
  0
SPLINE
  5
282
100
AcDbEntity
  8
0
 62
7
100
AcDbSpline
 70
8
 71
3
 72
8
 73
4
 74
0
 40
0
 40
0
 40
0
 40
0
 40
1
 40
1
 40
1
 40
1
 10
8614.264291
 20
9591.206193
 30
0.0
 10
8717.162311
 20
9488.308174
 30
0.0
 10
8871.912601
 20
9457.526427
 30
0.0
 10
9006.355343
 20
9513.214434
 30
0.0
  0
SPLINE
  5
283
100
AcDbEntity
  8
0
 62
7
100
AcDbSpline
 70
8
 71
3
 72
8
 73
4
 74
0
 40
0
 40
0
 40
0
 40
0
 40
1
 40
1
 40
1
 40
1
 10
9006.355343
 20
9513.214434
 30
0.0
 10
9140.798085
 20
9568.902441
 30
0.0
 10
9228.457083
 20
9700.093402
 30
0.0
 10
9228.457083
 20
9845.613177
 30
0.0
  0
SPLINE
  5
284
100
AcDbEntity
  8
0
 62
7
100
AcDbSpline
 70
8
 71
3
 72
8
 73
4
 74
0
 40
0
 40
0
 40
0
 40
0
 40
1
 40
1
 40
1
 40
1
 10
9228.457083
 20
9845.613177
 30
0.0
 10
9228.457083
 20
9941.034306
 30
0.0
 10
9190.551187
 20
10032.547234
 30
0.0
 10
9123.078259
 20
10100.020162
 30
0.0
  0
SPLINE
  5
285
100
AcDbEntity
  8
0
 62
7
100
AcDbSpline
 70
8
 71
3
 72
8
 73
4
 74
0
 40
0
 40
0
 40
0
 40
0
 40
1
 40
1
 40
1
 40
1
 10
9123.078259
 20
10100.020162
 30
0.0
 10
9055.605332
 20
10167.493089
 30
0.0
 10
8964.092404
 20
10205.398985
 30
0.0
 10
8868.671275
 20
10205.398985
 30
0.0
  0
LWPOLYLINE
  5
286
100
AcDbEntity
  8
0
 62
7
100
AcDbPolyline
 90
1
 70
1
 10
12764.501682
 20
11538.740082
 30
0.0
  0
SPLINE
  5
287
100
AcDbEntity
  8
0
 62
7
100
AcDbSpline
 70
8
 71
3
 72
8
 73
4
 74
0
 40
0
 40
0
 40
0
 40
0
 40
1
 40
1
 40
1
 40
1
 10
2743.675390
 20
11601.234910
 30
0.0
 10
2598.155615
 20
11601.234910
 30
0.0
 10
2466.964654
 20
11513.575912
 30
0.0
 10
2411.276647
 20
11379.133170
 30
0.0
  0
SPLINE
  5
288
100
AcDbEntity
  8
0
 62
7
100
AcDbSpline
 70
8
 71
3
 72
8
 73
4
 74
0
 40
0
 40
0
 40
0
 40
0
 40
1
 40
1
 40
1
 40
1
 10
2411.276647
 20
11379.133170
 30
0.0
 10
2355.588640
 20
11244.690428
 30
0.0
 10
2386.370386
 20
11089.940138
 30
0.0
 10
2489.268406
 20
10987.042119
 30
0.0
  0
SPLINE
  5
289
100
AcDbEntity
  8
0
 62
7
100
AcDbSpline
 70
8
 71
3
 72
8
 73
4
 74
0
 40
0
 40
0
 40
0
 40
0
 40
1
 40
1
 40
1
 40
1
 10
2489.268406
 20
10987.042119
 30
0.0
 10
2592.166426
 20
10884.144099
 30
0.0
 10
2746.916716
 20
10853.362352
 30
0.0
 10
2881.359458
 20
10909.050359
 30
0.0
  0
SPLINE
  5
28a
100
AcDbEntity
  8
0
 62
7
100
AcDbSpline
 70
8
 71
3
 72
8
 73
4
 74
0
 40
0
 40
0
 40
0
 40
0
 40
1
 40
1
 40
1
 40
1
 10
2881.359458
 20
10909.050359
 30
0.0
 10
3015.802200
 20
10964.738366
 30
0.0
 10
3103.461198
 20
11095.929327
 30
0.0
 10
3103.461198
 20
11241.449103
 30
0.0
  0
SPLINE
  5
28b
100
AcDbEntity
  8
0
 62
7
100
AcDbSpline
 70
8
 71
3
 72
8
 73
4
 74
0
 40
0
 40
0
 40
0
 40
0
 40
1
 40
1
 40
1
 40
1
 10
3103.461198
 20
11241.449103
 30
0.0
 10
3103.461198
 20
11336.870232
 30
0.0
 10
3065.555302
 20
11428.383159
 30
0.0
 10
2998.082374
 20
11495.856087
 30
0.0
  0
SPLINE
  5
28c
100
AcDbEntity
  8
0
 62
7
100
AcDbSpline
 70
8
 71
3
 72
8
 73
4
 74
0
 40
0
 40
0
 40
0
 40
0
 40
1
 40
1
 40
1
 40
1
 10
2998.082374
 20
11495.856087
 30
0.0
 10
2930.609447
 20
11563.329014
 30
0.0
 10
2839.096519
 20
11601.234910
 30
0.0
 10
2743.675390
 20
11601.234910
 30
0.0
  0
LWPOLYLINE
  5
28d
100
AcDbEntity
  8
0
 62
7
100
AcDbPolyline
 90
1
 70
1
 10
8868.671275
 20
10205.398985
 30
0.0
  0
SPLINE
  5
28e
100
AcDbEntity
  8
0
 62
7
100
AcDbSpline
 70
8
 71
3
 72
8
 73
4
 74
0
 40
0
 40
0
 40
0
 40
0
 40
1
 40
1
 40
1
 40
1
 10
1597.842009
 20
13351.241180
 30
0.0
 10
1452.322234
 20
13351.241180
 30
0.0
 10
1321.131273
 20
13263.582183
 30
0.0
 10
1265.443265
 20
13129.139441
 30
0.0
  0
SPLINE
  5
28f
100
AcDbEntity
  8
0
 62
7
100
AcDbSpline
 70
8
 71
3
 72
8
 73
4
 74
0
 40
0
 40
0
 40
0
 40
0
 40
1
 40
1
 40
1
 40
1
 10
1265.443265
 20
13129.139441
 30
0.0
 10
1209.755258
 20
12994.696699
 30
0.0
 10
1240.537005
 20
12839.946409
 30
0.0
 10
1343.435025
 20
12737.048389
 30
0.0
  0
SPLINE
  5
290
100
AcDbEntity
  8
0
 62
7
100
AcDbSpline
 70
8
 71
3
 72
8
 73
4
 74
0
 40
0
 40
0
 40
0
 40
0
 40
1
 40
1
 40
1
 40
1
 10
1343.435025
 20
12737.048389
 30
0.0
 10
1446.333045
 20
12634.150369
 30
0.0
 10
1601.083335
 20
12603.368623
 30
0.0
 10
1735.526077
 20
12659.056630
 30
0.0
  0
SPLINE
  5
291
100
AcDbEntity
  8
0
 62
7
100
AcDbSpline
 70
8
 71
3
 72
8
 73
4
 74
0
 40
0
 40
0
 40
0
 40
0
 40
1
 40
1
 40
1
 40
1
 10
1735.526077
 20
12659.056630
 30
0.0
 10
1869.968818
 20
12714.744637
 30
0.0
 10
1957.627816
 20
12845.935598
 30
0.0
 10
1957.627816
 20
12991.455373
 30
0.0
  0
SPLINE
  5
292
100
AcDbEntity
  8
0
 62
7
100
AcDbSpline
 70
8
 71
3
 72
8
 73
4
 74
0
 40
0
 40
0
 40
0
 40
0
 40
1
 40
1
 40
1
 40
1
 10
1957.627816
 20
12991.455373
 30
0.0
 10
1957.627816
 20
13086.876502
 30
0.0
 10
1919.721920
 20
13178.389430
 30
0.0
 10
1852.248993
 20
13245.862357
 30
0.0
  0
SPLINE
  5
293
100
AcDbEntity
  8
0
 62
7
100
AcDbSpline
 70
8
 71
3
 72
8
 73
4
 74
0
 40
0
 40
0
 40
0
 40
0
 40
1
 40
1
 40
1
 40
1
 10
1852.248993
 20
13245.862357
 30
0.0
 10
1784.776066
 20
13313.335284
 30
0.0
 10
1693.263138
 20
13351.241180
 30
0.0
 10
1597.842009
 20
13351.241180
 30
0.0
  0
LWPOLYLINE
  5
294
100
AcDbEntity
  8
0
 62
7
100
AcDbPolyline
 90
1
 70
1
 10
2743.675390
 20
11601.234910
 30
0.0
  0
SPLINE
  5
295
100
AcDbEntity
  8
0
 62
7
100
AcDbSpline
 70
8
 71
3
 72
8
 73
4
 74
0
 40
0
 40
0
 40
0
 40
0
 40
1
 40
1
 40
1
 40
1
 10
22952.014098
 20
7705.404504
 30
0.0
 10
22806.494323
 20
7705.404504
 30
0.0
 10
22675.303361
 20
7617.745506
 30
0.0
 10
22619.615354
 20
7483.302764
 30
0.0
  0
SPLINE
  5
296
100
AcDbEntity
  8
0
 62
7
100
AcDbSpline
 70
8
 71
3
 72
8
 73
4
 74
0
 40
0
 40
0
 40
0
 40
0
 40
1
 40
1
 40
1
 40
1
 10
22619.615354
 20
7483.302764
 30
0.0
 10
22563.927347
 20
7348.860022
 30
0.0
 10
22594.709094
 20
7194.109732
 30
0.0
 10
22697.607114
 20
7091.211712
 30
0.0
  0
SPLINE
  5
297
100
AcDbEntity
  8
0
 62
7
100
AcDbSpline
 70
8
 71
3
 72
8
 73
4
 74
0
 40
0
 40
0
 40
0
 40
0
 40
1
 40
1
 40
1
 40
1
 10
22697.607114
 20
7091.211712
 30
0.0
 10
22800.505134
 20
6988.313692
 30
0.0
 10
22955.255424
 20
6957.531946
 30
0.0
 10
23089.698165
 20
7013.219953
 30
0.0
  0
SPLINE
  5
298
100
AcDbEntity
  8
0
 62
7
100
AcDbSpline
 70
8
 71
3
 72
8
 73
4
 74
0
 40
0
 40
0
 40
0
 40
0
 40
1
 40
1
 40
1
 40
1
 10
23089.698165
 20
7013.219953
 30
0.0
 10
23224.140907
 20
7068.907960
 30
0.0
 10
23311.799905
 20
7200.098921
 30
0.0
 10
23311.799905
 20
7345.618696
 30
0.0
  0
SPLINE
  5
299
100
AcDbEntity
  8
0
 62
7
100
AcDbSpline
 70
8
 71
3
 72
8
 73
4
 74
0
 40
0
 40
0
 40
0
 40
0
 40
1
 40
1
 40
1
 40
1
 10
23311.799905
 20
7345.618696
 30
0.0
 10
23311.799905
 20
7441.039825
 30
0.0
 10
23273.894009
 20
7532.552753
 30
0.0
 10
23206.421082
 20
7600.025680
 30
0.0
  0
SPLINE
  5
29a
100
AcDbEntity
  8
0
 62
7
100
AcDbSpline
 70
8
 71
3
 72
8
 73
4
 74
0
 40
0
 40
0
 40
0
 40
0
 40
1
 40
1
 40
1
 40
1
 10
23206.421082
 20
7600.025680
 30
0.0
 10
23138.948155
 20
7667.498608
 30
0.0
 10
23047.435227
 20
7705.404504
 30
0.0
 10
22952.014098
 20
7705.404504
 30
0.0
  0
LWPOLYLINE
  5
29b
100
AcDbEntity
  8
0
 62
7
100
AcDbPolyline
 90
1
 70
1
 10
1597.842009
 20
13351.241180
 30
0.0
  0
SPLINE
  5
29c
100
AcDbEntity
  8
0
 62
7
100
AcDbSpline
 70
8
 71
3
 72
8
 73
4
 74
0
 40
0
 40
0
 40
0
 40
0
 40
1
 40
1
 40
1
 40
1
 10
21285.325622
 20
2413.739495
 30
0.0
 10
21139.805847
 20
2413.739495
 30
0.0
 10
21008.614886
 20
2326.080497
 30
0.0
 10
20952.926879
 20
2191.637755
 30
0.0
  0
SPLINE
  5
29d
100
AcDbEntity
  8
0
 62
7
100
AcDbSpline
 70
8
 71
3
 72
8
 73
4
 74
0
 40
0
 40
0
 40
0
 40
0
 40
1
 40
1
 40
1
 40
1
 10
20952.926879
 20
2191.637755
 30
0.0
 10
20897.238872
 20
2057.195013
 30
0.0
 10
20928.020618
 20
1902.444723
 30
0.0
 10
21030.918638
 20
1799.546704
 30
0.0
  0
SPLINE
  5
29e
100
AcDbEntity
  8
0
 62
7
100
AcDbSpline
 70
8
 71
3
 72
8
 73
4
 74
0
 40
0
 40
0
 40
0
 40
0
 40
1
 40
1
 40
1
 40
1
 10
21030.918638
 20
1799.546704
 30
0.0
 10
21133.816658
 20
1696.648684
 30
0.0
 10
21288.566948
 20
1665.866937
 30
0.0
 10
21423.009690
 20
1721.554944
 30
0.0
  0
SPLINE
  5
29f
100
AcDbEntity
  8
0
 62
7
100
AcDbSpline
 70
8
 71
3
 72
8
 73
4
 74
0
 40
0
 40
0
 40
0
 40
0
 40
1
 40
1
 40
1
 40
1
 10
21423.009690
 20
1721.554944
 30
0.0
 10
21557.452432
 20
1777.242951
 30
0.0
 10
21645.111429
 20
1908.433912
 30
0.0
 10
21645.111429
 20
2053.953688
 30
0.0
  0
SPLINE
  5
2a0
100
AcDbEntity
  8
0
 62
7
100
AcDbSpline
 70
8
 71
3
 72
8
 73
4
 74
0
 40
0
 40
0
 40
0
 40
0
 40
1
 40
1
 40
1
 40
1
 10
21645.111429
 20
2053.953688
 30
0.0
 10
21645.111429
 20
2252.657902
 30
0.0
 10
21484.029837
 20
2413.739495
 30
0.0
 10
21285.325622
 20
2413.739495
 30
0.0
  0
LWPOLYLINE
  5
2a1
100
AcDbEntity
  8
0
 62
7
100
AcDbPolyline
 90
1
 70
1
 10
22952.014098
 20
7705.404504
 30
0.0
  0
SPLINE
  5
2a2
100
AcDbEntity
  8
0
 62
7
100
AcDbSpline
 70
8
 71
3
 72
8
 73
4
 74
0
 40
0
 40
0
 40
0
 40
0
 40
1
 40
1
 40
1
 40
1
 10
21518.661062
 20
9342.910240
 30
0.0
 10
21373.141286
 20
9342.910240
 30
0.0
 10
21241.950325
 20
9255.251243
 30
0.0
 10
21186.262318
 20
9120.808501
 30
0.0
  0
SPLINE
  5
2a3
100
AcDbEntity
  8
0
 62
7
100
AcDbSpline
 70
8
 71
3
 72
8
 73
4
 74
0
 40
0
 40
0
 40
0
 40
0
 40
1
 40
1
 40
1
 40
1
 10
21186.262318
 20
9120.808501
 30
0.0
 10
21130.574311
 20
8986.365759
 30
0.0
 10
21161.356058
 20
8831.615469
 30
0.0
 10
21264.254077
 20
8728.717449
 30
0.0
  0
SPLINE
  5
2a4
100
AcDbEntity
  8
0
 62
7
100
AcDbSpline
 70
8
 71
3
 72
8
 73
4
 74
0
 40
0
 40
0
 40
0
 40
0
 40
1
 40
1
 40
1
 40
1
 10
21264.254077
 20
8728.717449
 30
0.0
 10
21367.152097
 20
8625.819429
 30
0.0
 10
21521.902387
 20
8595.037683
 30
0.0
 10
21656.345129
 20
8650.725690
 30
0.0
  0
SPLINE
  5
2a5
100
AcDbEntity
  8
0
 62
7
100
AcDbSpline
 70
8
 71
3
 72
8
 73
4
 74
0
 40
0
 40
0
 40
0
 40
0
 40
1
 40
1
 40
1
 40
1
 10
21656.345129
 20
8650.725690
 30
0.0
 10
21790.787871
 20
8706.413697
 30
0.0
 10
21878.446869
 20
8837.604658
 30
0.0
 10
21878.446869
 20
8983.124433
 30
0.0
  0
SPLINE
  5
2a6
100
AcDbEntity
  8
0
 62
7
100
AcDbSpline
 70
8
 71
3
 72
8
 73
4
 74
0
 40
0
 40
0
 40
0
 40
0
 40
1
 40
1
 40
1
 40
1
 10
21878.446869
 20
8983.124433
 30
0.0
 10
21878.446869
 20
9181.828648
 30
0.0
 10
21717.365276
 20
9342.910240
 30
0.0
 10
21518.661062
 20
9342.910240
 30
0.0
  0
LWPOLYLINE
  5
2a7
100
AcDbEntity
  8
0
 62
7
100
AcDbPolyline
 90
1
 70
1
 10
21285.325622
 20
2413.739495
 30
0.0
  0
SPLINE
  5
2a8
100
AcDbEntity
  8
0
 62
7
100
AcDbSpline
 70
8
 71
3
 72
8
 73
4
 74
0
 40
0
 40
0
 40
0
 40
0
 40
1
 40
1
 40
1
 40
1
 10
23014.509455
 20
4038.731502
 30
0.0
 10
22815.805241
 20
4038.731502
 30
0.0
 10
22654.723648
 20
3877.649910
 30
0.0
 10
22654.723648
 20
3678.945695
 30
0.0
  0
SPLINE
  5
2a9
100
AcDbEntity
  8
0
 62
7
100
AcDbSpline
 70
8
 71
3
 72
8
 73
4
 74
0
 40
0
 40
0
 40
0
 40
0
 40
1
 40
1
 40
1
 40
1
 10
22654.723648
 20
3678.945695
 30
0.0
 10
22654.723648
 20
3480.241481
 30
0.0
 10
22815.805241
 20
3319.159888
 30
0.0
 10
23014.509455
 20
3319.159888
 30
0.0
  0
SPLINE
  5
2aa
100
AcDbEntity
  8
0
 62
7
100
AcDbSpline
 70
8
 71
3
 72
8
 73
4
 74
0
 40
0
 40
0
 40
0
 40
0
 40
1
 40
1
 40
1
 40
1
 10
23014.509455
 20
3319.159888
 30
0.0
 10
23213.213670
 20
3319.159888
 30
0.0
 10
23374.295263
 20
3480.241481
 30
0.0
 10
23374.295263
 20
3678.945695
 30
0.0
  0
SPLINE
  5
2ab
100
AcDbEntity
  8
0
 62
7
100
AcDbSpline
 70
8
 71
3
 72
8
 73
4
 74
0
 40
0
 40
0
 40
0
 40
0
 40
1
 40
1
 40
1
 40
1
 10
23374.295263
 20
3678.945695
 30
0.0
 10
23374.295263
 20
3774.366824
 30
0.0
 10
23336.389367
 20
3865.879752
 30
0.0
 10
23268.916439
 20
3933.352679
 30
0.0
  0
SPLINE
  5
2ac
100
AcDbEntity
  8
0
 62
7
100
AcDbSpline
 70
8
 71
3
 72
8
 73
4
 74
0
 40
0
 40
0
 40
0
 40
0
 40
1
 40
1
 40
1
 40
1
 10
23268.916439
 20
3933.352679
 30
0.0
 10
23201.443512
 20
4000.825607
 30
0.0
 10
23109.930584
 20
4038.731502
 30
0.0
 10
23014.509455
 20
4038.731502
 30
0.0
  0
LWPOLYLINE
  5
2ad
100
AcDbEntity
  8
0
 62
7
100
AcDbPolyline
 90
1
 70
1
 10
21518.661062
 20
9342.910240
 30
0.0
  0
SPLINE
  5
2ae
100
AcDbEntity
  8
0
 62
7
100
AcDbSpline
 70
8
 71
3
 72
8
 73
4
 74
0
 40
0
 40
0
 40
0
 40
0
 40
1
 40
1
 40
1
 40
1
 10
22257.218482
 20
5879.357536
 30
0.0
 10
22111.698707
 20
5879.357536
 30
0.0
 10
21980.507746
 20
5791.698538
 30
0.0
 10
21924.819739
 20
5657.255796
 30
0.0
  0
SPLINE
  5
2af
100
AcDbEntity
  8
0
 62
7
100
AcDbSpline
 70
8
 71
3
 72
8
 73
4
 74
0
 40
0
 40
0
 40
0
 40
0
 40
1
 40
1
 40
1
 40
1
 10
21924.819739
 20
5657.255796
 30
0.0
 10
21869.131732
 20
5522.813055
 30
0.0
 10
21899.913478
 20
5368.062765
 30
0.0
 10
22002.811498
 20
5265.164745
 30
0.0
  0
SPLINE
  5
2b0
100
AcDbEntity
  8
0
 62
7
100
AcDbSpline
 70
8
 71
3
 72
8
 73
4
 74
0
 40
0
 40
0
 40
0
 40
0
 40
1
 40
1
 40
1
 40
1
 10
22002.811498
 20
5265.164745
 30
0.0
 10
22105.709518
 20
5162.266725
 30
0.0
 10
22260.459808
 20
5131.484978
 30
0.0
 10
22394.902550
 20
5187.172985
 30
0.0
  0
SPLINE
  5
2b1
100
AcDbEntity
  8
0
 62
7
100
AcDbSpline
 70
8
 71
3
 72
8
 73
4
 74
0
 40
0
 40
0
 40
0
 40
0
 40
1
 40
1
 40
1
 40
1
 10
22394.902550
 20
5187.172985
 30
0.0
 10
22529.345292
 20
5242.860992
 30
0.0
 10
22617.004289
 20
5374.051954
 30
0.0
 10
22617.004289
 20
5519.571729
 30
0.0
  0
SPLINE
  5
2b2
100
AcDbEntity
  8
0
 62
7
100
AcDbSpline
 70
8
 71
3
 72
8
 73
4
 74
0
 40
0
 40
0
 40
0
 40
0
 40
1
 40
1
 40
1
 40
1
 10
22617.004289
 20
5519.571729
 30
0.0
 10
22617.004289
 20
5614.992858
 30
0.0
 10
22579.098394
 20
5706.505786
 30
0.0
 10
22511.625466
 20
5773.978713
 30
0.0
  0
SPLINE
  5
2b3
100
AcDbEntity
  8
0
 62
7
100
AcDbSpline
 70
8
 71
3
 72
8
 73
4
 74
0
 40
0
 40
0
 40
0
 40
0
 40
1
 40
1
 40
1
 40
1
 10
22511.625466
 20
5773.978713
 30
0.0
 10
22444.152539
 20
5841.451640
 30
0.0
 10
22352.639611
 20
5879.357536
 30
0.0
 10
22257.218482
 20
5879.357536
 30
0.0
  0
LWPOLYLINE
  5
2b4
100
AcDbEntity
  8
0
 62
7
100
AcDbPolyline
 90
1
 70
1
 10
23014.509455
 20
4038.731502
 30
0.0
  0
SPLINE
  5
2b5
100
AcDbEntity
  8
0
 62
7
100
AcDbSpline
 70
8
 71
3
 72
8
 73
4
 74
0
 40
0
 40
0
 40
0
 40
0
 40
1
 40
1
 40
1
 40
1
 10
16530.130141
 20
7507.496232
 30
0.0
 10
16331.425927
 20
7507.496232
 30
0.0
 10
16170.344334
 20
7346.414639
 30
0.0
 10
16170.344334
 20
7147.710425
 30
0.0
  0
SPLINE
  5
2b6
100
AcDbEntity
  8
0
 62
7
100
AcDbSpline
 70
8
 71
3
 72
8
 73
4
 74
0
 40
0
 40
0
 40
0
 40
0
 40
1
 40
1
 40
1
 40
1
 10
16170.344334
 20
7147.710425
 30
0.0
 10
16170.344334
 20
6949.006210
 30
0.0
 10
16331.425927
 20
6787.924618
 30
0.0
 10
16530.130141
 20
6787.924618
 30
0.0
  0
SPLINE
  5
2b7
100
AcDbEntity
  8
0
 62
7
100
AcDbSpline
 70
8
 71
3
 72
8
 73
4
 74
0
 40
0
 40
0
 40
0
 40
0
 40
1
 40
1
 40
1
 40
1
 10
16530.130141
 20
6787.924618
 30
0.0
 10
16728.834356
 20
6787.924618
 30
0.0
 10
16889.915949
 20
6949.006210
 30
0.0
 10
16889.915949
 20
7147.710425
 30
0.0
  0
SPLINE
  5
2b8
100
AcDbEntity
  8
0
 62
7
100
AcDbSpline
 70
8
 71
3
 72
8
 73
4
 74
0
 40
0
 40
0
 40
0
 40
0
 40
1
 40
1
 40
1
 40
1
 10
16889.915949
 20
7147.710425
 30
0.0
 10
16889.915949
 20
7243.131554
 30
0.0
 10
16852.010053
 20
7334.644482
 30
0.0
 10
16784.537125
 20
7402.117409
 30
0.0
  0
SPLINE
  5
2b9
100
AcDbEntity
  8
0
 62
7
100
AcDbSpline
 70
8
 71
3
 72
8
 73
4
 74
0
 40
0
 40
0
 40
0
 40
0
 40
1
 40
1
 40
1
 40
1
 10
16784.537125
 20
7402.117409
 30
0.0
 10
16717.064198
 20
7469.590336
 30
0.0
 10
16625.551270
 20
7507.496232
 30
0.0
 10
16530.130141
 20
7507.496232
 30
0.0
  0
LWPOLYLINE
  5
2ba
100
AcDbEntity
  8
0
 62
7
100
AcDbPolyline
 90
1
 70
1
 10
22257.218482
 20
5879.357536
 30
0.0
  0
SPLINE
  5
2bb
100
AcDbEntity
  8
0
 62
7
100
AcDbSpline
 70
8
 71
3
 72
8
 73
4
 74
0
 40
0
 40
0
 40
0
 40
0
 40
1
 40
1
 40
1
 40
1
 10
20593.971705
 20
5959.864134
 30
0.0
 10
20448.451930
 20
5959.864134
 30
0.0
 10
20317.260969
 20
5872.205136
 30
0.0
 10
20261.572962
 20
5737.762394
 30
0.0
  0
SPLINE
  5
2bc
100
AcDbEntity
  8
0
 62
7
100
AcDbSpline
 70
8
 71
3
 72
8
 73
4
 74
0
 40
0
 40
0
 40
0
 40
0
 40
1
 40
1
 40
1
 40
1
 10
20261.572962
 20
5737.762394
 30
0.0
 10
20205.884955
 20
5603.319652
 30
0.0
 10
20236.666701
 20
5448.569362
 30
0.0
 10
20339.564721
 20
5345.671342
 30
0.0
  0
SPLINE
  5
2bd
100
AcDbEntity
  8
0
 62
7
100
AcDbSpline
 70
8
 71
3
 72
8
 73
4
 74
0
 40
0
 40
0
 40
0
 40
0
 40
1
 40
1
 40
1
 40
1
 10
20339.564721
 20
5345.671342
 30
0.0
 10
20442.462741
 20
5242.773323
 30
0.0
 10
20597.213031
 20
5211.991576
 30
0.0
 10
20731.655773
 20
5267.679583
 30
0.0
  0
SPLINE
  5
2be
100
AcDbEntity
  8
0
 62
7
100
AcDbSpline
 70
8
 71
3
 72
8
 73
4
 74
0
 40
0
 40
0
 40
0
 40
0
 40
1
 40
1
 40
1
 40
1
 10
20731.655773
 20
5267.679583
 30
0.0
 10
20866.098515
 20
5323.367590
 30
0.0
 10
20953.757513
 20
5454.558551
 30
0.0
 10
20953.757513
 20
5600.078327
 30
0.0
  0
SPLINE
  5
2bf
100
AcDbEntity
  8
0
 62
7
100
AcDbSpline
 70
8
 71
3
 72
8
 73
4
 74
0
 40
0
 40
0
 40
0
 40
0
 40
1
 40
1
 40
1
 40
1
 10
20953.757513
 20
5600.078327
 30
0.0
 10
20953.757513
 20
5695.499455
 30
0.0
 10
20915.851617
 20
5787.012383
 30
0.0
 10
20848.378690
 20
5854.485311
 30
0.0
  0
SPLINE
  5
2c0
100
AcDbEntity
  8
0
 62
7
100
AcDbSpline
 70
8
 71
3
 72
8
 73
4
 74
0
 40
0
 40
0
 40
0
 40
0
 40
1
 40
1
 40
1
 40
1
 10
20848.378690
 20
5854.485311
 30
0.0
 10
20780.905762
 20
5921.958238
 30
0.0
 10
20689.392834
 20
5959.864134
 30
0.0
 10
20593.971705
 20
5959.864134
 30
0.0
  0
LWPOLYLINE
  5
2c1
100
AcDbEntity
  8
0
 62
7
100
AcDbPolyline
 90
1
 70
1
 10
16530.130141
 20
7507.496232
 30
0.0
  0
SPLINE
  5
2c2
100
AcDbEntity
  8
0
 62
7
100
AcDbSpline
 70
8
 71
3
 72
8
 73
4
 74
0
 40
0
 40
0
 40
0
 40
0
 40
1
 40
1
 40
1
 40
1
 10
15681.160807
 20
2309.573334
 30
0.0
 10
15535.641032
 20
2309.573334
 30
0.0
 10
15404.450071
 20
2221.914336
 30
0.0
 10
15348.762064
 20
2087.471594
 30
0.0
  0
SPLINE
  5
2c3
100
AcDbEntity
  8
0
 62
7
100
AcDbSpline
 70
8
 71
3
 72
8
 73
4
 74
0
 40
0
 40
0
 40
0
 40
0
 40
1
 40
1
 40
1
 40
1
 10
15348.762064
 20
2087.471594
 30
0.0
 10
15293.074057
 20
1953.028852
 30
0.0
 10
15323.855803
 20
1798.278562
 30
0.0
 10
15426.753823
 20
1695.380542
 30
0.0
  0
SPLINE
  5
2c4
100
AcDbEntity
  8
0
 62
7
100
AcDbSpline
 70
8
 71
3
 72
8
 73
4
 74
0
 40
0
 40
0
 40
0
 40
0
 40
1
 40
1
 40
1
 40
1
 10
15426.753823
 20
1695.380542
 30
0.0
 10
15529.651843
 20
1592.482523
 30
0.0
 10
15684.402133
 20
1561.700776
 30
0.0
 10
15818.844875
 20
1617.388783
 30
0.0
  0
SPLINE
  5
2c5
100
AcDbEntity
  8
0
 62
7
100
AcDbSpline
 70
8
 71
3
 72
8
 73
4
 74
0
 40
0
 40
0
 40
0
 40
0
 40
1
 40
1
 40
1
 40
1
 10
15818.844875
 20
1617.388783
 30
0.0
 10
15953.287617
 20
1673.076790
 30
0.0
 10
16040.946615
 20
1804.267751
 30
0.0
 10
16040.946615
 20
1949.787527
 30
0.0
  0
SPLINE
  5
2c6
100
AcDbEntity
  8
0
 62
7
100
AcDbSpline
 70
8
 71
3
 72
8
 73
4
 74
0
 40
0
 40
0
 40
0
 40
0
 40
1
 40
1
 40
1
 40
1
 10
16040.946615
 20
1949.787527
 30
0.0
 10
16040.946615
 20
2045.208655
 30
0.0
 10
16003.040719
 20
2136.721583
 30
0.0
 10
15935.567791
 20
2204.194511
 30
0.0
  0
SPLINE
  5
2c7
100
AcDbEntity
  8
0
 62
7
100
AcDbSpline
 70
8
 71
3
 72
8
 73
4
 74
0
 40
0
 40
0
 40
0
 40
0
 40
1
 40
1
 40
1
 40
1
 10
15935.567791
 20
2204.194511
 30
0.0
 10
15868.094864
 20
2271.667438
 30
0.0
 10
15776.581936
 20
2309.573334
 30
0.0
 10
15681.160807
 20
2309.573334
 30
0.0
  0
LWPOLYLINE
  5
2c8
100
AcDbEntity
  8
0
 62
7
100
AcDbPolyline
 90
1
 70
1
 10
20593.971705
 20
5959.864134
 30
0.0
  0
SPLINE
  5
2c9
100
AcDbEntity
  8
0
 62
7
100
AcDbSpline
 70
8
 71
3
 72
8
 73
4
 74
0
 40
0
 40
0
 40
0
 40
0
 40
1
 40
1
 40
1
 40
1
 10
15395.755120
 20
9324.151817
 30
0.0
 10
15250.235344
 20
9324.151817
 30
0.0
 10
15119.044383
 20
9236.492819
 30
0.0
 10
15063.356376
 20
9102.050078
 30
0.0
  0
SPLINE
  5
2ca
100
AcDbEntity
  8
0
 62
7
100
AcDbSpline
 70
8
 71
3
 72
8
 73
4
 74
0
 40
0
 40
0
 40
0
 40
0
 40
1
 40
1
 40
1
 40
1
 10
15063.356376
 20
9102.050078
 30
0.0
 10
15007.668369
 20
8967.607336
 30
0.0
 10
15038.450116
 20
8812.857046
 30
0.0
 10
15141.348136
 20
8709.959026
 30
0.0
  0
SPLINE
  5
2cb
100
AcDbEntity
  8
0
 62
7
100
AcDbSpline
 70
8
 71
3
 72
8
 73
4
 74
0
 40
0
 40
0
 40
0
 40
0
 40
1
 40
1
 40
1
 40
1
 10
15141.348136
 20
8709.959026
 30
0.0
 10
15244.246155
 20
8607.061006
 30
0.0
 10
15398.996445
 20
8576.279259
 30
0.0
 10
15533.439187
 20
8631.967266
 30
0.0
  0
SPLINE
  5
2cc
100
AcDbEntity
  8
0
 62
7
100
AcDbSpline
 70
8
 71
3
 72
8
 73
4
 74
0
 40
0
 40
0
 40
0
 40
0
 40
1
 40
1
 40
1
 40
1
 10
15533.439187
 20
8631.967266
 30
0.0
 10
15667.881929
 20
8687.655274
 30
0.0
 10
15755.540927
 20
8818.846235
 30
0.0
 10
15755.540927
 20
8964.366010
 30
0.0
  0
SPLINE
  5
2cd
100
AcDbEntity
  8
0
 62
7
100
AcDbSpline
 70
8
 71
3
 72
8
 73
4
 74
0
 40
0
 40
0
 40
0
 40
0
 40
1
 40
1
 40
1
 40
1
 10
15755.540927
 20
8964.366010
 30
0.0
 10
15755.540927
 20
9163.070224
 30
0.0
 10
15594.459334
 20
9324.151817
 30
0.0
 10
15395.755120
 20
9324.151817
 30
0.0
  0
LWPOLYLINE
  5
2ce
100
AcDbEntity
  8
0
 62
7
100
AcDbPolyline
 90
1
 70
1
 10
15681.160807
 20
2309.573334
 30
0.0
  0
SPLINE
  5
2cf
100
AcDbEntity
  8
0
 62
7
100
AcDbSpline
 70
8
 71
3
 72
8
 73
4
 74
0
 40
0
 40
0
 40
0
 40
0
 40
1
 40
1
 40
1
 40
1
 10
17097.846157
 20
3976.235880
 30
0.0
 10
16952.326382
 20
3976.235880
 30
0.0
 10
16821.135421
 20
3888.576883
 30
0.0
 10
16765.447414
 20
3754.134141
 30
0.0
  0
SPLINE
  5
2d0
100
AcDbEntity
  8
0
 62
7
100
AcDbSpline
 70
8
 71
3
 72
8
 73
4
 74
0
 40
0
 40
0
 40
0
 40
0
 40
1
 40
1
 40
1
 40
1
 10
16765.447414
 20
3754.134141
 30
0.0
 10
16709.759407
 20
3619.691399
 30
0.0
 10
16740.541153
 20
3464.941109
 30
0.0
 10
16843.439173
 20
3362.043089
 30
0.0
  0
SPLINE
  5
2d1
100
AcDbEntity
  8
0
 62
7
100
AcDbSpline
 70
8
 71
3
 72
8
 73
4
 74
0
 40
0
 40
0
 40
0
 40
0
 40
1
 40
1
 40
1
 40
1
 10
16843.439173
 20
3362.043089
 30
0.0
 10
16946.337193
 20
3259.145069
 30
0.0
 10
17101.087483
 20
3228.363323
 30
0.0
 10
17235.530225
 20
3284.051330
 30
0.0
  0
SPLINE
  5
2d2
100
AcDbEntity
  8
0
 62
7
100
AcDbSpline
 70
8
 71
3
 72
8
 73
4
 74
0
 40
0
 40
0
 40
0
 40
0
 40
1
 40
1
 40
1
 40
1
 10
17235.530225
 20
3284.051330
 30
0.0
 10
17369.972967
 20
3339.739337
 30
0.0
 10
17457.631964
 20
3470.930298
 30
0.0
 10
17457.631964
 20
3616.450073
 30
0.0
  0
SPLINE
  5
2d3
100
AcDbEntity
  8
0
 62
7
100
AcDbSpline
 70
8
 71
3
 72
8
 73
4
 74
0
 40
0
 40
0
 40
0
 40
0
 40
1
 40
1
 40
1
 40
1
 10
17457.631964
 20
3616.450073
 30
0.0
 10
17457.631964
 20
3711.871202
 30
0.0
 10
17419.726069
 20
3803.384130
 30
0.0
 10
17352.253141
 20
3870.857057
 30
0.0
  0
SPLINE
  5
2d4
100
AcDbEntity
  8
0
 62
7
100
AcDbSpline
 70
8
 71
3
 72
8
 73
4
 74
0
 40
0
 40
0
 40
0
 40
0
 40
1
 40
1
 40
1
 40
1
 10
17352.253141
 20
3870.857057
 30
0.0
 10
17284.780214
 20
3938.329984
 30
0.0
 10
17193.267286
 20
3976.235880
 30
0.0
 10
17097.846157
 20
3976.235880
 30
0.0
  0
LWPOLYLINE
  5
2d5
100
AcDbEntity
  8
0
 62
7
100
AcDbPolyline
 90
1
 70
1
 10
15395.755120
 20
9324.151817
 30
0.0
  0
SPLINE
  5
2d6
100
AcDbEntity
  8
0
 62
7
100
AcDbSpline
 70
8
 71
3
 72
8
 73
4
 74
0
 40
0
 40
0
 40
0
 40
0
 40
1
 40
1
 40
1
 40
1
 10
16112.431506
 20
5800.194492
 30
0.0
 10
15966.911730
 20
5800.194492
 30
0.0
 10
15835.720769
 20
5712.535494
 30
0.0
 10
15780.032762
 20
5578.092753
 30
0.0
  0
SPLINE
  5
2d7
100
AcDbEntity
  8
0
 62
7
100
AcDbSpline
 70
8
 71
3
 72
8
 73
4
 74
0
 40
0
 40
0
 40
0
 40
0
 40
1
 40
1
 40
1
 40
1
 10
15780.032762
 20
5578.092753
 30
0.0
 10
15724.344755
 20
5443.650011
 30
0.0
 10
15755.126502
 20
5288.899721
 30
0.0
 10
15858.024521
 20
5186.001701
 30
0.0
  0
SPLINE
  5
2d8
100
AcDbEntity
  8
0
 62
7
100
AcDbSpline
 70
8
 71
3
 72
8
 73
4
 74
0
 40
0
 40
0
 40
0
 40
0
 40
1
 40
1
 40
1
 40
1
 10
15858.024521
 20
5186.001701
 30
0.0
 10
15960.922541
 20
5083.103681
 30
0.0
 10
16115.672831
 20
5052.321934
 30
0.0
 10
16250.115573
 20
5108.009941
 30
0.0
  0
SPLINE
  5
2d9
100
AcDbEntity
  8
0
 62
7
100
AcDbSpline
 70
8
 71
3
 72
8
 73
4
 74
0
 40
0
 40
0
 40
0
 40
0
 40
1
 40
1
 40
1
 40
1
 10
16250.115573
 20
5108.009941
 30
0.0
 10
16384.558315
 20
5163.697949
 30
0.0
 10
16472.217313
 20
5294.888910
 30
0.0
 10
16472.217313
 20
5440.408685
 30
0.0
  0
SPLINE
  5
2da
100
AcDbEntity
  8
0
 62
7
100
AcDbSpline
 70
8
 71
3
 72
8
 73
4
 74
0
 40
0
 40
0
 40
0
 40
0
 40
1
 40
1
 40
1
 40
1
 10
16472.217313
 20
5440.408685
 30
0.0
 10
16472.217313
 20
5535.829814
 30
0.0
 10
16434.311417
 20
5627.342742
 30
0.0
 10
16366.838490
 20
5694.815669
 30
0.0
  0
SPLINE
  5
2db
100
AcDbEntity
  8
0
 62
7
100
AcDbSpline
 70
8
 71
3
 72
8
 73
4
 74
0
 40
0
 40
0
 40
0
 40
0
 40
1
 40
1
 40
1
 40
1
 10
16366.838490
 20
5694.815669
 30
0.0
 10
16299.365562
 20
5762.288596
 30
0.0
 10
16207.852634
 20
5800.194492
 30
0.0
 10
16112.431506
 20
5800.194492
 30
0.0
  0
LWPOLYLINE
  5
2dc
100
AcDbEntity
  8
0
 62
7
100
AcDbPolyline
 90
1
 70
1
 10
17097.846157
 20
3976.235880
 30
0.0
  0
SPLINE
  5
2dd
100
AcDbEntity
  8
0
 62
7
100
AcDbSpline
 70
8
 71
3
 72
8
 73
4
 74
0
 40
0
 40
0
 40
0
 40
0
 40
1
 40
1
 40
1
 40
1
 10
28181.291170
 20
7705.404504
 30
0.0
 10
28035.771394
 20
7705.404504
 30
0.0
 10
27904.580433
 20
7617.745506
 30
0.0
 10
27848.892426
 20
7483.302764
 30
0.0
  0
SPLINE
  5
2de
100
AcDbEntity
  8
0
 62
7
100
AcDbSpline
 70
8
 71
3
 72
8
 73
4
 74
0
 40
0
 40
0
 40
0
 40
0
 40
1
 40
1
 40
1
 40
1
 10
27848.892426
 20
7483.302764
 30
0.0
 10
27793.204419
 20
7348.860022
 30
0.0
 10
27823.986166
 20
7194.109732
 30
0.0
 10
27926.884186
 20
7091.211712
 30
0.0
  0
SPLINE
  5
2df
100
AcDbEntity
  8
0
 62
7
100
AcDbSpline
 70
8
 71
3
 72
8
 73
4
 74
0
 40
0
 40
0
 40
0
 40
0
 40
1
 40
1
 40
1
 40
1
 10
27926.884186
 20
7091.211712
 30
0.0
 10
28029.782205
 20
6988.313692
 30
0.0
 10
28184.532495
 20
6957.531946
 30
0.0
 10
28318.975237
 20
7013.219953
 30
0.0
  0
SPLINE
  5
2e0
100
AcDbEntity
  8
0
 62
7
100
AcDbSpline
 70
8
 71
3
 72
8
 73
4
 74
0
 40
0
 40
0
 40
0
 40
0
 40
1
 40
1
 40
1
 40
1
 10
28318.975237
 20
7013.219953
 30
0.0
 10
28453.417979
 20
7068.907960
 30
0.0
 10
28541.076977
 20
7200.098921
 30
0.0
 10
28541.076977
 20
7345.618696
 30
0.0
  0
SPLINE
  5
2e1
100
AcDbEntity
  8
0
 62
7
100
AcDbSpline
 70
8
 71
3
 72
8
 73
4
 74
0
 40
0
 40
0
 40
0
 40
0
 40
1
 40
1
 40
1
 40
1
 10
28541.076977
 20
7345.618696
 30
0.0
 10
28541.076977
 20
7441.039825
 30
0.0
 10
28503.171081
 20
7532.552753
 30
0.0
 10
28435.698154
 20
7600.025680
 30
0.0
  0
SPLINE
  5
2e2
100
AcDbEntity
  8
0
 62
7
100
AcDbSpline
 70
8
 71
3
 72
8
 73
4
 74
0
 40
0
 40
0
 40
0
 40
0
 40
1
 40
1
 40
1
 40
1
 10
28435.698154
 20
7600.025680
 30
0.0
 10
28368.225226
 20
7667.498608
 30
0.0
 10
28276.712299
 20
7705.404504
 30
0.0
 10
28181.291170
 20
7705.404504
 30
0.0
  0
LWPOLYLINE
  5
2e3
100
AcDbEntity
  8
0
 62
7
100
AcDbPolyline
 90
1
 70
1
 10
16112.431506
 20
5800.194492
 30
0.0
  0
SPLINE
  5
2e4
100
AcDbEntity
  8
0
 62
7
100
AcDbSpline
 70
8
 71
3
 72
8
 73
4
 74
0
 40
0
 40
0
 40
0
 40
0
 40
1
 40
1
 40
1
 40
1
 10
26169.718427
 20
8808.531714
 30
0.0
 10
26024.198652
 20
8808.531714
 30
0.0
 10
25893.007691
 20
8720.872716
 30
0.0
 10
25837.319684
 20
8586.429974
 30
0.0
  0
SPLINE
  5
2e5
100
AcDbEntity
  8
0
 62
7
100
AcDbSpline
 70
8
 71
3
 72
8
 73
4
 74
0
 40
0
 40
0
 40
0
 40
0
 40
1
 40
1
 40
1
 40
1
 10
25837.319684
 20
8586.429974
 30
0.0
 10
25781.631677
 20
8451.987233
 30
0.0
 10
25812.413423
 20
8297.236943
 30
0.0
 10
25915.311443
 20
8194.338923
 30
0.0
  0
SPLINE
  5
2e6
100
AcDbEntity
  8
0
 62
7
100
AcDbSpline
 70
8
 71
3
 72
8
 73
4
 74
0
 40
0
 40
0
 40
0
 40
0
 40
1
 40
1
 40
1
 40
1
 10
25915.311443
 20
8194.338923
 30
0.0
 10
26018.209463
 20
8091.440903
 30
0.0
 10
26172.959753
 20
8060.659156
 30
0.0
 10
26307.402495
 20
8116.347163
 30
0.0
  0
SPLINE
  5
2e7
100
AcDbEntity
  8
0
 62
7
100
AcDbSpline
 70
8
 71
3
 72
8
 73
4
 74
0
 40
0
 40
0
 40
0
 40
0
 40
1
 40
1
 40
1
 40
1
 10
26307.402495
 20
8116.347163
 30
0.0
 10
26441.845237
 20
8172.035170
 30
0.0
 10
26529.504234
 20
8303.226132
 30
0.0
 10
26529.504234
 20
8448.745907
 30
0.0
  0
SPLINE
  5
2e8
100
AcDbEntity
  8
0
 62
7
100
AcDbSpline
 70
8
 71
3
 72
8
 73
4
 74
0
 40
0
 40
0
 40
0
 40
0
 40
1
 40
1
 40
1
 40
1
 10
26529.504234
 20
8448.745907
 30
0.0
 10
26529.504234
 20
8544.167036
 30
0.0
 10
26491.598338
 20
8635.679964
 30
0.0
 10
26424.125411
 20
8703.152891
 30
0.0
  0
SPLINE
  5
2e9
100
AcDbEntity
  8
0
 62
7
100
AcDbSpline
 70
8
 71
3
 72
8
 73
4
 74
0
 40
0
 40
0
 40
0
 40
0
 40
1
 40
1
 40
1
 40
1
 10
26424.125411
 20
8703.152891
 30
0.0
 10
26356.652484
 20
8770.625818
 30
0.0
 10
26265.139556
 20
8808.531714
 30
0.0
 10
26169.718427
 20
8808.531714
 30
0.0
  0
LWPOLYLINE
  5
2ea
100
AcDbEntity
  8
0
 62
7
100
AcDbPolyline
 90
1
 70
1
 10
28181.291170
 20
7705.404504
 30
0.0
  0
SPLINE
  5
2eb
100
AcDbEntity
  8
0
 62
7
100
AcDbSpline
 70
8
 71
3
 72
8
 73
4
 74
0
 40
0
 40
0
 40
0
 40
0
 40
1
 40
1
 40
1
 40
1
 10
26368.658309
 20
3382.077203
 30
0.0
 10
26210.665075
 20
3382.077203
 30
0.0
 10
26068.228872
 20
3286.904375
 30
0.0
 10
26007.767479
 20
3140.937660
 30
0.0
  0
SPLINE
  5
2ec
100
AcDbEntity
  8
0
 62
7
100
AcDbSpline
 70
8
 71
3
 72
8
 73
4
 74
0
 40
0
 40
0
 40
0
 40
0
 40
1
 40
1
 40
1
 40
1
 10
26007.767479
 20
3140.937660
 30
0.0
 10
25947.306086
 20
2994.970945
 30
0.0
 10
25980.726339
 20
2826.955988
 30
0.0
 10
26092.444426
 20
2715.237901
 30
0.0
  0
SPLINE
  5
2ed
100
AcDbEntity
  8
0
 62
7
100
AcDbSpline
 70
8
 71
3
 72
8
 73
4
 74
0
 40
0
 40
0
 40
0
 40
0
 40
1
 40
1
 40
1
 40
1
 10
26092.444426
 20
2715.237901
 30
0.0
 10
26204.162513
 20
2603.519814
 30
0.0
 10
26372.177470
 20
2570.099561
 30
0.0
 10
26518.144185
 20
2630.560954
 30
0.0
  0
SPLINE
  5
2ee
100
AcDbEntity
  8
0
 62
7
100
AcDbSpline
 70
8
 71
3
 72
8
 73
4
 74
0
 40
0
 40
0
 40
0
 40
0
 40
1
 40
1
 40
1
 40
1
 10
26518.144185
 20
2630.560954
 30
0.0
 10
26664.110900
 20
2691.022347
 30
0.0
 10
26759.283728
 20
2833.458550
 30
0.0
 10
26759.283728
 20
2991.451783
 30
0.0
  0
SPLINE
  5
2ef
100
AcDbEntity
  8
0
 62
7
100
AcDbSpline
 70
8
 71
3
 72
8
 73
4
 74
0
 40
0
 40
0
 40
0
 40
0
 40
1
 40
1
 40
1
 40
1
 10
26759.283728
 20
2991.451783
 30
0.0
 10
26759.283728
 20
3207.188245
 30
0.0
 10
26584.394770
 20
3382.077203
 30
0.0
 10
26368.658309
 20
3382.077203
 30
0.0
  0
LWPOLYLINE
  5
2f0
100
AcDbEntity
  8
0
 62
7
100
AcDbPolyline
 90
1
 70
1
 10
26169.718427
 20
8808.531714
 30
0.0
  0
SPLINE
  5
2f1
100
AcDbEntity
  8
0
 62
7
100
AcDbSpline
 70
8
 71
3
 72
8
 73
4
 74
0
 40
0
 40
0
 40
0
 40
0
 40
1
 40
1
 40
1
 40
1
 10
27681.228826
 20
5476.237967
 30
0.0
 10
27535.709051
 20
5476.237967
 30
0.0
 10
27404.518090
 20
5388.578969
 30
0.0
 10
27348.830083
 20
5254.136227
 30
0.0
  0
SPLINE
  5
2f2
100
AcDbEntity
  8
0
 62
7
100
AcDbSpline
 70
8
 71
3
 72
8
 73
4
 74
0
 40
0
 40
0
 40
0
 40
0
 40
1
 40
1
 40
1
 40
1
 10
27348.830083
 20
5254.136227
 30
0.0
 10
27293.142076
 20
5119.693485
 30
0.0
 10
27323.923822
 20
4964.943195
 30
0.0
 10
27426.821842
 20
4862.045175
 30
0.0
  0
SPLINE
  5
2f3
100
AcDbEntity
  8
0
 62
7
100
AcDbSpline
 70
8
 71
3
 72
8
 73
4
 74
0
 40
0
 40
0
 40
0
 40
0
 40
1
 40
1
 40
1
 40
1
 10
27426.821842
 20
4862.045175
 30
0.0
 10
27529.719862
 20
4759.147155
 30
0.0
 10
27684.470152
 20
4728.365409
 30
0.0
 10
27818.912894
 20
4784.053416
 30
0.0
  0
SPLINE
  5
2f4
100
AcDbEntity
  8
0
 62
7
100
AcDbSpline
 70
8
 71
3
 72
8
 73
4
 74
0
 40
0
 40
0
 40
0
 40
0
 40
1
 40
1
 40
1
 40
1
 10
27818.912894
 20
4784.053416
 30
0.0
 10
27953.355636
 20
4839.741423
 30
0.0
 10
28041.014634
 20
4970.932384
 30
0.0
 10
28041.014634
 20
5116.452159
 30
0.0
  0
SPLINE
  5
2f5
100
AcDbEntity
  8
0
 62
7
100
AcDbSpline
 70
8
 71
3
 72
8
 73
4
 74
0
 40
0
 40
0
 40
0
 40
0
 40
1
 40
1
 40
1
 40
1
 10
28041.014634
 20
5116.452159
 30
0.0
 10
28041.014634
 20
5211.873288
 30
0.0
 10
28003.108738
 20
5303.386216
 30
0.0
 10
27935.635810
 20
5370.859143
 30
0.0
  0
SPLINE
  5
2f6
100
AcDbEntity
  8
0
 62
7
100
AcDbSpline
 70
8
 71
3
 72
8
 73
4
 74
0
 40
0
 40
0
 40
0
 40
0
 40
1
 40
1
 40
1
 40
1
 10
27935.635810
 20
5370.859143
 30
0.0
 10
27868.162883
 20
5438.332071
 30
0.0
 10
27776.649955
 20
5476.237967
 30
0.0
 10
27681.228826
 20
5476.237967
 30
0.0
  0
LWPOLYLINE
  5
2f7
100
AcDbEntity
  8
0
 62
7
100
AcDbPolyline
 90
1
 70
1
 10
26368.658309
 20
3382.077203
 30
0.0
  0
SPLINE
  5
2f8
100
AcDbEntity
  8
0
 62
7
100
AcDbSpline
 70
8
 71
3
 72
8
 73
4
 74
0
 40
0
 40
0
 40
0
 40
0
 40
1
 40
1
 40
1
 40
1
 10
37702.054853
 20
12122.067038
 30
0.0
 10
37556.535078
 20
12122.067038
 30
0.0
 10
37425.344117
 20
12034.408041
 30
0.0
 10
37369.656110
 20
11899.965299
 30
0.0
  0
SPLINE
  5
2f9
100
AcDbEntity
  8
0
 62
7
100
AcDbSpline
 70
8
 71
3
 72
8
 73
4
 74
0
 40
0
 40
0
 40
0
 40
0
 40
1
 40
1
 40
1
 40
1
 10
37369.656110
 20
11899.965299
 30
0.0
 10
37313.968103
 20
11765.522557
 30
0.0
 10
37344.749849
 20
11610.772267
 30
0.0
 10
37447.647869
 20
11507.874247
 30
0.0
  0
SPLINE
  5
2fa
100
AcDbEntity
  8
0
 62
7
100
AcDbSpline
 70
8
 71
3
 72
8
 73
4
 74
0
 40
0
 40
0
 40
0
 40
0
 40
1
 40
1
 40
1
 40
1
 10
37447.647869
 20
11507.874247
 30
0.0
 10
37550.545889
 20
11404.976227
 30
0.0
 10
37705.296179
 20
11374.194481
 30
0.0
 10
37839.738921
 20
11429.882488
 30
0.0
  0
SPLINE
  5
2fb
100
AcDbEntity
  8
0
 62
7
100
AcDbSpline
 70
8
 71
3
 72
8
 73
4
 74
0
 40
0
 40
0
 40
0
 40
0
 40
1
 40
1
 40
1
 40
1
 10
37839.738921
 20
11429.882488
 30
0.0
 10
37974.181663
 20
11485.570495
 30
0.0
 10
38061.840660
 20
11616.761456
 30
0.0
 10
38061.840660
 20
11762.281231
 30
0.0
  0
SPLINE
  5
2fc
100
AcDbEntity
  8
0
 62
7
100
AcDbSpline
 70
8
 71
3
 72
8
 73
4
 74
0
 40
0
 40
0
 40
0
 40
0
 40
1
 40
1
 40
1
 40
1
 10
38061.840660
 20
11762.281231
 30
0.0
 10
38061.840660
 20
11857.702360
 30
0.0
 10
38023.934765
 20
11949.215288
 30
0.0
 10
37956.461837
 20
12016.688215
 30
0.0
  0
SPLINE
  5
2fd
100
AcDbEntity
  8
0
 62
7
100
AcDbSpline
 70
8
 71
3
 72
8
 73
4
 74
0
 40
0
 40
0
 40
0
 40
0
 40
1
 40
1
 40
1
 40
1
 10
37956.461837
 20
12016.688215
 30
0.0
 10
37888.988910
 20
12084.161142
 30
0.0
 10
37797.475982
 20
12122.067038
 30
0.0
 10
37702.054853
 20
12122.067038
 30
0.0
  0
LWPOLYLINE
  5
2fe
100
AcDbEntity
  8
0
 62
7
100
AcDbPolyline
 90
1
 70
1
 10
27681.228826
 20
5476.237967
 30
0.0
  0
SPLINE
  5
2ff
100
AcDbEntity
  8
0
 62
7
100
AcDbSpline
 70
8
 71
3
 72
8
 73
4
 74
0
 40
0
 40
0
 40
0
 40
0
 40
1
 40
1
 40
1
 40
1
 10
35514.480539
 20
15017.903991
 30
0.0
 10
35368.960763
 20
15017.903991
 30
0.0
 10
35237.769802
 20
14930.244994
 30
0.0
 10
35182.081795
 20
14795.802252
 30
0.0
  0
SPLINE
  5
300
100
AcDbEntity
  8
0
 62
7
100
AcDbSpline
 70
8
 71
3
 72
8
 73
4
 74
0
 40
0
 40
0
 40
0
 40
0
 40
1
 40
1
 40
1
 40
1
 10
35182.081795
 20
14795.802252
 30
0.0
 10
35126.393788
 20
14661.359510
 30
0.0
 10
35157.175535
 20
14506.609220
 30
0.0
 10
35260.073555
 20
14403.711200
 30
0.0
  0
SPLINE
  5
301
100
AcDbEntity
  8
0
 62
7
100
AcDbSpline
 70
8
 71
3
 72
8
 73
4
 74
0
 40
0
 40
0
 40
0
 40
0
 40
1
 40
1
 40
1
 40
1
 10
35260.073555
 20
14403.711200
 30
0.0
 10
35362.971574
 20
14300.813180
 30
0.0
 10
35517.721864
 20
14270.031434
 30
0.0
 10
35652.164606
 20
14325.719441
 30
0.0
  0
SPLINE
  5
302
100
AcDbEntity
  8
0
 62
7
100
AcDbSpline
 70
8
 71
3
 72
8
 73
4
 74
0
 40
0
 40
0
 40
0
 40
0
 40
1
 40
1
 40
1
 40
1
 10
35652.164606
 20
14325.719441
 30
0.0
 10
35786.607348
 20
14381.407448
 30
0.0
 10
35874.266346
 20
14512.598409
 30
0.0
 10
35874.266346
 20
14658.118184
 30
0.0
  0
SPLINE
  5
303
100
AcDbEntity
  8
0
 62
7
100
AcDbSpline
 70
8
 71
3
 72
8
 73
4
 74
0
 40
0
 40
0
 40
0
 40
0
 40
1
 40
1
 40
1
 40
1
 10
35874.266346
 20
14658.118184
 30
0.0
 10
35874.266346
 20
14753.539313
 30
0.0
 10
35836.360450
 20
14845.052241
 30
0.0
 10
35768.887523
 20
14912.525168
 30
0.0
  0
SPLINE
  5
304
100
AcDbEntity
  8
0
 62
7
100
AcDbSpline
 70
8
 71
3
 72
8
 73
4
 74
0
 40
0
 40
0
 40
0
 40
0
 40
1
 40
1
 40
1
 40
1
 10
35768.887523
 20
14912.525168
 30
0.0
 10
35701.414595
 20
14979.998096
 30
0.0
 10
35609.901667
 20
15017.903991
 30
0.0
 10
35514.480539
 20
15017.903991
 30
0.0
  0
LWPOLYLINE
  5
305
100
AcDbEntity
  8
0
 62
7
100
AcDbPolyline
 90
1
 70
1
 10
37702.054853
 20
12122.067038
 30
0.0
  0
SPLINE
  5
306
100
AcDbEntity
  8
0
 62
7
100
AcDbSpline
 70
8
 71
3
 72
8
 73
4
 74
0
 40
0
 40
0
 40
0
 40
0
 40
1
 40
1
 40
1
 40
1
 10
31096.734006
 20
15586.654687
 30
0.0
 10
30951.214231
 20
15586.654687
 30
0.0
 10
30820.023270
 20
15498.995689
 30
0.0
 10
30764.335263
 20
15364.552947
 30
0.0
  0
SPLINE
  5
307
100
AcDbEntity
  8
0
 62
7
100
AcDbSpline
 70
8
 71
3
 72
8
 73
4
 74
0
 40
0
 40
0
 40
0
 40
0
 40
1
 40
1
 40
1
 40
1
 10
30764.335263
 20
15364.552947
 30
0.0
 10
30708.647256
 20
15230.110205
 30
0.0
 10
30739.429002
 20
15075.359915
 30
0.0
 10
30842.327022
 20
14972.461895
 30
0.0
  0
SPLINE
  5
308
100
AcDbEntity
  8
0
 62
7
100
AcDbSpline
 70
8
 71
3
 72
8
 73
4
 74
0
 40
0
 40
0
 40
0
 40
0
 40
1
 40
1
 40
1
 40
1
 10
30842.327022
 20
14972.461895
 30
0.0
 10
30945.225042
 20
14869.563875
 30
0.0
 10
31099.975332
 20
14838.782129
 30
0.0
 10
31234.418074
 20
14894.470136
 30
0.0
  0
SPLINE
  5
309
100
AcDbEntity
  8
0
 62
7
100
AcDbSpline
 70
8
 71
3
 72
8
 73
4
 74
0
 40
0
 40
0
 40
0
 40
0
 40
1
 40
1
 40
1
 40
1
 10
31234.418074
 20
14894.470136
 30
0.0
 10
31368.860816
 20
14950.158143
 30
0.0
 10
31456.519813
 20
15081.349104
 30
0.0
 10
31456.519813
 20
15226.868879
 30
0.0
  0
SPLINE
  5
30a
100
AcDbEntity
  8
0
 62
7
100
AcDbSpline
 70
8
 71
3
 72
8
 73
4
 74
0
 40
0
 40
0
 40
0
 40
0
 40
1
 40
1
 40
1
 40
1
 10
31456.519813
 20
15226.868879
 30
0.0
 10
31456.519813
 20
15322.290008
 30
0.0
 10
31418.613918
 20
15413.802936
 30
0.0
 10
31351.140990
 20
15481.275863
 30
0.0
  0
SPLINE
  5
30b
100
AcDbEntity
  8
0
 62
7
100
AcDbSpline
 70
8
 71
3
 72
8
 73
4
 74
0
 40
0
 40
0
 40
0
 40
0
 40
1
 40
1
 40
1
 40
1
 10
31351.140990
 20
15481.275863
 30
0.0
 10
31283.668063
 20
15548.748791
 30
0.0
 10
31192.155135
 20
15586.654687
 30
0.0
 10
31096.734006
 20
15586.654687
 30
0.0
  0
LWPOLYLINE
  5
30c
100
AcDbEntity
  8
0
 62
7
100
AcDbPolyline
 90
1
 70
1
 10
35514.480539
 20
15017.903991
 30
0.0
  0
SPLINE
  5
30d
100
AcDbEntity
  8
0
 62
7
100
AcDbSpline
 70
8
 71
3
 72
8
 73
4
 74
0
 40
0
 40
0
 40
0
 40
0
 40
1
 40
1
 40
1
 40
1
 10
37306.238311
 20
2434.588920
 30
0.0
 10
37160.718535
 20
2434.588920
 30
0.0
 10
37029.527574
 20
2346.929922
 30
0.0
 10
36973.839567
 20
2212.487180
 30
0.0
  0
SPLINE
  5
30e
100
AcDbEntity
  8
0
 62
7
100
AcDbSpline
 70
8
 71
3
 72
8
 73
4
 74
0
 40
0
 40
0
 40
0
 40
0
 40
1
 40
1
 40
1
 40
1
 10
36973.839567
 20
2212.487180
 30
0.0
 10
36918.151560
 20
2078.044438
 30
0.0
 10
36948.933307
 20
1923.294148
 30
0.0
 10
37051.831326
 20
1820.396128
 30
0.0
  0
SPLINE
  5
30f
100
AcDbEntity
  8
0
 62
7
100
AcDbSpline
 70
8
 71
3
 72
8
 73
4
 74
0
 40
0
 40
0
 40
0
 40
0
 40
1
 40
1
 40
1
 40
1
 10
37051.831326
 20
1820.396128
 30
0.0
 10
37154.729346
 20
1717.498108
 30
0.0
 10
37309.479636
 20
1686.716362
 30
0.0
 10
37443.922378
 20
1742.404369
 30
0.0
  0
SPLINE
  5
310
100
AcDbEntity
  8
0
 62
7
100
AcDbSpline
 70
8
 71
3
 72
8
 73
4
 74
0
 40
0
 40
0
 40
0
 40
0
 40
1
 40
1
 40
1
 40
1
 10
37443.922378
 20
1742.404369
 30
0.0
 10
37578.365120
 20
1798.092376
 30
0.0
 10
37666.024118
 20
1929.283337
 30
0.0
 10
37666.024118
 20
2074.803112
 30
0.0
  0
SPLINE
  5
311
100
AcDbEntity
  8
0
 62
7
100
AcDbSpline
 70
8
 71
3
 72
8
 73
4
 74
0
 40
0
 40
0
 40
0
 40
0
 40
1
 40
1
 40
1
 40
1
 10
37666.024118
 20
2074.803112
 30
0.0
 10
37666.024118
 20
2170.224241
 30
0.0
 10
37628.118222
 20
2261.737169
 30
0.0
 10
37560.645295
 20
2329.210096
 30
0.0
  0
SPLINE
  5
312
100
AcDbEntity
  8
0
 62
7
100
AcDbSpline
 70
8
 71
3
 72
8
 73
4
 74
0
 40
0
 40
0
 40
0
 40
0
 40
1
 40
1
 40
1
 40
1
 10
37560.645295
 20
2329.210096
 30
0.0
 10
37493.172367
 20
2396.683024
 30
0.0
 10
37401.659439
 20
2434.588920
 30
0.0
 10
37306.238311
 20
2434.588920
 30
0.0
  0
LWPOLYLINE
  5
313
100
AcDbEntity
  8
0
 62
7
100
AcDbPolyline
 90
1
 70
1
 10
31096.734006
 20
15586.654687
 30
0.0
  0
SPLINE
  5
314
100
AcDbEntity
  8
0
 62
7
100
AcDbSpline
 70
8
 71
3
 72
8
 73
4
 74
0
 40
0
 40
0
 40
0
 40
0
 40
1
 40
1
 40
1
 40
1
 10
38546.869172
 20
6969.995359
 30
0.0
 10
38401.349397
 20
6969.995359
 30
0.0
 10
38270.158435
 20
6882.336361
 30
0.0
 10
38214.470428
 20
6747.893619
 30
0.0
  0
SPLINE
  5
315
100
AcDbEntity
  8
0
 62
7
100
AcDbSpline
 70
8
 71
3
 72
8
 73
4
 74
0
 40
0
 40
0
 40
0
 40
0
 40
1
 40
1
 40
1
 40
1
 10
38214.470428
 20
6747.893619
 30
0.0
 10
38158.782421
 20
6613.450877
 30
0.0
 10
38189.564168
 20
6458.700587
 30
0.0
 10
38292.462188
 20
6355.802568
 30
0.0
  0
SPLINE
  5
316
100
AcDbEntity
  8
0
 62
7
100
AcDbSpline
 70
8
 71
3
 72
8
 73
4
 74
0
 40
0
 40
0
 40
0
 40
0
 40
1
 40
1
 40
1
 40
1
 10
38292.462188
 20
6355.802568
 30
0.0
 10
38395.360208
 20
6252.904548
 30
0.0
 10
38550.110497
 20
6222.122801
 30
0.0
 10
38684.553239
 20
6277.810808
 30
0.0
  0
SPLINE
  5
317
100
AcDbEntity
  8
0
 62
7
100
AcDbSpline
 70
8
 71
3
 72
8
 73
4
 74
0
 40
0
 40
0
 40
0
 40
0
 40
1
 40
1
 40
1
 40
1
 10
38684.553239
 20
6277.810808
 30
0.0
 10
38818.995981
 20
6333.498815
 30
0.0
 10
38906.654979
 20
6464.689776
 30
0.0
 10
38906.654979
 20
6610.209552
 30
0.0
  0
SPLINE
  5
318
100
AcDbEntity
  8
0
 62
7
100
AcDbSpline
 70
8
 71
3
 72
8
 73
4
 74
0
 40
0
 40
0
 40
0
 40
0
 40
1
 40
1
 40
1
 40
1
 10
38906.654979
 20
6610.209552
 30
0.0
 10
38906.654979
 20
6705.630681
 30
0.0
 10
38868.749083
 20
6797.143608
 30
0.0
 10
38801.276156
 20
6864.616536
 30
0.0
  0
SPLINE
  5
319
100
AcDbEntity
  8
0
 62
7
100
AcDbSpline
 70
8
 71
3
 72
8
 73
4
 74
0
 40
0
 40
0
 40
0
 40
0
 40
1
 40
1
 40
1
 40
1
 10
38801.276156
 20
6864.616536
 30
0.0
 10
38733.803229
 20
6932.089463
 30
0.0
 10
38642.290301
 20
6969.995359
 30
0.0
 10
38546.869172
 20
6969.995359
 30
0.0
  0
LWPOLYLINE
  5
31a
100
AcDbEntity
  8
0
 62
7
100
AcDbPolyline
 90
1
 70
1
 10
37306.238311
 20
2434.588920
 30
0.0
  0
SPLINE
  5
31b
100
AcDbEntity
  8
0
 62
7
100
AcDbSpline
 70
8
 71
3
 72
8
 73
4
 74
0
 40
0
 40
0
 40
0
 40
0
 40
1
 40
1
 40
1
 40
1
 10
39077.094006
 20
3226.248992
 30
0.0
 10
38931.574230
 20
3226.248992
 30
0.0
 10
38800.383269
 20
3138.589995
 30
0.0
 10
38744.695262
 20
3004.147253
 30
0.0
  0
SPLINE
  5
31c
100
AcDbEntity
  8
0
 62
7
100
AcDbSpline
 70
8
 71
3
 72
8
 73
4
 74
0
 40
0
 40
0
 40
0
 40
0
 40
1
 40
1
 40
1
 40
1
 10
38744.695262
 20
3004.147253
 30
0.0
 10
38689.007255
 20
2869.704511
 30
0.0
 10
38719.789002
 20
2714.954221
 30
0.0
 10
38822.687022
 20
2612.056201
 30
0.0
  0
SPLINE
  5
31d
100
AcDbEntity
  8
0
 62
7
100
AcDbSpline
 70
8
 71
3
 72
8
 73
4
 74
0
 40
0
 40
0
 40
0
 40
0
 40
1
 40
1
 40
1
 40
1
 10
38822.687022
 20
2612.056201
 30
0.0
 10
38925.585041
 20
2509.158181
 30
0.0
 10
39080.335331
 20
2478.376435
 30
0.0
 10
39214.778073
 20
2534.064442
 30
0.0
  0
SPLINE
  5
31e
100
AcDbEntity
  8
0
 62
7
100
AcDbSpline
 70
8
 71
3
 72
8
 73
4
 74
0
 40
0
 40
0
 40
0
 40
0
 40
1
 40
1
 40
1
 40
1
 10
39214.778073
 20
2534.064442
 30
0.0
 10
39349.220815
 20
2589.752449
 30
0.0
 10
39436.879813
 20
2720.943410
 30
0.0
 10
39436.879813
 20
2866.463185
 30
0.0
  0
SPLINE
  5
31f
100
AcDbEntity
  8
0
 62
7
100
AcDbSpline
 70
8
 71
3
 72
8
 73
4
 74
0
 40
0
 40
0
 40
0
 40
0
 40
1
 40
1
 40
1
 40
1
 10
39436.879813
 20
2866.463185
 30
0.0
 10
39436.879813
 20
2961.884314
 30
0.0
 10
39398.973917
 20
3053.397242
 30
0.0
 10
39331.500990
 20
3120.870169
 30
0.0
  0
SPLINE
  5
320
100
AcDbEntity
  8
0
 62
7
100
AcDbSpline
 70
8
 71
3
 72
8
 73
4
 74
0
 40
0
 40
0
 40
0
 40
0
 40
1
 40
1
 40
1
 40
1
 10
39331.500990
 20
3120.870169
 30
0.0
 10
39264.028062
 20
3188.343097
 30
0.0
 10
39172.515135
 20
3226.248992
 30
0.0
 10
39077.094006
 20
3226.248992
 30
0.0
  0
LWPOLYLINE
  5
321
100
AcDbEntity
  8
0
 62
7
100
AcDbPolyline
 90
1
 70
1
 10
38546.869172
 20
6969.995359
 30
0.0
  0
SPLINE
  5
322
100
AcDbEntity
  8
0
 62
7
100
AcDbSpline
 70
8
 71
3
 72
8
 73
4
 74
0
 40
0
 40
0
 40
0
 40
0
 40
1
 40
1
 40
1
 40
1
 10
34291.576755
 20
4282.084117
 30
0.0
 10
34133.583521
 20
4282.084117
 30
0.0
 10
33991.147318
 20
4186.911289
 30
0.0
 10
33930.685925
 20
4040.944574
 30
0.0
  0
SPLINE
  5
323
100
AcDbEntity
  8
0
 62
7
100
AcDbSpline
 70
8
 71
3
 72
8
 73
4
 74
0
 40
0
 40
0
 40
0
 40
0
 40
1
 40
1
 40
1
 40
1
 10
33930.685925
 20
4040.944574
 30
0.0
 10
33870.224532
 20
3894.977858
 30
0.0
 10
33903.644785
 20
3726.962902
 30
0.0
 10
34015.362872
 20
3615.244814
 30
0.0
  0
SPLINE
  5
324
100
AcDbEntity
  8
0
 62
7
100
AcDbSpline
 70
8
 71
3
 72
8
 73
4
 74
0
 40
0
 40
0
 40
0
 40
0
 40
1
 40
1
 40
1
 40
1
 10
34015.362872
 20
3615.244814
 30
0.0
 10
34127.080959
 20
3503.526727
 30
0.0
 10
34295.095916
 20
3470.106475
 30
0.0
 10
34441.062631
 20
3530.567868
 30
0.0
  0
SPLINE
  5
325
100
AcDbEntity
  8
0
 62
7
100
AcDbSpline
 70
8
 71
3
 72
8
 73
4
 74
0
 40
0
 40
0
 40
0
 40
0
 40
1
 40
1
 40
1
 40
1
 10
34441.062631
 20
3530.567868
 30
0.0
 10
34587.029346
 20
3591.029261
 30
0.0
 10
34682.202174
 20
3733.465463
 30
0.0
 10
34682.202174
 20
3891.458697
 30
0.0
  0
SPLINE
  5
326
100
AcDbEntity
  8
0
 62
7
100
AcDbSpline
 70
8
 71
3
 72
8
 73
4
 74
0
 40
0
 40
0
 40
0
 40
0
 40
1
 40
1
 40
1
 40
1
 10
34682.202174
 20
3891.458697
 30
0.0
 10
34682.202174
 20
3995.059000
 30
0.0
 10
34641.047114
 20
4094.416104
 30
0.0
 10
34567.790638
 20
4167.672580
 30
0.0
  0
SPLINE
  5
327
100
AcDbEntity
  8
0
 62
7
100
AcDbSpline
 70
8
 71
3
 72
8
 73
4
 74
0
 40
0
 40
0
 40
0
 40
0
 40
1
 40
1
 40
1
 40
1
 10
34567.790638
 20
4167.672580
 30
0.0
 10
34494.534162
 20
4240.929057
 30
0.0
 10
34395.177058
 20
4282.084117
 30
0.0
 10
34291.576755
 20
4282.084117
 30
0.0
  0
LWPOLYLINE
  5
328
100
AcDbEntity
  8
0
 62
7
100
AcDbPolyline
 90
1
 70
1
 10
39077.094006
 20
3226.248992
 30
0.0
  0
SPLINE
  5
329
100
AcDbEntity
  8
0
 62
7
100
AcDbSpline
 70
8
 71
3
 72
8
 73
4
 74
0
 40
0
 40
0
 40
0
 40
0
 40
1
 40
1
 40
1
 40
1
 10
24014.501850
 20
13882.089425
 30
0.0
 10
23856.508937
 20
13882.089425
 30
0.0
 10
23714.073024
 20
13786.916791
 30
0.0
 10
23653.611754
 20
13640.950372
 30
0.0
  0
SPLINE
  5
32a
100
AcDbEntity
  8
0
 62
7
100
AcDbSpline
 70
8
 71
3
 72
8
 73
4
 74
0
 40
0
 40
0
 40
0
 40
0
 40
1
 40
1
 40
1
 40
1
 10
23653.611754
 20
13640.950372
 30
0.0
 10
23593.150484
 20
13494.983954
 30
0.0
 10
23626.570669
 20
13326.969338
 30
0.0
 10
23738.288529
 20
13215.251478
 30
0.0
  0
SPLINE
  5
32b
100
AcDbEntity
  8
0
 62
7
100
AcDbSpline
 70
8
 71
3
 72
8
 73
4
 74
0
 40
0
 40
0
 40
0
 40
0
 40
1
 40
1
 40
1
 40
1
 10
23738.288529
 20
13215.251478
 30
0.0
 10
23850.006389
 20
13103.533618
 30
0.0
 10
24018.021004
 20
13070.113433
 30
0.0
 10
24163.987423
 20
13130.574703
 30
0.0
  0
SPLINE
  5
32c
100
AcDbEntity
  8
0
 62
7
100
AcDbSpline
 70
8
 71
3
 72
8
 73
4
 74
0
 40
0
 40
0
 40
0
 40
0
 40
1
 40
1
 40
1
 40
1
 10
24163.987423
 20
13130.574703
 30
0.0
 10
24309.953841
 20
13191.035973
 30
0.0
 10
24405.126476
 20
13333.471887
 30
0.0
 10
24405.126476
 20
13491.464800
 30
0.0
  0
SPLINE
  5
32d
100
AcDbEntity
  8
0
 62
7
100
AcDbSpline
 70
8
 71
3
 72
8
 73
4
 74
0
 40
0
 40
0
 40
0
 40
0
 40
1
 40
1
 40
1
 40
1
 10
24405.126476
 20
13491.464800
 30
0.0
 10
24405.126476
 20
13595.064892
 30
0.0
 10
24363.971500
 20
13694.421794
 30
0.0
 10
24290.715172
 20
13767.678121
 30
0.0
  0
SPLINE
  5
32e
100
AcDbEntity
  8
0
 62
7
100
AcDbSpline
 70
8
 71
3
 72
8
 73
4
 74
0
 40
0
 40
0
 40
0
 40
0
 40
1
 40
1
 40
1
 40
1
 10
24290.715172
 20
13767.678121
 30
0.0
 10
24217.458844
 20
13840.934449
 30
0.0
 10
24118.101942
 20
13882.089425
 30
0.0
 10
24014.501850
 20
13882.089425
 30
0.0
  0
LWPOLYLINE
  5
32f
100
AcDbEntity
  8
0
 62
7
100
AcDbPolyline
 90
1
 70
1
 10
34291.576755
 20
4282.084117
 30
0.0
  0
SPLINE
  5
330
100
AcDbEntity
  8
0
 62
7
100
AcDbSpline
 70
8
 71
3
 72
8
 73
4
 74
0
 40
0
 40
0
 40
0
 40
0
 40
1
 40
1
 40
1
 40
1
 10
22702.009649
 20
15372.075130
 30
0.0
 10
22556.489874
 20
15372.075130
 30
0.0
 10
22425.298913
 20
15284.416133
 30
0.0
 10
22369.610906
 20
15149.973391
 30
0.0
  0
SPLINE
  5
331
100
AcDbEntity
  8
0
 62
7
100
AcDbSpline
 70
8
 71
3
 72
8
 73
4
 74
0
 40
0
 40
0
 40
0
 40
0
 40
1
 40
1
 40
1
 40
1
 10
22369.610906
 20
15149.973391
 30
0.0
 10
22313.922899
 20
15015.530649
 30
0.0
 10
22344.704645
 20
14860.780359
 30
0.0
 10
22447.602665
 20
14757.882339
 30
0.0
  0
SPLINE
  5
332
100
AcDbEntity
  8
0
 62
7
100
AcDbSpline
 70
8
 71
3
 72
8
 73
4
 74
0
 40
0
 40
0
 40
0
 40
0
 40
1
 40
1
 40
1
 40
1
 10
22447.602665
 20
14757.882339
 30
0.0
 10
22550.500685
 20
14654.984319
 30
0.0
 10
22705.250975
 20
14624.202573
 30
0.0
 10
22839.693717
 20
14679.890580
 30
0.0
  0
SPLINE
  5
333
100
AcDbEntity
  8
0
 62
7
100
AcDbSpline
 70
8
 71
3
 72
8
 73
4
 74
0
 40
0
 40
0
 40
0
 40
0
 40
1
 40
1
 40
1
 40
1
 10
22839.693717
 20
14679.890580
 30
0.0
 10
22974.136459
 20
14735.578587
 30
0.0
 10
23061.795456
 20
14866.769548
 30
0.0
 10
23061.795456
 20
15012.289323
 30
0.0
  0
SPLINE
  5
334
100
AcDbEntity
  8
0
 62
7
100
AcDbSpline
 70
8
 71
3
 72
8
 73
4
 74
0
 40
0
 40
0
 40
0
 40
0
 40
1
 40
1
 40
1
 40
1
 10
23061.795456
 20
15012.289323
 30
0.0
 10
23061.795456
 20
15210.993538
 30
0.0
 10
22900.713864
 20
15372.075130
 30
0.0
 10
22702.009649
 20
15372.075130
 30
0.0
  0
LWPOLYLINE
  5
335
100
AcDbEntity
  8
0
 62
7
100
AcDbPolyline
 90
1
 70
1
 10
24014.501850
 20
13882.089425
 30
0.0
  0
SPLINE
  5
336
100
AcDbEntity
  8
0
 62
7
100
AcDbSpline
 70
8
 71
3
 72
8
 73
4
 74
0
 40
0
 40
0
 40
0
 40
0
 40
1
 40
1
 40
1
 40
1
 10
18347.843795
 20
13777.923000
 30
0.0
 10
18189.850882
 20
13777.923000
 30
0.0
 10
18047.414968
 20
13682.750365
 30
0.0
 10
17986.953698
 20
13536.783946
 30
0.0
  0
SPLINE
  5
337
100
AcDbEntity
  8
0
 62
7
100
AcDbSpline
 70
8
 71
3
 72
8
 73
4
 74
0
 40
0
 40
0
 40
0
 40
0
 40
1
 40
1
 40
1
 40
1
 10
17986.953698
 20
13536.783946
 30
0.0
 10
17926.492428
 20
13390.817528
 30
0.0
 10
17959.912613
 20
13222.802912
 30
0.0
 10
18071.630473
 20
13111.085052
 30
0.0
  0
SPLINE
  5
338
100
AcDbEntity
  8
0
 62
7
100
AcDbSpline
 70
8
 71
3
 72
8
 73
4
 74
0
 40
0
 40
0
 40
0
 40
0
 40
1
 40
1
 40
1
 40
1
 10
18071.630473
 20
13111.085052
 30
0.0
 10
18183.348333
 20
12999.367192
 30
0.0
 10
18351.362949
 20
12965.947007
 30
0.0
 10
18497.329367
 20
13026.408278
 30
0.0
  0
SPLINE
  5
339
100
AcDbEntity
  8
0
 62
7
100
AcDbSpline
 70
8
 71
3
 72
8
 73
4
 74
0
 40
0
 40
0
 40
0
 40
0
 40
1
 40
1
 40
1
 40
1
 10
18497.329367
 20
13026.408278
 30
0.0
 10
18643.295786
 20
13086.869548
 30
0.0
 10
18738.468420
 20
13229.305461
 30
0.0
 10
18738.468420
 20
13387.298374
 30
0.0
  0
SPLINE
  5
33a
100
AcDbEntity
  8
0
 62
7
100
AcDbSpline
 70
8
 71
3
 72
8
 73
4
 74
0
 40
0
 40
0
 40
0
 40
0
 40
1
 40
1
 40
1
 40
1
 10
18738.468420
 20
13387.298374
 30
0.0
 10
18738.468420
 20
13490.898466
 30
0.0
 10
18697.313444
 20
13590.255368
 30
0.0
 10
18624.057116
 20
13663.511696
 30
0.0
  0
SPLINE
  5
33b
100
AcDbEntity
  8
0
 62
7
100
AcDbSpline
 70
8
 71
3
 72
8
 73
4
 74
0
 40
0
 40
0
 40
0
 40
0
 40
1
 40
1
 40
1
 40
1
 10
18624.057116
 20
13663.511696
 30
0.0
 10
18550.800789
 20
13736.768023
 30
0.0
 10
18451.443887
 20
13777.923000
 30
0.0
 10
18347.843795
 20
13777.923000
 30
0.0
  0
LWPOLYLINE
  5
33c
100
AcDbEntity
  8
0
 62
7
100
AcDbPolyline
 90
1
 70
1
 10
22702.009649
 20
15372.075130
 30
0.0
  0
SPLINE
  5
33d
100
AcDbEntity
  8
0
 62
7
100
AcDbSpline
 70
8
 71
3
 72
8
 73
4
 74
0
 40
0
 40
0
 40
0
 40
0
 40
1
 40
1
 40
1
 40
1
 10
16493.670305
 20
15101.247715
 30
0.0
 10
16348.150530
 20
15101.247715
 30
0.0
 10
16216.959568
 20
15013.588718
 30
0.0
 10
16161.271561
 20
14879.145976
 30
0.0
  0
SPLINE
  5
33e
100
AcDbEntity
  8
0
 62
7
100
AcDbSpline
 70
8
 71
3
 72
8
 73
4
 74
0
 40
0
 40
0
 40
0
 40
0
 40
1
 40
1
 40
1
 40
1
 10
16161.271561
 20
14879.145976
 30
0.0
 10
16105.583554
 20
14744.703234
 30
0.0
 10
16136.365301
 20
14589.952944
 30
0.0
 10
16239.263321
 20
14487.054924
 30
0.0
  0
SPLINE
  5
33f
100
AcDbEntity
  8
0
 62
7
100
AcDbSpline
 70
8
 71
3
 72
8
 73
4
 74
0
 40
0
 40
0
 40
0
 40
0
 40
1
 40
1
 40
1
 40
1
 10
16239.263321
 20
14487.054924
 30
0.0
 10
16342.161341
 20
14384.156904
 30
0.0
 10
16496.911631
 20
14353.375158
 30
0.0
 10
16631.354372
 20
14409.063165
 30
0.0
  0
SPLINE
  5
340
100
AcDbEntity
  8
0
 62
7
100
AcDbSpline
 70
8
 71
3
 72
8
 73
4
 74
0
 40
0
 40
0
 40
0
 40
0
 40
1
 40
1
 40
1
 40
1
 10
16631.354372
 20
14409.063165
 30
0.0
 10
16765.797114
 20
14464.751172
 30
0.0
 10
16853.456112
 20
14595.942133
 30
0.0
 10
16853.456112
 20
14741.461908
 30
0.0
  0
SPLINE
  5
341
100
AcDbEntity
  8
0
 62
7
100
AcDbSpline
 70
8
 71
3
 72
8
 73
4
 74
0
 40
0
 40
0
 40
0
 40
0
 40
1
 40
1
 40
1
 40
1
 10
16853.456112
 20
14741.461908
 30
0.0
 10
16853.456112
 20
14940.166123
 30
0.0
 10
16692.374519
 20
15101.247715
 30
0.0
 10
16493.670305
 20
15101.247715
 30
0.0
  0
LWPOLYLINE
  5
342
100
AcDbEntity
  8
0
 62
7
100
AcDbPolyline
 90
1
 70
1
 10
18347.843795
 20
13777.923000
 30
0.0
  0
SPLINE
  5
343
100
AcDbEntity
  8
0
 62
7
100
AcDbSpline
 70
8
 71
3
 72
8
 73
4
 74
0
 40
0
 40
0
 40
0
 40
0
 40
1
 40
1
 40
1
 40
1
 10
11556.175642
 20
14090.422277
 30
0.0
 10
11398.182729
 20
14090.422277
 30
0.0
 10
11255.746815
 20
13995.249642
 30
0.0
 10
11195.285545
 20
13849.283224
 30
0.0
  0
SPLINE
  5
344
100
AcDbEntity
  8
0
 62
7
100
AcDbSpline
 70
8
 71
3
 72
8
 73
4
 74
0
 40
0
 40
0
 40
0
 40
0
 40
1
 40
1
 40
1
 40
1
 10
11195.285545
 20
13849.283224
 30
0.0
 10
11134.824275
 20
13703.316805
 30
0.0
 10
11168.244460
 20
13535.302190
 30
0.0
 10
11279.962320
 20
13423.584329
 30
0.0
  0
SPLINE
  5
345
100
AcDbEntity
  8
0
 62
7
100
AcDbSpline
 70
8
 71
3
 72
8
 73
4
 74
0
 40
0
 40
0
 40
0
 40
0
 40
1
 40
1
 40
1
 40
1
 10
11279.962320
 20
13423.584329
 30
0.0
 10
11391.680180
 20
13311.866469
 30
0.0
 10
11559.694795
 20
13278.446284
 30
0.0
 10
11705.661214
 20
13338.907555
 30
0.0
  0
SPLINE
  5
346
100
AcDbEntity
  8
0
 62
7
100
AcDbSpline
 70
8
 71
3
 72
8
 73
4
 74
0
 40
0
 40
0
 40
0
 40
0
 40
1
 40
1
 40
1
 40
1
 10
11705.661214
 20
13338.907555
 30
0.0
 10
11851.627632
 20
13399.368825
 30
0.0
 10
11946.800267
 20
13541.804738
 30
0.0
 10
11946.800267
 20
13699.797651
 30
0.0
  0
SPLINE
  5
347
100
AcDbEntity
  8
0
 62
7
100
AcDbSpline
 70
8
 71
3
 72
8
 73
4
 74
0
 40
0
 40
0
 40
0
 40
0
 40
1
 40
1
 40
1
 40
1
 10
11946.800267
 20
13699.797651
 30
0.0
 10
11946.800267
 20
13803.397743
 30
0.0
 10
11905.645291
 20
13902.754645
 30
0.0
 10
11832.388963
 20
13976.010973
 30
0.0
  0
SPLINE
  5
348
100
AcDbEntity
  8
0
 62
7
100
AcDbSpline
 70
8
 71
3
 72
8
 73
4
 74
0
 40
0
 40
0
 40
0
 40
0
 40
1
 40
1
 40
1
 40
1
 10
11832.388963
 20
13976.010973
 30
0.0
 10
11759.132636
 20
14049.267300
 30
0.0
 10
11659.775734
 20
14090.422277
 30
0.0
 10
11556.175642
 20
14090.422277
 30
0.0
  0
LWPOLYLINE
  5
349
100
AcDbEntity
  8
0
 62
7
100
AcDbPolyline
 90
1
 70
1
 10
16493.670305
 20
15101.247715
 30
0.0
  0
SPLINE
  5
34a
100
AcDbEntity
  8
0
 62
7
100
AcDbSpline
 70
8
 71
3
 72
8
 73
4
 74
0
 40
0
 40
0
 40
0
 40
0
 40
1
 40
1
 40
1
 40
1
 10
9431.175266
 20
15101.247715
 30
0.0
 10
9285.655490
 20
15101.247715
 30
0.0
 10
9154.464529
 20
15013.588718
 30
0.0
 10
9098.776522
 20
14879.145976
 30
0.0
  0
SPLINE
  5
34b
100
AcDbEntity
  8
0
 62
7
100
AcDbSpline
 70
8
 71
3
 72
8
 73
4
 74
0
 40
0
 40
0
 40
0
 40
0
 40
1
 40
1
 40
1
 40
1
 10
9098.776522
 20
14879.145976
 30
0.0
 10
9043.088515
 20
14744.703234
 30
0.0
 10
9073.870262
 20
14589.952944
 30
0.0
 10
9176.768282
 20
14487.054924
 30
0.0
  0
SPLINE
  5
34c
100
AcDbEntity
  8
0
 62
7
100
AcDbSpline
 70
8
 71
3
 72
8
 73
4
 74
0
 40
0
 40
0
 40
0
 40
0
 40
1
 40
1
 40
1
 40
1
 10
9176.768282
 20
14487.054924
 30
0.0
 10
9279.666301
 20
14384.156904
 30
0.0
 10
9434.416591
 20
14353.375158
 30
0.0
 10
9568.859333
 20
14409.063165
 30
0.0
  0
SPLINE
  5
34d
100
AcDbEntity
  8
0
 62
7
100
AcDbSpline
 70
8
 71
3
 72
8
 73
4
 74
0
 40
0
 40
0
 40
0
 40
0
 40
1
 40
1
 40
1
 40
1
 10
9568.859333
 20
14409.063165
 30
0.0
 10
9703.302075
 20
14464.751172
 30
0.0
 10
9790.961073
 20
14595.942133
 30
0.0
 10
9790.961073
 20
14741.461908
 30
0.0
  0
SPLINE
  5
34e
100
AcDbEntity
  8
0
 62
7
100
AcDbSpline
 70
8
 71
3
 72
8
 73
4
 74
0
 40
0
 40
0
 40
0
 40
0
 40
1
 40
1
 40
1
 40
1
 10
9790.961073
 20
14741.461908
 30
0.0
 10
9790.961073
 20
14836.883037
 30
0.0
 10
9753.055177
 20
14928.395965
 30
0.0
 10
9685.582250
 20
14995.868892
 30
0.0
  0
SPLINE
  5
34f
100
AcDbEntity
  8
0
 62
7
100
AcDbSpline
 70
8
 71
3
 72
8
 73
4
 74
0
 40
0
 40
0
 40
0
 40
0
 40
1
 40
1
 40
1
 40
1
 10
9685.582250
 20
14995.868892
 30
0.0
 10
9618.109322
 20
15063.341819
 30
0.0
 10
9526.596395
 20
15101.247715
 30
0.0
 10
9431.175266
 20
15101.247715
 30
0.0
  0
LWPOLYLINE
  5
350
100
AcDbEntity
  8
0
 62
7
100
AcDbPolyline
 90
1
 70
1
 10
11556.175642
 20
14090.422277
 30
0.0
  0
SPLINE
  5
351
100
AcDbEntity
  8
0
 62
7
100
AcDbSpline
 70
8
 71
3
 72
8
 73
4
 74
0
 40
0
 40
0
 40
0
 40
0
 40
1
 40
1
 40
1
 40
1
 10
25524.929046
 20
15359.057502
 30
0.0
 10
25380.458061
 20
15359.057502
 30
0.0
 10
25250.212619
 20
15272.030280
 30
0.0
 10
25194.925966
 20
15138.556494
 30
0.0
  0
SPLINE
  5
352
100
AcDbEntity
  8
0
 62
7
100
AcDbSpline
 70
8
 71
3
 72
8
 73
4
 74
0
 40
0
 40
0
 40
0
 40
0
 40
1
 40
1
 40
1
 40
1
 10
25194.925966
 20
15138.556494
 30
0.0
 10
25139.639314
 20
15005.082708
 30
0.0
 10
25170.199210
 20
14851.447734
 30
0.0
 10
25272.355624
 20
14749.291321
 30
0.0
  0
SPLINE
  5
353
100
AcDbEntity
  8
0
 62
7
100
AcDbSpline
 70
8
 71
3
 72
8
 73
4
 74
0
 40
0
 40
0
 40
0
 40
0
 40
1
 40
1
 40
1
 40
1
 10
25272.355624
 20
14749.291321
 30
0.0
 10
25374.512037
 20
14647.134908
 30
0.0
 10
25528.147011
 20
14616.575011
 30
0.0
 10
25661.620797
 20
14671.861664
 30
0.0
  0
SPLINE
  5
354
100
AcDbEntity
  8
0
 62
7
100
AcDbSpline
 70
8
 71
3
 72
8
 73
4
 74
0
 40
0
 40
0
 40
0
 40
0
 40
1
 40
1
 40
1
 40
1
 10
25661.620797
 20
14671.861664
 30
0.0
 10
25795.094583
 20
14727.148316
 30
0.0
 10
25882.121805
 20
14857.393758
 30
0.0
 10
25882.121805
 20
15001.864743
 30
0.0
  0
SPLINE
  5
355
100
AcDbEntity
  8
0
 62
7
100
AcDbSpline
 70
8
 71
3
 72
8
 73
4
 74
0
 40
0
 40
0
 40
0
 40
0
 40
1
 40
1
 40
1
 40
1
 10
25882.121805
 20
15001.864743
 30
0.0
 10
25882.121805
 20
15096.598153
 30
0.0
 10
25844.489104
 20
15187.451529
 30
0.0
 10
25777.502468
 20
15254.438165
 30
0.0
  0
SPLINE
  5
356
100
AcDbEntity
  8
0
 62
7
100
AcDbSpline
 70
8
 71
3
 72
8
 73
4
 74
0
 40
0
 40
0
 40
0
 40
0
 40
1
 40
1
 40
1
 40
1
 10
25777.502468
 20
15254.438165
 30
0.0
 10
25710.515832
 20
15321.424802
 30
0.0
 10
25619.662456
 20
15359.057502
 30
0.0
 10
25524.929046
 20
15359.057502
 30
0.0
  0
LWPOLYLINE
  5
357
100
AcDbEntity
  8
0
 62
7
100
AcDbPolyline
 90
1
 70
1
 10
9431.175266
 20
15101.247715
 30
0.0
  0
SPLINE
  5
358
100
AcDbEntity
  8
0
 62
7
100
AcDbSpline
 70
8
 71
3
 72
8
 73
4
 74
0
 40
0
 40
0
 40
0
 40
0
 40
1
 40
1
 40
1
 40
1
 10
20087.424956
 20
15004.886363
 30
0.0
 10
19942.953971
 20
15004.886363
 30
0.0
 10
19812.708529
 20
14917.859141
 30
0.0
 10
19757.421877
 20
14784.385355
 30
0.0
  0
SPLINE
  5
359
100
AcDbEntity
  8
0
 62
7
100
AcDbSpline
 70
8
 71
3
 72
8
 73
4
 74
0
 40
0
 40
0
 40
0
 40
0
 40
1
 40
1
 40
1
 40
1
 10
19757.421877
 20
14784.385355
 30
0.0
 10
19702.135224
 20
14650.911569
 30
0.0
 10
19732.695120
 20
14497.276595
 30
0.0
 10
19834.851534
 20
14395.120182
 30
0.0
  0
SPLINE
  5
35a
100
AcDbEntity
  8
0
 62
7
100
AcDbSpline
 70
8
 71
3
 72
8
 73
4
 74
0
 40
0
 40
0
 40
0
 40
0
 40
1
 40
1
 40
1
 40
1
 10
19834.851534
 20
14395.120182
 30
0.0
 10
19937.007947
 20
14292.963769
 30
0.0
 10
20090.642921
 20
14262.403872
 30
0.0
 10
20224.116707
 20
14317.690525
 30
0.0
  0
SPLINE
  5
35b
100
AcDbEntity
  8
0
 62
7
100
AcDbSpline
 70
8
 71
3
 72
8
 73
4
 74
0
 40
0
 40
0
 40
0
 40
0
 40
1
 40
1
 40
1
 40
1
 10
20224.116707
 20
14317.690525
 30
0.0
 10
20357.590493
 20
14372.977177
 30
0.0
 10
20444.617715
 20
14503.222619
 30
0.0
 10
20444.617715
 20
14647.693604
 30
0.0
  0
SPLINE
  5
35c
100
AcDbEntity
  8
0
 62
7
100
AcDbSpline
 70
8
 71
3
 72
8
 73
4
 74
0
 40
0
 40
0
 40
0
 40
0
 40
1
 40
1
 40
1
 40
1
 10
20444.617715
 20
14647.693604
 30
0.0
 10
20444.617715
 20
14742.427014
 30
0.0
 10
20406.985014
 20
14833.280390
 30
0.0
 10
20339.998378
 20
14900.267026
 30
0.0
  0
SPLINE
  5
35d
100
AcDbEntity
  8
0
 62
7
100
AcDbSpline
 70
8
 71
3
 72
8
 73
4
 74
0
 40
0
 40
0
 40
0
 40
0
 40
1
 40
1
 40
1
 40
1
 10
20339.998378
 20
14900.267026
 30
0.0
 10
20273.011742
 20
14967.253663
 30
0.0
 10
20182.158366
 20
15004.886363
 30
0.0
 10
20087.424956
 20
15004.886363
 30
0.0
  0
LWPOLYLINE
  5
35e
100
AcDbEntity
  8
0
 62
7
100
AcDbPolyline
 90
1
 70
1
 10
25524.929046
 20
15359.057502
 30
0.0
  0
SPLINE
  5
35f
100
AcDbEntity
  8
0
 62
7
100
AcDbSpline
 70
8
 71
3
 72
8
 73
4
 74
0
 40
0
 40
0
 40
0
 40
0
 40
1
 40
1
 40
1
 40
1
 10
13587.408243
 20
15150.724651
 30
0.0
 10
13442.937257
 20
15150.724651
 30
0.0
 10
13312.691816
 20
15063.697429
 30
0.0
 10
13257.405163
 20
14930.223643
 30
0.0
  0
SPLINE
  5
360
100
AcDbEntity
  8
0
 62
7
100
AcDbSpline
 70
8
 71
3
 72
8
 73
4
 74
0
 40
0
 40
0
 40
0
 40
0
 40
1
 40
1
 40
1
 40
1
 10
13257.405163
 20
14930.223643
 30
0.0
 10
13202.118511
 20
14796.749857
 30
0.0
 10
13232.678407
 20
14643.114883
 30
0.0
 10
13334.834820
 20
14540.958470
 30
0.0
  0
SPLINE
  5
361
100
AcDbEntity
  8
0
 62
7
100
AcDbSpline
 70
8
 71
3
 72
8
 73
4
 74
0
 40
0
 40
0
 40
0
 40
0
 40
1
 40
1
 40
1
 40
1
 10
13334.834820
 20
14540.958470
 30
0.0
 10
13436.991234
 20
14438.802056
 30
0.0
 10
13590.626207
 20
14408.242160
 30
0.0
 10
13724.099994
 20
14463.528812
 30
0.0
  0
SPLINE
  5
362
100
AcDbEntity
  8
0
 62
7
100
AcDbSpline
 70
8
 71
3
 72
8
 73
4
 74
0
 40
0
 40
0
 40
0
 40
0
 40
1
 40
1
 40
1
 40
1
 10
13724.099994
 20
14463.528812
 30
0.0
 10
13857.573780
 20
14518.815465
 30
0.0
 10
13944.601002
 20
14649.060907
 30
0.0
 10
13944.601002
 20
14793.531892
 30
0.0
  0
SPLINE
  5
363
100
AcDbEntity
  8
0
 62
7
100
AcDbSpline
 70
8
 71
3
 72
8
 73
4
 74
0
 40
0
 40
0
 40
0
 40
0
 40
1
 40
1
 40
1
 40
1
 10
13944.601002
 20
14793.531892
 30
0.0
 10
13944.601002
 20
14888.265301
 30
0.0
 10
13906.968301
 20
14979.118677
 30
0.0
 10
13839.981665
 20
15046.105314
 30
0.0
  0
SPLINE
  5
364
100
AcDbEntity
  8
0
 62
7
100
AcDbSpline
 70
8
 71
3
 72
8
 73
4
 74
0
 40
0
 40
0
 40
0
 40
0
 40
1
 40
1
 40
1
 40
1
 10
13839.981665
 20
15046.105314
 30
0.0
 10
13772.995028
 20
15113.091950
 30
0.0
 10
13682.141652
 20
15150.724651
 30
0.0
 10
13587.408243
 20
15150.724651
 30
0.0
  0
LWPOLYLINE
  5
365
100
AcDbEntity
  8
0
 62
7
100
AcDbPolyline
 90
1
 70
1
 10
20087.424956
 20
15004.886363
 30
0.0
  0
SPLINE
  5
366
100
AcDbEntity
  8
0
 62
7
100
AcDbSpline
 70
8
 71
3
 72
8
 73
4
 74
0
 40
0
 40
0
 40
0
 40
0
 40
1
 40
1
 40
1
 40
1
 10
25441.585322
 20
10504.907357
 30
0.0
 10
25244.313208
 20
10504.907357
 30
0.0
 10
25084.392563
 20
10344.986711
 30
0.0
 10
25084.392563
 20
10147.714597
 30
0.0
  0
SPLINE
  5
367
100
AcDbEntity
  8
0
 62
7
100
AcDbSpline
 70
8
 71
3
 72
8
 73
4
 74
0
 40
0
 40
0
 40
0
 40
0
 40
1
 40
1
 40
1
 40
1
 10
25084.392563
 20
10147.714597
 30
0.0
 10
25084.392563
 20
9950.442484
 30
0.0
 10
25244.313208
 20
9790.521838
 30
0.0
 10
25441.585322
 20
9790.521838
 30
0.0
  0
SPLINE
  5
368
100
AcDbEntity
  8
0
 62
7
100
AcDbSpline
 70
8
 71
3
 72
8
 73
4
 74
0
 40
0
 40
0
 40
0
 40
0
 40
1
 40
1
 40
1
 40
1
 10
25441.585322
 20
9790.521838
 30
0.0
 10
25638.857436
 20
9790.521838
 30
0.0
 10
25798.778081
 20
9950.442484
 30
0.0
 10
25798.778081
 20
10147.714597
 30
0.0
  0
SPLINE
  5
369
100
AcDbEntity
  8
0
 62
7
100
AcDbSpline
 70
8
 71
3
 72
8
 73
4
 74
0
 40
0
 40
0
 40
0
 40
0
 40
1
 40
1
 40
1
 40
1
 10
25798.778081
 20
10147.714597
 30
0.0
 10
25798.778081
 20
10242.448007
 30
0.0
 10
25761.145381
 20
10333.301383
 30
0.0
 10
25694.158744
 20
10400.288020
 30
0.0
  0
SPLINE
  5
36a
100
AcDbEntity
  8
0
 62
7
100
AcDbSpline
 70
8
 71
3
 72
8
 73
4
 74
0
 40
0
 40
0
 40
0
 40
0
 40
1
 40
1
 40
1
 40
1
 10
25694.158744
 20
10400.288020
 30
0.0
 10
25627.172108
 20
10467.274656
 30
0.0
 10
25536.318732
 20
10504.907357
 30
0.0
 10
25441.585322
 20
10504.907357
 30
0.0
  0
LWPOLYLINE
  5
36b
100
AcDbEntity
  8
0
 62
7
100
AcDbPolyline
 90
1
 70
1
 10
13587.408243
 20
15150.724651
 30
0.0
  0
SPLINE
  5
36c
100
AcDbEntity
  8
0
 62
7
100
AcDbSpline
 70
8
 71
3
 72
8
 73
4
 74
0
 40
0
 40
0
 40
0
 40
0
 40
1
 40
1
 40
1
 40
1
 10
24004.077799
 20
1671.557945
 30
0.0
 10
23859.606814
 20
1671.557945
 30
0.0
 10
23729.361373
 20
1584.530723
 30
0.0
 10
23674.074720
 20
1451.056937
 30
0.0
  0
SPLINE
  5
36d
100
AcDbEntity
  8
0
 62
7
100
AcDbSpline
 70
8
 71
3
 72
8
 73
4
 74
0
 40
0
 40
0
 40
0
 40
0
 40
1
 40
1
 40
1
 40
1
 10
23674.074720
 20
1451.056937
 30
0.0
 10
23618.788068
 20
1317.583151
 30
0.0
 10
23649.347964
 20
1163.948177
 30
0.0
 10
23751.504377
 20
1061.791764
 30
0.0
  0
SPLINE
  5
36e
100
AcDbEntity
  8
0
 62
7
100
AcDbSpline
 70
8
 71
3
 72
8
 73
4
 74
0
 40
0
 40
0
 40
0
 40
0
 40
1
 40
1
 40
1
 40
1
 10
23751.504377
 20
1061.791764
 30
0.0
 10
23853.660791
 20
959.635351
 30
0.0
 10
24007.295764
 20
929.075454
 30
0.0
 10
24140.769550
 20
984.362107
 30
0.0
  0
SPLINE
  5
36f
100
AcDbEntity
  8
0
 62
7
100
AcDbSpline
 70
8
 71
3
 72
8
 73
4
 74
0
 40
0
 40
0
 40
0
 40
0
 40
1
 40
1
 40
1
 40
1
 10
24140.769550
 20
984.362107
 30
0.0
 10
24274.243337
 20
1039.648759
 30
0.0
 10
24361.270559
 20
1169.894201
 30
0.0
 10
24361.270559
 20
1314.365186
 30
0.0
  0
SPLINE
  5
370
100
AcDbEntity
  8
0
 62
7
100
AcDbSpline
 70
8
 71
3
 72
8
 73
4
 74
0
 40
0
 40
0
 40
0
 40
0
 40
1
 40
1
 40
1
 40
1
 10
24361.270559
 20
1314.365186
 30
0.0
 10
24361.270559
 20
1409.098596
 30
0.0
 10
24323.637858
 20
1499.951972
 30
0.0
 10
24256.651222
 20
1566.938608
 30
0.0
  0
SPLINE
  5
371
100
AcDbEntity
  8
0
 62
7
100
AcDbSpline
 70
8
 71
3
 72
8
 73
4
 74
0
 40
0
 40
0
 40
0
 40
0
 40
1
 40
1
 40
1
 40
1
 10
24256.651222
 20
1566.938608
 30
0.0
 10
24189.664585
 20
1633.925245
 30
0.0
 10
24098.811209
 20
1671.557945
 30
0.0
 10
24004.077799
 20
1671.557945
 30
0.0
  0
LWPOLYLINE
  5
372
100
AcDbEntity
  8
0
 62
7
100
AcDbPolyline
 90
1
 70
1
 10
25441.585322
 20
10504.907357
 30
0.0
  0
SPLINE
  5
373
100
AcDbEntity
  8
0
 62
7
100
AcDbSpline
 70
8
 71
3
 72
8
 73
4
 74
0
 40
0
 40
0
 40
0
 40
0
 40
1
 40
1
 40
1
 40
1
 10
18045.741316
 20
1629.911748
 30
0.0
 10
17901.270331
 20
1629.911748
 30
0.0
 10
17771.024890
 20
1542.884526
 30
0.0
 10
17715.738237
 20
1409.410740
 30
0.0
  0
SPLINE
  5
374
100
AcDbEntity
  8
0
 62
7
100
AcDbSpline
 70
8
 71
3
 72
8
 73
4
 74
0
 40
0
 40
0
 40
0
 40
0
 40
1
 40
1
 40
1
 40
1
 10
17715.738237
 20
1409.410740
 30
0.0
 10
17660.451585
 20
1275.936954
 30
0.0
 10
17691.011481
 20
1122.301980
 30
0.0
 10
17793.167894
 20
1020.145567
 30
0.0
  0
SPLINE
  5
375
100
AcDbEntity
  8
0
 62
7
100
AcDbSpline
 70
8
 71
3
 72
8
 73
4
 74
0
 40
0
 40
0
 40
0
 40
0
 40
1
 40
1
 40
1
 40
1
 10
17793.167894
 20
1020.145567
 30
0.0
 10
17895.324308
 20
917.989153
 30
0.0
 10
18048.959281
 20
887.429257
 30
0.0
 10
18182.433067
 20
942.715909
 30
0.0
  0
SPLINE
  5
376
100
AcDbEntity
  8
0
 62
7
100
AcDbSpline
 70
8
 71
3
 72
8
 73
4
 74
0
 40
0
 40
0
 40
0
 40
0
 40
1
 40
1
 40
1
 40
1
 10
18182.433067
 20
942.715909
 30
0.0
 10
18315.906854
 20
998.002562
 30
0.0
 10
18402.934076
 20
1128.248004
 30
0.0
 10
18402.934076
 20
1272.718989
 30
0.0
  0
SPLINE
  5
377
100
AcDbEntity
  8
0
 62
7
100
AcDbSpline
 70
8
 71
3
 72
8
 73
4
 74
0
 40
0
 40
0
 40
0
 40
0
 40
1
 40
1
 40
1
 40
1
 10
18402.934076
 20
1272.718989
 30
0.0
 10
18402.934076
 20
1367.452398
 30
0.0
 10
18365.301375
 20
1458.305774
 30
0.0
 10
18298.314739
 20
1525.292411
 30
0.0
  0
SPLINE
  5
378
100
AcDbEntity
  8
0
 62
7
100
AcDbSpline
 70
8
 71
3
 72
8
 73
4
 74
0
 40
0
 40
0
 40
0
 40
0
 40
1
 40
1
 40
1
 40
1
 10
18298.314739
 20
1525.292411
 30
0.0
 10
18231.328102
 20
1592.279047
 30
0.0
 10
18140.474726
 20
1629.911748
 30
0.0
 10
18045.741316
 20
1629.911748
 30
0.0
  0
LWPOLYLINE
  5
379
100
AcDbEntity
  8
0
 62
7
100
AcDbPolyline
 90
1
 70
1
 10
24004.077799
 20
1671.557945
 30
0.0
  0
SPLINE
  5
37a
100
AcDbEntity
  8
0
 62
7
100
AcDbSpline
 70
8
 71
3
 72
8
 73
4
 74
0
 40
0
 40
0
 40
0
 40
0
 40
1
 40
1
 40
1
 40
1
 10
14608.250062
 20
11296.566900
 30
0.0
 10
14463.779077
 20
11296.566900
 30
0.0
 10
14333.533635
 20
11209.539678
 30
0.0
 10
14278.246983
 20
11076.065892
 30
0.0
  0
SPLINE
  5
37b
100
AcDbEntity
  8
0
 62
7
100
AcDbSpline
 70
8
 71
3
 72
8
 73
4
 74
0
 40
0
 40
0
 40
0
 40
0
 40
1
 40
1
 40
1
 40
1
 10
14278.246983
 20
11076.065892
 30
0.0
 10
14222.960330
 20
10942.592106
 30
0.0
 10
14253.520227
 20
10788.957132
 30
0.0
 10
14355.676640
 20
10686.800719
 30
0.0
  0
SPLINE
  5
37c
100
AcDbEntity
  8
0
 62
7
100
AcDbSpline
 70
8
 71
3
 72
8
 73
4
 74
0
 40
0
 40
0
 40
0
 40
0
 40
1
 40
1
 40
1
 40
1
 10
14355.676640
 20
10686.800719
 30
0.0
 10
14457.833053
 20
10584.644306
 30
0.0
 10
14611.468027
 20
10554.084409
 30
0.0
 10
14744.941813
 20
10609.371062
 30
0.0
  0
SPLINE
  5
37d
100
AcDbEntity
  8
0
 62
7
100
AcDbSpline
 70
8
 71
3
 72
8
 73
4
 74
0
 40
0
 40
0
 40
0
 40
0
 40
1
 40
1
 40
1
 40
1
 10
14744.941813
 20
10609.371062
 30
0.0
 10
14878.415600
 20
10664.657714
 30
0.0
 10
14965.442821
 20
10794.903156
 30
0.0
 10
14965.442821
 20
10939.374141
 30
0.0
  0
SPLINE
  5
37e
100
AcDbEntity
  8
0
 62
7
100
AcDbSpline
 70
8
 71
3
 72
8
 73
4
 74
0
 40
0
 40
0
 40
0
 40
0
 40
1
 40
1
 40
1
 40
1
 10
14965.442821
 20
10939.374141
 30
0.0
 10
14965.442821
 20
11136.646255
 30
0.0
 10
14805.522176
 20
11296.566900
 30
0.0
 10
14608.250062
 20
11296.566900
 30
0.0
  0
LWPOLYLINE
  5
37f
100
AcDbEntity
  8
0
 62
7
100
AcDbPolyline
 90
1
 70
1
 10
18045.741316
 20
1629.911748
 30
0.0
  0
SPLINE
  5
380
100
AcDbEntity
  8
0
 62
7
100
AcDbSpline
 70
8
 71
3
 72
8
 73
4
 74
0
 40
0
 40
0
 40
0
 40
0
 40
1
 40
1
 40
1
 40
1
 10
4483.257345
 20
10588.224622
 30
0.0
 10
4338.786360
 20
10588.224622
 30
0.0
 10
4208.540918
 20
10501.197400
 30
0.0
 10
4153.254266
 20
10367.723614
 30
0.0
  0
SPLINE
  5
381
100
AcDbEntity
  8
0
 62
7
100
AcDbSpline
 70
8
 71
3
 72
8
 73
4
 74
0
 40
0
 40
0
 40
0
 40
0
 40
1
 40
1
 40
1
 40
1
 10
4153.254266
 20
10367.723614
 30
0.0
 10
4097.967613
 20
10234.249828
 30
0.0
 10
4128.527510
 20
10080.614854
 30
0.0
 10
4230.683923
 20
9978.458441
 30
0.0
  0
SPLINE
  5
382
100
AcDbEntity
  8
0
 62
7
100
AcDbSpline
 70
8
 71
3
 72
8
 73
4
 74
0
 40
0
 40
0
 40
0
 40
0
 40
1
 40
1
 40
1
 40
1
 10
4230.683923
 20
9978.458441
 30
0.0
 10
4332.840336
 20
9876.302027
 30
0.0
 10
4486.475310
 20
9845.742131
 30
0.0
 10
4619.949096
 20
9901.028784
 30
0.0
  0
SPLINE
  5
383
100
AcDbEntity
  8
0
 62
7
100
AcDbSpline
 70
8
 71
3
 72
8
 73
4
 74
0
 40
0
 40
0
 40
0
 40
0
 40
1
 40
1
 40
1
 40
1
 10
4619.949096
 20
9901.028784
 30
0.0
 10
4753.422883
 20
9956.315436
 30
0.0
 10
4840.450104
 20
10086.560878
 30
0.0
 10
4840.450104
 20
10231.031863
 30
0.0
  0
SPLINE
  5
384
100
AcDbEntity
  8
0
 62
7
100
AcDbSpline
 70
8
 71
3
 72
8
 73
4
 74
0
 40
0
 40
0
 40
0
 40
0
 40
1
 40
1
 40
1
 40
1
 10
4840.450104
 20
10231.031863
 30
0.0
 10
4840.450104
 20
10325.765273
 30
0.0
 10
4802.817404
 20
10416.618649
 30
0.0
 10
4735.830767
 20
10483.605285
 30
0.0
  0
SPLINE
  5
385
100
AcDbEntity
  8
0
 62
7
100
AcDbSpline
 70
8
 71
3
 72
8
 73
4
 74
0
 40
0
 40
0
 40
0
 40
0
 40
1
 40
1
 40
1
 40
1
 10
4735.830767
 20
10483.605285
 30
0.0
 10
4668.844131
 20
10550.591922
 30
0.0
 10
4577.990755
 20
10588.224622
 30
0.0
 10
4483.257345
 20
10588.224622
 30
0.0
  0
LWPOLYLINE
  5
386
100
AcDbEntity
  8
0
 62
7
100
AcDbPolyline
 90
1
 70
1
 10
14608.250062
 20
11296.566900
 30
0.0
  0
SPLINE
  5
387
100
AcDbEntity
  8
0
 62
7
100
AcDbSpline
 70
8
 71
3
 72
8
 73
4
 74
0
 40
0
 40
0
 40
0
 40
0
 40
1
 40
1
 40
1
 40
1
 10
22045.764871
 20
13442.390242
 30
0.0
 10
21901.293886
 20
13442.390242
 30
0.0
 10
21771.048445
 20
13355.363021
 30
0.0
 10
21715.761792
 20
13221.889234
 30
0.0
  0
SPLINE
  5
388
100
AcDbEntity
  8
0
 62
7
100
AcDbSpline
 70
8
 71
3
 72
8
 73
4
 74
0
 40
0
 40
0
 40
0
 40
0
 40
1
 40
1
 40
1
 40
1
 10
21715.761792
 20
13221.889234
 30
0.0
 10
21660.475140
 20
13088.415448
 30
0.0
 10
21691.035036
 20
12934.780474
 30
0.0
 10
21793.191449
 20
12832.624061
 30
0.0
  0
SPLINE
  5
389
100
AcDbEntity
  8
0
 62
7
100
AcDbSpline
 70
8
 71
3
 72
8
 73
4
 74
0
 40
0
 40
0
 40
0
 40
0
 40
1
 40
1
 40
1
 40
1
 10
21793.191449
 20
12832.624061
 30
0.0
 10
21895.347863
 20
12730.467648
 30
0.0
 10
22048.982836
 20
12699.907751
 30
0.0
 10
22182.456622
 20
12755.194404
 30
0.0
  0
SPLINE
  5
38a
100
AcDbEntity
  8
0
 62
7
100
AcDbSpline
 70
8
 71
3
 72
8
 73
4
 74
0
 40
0
 40
0
 40
0
 40
0
 40
1
 40
1
 40
1
 40
1
 10
22182.456622
 20
12755.194404
 30
0.0
 10
22315.930409
 20
12810.481056
 30
0.0
 10
22402.957630
 20
12940.726498
 30
0.0
 10
22402.957630
 20
13085.197483
 30
0.0
  0
SPLINE
  5
38b
100
AcDbEntity
  8
0
 62
7
100
AcDbSpline
 70
8
 71
3
 72
8
 73
4
 74
0
 40
0
 40
0
 40
0
 40
0
 40
1
 40
1
 40
1
 40
1
 10
22402.957630
 20
13085.197483
 30
0.0
 10
22402.957630
 20
13179.930893
 30
0.0
 10
22365.324930
 20
13270.784269
 30
0.0
 10
22298.338294
 20
13337.770905
 30
0.0
  0
SPLINE
  5
38c
100
AcDbEntity
  8
0
 62
7
100
AcDbSpline
 70
8
 71
3
 72
8
 73
4
 74
0
 40
0
 40
0
 40
0
 40
0
 40
1
 40
1
 40
1
 40
1
 10
22298.338294
 20
13337.770905
 30
0.0
 10
22231.351657
 20
13404.757542
 30
0.0
 10
22140.498281
 20
13442.390242
 30
0.0
 10
22045.764871
 20
13442.390242
 30
0.0
  0
LWPOLYLINE
  5
38d
100
AcDbEntity
  8
0
 62
7
100
AcDbPolyline
 90
1
 70
1
 10
4483.257345
 20
10588.224622
 30
0.0
  0
SPLINE
  5
38e
100
AcDbEntity
  8
0
 62
7
100
AcDbSpline
 70
8
 71
3
 72
8
 73
4
 74
0
 40
0
 40
0
 40
0
 40
0
 40
1
 40
1
 40
1
 40
1
 10
15337.414513
 20
13109.067999
 30
0.0
 10
15192.943528
 20
13109.067999
 30
0.0
 10
15062.698086
 20
13022.040777
 30
0.0
 10
15007.411434
 20
12888.566991
 30
0.0
  0
SPLINE
  5
38f
100
AcDbEntity
  8
0
 62
7
100
AcDbSpline
 70
8
 71
3
 72
8
 73
4
 74
0
 40
0
 40
0
 40
0
 40
0
 40
1
 40
1
 40
1
 40
1
 10
15007.411434
 20
12888.566991
 30
0.0
 10
14952.124781
 20
12755.093205
 30
0.0
 10
14982.684677
 20
12601.458231
 30
0.0
 10
15084.841091
 20
12499.301818
 30
0.0
  0
SPLINE
  5
390
100
AcDbEntity
  8
0
 62
7
100
AcDbSpline
 70
8
 71
3
 72
8
 73
4
 74
0
 40
0
 40
0
 40
0
 40
0
 40
1
 40
1
 40
1
 40
1
 10
15084.841091
 20
12499.301818
 30
0.0
 10
15186.997504
 20
12397.145404
 30
0.0
 10
15340.632478
 20
12366.585508
 30
0.0
 10
15474.106264
 20
12421.872160
 30
0.0
  0
SPLINE
  5
391
100
AcDbEntity
  8
0
 62
7
100
AcDbSpline
 70
8
 71
3
 72
8
 73
4
 74
0
 40
0
 40
0
 40
0
 40
0
 40
1
 40
1
 40
1
 40
1
 10
15474.106264
 20
12421.872160
 30
0.0
 10
15607.580050
 20
12477.158813
 30
0.0
 10
15694.607272
 20
12607.404255
 30
0.0
 10
15694.607272
 20
12751.875240
 30
0.0
  0
SPLINE
  5
392
100
AcDbEntity
  8
0
 62
7
100
AcDbSpline
 70
8
 71
3
 72
8
 73
4
 74
0
 40
0
 40
0
 40
0
 40
0
 40
1
 40
1
 40
1
 40
1
 10
15694.607272
 20
12751.875240
 30
0.0
 10
15694.607272
 20
12846.608650
 30
0.0
 10
15656.974572
 20
12937.462025
 30
0.0
 10
15589.987935
 20
13004.448662
 30
0.0
  0
SPLINE
  5
393
100
AcDbEntity
  8
0
 62
7
100
AcDbSpline
 70
8
 71
3
 72
8
 73
4
 74
0
 40
0
 40
0
 40
0
 40
0
 40
1
 40
1
 40
1
 40
1
 10
15589.987935
 20
13004.448662
 30
0.0
 10
15523.001299
 20
13071.435298
 30
0.0
 10
15432.147923
 20
13109.067999
 30
0.0
 10
15337.414513
 20
13109.067999
 30
0.0
  0
LWPOLYLINE
  5
394
100
AcDbEntity
  8
0
 62
7
100
AcDbPolyline
 90
1
 70
1
 10
22045.764871
 20
13442.390242
 30
0.0
  0
SPLINE
  5
395
100
AcDbEntity
  8
0
 62
7
100
AcDbSpline
 70
8
 71
3
 72
8
 73
4
 74
0
 40
0
 40
0
 40
0
 40
0
 40
1
 40
1
 40
1
 40
1
 10
9045.757109
 20
12879.886252
 30
0.0
 10
8901.286124
 20
12879.886252
 30
0.0
 10
8771.040683
 20
12792.859030
 30
0.0
 10
8715.754030
 20
12659.385244
 30
0.0
  0
SPLINE
  5
396
100
AcDbEntity
  8
0
 62
7
100
AcDbSpline
 70
8
 71
3
 72
8
 73
4
 74
0
 40
0
 40
0
 40
0
 40
0
 40
1
 40
1
 40
1
 40
1
 10
8715.754030
 20
12659.385244
 30
0.0
 10
8660.467378
 20
12525.911458
 30
0.0
 10
8691.027274
 20
12372.276484
 30
0.0
 10
8793.183687
 20
12270.120071
 30
0.0
  0
SPLINE
  5
397
100
AcDbEntity
  8
0
 62
7
100
AcDbSpline
 70
8
 71
3
 72
8
 73
4
 74
0
 40
0
 40
0
 40
0
 40
0
 40
1
 40
1
 40
1
 40
1
 10
8793.183687
 20
12270.120071
 30
0.0
 10
8895.340101
 20
12167.963657
 30
0.0
 10
9048.975074
 20
12137.403761
 30
0.0
 10
9182.448860
 20
12192.690414
 30
0.0
  0
SPLINE
  5
398
100
AcDbEntity
  8
0
 62
7
100
AcDbSpline
 70
8
 71
3
 72
8
 73
4
 74
0
 40
0
 40
0
 40
0
 40
0
 40
1
 40
1
 40
1
 40
1
 10
9182.448860
 20
12192.690414
 30
0.0
 10
9315.922647
 20
12247.977066
 30
0.0
 10
9402.949868
 20
12378.222508
 30
0.0
 10
9402.949868
 20
12522.693493
 30
0.0
  0
SPLINE
  5
399
100
AcDbEntity
  8
0
 62
7
100
AcDbSpline
 70
8
 71
3
 72
8
 73
4
 74
0
 40
0
 40
0
 40
0
 40
0
 40
1
 40
1
 40
1
 40
1
 10
9402.949868
 20
12522.693493
 30
0.0
 10
9402.949868
 20
12617.426903
 30
0.0
 10
9365.317168
 20
12708.280279
 30
0.0
 10
9298.330532
 20
12775.266915
 30
0.0
  0
SPLINE
  5
39a
100
AcDbEntity
  8
0
 62
7
100
AcDbSpline
 70
8
 71
3
 72
8
 73
4
 74
0
 40
0
 40
0
 40
0
 40
0
 40
1
 40
1
 40
1
 40
1
 10
9298.330532
 20
12775.266915
 30
0.0
 10
9231.343895
 20
12842.253551
 30
0.0
 10
9140.490519
 20
12879.886252
 30
0.0
 10
9045.757109
 20
12879.886252
 30
0.0
  0
LWPOLYLINE
  5
39b
100
AcDbEntity
  8
0
 62
7
100
AcDbPolyline
 90
1
 70
1
 10
15337.414513
 20
13109.067999
 30
0.0
  0
SPLINE
  5
39c
100
AcDbEntity
  8
0
 62
7
100
AcDbSpline
 70
8
 71
3
 72
8
 73
4
 74
0
 40
0
 40
0
 40
0
 40
0
 40
1
 40
1
 40
1
 40
1
 10
28062.493290
 20
1534.079959
 30
0.0
 10
27918.022305
 20
1534.079959
 30
0.0
 10
27787.776863
 20
1447.052737
 30
0.0
 10
27732.490211
 20
1313.578951
 30
0.0
  0
SPLINE
  5
39d
100
AcDbEntity
  8
0
 62
7
100
AcDbSpline
 70
8
 71
3
 72
8
 73
4
 74
0
 40
0
 40
0
 40
0
 40
0
 40
1
 40
1
 40
1
 40
1
 10
27732.490211
 20
1313.578951
 30
0.0
 10
27677.203558
 20
1180.105165
 30
0.0
 10
27707.763455
 20
1026.470191
 30
0.0
 10
27809.919868
 20
924.313778
 30
0.0
  0
SPLINE
  5
39e
100
AcDbEntity
  8
0
 62
7
100
AcDbSpline
 70
8
 71
3
 72
8
 73
4
 74
0
 40
0
 40
0
 40
0
 40
0
 40
1
 40
1
 40
1
 40
1
 10
27809.919868
 20
924.313778
 30
0.0
 10
27912.076281
 20
822.157365
 30
0.0
 10
28065.711255
 20
791.597468
 30
0.0
 10
28199.185041
 20
846.884121
 30
0.0
  0
SPLINE
  5
39f
100
AcDbEntity
  8
0
 62
7
100
AcDbSpline
 70
8
 71
3
 72
8
 73
4
 74
0
 40
0
 40
0
 40
0
 40
0
 40
1
 40
1
 40
1
 40
1
 10
28199.185041
 20
846.884121
 30
0.0
 10
28332.658828
 20
902.170773
 30
0.0
 10
28419.686049
 20
1032.416215
 30
0.0
 10
28419.686049
 20
1176.887200
 30
0.0
  0
SPLINE
  5
3a0
100
AcDbEntity
  8
0
 62
7
100
AcDbSpline
 70
8
 71
3
 72
8
 73
4
 74
0
 40
0
 40
0
 40
0
 40
0
 40
1
 40
1
 40
1
 40
1
 10
28419.686049
 20
1176.887200
 30
0.0
 10
28419.686049
 20
1271.620610
 30
0.0
 10
28382.053349
 20
1362.473986
 30
0.0
 10
28315.066712
 20
1429.460622
 30
0.0
  0
SPLINE
  5
3a1
100
AcDbEntity
  8
0
 62
7
100
AcDbSpline
 70
8
 71
3
 72
8
 73
4
 74
0
 40
0
 40
0
 40
0
 40
0
 40
1
 40
1
 40
1
 40
1
 10
28315.066712
 20
1429.460622
 30
0.0
 10
28248.080076
 20
1496.447259
 30
0.0
 10
28157.226700
 20
1534.079959
 30
0.0
 10
28062.493290
 20
1534.079959
 30
0.0
  0
LWPOLYLINE
  5
3a2
100
AcDbEntity
  8
0
 62
7
100
AcDbPolyline
 90
1
 70
1
 10
9045.757109
 20
12879.886252
 30
0.0
  0
SPLINE
  5
3a3
100
AcDbEntity
  8
0
 62
7
100
AcDbSpline
 70
8
 71
3
 72
8
 73
4
 74
0
 40
0
 40
0
 40
0
 40
0
 40
1
 40
1
 40
1
 40
1
 10
20983.250131
 20
7421.559460
 30
0.0
 10
20838.779146
 20
7421.559460
 30
0.0
 10
20708.533705
 20
7334.532238
 30
0.0
 10
20653.247052
 20
7201.058452
 30
0.0
  0
SPLINE
  5
3a4
100
AcDbEntity
  8
0
 62
7
100
AcDbSpline
 70
8
 71
3
 72
8
 73
4
 74
0
 40
0
 40
0
 40
0
 40
0
 40
1
 40
1
 40
1
 40
1
 10
20653.247052
 20
7201.058452
 30
0.0
 10
20597.960400
 20
7067.584666
 30
0.0
 10
20628.520296
 20
6913.949692
 30
0.0
 10
20730.676709
 20
6811.793279
 30
0.0
  0
SPLINE
  5
3a5
100
AcDbEntity
  8
0
 62
7
100
AcDbSpline
 70
8
 71
3
 72
8
 73
4
 74
0
 40
0
 40
0
 40
0
 40
0
 40
1
 40
1
 40
1
 40
1
 10
20730.676709
 20
6811.793279
 30
0.0
 10
20832.833123
 20
6709.636866
 30
0.0
 10
20986.468096
 20
6679.076969
 30
0.0
 10
21119.941882
 20
6734.363622
 30
0.0
  0
SPLINE
  5
3a6
100
AcDbEntity
  8
0
 62
7
100
AcDbSpline
 70
8
 71
3
 72
8
 73
4
 74
0
 40
0
 40
0
 40
0
 40
0
 40
1
 40
1
 40
1
 40
1
 10
21119.941882
 20
6734.363622
 30
0.0
 10
21253.415669
 20
6789.650274
 30
0.0
 10
21340.442891
 20
6919.895716
 30
0.0
 10
21340.442891
 20
7064.366701
 30
0.0
  0
SPLINE
  5
3a7
100
AcDbEntity
  8
0
 62
7
100
AcDbSpline
 70
8
 71
3
 72
8
 73
4
 74
0
 40
0
 40
0
 40
0
 40
0
 40
1
 40
1
 40
1
 40
1
 10
21340.442891
 20
7064.366701
 30
0.0
 10
21340.442891
 20
7261.638815
 30
0.0
 10
21180.522245
 20
7421.559460
 30
0.0
 10
20983.250131
 20
7421.559460
 30
0.0
  0
LWPOLYLINE
  5
3a8
100
AcDbEntity
  8
0
 62
7
100
AcDbPolyline
 90
1
 70
1
 10
28062.493290
 20
1534.079959
 30
0.0
  0
SPLINE
  5
3a9
100
AcDbEntity
  8
0
 62
7
100
AcDbSpline
 70
8
 71
3
 72
8
 73
4
 74
0
 40
0
 40
0
 40
0
 40
0
 40
1
 40
1
 40
1
 40
1
 10
14524.932003
 20
7338.242724
 30
0.0
 10
14380.461018
 20
7338.242724
 30
0.0
 10
14250.215576
 20
7251.215502
 30
0.0
 10
14194.928924
 20
7117.741716
 30
0.0
  0
SPLINE
  5
3aa
100
AcDbEntity
  8
0
 62
7
100
AcDbSpline
 70
8
 71
3
 72
8
 73
4
 74
0
 40
0
 40
0
 40
0
 40
0
 40
1
 40
1
 40
1
 40
1
 10
14194.928924
 20
7117.741716
 30
0.0
 10
14139.642271
 20
6984.267929
 30
0.0
 10
14170.202167
 20
6830.632956
 30
0.0
 10
14272.358581
 20
6728.476542
 30
0.0
  0
SPLINE
  5
3ab
100
AcDbEntity
  8
0
 62
7
100
AcDbSpline
 70
8
 71
3
 72
8
 73
4
 74
0
 40
0
 40
0
 40
0
 40
0
 40
1
 40
1
 40
1
 40
1
 10
14272.358581
 20
6728.476542
 30
0.0
 10
14374.514994
 20
6626.320129
 30
0.0
 10
14528.149968
 20
6595.760233
 30
0.0
 10
14661.623754
 20
6651.046885
 30
0.0
  0
SPLINE
  5
3ac
100
AcDbEntity
  8
0
 62
7
100
AcDbSpline
 70
8
 71
3
 72
8
 73
4
 74
0
 40
0
 40
0
 40
0
 40
0
 40
1
 40
1
 40
1
 40
1
 10
14661.623754
 20
6651.046885
 30
0.0
 10
14795.097540
 20
6706.333538
 30
0.0
 10
14882.124762
 20
6836.578979
 30
0.0
 10
14882.124762
 20
6981.049965
 30
0.0
  0
SPLINE
  5
3ad
100
AcDbEntity
  8
0
 62
7
100
AcDbSpline
 70
8
 71
3
 72
8
 73
4
 74
0
 40
0
 40
0
 40
0
 40
0
 40
1
 40
1
 40
1
 40
1
 10
14882.124762
 20
6981.049965
 30
0.0
 10
14882.124762
 20
7075.783374
 30
0.0
 10
14844.492062
 20
7166.636750
 30
0.0
 10
14777.505425
 20
7233.623387
 30
0.0
  0
SPLINE
  5
3ae
100
AcDbEntity
  8
0
 62
7
100
AcDbSpline
 70
8
 71
3
 72
8
 73
4
 74
0
 40
0
 40
0
 40
0
 40
0
 40
1
 40
1
 40
1
 40
1
 10
14777.505425
 20
7233.623387
 30
0.0
 10
14710.518789
 20
7300.610023
 30
0.0
 10
14619.665413
 20
7338.242724
 30
0.0
 10
14524.932003
 20
7338.242724
 30
0.0
  0
LWPOLYLINE
  5
3af
100
AcDbEntity
  8
0
 62
7
100
AcDbPolyline
 90
1
 70
1
 10
20983.250131
 20
7421.559460
 30
0.0
  0
SPLINE
  5
3b0
100
AcDbEntity
  8
0
 62
7
100
AcDbSpline
 70
8
 71
3
 72
8
 73
4
 74
0
 40
0
 40
0
 40
0
 40
0
 40
1
 40
1
 40
1
 40
1
 10
7170.761711
 20
9234.061353
 30
0.0
 10
7026.290726
 20
9234.061353
 30
0.0
 10
6896.045285
 20
9147.034131
 30
0.0
 10
6840.758632
 20
9013.560345
 30
0.0
  0
SPLINE
  5
3b1
100
AcDbEntity
  8
0
 62
7
100
AcDbSpline
 70
8
 71
3
 72
8
 73
4
 74
0
 40
0
 40
0
 40
0
 40
0
 40
1
 40
1
 40
1
 40
1
 10
6840.758632
 20
9013.560345
 30
0.0
 10
6785.471980
 20
8880.086558
 30
0.0
 10
6816.031876
 20
8726.451585
 30
0.0
 10
6918.188289
 20
8624.295171
 30
0.0
  0
SPLINE
  5
3b2
100
AcDbEntity
  8
0
 62
7
100
AcDbSpline
 70
8
 71
3
 72
8
 73
4
 74
0
 40
0
 40
0
 40
0
 40
0
 40
1
 40
1
 40
1
 40
1
 10
6918.188289
 20
8624.295171
 30
0.0
 10
7020.344703
 20
8522.138758
 30
0.0
 10
7173.979676
 20
8491.578862
 30
0.0
 10
7307.453463
 20
8546.865514
 30
0.0
  0
SPLINE
  5
3b3
100
AcDbEntity
  8
0
 62
7
100
AcDbSpline
 70
8
 71
3
 72
8
 73
4
 74
0
 40
0
 40
0
 40
0
 40
0
 40
1
 40
1
 40
1
 40
1
 10
7307.453463
 20
8546.865514
 30
0.0
 10
7440.927249
 20
8602.152167
 30
0.0
 10
7527.954471
 20
8732.397608
 30
0.0
 10
7527.954471
 20
8876.868594
 30
0.0
  0
SPLINE
  5
3b4
100
AcDbEntity
  8
0
 62
7
100
AcDbSpline
 70
8
 71
3
 72
8
 73
4
 74
0
 40
0
 40
0
 40
0
 40
0
 40
1
 40
1
 40
1
 40
1
 10
7527.954471
 20
8876.868594
 30
0.0
 10
7527.954471
 20
8971.602003
 30
0.0
 10
7490.321770
 20
9062.455379
 30
0.0
 10
7423.335134
 20
9129.442016
 30
0.0
  0
SPLINE
  5
3b5
100
AcDbEntity
  8
0
 62
7
100
AcDbSpline
 70
8
 71
3
 72
8
 73
4
 74
0
 40
0
 40
0
 40
0
 40
0
 40
1
 40
1
 40
1
 40
1
 10
7423.335134
 20
9129.442016
 30
0.0
 10
7356.348497
 20
9196.428652
 30
0.0
 10
7265.495121
 20
9234.061353
 30
0.0
 10
7170.761711
 20
9234.061353
 30
0.0
  0
LWPOLYLINE
  5
3b6
100
AcDbEntity
  8
0
 62
7
100
AcDbPolyline
 90
1
 70
1
 10
14524.932003
 20
7338.242724
 30
0.0
  0
SPLINE
  5
3b7
100
AcDbEntity
  8
0
 62
7
100
AcDbSpline
 70
8
 71
3
 72
8
 73
4
 74
0
 40
0
 40
0
 40
0
 40
0
 40
1
 40
1
 40
1
 40
1
 10
4379.090920
 20
15484.062611
 30
0.0
 10
4234.619934
 20
15484.062611
 30
0.0
 10
4104.374493
 20
15397.035389
 30
0.0
 10
4049.087840
 20
15263.561602
 30
0.0
  0
SPLINE
  5
3b8
100
AcDbEntity
  8
0
 62
7
100
AcDbSpline
 70
8
 71
3
 72
8
 73
4
 74
0
 40
0
 40
0
 40
0
 40
0
 40
1
 40
1
 40
1
 40
1
 10
4049.087840
 20
15263.561602
 30
0.0
 10
3993.801188
 20
15130.087816
 30
0.0
 10
4024.361084
 20
14976.452843
 30
0.0
 10
4126.517497
 20
14874.296429
 30
0.0
  0
SPLINE
  5
3b9
100
AcDbEntity
  8
0
 62
7
100
AcDbSpline
 70
8
 71
3
 72
8
 73
4
 74
0
 40
0
 40
0
 40
0
 40
0
 40
1
 40
1
 40
1
 40
1
 10
4126.517497
 20
14874.296429
 30
0.0
 10
4228.673911
 20
14772.140016
 30
0.0
 10
4382.308884
 20
14741.580120
 30
0.0
 10
4515.782671
 20
14796.866772
 30
0.0
  0
SPLINE
  5
3ba
100
AcDbEntity
  8
0
 62
7
100
AcDbSpline
 70
8
 71
3
 72
8
 73
4
 74
0
 40
0
 40
0
 40
0
 40
0
 40
1
 40
1
 40
1
 40
1
 10
4515.782671
 20
14796.866772
 30
0.0
 10
4649.256457
 20
14852.153425
 30
0.0
 10
4736.283679
 20
14982.398866
 30
0.0
 10
4736.283679
 20
15126.869851
 30
0.0
  0
SPLINE
  5
3bb
100
AcDbEntity
  8
0
 62
7
100
AcDbSpline
 70
8
 71
3
 72
8
 73
4
 74
0
 40
0
 40
0
 40
0
 40
0
 40
1
 40
1
 40
1
 40
1
 10
4736.283679
 20
15126.869851
 30
0.0
 10
4736.283679
 20
15221.603261
 30
0.0
 10
4698.650978
 20
15312.456637
 30
0.0
 10
4631.664342
 20
15379.443274
 30
0.0
  0
SPLINE
  5
3bc
100
AcDbEntity
  8
0
 62
7
100
AcDbSpline
 70
8
 71
3
 72
8
 73
4
 74
0
 40
0
 40
0
 40
0
 40
0
 40
1
 40
1
 40
1
 40
1
 10
4631.664342
 20
15379.443274
 30
0.0
 10
4564.677705
 20
15446.429910
 30
0.0
 10
4473.824329
 20
15484.062611
 30
0.0
 10
4379.090920
 20
15484.062611
 30
0.0
  0
LWPOLYLINE
  5
3bd
100
AcDbEntity
  8
0
 62
7
100
AcDbPolyline
 90
1
 70
1
 10
7170.761711
 20
9234.061353
 30
0.0
  0
SPLINE
  5
3be
100
AcDbEntity
  8
0
 62
7
100
AcDbSpline
 70
8
 71
3
 72
8
 73
4
 74
0
 40
0
 40
0
 40
0
 40
0
 40
1
 40
1
 40
1
 40
1
 10
33365.535379
 20
1786.831491
 30
0.0
 10
33283.990655
 20
1786.831491
 30
0.0
 10
33210.475350
 20
1737.710135
 30
0.0
 10
33179.269535
 20
1662.372634
 30
0.0
  0
SPLINE
  5
3bf
100
AcDbEntity
  8
0
 62
7
100
AcDbSpline
 70
8
 71
3
 72
8
 73
4
 74
0
 40
0
 40
0
 40
0
 40
0
 40
1
 40
1
 40
1
 40
1
 10
33179.269535
 20
1662.372634
 30
0.0
 10
33148.063720
 20
1587.035132
 30
0.0
 10
33165.312847
 20
1500.317917
 30
0.0
 10
33222.973674
 20
1442.657090
 30
0.0
  0
SPLINE
  5
3c0
100
AcDbEntity
  8
0
 62
7
100
AcDbSpline
 70
8
 71
3
 72
8
 73
4
 74
0
 40
0
 40
0
 40
0
 40
0
 40
1
 40
1
 40
1
 40
1
 10
33222.973674
 20
1442.657090
 30
0.0
 10
33280.634501
 20
1384.996263
 30
0.0
 10
33367.351716
 20
1367.747137
 30
0.0
 10
33442.689217
 20
1398.952952
 30
0.0
  0
SPLINE
  5
3c1
100
AcDbEntity
  8
0
 62
7
100
AcDbSpline
 70
8
 71
3
 72
8
 73
4
 74
0
 40
0
 40
0
 40
0
 40
0
 40
1
 40
1
 40
1
 40
1
 10
33442.689217
 20
1398.952952
 30
0.0
 10
33518.026718
 20
1430.158766
 30
0.0
 10
33567.148075
 20
1503.674071
 30
0.0
 10
33567.148075
 20
1585.218795
 30
0.0
  0
SPLINE
  5
3c2
100
AcDbEntity
  8
0
 62
7
100
AcDbSpline
 70
8
 71
3
 72
8
 73
4
 74
0
 40
0
 40
0
 40
0
 40
0
 40
1
 40
1
 40
1
 40
1
 10
33567.148075
 20
1585.218795
 30
0.0
 10
33567.148075
 20
1638.689807
 30
0.0
 10
33545.906798
 20
1689.970785
 30
0.0
 10
33508.097083
 20
1727.780500
 30
0.0
  0
SPLINE
  5
3c3
100
AcDbEntity
  8
0
 62
7
100
AcDbSpline
 70
8
 71
3
 72
8
 73
4
 74
0
 40
0
 40
0
 40
0
 40
0
 40
1
 40
1
 40
1
 40
1
 10
33508.097083
 20
1727.780500
 30
0.0
 10
33470.287368
 20
1765.590214
 30
0.0
 10
33419.006390
 20
1786.831491
 30
0.0
 10
33365.535379
 20
1786.831491
 30
0.0
  0
LWPOLYLINE
  5
3c4
100
AcDbEntity
  8
0
 62
7
100
AcDbPolyline
 90
1
 70
1
 10
4379.090920
 20
15484.062611
 30
0.0
  0
SPLINE
  5
3c5
100
AcDbEntity
  8
0
 62
7
100
AcDbSpline
 70
8
 71
3
 72
8
 73
4
 74
0
 40
0
 40
0
 40
0
 40
0
 40
1
 40
1
 40
1
 40
1
 10
32448.754416
 20
2807.646323
 30
0.0
 10
32367.209692
 20
2807.646323
 30
0.0
 10
32293.694387
 20
2758.524967
 30
0.0
 10
32262.488572
 20
2683.187466
 30
0.0
  0
SPLINE
  5
3c6
100
AcDbEntity
  8
0
 62
7
100
AcDbSpline
 70
8
 71
3
 72
8
 73
4
 74
0
 40
0
 40
0
 40
0
 40
0
 40
1
 40
1
 40
1
 40
1
 10
32262.488572
 20
2683.187466
 30
0.0
 10
32231.282758
 20
2607.849965
 30
0.0
 10
32248.531884
 20
2521.132750
 30
0.0
 10
32306.192711
 20
2463.471923
 30
0.0
  0
SPLINE
  5
3c7
100
AcDbEntity
  8
0
 62
7
100
AcDbSpline
 70
8
 71
3
 72
8
 73
4
 74
0
 40
0
 40
0
 40
0
 40
0
 40
1
 40
1
 40
1
 40
1
 10
32306.192711
 20
2463.471923
 30
0.0
 10
32363.853538
 20
2405.811096
 30
0.0
 10
32450.570753
 20
2388.561969
 30
0.0
 10
32525.908254
 20
2419.767784
 30
0.0
  0
SPLINE
  5
3c8
100
AcDbEntity
  8
0
 62
7
100
AcDbSpline
 70
8
 71
3
 72
8
 73
4
 74
0
 40
0
 40
0
 40
0
 40
0
 40
1
 40
1
 40
1
 40
1
 10
32525.908254
 20
2419.767784
 30
0.0
 10
32601.245756
 20
2450.973598
 30
0.0
 10
32650.367112
 20
2524.488904
 30
0.0
 10
32650.367112
 20
2606.033627
 30
0.0
  0
SPLINE
  5
3c9
100
AcDbEntity
  8
0
 62
7
100
AcDbSpline
 70
8
 71
3
 72
8
 73
4
 74
0
 40
0
 40
0
 40
0
 40
0
 40
1
 40
1
 40
1
 40
1
 10
32650.367112
 20
2606.033627
 30
0.0
 10
32650.367112
 20
2717.381245
 30
0.0
 10
32560.102033
 20
2807.646323
 30
0.0
 10
32448.754416
 20
2807.646323
 30
0.0
  0
LWPOLYLINE
  5
3ca
100
AcDbEntity
  8
0
 62
7
100
AcDbPolyline
 90
1
 70
1
 10
33365.535379
 20
1786.831491
 30
0.0
  0
SPLINE
  5
3cb
100
AcDbEntity
  8
0
 62
7
100
AcDbSpline
 70
8
 71
3
 72
8
 73
4
 74
0
 40
0
 40
0
 40
0
 40
0
 40
1
 40
1
 40
1
 40
1
 10
31594.679683
 20
3870.160005
 30
0.0
 10
31513.134960
 20
3870.160005
 30
0.0
 10
31439.619655
 20
3821.038649
 30
0.0
 10
31408.413840
 20
3745.701147
 30
0.0
  0
SPLINE
  5
3cc
100
AcDbEntity
  8
0
 62
7
100
AcDbSpline
 70
8
 71
3
 72
8
 73
4
 74
0
 40
0
 40
0
 40
0
 40
0
 40
1
 40
1
 40
1
 40
1
 10
31408.413840
 20
3745.701147
 30
0.0
 10
31377.208025
 20
3670.363646
 30
0.0
 10
31394.457152
 20
3583.646431
 30
0.0
 10
31452.117979
 20
3525.985604
 30
0.0
  0
SPLINE
  5
3cd
100
AcDbEntity
  8
0
 62
7
100
AcDbSpline
 70
8
 71
3
 72
8
 73
4
 74
0
 40
0
 40
0
 40
0
 40
0
 40
1
 40
1
 40
1
 40
1
 10
31452.117979
 20
3525.985604
 30
0.0
 10
31509.778806
 20
3468.324777
 30
0.0
 10
31596.496021
 20
3451.075651
 30
0.0
 10
31671.833522
 20
3482.281465
 30
0.0
  0
SPLINE
  5
3ce
100
AcDbEntity
  8
0
 62
7
100
AcDbSpline
 70
8
 71
3
 72
8
 73
4
 74
0
 40
0
 40
0
 40
0
 40
0
 40
1
 40
1
 40
1
 40
1
 10
31671.833522
 20
3482.281465
 30
0.0
 10
31747.171023
 20
3513.487280
 30
0.0
 10
31796.292380
 20
3587.002585
 30
0.0
 10
31796.292380
 20
3668.547309
 30
0.0
  0
SPLINE
  5
3cf
100
AcDbEntity
  8
0
 62
7
100
AcDbSpline
 70
8
 71
3
 72
8
 73
4
 74
0
 40
0
 40
0
 40
0
 40
0
 40
1
 40
1
 40
1
 40
1
 10
31796.292380
 20
3668.547309
 30
0.0
 10
31796.292380
 20
3722.018320
 30
0.0
 10
31775.051103
 20
3773.299299
 30
0.0
 10
31737.241388
 20
3811.109013
 30
0.0
  0
SPLINE
  5
3d0
100
AcDbEntity
  8
0
 62
7
100
AcDbSpline
 70
8
 71
3
 72
8
 73
4
 74
0
 40
0
 40
0
 40
0
 40
0
 40
1
 40
1
 40
1
 40
1
 10
31737.241388
 20
3811.109013
 30
0.0
 10
31699.431673
 20
3848.918728
 30
0.0
 10
31648.150695
 20
3870.160005
 30
0.0
 10
31594.679683
 20
3870.160005
 30
0.0
  0
LWPOLYLINE
  5
3d1
100
AcDbEntity
  8
0
 62
7
100
AcDbPolyline
 90
1
 70
1
 10
32448.754416
 20
2807.646323
 30
0.0
  0
SPLINE
  5
3d2
100
AcDbEntity
  8
0
 62
7
100
AcDbSpline
 70
8
 71
3
 72
8
 73
4
 74
0
 40
0
 40
0
 40
0
 40
0
 40
1
 40
1
 40
1
 40
1
 10
30886.390322
 20
4953.496124
 30
0.0
 10
30804.845598
 20
4953.496124
 30
0.0
 10
30731.330293
 20
4904.374767
 30
0.0
 10
30700.124479
 20
4829.037266
 30
0.0
  0
SPLINE
  5
3d3
100
AcDbEntity
  8
0
 62
7
100
AcDbSpline
 70
8
 71
3
 72
8
 73
4
 74
0
 40
0
 40
0
 40
0
 40
0
 40
1
 40
1
 40
1
 40
1
 10
30700.124479
 20
4829.037266
 30
0.0
 10
30668.918664
 20
4753.699765
 30
0.0
 10
30686.167790
 20
4666.982550
 30
0.0
 10
30743.828617
 20
4609.321723
 30
0.0
  0
SPLINE
  5
3d4
100
AcDbEntity
  8
0
 62
7
100
AcDbSpline
 70
8
 71
3
 72
8
 73
4
 74
0
 40
0
 40
0
 40
0
 40
0
 40
1
 40
1
 40
1
 40
1
 10
30743.828617
 20
4609.321723
 30
0.0
 10
30801.489445
 20
4551.660896
 30
0.0
 10
30888.206659
 20
4534.411770
 30
0.0
 10
30963.544161
 20
4565.617584
 30
0.0
  0
SPLINE
  5
3d5
100
AcDbEntity
  8
0
 62
7
100
AcDbSpline
 70
8
 71
3
 72
8
 73
4
 74
0
 40
0
 40
0
 40
0
 40
0
 40
1
 40
1
 40
1
 40
1
 10
30963.544161
 20
4565.617584
 30
0.0
 10
31038.881662
 20
4596.823399
 30
0.0
 10
31088.003018
 20
4670.338704
 30
0.0
 10
31088.003018
 20
4751.883428
 30
0.0
  0
SPLINE
  5
3d6
100
AcDbEntity
  8
0
 62
7
100
AcDbSpline
 70
8
 71
3
 72
8
 73
4
 74
0
 40
0
 40
0
 40
0
 40
0
 40
1
 40
1
 40
1
 40
1
 10
31088.003018
 20
4751.883428
 30
0.0
 10
31088.003018
 20
4805.354439
 30
0.0
 10
31066.761742
 20
4856.635417
 30
0.0
 10
31028.952027
 20
4894.445132
 30
0.0
  0
SPLINE
  5
3d7
100
AcDbEntity
  8
0
 62
7
100
AcDbSpline
 70
8
 71
3
 72
8
 73
4
 74
0
 40
0
 40
0
 40
0
 40
0
 40
1
 40
1
 40
1
 40
1
 10
31028.952027
 20
4894.445132
 30
0.0
 10
30991.142312
 20
4932.254847
 30
0.0
 10
30939.861334
 20
4953.496124
 30
0.0
 10
30886.390322
 20
4953.496124
 30
0.0
  0
LWPOLYLINE
  5
3d8
100
AcDbEntity
  8
0
 62
7
100
AcDbPolyline
 90
1
 70
1
 10
31594.679683
 20
3870.160005
 30
0.0
  0
SPLINE
  5
3d9
100
AcDbEntity
  8
0
 62
7
100
AcDbSpline
 70
8
 71
3
 72
8
 73
4
 74
0
 40
0
 40
0
 40
0
 40
0
 40
1
 40
1
 40
1
 40
1
 10
3202.012955
 20
4671.193024
 30
0.0
 10
2987.686997
 20
4671.193024
 30
0.0
 10
2813.941478
 20
4497.447506
 30
0.0
 10
2813.941478
 20
4283.121548
 30
0.0
  0
SPLINE
  5
3da
100
AcDbEntity
  8
0
 62
7
100
AcDbSpline
 70
8
 71
3
 72
8
 73
4
 74
0
 40
0
 40
0
 40
0
 40
0
 40
1
 40
1
 40
1
 40
1
 10
2813.941478
 20
4283.121548
 30
0.0
 10
2813.941478
 20
4068.795589
 30
0.0
 10
2987.686997
 20
3895.050071
 30
0.0
 10
3202.012955
 20
3895.050071
 30
0.0
  0
SPLINE
  5
3db
100
AcDbEntity
  8
0
 62
7
100
AcDbSpline
 70
8
 71
3
 72
8
 73
4
 74
0
 40
0
 40
0
 40
0
 40
0
 40
1
 40
1
 40
1
 40
1
 10
3202.012955
 20
3895.050071
 30
0.0
 10
3416.338913
 20
3895.050071
 30
0.0
 10
3590.084432
 20
4068.795589
 30
0.0
 10
3590.084432
 20
4283.121548
 30
0.0
  0
SPLINE
  5
3dc
100
AcDbEntity
  8
0
 62
7
100
AcDbSpline
 70
8
 71
3
 72
8
 73
4
 74
0
 40
0
 40
0
 40
0
 40
0
 40
1
 40
1
 40
1
 40
1
 10
3590.084432
 20
4283.121548
 30
0.0
 10
3590.084432
 20
4386.044502
 30
0.0
 10
3549.198447
 20
4484.752001
 30
0.0
 10
3476.420928
 20
4557.529520
 30
0.0
  0
SPLINE
  5
3dd
100
AcDbEntity
  8
0
 62
7
100
AcDbSpline
 70
8
 71
3
 72
8
 73
4
 74
0
 40
0
 40
0
 40
0
 40
0
 40
1
 40
1
 40
1
 40
1
 10
3476.420928
 20
4557.529520
 30
0.0
 10
3403.643408
 20
4630.307039
 30
0.0
 10
3304.935910
 20
4671.193024
 30
0.0
 10
3202.012955
 20
4671.193024
 30
0.0
  0
LWPOLYLINE
  5
3de
100
AcDbEntity
  8
0
 62
7
100
AcDbPolyline
 90
1
 70
1
 10
30886.390322
 20
4953.496124
 30
0.0
  0
SPLINE
  5
3df
100
AcDbEntity
  8
0
 62
7
100
AcDbSpline
 70
8
 71
3
 72
8
 73
4
 74
0
 40
0
 40
0
 40
0
 40
0
 40
1
 40
1
 40
1
 40
1
 10
11222.827733
 20
4567.025540
 30
0.0
 10
11065.867473
 20
4567.025540
 30
0.0
 10
10924.362530
 20
4472.474960
 30
0.0
 10
10864.296439
 20
4327.462588
 30
0.0
  0
SPLINE
  5
3e0
100
AcDbEntity
  8
0
 62
7
100
AcDbSpline
 70
8
 71
3
 72
8
 73
4
 74
0
 40
0
 40
0
 40
0
 40
0
 40
1
 40
1
 40
1
 40
1
 10
10864.296439
 20
4327.462588
 30
0.0
 10
10804.230348
 20
4182.450216
 30
0.0
 10
10837.432096
 20
4015.533755
 30
0.0
 10
10948.419761
 20
3904.546091
 30
0.0
  0
SPLINE
  5
3e1
100
AcDbEntity
  8
0
 62
7
100
AcDbSpline
 70
8
 71
3
 72
8
 73
4
 74
0
 40
0
 40
0
 40
0
 40
0
 40
1
 40
1
 40
1
 40
1
 10
10948.419761
 20
3904.546091
 30
0.0
 10
11059.407425
 20
3793.558426
 30
0.0
 10
11226.323886
 20
3760.356678
 30
0.0
 10
11371.336258
 20
3820.422769
 30
0.0
  0
SPLINE
  5
3e2
100
AcDbEntity
  8
0
 62
7
100
AcDbSpline
 70
8
 71
3
 72
8
 73
4
 74
0
 40
0
 40
0
 40
0
 40
0
 40
1
 40
1
 40
1
 40
1
 10
11371.336258
 20
3820.422769
 30
0.0
 10
11516.348630
 20
3880.488860
 30
0.0
 10
11610.899210
 20
4021.993803
 30
0.0
 10
11610.899210
 20
4178.954063
 30
0.0
  0
SPLINE
  5
3e3
100
AcDbEntity
  8
0
 62
7
100
AcDbSpline
 70
8
 71
3
 72
8
 73
4
 74
0
 40
0
 40
0
 40
0
 40
0
 40
1
 40
1
 40
1
 40
1
 10
11610.899210
 20
4178.954063
 30
0.0
 10
11610.899210
 20
4281.877018
 30
0.0
 10
11570.013225
 20
4380.584517
 30
0.0
 10
11497.235706
 20
4453.362036
 30
0.0
  0
SPLINE
  5
3e4
100
AcDbEntity
  8
0
 62
7
100
AcDbSpline
 70
8
 71
3
 72
8
 73
4
 74
0
 40
0
 40
0
 40
0
 40
0
 40
1
 40
1
 40
1
 40
1
 10
11497.235706
 20
4453.362036
 30
0.0
 10
11424.458187
 20
4526.139555
 30
0.0
 10
11325.750688
 20
4567.025540
 30
0.0
 10
11222.827733
 20
4567.025540
 30
0.0
  0
LWPOLYLINE
  5
3e5
100
AcDbEntity
  8
0
 62
7
100
AcDbPolyline
 90
1
 70
1
 10
3202.012955
 20
4671.193024
 30
0.0
  0
LWPOLYLINE
  5
3e6
100
AcDbEntity
  8
0
 62
7
100
AcDbPolyline
 90
1
 70
1
 10
11222.827733
 20
4567.025540
 30
0.0
  0
LWPOLYLINE
  5
3e7
100
AcDbEntity
  8
0
 62
7
100
AcDbPolyline
 90
2
 70
0
 10
148.960370
 20
17730.009097
 30
0.0
 10
40339.156110
 20
17730.009097
 30
0.0
  0
LWPOLYLINE
  5
3e8
100
AcDbEntity
  8
0
 62
7
100
AcDbPolyline
 90
2
 70
0
 10
148.960370
 20
17412.509196
 30
0.0
 10
148.960370
 20
17730.009097
 30
0.0
  0
LWPOLYLINE
  5
3e9
100
AcDbEntity
  8
0
 62
7
100
AcDbPolyline
 90
2
 70
0
 10
40337.304027
 20
15877.132594
 30
0.0
 10
40339.156110
 20
17730.009097
 30
0.0
  0
LWPOLYLINE
  5
3ea
100
AcDbEntity
  8
0
 62
7
100
AcDbPolyline
 90
2
 70
0
 10
149.754120
 20
15877.132594
 30
0.0
 10
148.960370
 20
17412.509196
 30
0.0
  0
LWPOLYLINE
  5
3eb
100
AcDbEntity
  8
0
 62
7
100
AcDbPolyline
 90
2
 70
0
 10
40337.304027
 20
2.137568
 30
0.0
 10
40337.304027
 20
15877.132594
 30
0.0
  0
LWPOLYLINE
  5
3ec
100
AcDbEntity
  8
0
 62
7
100
AcDbPolyline
 90
2
 70
0
 10
31899.744171
 20
2.137568
 30
0.0
 10
40337.304027
 20
2.137568
 30
0.0
  0
LWPOLYLINE
  5
3ed
100
AcDbEntity
  8
0
 62
7
100
AcDbPolyline
 90
2
 70
0
 10
149.754120
 20
2.137568
 30
0.0
 10
31899.744171
 20
2.137568
 30
0.0
  0
SPLINE
  5
3ee
100
AcDbEntity
  8
0
 62
7
100
AcDbSpline
 70
8
 71
3
 72
8
 73
4
 74
0
 40
0
 40
0
 40
0
 40
0
 40
1
 40
1
 40
1
 40
1
 10
14596.132943
 20
5588.347975
 30
0.0
 10
14450.613168
 20
5588.347975
 30
0.0
 10
14319.422207
 20
5500.688978
 30
0.0
 10
14263.734200
 20
5366.246236
 30
0.0
  0
SPLINE
  5
3ef
100
AcDbEntity
  8
0
 62
7
100
AcDbSpline
 70
8
 71
3
 72
8
 73
4
 74
0
 40
0
 40
0
 40
0
 40
0
 40
1
 40
1
 40
1
 40
1
 10
14263.734200
 20
5366.246236
 30
0.0
 10
14208.046193
 20
5231.803494
 30
0.0
 10
14238.827939
 20
5077.053204
 30
0.0
 10
14341.725959
 20
4974.155184
 30
0.0
  0
SPLINE
  5
3f0
100
AcDbEntity
  8
0
 62
7
100
AcDbSpline
 70
8
 71
3
 72
8
 73
4
 74
0
 40
0
 40
0
 40
0
 40
0
 40
1
 40
1
 40
1
 40
1
 10
14341.725959
 20
4974.155184
 30
0.0
 10
14444.623979
 20
4871.257164
 30
0.0
 10
14599.374269
 20
4840.475417
 30
0.0
 10
14733.817011
 20
4896.163425
 30
0.0
  0
SPLINE
  5
3f1
100
AcDbEntity
  8
0
 62
7
100
AcDbSpline
 70
8
 71
3
 72
8
 73
4
 74
0
 40
0
 40
0
 40
0
 40
0
 40
1
 40
1
 40
1
 40
1
 10
14733.817011
 20
4896.163425
 30
0.0
 10
14868.259753
 20
4951.851432
 30
0.0
 10
14955.918750
 20
5083.042393
 30
0.0
 10
14955.918750
 20
5228.562168
 30
0.0
  0
SPLINE
  5
3f2
100
AcDbEntity
  8
0
 62
7
100
AcDbSpline
 70
8
 71
3
 72
8
 73
4
 74
0
 40
0
 40
0
 40
0
 40
0
 40
1
 40
1
 40
1
 40
1
 10
14955.918750
 20
5228.562168
 30
0.0
 10
14955.918750
 20
5323.983297
 30
0.0
 10
14918.012855
 20
5415.496225
 30
0.0
 10
14850.539927
 20
5482.969152
 30
0.0
  0
SPLINE
  5
3f3
100
AcDbEntity
  8
0
 62
7
100
AcDbSpline
 70
8
 71
3
 72
8
 73
4
 74
0
 40
0
 40
0
 40
0
 40
0
 40
1
 40
1
 40
1
 40
1
 10
14850.539927
 20
5482.969152
 30
0.0
 10
14783.067000
 20
5550.442079
 30
0.0
 10
14691.554072
 20
5588.347975
 30
0.0
 10
14596.132943
 20
5588.347975
 30
0.0
  0
LWPOLYLINE
  5
3f4
100
AcDbEntity
  8
0
 62
7
100
AcDbPolyline
 90
2
 70
0
 10
149.754120
 20
15877.132594
 30
0.0
 10
149.754120
 20
2.137568
 30
0.0
  0
SPLINE
  5
3f5
100
AcDbEntity
  8
0
 62
7
100
AcDbSpline
 70
8
 71
3
 72
8
 73
4
 74
0
 40
0
 40
0
 40
0
 40
0
 40
1
 40
1
 40
1
 40
1
 10
39774.064496
 20
8090.203800
 30
0.0
 10
39628.544720
 20
8090.203800
 30
0.0
 10
39497.353759
 20
8002.544802
 30
0.0
 10
39441.665752
 20
7868.102060
 30
0.0
  0
SPLINE
  5
3f6
100
AcDbEntity
  8
0
 62
7
100
AcDbSpline
 70
8
 71
3
 72
8
 73
4
 74
0
 40
0
 40
0
 40
0
 40
0
 40
1
 40
1
 40
1
 40
1
 10
39441.665752
 20
7868.102060
 30
0.0
 10
39385.977745
 20
7733.659318
 30
0.0
 10
39416.759492
 20
7578.909028
 30
0.0
 10
39519.657511
 20
7476.011008
 30
0.0
  0
SPLINE
  5
3f7
100
AcDbEntity
  8
0
 62
7
100
AcDbSpline
 70
8
 71
3
 72
8
 73
4
 74
0
 40
0
 40
0
 40
0
 40
0
 40
1
 40
1
 40
1
 40
1
 10
39519.657511
 20
7476.011008
 30
0.0
 10
39622.555531
 20
7373.112988
 30
0.0
 10
39777.305821
 20
7342.331242
 30
0.0
 10
39911.748563
 20
7398.019249
 30
0.0
  0
SPLINE
  5
3f8
100
AcDbEntity
  8
0
 62
7
100
AcDbSpline
 70
8
 71
3
 72
8
 73
4
 74
0
 40
0
 40
0
 40
0
 40
0
 40
1
 40
1
 40
1
 40
1
 10
39911.748563
 20
7398.019249
 30
0.0
 10
40046.191305
 20
7453.707256
 30
0.0
 10
40133.850303
 20
7584.898217
 30
0.0
 10
40133.850303
 20
7730.417992
 30
0.0
  0
SPLINE
  5
3f9
100
AcDbEntity
  8
0
 62
7
100
AcDbSpline
 70
8
 71
3
 72
8
 73
4
 74
0
 40
0
 40
0
 40
0
 40
0
 40
1
 40
1
 40
1
 40
1
 10
40133.850303
 20
7730.417992
 30
0.0
 10
40133.850303
 20
7825.839121
 30
0.0
 10
40095.944407
 20
7917.352049
 30
0.0
 10
40028.471480
 20
7984.824976
 30
0.0
  0
SPLINE
  5
3fa
100
AcDbEntity
  8
0
 62
7
100
AcDbSpline
 70
8
 71
3
 72
8
 73
4
 74
0
 40
0
 40
0
 40
0
 40
0
 40
1
 40
1
 40
1
 40
1
 10
40028.471480
 20
7984.824976
 30
0.0
 10
39960.998552
 20
8052.297904
 30
0.0
 10
39869.485624
 20
8090.203800
 30
0.0
 10
39774.064496
 20
8090.203800
 30
0.0
  0
LWPOLYLINE
  5
3fb
100
AcDbEntity
  8
0
 62
7
100
AcDbPolyline
 90
1
 70
1
 10
14596.132943
 20
5588.347975
 30
0.0
  0
LWPOLYLINE
  5
3fc
100
AcDbEntity
  8
0
 62
7
100
AcDbPolyline
 90
1
 70
1
 10
39774.064496
 20
8090.203800
 30
0.0
  0
LWPOLYLINE
  5
3fd
100
AcDbEntity
  8
0
 62
7
100
AcDbPolyline
 90
2
 70
0
 10
5005.918009
 20
3444.709350
 30
0.0
 10
5005.918009
 20
7586.597946
 30
0.0
  0
LWPOLYLINE
  5
3fe
100
AcDbEntity
  8
0
 62
7
100
AcDbPolyline
 90
2
 70
0
 10
9344.457576
 20
3444.709350
 30
0.0
 10
5005.918009
 20
3444.709350
 30
0.0
  0
LWPOLYLINE
  5
3ff
100
AcDbEntity
  8
0
 62
7
100
AcDbPolyline
 90
2
 70
0
 10
9344.457576
 20
7586.597946
 30
0.0
 10
9344.457576
 20
3444.709350
 30
0.0
  0
LWPOLYLINE
  5
400
100
AcDbEntity
  8
0
 62
7
100
AcDbPolyline
 90
2
 70
0
 10
5005.918009
 20
7586.597946
 30
0.0
 10
9344.457576
 20
7586.597946
 30
0.0
  0
ENDSEC
  0
SECTION
  2
OBJECTS
  0
DICTIONARY
  5
C
330
0
100
AcDbDictionary
  3
ACAD_GROUP
350
D
  3
ACAD_MLINESTYLE
350
17
  0
DICTIONARY
  5
D
330
C
100
AcDbDictionary
  0
DICTIONARY
  5
1A
330
C
100
AcDbDictionary
  0
DICTIONARY
  5
17
330
C
100
AcDbDictionary
  3
STANDARD
350
18
  0
DICTIONARY
  5
19
330
C
100
AcDbDictionary
  0
ENDSEC
  0
EOF
