999
"DXF R12 Output" (www.mydxf.blogspot.com)
 0 
SECTION
 2 
HEADER
 9 
$ACADVER
 1 
AC1009
 9 
$EXTMIN
 10 
 0 
 20 
 0 
 9 
$EXTMAX
 10 
 8.5 
 20 
 11 
 0 
ENDSEC
 0 
SECTION
 2 
ENTITIES
0
LINE
8
Layer 1
10
31.437600
20
75.219800
11
31.437600
21
85.219700
0
LINE
8
Layer 1
10
41.437600
20
75.219800
11
31.437600
21
75.219800
0
LINE
8
Layer 1
10
41.437600
20
85.219700
11
41.437600
21
75.219800
0
LINE
8
Layer 1
10
102.438000
20
3.218380
11
102.438000
21
13.218400
0
LINE
8
Layer 1
10
112.438000
20
13.218400
11
112.438000
21
3.218380
0
LINE
8
Layer 1
10
346.837000
20
72.819500
11
351.838000
21
72.819500
0
LINE
8
Layer 1
10
346.837000
20
62.819500
11
346.837000
21
72.819500
0
LINE
8
Layer 1
10
356.837000
20
62.819500
11
346.837000
21
62.819500
0
LINE
8
Layer 1
10
356.837000
20
72.819500
11
356.837000
21
62.819500
0
LINE
8
Layer 1
10
351.838000
20
72.819500
11
356.837000
21
72.819500
0
LINE
8
Layer 1
10
373.238000
20
41.219300
11
373.238000
21
51.219300
0
LINE
8
Layer 1
10
383.238000
20
41.219300
11
373.238000
21
41.219300
0
LINE
8
Layer 1
10
383.238000
20
51.219300
11
383.238000
21
41.219300
0
LINE
8
Layer 1
10
6.238240
20
39.619100
11
6.238240
21
49.619100
0
LINE
8
Layer 1
10
16.238200
20
39.619100
11
6.238240
21
39.619100
0
LINE
8
Layer 1
10
16.238200
20
49.619100
11
16.238200
21
39.619100
0
LINE
8
Layer 1
10
117.239000
20
53.418900
11
117.239000
21
63.418900
0
LINE
8
Layer 1
10
127.239000
20
53.418900
11
117.239000
21
53.418900
0
LINE
8
Layer 1
10
127.239000
20
63.418900
11
127.239000
21
53.418900
0
LINE
8
Layer 1
10
325.638000
20
11.618200
11
330.637000
21
11.618200
0
LINE
8
Layer 1
10
325.638000
20
1.618180
11
325.638000
21
11.618200
0
LINE
8
Layer 1
10
335.638000
20
1.618180
11
325.638000
21
1.618180
0
LINE
8
Layer 1
10
335.638000
20
11.618200
11
335.638000
21
1.618180
0
LINE
8
Layer 1
10
330.637000
20
11.618200
11
335.638000
21
11.618200
0
LINE
8
Layer 1
10
285.638000
20
51.420000
11
285.638000
21
61.419900
0
LINE
8
Layer 1
10
295.638000
20
51.420000
11
285.638000
21
51.420000
0
LINE
8
Layer 1
10
89.438500
20
3.218380
11
89.438500
21
13.218400
0
LINE
8
Layer 1
10
99.438500
20
13.218400
11
99.438500
21
3.218380
0
LINE
8
Layer 1
10
76.438800
20
3.218380
11
76.438800
21
13.218400
0
LINE
8
Layer 1
10
86.438700
20
13.218400
11
86.438700
21
3.218380
0
LINE
8
Layer 1
10
63.439000
20
3.218380
11
63.439000
21
13.218400
0
LINE
8
Layer 1
10
73.439000
20
13.218400
11
73.439000
21
3.218380
0
LINE
8
Layer 1
10
50.436800
20
3.218380
11
50.436800
21
13.218400
0
LINE
8
Layer 1
10
60.436800
20
13.218400
11
60.436800
21
3.218380
0
LINE
8
Layer 1
10
37.437100
20
3.218380
11
37.437100
21
13.218400
0
LINE
8
Layer 1
10
47.437000
20
13.218400
11
47.437000
21
3.218380
0
LINE
8
Layer 1
10
24.437300
20
3.218380
11
24.437300
21
13.218400
0
LINE
8
Layer 1
10
34.437300
20
13.218400
11
34.437300
21
3.218380
0
LINE
8
Layer 1
10
11.437600
20
3.218380
11
11.437600
21
13.218400
0
LINE
8
Layer 1
10
21.437600
20
13.218400
11
21.437600
21
3.218380
0
LINE
8
Layer 1
10
368.638000
20
91.818700
11
373.639000
21
91.818700
0
LINE
8
Layer 1
10
368.638000
20
81.818700
11
368.638000
21
91.818700
0
LINE
8
Layer 1
10
378.638000
20
81.818700
11
368.638000
21
81.818700
0
LINE
8
Layer 1
10
378.638000
20
91.818700
11
378.638000
21
81.818700
0
LINE
8
Layer 1
10
373.639000
20
91.818700
11
378.638000
21
91.818700
0
LINE
8
Layer 1
10
337.048000
20
111.539000
11
337.048000
21
121.539000
0
LINE
8
Layer 1
10
347.048000
20
111.539000
11
337.048000
21
111.539000
0
LINE
8
Layer 1
10
347.048000
20
121.539000
11
347.048000
21
111.539000
0
LINE
8
Layer 1
10
122.238000
20
7.419540
11
122.238000
21
17.419500
0
LINE
8
Layer 1
10
132.237000
20
7.419540
11
122.238000
21
7.419540
0
LINE
8
Layer 1
10
132.237000
20
17.419500
11
132.237000
21
7.419540
0
LINE
8
Layer 1
10
14.638000
20
57.419400
11
14.638000
21
67.419400
0
LINE
8
Layer 1
10
24.638000
20
57.419400
11
14.638000
21
57.419400
0
LINE
8
Layer 1
10
24.638000
20
67.419400
11
24.638000
21
57.419400
0
LINE
8
Layer 1
10
5.036820
20
77.419400
11
5.036820
21
87.419400
0
LINE
8
Layer 1
10
15.036800
20
77.419400
11
5.036820
21
77.419400
0
LINE
8
Layer 1
10
15.036800
20
87.419400
11
15.036800
21
77.419400
0
LINE
8
Layer 1
10
100.637000
20
77.018100
11
105.639000
21
77.018100
0
LINE
8
Layer 1
10
100.637000
20
67.018100
11
100.637000
21
77.018100
0
LINE
8
Layer 1
10
110.637000
20
67.018100
11
100.637000
21
67.018100
0
LINE
8
Layer 1
10
110.637000
20
77.018100
11
110.637000
21
67.018100
0
LINE
8
Layer 1
10
105.639000
20
77.018100
11
110.637000
21
77.018100
0
LINE
8
Layer 1
10
122.387000
20
34.018400
11
122.387000
21
44.018400
0
LINE
8
Layer 1
10
132.387000
20
34.018400
11
122.387000
21
34.018400
0
LINE
8
Layer 1
10
132.387000
20
44.018400
11
132.387000
21
34.018400
0
LINE
8
Layer 1
10
102.438000
20
16.218100
11
102.438000
21
26.218100
0
LINE
8
Layer 1
10
112.438000
20
26.218100
11
112.438000
21
16.218100
0
LINE
8
Layer 1
10
89.438500
20
16.218100
11
89.438500
21
26.218100
0
LINE
8
Layer 1
10
99.438500
20
26.218100
11
99.438500
21
16.218100
0
LINE
8
Layer 1
10
76.438800
20
16.218100
11
76.438800
21
26.218100
0
LINE
8
Layer 1
10
86.438700
20
26.218100
11
86.438700
21
16.218100
0
LINE
8
Layer 1
10
63.439000
20
16.218100
11
63.439000
21
26.218100
0
LINE
8
Layer 1
10
73.439000
20
26.218100
11
73.439000
21
16.218100
0
LINE
8
Layer 1
10
50.436800
20
16.218100
11
50.436800
21
26.218100
0
LINE
8
Layer 1
10
60.436800
20
26.218100
11
60.436800
21
16.218100
0
LINE
8
Layer 1
10
37.437100
20
16.218100
11
37.437100
21
26.218100
0
LINE
8
Layer 1
10
47.437000
20
26.218100
11
47.437000
21
16.218100
0
LINE
8
Layer 1
10
24.437300
20
16.218100
11
24.437300
21
26.218100
0
LINE
8
Layer 1
10
34.437300
20
26.218100
11
34.437300
21
16.218100
0
LINE
8
Layer 1
10
11.437600
20
16.218100
11
11.437600
21
26.218100
0
LINE
8
Layer 1
10
21.437600
20
26.218100
11
21.437600
21
16.218100
0
LINE
8
Layer 1
10
102.438000
20
3.218380
11
102.438000
21
13.218400
0
LINE
8
Layer 1
10
112.438000
20
3.218380
11
102.438000
21
3.218380
0
LINE
8
Layer 1
10
112.438000
20
13.218400
11
112.438000
21
3.218380
0
LINE
8
Layer 1
10
102.438000
20
13.218400
11
112.438000
21
13.218400
0
LINE
8
Layer 1
10
346.837000
20
62.819500
11
346.837000
21
72.819500
0
LINE
8
Layer 1
10
356.837000
20
62.819500
11
346.837000
21
62.819500
0
LINE
8
Layer 1
10
356.837000
20
72.819500
11
356.837000
21
62.819500
0
LINE
8
Layer 1
10
346.837000
20
72.819500
11
356.837000
21
72.819500
0
LINE
8
Layer 1
10
373.238000
20
41.219300
11
373.238000
21
51.219300
0
LINE
8
Layer 1
10
383.238000
20
41.219300
11
373.238000
21
41.219300
0
LINE
8
Layer 1
10
383.238000
20
51.219300
11
383.238000
21
41.219300
0
LINE
8
Layer 1
10
373.238000
20
51.219300
11
383.238000
21
51.219300
0
LINE
8
Layer 1
10
6.238240
20
39.619100
11
6.238240
21
49.619100
0
LINE
8
Layer 1
10
16.238200
20
39.619100
11
6.238240
21
39.619100
0
LINE
8
Layer 1
10
16.238200
20
49.619100
11
16.238200
21
39.619100
0
LINE
8
Layer 1
10
6.238240
20
49.619100
11
16.238200
21
49.619100
0
LINE
8
Layer 1
10
117.239000
20
53.418900
11
117.239000
21
63.418900
0
LINE
8
Layer 1
10
127.239000
20
53.418900
11
117.239000
21
53.418900
0
LINE
8
Layer 1
10
127.239000
20
63.418900
11
127.239000
21
53.418900
0
LINE
8
Layer 1
10
117.239000
20
63.418900
11
127.239000
21
63.418900
0
LINE
8
Layer 1
10
325.638000
20
1.618180
11
325.638000
21
11.618200
0
LINE
8
Layer 1
10
335.638000
20
1.618180
11
325.638000
21
1.618180
0
LINE
8
Layer 1
10
335.638000
20
11.618200
11
335.638000
21
1.618180
0
LINE
8
Layer 1
10
325.638000
20
11.618200
11
335.638000
21
11.618200
0
LINE
8
Layer 1
10
285.638000
20
51.420000
11
285.638000
21
61.419900
0
LINE
8
Layer 1
10
295.638000
20
51.420000
11
285.638000
21
51.420000
0
LINE
8
Layer 1
10
295.638000
20
61.419900
11
295.638000
21
51.420000
0
LINE
8
Layer 1
10
285.638000
20
61.419900
11
295.638000
21
61.419900
0
LINE
8
Layer 1
10
89.438500
20
3.218380
11
89.438500
21
13.218400
0
LINE
8
Layer 1
10
99.438500
20
3.218380
11
89.438500
21
3.218380
0
LINE
8
Layer 1
10
99.438500
20
13.218400
11
99.438500
21
3.218380
0
LINE
8
Layer 1
10
89.438500
20
13.218400
11
99.438500
21
13.218400
0
LINE
8
Layer 1
10
76.438800
20
3.218380
11
76.438800
21
13.218400
0
LINE
8
Layer 1
10
86.438700
20
3.218380
11
76.438800
21
3.218380
0
LINE
8
Layer 1
10
86.438700
20
13.218400
11
86.438700
21
3.218380
0
LINE
8
Layer 1
10
76.438800
20
13.218400
11
86.438700
21
13.218400
0
LINE
8
Layer 1
10
63.439000
20
3.218380
11
63.439000
21
13.218400
0
LINE
8
Layer 1
10
73.439000
20
3.218380
11
63.439000
21
3.218380
0
LINE
8
Layer 1
10
73.439000
20
13.218400
11
73.439000
21
3.218380
0
LINE
8
Layer 1
10
63.439000
20
13.218400
11
73.439000
21
13.218400
0
LINE
8
Layer 1
10
50.436800
20
3.218380
11
50.436800
21
13.218400
0
LINE
8
Layer 1
10
60.436800
20
3.218380
11
50.436800
21
3.218380
0
LINE
8
Layer 1
10
60.436800
20
13.218400
11
60.436800
21
3.218380
0
LINE
8
Layer 1
10
50.436800
20
13.218400
11
60.436800
21
13.218400
0
LINE
8
Layer 1
10
37.437100
20
3.218380
11
37.437100
21
13.218400
0
LINE
8
Layer 1
10
47.437000
20
3.218380
11
37.437100
21
3.218380
0
LINE
8
Layer 1
10
47.437000
20
13.218400
11
47.437000
21
3.218380
0
LINE
8
Layer 1
10
37.437100
20
13.218400
11
47.437000
21
13.218400
0
LINE
8
Layer 1
10
24.437300
20
3.218380
11
24.437300
21
13.218400
0
LINE
8
Layer 1
10
34.437300
20
3.218380
11
24.437300
21
3.218380
0
LINE
8
Layer 1
10
34.437300
20
13.218400
11
34.437300
21
3.218380
0
LINE
8
Layer 1
10
24.437300
20
13.218400
11
34.437300
21
13.218400
0
LINE
8
Layer 1
10
11.437600
20
3.218380
11
11.437600
21
13.218400
0
LINE
8
Layer 1
10
21.437600
20
3.218380
11
11.437600
21
3.218380
0
LINE
8
Layer 1
10
21.437600
20
13.218400
11
21.437600
21
3.218380
0
LINE
8
Layer 1
10
11.437600
20
13.218400
11
21.437600
21
13.218400
0
LINE
8
Layer 1
10
368.638000
20
81.818700
11
368.638000
21
91.818700
0
LINE
8
Layer 1
10
378.638000
20
81.818700
11
368.638000
21
81.818700
0
LINE
8
Layer 1
10
378.638000
20
91.818700
11
378.638000
21
81.818700
0
LINE
8
Layer 1
10
368.638000
20
91.818700
11
378.638000
21
91.818700
0
LINE
8
Layer 1
10
337.048000
20
111.539000
11
337.048000
21
121.539000
0
LINE
8
Layer 1
10
347.048000
20
111.539000
11
337.048000
21
111.539000
0
LINE
8
Layer 1
10
347.048000
20
121.539000
11
347.048000
21
111.539000
0
LINE
8
Layer 1
10
337.048000
20
121.539000
11
347.048000
21
121.539000
0
LINE
8
Layer 1
10
122.238000
20
7.419540
11
122.238000
21
17.419500
0
LINE
8
Layer 1
10
132.237000
20
7.419540
11
122.238000
21
7.419540
0
LINE
8
Layer 1
10
132.237000
20
17.419500
11
132.237000
21
7.419540
0
LINE
8
Layer 1
10
122.238000
20
17.419500
11
132.237000
21
17.419500
0
LINE
8
Layer 1
10
14.638000
20
57.419400
11
14.638000
21
67.419400
0
LINE
8
Layer 1
10
24.638000
20
57.419400
11
14.638000
21
57.419400
0
LINE
8
Layer 1
10
24.638000
20
67.419400
11
24.638000
21
57.419400
0
LINE
8
Layer 1
10
14.638000
20
67.419400
11
24.638000
21
67.419400
0
LINE
8
Layer 1
10
5.036820
20
77.419400
11
5.036820
21
87.419400
0
LINE
8
Layer 1
10
15.036800
20
77.419400
11
5.036820
21
77.419400
0
LINE
8
Layer 1
10
15.036800
20
87.419400
11
15.036800
21
77.419400
0
LINE
8
Layer 1
10
5.036820
20
87.419400
11
15.036800
21
87.419400
0
LINE
8
Layer 1
10
31.445400
20
75.224100
11
31.445400
21
85.224100
0
LINE
8
Layer 1
10
41.445300
20
75.224100
11
31.445400
21
75.224100
0
LINE
8
Layer 1
10
41.445300
20
85.224100
11
41.445300
21
75.224100
0
LINE
8
Layer 1
10
31.445400
20
85.224100
11
41.445300
21
85.224100
0
LINE
8
Layer 1
10
100.637000
20
67.018100
11
100.637000
21
77.018100
0
LINE
8
Layer 1
10
110.637000
20
67.018100
11
100.637000
21
67.018100
0
LINE
8
Layer 1
10
110.637000
20
77.018100
11
110.637000
21
67.018100
0
LINE
8
Layer 1
10
100.637000
20
77.018100
11
110.637000
21
77.018100
0
LINE
8
Layer 1
10
122.387000
20
34.018400
11
122.387000
21
44.018400
0
LINE
8
Layer 1
10
132.387000
20
34.018400
11
122.387000
21
34.018400
0
LINE
8
Layer 1
10
132.387000
20
44.018400
11
132.387000
21
34.018400
0
LINE
8
Layer 1
10
122.387000
20
44.018400
11
132.387000
21
44.018400
0
LINE
8
Layer 1
10
102.438000
20
16.218100
11
102.438000
21
26.218100
0
LINE
8
Layer 1
10
112.438000
20
16.218100
11
102.438000
21
16.218100
0
LINE
8
Layer 1
10
112.438000
20
26.218100
11
112.438000
21
16.218100
0
LINE
8
Layer 1
10
102.438000
20
26.218100
11
112.438000
21
26.218100
0
LINE
8
Layer 1
10
89.438500
20
16.218100
11
89.438500
21
26.218100
0
LINE
8
Layer 1
10
99.438500
20
16.218100
11
89.438500
21
16.218100
0
LINE
8
Layer 1
10
99.438500
20
26.218100
11
99.438500
21
16.218100
0
LINE
8
Layer 1
10
89.438500
20
26.218100
11
99.438500
21
26.218100
0
LINE
8
Layer 1
10
76.438800
20
16.218100
11
76.438800
21
26.218100
0
LINE
8
Layer 1
10
86.438700
20
16.218100
11
76.438800
21
16.218100
0
LINE
8
Layer 1
10
86.438700
20
26.218100
11
86.438700
21
16.218100
0
LINE
8
Layer 1
10
76.438800
20
26.218100
11
86.438700
21
26.218100
0
LINE
8
Layer 1
10
63.439000
20
16.218100
11
63.439000
21
26.218100
0
LINE
8
Layer 1
10
73.439000
20
16.218100
11
63.439000
21
16.218100
0
LINE
8
Layer 1
10
73.439000
20
26.218100
11
73.439000
21
16.218100
0
LINE
8
Layer 1
10
63.439000
20
26.218100
11
73.439000
21
26.218100
0
LINE
8
Layer 1
10
50.436800
20
16.218100
11
50.436800
21
26.218100
0
LINE
8
Layer 1
10
60.436800
20
16.218100
11
50.436800
21
16.218100
0
LINE
8
Layer 1
10
60.436800
20
26.218100
11
60.436800
21
16.218100
0
LINE
8
Layer 1
10
50.436800
20
26.218100
11
60.436800
21
26.218100
0
LINE
8
Layer 1
10
37.437100
20
16.218100
11
37.437100
21
26.218100
0
LINE
8
Layer 1
10
47.437000
20
16.218100
11
37.437100
21
16.218100
0
LINE
8
Layer 1
10
47.437000
20
26.218100
11
47.437000
21
16.218100
0
LINE
8
Layer 1
10
37.437100
20
26.218100
11
47.437000
21
26.218100
0
LINE
8
Layer 1
10
24.437300
20
16.218100
11
24.437300
21
26.218100
0
LINE
8
Layer 1
10
34.437300
20
16.218100
11
24.437300
21
16.218100
0
LINE
8
Layer 1
10
34.437300
20
26.218100
11
34.437300
21
16.218100
0
LINE
8
Layer 1
10
24.437300
20
26.218100
11
34.437300
21
26.218100
0
LINE
8
Layer 1
10
11.437600
20
16.218100
11
11.437600
21
26.218100
0
LINE
8
Layer 1
10
21.437600
20
16.218100
11
11.437600
21
16.218100
0
LINE
8
Layer 1
10
21.437600
20
26.218100
11
21.437600
21
16.218100
0
LINE
8
Layer 1
10
11.437600
20
26.218100
11
21.437600
21
26.218100
0
LINE
8
Layer 1
10
1.430020
20
170.208000
11
387.256000
21
170.208000
0
LINE
8
Layer 1
10
1.430020
20
167.160000
11
1.430020
21
170.208000
0
LINE
8
Layer 1
10
387.238000
20
152.421000
11
387.255780
21
170.208600
0
LINE
8
Layer 1
10
1.437640
20
152.421000
11
1.430020
21
167.160000
0
LINE
8
Layer 1
10
387.238000
20
0.020520
11
387.238000
21
152.421000
0
LINE
8
Layer 1
10
306.238000
20
0.020520
11
387.238000
21
0.020520
0
LINE
8
Layer 1
10
1.437640
20
0.020520
11
306.238000
21
0.020520
0
LINE
8
Layer 1
10
1.437640
20
152.421000
11
1.437640
21
0.020520
0
LINE
8
Layer 1
10
48.056800
20
33.069200
11
48.056800
21
72.831400
0
LINE
8
Layer 1
10
89.706800
20
33.069200
11
48.056800
21
33.069200
0
LINE
8
Layer 1
10
89.706800
20
72.831400
11
89.706800
21
33.069200
0
LINE
8
Layer 1
10
48.056800
20
72.831400
11
89.706800
21
72.831400
 0 
ENDSEC
 0 
EOF