  0
SECTION
  2
HEADER
  9
$ACADVER
  1
AC1014
  9
$HANDSEED
  5
FFFF
  9
$MEASUREMENT
 70
     1
  0
ENDSEC
  0
SECTION
  2
TABLES
  0
TABLE
  2
VPORT
  5
8
330
0
100
AcDbSymbolTable
 70
     4
  0
VPORT
  5
2E
330
8
100
AcDbSymbolTableRecord
100
AcDbViewportTableRecord
  2
*ACTIVE
 70
     0
 10
0.0
 20
0.0
 11
1.0
 21
1.0
 12
210.0
 22
148.5
 13
0.0
 23
0.0
 14
10.0
 24
10.0
 15
10.0
 25
10.0
 16
0.0
 26
0.0
 36
1.0
 17
0.0
 27
0.0
 37
0.0
 40
341.0
 41
1.24
 42
50.0
 43
0.0
 44
0.0
 50
0.0
 51
0.0
 71
     0
 72
   100
 73
     1
 74
     3
 75
     0
 76
     0
 77
     0
 78
     0
  0
ENDTAB
  0
TABLE
  2
LTYPE
  5
5
330
0
100
AcDbSymbolTable
 70
     1
  0
LTYPE
  5
14
330
5
100
AcDbSymbolTableRecord
100
AcDbLinetypeTableRecord
  2
BYBLOCK
 70
     0
  3

 72
    65
 73
     0
 40
0.0
  0
LTYPE
  5
15
330
5
100
AcDbSymbolTableRecord
100
AcDbLinetypeTableRecord
  2
BYLAYER
 70
     0
  3

 72
    65
 73
     0
 40
0.0
  0
LTYPE
  5
16
330
5
100
AcDbSymbolTableRecord
100
AcDbLinetypeTableRecord
  2
CONTINUOUS
 70
     0
  3
Solid line
 72
    65
 73
     0
 40
0.0
  0
ENDTAB
  0
TABLE
  2
LAYER
  5
2
100
AcDbSymbolTable
 70
1
  0
LAYER
  5
50
100
AcDbSymbolTableRecord
100
AcDbLayerTableRecord
  2
0
 70
0
  6
CONTINUOUS
  0
ENDTAB
  0
TABLE
  2
STYLE
  5
3
330
0
100
AcDbSymbolTable
 70
     1
  0
STYLE
  5
11
330
3
100
AcDbSymbolTableRecord
100
AcDbTextStyleTableRecord
  2
STANDARD
 70
     0
 40
0.0
 41
1.0
 50
0.0
 71
     0
 42
2.5
  3
txt
  4

  0
ENDTAB
  0
TABLE
  2
VIEW
  5
6
330
0
100
AcDbSymbolTable
 70
     0
  0
ENDTAB
  0
TABLE
  2
UCS
  5
7
330
0
100
AcDbSymbolTable
 70
     0
  0
ENDTAB
  0
TABLE
  2
APPID
  5
9
330
0
100
AcDbSymbolTable
 70
     2
  0
APPID
  5
12
330
9
100
AcDbSymbolTableRecord
100
AcDbRegAppTableRecord
  2
ACAD
 70
     0
  0
ENDTAB
  0
TABLE
  2
DIMSTYLE
  5
A
330
0
100
AcDbSymbolTable
 70
     1
  0
DIMSTYLE
105
27
330
A
100
AcDbSymbolTableRecord
100
AcDbDimStyleTableRecord
  2
ISO-25
 70
     0
  3

  4

  5

  6

  7

 40
1.0
 41
2.5
 42
0.625
 43
3.75
 44
1.25
 45
0.0
 46
0.0
 47
0.0
 48
0.0
140
2.5
141
2.5
142
0.0
143
0.03937007874016
144
1.0
145
0.0
146
1.0
147
0.625
 71
     0
 72
     0
 73
     0
 74
     0
 75
     0
 76
     0
 77
     1
 78
     8
170
     0
171
     3
172
     1
173
     0
174
     0
175
     0
176
     0
177
     0
178
     0
270
     2
271
     2
272
     2
273
     2
274
     3
340
11
275
     0
280
     0
281
     0
282
     0
283
     0
284
     8
285
     0
286
     0
287
     3
288
     0
  0
ENDTAB
  0
TABLE
  2
BLOCK_RECORD
  5
1
330
0
100
AcDbSymbolTable
 70
     1
  0
BLOCK_RECORD
  5
1F
330
1
100
AcDbSymbolTableRecord
100
AcDbBlockTableRecord
  2
*MODEL_SPACE
  0
BLOCK_RECORD
  5
1B
330
1
100
AcDbSymbolTableRecord
100
AcDbBlockTableRecord
  2
*PAPER_SPACE
  0
ENDTAB
  0
ENDSEC
  0
SECTION
  2
BLOCKS
  0
BLOCK
  5
20
330
1F
100
AcDbEntity
  8
0
100
AcDbBlockBegin
  2
*MODEL_SPACE
 70
     0
 10
0.0
 20
0.0
 30
0.0
  3
*MODEL_SPACE
  1

  0
ENDBLK
  5
21
330
1F
100
AcDbEntity
  8
0
100
AcDbBlockEnd
  0
BLOCK
  5
1C
330
1B
100
AcDbEntity
 67
     1
  8
0
100
AcDbBlockBegin
  2
*PAPER_SPACE
  1

  0
ENDBLK
  5
1D
330
1B
100
AcDbEntity
 67
     1
  8
0
100
AcDbBlockEnd
  0
ENDSEC
  0
SECTION
  2
ENTITIES
  0
LWPOLYLINE
  5
100
100
AcDbEntity
  8
0
 62
7
100
AcDbPolyline
 90
2
 70
0
 10
12376.996491
 20
29614.072604
 30
0.0
 10
12376.996491
 20
33551.071488
 30
0.0
  0
LWPOLYLINE
  5
101
100
AcDbEntity
  8
0
 62
7
100
AcDbPolyline
 90
2
 70
0
 10
16313.995375
 20
29614.072604
 30
0.0
 10
12376.996491
 20
29614.072604
 30
0.0
  0
LWPOLYLINE
  5
102
100
AcDbEntity
  8
0
 62
7
100
AcDbPolyline
 90
2
 70
0
 10
16313.995375
 20
33551.071488
 30
0.0
 10
16313.995375
 20
29614.072604
 30
0.0
  0
LWPOLYLINE
  5
103
100
AcDbEntity
  8
0
 62
7
100
AcDbPolyline
 90
2
 70
0
 10
40329.988567
 20
1267.080641
 30
0.0
 10
40329.988567
 20
5204.079525
 30
0.0
  0
LWPOLYLINE
  5
104
100
AcDbEntity
  8
0
 62
7
100
AcDbPolyline
 90
2
 70
0
 10
44266.987450
 20
5204.079525
 30
0.0
 10
44266.987450
 20
1267.080641
 30
0.0
  0
LWPOLYLINE
  5
105
100
AcDbEntity
  8
0
 62
7
100
AcDbPolyline
 90
2
 70
0
 10
136549.961288
 20
28669.072872
 30
0.0
 10
138518.960730
 20
28669.072872
 30
0.0
  0
LWPOLYLINE
  5
106
100
AcDbEntity
  8
0
 62
7
100
AcDbPolyline
 90
2
 70
0
 10
136549.961288
 20
24732.073989
 30
0.0
 10
136549.961288
 20
28669.072872
 30
0.0
  0
LWPOLYLINE
  5
107
100
AcDbEntity
  8
0
 62
7
100
AcDbPolyline
 90
2
 70
0
 10
140486.960172
 20
24732.073989
 30
0.0
 10
136549.961288
 20
24732.073989
 30
0.0
  0
LWPOLYLINE
  5
108
100
AcDbEntity
  8
0
 62
7
100
AcDbPolyline
 90
2
 70
0
 10
140486.960172
 20
28669.072872
 30
0.0
 10
140486.960172
 20
24732.073989
 30
0.0
  0
LWPOLYLINE
  5
109
100
AcDbEntity
  8
0
 62
7
100
AcDbPolyline
 90
2
 70
0
 10
138518.960730
 20
28669.072872
 30
0.0
 10
140486.960172
 20
28669.072872
 30
0.0
  0
LWPOLYLINE
  5
10a
100
AcDbEntity
  8
0
 62
7
100
AcDbPolyline
 90
2
 70
0
 10
146943.958342
 20
16228.076399
 30
0.0
 10
146943.958342
 20
20165.075283
 30
0.0
  0
LWPOLYLINE
  5
10b
100
AcDbEntity
  8
0
 62
7
100
AcDbPolyline
 90
2
 70
0
 10
150880.957226
 20
16228.076399
 30
0.0
 10
146943.958342
 20
16228.076399
 30
0.0
  0
LWPOLYLINE
  5
10c
100
AcDbEntity
  8
0
 62
7
100
AcDbPolyline
 90
2
 70
0
 10
150880.957226
 20
20165.075283
 30
0.0
 10
150880.957226
 20
16228.076399
 30
0.0
  0
LWPOLYLINE
  5
10d
100
AcDbEntity
  8
0
 62
7
100
AcDbPolyline
 90
2
 70
0
 10
2455.999304
 20
15598.076578
 30
0.0
 10
2455.999304
 20
19535.075462
 30
0.0
  0
LWPOLYLINE
  5
10e
100
AcDbEntity
  8
0
 62
7
100
AcDbPolyline
 90
2
 70
0
 10
6392.998188
 20
15598.076578
 30
0.0
 10
2455.999304
 20
15598.076578
 30
0.0
  0
LWPOLYLINE
  5
10f
100
AcDbEntity
  8
0
 62
7
100
AcDbPolyline
 90
2
 70
0
 10
6392.998188
 20
19535.075462
 30
0.0
 10
6392.998188
 20
15598.076578
 30
0.0
  0
LWPOLYLINE
  5
110
100
AcDbEntity
  8
0
 62
7
100
AcDbPolyline
 90
2
 70
0
 10
46156.986915
 20
21031.075038
 30
0.0
 10
46156.986915
 20
24968.073922
 30
0.0
  0
LWPOLYLINE
  5
111
100
AcDbEntity
  8
0
 62
7
100
AcDbPolyline
 90
2
 70
0
 10
50093.985798
 20
21031.075038
 30
0.0
 10
46156.986915
 20
21031.075038
 30
0.0
  0
LWPOLYLINE
  5
112
100
AcDbEntity
  8
0
 62
7
100
AcDbPolyline
 90
2
 70
0
 10
50093.985798
 20
24968.073922
 30
0.0
 10
50093.985798
 20
21031.075038
 30
0.0
  0
LWPOLYLINE
  5
113
100
AcDbEntity
  8
0
 62
7
100
AcDbPolyline
 90
2
 70
0
 10
128203.963655
 20
4574.079703
 30
0.0
 10
130171.963097
 20
4574.079703
 30
0.0
  0
LWPOLYLINE
  5
114
100
AcDbEntity
  8
0
 62
7
100
AcDbPolyline
 90
2
 70
0
 10
128203.963655
 20
637.080819
 30
0.0
 10
128203.963655
 20
4574.079703
 30
0.0
  0
LWPOLYLINE
  5
115
100
AcDbEntity
  8
0
 62
7
100
AcDbPolyline
 90
2
 70
0
 10
132140.962538
 20
637.080819
 30
0.0
 10
128203.963655
 20
637.080819
 30
0.0
  0
LWPOLYLINE
  5
116
100
AcDbEntity
  8
0
 62
7
100
AcDbPolyline
 90
2
 70
0
 10
132140.962538
 20
4574.079703
 30
0.0
 10
132140.962538
 20
637.080819
 30
0.0
  0
LWPOLYLINE
  5
117
100
AcDbEntity
  8
0
 62
7
100
AcDbPolyline
 90
2
 70
0
 10
130171.963097
 20
4574.079703
 30
0.0
 10
132140.962538
 20
4574.079703
 30
0.0
  0
LWPOLYLINE
  5
118
100
AcDbEntity
  8
0
 62
7
100
AcDbPolyline
 90
2
 70
0
 10
112455.968119
 20
20244.075261
 30
0.0
 10
112455.968119
 20
24181.074145
 30
0.0
  0
LWPOLYLINE
  5
119
100
AcDbEntity
  8
0
 62
7
100
AcDbPolyline
 90
2
 70
0
 10
116392.967003
 20
20244.075261
 30
0.0
 10
112455.968119
 20
20244.075261
 30
0.0
  0
LWPOLYLINE
  5
11a
100
AcDbEntity
  8
0
 62
7
100
AcDbPolyline
 90
2
 70
0
 10
35211.990018
 20
1267.080641
 30
0.0
 10
35211.990018
 20
5204.079525
 30
0.0
  0
LWPOLYLINE
  5
11b
100
AcDbEntity
  8
0
 62
7
100
AcDbPolyline
 90
2
 70
0
 10
39148.988901
 20
5204.079525
 30
0.0
 10
39148.988901
 20
1267.080641
 30
0.0
  0
LWPOLYLINE
  5
11c
100
AcDbEntity
  8
0
 62
7
100
AcDbPolyline
 90
2
 70
0
 10
30093.991468
 20
1267.080641
 30
0.0
 10
30093.991468
 20
5204.079525
 30
0.0
  0
LWPOLYLINE
  5
11d
100
AcDbEntity
  8
0
 62
7
100
AcDbPolyline
 90
2
 70
0
 10
34030.990352
 20
5204.079525
 30
0.0
 10
34030.990352
 20
1267.080641
 30
0.0
  0
LWPOLYLINE
  5
11e
100
AcDbEntity
  8
0
 62
7
100
AcDbPolyline
 90
2
 70
0
 10
24975.992919
 20
1267.080641
 30
0.0
 10
24975.992919
 20
5204.079525
 30
0.0
  0
LWPOLYLINE
  5
11f
100
AcDbEntity
  8
0
 62
7
100
AcDbPolyline
 90
2
 70
0
 10
28912.991803
 20
5204.079525
 30
0.0
 10
28912.991803
 20
1267.080641
 30
0.0
  0
LWPOLYLINE
  5
120
100
AcDbEntity
  8
0
 62
7
100
AcDbPolyline
 90
2
 70
0
 10
19856.994371
 20
1267.080641
 30
0.0
 10
19856.994371
 20
5204.079525
 30
0.0
  0
LWPOLYLINE
  5
121
100
AcDbEntity
  8
0
 62
7
100
AcDbPolyline
 90
2
 70
0
 10
23793.993254
 20
5204.079525
 30
0.0
 10
23793.993254
 20
1267.080641
 30
0.0
  0
LWPOLYLINE
  5
122
100
AcDbEntity
  8
0
 62
7
100
AcDbPolyline
 90
2
 70
0
 10
14738.995822
 20
1267.080641
 30
0.0
 10
14738.995822
 20
5204.079525
 30
0.0
  0
LWPOLYLINE
  5
123
100
AcDbEntity
  8
0
 62
7
100
AcDbPolyline
 90
2
 70
0
 10
18675.994705
 20
5204.079525
 30
0.0
 10
18675.994705
 20
1267.080641
 30
0.0
  0
LWPOLYLINE
  5
124
100
AcDbEntity
  8
0
 62
7
100
AcDbPolyline
 90
2
 70
0
 10
9620.997272
 20
1267.080641
 30
0.0
 10
9620.997272
 20
5204.079525
 30
0.0
  0
LWPOLYLINE
  5
125
100
AcDbEntity
  8
0
 62
7
100
AcDbPolyline
 90
2
 70
0
 10
13557.996156
 20
5204.079525
 30
0.0
 10
13557.996156
 20
1267.080641
 30
0.0
  0
LWPOLYLINE
  5
126
100
AcDbEntity
  8
0
 62
7
100
AcDbPolyline
 90
2
 70
0
 10
4502.998723
 20
1267.080641
 30
0.0
 10
4502.998723
 20
5204.079525
 30
0.0
  0
LWPOLYLINE
  5
127
100
AcDbEntity
  8
0
 62
7
100
AcDbPolyline
 90
2
 70
0
 10
8439.997607
 20
5204.079525
 30
0.0
 10
8439.997607
 20
1267.080641
 30
0.0
  0
LWPOLYLINE
  5
128
100
AcDbEntity
  8
0
 62
7
100
AcDbPolyline
 90
2
 70
0
 10
145132.958855
 20
36149.070752
 30
0.0
 10
147101.958297
 20
36149.070752
 30
0.0
  0
LWPOLYLINE
  5
129
100
AcDbEntity
  8
0
 62
7
100
AcDbPolyline
 90
2
 70
0
 10
145132.958855
 20
32212.071868
 30
0.0
 10
145132.958855
 20
36149.070752
 30
0.0
  0
LWPOLYLINE
  5
12a
100
AcDbEntity
  8
0
 62
7
100
AcDbPolyline
 90
2
 70
0
 10
149069.957739
 20
32212.071868
 30
0.0
 10
145132.958855
 20
32212.071868
 30
0.0
  0
LWPOLYLINE
  5
12b
100
AcDbEntity
  8
0
 62
7
100
AcDbPolyline
 90
2
 70
0
 10
149069.957739
 20
36149.070752
 30
0.0
 10
149069.957739
 20
32212.071868
 30
0.0
  0
LWPOLYLINE
  5
12c
100
AcDbEntity
  8
0
 62
7
100
AcDbPolyline
 90
2
 70
0
 10
147101.958297
 20
36149.070752
 30
0.0
 10
149069.957739
 20
36149.070752
 30
0.0
  0
LWPOLYLINE
  5
12d
100
AcDbEntity
  8
0
 62
7
100
AcDbPolyline
 90
2
 70
0
 10
132695.962381
 20
43913.068551
 30
0.0
 10
132695.962381
 20
47850.067435
 30
0.0
  0
LWPOLYLINE
  5
12e
100
AcDbEntity
  8
0
 62
7
100
AcDbPolyline
 90
2
 70
0
 10
136632.961265
 20
43913.068551
 30
0.0
 10
132695.962381
 20
43913.068551
 30
0.0
  0
LWPOLYLINE
  5
12f
100
AcDbEntity
  8
0
 62
7
100
AcDbPolyline
 90
2
 70
0
 10
136632.961265
 20
47850.067435
 30
0.0
 10
136632.961265
 20
43913.068551
 30
0.0
  0
LWPOLYLINE
  5
130
100
AcDbEntity
  8
0
 62
7
100
AcDbPolyline
 90
2
 70
0
 10
48124.986357
 20
2921.080172
 30
0.0
 10
48124.986357
 20
6858.079056
 30
0.0
  0
LWPOLYLINE
  5
131
100
AcDbEntity
  8
0
 62
7
100
AcDbPolyline
 90
2
 70
0
 10
52061.985241
 20
2921.080172
 30
0.0
 10
48124.986357
 20
2921.080172
 30
0.0
  0
LWPOLYLINE
  5
132
100
AcDbEntity
  8
0
 62
7
100
AcDbPolyline
 90
2
 70
0
 10
52061.985241
 20
6858.079056
 30
0.0
 10
52061.985241
 20
2921.080172
 30
0.0
  0
LWPOLYLINE
  5
133
100
AcDbEntity
  8
0
 62
7
100
AcDbPolyline
 90
2
 70
0
 10
5762.998366
 20
22606.074591
 30
0.0
 10
5762.998366
 20
26543.073475
 30
0.0
  0
LWPOLYLINE
  5
134
100
AcDbEntity
  8
0
 62
7
100
AcDbPolyline
 90
2
 70
0
 10
9699.997250
 20
22606.074591
 30
0.0
 10
5762.998366
 20
22606.074591
 30
0.0
  0
LWPOLYLINE
  5
135
100
AcDbEntity
  8
0
 62
7
100
AcDbPolyline
 90
2
 70
0
 10
9699.997250
 20
26543.073475
 30
0.0
 10
9699.997250
 20
22606.074591
 30
0.0
  0
LWPOLYLINE
  5
136
100
AcDbEntity
  8
0
 62
7
100
AcDbPolyline
 90
2
 70
0
 10
1982.999438
 20
30480.072359
 30
0.0
 10
1982.999438
 20
34417.071243
 30
0.0
  0
LWPOLYLINE
  5
137
100
AcDbEntity
  8
0
 62
7
100
AcDbPolyline
 90
2
 70
0
 10
5919.998322
 20
30480.072359
 30
0.0
 10
1982.999438
 20
30480.072359
 30
0.0
  0
LWPOLYLINE
  5
138
100
AcDbEntity
  8
0
 62
7
100
AcDbPolyline
 90
2
 70
0
 10
5919.998322
 20
34417.071243
 30
0.0
 10
5919.998322
 20
30480.072359
 30
0.0
  0
LWPOLYLINE
  5
139
100
AcDbEntity
  8
0
 62
7
100
AcDbPolyline
 90
2
 70
0
 10
39620.988768
 20
30322.072404
 30
0.0
 10
41589.988209
 20
30322.072404
 30
0.0
  0
LWPOLYLINE
  5
13a
100
AcDbEntity
  8
0
 62
7
100
AcDbPolyline
 90
2
 70
0
 10
39620.988768
 20
26385.073520
 30
0.0
 10
39620.988768
 20
30322.072404
 30
0.0
  0
LWPOLYLINE
  5
13b
100
AcDbEntity
  8
0
 62
7
100
AcDbPolyline
 90
2
 70
0
 10
43557.987651
 20
26385.073520
 30
0.0
 10
39620.988768
 20
26385.073520
 30
0.0
  0
LWPOLYLINE
  5
13c
100
AcDbEntity
  8
0
 62
7
100
AcDbPolyline
 90
2
 70
0
 10
43557.987651
 20
30322.072404
 30
0.0
 10
43557.987651
 20
26385.073520
 30
0.0
  0
LWPOLYLINE
  5
13d
100
AcDbEntity
  8
0
 62
7
100
AcDbPolyline
 90
2
 70
0
 10
41589.988209
 20
30322.072404
 30
0.0
 10
43557.987651
 20
30322.072404
 30
0.0
  0
LWPOLYLINE
  5
13e
100
AcDbEntity
  8
0
 62
7
100
AcDbPolyline
 90
2
 70
0
 10
48183.986340
 20
13393.077203
 30
0.0
 10
48183.986340
 20
17330.076087
 30
0.0
  0
LWPOLYLINE
  5
13f
100
AcDbEntity
  8
0
 62
7
100
AcDbPolyline
 90
2
 70
0
 10
52120.985224
 20
13393.077203
 30
0.0
 10
48183.986340
 20
13393.077203
 30
0.0
  0
LWPOLYLINE
  5
140
100
AcDbEntity
  8
0
 62
7
100
AcDbPolyline
 90
2
 70
0
 10
52120.985224
 20
17330.076087
 30
0.0
 10
52120.985224
 20
13393.077203
 30
0.0
  0
LWPOLYLINE
  5
141
100
AcDbEntity
  8
0
 62
7
100
AcDbPolyline
 90
2
 70
0
 10
40329.988567
 20
6385.079190
 30
0.0
 10
40329.988567
 20
10322.078074
 30
0.0
  0
LWPOLYLINE
  5
142
100
AcDbEntity
  8
0
 62
7
100
AcDbPolyline
 90
2
 70
0
 10
44266.987450
 20
10322.078074
 30
0.0
 10
44266.987450
 20
6385.079190
 30
0.0
  0
LWPOLYLINE
  5
143
100
AcDbEntity
  8
0
 62
7
100
AcDbPolyline
 90
2
 70
0
 10
35211.990018
 20
6385.079190
 30
0.0
 10
35211.990018
 20
10322.078074
 30
0.0
  0
LWPOLYLINE
  5
144
100
AcDbEntity
  8
0
 62
7
100
AcDbPolyline
 90
2
 70
0
 10
39148.988901
 20
10322.078074
 30
0.0
 10
39148.988901
 20
6385.079190
 30
0.0
  0
LWPOLYLINE
  5
145
100
AcDbEntity
  8
0
 62
7
100
AcDbPolyline
 90
2
 70
0
 10
30093.991468
 20
6385.079190
 30
0.0
 10
30093.991468
 20
10322.078074
 30
0.0
  0
LWPOLYLINE
  5
146
100
AcDbEntity
  8
0
 62
7
100
AcDbPolyline
 90
2
 70
0
 10
34030.990352
 20
10322.078074
 30
0.0
 10
34030.990352
 20
6385.079190
 30
0.0
  0
LWPOLYLINE
  5
147
100
AcDbEntity
  8
0
 62
7
100
AcDbPolyline
 90
2
 70
0
 10
24975.992919
 20
6385.079190
 30
0.0
 10
24975.992919
 20
10322.078074
 30
0.0
  0
LWPOLYLINE
  5
148
100
AcDbEntity
  8
0
 62
7
100
AcDbPolyline
 90
2
 70
0
 10
28912.991803
 20
10322.078074
 30
0.0
 10
28912.991803
 20
6385.079190
 30
0.0
  0
LWPOLYLINE
  5
149
100
AcDbEntity
  8
0
 62
7
100
AcDbPolyline
 90
2
 70
0
 10
19856.994371
 20
6385.079190
 30
0.0
 10
19856.994371
 20
10322.078074
 30
0.0
  0
LWPOLYLINE
  5
14a
100
AcDbEntity
  8
0
 62
7
100
AcDbPolyline
 90
2
 70
0
 10
23793.993254
 20
10322.078074
 30
0.0
 10
23793.993254
 20
6385.079190
 30
0.0
  0
LWPOLYLINE
  5
14b
100
AcDbEntity
  8
0
 62
7
100
AcDbPolyline
 90
2
 70
0
 10
14738.995822
 20
6385.079190
 30
0.0
 10
14738.995822
 20
10322.078074
 30
0.0
  0
LWPOLYLINE
  5
14c
100
AcDbEntity
  8
0
 62
7
100
AcDbPolyline
 90
2
 70
0
 10
18675.994705
 20
10322.078074
 30
0.0
 10
18675.994705
 20
6385.079190
 30
0.0
  0
LWPOLYLINE
  5
14d
100
AcDbEntity
  8
0
 62
7
100
AcDbPolyline
 90
2
 70
0
 10
9620.997272
 20
6385.079190
 30
0.0
 10
9620.997272
 20
10322.078074
 30
0.0
  0
LWPOLYLINE
  5
14e
100
AcDbEntity
  8
0
 62
7
100
AcDbPolyline
 90
2
 70
0
 10
13557.996156
 20
10322.078074
 30
0.0
 10
13557.996156
 20
6385.079190
 30
0.0
  0
LWPOLYLINE
  5
14f
100
AcDbEntity
  8
0
 62
7
100
AcDbPolyline
 90
2
 70
0
 10
4502.998723
 20
6385.079190
 30
0.0
 10
4502.998723
 20
10322.078074
 30
0.0
  0
LWPOLYLINE
  5
150
100
AcDbEntity
  8
0
 62
7
100
AcDbPolyline
 90
2
 70
0
 10
8439.997607
 20
10322.078074
 30
0.0
 10
8439.997607
 20
6385.079190
 30
0.0
  0
LWPOLYLINE
  5
151
100
AcDbEntity
  8
0
 62
7
100
AcDbPolyline
 90
2
 70
0
 10
40329.988567
 20
1267.080641
 30
0.0
 10
40329.988567
 20
5204.079525
 30
0.0
  0
LWPOLYLINE
  5
152
100
AcDbEntity
  8
0
 62
7
100
AcDbPolyline
 90
2
 70
0
 10
44266.987450
 20
1267.080641
 30
0.0
 10
40329.988567
 20
1267.080641
 30
0.0
  0
LWPOLYLINE
  5
153
100
AcDbEntity
  8
0
 62
7
100
AcDbPolyline
 90
2
 70
0
 10
44266.987450
 20
5204.079525
 30
0.0
 10
44266.987450
 20
1267.080641
 30
0.0
  0
LWPOLYLINE
  5
154
100
AcDbEntity
  8
0
 62
7
100
AcDbPolyline
 90
2
 70
0
 10
40329.988567
 20
5204.079525
 30
0.0
 10
44266.987450
 20
5204.079525
 30
0.0
  0
LWPOLYLINE
  5
155
100
AcDbEntity
  8
0
 62
7
100
AcDbPolyline
 90
2
 70
0
 10
136549.961288
 20
24732.073989
 30
0.0
 10
136549.961288
 20
28669.072872
 30
0.0
  0
LWPOLYLINE
  5
156
100
AcDbEntity
  8
0
 62
7
100
AcDbPolyline
 90
2
 70
0
 10
140486.960172
 20
24732.073989
 30
0.0
 10
136549.961288
 20
24732.073989
 30
0.0
  0
LWPOLYLINE
  5
157
100
AcDbEntity
  8
0
 62
7
100
AcDbPolyline
 90
2
 70
0
 10
140486.960172
 20
28669.072872
 30
0.0
 10
140486.960172
 20
24732.073989
 30
0.0
  0
LWPOLYLINE
  5
158
100
AcDbEntity
  8
0
 62
7
100
AcDbPolyline
 90
2
 70
0
 10
136549.961288
 20
28669.072872
 30
0.0
 10
140486.960172
 20
28669.072872
 30
0.0
  0
LWPOLYLINE
  5
159
100
AcDbEntity
  8
0
 62
7
100
AcDbPolyline
 90
2
 70
0
 10
146943.958342
 20
16228.076399
 30
0.0
 10
146943.958342
 20
20165.075283
 30
0.0
  0
LWPOLYLINE
  5
15a
100
AcDbEntity
  8
0
 62
7
100
AcDbPolyline
 90
2
 70
0
 10
150880.957226
 20
16228.076399
 30
0.0
 10
146943.958342
 20
16228.076399
 30
0.0
  0
LWPOLYLINE
  5
15b
100
AcDbEntity
  8
0
 62
7
100
AcDbPolyline
 90
2
 70
0
 10
150880.957226
 20
20165.075283
 30
0.0
 10
150880.957226
 20
16228.076399
 30
0.0
  0
LWPOLYLINE
  5
15c
100
AcDbEntity
  8
0
 62
7
100
AcDbPolyline
 90
2
 70
0
 10
146943.958342
 20
20165.075283
 30
0.0
 10
150880.957226
 20
20165.075283
 30
0.0
  0
LWPOLYLINE
  5
15d
100
AcDbEntity
  8
0
 62
7
100
AcDbPolyline
 90
2
 70
0
 10
2455.999304
 20
15598.076578
 30
0.0
 10
2455.999304
 20
19535.075462
 30
0.0
  0
LWPOLYLINE
  5
15e
100
AcDbEntity
  8
0
 62
7
100
AcDbPolyline
 90
2
 70
0
 10
6392.998188
 20
15598.076578
 30
0.0
 10
2455.999304
 20
15598.076578
 30
0.0
  0
LWPOLYLINE
  5
15f
100
AcDbEntity
  8
0
 62
7
100
AcDbPolyline
 90
2
 70
0
 10
6392.998188
 20
19535.075462
 30
0.0
 10
6392.998188
 20
15598.076578
 30
0.0
  0
LWPOLYLINE
  5
160
100
AcDbEntity
  8
0
 62
7
100
AcDbPolyline
 90
2
 70
0
 10
2455.999304
 20
19535.075462
 30
0.0
 10
6392.998188
 20
19535.075462
 30
0.0
  0
LWPOLYLINE
  5
161
100
AcDbEntity
  8
0
 62
7
100
AcDbPolyline
 90
2
 70
0
 10
46156.986915
 20
21031.075038
 30
0.0
 10
46156.986915
 20
24968.073922
 30
0.0
  0
LWPOLYLINE
  5
162
100
AcDbEntity
  8
0
 62
7
100
AcDbPolyline
 90
2
 70
0
 10
50093.985798
 20
21031.075038
 30
0.0
 10
46156.986915
 20
21031.075038
 30
0.0
  0
LWPOLYLINE
  5
163
100
AcDbEntity
  8
0
 62
7
100
AcDbPolyline
 90
2
 70
0
 10
50093.985798
 20
24968.073922
 30
0.0
 10
50093.985798
 20
21031.075038
 30
0.0
  0
LWPOLYLINE
  5
164
100
AcDbEntity
  8
0
 62
7
100
AcDbPolyline
 90
2
 70
0
 10
46156.986915
 20
24968.073922
 30
0.0
 10
50093.985798
 20
24968.073922
 30
0.0
  0
LWPOLYLINE
  5
165
100
AcDbEntity
  8
0
 62
7
100
AcDbPolyline
 90
2
 70
0
 10
128203.963655
 20
637.080819
 30
0.0
 10
128203.963655
 20
4574.079703
 30
0.0
  0
LWPOLYLINE
  5
166
100
AcDbEntity
  8
0
 62
7
100
AcDbPolyline
 90
2
 70
0
 10
132140.962538
 20
637.080819
 30
0.0
 10
128203.963655
 20
637.080819
 30
0.0
  0
LWPOLYLINE
  5
167
100
AcDbEntity
  8
0
 62
7
100
AcDbPolyline
 90
2
 70
0
 10
132140.962538
 20
4574.079703
 30
0.0
 10
132140.962538
 20
637.080819
 30
0.0
  0
LWPOLYLINE
  5
168
100
AcDbEntity
  8
0
 62
7
100
AcDbPolyline
 90
2
 70
0
 10
128203.963655
 20
4574.079703
 30
0.0
 10
132140.962538
 20
4574.079703
 30
0.0
  0
LWPOLYLINE
  5
169
100
AcDbEntity
  8
0
 62
7
100
AcDbPolyline
 90
2
 70
0
 10
112455.968119
 20
20244.075261
 30
0.0
 10
112455.968119
 20
24181.074145
 30
0.0
  0
LWPOLYLINE
  5
16a
100
AcDbEntity
  8
0
 62
7
100
AcDbPolyline
 90
2
 70
0
 10
116392.967003
 20
20244.075261
 30
0.0
 10
112455.968119
 20
20244.075261
 30
0.0
  0
LWPOLYLINE
  5
16b
100
AcDbEntity
  8
0
 62
7
100
AcDbPolyline
 90
2
 70
0
 10
116392.967003
 20
24181.074145
 30
0.0
 10
116392.967003
 20
20244.075261
 30
0.0
  0
LWPOLYLINE
  5
16c
100
AcDbEntity
  8
0
 62
7
100
AcDbPolyline
 90
2
 70
0
 10
112455.968119
 20
24181.074145
 30
0.0
 10
116392.967003
 20
24181.074145
 30
0.0
  0
LWPOLYLINE
  5
16d
100
AcDbEntity
  8
0
 62
7
100
AcDbPolyline
 90
2
 70
0
 10
35211.990018
 20
1267.080641
 30
0.0
 10
35211.990018
 20
5204.079525
 30
0.0
  0
LWPOLYLINE
  5
16e
100
AcDbEntity
  8
0
 62
7
100
AcDbPolyline
 90
2
 70
0
 10
39148.988901
 20
1267.080641
 30
0.0
 10
35211.990018
 20
1267.080641
 30
0.0
  0
LWPOLYLINE
  5
16f
100
AcDbEntity
  8
0
 62
7
100
AcDbPolyline
 90
2
 70
0
 10
39148.988901
 20
5204.079525
 30
0.0
 10
39148.988901
 20
1267.080641
 30
0.0
  0
LWPOLYLINE
  5
170
100
AcDbEntity
  8
0
 62
7
100
AcDbPolyline
 90
2
 70
0
 10
35211.990018
 20
5204.079525
 30
0.0
 10
39148.988901
 20
5204.079525
 30
0.0
  0
LWPOLYLINE
  5
171
100
AcDbEntity
  8
0
 62
7
100
AcDbPolyline
 90
2
 70
0
 10
30093.991468
 20
1267.080641
 30
0.0
 10
30093.991468
 20
5204.079525
 30
0.0
  0
LWPOLYLINE
  5
172
100
AcDbEntity
  8
0
 62
7
100
AcDbPolyline
 90
2
 70
0
 10
34030.990352
 20
1267.080641
 30
0.0
 10
30093.991468
 20
1267.080641
 30
0.0
  0
LWPOLYLINE
  5
173
100
AcDbEntity
  8
0
 62
7
100
AcDbPolyline
 90
2
 70
0
 10
34030.990352
 20
5204.079525
 30
0.0
 10
34030.990352
 20
1267.080641
 30
0.0
  0
LWPOLYLINE
  5
174
100
AcDbEntity
  8
0
 62
7
100
AcDbPolyline
 90
2
 70
0
 10
30093.991468
 20
5204.079525
 30
0.0
 10
34030.990352
 20
5204.079525
 30
0.0
  0
LWPOLYLINE
  5
175
100
AcDbEntity
  8
0
 62
7
100
AcDbPolyline
 90
2
 70
0
 10
24975.992919
 20
1267.080641
 30
0.0
 10
24975.992919
 20
5204.079525
 30
0.0
  0
LWPOLYLINE
  5
176
100
AcDbEntity
  8
0
 62
7
100
AcDbPolyline
 90
2
 70
0
 10
28912.991803
 20
1267.080641
 30
0.0
 10
24975.992919
 20
1267.080641
 30
0.0
  0
LWPOLYLINE
  5
177
100
AcDbEntity
  8
0
 62
7
100
AcDbPolyline
 90
2
 70
0
 10
28912.991803
 20
5204.079525
 30
0.0
 10
28912.991803
 20
1267.080641
 30
0.0
  0
LWPOLYLINE
  5
178
100
AcDbEntity
  8
0
 62
7
100
AcDbPolyline
 90
2
 70
0
 10
24975.992919
 20
5204.079525
 30
0.0
 10
28912.991803
 20
5204.079525
 30
0.0
  0
LWPOLYLINE
  5
179
100
AcDbEntity
  8
0
 62
7
100
AcDbPolyline
 90
2
 70
0
 10
19856.994371
 20
1267.080641
 30
0.0
 10
19856.994371
 20
5204.079525
 30
0.0
  0
LWPOLYLINE
  5
17a
100
AcDbEntity
  8
0
 62
7
100
AcDbPolyline
 90
2
 70
0
 10
23793.993254
 20
1267.080641
 30
0.0
 10
19856.994371
 20
1267.080641
 30
0.0
  0
LWPOLYLINE
  5
17b
100
AcDbEntity
  8
0
 62
7
100
AcDbPolyline
 90
2
 70
0
 10
23793.993254
 20
5204.079525
 30
0.0
 10
23793.993254
 20
1267.080641
 30
0.0
  0
LWPOLYLINE
  5
17c
100
AcDbEntity
  8
0
 62
7
100
AcDbPolyline
 90
2
 70
0
 10
19856.994371
 20
5204.079525
 30
0.0
 10
23793.993254
 20
5204.079525
 30
0.0
  0
LWPOLYLINE
  5
17d
100
AcDbEntity
  8
0
 62
7
100
AcDbPolyline
 90
2
 70
0
 10
14738.995822
 20
1267.080641
 30
0.0
 10
14738.995822
 20
5204.079525
 30
0.0
  0
LWPOLYLINE
  5
17e
100
AcDbEntity
  8
0
 62
7
100
AcDbPolyline
 90
2
 70
0
 10
18675.994705
 20
1267.080641
 30
0.0
 10
14738.995822
 20
1267.080641
 30
0.0
  0
LWPOLYLINE
  5
17f
100
AcDbEntity
  8
0
 62
7
100
AcDbPolyline
 90
2
 70
0
 10
18675.994705
 20
5204.079525
 30
0.0
 10
18675.994705
 20
1267.080641
 30
0.0
  0
LWPOLYLINE
  5
180
100
AcDbEntity
  8
0
 62
7
100
AcDbPolyline
 90
2
 70
0
 10
14738.995822
 20
5204.079525
 30
0.0
 10
18675.994705
 20
5204.079525
 30
0.0
  0
LWPOLYLINE
  5
181
100
AcDbEntity
  8
0
 62
7
100
AcDbPolyline
 90
2
 70
0
 10
9620.997272
 20
1267.080641
 30
0.0
 10
9620.997272
 20
5204.079525
 30
0.0
  0
LWPOLYLINE
  5
182
100
AcDbEntity
  8
0
 62
7
100
AcDbPolyline
 90
2
 70
0
 10
13557.996156
 20
1267.080641
 30
0.0
 10
9620.997272
 20
1267.080641
 30
0.0
  0
LWPOLYLINE
  5
183
100
AcDbEntity
  8
0
 62
7
100
AcDbPolyline
 90
2
 70
0
 10
13557.996156
 20
5204.079525
 30
0.0
 10
13557.996156
 20
1267.080641
 30
0.0
  0
LWPOLYLINE
  5
184
100
AcDbEntity
  8
0
 62
7
100
AcDbPolyline
 90
2
 70
0
 10
9620.997272
 20
5204.079525
 30
0.0
 10
13557.996156
 20
5204.079525
 30
0.0
  0
LWPOLYLINE
  5
185
100
AcDbEntity
  8
0
 62
7
100
AcDbPolyline
 90
2
 70
0
 10
4502.998723
 20
1267.080641
 30
0.0
 10
4502.998723
 20
5204.079525
 30
0.0
  0
LWPOLYLINE
  5
186
100
AcDbEntity
  8
0
 62
7
100
AcDbPolyline
 90
2
 70
0
 10
8439.997607
 20
1267.080641
 30
0.0
 10
4502.998723
 20
1267.080641
 30
0.0
  0
LWPOLYLINE
  5
187
100
AcDbEntity
  8
0
 62
7
100
AcDbPolyline
 90
2
 70
0
 10
8439.997607
 20
5204.079525
 30
0.0
 10
8439.997607
 20
1267.080641
 30
0.0
  0
LWPOLYLINE
  5
188
100
AcDbEntity
  8
0
 62
7
100
AcDbPolyline
 90
2
 70
0
 10
4502.998723
 20
5204.079525
 30
0.0
 10
8439.997607
 20
5204.079525
 30
0.0
  0
LWPOLYLINE
  5
189
100
AcDbEntity
  8
0
 62
7
100
AcDbPolyline
 90
2
 70
0
 10
145132.958855
 20
32212.071868
 30
0.0
 10
145132.958855
 20
36149.070752
 30
0.0
  0
LWPOLYLINE
  5
18a
100
AcDbEntity
  8
0
 62
7
100
AcDbPolyline
 90
2
 70
0
 10
149069.957739
 20
32212.071868
 30
0.0
 10
145132.958855
 20
32212.071868
 30
0.0
  0
LWPOLYLINE
  5
18b
100
AcDbEntity
  8
0
 62
7
100
AcDbPolyline
 90
2
 70
0
 10
149069.957739
 20
36149.070752
 30
0.0
 10
149069.957739
 20
32212.071868
 30
0.0
  0
LWPOLYLINE
  5
18c
100
AcDbEntity
  8
0
 62
7
100
AcDbPolyline
 90
2
 70
0
 10
145132.958855
 20
36149.070752
 30
0.0
 10
149069.957739
 20
36149.070752
 30
0.0
  0
LWPOLYLINE
  5
18d
100
AcDbEntity
  8
0
 62
7
100
AcDbPolyline
 90
2
 70
0
 10
132695.962381
 20
43913.068551
 30
0.0
 10
132695.962381
 20
47850.067435
 30
0.0
  0
LWPOLYLINE
  5
18e
100
AcDbEntity
  8
0
 62
7
100
AcDbPolyline
 90
2
 70
0
 10
136632.961265
 20
43913.068551
 30
0.0
 10
132695.962381
 20
43913.068551
 30
0.0
  0
LWPOLYLINE
  5
18f
100
AcDbEntity
  8
0
 62
7
100
AcDbPolyline
 90
2
 70
0
 10
136632.961265
 20
47850.067435
 30
0.0
 10
136632.961265
 20
43913.068551
 30
0.0
  0
LWPOLYLINE
  5
190
100
AcDbEntity
  8
0
 62
7
100
AcDbPolyline
 90
2
 70
0
 10
132695.962381
 20
47850.067435
 30
0.0
 10
136632.961265
 20
47850.067435
 30
0.0
  0
LWPOLYLINE
  5
191
100
AcDbEntity
  8
0
 62
7
100
AcDbPolyline
 90
2
 70
0
 10
48124.986357
 20
2921.080172
 30
0.0
 10
48124.986357
 20
6858.079056
 30
0.0
  0
LWPOLYLINE
  5
192
100
AcDbEntity
  8
0
 62
7
100
AcDbPolyline
 90
2
 70
0
 10
52061.985241
 20
2921.080172
 30
0.0
 10
48124.986357
 20
2921.080172
 30
0.0
  0
LWPOLYLINE
  5
193
100
AcDbEntity
  8
0
 62
7
100
AcDbPolyline
 90
2
 70
0
 10
52061.985241
 20
6858.079056
 30
0.0
 10
52061.985241
 20
2921.080172
 30
0.0
  0
LWPOLYLINE
  5
194
100
AcDbEntity
  8
0
 62
7
100
AcDbPolyline
 90
2
 70
0
 10
48124.986357
 20
6858.079056
 30
0.0
 10
52061.985241
 20
6858.079056
 30
0.0
  0
LWPOLYLINE
  5
195
100
AcDbEntity
  8
0
 62
7
100
AcDbPolyline
 90
2
 70
0
 10
5762.998366
 20
22606.074591
 30
0.0
 10
5762.998366
 20
26543.073475
 30
0.0
  0
LWPOLYLINE
  5
196
100
AcDbEntity
  8
0
 62
7
100
AcDbPolyline
 90
2
 70
0
 10
9699.997250
 20
22606.074591
 30
0.0
 10
5762.998366
 20
22606.074591
 30
0.0
  0
LWPOLYLINE
  5
197
100
AcDbEntity
  8
0
 62
7
100
AcDbPolyline
 90
2
 70
0
 10
9699.997250
 20
26543.073475
 30
0.0
 10
9699.997250
 20
22606.074591
 30
0.0
  0
LWPOLYLINE
  5
198
100
AcDbEntity
  8
0
 62
7
100
AcDbPolyline
 90
2
 70
0
 10
5762.998366
 20
26543.073475
 30
0.0
 10
9699.997250
 20
26543.073475
 30
0.0
  0
LWPOLYLINE
  5
199
100
AcDbEntity
  8
0
 62
7
100
AcDbPolyline
 90
2
 70
0
 10
1982.999438
 20
30480.072359
 30
0.0
 10
1982.999438
 20
34417.071243
 30
0.0
  0
LWPOLYLINE
  5
19a
100
AcDbEntity
  8
0
 62
7
100
AcDbPolyline
 90
2
 70
0
 10
5919.998322
 20
30480.072359
 30
0.0
 10
1982.999438
 20
30480.072359
 30
0.0
  0
LWPOLYLINE
  5
19b
100
AcDbEntity
  8
0
 62
7
100
AcDbPolyline
 90
2
 70
0
 10
5919.998322
 20
34417.071243
 30
0.0
 10
5919.998322
 20
30480.072359
 30
0.0
  0
LWPOLYLINE
  5
19c
100
AcDbEntity
  8
0
 62
7
100
AcDbPolyline
 90
2
 70
0
 10
1982.999438
 20
34417.071243
 30
0.0
 10
5919.998322
 20
34417.071243
 30
0.0
  0
LWPOLYLINE
  5
19d
100
AcDbEntity
  8
0
 62
7
100
AcDbPolyline
 90
2
 70
0
 10
12380.059490
 20
29615.770604
 30
0.0
 10
12380.059490
 20
33552.769488
 30
0.0
  0
LWPOLYLINE
  5
19e
100
AcDbEntity
  8
0
 62
7
100
AcDbPolyline
 90
2
 70
0
 10
16317.058374
 20
29615.770604
 30
0.0
 10
12380.059490
 20
29615.770604
 30
0.0
  0
LWPOLYLINE
  5
19f
100
AcDbEntity
  8
0
 62
7
100
AcDbPolyline
 90
2
 70
0
 10
16317.058374
 20
33552.769488
 30
0.0
 10
16317.058374
 20
29615.770604
 30
0.0
  0
LWPOLYLINE
  5
1a0
100
AcDbEntity
  8
0
 62
7
100
AcDbPolyline
 90
2
 70
0
 10
12380.059490
 20
33552.769488
 30
0.0
 10
16317.058374
 20
33552.769488
 30
0.0
  0
LWPOLYLINE
  5
1a1
100
AcDbEntity
  8
0
 62
7
100
AcDbPolyline
 90
2
 70
0
 10
39620.988768
 20
26385.073520
 30
0.0
 10
39620.988768
 20
30322.072404
 30
0.0
  0
LWPOLYLINE
  5
1a2
100
AcDbEntity
  8
0
 62
7
100
AcDbPolyline
 90
2
 70
0
 10
43557.987651
 20
26385.073520
 30
0.0
 10
39620.988768
 20
26385.073520
 30
0.0
  0
LWPOLYLINE
  5
1a3
100
AcDbEntity
  8
0
 62
7
100
AcDbPolyline
 90
2
 70
0
 10
43557.987651
 20
30322.072404
 30
0.0
 10
43557.987651
 20
26385.073520
 30
0.0
  0
LWPOLYLINE
  5
1a4
100
AcDbEntity
  8
0
 62
7
100
AcDbPolyline
 90
2
 70
0
 10
39620.988768
 20
30322.072404
 30
0.0
 10
43557.987651
 20
30322.072404
 30
0.0
  0
LWPOLYLINE
  5
1a5
100
AcDbEntity
  8
0
 62
7
100
AcDbPolyline
 90
2
 70
0
 10
48183.986340
 20
13393.077203
 30
0.0
 10
48183.986340
 20
17330.076087
 30
0.0
  0
LWPOLYLINE
  5
1a6
100
AcDbEntity
  8
0
 62
7
100
AcDbPolyline
 90
2
 70
0
 10
52120.985224
 20
13393.077203
 30
0.0
 10
48183.986340
 20
13393.077203
 30
0.0
  0
LWPOLYLINE
  5
1a7
100
AcDbEntity
  8
0
 62
7
100
AcDbPolyline
 90
2
 70
0
 10
52120.985224
 20
17330.076087
 30
0.0
 10
52120.985224
 20
13393.077203
 30
0.0
  0
LWPOLYLINE
  5
1a8
100
AcDbEntity
  8
0
 62
7
100
AcDbPolyline
 90
2
 70
0
 10
48183.986340
 20
17330.076087
 30
0.0
 10
52120.985224
 20
17330.076087
 30
0.0
  0
LWPOLYLINE
  5
1a9
100
AcDbEntity
  8
0
 62
7
100
AcDbPolyline
 90
2
 70
0
 10
40329.988567
 20
6385.079190
 30
0.0
 10
40329.988567
 20
10322.078074
 30
0.0
  0
LWPOLYLINE
  5
1aa
100
AcDbEntity
  8
0
 62
7
100
AcDbPolyline
 90
2
 70
0
 10
44266.987450
 20
6385.079190
 30
0.0
 10
40329.988567
 20
6385.079190
 30
0.0
  0
LWPOLYLINE
  5
1ab
100
AcDbEntity
  8
0
 62
7
100
AcDbPolyline
 90
2
 70
0
 10
44266.987450
 20
10322.078074
 30
0.0
 10
44266.987450
 20
6385.079190
 30
0.0
  0
LWPOLYLINE
  5
1ac
100
AcDbEntity
  8
0
 62
7
100
AcDbPolyline
 90
2
 70
0
 10
40329.988567
 20
10322.078074
 30
0.0
 10
44266.987450
 20
10322.078074
 30
0.0
  0
LWPOLYLINE
  5
1ad
100
AcDbEntity
  8
0
 62
7
100
AcDbPolyline
 90
2
 70
0
 10
35211.990018
 20
6385.079190
 30
0.0
 10
35211.990018
 20
10322.078074
 30
0.0
  0
LWPOLYLINE
  5
1ae
100
AcDbEntity
  8
0
 62
7
100
AcDbPolyline
 90
2
 70
0
 10
39148.988901
 20
6385.079190
 30
0.0
 10
35211.990018
 20
6385.079190
 30
0.0
  0
LWPOLYLINE
  5
1af
100
AcDbEntity
  8
0
 62
7
100
AcDbPolyline
 90
2
 70
0
 10
39148.988901
 20
10322.078074
 30
0.0
 10
39148.988901
 20
6385.079190
 30
0.0
  0
LWPOLYLINE
  5
1b0
100
AcDbEntity
  8
0
 62
7
100
AcDbPolyline
 90
2
 70
0
 10
35211.990018
 20
10322.078074
 30
0.0
 10
39148.988901
 20
10322.078074
 30
0.0
  0
LWPOLYLINE
  5
1b1
100
AcDbEntity
  8
0
 62
7
100
AcDbPolyline
 90
2
 70
0
 10
30093.991468
 20
6385.079190
 30
0.0
 10
30093.991468
 20
10322.078074
 30
0.0
  0
LWPOLYLINE
  5
1b2
100
AcDbEntity
  8
0
 62
7
100
AcDbPolyline
 90
2
 70
0
 10
34030.990352
 20
6385.079190
 30
0.0
 10
30093.991468
 20
6385.079190
 30
0.0
  0
LWPOLYLINE
  5
1b3
100
AcDbEntity
  8
0
 62
7
100
AcDbPolyline
 90
2
 70
0
 10
34030.990352
 20
10322.078074
 30
0.0
 10
34030.990352
 20
6385.079190
 30
0.0
  0
LWPOLYLINE
  5
1b4
100
AcDbEntity
  8
0
 62
7
100
AcDbPolyline
 90
2
 70
0
 10
30093.991468
 20
10322.078074
 30
0.0
 10
34030.990352
 20
10322.078074
 30
0.0
  0
LWPOLYLINE
  5
1b5
100
AcDbEntity
  8
0
 62
7
100
AcDbPolyline
 90
2
 70
0
 10
24975.992919
 20
6385.079190
 30
0.0
 10
24975.992919
 20
10322.078074
 30
0.0
  0
LWPOLYLINE
  5
1b6
100
AcDbEntity
  8
0
 62
7
100
AcDbPolyline
 90
2
 70
0
 10
28912.991803
 20
6385.079190
 30
0.0
 10
24975.992919
 20
6385.079190
 30
0.0
  0
LWPOLYLINE
  5
1b7
100
AcDbEntity
  8
0
 62
7
100
AcDbPolyline
 90
2
 70
0
 10
28912.991803
 20
10322.078074
 30
0.0
 10
28912.991803
 20
6385.079190
 30
0.0
  0
LWPOLYLINE
  5
1b8
100
AcDbEntity
  8
0
 62
7
100
AcDbPolyline
 90
2
 70
0
 10
24975.992919
 20
10322.078074
 30
0.0
 10
28912.991803
 20
10322.078074
 30
0.0
  0
LWPOLYLINE
  5
1b9
100
AcDbEntity
  8
0
 62
7
100
AcDbPolyline
 90
2
 70
0
 10
19856.994371
 20
6385.079190
 30
0.0
 10
19856.994371
 20
10322.078074
 30
0.0
  0
LWPOLYLINE
  5
1ba
100
AcDbEntity
  8
0
 62
7
100
AcDbPolyline
 90
2
 70
0
 10
23793.993254
 20
6385.079190
 30
0.0
 10
19856.994371
 20
6385.079190
 30
0.0
  0
LWPOLYLINE
  5
1bb
100
AcDbEntity
  8
0
 62
7
100
AcDbPolyline
 90
2
 70
0
 10
23793.993254
 20
10322.078074
 30
0.0
 10
23793.993254
 20
6385.079190
 30
0.0
  0
LWPOLYLINE
  5
1bc
100
AcDbEntity
  8
0
 62
7
100
AcDbPolyline
 90
2
 70
0
 10
19856.994371
 20
10322.078074
 30
0.0
 10
23793.993254
 20
10322.078074
 30
0.0
  0
LWPOLYLINE
  5
1bd
100
AcDbEntity
  8
0
 62
7
100
AcDbPolyline
 90
2
 70
0
 10
14738.995822
 20
6385.079190
 30
0.0
 10
14738.995822
 20
10322.078074
 30
0.0
  0
LWPOLYLINE
  5
1be
100
AcDbEntity
  8
0
 62
7
100
AcDbPolyline
 90
2
 70
0
 10
18675.994705
 20
6385.079190
 30
0.0
 10
14738.995822
 20
6385.079190
 30
0.0
  0
LWPOLYLINE
  5
1bf
100
AcDbEntity
  8
0
 62
7
100
AcDbPolyline
 90
2
 70
0
 10
18675.994705
 20
10322.078074
 30
0.0
 10
18675.994705
 20
6385.079190
 30
0.0
  0
LWPOLYLINE
  5
1c0
100
AcDbEntity
  8
0
 62
7
100
AcDbPolyline
 90
2
 70
0
 10
14738.995822
 20
10322.078074
 30
0.0
 10
18675.994705
 20
10322.078074
 30
0.0
  0
LWPOLYLINE
  5
1c1
100
AcDbEntity
  8
0
 62
7
100
AcDbPolyline
 90
2
 70
0
 10
9620.997272
 20
6385.079190
 30
0.0
 10
9620.997272
 20
10322.078074
 30
0.0
  0
LWPOLYLINE
  5
1c2
100
AcDbEntity
  8
0
 62
7
100
AcDbPolyline
 90
2
 70
0
 10
13557.996156
 20
6385.079190
 30
0.0
 10
9620.997272
 20
6385.079190
 30
0.0
  0
LWPOLYLINE
  5
1c3
100
AcDbEntity
  8
0
 62
7
100
AcDbPolyline
 90
2
 70
0
 10
13557.996156
 20
10322.078074
 30
0.0
 10
13557.996156
 20
6385.079190
 30
0.0
  0
LWPOLYLINE
  5
1c4
100
AcDbEntity
  8
0
 62
7
100
AcDbPolyline
 90
2
 70
0
 10
9620.997272
 20
10322.078074
 30
0.0
 10
13557.996156
 20
10322.078074
 30
0.0
  0
LWPOLYLINE
  5
1c5
100
AcDbEntity
  8
0
 62
7
100
AcDbPolyline
 90
2
 70
0
 10
4502.998723
 20
6385.079190
 30
0.0
 10
4502.998723
 20
10322.078074
 30
0.0
  0
LWPOLYLINE
  5
1c6
100
AcDbEntity
  8
0
 62
7
100
AcDbPolyline
 90
2
 70
0
 10
8439.997607
 20
6385.079190
 30
0.0
 10
4502.998723
 20
6385.079190
 30
0.0
  0
LWPOLYLINE
  5
1c7
100
AcDbEntity
  8
0
 62
7
100
AcDbPolyline
 90
2
 70
0
 10
8439.997607
 20
10322.078074
 30
0.0
 10
8439.997607
 20
6385.079190
 30
0.0
  0
SPLINE
  5
1c8
100
AcDbEntity
  8
0
 62
7
100
AcDbSpline
 70
8
 71
3
 72
8
 73
4
 74
0
 40
0
 40
0
 40
0
 40
0
 40
1
 40
1
 40
1
 40
1
 10
115400.967284
 20
35453.493749
 30
0.0
 10
114850.971267
 20
35453.493749
 30
0.0
 10
114355.131399
 20
35122.184142
 30
0.0
 10
114144.657035
 20
34614.054078
 30
0.0
  0
SPLINE
  5
1c9
100
AcDbEntity
  8
0
 62
7
100
AcDbSpline
 70
8
 71
3
 72
8
 73
4
 74
0
 40
0
 40
0
 40
0
 40
0
 40
1
 40
1
 40
1
 40
1
 10
114144.657035
 20
34614.054078
 30
0.0
 10
113934.182672
 20
34105.924015
 30
0.0
 10
114050.523134
 20
33521.041012
 30
0.0
 10
114439.429048
 20
33132.135098
 30
0.0
  0
SPLINE
  5
1ca
100
AcDbEntity
  8
0
 62
7
100
AcDbSpline
 70
8
 71
3
 72
8
 73
4
 74
0
 40
0
 40
0
 40
0
 40
0
 40
1
 40
1
 40
1
 40
1
 10
114439.429048
 20
33132.135098
 30
0.0
 10
114828.334961
 20
32743.229185
 30
0.0
 10
115413.217964
 20
32626.888722
 30
0.0
 10
115921.348028
 20
32837.363086
 30
0.0
  0
SPLINE
  5
1cb
100
AcDbEntity
  8
0
 62
7
100
AcDbSpline
 70
8
 71
3
 72
8
 73
4
 74
0
 40
0
 40
0
 40
0
 40
0
 40
1
 40
1
 40
1
 40
1
 10
115921.348028
 20
32837.363086
 30
0.0
 10
116429.478091
 20
33047.837449
 30
0.0
 10
116760.787699
 20
33543.677317
 30
0.0
 10
116760.787699
 20
34093.673335
 30
0.0
  0
SPLINE
  5
1cc
100
AcDbEntity
  8
0
 62
7
100
AcDbSpline
 70
8
 71
3
 72
8
 73
4
 74
0
 40
0
 40
0
 40
0
 40
0
 40
1
 40
1
 40
1
 40
1
 10
116760.787699
 20
34093.673335
 30
0.0
 10
116760.787699
 20
34844.681412
 30
0.0
 10
116151.975362
 20
35453.493749
 30
0.0
 10
115400.967284
 20
35453.493749
 30
0.0
  0
LWPOLYLINE
  5
1cd
100
AcDbEntity
  8
0
 62
7
100
AcDbPolyline
 90
2
 70
0
 10
4502.998723
 20
10322.078074
 30
0.0
 10
8439.997607
 20
10322.078074
 30
0.0
  0
SPLINE
  5
1ce
100
AcDbEntity
  8
0
 62
7
100
AcDbSpline
 70
8
 71
3
 72
8
 73
4
 74
0
 40
0
 40
0
 40
0
 40
0
 40
1
 40
1
 40
1
 40
1
 10
104778.970295
 20
53610.986601
 30
0.0
 10
104228.974278
 20
53610.986601
 30
0.0
 10
103733.134410
 20
53279.676994
 30
0.0
 10
103522.660047
 20
52771.546931
 30
0.0
  0
SPLINE
  5
1cf
100
AcDbEntity
  8
0
 62
7
100
AcDbSpline
 70
8
 71
3
 72
8
 73
4
 74
0
 40
0
 40
0
 40
0
 40
0
 40
1
 40
1
 40
1
 40
1
 10
103522.660047
 20
52771.546931
 30
0.0
 10
103312.185683
 20
52263.416867
 30
0.0
 10
103428.526146
 20
51678.533864
 30
0.0
 10
103817.432059
 20
51289.627951
 30
0.0
  0
SPLINE
  5
1d0
100
AcDbEntity
  8
0
 62
7
100
AcDbSpline
 70
8
 71
3
 72
8
 73
4
 74
0
 40
0
 40
0
 40
0
 40
0
 40
1
 40
1
 40
1
 40
1
 10
103817.432059
 20
51289.627951
 30
0.0
 10
104206.337973
 20
50900.722037
 30
0.0
 10
104791.220976
 20
50784.381574
 30
0.0
 10
105299.351039
 20
50994.855938
 30
0.0
  0
SPLINE
  5
1d1
100
AcDbEntity
  8
0
 62
7
100
AcDbSpline
 70
8
 71
3
 72
8
 73
4
 74
0
 40
0
 40
0
 40
0
 40
0
 40
1
 40
1
 40
1
 40
1
 10
105299.351039
 20
50994.855938
 30
0.0
 10
105807.481103
 20
51205.330302
 30
0.0
 10
106138.790710
 20
51701.170170
 30
0.0
 10
106138.790710
 20
52251.166187
 30
0.0
  0
SPLINE
  5
1d2
100
AcDbEntity
  8
0
 62
7
100
AcDbSpline
 70
8
 71
3
 72
8
 73
4
 74
0
 40
0
 40
0
 40
0
 40
0
 40
1
 40
1
 40
1
 40
1
 10
106138.790710
 20
52251.166187
 30
0.0
 10
106138.790710
 20
52611.812984
 30
0.0
 10
105995.524328
 20
52957.688627
 30
0.0
 10
105740.508532
 20
53212.704423
 30
0.0
  0
SPLINE
  5
1d3
100
AcDbEntity
  8
0
 62
7
100
AcDbSpline
 70
8
 71
3
 72
8
 73
4
 74
0
 40
0
 40
0
 40
0
 40
0
 40
1
 40
1
 40
1
 40
1
 10
105740.508532
 20
53212.704423
 30
0.0
 10
105485.492736
 20
53467.720219
 30
0.0
 10
105139.617093
 20
53610.986601
 30
0.0
 10
104778.970295
 20
53610.986601
 30
0.0
  0
LWPOLYLINE
  5
1d4
100
AcDbEntity
  8
0
 62
7
100
AcDbPolyline
 90
1
 70
1
 10
115400.967284
 20
35453.493749
 30
0.0
  0
SPLINE
  5
1d5
100
AcDbEntity
  8
0
 62
7
100
AcDbSpline
 70
8
 71
3
 72
8
 73
4
 74
0
 40
0
 40
0
 40
0
 40
0
 40
1
 40
1
 40
1
 40
1
 10
49661.087921
 20
64699.979658
 30
0.0
 10
49063.949335
 20
64699.979658
 30
0.0
 10
48525.608859
 20
64340.272052
 30
0.0
 10
48297.093815
 20
63788.587934
 30
0.0
  0
SPLINE
  5
1d6
100
AcDbEntity
  8
0
 62
7
100
AcDbSpline
 70
8
 71
3
 72
8
 73
4
 74
0
 40
0
 40
0
 40
0
 40
0
 40
1
 40
1
 40
1
 40
1
 10
48297.093815
 20
63788.587934
 30
0.0
 10
48068.578772
 20
63236.903816
 30
0.0
 10
48194.891285
 20
62601.887928
 30
0.0
 10
48617.132029
 20
62179.647184
 30
0.0
  0
SPLINE
  5
1d7
100
AcDbEntity
  8
0
 62
7
100
AcDbSpline
 70
8
 71
3
 72
8
 73
4
 74
0
 40
0
 40
0
 40
0
 40
0
 40
1
 40
1
 40
1
 40
1
 10
48617.132029
 20
62179.647184
 30
0.0
 10
49039.372773
 20
61757.406440
 30
0.0
 10
49674.388661
 20
61631.093927
 30
0.0
 10
50226.072779
 20
61859.608970
 30
0.0
  0
SPLINE
  5
1d8
100
AcDbEntity
  8
0
 62
7
100
AcDbSpline
 70
8
 71
3
 72
8
 73
4
 74
0
 40
0
 40
0
 40
0
 40
0
 40
1
 40
1
 40
1
 40
1
 10
50226.072779
 20
61859.608970
 30
0.0
 10
50777.756897
 20
62088.124014
 30
0.0
 10
51137.464503
 20
62626.464490
 30
0.0
 10
51137.464503
 20
63223.603076
 30
0.0
  0
SPLINE
  5
1d9
100
AcDbEntity
  8
0
 62
7
100
AcDbSpline
 70
8
 71
3
 72
8
 73
4
 74
0
 40
0
 40
0
 40
0
 40
0
 40
1
 40
1
 40
1
 40
1
 10
51137.464503
 20
63223.603076
 30
0.0
 10
51137.464503
 20
63615.162491
 30
0.0
 10
50981.918131
 20
63990.684651
 30
0.0
 10
50705.043814
 20
64267.558969
 30
0.0
  0
SPLINE
  5
1da
100
AcDbEntity
  8
0
 62
7
100
AcDbSpline
 70
8
 71
3
 72
8
 73
4
 74
0
 40
0
 40
0
 40
0
 40
0
 40
1
 40
1
 40
1
 40
1
 10
50705.043814
 20
64267.558969
 30
0.0
 10
50428.169496
 20
64544.433286
 30
0.0
 10
50052.647336
 20
64699.979658
 30
0.0
 10
49661.087921
 20
64699.979658
 30
0.0
  0
LWPOLYLINE
  5
1db
100
AcDbEntity
  8
0
 62
7
100
AcDbPolyline
 90
1
 70
1
 10
104778.970295
 20
53610.986601
 30
0.0
  0
SPLINE
  5
1dc
100
AcDbEntity
  8
0
 62
7
100
AcDbSpline
 70
8
 71
3
 72
8
 73
4
 74
0
 40
0
 40
0
 40
0
 40
0
 40
1
 40
1
 40
1
 40
1
 10
149033.957749
 20
65083.423349
 30
0.0
 10
148483.961732
 20
65083.423349
 30
0.0
 10
147988.121864
 20
64752.113742
 30
0.0
 10
147777.647500
 20
64243.983678
 30
0.0
  0
SPLINE
  5
1dd
100
AcDbEntity
  8
0
 62
7
100
AcDbSpline
 70
8
 71
3
 72
8
 73
4
 74
0
 40
0
 40
0
 40
0
 40
0
 40
1
 40
1
 40
1
 40
1
 10
147777.647500
 20
64243.983678
 30
0.0
 10
147567.173137
 20
63735.853615
 30
0.0
 10
147683.513599
 20
63150.970612
 30
0.0
 10
148072.419513
 20
62762.064698
 30
0.0
  0
SPLINE
  5
1de
100
AcDbEntity
  8
0
 62
7
100
AcDbSpline
 70
8
 71
3
 72
8
 73
4
 74
0
 40
0
 40
0
 40
0
 40
0
 40
1
 40
1
 40
1
 40
1
 10
148072.419513
 20
62762.064698
 30
0.0
 10
148461.325427
 20
62373.158785
 30
0.0
 10
149046.208429
 20
62256.818322
 30
0.0
 10
149554.338493
 20
62467.292686
 30
0.0
  0
SPLINE
  5
1df
100
AcDbEntity
  8
0
 62
7
100
AcDbSpline
 70
8
 71
3
 72
8
 73
4
 74
0
 40
0
 40
0
 40
0
 40
0
 40
1
 40
1
 40
1
 40
1
 10
149554.338493
 20
62467.292686
 30
0.0
 10
150062.468556
 20
62677.767049
 30
0.0
 10
150393.778164
 20
63173.606917
 30
0.0
 10
150393.778164
 20
63723.602935
 30
0.0
  0
SPLINE
  5
1e0
100
AcDbEntity
  8
0
 62
7
100
AcDbSpline
 70
8
 71
3
 72
8
 73
4
 74
0
 40
0
 40
0
 40
0
 40
0
 40
1
 40
1
 40
1
 40
1
 10
150393.778164
 20
63723.602935
 30
0.0
 10
150393.778164
 20
64084.249732
 30
0.0
 10
150250.511781
 20
64430.125375
 30
0.0
 10
149995.495986
 20
64685.141171
 30
0.0
  0
SPLINE
  5
1e1
100
AcDbEntity
  8
0
 62
7
100
AcDbSpline
 70
8
 71
3
 72
8
 73
4
 74
0
 40
0
 40
0
 40
0
 40
0
 40
1
 40
1
 40
1
 40
1
 10
149995.495986
 20
64685.141171
 30
0.0
 10
149740.480190
 20
64940.156967
 30
0.0
 10
149394.604546
 20
65083.423349
 30
0.0
 10
149033.957749
 20
65083.423349
 30
0.0
  0
LWPOLYLINE
  5
1e2
100
AcDbEntity
  8
0
 62
7
100
AcDbPolyline
 90
1
 70
1
 10
49661.087921
 20
64699.979658
 30
0.0
  0
SPLINE
  5
1e3
100
AcDbEntity
  8
0
 62
7
100
AcDbSpline
 70
8
 71
3
 72
8
 73
4
 74
0
 40
0
 40
0
 40
0
 40
0
 40
1
 40
1
 40
1
 40
1
 10
141505.959883
 20
65083.423349
 30
0.0
 10
140955.963866
 20
65083.423349
 30
0.0
 10
140460.123998
 20
64752.113742
 30
0.0
 10
140249.649635
 20
64243.983678
 30
0.0
  0
SPLINE
  5
1e4
100
AcDbEntity
  8
0
 62
7
100
AcDbSpline
 70
8
 71
3
 72
8
 73
4
 74
0
 40
0
 40
0
 40
0
 40
0
 40
1
 40
1
 40
1
 40
1
 10
140249.649635
 20
64243.983678
 30
0.0
 10
140039.175271
 20
63735.853615
 30
0.0
 10
140155.515734
 20
63150.970612
 30
0.0
 10
140544.421647
 20
62762.064698
 30
0.0
  0
SPLINE
  5
1e5
100
AcDbEntity
  8
0
 62
7
100
AcDbSpline
 70
8
 71
3
 72
8
 73
4
 74
0
 40
0
 40
0
 40
0
 40
0
 40
1
 40
1
 40
1
 40
1
 10
140544.421647
 20
62762.064698
 30
0.0
 10
140933.327561
 20
62373.158785
 30
0.0
 10
141518.210564
 20
62256.818322
 30
0.0
 10
142026.340627
 20
62467.292686
 30
0.0
  0
SPLINE
  5
1e6
100
AcDbEntity
  8
0
 62
7
100
AcDbSpline
 70
8
 71
3
 72
8
 73
4
 74
0
 40
0
 40
0
 40
0
 40
0
 40
1
 40
1
 40
1
 40
1
 10
142026.340627
 20
62467.292686
 30
0.0
 10
142534.470691
 20
62677.767049
 30
0.0
 10
142865.780298
 20
63173.606917
 30
0.0
 10
142865.780298
 20
63723.602935
 30
0.0
  0
SPLINE
  5
1e7
100
AcDbEntity
  8
0
 62
7
100
AcDbSpline
 70
8
 71
3
 72
8
 73
4
 74
0
 40
0
 40
0
 40
0
 40
0
 40
1
 40
1
 40
1
 40
1
 10
142865.780298
 20
63723.602935
 30
0.0
 10
142865.780298
 20
64084.249732
 30
0.0
 10
142722.513916
 20
64430.125375
 30
0.0
 10
142467.498120
 20
64685.141171
 30
0.0
  0
SPLINE
  5
1e8
100
AcDbEntity
  8
0
 62
7
100
AcDbSpline
 70
8
 71
3
 72
8
 73
4
 74
0
 40
0
 40
0
 40
0
 40
0
 40
1
 40
1
 40
1
 40
1
 10
142467.498120
 20
64685.141171
 30
0.0
 10
142212.482324
 20
64940.156967
 30
0.0
 10
141866.606681
 20
65083.423349
 30
0.0
 10
141505.959883
 20
65083.423349
 30
0.0
  0
LWPOLYLINE
  5
1e9
100
AcDbEntity
  8
0
 62
7
100
AcDbPolyline
 90
1
 70
1
 10
149033.957749
 20
65083.423349
 30
0.0
  0
SPLINE
  5
1ea
100
AcDbEntity
  8
0
 62
7
100
AcDbSpline
 70
8
 71
3
 72
8
 73
4
 74
0
 40
0
 40
0
 40
0
 40
0
 40
1
 40
1
 40
1
 40
1
 10
133978.962017
 20
65083.423349
 30
0.0
 10
133428.966000
 20
65083.423349
 30
0.0
 10
132933.126132
 20
64752.113742
 30
0.0
 10
132722.651769
 20
64243.983678
 30
0.0
  0
SPLINE
  5
1eb
100
AcDbEntity
  8
0
 62
7
100
AcDbSpline
 70
8
 71
3
 72
8
 73
4
 74
0
 40
0
 40
0
 40
0
 40
0
 40
1
 40
1
 40
1
 40
1
 10
132722.651769
 20
64243.983678
 30
0.0
 10
132512.177405
 20
63735.853615
 30
0.0
 10
132628.517868
 20
63150.970612
 30
0.0
 10
133017.423781
 20
62762.064698
 30
0.0
  0
SPLINE
  5
1ec
100
AcDbEntity
  8
0
 62
7
100
AcDbSpline
 70
8
 71
3
 72
8
 73
4
 74
0
 40
0
 40
0
 40
0
 40
0
 40
1
 40
1
 40
1
 40
1
 10
133017.423781
 20
62762.064698
 30
0.0
 10
133406.329695
 20
62373.158785
 30
0.0
 10
133991.212698
 20
62256.818322
 30
0.0
 10
134499.342761
 20
62467.292686
 30
0.0
  0
SPLINE
  5
1ed
100
AcDbEntity
  8
0
 62
7
100
AcDbSpline
 70
8
 71
3
 72
8
 73
4
 74
0
 40
0
 40
0
 40
0
 40
0
 40
1
 40
1
 40
1
 40
1
 10
134499.342761
 20
62467.292686
 30
0.0
 10
135007.472824
 20
62677.767049
 30
0.0
 10
135338.782432
 20
63173.606917
 30
0.0
 10
135338.782432
 20
63723.602935
 30
0.0
  0
SPLINE
  5
1ee
100
AcDbEntity
  8
0
 62
7
100
AcDbSpline
 70
8
 71
3
 72
8
 73
4
 74
0
 40
0
 40
0
 40
0
 40
0
 40
1
 40
1
 40
1
 40
1
 10
135338.782432
 20
63723.602935
 30
0.0
 10
135338.782432
 20
64084.249732
 30
0.0
 10
135195.516050
 20
64430.125375
 30
0.0
 10
134940.500254
 20
64685.141171
 30
0.0
  0
SPLINE
  5
1ef
100
AcDbEntity
  8
0
 62
7
100
AcDbSpline
 70
8
 71
3
 72
8
 73
4
 74
0
 40
0
 40
0
 40
0
 40
0
 40
1
 40
1
 40
1
 40
1
 10
134940.500254
 20
64685.141171
 30
0.0
 10
134685.484458
 20
64940.156967
 30
0.0
 10
134339.608814
 20
65083.423349
 30
0.0
 10
133978.962017
 20
65083.423349
 30
0.0
  0
LWPOLYLINE
  5
1f0
100
AcDbEntity
  8
0
 62
7
100
AcDbPolyline
 90
1
 70
1
 10
141505.959883
 20
65083.423349
 30
0.0
  0
SPLINE
  5
1f1
100
AcDbEntity
  8
0
 62
7
100
AcDbSpline
 70
8
 71
3
 72
8
 73
4
 74
0
 40
0
 40
0
 40
0
 40
0
 40
1
 40
1
 40
1
 40
1
 10
126450.964152
 20
65083.423349
 30
0.0
 10
125900.968134
 20
65083.423349
 30
0.0
 10
125405.128266
 20
64752.113742
 30
0.0
 10
125194.653903
 20
64243.983678
 30
0.0
  0
SPLINE
  5
1f2
100
AcDbEntity
  8
0
 62
7
100
AcDbSpline
 70
8
 71
3
 72
8
 73
4
 74
0
 40
0
 40
0
 40
0
 40
0
 40
1
 40
1
 40
1
 40
1
 10
125194.653903
 20
64243.983678
 30
0.0
 10
124984.179539
 20
63735.853615
 30
0.0
 10
125100.520002
 20
63150.970612
 30
0.0
 10
125489.425915
 20
62762.064698
 30
0.0
  0
SPLINE
  5
1f3
100
AcDbEntity
  8
0
 62
7
100
AcDbSpline
 70
8
 71
3
 72
8
 73
4
 74
0
 40
0
 40
0
 40
0
 40
0
 40
1
 40
1
 40
1
 40
1
 10
125489.425915
 20
62762.064698
 30
0.0
 10
125878.331829
 20
62373.158785
 30
0.0
 10
126463.214832
 20
62256.818322
 30
0.0
 10
126971.344895
 20
62467.292686
 30
0.0
  0
SPLINE
  5
1f4
100
AcDbEntity
  8
0
 62
7
100
AcDbSpline
 70
8
 71
3
 72
8
 73
4
 74
0
 40
0
 40
0
 40
0
 40
0
 40
1
 40
1
 40
1
 40
1
 10
126971.344895
 20
62467.292686
 30
0.0
 10
127479.474959
 20
62677.767049
 30
0.0
 10
127810.784566
 20
63173.606917
 30
0.0
 10
127810.784566
 20
63723.602935
 30
0.0
  0
SPLINE
  5
1f5
100
AcDbEntity
  8
0
 62
7
100
AcDbSpline
 70
8
 71
3
 72
8
 73
4
 74
0
 40
0
 40
0
 40
0
 40
0
 40
1
 40
1
 40
1
 40
1
 10
127810.784566
 20
63723.602935
 30
0.0
 10
127810.784566
 20
64084.249732
 30
0.0
 10
127667.518184
 20
64430.125375
 30
0.0
 10
127412.502388
 20
64685.141171
 30
0.0
  0
SPLINE
  5
1f6
100
AcDbEntity
  8
0
 62
7
100
AcDbSpline
 70
8
 71
3
 72
8
 73
4
 74
0
 40
0
 40
0
 40
0
 40
0
 40
1
 40
1
 40
1
 40
1
 10
127412.502388
 20
64685.141171
 30
0.0
 10
127157.486592
 20
64940.156967
 30
0.0
 10
126811.610949
 20
65083.423349
 30
0.0
 10
126450.964152
 20
65083.423349
 30
0.0
  0
LWPOLYLINE
  5
1f7
100
AcDbEntity
  8
0
 62
7
100
AcDbPolyline
 90
1
 70
1
 10
133978.962017
 20
65083.423349
 30
0.0
  0
SPLINE
  5
1f8
100
AcDbEntity
  8
0
 62
7
100
AcDbSpline
 70
8
 71
3
 72
8
 73
4
 74
0
 40
0
 40
0
 40
0
 40
0
 40
1
 40
1
 40
1
 40
1
 10
118923.966285
 20
65083.423349
 30
0.0
 10
118373.970268
 20
65083.423349
 30
0.0
 10
117878.130400
 20
64752.113742
 30
0.0
 10
117667.656037
 20
64243.983678
 30
0.0
  0
SPLINE
  5
1f9
100
AcDbEntity
  8
0
 62
7
100
AcDbSpline
 70
8
 71
3
 72
8
 73
4
 74
0
 40
0
 40
0
 40
0
 40
0
 40
1
 40
1
 40
1
 40
1
 10
117667.656037
 20
64243.983678
 30
0.0
 10
117457.181673
 20
63735.853615
 30
0.0
 10
117573.522136
 20
63150.970612
 30
0.0
 10
117962.428049
 20
62762.064698
 30
0.0
  0
SPLINE
  5
1fa
100
AcDbEntity
  8
0
 62
7
100
AcDbSpline
 70
8
 71
3
 72
8
 73
4
 74
0
 40
0
 40
0
 40
0
 40
0
 40
1
 40
1
 40
1
 40
1
 10
117962.428049
 20
62762.064698
 30
0.0
 10
118351.333963
 20
62373.158785
 30
0.0
 10
118936.216966
 20
62256.818322
 30
0.0
 10
119444.347029
 20
62467.292686
 30
0.0
  0
SPLINE
  5
1fb
100
AcDbEntity
  8
0
 62
7
100
AcDbSpline
 70
8
 71
3
 72
8
 73
4
 74
0
 40
0
 40
0
 40
0
 40
0
 40
1
 40
1
 40
1
 40
1
 10
119444.347029
 20
62467.292686
 30
0.0
 10
119952.477092
 20
62677.767049
 30
0.0
 10
120283.786700
 20
63173.606917
 30
0.0
 10
120283.786700
 20
63723.602935
 30
0.0
  0
SPLINE
  5
1fc
100
AcDbEntity
  8
0
 62
7
100
AcDbSpline
 70
8
 71
3
 72
8
 73
4
 74
0
 40
0
 40
0
 40
0
 40
0
 40
1
 40
1
 40
1
 40
1
 10
120283.786700
 20
63723.602935
 30
0.0
 10
120283.786700
 20
64084.249732
 30
0.0
 10
120140.520318
 20
64430.125375
 30
0.0
 10
119885.504522
 20
64685.141171
 30
0.0
  0
SPLINE
  5
1fd
100
AcDbEntity
  8
0
 62
7
100
AcDbSpline
 70
8
 71
3
 72
8
 73
4
 74
0
 40
0
 40
0
 40
0
 40
0
 40
1
 40
1
 40
1
 40
1
 10
119885.504522
 20
64685.141171
 30
0.0
 10
119630.488726
 20
64940.156967
 30
0.0
 10
119284.613083
 20
65083.423349
 30
0.0
 10
118923.966285
 20
65083.423349
 30
0.0
  0
LWPOLYLINE
  5
1fe
100
AcDbEntity
  8
0
 62
7
100
AcDbPolyline
 90
1
 70
1
 10
126450.964152
 20
65083.423349
 30
0.0
  0
SPLINE
  5
1ff
100
AcDbEntity
  8
0
 62
7
100
AcDbSpline
 70
8
 71
3
 72
8
 73
4
 74
0
 40
0
 40
0
 40
0
 40
0
 40
1
 40
1
 40
1
 40
1
 10
111395.968420
 20
65083.423349
 30
0.0
 10
110845.972402
 20
65083.423349
 30
0.0
 10
110350.132534
 20
64752.113742
 30
0.0
 10
110139.658171
 20
64243.983678
 30
0.0
  0
SPLINE
  5
200
100
AcDbEntity
  8
0
 62
7
100
AcDbSpline
 70
8
 71
3
 72
8
 73
4
 74
0
 40
0
 40
0
 40
0
 40
0
 40
1
 40
1
 40
1
 40
1
 10
110139.658171
 20
64243.983678
 30
0.0
 10
109929.183807
 20
63735.853615
 30
0.0
 10
110045.524270
 20
63150.970612
 30
0.0
 10
110434.430183
 20
62762.064698
 30
0.0
  0
SPLINE
  5
201
100
AcDbEntity
  8
0
 62
7
100
AcDbSpline
 70
8
 71
3
 72
8
 73
4
 74
0
 40
0
 40
0
 40
0
 40
0
 40
1
 40
1
 40
1
 40
1
 10
110434.430183
 20
62762.064698
 30
0.0
 10
110823.336097
 20
62373.158785
 30
0.0
 10
111408.219100
 20
62256.818322
 30
0.0
 10
111916.349163
 20
62467.292686
 30
0.0
  0
SPLINE
  5
202
100
AcDbEntity
  8
0
 62
7
100
AcDbSpline
 70
8
 71
3
 72
8
 73
4
 74
0
 40
0
 40
0
 40
0
 40
0
 40
1
 40
1
 40
1
 40
1
 10
111916.349163
 20
62467.292686
 30
0.0
 10
112424.479227
 20
62677.767049
 30
0.0
 10
112755.788834
 20
63173.606917
 30
0.0
 10
112755.788834
 20
63723.602935
 30
0.0
  0
SPLINE
  5
203
100
AcDbEntity
  8
0
 62
7
100
AcDbSpline
 70
8
 71
3
 72
8
 73
4
 74
0
 40
0
 40
0
 40
0
 40
0
 40
1
 40
1
 40
1
 40
1
 10
112755.788834
 20
63723.602935
 30
0.0
 10
112755.788834
 20
64084.249732
 30
0.0
 10
112612.522452
 20
64430.125375
 30
0.0
 10
112357.506656
 20
64685.141171
 30
0.0
  0
SPLINE
  5
204
100
AcDbEntity
  8
0
 62
7
100
AcDbSpline
 70
8
 71
3
 72
8
 73
4
 74
0
 40
0
 40
0
 40
0
 40
0
 40
1
 40
1
 40
1
 40
1
 10
112357.506656
 20
64685.141171
 30
0.0
 10
112102.490860
 20
64940.156967
 30
0.0
 10
111756.615217
 20
65083.423349
 30
0.0
 10
111395.968420
 20
65083.423349
 30
0.0
  0
LWPOLYLINE
  5
205
100
AcDbEntity
  8
0
 62
7
100
AcDbPolyline
 90
1
 70
1
 10
118923.966285
 20
65083.423349
 30
0.0
  0
SPLINE
  5
206
100
AcDbEntity
  8
0
 62
7
100
AcDbSpline
 70
8
 71
3
 72
8
 73
4
 74
0
 40
0
 40
0
 40
0
 40
0
 40
1
 40
1
 40
1
 40
1
 10
41947.789108
 20
65026.733565
 30
0.0
 10
41397.793050
 20
65026.733565
 30
0.0
 10
40901.953146
 20
64695.423933
 30
0.0
 10
40691.478767
 20
64187.293833
 30
0.0
  0
SPLINE
  5
207
100
AcDbEntity
  8
0
 62
7
100
AcDbSpline
 70
8
 71
3
 72
8
 73
4
 74
0
 40
0
 40
0
 40
0
 40
0
 40
1
 40
1
 40
1
 40
1
 10
40691.478767
 20
64187.293833
 30
0.0
 10
40481.004387
 20
63679.163732
 30
0.0
 10
40597.344859
 20
63094.280686
 30
0.0
 10
40986.250801
 20
62705.374744
 30
0.0
  0
SPLINE
  5
208
100
AcDbEntity
  8
0
 62
7
100
AcDbSpline
 70
8
 71
3
 72
8
 73
4
 74
0
 40
0
 40
0
 40
0
 40
0
 40
1
 40
1
 40
1
 40
1
 10
40986.250801
 20
62705.374744
 30
0.0
 10
41375.156743
 20
62316.468801
 30
0.0
 10
41960.039789
 20
62200.128330
 30
0.0
 10
42468.169890
 20
62410.602709
 30
0.0
  0
SPLINE
  5
209
100
AcDbEntity
  8
0
 62
7
100
AcDbSpline
 70
8
 71
3
 72
8
 73
4
 74
0
 40
0
 40
0
 40
0
 40
0
 40
1
 40
1
 40
1
 40
1
 10
42468.169890
 20
62410.602709
 30
0.0
 10
42976.299991
 20
62621.077089
 30
0.0
 10
43307.609622
 20
63116.916993
 30
0.0
 10
43307.609622
 20
63666.913051
 30
0.0
  0
SPLINE
  5
20a
100
AcDbEntity
  8
0
 62
7
100
AcDbSpline
 70
8
 71
3
 72
8
 73
4
 74
0
 40
0
 40
0
 40
0
 40
0
 40
1
 40
1
 40
1
 40
1
 10
43307.609622
 20
63666.913051
 30
0.0
 10
43307.609622
 20
64027.559874
 30
0.0
 10
43164.343230
 20
64373.435543
 30
0.0
 10
42909.327415
 20
64628.451358
 30
0.0
  0
SPLINE
  5
20b
100
AcDbEntity
  8
0
 62
7
100
AcDbSpline
 70
8
 71
3
 72
8
 73
4
 74
0
 40
0
 40
0
 40
0
 40
0
 40
1
 40
1
 40
1
 40
1
 10
42909.327415
 20
64628.451358
 30
0.0
 10
42654.311600
 20
64883.467172
 30
0.0
 10
42308.435932
 20
65026.733565
 30
0.0
 10
41947.789108
 20
65026.733565
 30
0.0
  0
LWPOLYLINE
  5
20c
100
AcDbEntity
  8
0
 62
7
100
AcDbPolyline
 90
1
 70
1
 10
111395.968420
 20
65083.423349
 30
0.0
  0
SPLINE
  5
20d
100
AcDbEntity
  8
0
 62
7
100
AcDbSpline
 70
8
 71
3
 72
8
 73
4
 74
0
 40
0
 40
0
 40
0
 40
0
 40
1
 40
1
 40
1
 40
1
 10
34407.791245
 20
65026.733465
 30
0.0
 10
33857.795228
 20
65026.733465
 30
0.0
 10
33361.955360
 20
64695.423858
 30
0.0
 10
33151.480997
 20
64187.293794
 30
0.0
  0
SPLINE
  5
20e
100
AcDbEntity
  8
0
 62
7
100
AcDbSpline
 70
8
 71
3
 72
8
 73
4
 74
0
 40
0
 40
0
 40
0
 40
0
 40
1
 40
1
 40
1
 40
1
 10
33151.480997
 20
64187.293794
 30
0.0
 10
32941.006633
 20
63679.163731
 30
0.0
 10
33057.347096
 20
63094.280728
 30
0.0
 10
33446.253009
 20
62705.374814
 30
0.0
  0
SPLINE
  5
20f
100
AcDbEntity
  8
0
 62
7
100
AcDbSpline
 70
8
 71
3
 72
8
 73
4
 74
0
 40
0
 40
0
 40
0
 40
0
 40
1
 40
1
 40
1
 40
1
 10
33446.253009
 20
62705.374814
 30
0.0
 10
33835.158923
 20
62316.468901
 30
0.0
 10
34420.041926
 20
62200.128438
 30
0.0
 10
34928.171989
 20
62410.602802
 30
0.0
  0
SPLINE
  5
210
100
AcDbEntity
  8
0
 62
7
100
AcDbSpline
 70
8
 71
3
 72
8
 73
4
 74
0
 40
0
 40
0
 40
0
 40
0
 40
1
 40
1
 40
1
 40
1
 10
34928.171989
 20
62410.602802
 30
0.0
 10
35436.302053
 20
62621.077165
 30
0.0
 10
35767.611660
 20
63116.917033
 30
0.0
 10
35767.611660
 20
63666.913051
 30
0.0
  0
SPLINE
  5
211
100
AcDbEntity
  8
0
 62
7
100
AcDbSpline
 70
8
 71
3
 72
8
 73
4
 74
0
 40
0
 40
0
 40
0
 40
0
 40
1
 40
1
 40
1
 40
1
 10
35767.611660
 20
63666.913051
 30
0.0
 10
35767.611660
 20
64027.559848
 30
0.0
 10
35624.345278
 20
64373.435491
 30
0.0
 10
35369.329482
 20
64628.451287
 30
0.0
  0
SPLINE
  5
212
100
AcDbEntity
  8
0
 62
7
100
AcDbSpline
 70
8
 71
3
 72
8
 73
4
 74
0
 40
0
 40
0
 40
0
 40
0
 40
1
 40
1
 40
1
 40
1
 10
35369.329482
 20
64628.451287
 30
0.0
 10
35114.313686
 20
64883.467083
 30
0.0
 10
34768.438043
 20
65026.733465
 30
0.0
 10
34407.791245
 20
65026.733465
 30
0.0
  0
LWPOLYLINE
  5
213
100
AcDbEntity
  8
0
 62
7
100
AcDbPolyline
 90
1
 70
1
 10
41947.789108
 20
65026.733565
 30
0.0
  0
SPLINE
  5
214
100
AcDbEntity
  8
0
 62
7
100
AcDbSpline
 70
8
 71
3
 72
8
 73
4
 74
0
 40
0
 40
0
 40
0
 40
0
 40
1
 40
1
 40
1
 40
1
 10
26867.793383
 20
65026.733465
 30
0.0
 10
26317.797366
 20
65026.733465
 30
0.0
 10
25821.957498
 20
64695.423858
 30
0.0
 10
25611.483134
 20
64187.293794
 30
0.0
  0
SPLINE
  5
215
100
AcDbEntity
  8
0
 62
7
100
AcDbSpline
 70
8
 71
3
 72
8
 73
4
 74
0
 40
0
 40
0
 40
0
 40
0
 40
1
 40
1
 40
1
 40
1
 10
25611.483134
 20
64187.293794
 30
0.0
 10
25401.008770
 20
63679.163731
 30
0.0
 10
25517.349233
 20
63094.280728
 30
0.0
 10
25906.255147
 20
62705.374814
 30
0.0
  0
SPLINE
  5
216
100
AcDbEntity
  8
0
 62
7
100
AcDbSpline
 70
8
 71
3
 72
8
 73
4
 74
0
 40
0
 40
0
 40
0
 40
0
 40
1
 40
1
 40
1
 40
1
 10
25906.255147
 20
62705.374814
 30
0.0
 10
26295.161060
 20
62316.468901
 30
0.0
 10
26880.044063
 20
62200.128438
 30
0.0
 10
27388.174127
 20
62410.602802
 30
0.0
  0
SPLINE
  5
217
100
AcDbEntity
  8
0
 62
7
100
AcDbSpline
 70
8
 71
3
 72
8
 73
4
 74
0
 40
0
 40
0
 40
0
 40
0
 40
1
 40
1
 40
1
 40
1
 10
27388.174127
 20
62410.602802
 30
0.0
 10
27896.304190
 20
62621.077165
 30
0.0
 10
28227.613798
 20
63116.917033
 30
0.0
 10
28227.613798
 20
63666.913051
 30
0.0
  0
SPLINE
  5
218
100
AcDbEntity
  8
0
 62
7
100
AcDbSpline
 70
8
 71
3
 72
8
 73
4
 74
0
 40
0
 40
0
 40
0
 40
0
 40
1
 40
1
 40
1
 40
1
 10
28227.613798
 20
63666.913051
 30
0.0
 10
28227.613798
 20
64027.559848
 30
0.0
 10
28084.347415
 20
64373.435491
 30
0.0
 10
27829.331619
 20
64628.451287
 30
0.0
  0
SPLINE
  5
219
100
AcDbEntity
  8
0
 62
7
100
AcDbSpline
 70
8
 71
3
 72
8
 73
4
 74
0
 40
0
 40
0
 40
0
 40
0
 40
1
 40
1
 40
1
 40
1
 10
27829.331619
 20
64628.451287
 30
0.0
 10
27574.315823
 20
64883.467083
 30
0.0
 10
27228.440180
 20
65026.733465
 30
0.0
 10
26867.793383
 20
65026.733465
 30
0.0
  0
LWPOLYLINE
  5
21a
100
AcDbEntity
  8
0
 62
7
100
AcDbPolyline
 90
1
 70
1
 10
34407.791245
 20
65026.733465
 30
0.0
  0
SPLINE
  5
21b
100
AcDbEntity
  8
0
 62
7
100
AcDbSpline
 70
8
 71
3
 72
8
 73
4
 74
0
 40
0
 40
0
 40
0
 40
0
 40
1
 40
1
 40
1
 40
1
 10
19327.795521
 20
65026.733465
 30
0.0
 10
18576.787443
 20
65026.733465
 30
0.0
 10
17967.975106
 20
64417.921128
 30
0.0
 10
17967.975106
 20
63666.913051
 30
0.0
  0
SPLINE
  5
21c
100
AcDbEntity
  8
0
 62
7
100
AcDbSpline
 70
8
 71
3
 72
8
 73
4
 74
0
 40
0
 40
0
 40
0
 40
0
 40
1
 40
1
 40
1
 40
1
 10
17967.975106
 20
63666.913051
 30
0.0
 10
17967.975106
 20
62915.904973
 30
0.0
 10
18576.787443
 20
62307.092636
 30
0.0
 10
19327.795521
 20
62307.092636
 30
0.0
  0
SPLINE
  5
21d
100
AcDbEntity
  8
0
 62
7
100
AcDbSpline
 70
8
 71
3
 72
8
 73
4
 74
0
 40
0
 40
0
 40
0
 40
0
 40
1
 40
1
 40
1
 40
1
 10
19327.795521
 20
62307.092636
 30
0.0
 10
20078.803598
 20
62307.092636
 30
0.0
 10
20687.615935
 20
62915.904973
 30
0.0
 10
20687.615935
 20
63666.913051
 30
0.0
  0
SPLINE
  5
21e
100
AcDbEntity
  8
0
 62
7
100
AcDbSpline
 70
8
 71
3
 72
8
 73
4
 74
0
 40
0
 40
0
 40
0
 40
0
 40
1
 40
1
 40
1
 40
1
 10
20687.615935
 20
63666.913051
 30
0.0
 10
20687.615935
 20
64027.559848
 30
0.0
 10
20544.349553
 20
64373.435491
 30
0.0
 10
20289.333757
 20
64628.451287
 30
0.0
  0
SPLINE
  5
21f
100
AcDbEntity
  8
0
 62
7
100
AcDbSpline
 70
8
 71
3
 72
8
 73
4
 74
0
 40
0
 40
0
 40
0
 40
0
 40
1
 40
1
 40
1
 40
1
 10
20289.333757
 20
64628.451287
 30
0.0
 10
20034.317961
 20
64883.467083
 30
0.0
 10
19688.442318
 20
65026.733465
 30
0.0
 10
19327.795521
 20
65026.733465
 30
0.0
  0
LWPOLYLINE
  5
220
100
AcDbEntity
  8
0
 62
7
100
AcDbPolyline
 90
1
 70
1
 10
26867.793383
 20
65026.733465
 30
0.0
  0
SPLINE
  5
221
100
AcDbEntity
  8
0
 62
7
100
AcDbSpline
 70
8
 71
3
 72
8
 73
4
 74
0
 40
0
 40
0
 40
0
 40
0
 40
1
 40
1
 40
1
 40
1
 10
11787.796658
 20
65026.733465
 30
0.0
 10
11237.800641
 20
65026.733465
 30
0.0
 10
10741.960773
 20
64695.423858
 30
0.0
 10
10531.486409
 20
64187.293794
 30
0.0
  0
SPLINE
  5
222
100
AcDbEntity
  8
0
 62
7
100
AcDbSpline
 70
8
 71
3
 72
8
 73
4
 74
0
 40
0
 40
0
 40
0
 40
0
 40
1
 40
1
 40
1
 40
1
 10
10531.486409
 20
64187.293794
 30
0.0
 10
10321.012046
 20
63679.163731
 30
0.0
 10
10437.352508
 20
63094.280728
 30
0.0
 10
10826.258422
 20
62705.374814
 30
0.0
  0
SPLINE
  5
223
100
AcDbEntity
  8
0
 62
7
100
AcDbSpline
 70
8
 71
3
 72
8
 73
4
 74
0
 40
0
 40
0
 40
0
 40
0
 40
1
 40
1
 40
1
 40
1
 10
10826.258422
 20
62705.374814
 30
0.0
 10
11215.164335
 20
62316.468901
 30
0.0
 10
11800.047338
 20
62200.128438
 30
0.0
 10
12308.177402
 20
62410.602802
 30
0.0
  0
SPLINE
  5
224
100
AcDbEntity
  8
0
 62
7
100
AcDbSpline
 70
8
 71
3
 72
8
 73
4
 74
0
 40
0
 40
0
 40
0
 40
0
 40
1
 40
1
 40
1
 40
1
 10
12308.177402
 20
62410.602802
 30
0.0
 10
12816.307465
 20
62621.077165
 30
0.0
 10
13147.617073
 20
63116.917033
 30
0.0
 10
13147.617073
 20
63666.913051
 30
0.0
  0
SPLINE
  5
225
100
AcDbEntity
  8
0
 62
7
100
AcDbSpline
 70
8
 71
3
 72
8
 73
4
 74
0
 40
0
 40
0
 40
0
 40
0
 40
1
 40
1
 40
1
 40
1
 10
13147.617073
 20
63666.913051
 30
0.0
 10
13147.617073
 20
64027.559848
 30
0.0
 10
13004.350690
 20
64373.435491
 30
0.0
 10
12749.334894
 20
64628.451287
 30
0.0
  0
SPLINE
  5
226
100
AcDbEntity
  8
0
 62
7
100
AcDbSpline
 70
8
 71
3
 72
8
 73
4
 74
0
 40
0
 40
0
 40
0
 40
0
 40
1
 40
1
 40
1
 40
1
 10
12749.334894
 20
64628.451287
 30
0.0
 10
12494.319099
 20
64883.467083
 30
0.0
 10
12148.443455
 20
65026.733465
 30
0.0
 10
11787.796658
 20
65026.733465
 30
0.0
  0
LWPOLYLINE
  5
227
100
AcDbEntity
  8
0
 62
7
100
AcDbPolyline
 90
1
 70
1
 10
19327.795521
 20
65026.733465
 30
0.0
  0
SPLINE
  5
228
100
AcDbEntity
  8
0
 62
7
100
AcDbSpline
 70
8
 71
3
 72
8
 73
4
 74
0
 40
0
 40
0
 40
0
 40
0
 40
1
 40
1
 40
1
 40
1
 10
4247.748796
 20
65026.733465
 30
0.0
 10
3697.752778
 20
65026.733465
 30
0.0
 10
3201.912911
 20
64695.423858
 30
0.0
 10
2991.438547
 20
64187.293794
 30
0.0
  0
SPLINE
  5
229
100
AcDbEntity
  8
0
 62
7
100
AcDbSpline
 70
8
 71
3
 72
8
 73
4
 74
0
 40
0
 40
0
 40
0
 40
0
 40
1
 40
1
 40
1
 40
1
 10
2991.438547
 20
64187.293794
 30
0.0
 10
2780.964183
 20
63679.163731
 30
0.0
 10
2897.304646
 20
63094.280728
 30
0.0
 10
3286.210559
 20
62705.374814
 30
0.0
  0
SPLINE
  5
22a
100
AcDbEntity
  8
0
 62
7
100
AcDbSpline
 70
8
 71
3
 72
8
 73
4
 74
0
 40
0
 40
0
 40
0
 40
0
 40
1
 40
1
 40
1
 40
1
 10
3286.210559
 20
62705.374814
 30
0.0
 10
3675.116473
 20
62316.468901
 30
0.0
 10
4259.999476
 20
62200.128438
 30
0.0
 10
4768.129539
 20
62410.602802
 30
0.0
  0
SPLINE
  5
22b
100
AcDbEntity
  8
0
 62
7
100
AcDbSpline
 70
8
 71
3
 72
8
 73
4
 74
0
 40
0
 40
0
 40
0
 40
0
 40
1
 40
1
 40
1
 40
1
 10
4768.129539
 20
62410.602802
 30
0.0
 10
5276.259603
 20
62621.077165
 30
0.0
 10
5607.569210
 20
63116.917033
 30
0.0
 10
5607.569210
 20
63666.913051
 30
0.0
  0
SPLINE
  5
22c
100
AcDbEntity
  8
0
 62
7
100
AcDbSpline
 70
8
 71
3
 72
8
 73
4
 74
0
 40
0
 40
0
 40
0
 40
0
 40
1
 40
1
 40
1
 40
1
 10
5607.569210
 20
63666.913051
 30
0.0
 10
5607.569210
 20
64417.921128
 30
0.0
 10
4998.756873
 20
65026.733465
 30
0.0
 10
4247.748796
 20
65026.733465
 30
0.0
  0
LWPOLYLINE
  5
22d
100
AcDbEntity
  8
0
 62
7
100
AcDbPolyline
 90
1
 70
1
 10
11787.796658
 20
65026.733465
 30
0.0
  0
SPLINE
  5
22e
100
AcDbEntity
  8
0
 62
7
100
AcDbSpline
 70
8
 71
3
 72
8
 73
4
 74
0
 40
0
 40
0
 40
0
 40
0
 40
1
 40
1
 40
1
 40
1
 10
112298.968164
 20
47449.587348
 30
0.0
 10
111748.972146
 20
47449.587348
 30
0.0
 10
111253.132278
 20
47118.277741
 30
0.0
 10
111042.657915
 20
46610.147677
 30
0.0
  0
SPLINE
  5
22f
100
AcDbEntity
  8
0
 62
7
100
AcDbSpline
 70
8
 71
3
 72
8
 73
4
 74
0
 40
0
 40
0
 40
0
 40
0
 40
1
 40
1
 40
1
 40
1
 10
111042.657915
 20
46610.147677
 30
0.0
 10
110832.183551
 20
46102.017614
 30
0.0
 10
110948.524014
 20
45517.134611
 30
0.0
 10
111337.429927
 20
45128.228697
 30
0.0
  0
SPLINE
  5
230
100
AcDbEntity
  8
0
 62
7
100
AcDbSpline
 70
8
 71
3
 72
8
 73
4
 74
0
 40
0
 40
0
 40
0
 40
0
 40
1
 40
1
 40
1
 40
1
 10
111337.429927
 20
45128.228697
 30
0.0
 10
111726.335841
 20
44739.322784
 30
0.0
 10
112311.218844
 20
44622.982321
 30
0.0
 10
112819.348907
 20
44833.456685
 30
0.0
  0
SPLINE
  5
231
100
AcDbEntity
  8
0
 62
7
100
AcDbSpline
 70
8
 71
3
 72
8
 73
4
 74
0
 40
0
 40
0
 40
0
 40
0
 40
1
 40
1
 40
1
 40
1
 10
112819.348907
 20
44833.456685
 30
0.0
 10
113327.478971
 20
45043.931049
 30
0.0
 10
113658.788578
 20
45539.770916
 30
0.0
 10
113658.788578
 20
46089.766934
 30
0.0
  0
SPLINE
  5
232
100
AcDbEntity
  8
0
 62
7
100
AcDbSpline
 70
8
 71
3
 72
8
 73
4
 74
0
 40
0
 40
0
 40
0
 40
0
 40
1
 40
1
 40
1
 40
1
 10
113658.788578
 20
46089.766934
 30
0.0
 10
113658.788578
 20
46450.413731
 30
0.0
 10
113515.522196
 20
46796.289374
 30
0.0
 10
113260.506400
 20
47051.305170
 30
0.0
  0
SPLINE
  5
233
100
AcDbEntity
  8
0
 62
7
100
AcDbSpline
 70
8
 71
3
 72
8
 73
4
 74
0
 40
0
 40
0
 40
0
 40
0
 40
1
 40
1
 40
1
 40
1
 10
113260.506400
 20
47051.305170
 30
0.0
 10
113005.490604
 20
47306.320966
 30
0.0
 10
112659.614961
 20
47449.587348
 30
0.0
 10
112298.968164
 20
47449.587348
 30
0.0
  0
LWPOLYLINE
  5
234
100
AcDbEntity
  8
0
 62
7
100
AcDbPolyline
 90
1
 70
1
 10
4247.748796
 20
65026.733465
 30
0.0
  0
SPLINE
  5
235
100
AcDbEntity
  8
0
 62
7
100
AcDbSpline
 70
8
 71
3
 72
8
 73
4
 74
0
 40
0
 40
0
 40
0
 40
0
 40
1
 40
1
 40
1
 40
1
 10
84350.078087
 20
42585.845927
 30
0.0
 10
83752.939501
 20
42585.845927
 30
0.0
 10
83214.599025
 20
42226.138321
 30
0.0
 10
82986.083981
 20
41674.454203
 30
0.0
  0
SPLINE
  5
236
100
AcDbEntity
  8
0
 62
7
100
AcDbSpline
 70
8
 71
3
 72
8
 73
4
 74
0
 40
0
 40
0
 40
0
 40
0
 40
1
 40
1
 40
1
 40
1
 10
82986.083981
 20
41674.454203
 30
0.0
 10
82757.568937
 20
41122.770085
 30
0.0
 10
82883.881451
 20
40487.754197
 30
0.0
 10
83306.122195
 20
40065.513453
 30
0.0
  0
SPLINE
  5
237
100
AcDbEntity
  8
0
 62
7
100
AcDbSpline
 70
8
 71
3
 72
8
 73
4
 74
0
 40
0
 40
0
 40
0
 40
0
 40
1
 40
1
 40
1
 40
1
 10
83306.122195
 20
40065.513453
 30
0.0
 10
83728.362938
 20
39643.272710
 30
0.0
 10
84363.378827
 20
39516.960196
 30
0.0
 10
84915.062945
 20
39745.475240
 30
0.0
  0
SPLINE
  5
238
100
AcDbEntity
  8
0
 62
7
100
AcDbSpline
 70
8
 71
3
 72
8
 73
4
 74
0
 40
0
 40
0
 40
0
 40
0
 40
1
 40
1
 40
1
 40
1
 10
84915.062945
 20
39745.475240
 30
0.0
 10
85466.747063
 20
39973.990284
 30
0.0
 10
85826.454668
 20
40512.330759
 30
0.0
 10
85826.454668
 20
41109.469346
 30
0.0
  0
SPLINE
  5
239
100
AcDbEntity
  8
0
 62
7
100
AcDbSpline
 70
8
 71
3
 72
8
 73
4
 74
0
 40
0
 40
0
 40
0
 40
0
 40
1
 40
1
 40
1
 40
1
 10
85826.454668
 20
41109.469346
 30
0.0
 10
85826.454668
 20
41501.028760
 30
0.0
 10
85670.908297
 20
41876.550921
 30
0.0
 10
85394.033979
 20
42153.425238
 30
0.0
  0
SPLINE
  5
23a
100
AcDbEntity
  8
0
 62
7
100
AcDbSpline
 70
8
 71
3
 72
8
 73
4
 74
0
 40
0
 40
0
 40
0
 40
0
 40
1
 40
1
 40
1
 40
1
 10
85394.033979
 20
42153.425238
 30
0.0
 10
85117.159662
 20
42430.299555
 30
0.0
 10
84741.637502
 20
42585.845927
 30
0.0
 10
84350.078087
 20
42585.845927
 30
0.0
  0
LWPOLYLINE
  5
23b
100
AcDbEntity
  8
0
 62
7
100
AcDbPolyline
 90
1
 70
1
 10
112298.968164
 20
47449.587348
 30
0.0
  0
SPLINE
  5
23c
100
AcDbEntity
  8
0
 62
7
100
AcDbSpline
 70
8
 71
3
 72
8
 73
4
 74
0
 40
0
 40
0
 40
0
 40
0
 40
1
 40
1
 40
1
 40
1
 10
67759.582790
 20
32629.150750
 30
0.0
 10
67162.442991
 20
32629.150750
 30
0.0
 10
66624.101421
 20
32269.442413
 30
0.0
 10
66395.585913
 20
31717.757174
 30
0.0
  0
SPLINE
  5
23d
100
AcDbEntity
  8
0
 62
7
100
AcDbSpline
 70
8
 71
3
 72
8
 73
4
 74
0
 40
0
 40
0
 40
0
 40
0
 40
1
 40
1
 40
1
 40
1
 10
66395.585913
 20
31717.757174
 30
0.0
 10
66167.070405
 20
31166.071935
 30
0.0
 10
66293.383175
 20
30531.054756
 30
0.0
 10
66715.624777
 20
30108.813155
 30
0.0
  0
SPLINE
  5
23e
100
AcDbEntity
  8
0
 62
7
100
AcDbSpline
 70
8
 71
3
 72
8
 73
4
 74
0
 40
0
 40
0
 40
0
 40
0
 40
1
 40
1
 40
1
 40
1
 10
66715.624777
 20
30108.813155
 30
0.0
 10
67137.866378
 20
29686.571553
 30
0.0
 10
67772.883557
 20
29560.258783
 30
0.0
 10
68324.568796
 20
29788.774291
 30
0.0
  0
SPLINE
  5
23f
100
AcDbEntity
  8
0
 62
7
100
AcDbSpline
 70
8
 71
3
 72
8
 73
4
 74
0
 40
0
 40
0
 40
0
 40
0
 40
1
 40
1
 40
1
 40
1
 10
68324.568796
 20
29788.774291
 30
0.0
 10
68876.254035
 20
30017.289799
 30
0.0
 10
69235.962372
 20
30555.631369
 30
0.0
 10
69235.962372
 20
31152.771168
 30
0.0
  0
SPLINE
  5
240
100
AcDbEntity
  8
0
 62
7
100
AcDbSpline
 70
8
 71
3
 72
8
 73
4
 74
0
 40
0
 40
0
 40
0
 40
0
 40
1
 40
1
 40
1
 40
1
 10
69235.962372
 20
31152.771168
 30
0.0
 10
69235.962372
 20
31544.331379
 30
0.0
 10
69080.415684
 20
31919.854302
 30
0.0
 10
68803.540804
 20
32196.729182
 30
0.0
  0
SPLINE
  5
241
100
AcDbEntity
  8
0
 62
7
100
AcDbSpline
 70
8
 71
3
 72
8
 73
4
 74
0
 40
0
 40
0
 40
0
 40
0
 40
1
 40
1
 40
1
 40
1
 10
68803.540804
 20
32196.729182
 30
0.0
 10
68526.665924
 20
32473.604062
 30
0.0
 10
68151.143001
 20
32629.150750
 30
0.0
 10
67759.582790
 20
32629.150750
 30
0.0
  0
LWPOLYLINE
  5
242
100
AcDbEntity
  8
0
 62
7
100
AcDbPolyline
 90
1
 70
1
 10
84350.078087
 20
42585.845927
 30
0.0
  0
SPLINE
  5
243
100
AcDbEntity
  8
0
 62
7
100
AcDbSpline
 70
8
 71
3
 72
8
 73
4
 74
0
 40
0
 40
0
 40
0
 40
0
 40
1
 40
1
 40
1
 40
1
 10
103235.970733
 20
43963.746536
 30
0.0
 10
102638.832147
 20
43963.746536
 30
0.0
 10
102100.491671
 20
43604.038931
 30
0.0
 10
101871.976627
 20
43052.354813
 30
0.0
  0
SPLINE
  5
244
100
AcDbEntity
  8
0
 62
7
100
AcDbSpline
 70
8
 71
3
 72
8
 73
4
 74
0
 40
0
 40
0
 40
0
 40
0
 40
1
 40
1
 40
1
 40
1
 10
101871.976627
 20
43052.354813
 30
0.0
 10
101643.461583
 20
42500.670695
 30
0.0
 10
101769.774097
 20
41865.654806
 30
0.0
 10
102192.014841
 20
41443.414063
 30
0.0
  0
SPLINE
  5
245
100
AcDbEntity
  8
0
 62
7
100
AcDbSpline
 70
8
 71
3
 72
8
 73
4
 74
0
 40
0
 40
0
 40
0
 40
0
 40
1
 40
1
 40
1
 40
1
 10
102192.014841
 20
41443.414063
 30
0.0
 10
102614.255584
 20
41021.173319
 30
0.0
 10
103249.271473
 20
40894.860805
 30
0.0
 10
103800.955591
 20
41123.375849
 30
0.0
  0
SPLINE
  5
246
100
AcDbEntity
  8
0
 62
7
100
AcDbSpline
 70
8
 71
3
 72
8
 73
4
 74
0
 40
0
 40
0
 40
0
 40
0
 40
1
 40
1
 40
1
 40
1
 10
103800.955591
 20
41123.375849
 30
0.0
 10
104352.639709
 20
41351.890893
 30
0.0
 10
104712.347314
 20
41890.231369
 30
0.0
 10
104712.347314
 20
42487.369955
 30
0.0
  0
SPLINE
  5
247
100
AcDbEntity
  8
0
 62
7
100
AcDbSpline
 70
8
 71
3
 72
8
 73
4
 74
0
 40
0
 40
0
 40
0
 40
0
 40
1
 40
1
 40
1
 40
1
 10
104712.347314
 20
42487.369955
 30
0.0
 10
104712.347314
 20
42878.929370
 30
0.0
 10
104556.800943
 20
43254.451530
 30
0.0
 10
104279.926625
 20
43531.325847
 30
0.0
  0
SPLINE
  5
248
100
AcDbEntity
  8
0
 62
7
100
AcDbSpline
 70
8
 71
3
 72
8
 73
4
 74
0
 40
0
 40
0
 40
0
 40
0
 40
1
 40
1
 40
1
 40
1
 10
104279.926625
 20
43531.325847
 30
0.0
 10
104003.052308
 20
43808.200165
 30
0.0
 10
103627.530148
 20
43963.746536
 30
0.0
 10
103235.970733
 20
43963.746536
 30
0.0
  0
LWPOLYLINE
  5
249
100
AcDbEntity
  8
0
 62
7
100
AcDbPolyline
 90
1
 70
1
 10
67759.582790
 20
32629.150750
 30
0.0
  0
SPLINE
  5
24a
100
AcDbEntity
  8
0
 62
7
100
AcDbSpline
 70
8
 71
3
 72
8
 73
4
 74
0
 40
0
 40
0
 40
0
 40
0
 40
1
 40
1
 40
1
 40
1
 10
145798.958666
 20
56640.941942
 30
0.0
 10
145201.820080
 20
56640.941942
 30
0.0
 10
144663.479604
 20
56281.234337
 30
0.0
 10
144434.964561
 20
55729.550219
 30
0.0
  0
SPLINE
  5
24b
100
AcDbEntity
  8
0
 62
7
100
AcDbSpline
 70
8
 71
3
 72
8
 73
4
 74
0
 40
0
 40
0
 40
0
 40
0
 40
1
 40
1
 40
1
 40
1
 10
144434.964561
 20
55729.550219
 30
0.0
 10
144206.449517
 20
55177.866101
 30
0.0
 10
144332.762030
 20
54542.850212
 30
0.0
 10
144755.002774
 20
54120.609469
 30
0.0
  0
SPLINE
  5
24c
100
AcDbEntity
  8
0
 62
7
100
AcDbSpline
 70
8
 71
3
 72
8
 73
4
 74
0
 40
0
 40
0
 40
0
 40
0
 40
1
 40
1
 40
1
 40
1
 10
144755.002774
 20
54120.609469
 30
0.0
 10
145177.243518
 20
53698.368725
 30
0.0
 10
145812.259406
 20
53572.056211
 30
0.0
 10
146363.943524
 20
53800.571255
 30
0.0
  0
SPLINE
  5
24d
100
AcDbEntity
  8
0
 62
7
100
AcDbSpline
 70
8
 71
3
 72
8
 73
4
 74
0
 40
0
 40
0
 40
0
 40
0
 40
1
 40
1
 40
1
 40
1
 10
146363.943524
 20
53800.571255
 30
0.0
 10
146915.627642
 20
54029.086299
 30
0.0
 10
147275.335248
 20
54567.426775
 30
0.0
 10
147275.335248
 20
55164.565361
 30
0.0
  0
SPLINE
  5
24e
100
AcDbEntity
  8
0
 62
7
100
AcDbSpline
 70
8
 71
3
 72
8
 73
4
 74
0
 40
0
 40
0
 40
0
 40
0
 40
1
 40
1
 40
1
 40
1
 10
147275.335248
 20
55164.565361
 30
0.0
 10
147275.335248
 20
55556.124776
 30
0.0
 10
147119.788876
 20
55931.646936
 30
0.0
 10
146842.914559
 20
56208.521253
 30
0.0
  0
SPLINE
  5
24f
100
AcDbEntity
  8
0
 62
7
100
AcDbSpline
 70
8
 71
3
 72
8
 73
4
 74
0
 40
0
 40
0
 40
0
 40
0
 40
1
 40
1
 40
1
 40
1
 10
146842.914559
 20
56208.521253
 30
0.0
 10
146566.040241
 20
56485.395571
 30
0.0
 10
146190.518081
 20
56640.941942
 30
0.0
 10
145798.958666
 20
56640.941942
 30
0.0
  0
LWPOLYLINE
  5
250
100
AcDbEntity
  8
0
 62
7
100
AcDbPolyline
 90
1
 70
1
 10
103235.970733
 20
43963.746536
 30
0.0
  0
SPLINE
  5
251
100
AcDbEntity
  8
0
 62
7
100
AcDbSpline
 70
8
 71
3
 72
8
 73
4
 74
0
 40
0
 40
0
 40
0
 40
0
 40
1
 40
1
 40
1
 40
1
 10
15031.195739
 20
50814.142594
 30
0.0
 10
14434.057152
 20
50814.142594
 30
0.0
 10
13895.716677
 20
50454.434989
 30
0.0
 10
13667.201633
 20
49902.750871
 30
0.0
  0
SPLINE
  5
252
100
AcDbEntity
  8
0
 62
7
100
AcDbSpline
 70
8
 71
3
 72
8
 73
4
 74
0
 40
0
 40
0
 40
0
 40
0
 40
1
 40
1
 40
1
 40
1
 10
13667.201633
 20
49902.750871
 30
0.0
 10
13438.686589
 20
49351.066753
 30
0.0
 10
13564.999103
 20
48716.050864
 30
0.0
 10
13987.239846
 20
48293.810121
 30
0.0
  0
SPLINE
  5
253
100
AcDbEntity
  8
0
 62
7
100
AcDbSpline
 70
8
 71
3
 72
8
 73
4
 74
0
 40
0
 40
0
 40
0
 40
0
 40
1
 40
1
 40
1
 40
1
 10
13987.239846
 20
48293.810121
 30
0.0
 10
14409.480590
 20
47871.569377
 30
0.0
 10
15044.496478
 20
47745.256863
 30
0.0
 10
15596.180596
 20
47973.771907
 30
0.0
  0
SPLINE
  5
254
100
AcDbEntity
  8
0
 62
7
100
AcDbSpline
 70
8
 71
3
 72
8
 73
4
 74
0
 40
0
 40
0
 40
0
 40
0
 40
1
 40
1
 40
1
 40
1
 10
15596.180596
 20
47973.771907
 30
0.0
 10
16147.864714
 20
48202.286951
 30
0.0
 10
16507.572320
 20
48740.627427
 30
0.0
 10
16507.572320
 20
49337.766013
 30
0.0
  0
SPLINE
  5
255
100
AcDbEntity
  8
0
 62
7
100
AcDbSpline
 70
8
 71
3
 72
8
 73
4
 74
0
 40
0
 40
0
 40
0
 40
0
 40
1
 40
1
 40
1
 40
1
 10
16507.572320
 20
49337.766013
 30
0.0
 10
16507.572320
 20
49729.325427
 30
0.0
 10
16352.025948
 20
50104.847588
 30
0.0
 10
16075.151631
 20
50381.721905
 30
0.0
  0
SPLINE
  5
256
100
AcDbEntity
  8
0
 62
7
100
AcDbSpline
 70
8
 71
3
 72
8
 73
4
 74
0
 40
0
 40
0
 40
0
 40
0
 40
1
 40
1
 40
1
 40
1
 10
16075.151631
 20
50381.721905
 30
0.0
 10
15798.277314
 20
50658.596223
 30
0.0
 10
15422.755153
 20
50814.142594
 30
0.0
 10
15031.195739
 20
50814.142594
 30
0.0
  0
LWPOLYLINE
  5
257
100
AcDbEntity
  8
0
 62
7
100
AcDbPolyline
 90
1
 70
1
 10
145798.958666
 20
56640.941942
 30
0.0
  0
SPLINE
  5
258
100
AcDbEntity
  8
0
 62
7
100
AcDbSpline
 70
8
 71
3
 72
8
 73
4
 74
0
 40
0
 40
0
 40
0
 40
0
 40
1
 40
1
 40
1
 40
1
 10
9125.527713
 20
57469.758707
 30
0.0
 10
8528.389127
 20
57469.758707
 30
0.0
 10
7990.048651
 20
57110.051102
 30
0.0
 10
7761.533607
 20
56558.366984
 30
0.0
  0
SPLINE
  5
259
100
AcDbEntity
  8
0
 62
7
100
AcDbSpline
 70
8
 71
3
 72
8
 73
4
 74
0
 40
0
 40
0
 40
0
 40
0
 40
1
 40
1
 40
1
 40
1
 10
7761.533607
 20
56558.366984
 30
0.0
 10
7533.018563
 20
56006.682866
 30
0.0
 10
7659.331077
 20
55371.666977
 30
0.0
 10
8081.571821
 20
54949.426234
 30
0.0
  0
SPLINE
  5
25a
100
AcDbEntity
  8
0
 62
7
100
AcDbSpline
 70
8
 71
3
 72
8
 73
4
 74
0
 40
0
 40
0
 40
0
 40
0
 40
1
 40
1
 40
1
 40
1
 10
8081.571821
 20
54949.426234
 30
0.0
 10
8503.812564
 20
54527.185490
 30
0.0
 10
9138.828453
 20
54400.872976
 30
0.0
 10
9690.512571
 20
54629.388020
 30
0.0
  0
SPLINE
  5
25b
100
AcDbEntity
  8
0
 62
7
100
AcDbSpline
 70
8
 71
3
 72
8
 73
4
 74
0
 40
0
 40
0
 40
0
 40
0
 40
1
 40
1
 40
1
 40
1
 10
9690.512571
 20
54629.388020
 30
0.0
 10
10242.196689
 20
54857.903064
 30
0.0
 10
10601.904294
 20
55396.243540
 30
0.0
 10
10601.904294
 20
55993.382126
 30
0.0
  0
SPLINE
  5
25c
100
AcDbEntity
  8
0
 62
7
100
AcDbSpline
 70
8
 71
3
 72
8
 73
4
 74
0
 40
0
 40
0
 40
0
 40
0
 40
1
 40
1
 40
1
 40
1
 10
10601.904294
 20
55993.382126
 30
0.0
 10
10601.904294
 20
56384.941541
 30
0.0
 10
10446.357923
 20
56760.463701
 30
0.0
 10
10169.483605
 20
57037.338018
 30
0.0
  0
SPLINE
  5
25d
100
AcDbEntity
  8
0
 62
7
100
AcDbSpline
 70
8
 71
3
 72
8
 73
4
 74
0
 40
0
 40
0
 40
0
 40
0
 40
1
 40
1
 40
1
 40
1
 10
10169.483605
 20
57037.338018
 30
0.0
 10
9892.609288
 20
57314.212336
 30
0.0
 10
9517.087128
 20
57469.758707
 30
0.0
 10
9125.527713
 20
57469.758707
 30
0.0
  0
LWPOLYLINE
  5
25e
100
AcDbEntity
  8
0
 62
7
100
AcDbPolyline
 90
1
 70
1
 10
15031.195739
 20
50814.142594
 30
0.0
  0
SPLINE
  5
25f
100
AcDbEntity
  8
0
 62
7
100
AcDbSpline
 70
8
 71
3
 72
8
 73
4
 74
0
 40
0
 40
0
 40
0
 40
0
 40
1
 40
1
 40
1
 40
1
 10
49432.786986
 20
36798.450568
 30
0.0
 10
48835.647186
 20
36798.450568
 30
0.0
 10
48297.305617
 20
36438.742231
 30
0.0
 10
48068.790108
 20
35887.056992
 30
0.0
  0
SPLINE
  5
260
100
AcDbEntity
  8
0
 62
7
100
AcDbSpline
 70
8
 71
3
 72
8
 73
4
 74
0
 40
0
 40
0
 40
0
 40
0
 40
1
 40
1
 40
1
 40
1
 10
48068.790108
 20
35887.056992
 30
0.0
 10
47840.274600
 20
35335.371753
 30
0.0
 10
47966.587371
 20
34700.354574
 30
0.0
 10
48388.828972
 20
34278.112973
 30
0.0
  0
SPLINE
  5
261
100
AcDbEntity
  8
0
 62
7
100
AcDbSpline
 70
8
 71
3
 72
8
 73
4
 74
0
 40
0
 40
0
 40
0
 40
0
 40
1
 40
1
 40
1
 40
1
 10
48388.828972
 20
34278.112973
 30
0.0
 10
48811.070574
 20
33855.871371
 30
0.0
 10
49446.087753
 20
33729.558601
 30
0.0
 10
49997.772992
 20
33958.074109
 30
0.0
  0
SPLINE
  5
262
100
AcDbEntity
  8
0
 62
7
100
AcDbSpline
 70
8
 71
3
 72
8
 73
4
 74
0
 40
0
 40
0
 40
0
 40
0
 40
1
 40
1
 40
1
 40
1
 10
49997.772992
 20
33958.074109
 30
0.0
 10
50549.458231
 20
34186.589617
 30
0.0
 10
50909.166567
 20
34724.931187
 30
0.0
 10
50909.166567
 20
35322.070986
 30
0.0
  0
SPLINE
  5
263
100
AcDbEntity
  8
0
 62
7
100
AcDbSpline
 70
8
 71
3
 72
8
 73
4
 74
0
 40
0
 40
0
 40
0
 40
0
 40
1
 40
1
 40
1
 40
1
 10
50909.166567
 20
35322.070986
 30
0.0
 10
50909.166567
 20
36137.452914
 30
0.0
 10
50248.168914
 20
36798.450568
 30
0.0
 10
49432.786986
 20
36798.450568
 30
0.0
  0
LWPOLYLINE
  5
264
100
AcDbEntity
  8
0
 62
7
100
AcDbPolyline
 90
1
 70
1
 10
9125.527713
 20
57469.758707
 30
0.0
  0
SPLINE
  5
265
100
AcDbEntity
  8
0
 62
7
100
AcDbSpline
 70
8
 71
3
 72
8
 73
4
 74
0
 40
0
 40
0
 40
0
 40
0
 40
1
 40
1
 40
1
 40
1
 10
25960.293640
 20
49734.357700
 30
0.0
 10
25449.583030
 20
49734.357700
 30
0.0
 10
24989.160274
 20
49426.713051
 30
0.0
 10
24793.719785
 20
48954.877971
 30
0.0
  0
SPLINE
  5
266
100
AcDbEntity
  8
0
 62
7
100
AcDbSpline
 70
8
 71
3
 72
8
 73
4
 74
0
 40
0
 40
0
 40
0
 40
0
 40
1
 40
1
 40
1
 40
1
 10
24793.719785
 20
48954.877971
 30
0.0
 10
24598.279296
 20
48483.042891
 30
0.0
 10
24706.309730
 20
47939.937220
 30
0.0
 10
25067.436666
 20
47578.810284
 30
0.0
  0
SPLINE
  5
267
100
AcDbEntity
  8
0
 62
7
100
AcDbSpline
 70
8
 71
3
 72
8
 73
4
 74
0
 40
0
 40
0
 40
0
 40
0
 40
1
 40
1
 40
1
 40
1
 10
25067.436666
 20
47578.810284
 30
0.0
 10
25428.563602
 20
47217.683348
 30
0.0
 10
25971.669272
 20
47109.652914
 30
0.0
 10
26443.504353
 20
47305.093403
 30
0.0
  0
SPLINE
  5
268
100
AcDbEntity
  8
0
 62
7
100
AcDbSpline
 70
8
 71
3
 72
8
 73
4
 74
0
 40
0
 40
0
 40
0
 40
0
 40
1
 40
1
 40
1
 40
1
 10
26443.504353
 20
47305.093403
 30
0.0
 10
26915.339433
 20
47500.533893
 30
0.0
 10
27222.984082
 20
47960.956648
 30
0.0
 10
27222.984082
 20
48471.667258
 30
0.0
  0
SPLINE
  5
269
100
AcDbEntity
  8
0
 62
7
100
AcDbSpline
 70
8
 71
3
 72
8
 73
4
 74
0
 40
0
 40
0
 40
0
 40
0
 40
1
 40
1
 40
1
 40
1
 10
27222.984082
 20
48471.667258
 30
0.0
 10
27222.984082
 20
48806.553585
 30
0.0
 10
27089.951007
 20
49127.723840
 30
0.0
 10
26853.150614
 20
49364.524233
 30
0.0
  0
SPLINE
  5
26a
100
AcDbEntity
  8
0
 62
7
100
AcDbSpline
 70
8
 71
3
 72
8
 73
4
 74
0
 40
0
 40
0
 40
0
 40
0
 40
1
 40
1
 40
1
 40
1
 10
26853.150614
 20
49364.524233
 30
0.0
 10
26616.350222
 20
49601.324625
 30
0.0
 10
26295.179967
 20
49734.357700
 30
0.0
 10
25960.293640
 20
49734.357700
 30
0.0
  0
LWPOLYLINE
  5
26b
100
AcDbEntity
  8
0
 62
7
100
AcDbPolyline
 90
1
 70
1
 10
49432.786986
 20
36798.450568
 30
0.0
  0
SPLINE
  5
26c
100
AcDbEntity
  8
0
 62
7
100
AcDbSpline
 70
8
 71
3
 72
8
 73
4
 74
0
 40
0
 40
0
 40
0
 40
0
 40
1
 40
1
 40
1
 40
1
 10
22889.493511
 20
57075.585619
 30
0.0
 10
22138.485433
 20
57075.585619
 30
0.0
 10
21529.673096
 20
56466.773282
 30
0.0
 10
21529.673096
 20
55715.765205
 30
0.0
  0
SPLINE
  5
26d
100
AcDbEntity
  8
0
 62
7
100
AcDbSpline
 70
8
 71
3
 72
8
 73
4
 74
0
 40
0
 40
0
 40
0
 40
0
 40
1
 40
1
 40
1
 40
1
 10
21529.673096
 20
55715.765205
 30
0.0
 10
21529.673096
 20
54964.757127
 30
0.0
 10
22138.485433
 20
54355.944790
 30
0.0
 10
22889.493511
 20
54355.944790
 30
0.0
  0
SPLINE
  5
26e
100
AcDbEntity
  8
0
 62
7
100
AcDbSpline
 70
8
 71
3
 72
8
 73
4
 74
0
 40
0
 40
0
 40
0
 40
0
 40
1
 40
1
 40
1
 40
1
 10
22889.493511
 20
54355.944790
 30
0.0
 10
23640.501588
 20
54355.944790
 30
0.0
 10
24249.313925
 20
54964.757127
 30
0.0
 10
24249.313925
 20
55715.765205
 30
0.0
  0
SPLINE
  5
26f
100
AcDbEntity
  8
0
 62
7
100
AcDbSpline
 70
8
 71
3
 72
8
 73
4
 74
0
 40
0
 40
0
 40
0
 40
0
 40
1
 40
1
 40
1
 40
1
 10
24249.313925
 20
55715.765205
 30
0.0
 10
24249.313925
 20
56076.412002
 30
0.0
 10
24106.047543
 20
56422.287645
 30
0.0
 10
23851.031747
 20
56677.303441
 30
0.0
  0
SPLINE
  5
270
100
AcDbEntity
  8
0
 62
7
100
AcDbSpline
 70
8
 71
3
 72
8
 73
4
 74
0
 40
0
 40
0
 40
0
 40
0
 40
1
 40
1
 40
1
 40
1
 10
23851.031747
 20
56677.303441
 30
0.0
 10
23596.015951
 20
56932.319237
 30
0.0
 10
23250.140308
 20
57075.585619
 30
0.0
 10
22889.493511
 20
57075.585619
 30
0.0
  0
LWPOLYLINE
  5
271
100
AcDbEntity
  8
0
 62
7
100
AcDbPolyline
 90
1
 70
1
 10
25960.293640
 20
49734.357700
 30
0.0
  0
SPLINE
  5
272
100
AcDbEntity
  8
0
 62
7
100
AcDbSpline
 70
8
 71
3
 72
8
 73
4
 74
0
 40
0
 40
0
 40
0
 40
0
 40
1
 40
1
 40
1
 40
1
 10
41472.187243
 20
40855.089218
 30
0.0
 10
40922.191225
 20
40855.089218
 30
0.0
 10
40426.351358
 20
40523.779610
 30
0.0
 10
40215.876994
 20
40015.649547
 30
0.0
  0
SPLINE
  5
273
100
AcDbEntity
  8
0
 62
7
100
AcDbSpline
 70
8
 71
3
 72
8
 73
4
 74
0
 40
0
 40
0
 40
0
 40
0
 40
1
 40
1
 40
1
 40
1
 10
40215.876994
 20
40015.649547
 30
0.0
 10
40005.402630
 20
39507.519483
 30
0.0
 10
40121.743093
 20
38922.636480
 30
0.0
 10
40510.649006
 20
38533.730567
 30
0.0
  0
SPLINE
  5
274
100
AcDbEntity
  8
0
 62
7
100
AcDbSpline
 70
8
 71
3
 72
8
 73
4
 74
0
 40
0
 40
0
 40
0
 40
0
 40
1
 40
1
 40
1
 40
1
 10
40510.649006
 20
38533.730567
 30
0.0
 10
40899.554920
 20
38144.824653
 30
0.0
 10
41484.437923
 20
38028.484191
 30
0.0
 10
41992.567986
 20
38238.958554
 30
0.0
  0
SPLINE
  5
275
100
AcDbEntity
  8
0
 62
7
100
AcDbSpline
 70
8
 71
3
 72
8
 73
4
 74
0
 40
0
 40
0
 40
0
 40
0
 40
1
 40
1
 40
1
 40
1
 10
41992.567986
 20
38238.958554
 30
0.0
 10
42500.698050
 20
38449.432918
 30
0.0
 10
42832.007657
 20
38945.272786
 30
0.0
 10
42832.007657
 20
39495.268803
 30
0.0
  0
SPLINE
  5
276
100
AcDbEntity
  8
0
 62
7
100
AcDbSpline
 70
8
 71
3
 72
8
 73
4
 74
0
 40
0
 40
0
 40
0
 40
0
 40
1
 40
1
 40
1
 40
1
 10
42832.007657
 20
39495.268803
 30
0.0
 10
42832.007657
 20
39855.915600
 30
0.0
 10
42688.741275
 20
40201.791244
 30
0.0
 10
42433.725479
 20
40456.807039
 30
0.0
  0
SPLINE
  5
277
100
AcDbEntity
  8
0
 62
7
100
AcDbSpline
 70
8
 71
3
 72
8
 73
4
 74
0
 40
0
 40
0
 40
0
 40
0
 40
1
 40
1
 40
1
 40
1
 10
42433.725479
 20
40456.807039
 30
0.0
 10
42178.709683
 20
40711.822835
 30
0.0
 10
41832.834040
 20
40855.089218
 30
0.0
 10
41472.187243
 20
40855.089218
 30
0.0
  0
LWPOLYLINE
  5
278
100
AcDbEntity
  8
0
 62
7
100
AcDbPolyline
 90
1
 70
1
 10
22889.493511
 20
57075.585619
 30
0.0
  0
SPLINE
  5
279
100
AcDbEntity
  8
0
 62
7
100
AcDbSpline
 70
8
 71
3
 72
8
 73
4
 74
0
 40
0
 40
0
 40
0
 40
0
 40
1
 40
1
 40
1
 40
1
 10
48243.787323
 20
43610.989436
 30
0.0
 10
47693.791306
 20
43610.989436
 30
0.0
 10
47197.951438
 20
43279.679829
 30
0.0
 10
46987.477074
 20
42771.549766
 30
0.0
  0
SPLINE
  5
27a
100
AcDbEntity
  8
0
 62
7
100
AcDbSpline
 70
8
 71
3
 72
8
 73
4
 74
0
 40
0
 40
0
 40
0
 40
0
 40
1
 40
1
 40
1
 40
1
 10
46987.477074
 20
42771.549766
 30
0.0
 10
46777.002710
 20
42263.419702
 30
0.0
 10
46893.343173
 20
41678.536699
 30
0.0
 10
47282.249087
 20
41289.630786
 30
0.0
  0
SPLINE
  5
27b
100
AcDbEntity
  8
0
 62
7
100
AcDbSpline
 70
8
 71
3
 72
8
 73
4
 74
0
 40
0
 40
0
 40
0
 40
0
 40
1
 40
1
 40
1
 40
1
 10
47282.249087
 20
41289.630786
 30
0.0
 10
47671.155000
 20
40900.724872
 30
0.0
 10
48256.038003
 20
40784.384409
 30
0.0
 10
48764.168067
 20
40994.858773
 30
0.0
  0
SPLINE
  5
27c
100
AcDbEntity
  8
0
 62
7
100
AcDbSpline
 70
8
 71
3
 72
8
 73
4
 74
0
 40
0
 40
0
 40
0
 40
0
 40
1
 40
1
 40
1
 40
1
 10
48764.168067
 20
40994.858773
 30
0.0
 10
49272.298130
 20
41205.333137
 30
0.0
 10
49603.607738
 20
41701.173005
 30
0.0
 10
49603.607738
 20
42251.169022
 30
0.0
  0
SPLINE
  5
27d
100
AcDbEntity
  8
0
 62
7
100
AcDbSpline
 70
8
 71
3
 72
8
 73
4
 74
0
 40
0
 40
0
 40
0
 40
0
 40
1
 40
1
 40
1
 40
1
 10
49603.607738
 20
42251.169022
 30
0.0
 10
49603.607738
 20
42611.815819
 30
0.0
 10
49460.341355
 20
42957.691462
 30
0.0
 10
49205.325559
 20
43212.707258
 30
0.0
  0
SPLINE
  5
27e
100
AcDbEntity
  8
0
 62
7
100
AcDbSpline
 70
8
 71
3
 72
8
 73
4
 74
0
 40
0
 40
0
 40
0
 40
0
 40
1
 40
1
 40
1
 40
1
 10
49205.325559
 20
43212.707258
 30
0.0
 10
48950.309763
 20
43467.723054
 30
0.0
 10
48604.434120
 20
43610.989436
 30
0.0
 10
48243.787323
 20
43610.989436
 30
0.0
  0
LWPOLYLINE
  5
27f
100
AcDbEntity
  8
0
 62
7
100
AcDbPolyline
 90
1
 70
1
 10
41472.187243
 20
40855.089218
 30
0.0
  0
SPLINE
  5
280
100
AcDbEntity
  8
0
 62
7
100
AcDbSpline
 70
8
 71
3
 72
8
 73
4
 74
0
 40
0
 40
0
 40
0
 40
0
 40
1
 40
1
 40
1
 40
1
 10
33519.388497
 20
38571.589865
 30
0.0
 10
32969.392480
 20
38571.589865
 30
0.0
 10
32473.552612
 20
38240.280258
 30
0.0
 10
32263.078249
 20
37732.150194
 30
0.0
  0
SPLINE
  5
281
100
AcDbEntity
  8
0
 62
7
100
AcDbSpline
 70
8
 71
3
 72
8
 73
4
 74
0
 40
0
 40
0
 40
0
 40
0
 40
1
 40
1
 40
1
 40
1
 10
32263.078249
 20
37732.150194
 30
0.0
 10
32052.603885
 20
37224.020131
 30
0.0
 10
32168.944348
 20
36639.137128
 30
0.0
 10
32557.850261
 20
36250.231214
 30
0.0
  0
SPLINE
  5
282
100
AcDbEntity
  8
0
 62
7
100
AcDbSpline
 70
8
 71
3
 72
8
 73
4
 74
0
 40
0
 40
0
 40
0
 40
0
 40
1
 40
1
 40
1
 40
1
 10
32557.850261
 20
36250.231214
 30
0.0
 10
32946.756175
 20
35861.325301
 30
0.0
 10
33531.639178
 20
35744.984838
 30
0.0
 10
34039.769241
 20
35955.459202
 30
0.0
  0
SPLINE
  5
283
100
AcDbEntity
  8
0
 62
7
100
AcDbSpline
 70
8
 71
3
 72
8
 73
4
 74
0
 40
0
 40
0
 40
0
 40
0
 40
1
 40
1
 40
1
 40
1
 10
34039.769241
 20
35955.459202
 30
0.0
 10
34547.899304
 20
36165.933565
 30
0.0
 10
34879.208912
 20
36661.773433
 30
0.0
 10
34879.208912
 20
37211.769451
 30
0.0
  0
SPLINE
  5
284
100
AcDbEntity
  8
0
 62
7
100
AcDbSpline
 70
8
 71
3
 72
8
 73
4
 74
0
 40
0
 40
0
 40
0
 40
0
 40
1
 40
1
 40
1
 40
1
 10
34879.208912
 20
37211.769451
 30
0.0
 10
34879.208912
 20
37572.416248
 30
0.0
 10
34735.942530
 20
37918.291891
 30
0.0
 10
34480.926734
 20
38173.307687
 30
0.0
  0
SPLINE
  5
285
100
AcDbEntity
  8
0
 62
7
100
AcDbSpline
 70
8
 71
3
 72
8
 73
4
 74
0
 40
0
 40
0
 40
0
 40
0
 40
1
 40
1
 40
1
 40
1
 10
34480.926734
 20
38173.307687
 30
0.0
 10
34225.910938
 20
38428.323483
 30
0.0
 10
33880.035294
 20
38571.589865
 30
0.0
 10
33519.388497
 20
38571.589865
 30
0.0
  0
LWPOLYLINE
  5
286
100
AcDbEntity
  8
0
 62
7
100
AcDbPolyline
 90
1
 70
1
 10
48243.787323
 20
43610.989436
 30
0.0
  0
SPLINE
  5
287
100
AcDbEntity
  8
0
 62
7
100
AcDbSpline
 70
8
 71
3
 72
8
 73
4
 74
0
 40
0
 40
0
 40
0
 40
0
 40
1
 40
1
 40
1
 40
1
 10
10369.797060
 20
43847.190369
 30
0.0
 10
9819.801043
 20
43847.190369
 30
0.0
 10
9323.961175
 20
43515.880762
 30
0.0
 10
9113.486811
 20
43007.750699
 30
0.0
  0
SPLINE
  5
288
100
AcDbEntity
  8
0
 62
7
100
AcDbSpline
 70
8
 71
3
 72
8
 73
4
 74
0
 40
0
 40
0
 40
0
 40
0
 40
1
 40
1
 40
1
 40
1
 10
9113.486811
 20
43007.750699
 30
0.0
 10
8903.012448
 20
42499.620635
 30
0.0
 10
9019.352910
 20
41914.737632
 30
0.0
 10
9408.258824
 20
41525.831719
 30
0.0
  0
SPLINE
  5
289
100
AcDbEntity
  8
0
 62
7
100
AcDbSpline
 70
8
 71
3
 72
8
 73
4
 74
0
 40
0
 40
0
 40
0
 40
0
 40
1
 40
1
 40
1
 40
1
 10
9408.258824
 20
41525.831719
 30
0.0
 10
9797.164737
 20
41136.925805
 30
0.0
 10
10382.047740
 20
41020.585342
 30
0.0
 10
10890.177804
 20
41231.059706
 30
0.0
  0
SPLINE
  5
28a
100
AcDbEntity
  8
0
 62
7
100
AcDbSpline
 70
8
 71
3
 72
8
 73
4
 74
0
 40
0
 40
0
 40
0
 40
0
 40
1
 40
1
 40
1
 40
1
 10
10890.177804
 20
41231.059706
 30
0.0
 10
11398.307867
 20
41441.534070
 30
0.0
 10
11729.617475
 20
41937.373938
 30
0.0
 10
11729.617475
 20
42487.369955
 30
0.0
  0
SPLINE
  5
28b
100
AcDbEntity
  8
0
 62
7
100
AcDbSpline
 70
8
 71
3
 72
8
 73
4
 74
0
 40
0
 40
0
 40
0
 40
0
 40
1
 40
1
 40
1
 40
1
 10
11729.617475
 20
42487.369955
 30
0.0
 10
11729.617475
 20
42848.016752
 30
0.0
 10
11586.351092
 20
43193.892395
 30
0.0
 10
11331.335296
 20
43448.908191
 30
0.0
  0
SPLINE
  5
28c
100
AcDbEntity
  8
0
 62
7
100
AcDbSpline
 70
8
 71
3
 72
8
 73
4
 74
0
 40
0
 40
0
 40
0
 40
0
 40
1
 40
1
 40
1
 40
1
 10
11331.335296
 20
43448.908191
 30
0.0
 10
11076.319501
 20
43703.923987
 30
0.0
 10
10730.443857
 20
43847.190369
 30
0.0
 10
10369.797060
 20
43847.190369
 30
0.0
  0
LWPOLYLINE
  5
28d
100
AcDbEntity
  8
0
 62
7
100
AcDbPolyline
 90
1
 70
1
 10
33519.388497
 20
38571.589865
 30
0.0
  0
SPLINE
  5
28e
100
AcDbEntity
  8
0
 62
7
100
AcDbSpline
 70
8
 71
3
 72
8
 73
4
 74
0
 40
0
 40
0
 40
0
 40
0
 40
1
 40
1
 40
1
 40
1
 10
6039.088088
 20
50461.387494
 30
0.0
 10
5489.092071
 20
50461.387494
 30
0.0
 10
4993.252203
 20
50130.077887
 30
0.0
 10
4782.777839
 20
49621.947823
 30
0.0
  0
SPLINE
  5
28f
100
AcDbEntity
  8
0
 62
7
100
AcDbSpline
 70
8
 71
3
 72
8
 73
4
 74
0
 40
0
 40
0
 40
0
 40
0
 40
1
 40
1
 40
1
 40
1
 10
4782.777839
 20
49621.947823
 30
0.0
 10
4572.303475
 20
49113.817760
 30
0.0
 10
4688.643938
 20
48528.934757
 30
0.0
 10
5077.549852
 20
48140.028844
 30
0.0
  0
SPLINE
  5
290
100
AcDbEntity
  8
0
 62
7
100
AcDbSpline
 70
8
 71
3
 72
8
 73
4
 74
0
 40
0
 40
0
 40
0
 40
0
 40
1
 40
1
 40
1
 40
1
 10
5077.549852
 20
48140.028844
 30
0.0
 10
5466.455765
 20
47751.122930
 30
0.0
 10
6051.338768
 20
47634.782467
 30
0.0
 10
6559.468832
 20
47845.256831
 30
0.0
  0
SPLINE
  5
291
100
AcDbEntity
  8
0
 62
7
100
AcDbSpline
 70
8
 71
3
 72
8
 73
4
 74
0
 40
0
 40
0
 40
0
 40
0
 40
1
 40
1
 40
1
 40
1
 10
6559.468832
 20
47845.256831
 30
0.0
 10
7067.598895
 20
48055.731195
 30
0.0
 10
7398.908502
 20
48551.571062
 30
0.0
 10
7398.908502
 20
49101.567080
 30
0.0
  0
SPLINE
  5
292
100
AcDbEntity
  8
0
 62
7
100
AcDbSpline
 70
8
 71
3
 72
8
 73
4
 74
0
 40
0
 40
0
 40
0
 40
0
 40
1
 40
1
 40
1
 40
1
 10
7398.908502
 20
49101.567080
 30
0.0
 10
7398.908502
 20
49462.213877
 30
0.0
 10
7255.642120
 20
49808.089520
 30
0.0
 10
7000.626324
 20
50063.105316
 30
0.0
  0
SPLINE
  5
293
100
AcDbEntity
  8
0
 62
7
100
AcDbSpline
 70
8
 71
3
 72
8
 73
4
 74
0
 40
0
 40
0
 40
0
 40
0
 40
1
 40
1
 40
1
 40
1
 10
7000.626324
 20
50063.105316
 30
0.0
 10
6745.610528
 20
50318.121112
 30
0.0
 10
6399.734885
 20
50461.387494
 30
0.0
 10
6039.088088
 20
50461.387494
 30
0.0
  0
LWPOLYLINE
  5
294
100
AcDbEntity
  8
0
 62
7
100
AcDbPolyline
 90
1
 70
1
 10
10369.797060
 20
43847.190369
 30
0.0
  0
SPLINE
  5
295
100
AcDbEntity
  8
0
 62
7
100
AcDbSpline
 70
8
 71
3
 72
8
 73
4
 74
0
 40
0
 40
0
 40
0
 40
0
 40
1
 40
1
 40
1
 40
1
 10
86747.772407
 20
29122.791544
 30
0.0
 10
86197.776390
 20
29122.791544
 30
0.0
 10
85701.936522
 20
28791.481936
 30
0.0
 10
85491.462158
 20
28283.351873
 30
0.0
  0
SPLINE
  5
296
100
AcDbEntity
  8
0
 62
7
100
AcDbSpline
 70
8
 71
3
 72
8
 73
4
 74
0
 40
0
 40
0
 40
0
 40
0
 40
1
 40
1
 40
1
 40
1
 10
85491.462158
 20
28283.351873
 30
0.0
 10
85280.987795
 20
27775.221809
 30
0.0
 10
85397.328257
 20
27190.338807
 30
0.0
 10
85786.234171
 20
26801.432893
 30
0.0
  0
SPLINE
  5
297
100
AcDbEntity
  8
0
 62
7
100
AcDbSpline
 70
8
 71
3
 72
8
 73
4
 74
0
 40
0
 40
0
 40
0
 40
0
 40
1
 40
1
 40
1
 40
1
 10
85786.234171
 20
26801.432893
 30
0.0
 10
86175.140084
 20
26412.526979
 30
0.0
 10
86760.023087
 20
26296.186517
 30
0.0
 10
87268.153151
 20
26506.660880
 30
0.0
  0
SPLINE
  5
298
100
AcDbEntity
  8
0
 62
7
100
AcDbSpline
 70
8
 71
3
 72
8
 73
4
 74
0
 40
0
 40
0
 40
0
 40
0
 40
1
 40
1
 40
1
 40
1
 10
87268.153151
 20
26506.660880
 30
0.0
 10
87776.283214
 20
26717.135244
 30
0.0
 10
88107.592822
 20
27212.975112
 30
0.0
 10
88107.592822
 20
27762.971129
 30
0.0
  0
SPLINE
  5
299
100
AcDbEntity
  8
0
 62
7
100
AcDbSpline
 70
8
 71
3
 72
8
 73
4
 74
0
 40
0
 40
0
 40
0
 40
0
 40
1
 40
1
 40
1
 40
1
 10
88107.592822
 20
27762.971129
 30
0.0
 10
88107.592822
 20
28123.617926
 30
0.0
 10
87964.326439
 20
28469.493570
 30
0.0
 10
87709.310644
 20
28724.509366
 30
0.0
  0
SPLINE
  5
29a
100
AcDbEntity
  8
0
 62
7
100
AcDbSpline
 70
8
 71
3
 72
8
 73
4
 74
0
 40
0
 40
0
 40
0
 40
0
 40
1
 40
1
 40
1
 40
1
 10
87709.310644
 20
28724.509366
 30
0.0
 10
87454.294848
 20
28979.525161
 30
0.0
 10
87108.419204
 20
29122.791544
 30
0.0
 10
86747.772407
 20
29122.791544
 30
0.0
  0
LWPOLYLINE
  5
29b
100
AcDbEntity
  8
0
 62
7
100
AcDbPolyline
 90
1
 70
1
 10
6039.088088
 20
50461.387494
 30
0.0
  0
SPLINE
  5
29c
100
AcDbEntity
  8
0
 62
7
100
AcDbSpline
 70
8
 71
3
 72
8
 73
4
 74
0
 40
0
 40
0
 40
0
 40
0
 40
1
 40
1
 40
1
 40
1
 10
80448.477193
 20
9122.797214
 30
0.0
 10
79898.481176
 20
9122.797214
 30
0.0
 10
79402.641308
 20
8791.487606
 30
0.0
 10
79192.166944
 20
8283.357543
 30
0.0
  0
SPLINE
  5
29d
100
AcDbEntity
  8
0
 62
7
100
AcDbSpline
 70
8
 71
3
 72
8
 73
4
 74
0
 40
0
 40
0
 40
0
 40
0
 40
1
 40
1
 40
1
 40
1
 10
79192.166944
 20
8283.357543
 30
0.0
 10
78981.692581
 20
7775.227479
 30
0.0
 10
79098.033043
 20
7190.344476
 30
0.0
 10
79486.938957
 20
6801.438563
 30
0.0
  0
SPLINE
  5
29e
100
AcDbEntity
  8
0
 62
7
100
AcDbSpline
 70
8
 71
3
 72
8
 73
4
 74
0
 40
0
 40
0
 40
0
 40
0
 40
1
 40
1
 40
1
 40
1
 10
79486.938957
 20
6801.438563
 30
0.0
 10
79875.844870
 20
6412.532649
 30
0.0
 10
80460.727873
 20
6296.192187
 30
0.0
 10
80968.857937
 20
6506.666550
 30
0.0
  0
SPLINE
  5
29f
100
AcDbEntity
  8
0
 62
7
100
AcDbSpline
 70
8
 71
3
 72
8
 73
4
 74
0
 40
0
 40
0
 40
0
 40
0
 40
1
 40
1
 40
1
 40
1
 10
80968.857937
 20
6506.666550
 30
0.0
 10
81476.988000
 20
6717.140914
 30
0.0
 10
81808.297608
 20
7212.980782
 30
0.0
 10
81808.297608
 20
7762.976799
 30
0.0
  0
SPLINE
  5
2a0
100
AcDbEntity
  8
0
 62
7
100
AcDbSpline
 70
8
 71
3
 72
8
 73
4
 74
0
 40
0
 40
0
 40
0
 40
0
 40
1
 40
1
 40
1
 40
1
 10
81808.297608
 20
7762.976799
 30
0.0
 10
81808.297608
 20
8513.984877
 30
0.0
 10
81199.485271
 20
9122.797214
 30
0.0
 10
80448.477193
 20
9122.797214
 30
0.0
  0
LWPOLYLINE
  5
2a1
100
AcDbEntity
  8
0
 62
7
100
AcDbPolyline
 90
1
 70
1
 10
86747.772407
 20
29122.791544
 30
0.0
  0
SPLINE
  5
2a2
100
AcDbEntity
  8
0
 62
7
100
AcDbSpline
 70
8
 71
3
 72
8
 73
4
 74
0
 40
0
 40
0
 40
0
 40
0
 40
1
 40
1
 40
1
 40
1
 10
81330.374943
 20
35311.789789
 30
0.0
 10
80780.378926
 20
35311.789789
 30
0.0
 10
80284.539058
 20
34980.480182
 30
0.0
 10
80074.064694
 20
34472.350118
 30
0.0
  0
SPLINE
  5
2a3
100
AcDbEntity
  8
0
 62
7
100
AcDbSpline
 70
8
 71
3
 72
8
 73
4
 74
0
 40
0
 40
0
 40
0
 40
0
 40
1
 40
1
 40
1
 40
1
 10
80074.064694
 20
34472.350118
 30
0.0
 10
79863.590331
 20
33964.220055
 30
0.0
 10
79979.930793
 20
33379.337052
 30
0.0
 10
80368.836707
 20
32990.431138
 30
0.0
  0
SPLINE
  5
2a4
100
AcDbEntity
  8
0
 62
7
100
AcDbSpline
 70
8
 71
3
 72
8
 73
4
 74
0
 40
0
 40
0
 40
0
 40
0
 40
1
 40
1
 40
1
 40
1
 10
80368.836707
 20
32990.431138
 30
0.0
 10
80757.742620
 20
32601.525225
 30
0.0
 10
81342.625623
 20
32485.184762
 30
0.0
 10
81850.755687
 20
32695.659126
 30
0.0
  0
SPLINE
  5
2a5
100
AcDbEntity
  8
0
 62
7
100
AcDbSpline
 70
8
 71
3
 72
8
 73
4
 74
0
 40
0
 40
0
 40
0
 40
0
 40
1
 40
1
 40
1
 40
1
 10
81850.755687
 20
32695.659126
 30
0.0
 10
82358.885750
 20
32906.133490
 30
0.0
 10
82690.195358
 20
33401.973357
 30
0.0
 10
82690.195358
 20
33951.969375
 30
0.0
  0
SPLINE
  5
2a6
100
AcDbEntity
  8
0
 62
7
100
AcDbSpline
 70
8
 71
3
 72
8
 73
4
 74
0
 40
0
 40
0
 40
0
 40
0
 40
1
 40
1
 40
1
 40
1
 10
82690.195358
 20
33951.969375
 30
0.0
 10
82690.195358
 20
34702.977452
 30
0.0
 10
82081.383021
 20
35311.789789
 30
0.0
 10
81330.374943
 20
35311.789789
 30
0.0
  0
LWPOLYLINE
  5
2a7
100
AcDbEntity
  8
0
 62
7
100
AcDbPolyline
 90
1
 70
1
 10
80448.477193
 20
9122.797214
 30
0.0
  0
SPLINE
  5
2a8
100
AcDbEntity
  8
0
 62
7
100
AcDbSpline
 70
8
 71
3
 72
8
 73
4
 74
0
 40
0
 40
0
 40
0
 40
0
 40
1
 40
1
 40
1
 40
1
 10
86983.975340
 20
15264.499473
 30
0.0
 10
86232.967263
 20
15264.499473
 30
0.0
 10
85624.154926
 20
14655.687135
 30
0.0
 10
85624.154926
 20
13904.679058
 30
0.0
  0
SPLINE
  5
2a9
100
AcDbEntity
  8
0
 62
7
100
AcDbSpline
 70
8
 71
3
 72
8
 73
4
 74
0
 40
0
 40
0
 40
0
 40
0
 40
1
 40
1
 40
1
 40
1
 10
85624.154926
 20
13904.679058
 30
0.0
 10
85624.154926
 20
13153.670981
 30
0.0
 10
86232.967263
 20
12544.858644
 30
0.0
 10
86983.975340
 20
12544.858644
 30
0.0
  0
SPLINE
  5
2aa
100
AcDbEntity
  8
0
 62
7
100
AcDbSpline
 70
8
 71
3
 72
8
 73
4
 74
0
 40
0
 40
0
 40
0
 40
0
 40
1
 40
1
 40
1
 40
1
 10
86983.975340
 20
12544.858644
 30
0.0
 10
87734.983418
 20
12544.858644
 30
0.0
 10
88343.795755
 20
13153.670981
 30
0.0
 10
88343.795755
 20
13904.679058
 30
0.0
  0
SPLINE
  5
2ab
100
AcDbEntity
  8
0
 62
7
100
AcDbSpline
 70
8
 71
3
 72
8
 73
4
 74
0
 40
0
 40
0
 40
0
 40
0
 40
1
 40
1
 40
1
 40
1
 10
88343.795755
 20
13904.679058
 30
0.0
 10
88343.795755
 20
14265.325855
 30
0.0
 10
88200.529372
 20
14611.201498
 30
0.0
 10
87945.513577
 20
14866.217294
 30
0.0
  0
SPLINE
  5
2ac
100
AcDbEntity
  8
0
 62
7
100
AcDbSpline
 70
8
 71
3
 72
8
 73
4
 74
0
 40
0
 40
0
 40
0
 40
0
 40
1
 40
1
 40
1
 40
1
 10
87945.513577
 20
14866.217294
 30
0.0
 10
87690.497781
 20
15121.233090
 30
0.0
 10
87344.622137
 20
15264.499473
 30
0.0
 10
86983.975340
 20
15264.499473
 30
0.0
  0
LWPOLYLINE
  5
2ad
100
AcDbEntity
  8
0
 62
7
100
AcDbPolyline
 90
1
 70
1
 10
81330.374943
 20
35311.789789
 30
0.0
  0
SPLINE
  5
2ae
100
AcDbEntity
  8
0
 62
7
100
AcDbSpline
 70
8
 71
3
 72
8
 73
4
 74
0
 40
0
 40
0
 40
0
 40
0
 40
1
 40
1
 40
1
 40
1
 10
84121.773152
 20
22221.196500
 30
0.0
 10
83571.777134
 20
22221.196500
 30
0.0
 10
83075.937267
 20
21889.886893
 30
0.0
 10
82865.462903
 20
21381.756829
 30
0.0
  0
SPLINE
  5
2af
100
AcDbEntity
  8
0
 62
7
100
AcDbSpline
 70
8
 71
3
 72
8
 73
4
 74
0
 40
0
 40
0
 40
0
 40
0
 40
1
 40
1
 40
1
 40
1
 10
82865.462903
 20
21381.756829
 30
0.0
 10
82654.988539
 20
20873.626766
 30
0.0
 10
82771.329002
 20
20288.743763
 30
0.0
 10
83160.234915
 20
19899.837850
 30
0.0
  0
SPLINE
  5
2b0
100
AcDbEntity
  8
0
 62
7
100
AcDbSpline
 70
8
 71
3
 72
8
 73
4
 74
0
 40
0
 40
0
 40
0
 40
0
 40
1
 40
1
 40
1
 40
1
 10
83160.234915
 20
19899.837850
 30
0.0
 10
83549.140829
 20
19510.931936
 30
0.0
 10
84134.023832
 20
19394.591473
 30
0.0
 10
84642.153895
 20
19605.065837
 30
0.0
  0
SPLINE
  5
2b1
100
AcDbEntity
  8
0
 62
7
100
AcDbSpline
 70
8
 71
3
 72
8
 73
4
 74
0
 40
0
 40
0
 40
0
 40
0
 40
1
 40
1
 40
1
 40
1
 10
84642.153895
 20
19605.065837
 30
0.0
 10
85150.283959
 20
19815.540201
 30
0.0
 10
85481.593566
 20
20311.380068
 30
0.0
 10
85481.593566
 20
20861.376086
 30
0.0
  0
SPLINE
  5
2b2
100
AcDbEntity
  8
0
 62
7
100
AcDbSpline
 70
8
 71
3
 72
8
 73
4
 74
0
 40
0
 40
0
 40
0
 40
0
 40
1
 40
1
 40
1
 40
1
 10
85481.593566
 20
20861.376086
 30
0.0
 10
85481.593566
 20
21222.022883
 30
0.0
 10
85338.327184
 20
21567.898526
 30
0.0
 10
85083.311388
 20
21822.914322
 30
0.0
  0
SPLINE
  5
2b3
100
AcDbEntity
  8
0
 62
7
100
AcDbSpline
 70
8
 71
3
 72
8
 73
4
 74
0
 40
0
 40
0
 40
0
 40
0
 40
1
 40
1
 40
1
 40
1
 10
85083.311388
 20
21822.914322
 30
0.0
 10
84828.295592
 20
22077.930118
 30
0.0
 10
84482.419949
 20
22221.196500
 30
0.0
 10
84121.773152
 20
22221.196500
 30
0.0
  0
LWPOLYLINE
  5
2b4
100
AcDbEntity
  8
0
 62
7
100
AcDbPolyline
 90
1
 70
1
 10
86983.975340
 20
15264.499473
 30
0.0
  0
SPLINE
  5
2b5
100
AcDbEntity
  8
0
 62
7
100
AcDbSpline
 70
8
 71
3
 72
8
 73
4
 74
0
 40
0
 40
0
 40
0
 40
0
 40
1
 40
1
 40
1
 40
1
 10
62476.084288
 20
28374.791756
 30
0.0
 10
61725.076211
 20
28374.791756
 30
0.0
 10
61116.263874
 20
27765.979419
 30
0.0
 10
61116.263874
 20
27014.971341
 30
0.0
  0
SPLINE
  5
2b6
100
AcDbEntity
  8
0
 62
7
100
AcDbSpline
 70
8
 71
3
 72
8
 73
4
 74
0
 40
0
 40
0
 40
0
 40
0
 40
1
 40
1
 40
1
 40
1
 10
61116.263874
 20
27014.971341
 30
0.0
 10
61116.263874
 20
26263.963264
 30
0.0
 10
61725.076211
 20
25655.150927
 30
0.0
 10
62476.084288
 20
25655.150927
 30
0.0
  0
SPLINE
  5
2b7
100
AcDbEntity
  8
0
 62
7
100
AcDbSpline
 70
8
 71
3
 72
8
 73
4
 74
0
 40
0
 40
0
 40
0
 40
0
 40
1
 40
1
 40
1
 40
1
 10
62476.084288
 20
25655.150927
 30
0.0
 10
63227.092366
 20
25655.150927
 30
0.0
 10
63835.904703
 20
26263.963264
 30
0.0
 10
63835.904703
 20
27014.971341
 30
0.0
  0
SPLINE
  5
2b8
100
AcDbEntity
  8
0
 62
7
100
AcDbSpline
 70
8
 71
3
 72
8
 73
4
 74
0
 40
0
 40
0
 40
0
 40
0
 40
1
 40
1
 40
1
 40
1
 10
63835.904703
 20
27014.971341
 30
0.0
 10
63835.904703
 20
27375.618138
 30
0.0
 10
63692.638320
 20
27721.493782
 30
0.0
 10
63437.622524
 20
27976.509578
 30
0.0
  0
SPLINE
  5
2b9
100
AcDbEntity
  8
0
 62
7
100
AcDbSpline
 70
8
 71
3
 72
8
 73
4
 74
0
 40
0
 40
0
 40
0
 40
0
 40
1
 40
1
 40
1
 40
1
 10
63437.622524
 20
27976.509578
 30
0.0
 10
63182.606729
 20
28231.525373
 30
0.0
 10
62836.731085
 20
28374.791756
 30
0.0
 10
62476.084288
 20
28374.791756
 30
0.0
  0
LWPOLYLINE
  5
2ba
100
AcDbEntity
  8
0
 62
7
100
AcDbPolyline
 90
1
 70
1
 10
84121.773152
 20
22221.196500
 30
0.0
  0
SPLINE
  5
2bb
100
AcDbEntity
  8
0
 62
7
100
AcDbSpline
 70
8
 71
3
 72
8
 73
4
 74
0
 40
0
 40
0
 40
0
 40
0
 40
1
 40
1
 40
1
 40
1
 10
77835.485934
 20
22525.473414
 30
0.0
 10
77285.489916
 20
22525.473414
 30
0.0
 10
76789.650049
 20
22194.163807
 30
0.0
 10
76579.175685
 20
21686.033743
 30
0.0
  0
SPLINE
  5
2bc
100
AcDbEntity
  8
0
 62
7
100
AcDbSpline
 70
8
 71
3
 72
8
 73
4
 74
0
 40
0
 40
0
 40
0
 40
0
 40
1
 40
1
 40
1
 40
1
 10
76579.175685
 20
21686.033743
 30
0.0
 10
76368.701321
 20
21177.903680
 30
0.0
 10
76485.041784
 20
20593.020677
 30
0.0
 10
76873.947698
 20
20204.114763
 30
0.0
  0
SPLINE
  5
2bd
100
AcDbEntity
  8
0
 62
7
100
AcDbSpline
 70
8
 71
3
 72
8
 73
4
 74
0
 40
0
 40
0
 40
0
 40
0
 40
1
 40
1
 40
1
 40
1
 10
76873.947698
 20
20204.114763
 30
0.0
 10
77262.853611
 20
19815.208850
 30
0.0
 10
77847.736614
 20
19698.868387
 30
0.0
 10
78355.866677
 20
19909.342751
 30
0.0
  0
SPLINE
  5
2be
100
AcDbEntity
  8
0
 62
7
100
AcDbSpline
 70
8
 71
3
 72
8
 73
4
 74
0
 40
0
 40
0
 40
0
 40
0
 40
1
 40
1
 40
1
 40
1
 10
78355.866677
 20
19909.342751
 30
0.0
 10
78863.996741
 20
20119.817114
 30
0.0
 10
79195.306348
 20
20615.656982
 30
0.0
 10
79195.306348
 20
21165.653000
 30
0.0
  0
SPLINE
  5
2bf
100
AcDbEntity
  8
0
 62
7
100
AcDbSpline
 70
8
 71
3
 72
8
 73
4
 74
0
 40
0
 40
0
 40
0
 40
0
 40
1
 40
1
 40
1
 40
1
 10
79195.306348
 20
21165.653000
 30
0.0
 10
79195.306348
 20
21526.299797
 30
0.0
 10
79052.039966
 20
21872.175440
 30
0.0
 10
78797.024170
 20
22127.191236
 30
0.0
  0
SPLINE
  5
2c0
100
AcDbEntity
  8
0
 62
7
100
AcDbSpline
 70
8
 71
3
 72
8
 73
4
 74
0
 40
0
 40
0
 40
0
 40
0
 40
1
 40
1
 40
1
 40
1
 10
78797.024170
 20
22127.191236
 30
0.0
 10
78542.008374
 20
22382.207032
 30
0.0
 10
78196.132731
 20
22525.473414
 30
0.0
 10
77835.485934
 20
22525.473414
 30
0.0
  0
LWPOLYLINE
  5
2c1
100
AcDbEntity
  8
0
 62
7
100
AcDbPolyline
 90
1
 70
1
 10
62476.084288
 20
28374.791756
 30
0.0
  0
SPLINE
  5
2c2
100
AcDbEntity
  8
0
 62
7
100
AcDbSpline
 70
8
 71
3
 72
8
 73
4
 74
0
 40
0
 40
0
 40
0
 40
0
 40
1
 40
1
 40
1
 40
1
 10
59267.381198
 20
8729.098325
 30
0.0
 10
58717.385180
 20
8729.098325
 30
0.0
 10
58221.545313
 20
8397.788718
 30
0.0
 10
58011.070949
 20
7889.658654
 30
0.0
  0
SPLINE
  5
2c3
100
AcDbEntity
  8
0
 62
7
100
AcDbSpline
 70
8
 71
3
 72
8
 73
4
 74
0
 40
0
 40
0
 40
0
 40
0
 40
1
 40
1
 40
1
 40
1
 10
58011.070949
 20
7889.658654
 30
0.0
 10
57800.596585
 20
7381.528591
 30
0.0
 10
57916.937048
 20
6796.645588
 30
0.0
 10
58305.842962
 20
6407.739675
 30
0.0
  0
SPLINE
  5
2c4
100
AcDbEntity
  8
0
 62
7
100
AcDbSpline
 70
8
 71
3
 72
8
 73
4
 74
0
 40
0
 40
0
 40
0
 40
0
 40
1
 40
1
 40
1
 40
1
 10
58305.842962
 20
6407.739675
 30
0.0
 10
58694.748875
 20
6018.833761
 30
0.0
 10
59279.631878
 20
5902.493298
 30
0.0
 10
59787.761941
 20
6112.967662
 30
0.0
  0
SPLINE
  5
2c5
100
AcDbEntity
  8
0
 62
7
100
AcDbSpline
 70
8
 71
3
 72
8
 73
4
 74
0
 40
0
 40
0
 40
0
 40
0
 40
1
 40
1
 40
1
 40
1
 10
59787.761941
 20
6112.967662
 30
0.0
 10
60295.892005
 20
6323.442026
 30
0.0
 10
60627.201612
 20
6819.281893
 30
0.0
 10
60627.201612
 20
7369.277911
 30
0.0
  0
SPLINE
  5
2c6
100
AcDbEntity
  8
0
 62
7
100
AcDbSpline
 70
8
 71
3
 72
8
 73
4
 74
0
 40
0
 40
0
 40
0
 40
0
 40
1
 40
1
 40
1
 40
1
 10
60627.201612
 20
7369.277911
 30
0.0
 10
60627.201612
 20
7729.924708
 30
0.0
 10
60483.935230
 20
8075.800351
 30
0.0
 10
60228.919434
 20
8330.816147
 30
0.0
  0
SPLINE
  5
2c7
100
AcDbEntity
  8
0
 62
7
100
AcDbSpline
 70
8
 71
3
 72
8
 73
4
 74
0
 40
0
 40
0
 40
0
 40
0
 40
1
 40
1
 40
1
 40
1
 10
60228.919434
 20
8330.816147
 30
0.0
 10
59973.903638
 20
8585.831943
 30
0.0
 10
59628.027995
 20
8729.098325
 30
0.0
 10
59267.381198
 20
8729.098325
 30
0.0
  0
LWPOLYLINE
  5
2c8
100
AcDbEntity
  8
0
 62
7
100
AcDbPolyline
 90
1
 70
1
 10
77835.485934
 20
22525.473414
 30
0.0
  0
SPLINE
  5
2c9
100
AcDbEntity
  8
0
 62
7
100
AcDbSpline
 70
8
 71
3
 72
8
 73
4
 74
0
 40
0
 40
0
 40
0
 40
0
 40
1
 40
1
 40
1
 40
1
 10
58188.682504
 20
35240.891809
 30
0.0
 10
57638.686486
 20
35240.891809
 30
0.0
 10
57142.846619
 20
34909.582202
 30
0.0
 10
56932.372255
 20
34401.452138
 30
0.0
  0
SPLINE
  5
2ca
100
AcDbEntity
  8
0
 62
7
100
AcDbSpline
 70
8
 71
3
 72
8
 73
4
 74
0
 40
0
 40
0
 40
0
 40
0
 40
1
 40
1
 40
1
 40
1
 10
56932.372255
 20
34401.452138
 30
0.0
 10
56721.897891
 20
33893.322075
 30
0.0
 10
56838.238354
 20
33308.439072
 30
0.0
 10
57227.144267
 20
32919.533159
 30
0.0
  0
SPLINE
  5
2cb
100
AcDbEntity
  8
0
 62
7
100
AcDbSpline
 70
8
 71
3
 72
8
 73
4
 74
0
 40
0
 40
0
 40
0
 40
0
 40
1
 40
1
 40
1
 40
1
 10
57227.144267
 20
32919.533159
 30
0.0
 10
57616.050181
 20
32530.627245
 30
0.0
 10
58200.933184
 20
32414.286782
 30
0.0
 10
58709.063247
 20
32624.761146
 30
0.0
  0
SPLINE
  5
2cc
100
AcDbEntity
  8
0
 62
7
100
AcDbSpline
 70
8
 71
3
 72
8
 73
4
 74
0
 40
0
 40
0
 40
0
 40
0
 40
1
 40
1
 40
1
 40
1
 10
58709.063247
 20
32624.761146
 30
0.0
 10
59217.193311
 20
32835.235510
 30
0.0
 10
59548.502918
 20
33331.075377
 30
0.0
 10
59548.502918
 20
33881.071395
 30
0.0
  0
SPLINE
  5
2cd
100
AcDbEntity
  8
0
 62
7
100
AcDbSpline
 70
8
 71
3
 72
8
 73
4
 74
0
 40
0
 40
0
 40
0
 40
0
 40
1
 40
1
 40
1
 40
1
 10
59548.502918
 20
33881.071395
 30
0.0
 10
59548.502918
 20
34632.079472
 30
0.0
 10
58939.690581
 20
35240.891809
 30
0.0
 10
58188.682504
 20
35240.891809
 30
0.0
  0
LWPOLYLINE
  5
2ce
100
AcDbEntity
  8
0
 62
7
100
AcDbPolyline
 90
1
 70
1
 10
59267.381198
 20
8729.098325
 30
0.0
  0
SPLINE
  5
2cf
100
AcDbEntity
  8
0
 62
7
100
AcDbSpline
 70
8
 71
3
 72
8
 73
4
 74
0
 40
0
 40
0
 40
0
 40
0
 40
1
 40
1
 40
1
 40
1
 10
64621.782680
 20
15028.295540
 30
0.0
 10
64071.786663
 20
15028.295540
 30
0.0
 10
63575.946795
 20
14696.985932
 30
0.0
 10
63365.472431
 20
14188.855869
 30
0.0
  0
SPLINE
  5
2d0
100
AcDbEntity
  8
0
 62
7
100
AcDbSpline
 70
8
 71
3
 72
8
 73
4
 74
0
 40
0
 40
0
 40
0
 40
0
 40
1
 40
1
 40
1
 40
1
 10
63365.472431
 20
14188.855869
 30
0.0
 10
63154.998067
 20
13680.725805
 30
0.0
 10
63271.338530
 20
13095.842802
 30
0.0
 10
63660.244444
 20
12706.936889
 30
0.0
  0
SPLINE
  5
2d1
100
AcDbEntity
  8
0
 62
7
100
AcDbSpline
 70
8
 71
3
 72
8
 73
4
 74
0
 40
0
 40
0
 40
0
 40
0
 40
1
 40
1
 40
1
 40
1
 10
63660.244444
 20
12706.936889
 30
0.0
 10
64049.150357
 20
12318.030975
 30
0.0
 10
64634.033360
 20
12201.690512
 30
0.0
 10
65142.163424
 20
12412.164876
 30
0.0
  0
SPLINE
  5
2d2
100
AcDbEntity
  8
0
 62
7
100
AcDbSpline
 70
8
 71
3
 72
8
 73
4
 74
0
 40
0
 40
0
 40
0
 40
0
 40
1
 40
1
 40
1
 40
1
 10
65142.163424
 20
12412.164876
 30
0.0
 10
65650.293487
 20
12622.639240
 30
0.0
 10
65981.603094
 20
13118.479108
 30
0.0
 10
65981.603094
 20
13668.475125
 30
0.0
  0
SPLINE
  5
2d3
100
AcDbEntity
  8
0
 62
7
100
AcDbSpline
 70
8
 71
3
 72
8
 73
4
 74
0
 40
0
 40
0
 40
0
 40
0
 40
1
 40
1
 40
1
 40
1
 10
65981.603094
 20
13668.475125
 30
0.0
 10
65981.603094
 20
14029.121922
 30
0.0
 10
65838.336712
 20
14374.997565
 30
0.0
 10
65583.320916
 20
14630.013361
 30
0.0
  0
SPLINE
  5
2d4
100
AcDbEntity
  8
0
 62
7
100
AcDbSpline
 70
8
 71
3
 72
8
 73
4
 74
0
 40
0
 40
0
 40
0
 40
0
 40
1
 40
1
 40
1
 40
1
 10
65583.320916
 20
14630.013361
 30
0.0
 10
65328.305120
 20
14885.029157
 30
0.0
 10
64982.429477
 20
15028.295540
 30
0.0
 10
64621.782680
 20
15028.295540
 30
0.0
  0
LWPOLYLINE
  5
2d5
100
AcDbEntity
  8
0
 62
7
100
AcDbPolyline
 90
1
 70
1
 10
58188.682504
 20
35240.891809
 30
0.0
  0
SPLINE
  5
2d6
100
AcDbEntity
  8
0
 62
7
100
AcDbSpline
 70
8
 71
3
 72
8
 73
4
 74
0
 40
0
 40
0
 40
0
 40
0
 40
1
 40
1
 40
1
 40
1
 10
60897.380736
 20
21921.997585
 30
0.0
 10
60347.384718
 20
21921.997585
 30
0.0
 10
59851.544851
 20
21590.687978
 30
0.0
 10
59641.070487
 20
21082.557914
 30
0.0
  0
SPLINE
  5
2d7
100
AcDbEntity
  8
0
 62
7
100
AcDbSpline
 70
8
 71
3
 72
8
 73
4
 74
0
 40
0
 40
0
 40
0
 40
0
 40
1
 40
1
 40
1
 40
1
 10
59641.070487
 20
21082.557914
 30
0.0
 10
59430.596123
 20
20574.427851
 30
0.0
 10
59546.936586
 20
19989.544848
 30
0.0
 10
59935.842499
 20
19600.638934
 30
0.0
  0
SPLINE
  5
2d8
100
AcDbEntity
  8
0
 62
7
100
AcDbSpline
 70
8
 71
3
 72
8
 73
4
 74
0
 40
0
 40
0
 40
0
 40
0
 40
1
 40
1
 40
1
 40
1
 10
59935.842499
 20
19600.638934
 30
0.0
 10
60324.748413
 20
19211.733021
 30
0.0
 10
60909.631416
 20
19095.392558
 30
0.0
 10
61417.761479
 20
19305.866922
 30
0.0
  0
SPLINE
  5
2d9
100
AcDbEntity
  8
0
 62
7
100
AcDbSpline
 70
8
 71
3
 72
8
 73
4
 74
0
 40
0
 40
0
 40
0
 40
0
 40
1
 40
1
 40
1
 40
1
 10
61417.761479
 20
19305.866922
 30
0.0
 10
61925.891543
 20
19516.341286
 30
0.0
 10
62257.201150
 20
20012.181153
 30
0.0
 10
62257.201150
 20
20562.177171
 30
0.0
  0
SPLINE
  5
2da
100
AcDbEntity
  8
0
 62
7
100
AcDbSpline
 70
8
 71
3
 72
8
 73
4
 74
0
 40
0
 40
0
 40
0
 40
0
 40
1
 40
1
 40
1
 40
1
 10
62257.201150
 20
20562.177171
 30
0.0
 10
62257.201150
 20
20922.823968
 30
0.0
 10
62113.934768
 20
21268.699611
 30
0.0
 10
61858.918972
 20
21523.715407
 30
0.0
  0
SPLINE
  5
2db
100
AcDbEntity
  8
0
 62
7
100
AcDbSpline
 70
8
 71
3
 72
8
 73
4
 74
0
 40
0
 40
0
 40
0
 40
0
 40
1
 40
1
 40
1
 40
1
 10
61858.918972
 20
21523.715407
 30
0.0
 10
61603.903176
 20
21778.731203
 30
0.0
 10
61258.027533
 20
21921.997585
 30
0.0
 10
60897.380736
 20
21921.997585
 30
0.0
  0
LWPOLYLINE
  5
2dc
100
AcDbEntity
  8
0
 62
7
100
AcDbPolyline
 90
1
 70
1
 10
64621.782680
 20
15028.295540
 30
0.0
  0
SPLINE
  5
2dd
100
AcDbEntity
  8
0
 62
7
100
AcDbSpline
 70
8
 71
3
 72
8
 73
4
 74
0
 40
0
 40
0
 40
0
 40
0
 40
1
 40
1
 40
1
 40
1
 10
106511.969804
 20
29122.791544
 30
0.0
 10
105961.973787
 20
29122.791544
 30
0.0
 10
105466.133919
 20
28791.481936
 30
0.0
 10
105255.659555
 20
28283.351873
 30
0.0
  0
SPLINE
  5
2de
100
AcDbEntity
  8
0
 62
7
100
AcDbSpline
 70
8
 71
3
 72
8
 73
4
 74
0
 40
0
 40
0
 40
0
 40
0
 40
1
 40
1
 40
1
 40
1
 10
105255.659555
 20
28283.351873
 30
0.0
 10
105045.185192
 20
27775.221809
 30
0.0
 10
105161.525654
 20
27190.338807
 30
0.0
 10
105550.431568
 20
26801.432893
 30
0.0
  0
SPLINE
  5
2df
100
AcDbEntity
  8
0
 62
7
100
AcDbSpline
 70
8
 71
3
 72
8
 73
4
 74
0
 40
0
 40
0
 40
0
 40
0
 40
1
 40
1
 40
1
 40
1
 10
105550.431568
 20
26801.432893
 30
0.0
 10
105939.337481
 20
26412.526979
 30
0.0
 10
106524.220484
 20
26296.186517
 30
0.0
 10
107032.350548
 20
26506.660880
 30
0.0
  0
SPLINE
  5
2e0
100
AcDbEntity
  8
0
 62
7
100
AcDbSpline
 70
8
 71
3
 72
8
 73
4
 74
0
 40
0
 40
0
 40
0
 40
0
 40
1
 40
1
 40
1
 40
1
 10
107032.350548
 20
26506.660880
 30
0.0
 10
107540.480611
 20
26717.135244
 30
0.0
 10
107871.790219
 20
27212.975112
 30
0.0
 10
107871.790219
 20
27762.971129
 30
0.0
  0
SPLINE
  5
2e1
100
AcDbEntity
  8
0
 62
7
100
AcDbSpline
 70
8
 71
3
 72
8
 73
4
 74
0
 40
0
 40
0
 40
0
 40
0
 40
1
 40
1
 40
1
 40
1
 10
107871.790219
 20
27762.971129
 30
0.0
 10
107871.790219
 20
28123.617926
 30
0.0
 10
107728.523836
 20
28469.493570
 30
0.0
 10
107473.508040
 20
28724.509366
 30
0.0
  0
SPLINE
  5
2e2
100
AcDbEntity
  8
0
 62
7
100
AcDbSpline
 70
8
 71
3
 72
8
 73
4
 74
0
 40
0
 40
0
 40
0
 40
0
 40
1
 40
1
 40
1
 40
1
 10
107473.508040
 20
28724.509366
 30
0.0
 10
107218.492245
 20
28979.525161
 30
0.0
 10
106872.616601
 20
29122.791544
 30
0.0
 10
106511.969804
 20
29122.791544
 30
0.0
  0
LWPOLYLINE
  5
2e3
100
AcDbEntity
  8
0
 62
7
100
AcDbPolyline
 90
1
 70
1
 10
60897.380736
 20
21921.997585
 30
0.0
  0
SPLINE
  5
2e4
100
AcDbEntity
  8
0
 62
7
100
AcDbSpline
 70
8
 71
3
 72
8
 73
4
 74
0
 40
0
 40
0
 40
0
 40
0
 40
1
 40
1
 40
1
 40
1
 10
98909.174960
 20
33292.091362
 30
0.0
 10
98359.178942
 20
33292.091362
 30
0.0
 10
97863.339074
 20
32960.781754
 30
0.0
 10
97652.864711
 20
32452.651691
 30
0.0
  0
SPLINE
  5
2e5
100
AcDbEntity
  8
0
 62
7
100
AcDbSpline
 70
8
 71
3
 72
8
 73
4
 74
0
 40
0
 40
0
 40
0
 40
0
 40
1
 40
1
 40
1
 40
1
 10
97652.864711
 20
32452.651691
 30
0.0
 10
97442.390347
 20
31944.521627
 30
0.0
 10
97558.730810
 20
31359.638625
 30
0.0
 10
97947.636723
 20
30970.732711
 30
0.0
  0
SPLINE
  5
2e6
100
AcDbEntity
  8
0
 62
7
100
AcDbSpline
 70
8
 71
3
 72
8
 73
4
 74
0
 40
0
 40
0
 40
0
 40
0
 40
1
 40
1
 40
1
 40
1
 10
97947.636723
 20
30970.732711
 30
0.0
 10
98336.542637
 20
30581.826797
 30
0.0
 10
98921.425640
 20
30465.486335
 30
0.0
 10
99429.555703
 20
30675.960698
 30
0.0
  0
SPLINE
  5
2e7
100
AcDbEntity
  8
0
 62
7
100
AcDbSpline
 70
8
 71
3
 72
8
 73
4
 74
0
 40
0
 40
0
 40
0
 40
0
 40
1
 40
1
 40
1
 40
1
 10
99429.555703
 20
30675.960698
 30
0.0
 10
99937.685767
 20
30886.435062
 30
0.0
 10
100268.995374
 20
31382.274930
 30
0.0
 10
100268.995374
 20
31932.270947
 30
0.0
  0
SPLINE
  5
2e8
100
AcDbEntity
  8
0
 62
7
100
AcDbSpline
 70
8
 71
3
 72
8
 73
4
 74
0
 40
0
 40
0
 40
0
 40
0
 40
1
 40
1
 40
1
 40
1
 10
100268.995374
 20
31932.270947
 30
0.0
 10
100268.995374
 20
32292.917744
 30
0.0
 10
100125.728992
 20
32638.793388
 30
0.0
 10
99870.713196
 20
32893.809184
 30
0.0
  0
SPLINE
  5
2e9
100
AcDbEntity
  8
0
 62
7
100
AcDbSpline
 70
8
 71
3
 72
8
 73
4
 74
0
 40
0
 40
0
 40
0
 40
0
 40
1
 40
1
 40
1
 40
1
 10
99870.713196
 20
32893.809184
 30
0.0
 10
99615.697400
 20
33148.824979
 30
0.0
 10
99269.821757
 20
33292.091362
 30
0.0
 10
98909.174960
 20
33292.091362
 30
0.0
  0
LWPOLYLINE
  5
2ea
100
AcDbEntity
  8
0
 62
7
100
AcDbPolyline
 90
1
 70
1
 10
106511.969804
 20
29122.791544
 30
0.0
  0
SPLINE
  5
2eb
100
AcDbEntity
  8
0
 62
7
100
AcDbSpline
 70
8
 71
3
 72
8
 73
4
 74
0
 40
0
 40
0
 40
0
 40
0
 40
1
 40
1
 40
1
 40
1
 10
99661.073746
 20
12782.656376
 30
0.0
 10
99063.933947
 20
12782.656376
 30
0.0
 10
98525.592377
 20
12422.948039
 30
0.0
 10
98297.076869
 20
11871.262800
 30
0.0
  0
SPLINE
  5
2ec
100
AcDbEntity
  8
0
 62
7
100
AcDbSpline
 70
8
 71
3
 72
8
 73
4
 74
0
 40
0
 40
0
 40
0
 40
0
 40
1
 40
1
 40
1
 40
1
 10
98297.076869
 20
11871.262800
 30
0.0
 10
98068.561361
 20
11319.577561
 30
0.0
 10
98194.874131
 20
10684.560383
 30
0.0
 10
98617.115733
 20
10262.318781
 30
0.0
  0
SPLINE
  5
2ed
100
AcDbEntity
  8
0
 62
7
100
AcDbSpline
 70
8
 71
3
 72
8
 73
4
 74
0
 40
0
 40
0
 40
0
 40
0
 40
1
 40
1
 40
1
 40
1
 10
98617.115733
 20
10262.318781
 30
0.0
 10
99039.357334
 20
9840.077179
 30
0.0
 10
99674.374513
 20
9713.764409
 30
0.0
 10
100226.059752
 20
9942.279917
 30
0.0
  0
SPLINE
  5
2ee
100
AcDbEntity
  8
0
 62
7
100
AcDbSpline
 70
8
 71
3
 72
8
 73
4
 74
0
 40
0
 40
0
 40
0
 40
0
 40
1
 40
1
 40
1
 40
1
 10
100226.059752
 20
9942.279917
 30
0.0
 10
100777.744991
 20
10170.795425
 30
0.0
 10
101137.453328
 20
10709.136995
 30
0.0
 10
101137.453328
 20
11306.276795
 30
0.0
  0
SPLINE
  5
2ef
100
AcDbEntity
  8
0
 62
7
100
AcDbSpline
 70
8
 71
3
 72
8
 73
4
 74
0
 40
0
 40
0
 40
0
 40
0
 40
1
 40
1
 40
1
 40
1
 10
101137.453328
 20
11306.276795
 30
0.0
 10
101137.453328
 20
12121.658722
 30
0.0
 10
100476.455674
 20
12782.656376
 30
0.0
 10
99661.073746
 20
12782.656376
 30
0.0
  0
LWPOLYLINE
  5
2f0
100
AcDbEntity
  8
0
 62
7
100
AcDbPolyline
 90
1
 70
1
 10
98909.174960
 20
33292.091362
 30
0.0
  0
SPLINE
  5
2f1
100
AcDbEntity
  8
0
 62
7
100
AcDbSpline
 70
8
 71
3
 72
8
 73
4
 74
0
 40
0
 40
0
 40
0
 40
0
 40
1
 40
1
 40
1
 40
1
 10
104621.970340
 20
20697.594932
 30
0.0
 10
104071.974323
 20
20697.594932
 30
0.0
 10
103576.134455
 20
20366.285325
 30
0.0
 10
103365.660091
 20
19858.155261
 30
0.0
  0
SPLINE
  5
2f2
100
AcDbEntity
  8
0
 62
7
100
AcDbSpline
 70
8
 71
3
 72
8
 73
4
 74
0
 40
0
 40
0
 40
0
 40
0
 40
1
 40
1
 40
1
 40
1
 10
103365.660091
 20
19858.155261
 30
0.0
 10
103155.185727
 20
19350.025198
 30
0.0
 10
103271.526190
 20
18765.142195
 30
0.0
 10
103660.432104
 20
18376.236282
 30
0.0
  0
SPLINE
  5
2f3
100
AcDbEntity
  8
0
 62
7
100
AcDbSpline
 70
8
 71
3
 72
8
 73
4
 74
0
 40
0
 40
0
 40
0
 40
0
 40
1
 40
1
 40
1
 40
1
 10
103660.432104
 20
18376.236282
 30
0.0
 10
104049.338017
 20
17987.330368
 30
0.0
 10
104634.221020
 20
17870.989905
 30
0.0
 10
105142.351084
 20
18081.464269
 30
0.0
  0
SPLINE
  5
2f4
100
AcDbEntity
  8
0
 62
7
100
AcDbSpline
 70
8
 71
3
 72
8
 73
4
 74
0
 40
0
 40
0
 40
0
 40
0
 40
1
 40
1
 40
1
 40
1
 10
105142.351084
 20
18081.464269
 30
0.0
 10
105650.481147
 20
18291.938633
 30
0.0
 10
105981.790754
 20
18787.778500
 30
0.0
 10
105981.790754
 20
19337.774518
 30
0.0
  0
SPLINE
  5
2f5
100
AcDbEntity
  8
0
 62
7
100
AcDbSpline
 70
8
 71
3
 72
8
 73
4
 74
0
 40
0
 40
0
 40
0
 40
0
 40
1
 40
1
 40
1
 40
1
 10
105981.790754
 20
19337.774518
 30
0.0
 10
105981.790754
 20
19698.421315
 30
0.0
 10
105838.524372
 20
20044.296958
 30
0.0
 10
105583.508576
 20
20299.312754
 30
0.0
  0
SPLINE
  5
2f6
100
AcDbEntity
  8
0
 62
7
100
AcDbSpline
 70
8
 71
3
 72
8
 73
4
 74
0
 40
0
 40
0
 40
0
 40
0
 40
1
 40
1
 40
1
 40
1
 10
105583.508576
 20
20299.312754
 30
0.0
 10
105328.492780
 20
20554.328550
 30
0.0
 10
104982.617137
 20
20697.594932
 30
0.0
 10
104621.970340
 20
20697.594932
 30
0.0
  0
LWPOLYLINE
  5
2f7
100
AcDbEntity
  8
0
 62
7
100
AcDbPolyline
 90
1
 70
1
 10
99661.073746
 20
12782.656376
 30
0.0
  0
SPLINE
  5
2f8
100
AcDbEntity
  8
0
 62
7
100
AcDbSpline
 70
8
 71
3
 72
8
 73
4
 74
0
 40
0
 40
0
 40
0
 40
0
 40
1
 40
1
 40
1
 40
1
 10
142495.959603
 20
45815.689811
 30
0.0
 10
141945.963585
 20
45815.689811
 30
0.0
 10
141450.123718
 20
45484.380204
 30
0.0
 10
141239.649354
 20
44976.250141
 30
0.0
  0
SPLINE
  5
2f9
100
AcDbEntity
  8
0
 62
7
100
AcDbSpline
 70
8
 71
3
 72
8
 73
4
 74
0
 40
0
 40
0
 40
0
 40
0
 40
1
 40
1
 40
1
 40
1
 10
141239.649354
 20
44976.250141
 30
0.0
 10
141029.174990
 20
44468.120077
 30
0.0
 10
141145.515453
 20
43883.237074
 30
0.0
 10
141534.421367
 20
43494.331161
 30
0.0
  0
SPLINE
  5
2fa
100
AcDbEntity
  8
0
 62
7
100
AcDbSpline
 70
8
 71
3
 72
8
 73
4
 74
0
 40
0
 40
0
 40
0
 40
0
 40
1
 40
1
 40
1
 40
1
 10
141534.421367
 20
43494.331161
 30
0.0
 10
141923.327280
 20
43105.425247
 30
0.0
 10
142508.210283
 20
42989.084784
 30
0.0
 10
143016.340346
 20
43199.559148
 30
0.0
  0
SPLINE
  5
2fb
100
AcDbEntity
  8
0
 62
7
100
AcDbSpline
 70
8
 71
3
 72
8
 73
4
 74
0
 40
0
 40
0
 40
0
 40
0
 40
1
 40
1
 40
1
 40
1
 10
143016.340346
 20
43199.559148
 30
0.0
 10
143524.470410
 20
43410.033512
 30
0.0
 10
143855.780017
 20
43905.873380
 30
0.0
 10
143855.780017
 20
44455.869397
 30
0.0
  0
SPLINE
  5
2fc
100
AcDbEntity
  8
0
 62
7
100
AcDbSpline
 70
8
 71
3
 72
8
 73
4
 74
0
 40
0
 40
0
 40
0
 40
0
 40
1
 40
1
 40
1
 40
1
 10
143855.780017
 20
44455.869397
 30
0.0
 10
143855.780017
 20
44816.516194
 30
0.0
 10
143712.513635
 20
45162.391837
 30
0.0
 10
143457.497839
 20
45417.407633
 30
0.0
  0
SPLINE
  5
2fd
100
AcDbEntity
  8
0
 62
7
100
AcDbSpline
 70
8
 71
3
 72
8
 73
4
 74
0
 40
0
 40
0
 40
0
 40
0
 40
1
 40
1
 40
1
 40
1
 10
143457.497839
 20
45417.407633
 30
0.0
 10
143202.482043
 20
45672.423429
 30
0.0
 10
142856.606400
 20
45815.689811
 30
0.0
 10
142495.959603
 20
45815.689811
 30
0.0
  0
LWPOLYLINE
  5
2fe
100
AcDbEntity
  8
0
 62
7
100
AcDbPolyline
 90
1
 70
1
 10
104621.970340
 20
20697.594932
 30
0.0
  0
SPLINE
  5
2ff
100
AcDbEntity
  8
0
 62
7
100
AcDbSpline
 70
8
 71
3
 72
8
 73
4
 74
0
 40
0
 40
0
 40
0
 40
0
 40
1
 40
1
 40
1
 40
1
 10
134227.961947
 20
56760.585709
 30
0.0
 10
133677.965929
 20
56760.585709
 30
0.0
 10
133182.126062
 20
56429.276101
 30
0.0
 10
132971.651698
 20
55921.146038
 30
0.0
  0
SPLINE
  5
300
100
AcDbEntity
  8
0
 62
7
100
AcDbSpline
 70
8
 71
3
 72
8
 73
4
 74
0
 40
0
 40
0
 40
0
 40
0
 40
1
 40
1
 40
1
 40
1
 10
132971.651698
 20
55921.146038
 30
0.0
 10
132761.177334
 20
55413.015974
 30
0.0
 10
132877.517797
 20
54828.132971
 30
0.0
 10
133266.423710
 20
54439.227058
 30
0.0
  0
SPLINE
  5
301
100
AcDbEntity
  8
0
 62
7
100
AcDbSpline
 70
8
 71
3
 72
8
 73
4
 74
0
 40
0
 40
0
 40
0
 40
0
 40
1
 40
1
 40
1
 40
1
 10
133266.423710
 20
54439.227058
 30
0.0
 10
133655.329624
 20
54050.321144
 30
0.0
 10
134240.212627
 20
53933.980681
 30
0.0
 10
134748.342690
 20
54144.455045
 30
0.0
  0
SPLINE
  5
302
100
AcDbEntity
  8
0
 62
7
100
AcDbSpline
 70
8
 71
3
 72
8
 73
4
 74
0
 40
0
 40
0
 40
0
 40
0
 40
1
 40
1
 40
1
 40
1
 10
134748.342690
 20
54144.455045
 30
0.0
 10
135256.472754
 20
54354.929409
 30
0.0
 10
135587.782361
 20
54850.769277
 30
0.0
 10
135587.782361
 20
55400.765294
 30
0.0
  0
SPLINE
  5
303
100
AcDbEntity
  8
0
 62
7
100
AcDbSpline
 70
8
 71
3
 72
8
 73
4
 74
0
 40
0
 40
0
 40
0
 40
0
 40
1
 40
1
 40
1
 40
1
 10
135587.782361
 20
55400.765294
 30
0.0
 10
135587.782361
 20
55761.412091
 30
0.0
 10
135444.515979
 20
56107.287734
 30
0.0
 10
135189.500183
 20
56362.303530
 30
0.0
  0
SPLINE
  5
304
100
AcDbEntity
  8
0
 62
7
100
AcDbSpline
 70
8
 71
3
 72
8
 73
4
 74
0
 40
0
 40
0
 40
0
 40
0
 40
1
 40
1
 40
1
 40
1
 10
135189.500183
 20
56362.303530
 30
0.0
 10
134934.484387
 20
56617.319326
 30
0.0
 10
134588.608744
 20
56760.585709
 30
0.0
 10
134227.961947
 20
56760.585709
 30
0.0
  0
LWPOLYLINE
  5
305
100
AcDbEntity
  8
0
 62
7
100
AcDbPolyline
 90
1
 70
1
 10
142495.959603
 20
45815.689811
 30
0.0
  0
SPLINE
  5
306
100
AcDbEntity
  8
0
 62
7
100
AcDbSpline
 70
8
 71
3
 72
8
 73
4
 74
0
 40
0
 40
0
 40
0
 40
0
 40
1
 40
1
 40
1
 40
1
 10
117530.966680
 20
58910.194699
 30
0.0
 10
116980.970663
 20
58910.194699
 30
0.0
 10
116485.130795
 20
58578.885092
 30
0.0
 10
116274.656431
 20
58070.755028
 30
0.0
  0
SPLINE
  5
307
100
AcDbEntity
  8
0
 62
7
100
AcDbSpline
 70
8
 71
3
 72
8
 73
4
 74
0
 40
0
 40
0
 40
0
 40
0
 40
1
 40
1
 40
1
 40
1
 10
116274.656431
 20
58070.755028
 30
0.0
 10
116064.182068
 20
57562.624965
 30
0.0
 10
116180.522531
 20
56977.741962
 30
0.0
 10
116569.428444
 20
56588.836048
 30
0.0
  0
SPLINE
  5
308
100
AcDbEntity
  8
0
 62
7
100
AcDbSpline
 70
8
 71
3
 72
8
 73
4
 74
0
 40
0
 40
0
 40
0
 40
0
 40
1
 40
1
 40
1
 40
1
 10
116569.428444
 20
56588.836048
 30
0.0
 10
116958.334358
 20
56199.930135
 30
0.0
 10
117543.217361
 20
56083.589672
 30
0.0
 10
118051.347424
 20
56294.064036
 30
0.0
  0
SPLINE
  5
309
100
AcDbEntity
  8
0
 62
7
100
AcDbSpline
 70
8
 71
3
 72
8
 73
4
 74
0
 40
0
 40
0
 40
0
 40
0
 40
1
 40
1
 40
1
 40
1
 10
118051.347424
 20
56294.064036
 30
0.0
 10
118559.477487
 20
56504.538400
 30
0.0
 10
118890.787095
 20
57000.378267
 30
0.0
 10
118890.787095
 20
57550.374285
 30
0.0
  0
SPLINE
  5
30a
100
AcDbEntity
  8
0
 62
7
100
AcDbSpline
 70
8
 71
3
 72
8
 73
4
 74
0
 40
0
 40
0
 40
0
 40
0
 40
1
 40
1
 40
1
 40
1
 10
118890.787095
 20
57550.374285
 30
0.0
 10
118890.787095
 20
57911.021082
 30
0.0
 10
118747.520712
 20
58256.896725
 30
0.0
 10
118492.504917
 20
58511.912521
 30
0.0
  0
SPLINE
  5
30b
100
AcDbEntity
  8
0
 62
7
100
AcDbSpline
 70
8
 71
3
 72
8
 73
4
 74
0
 40
0
 40
0
 40
0
 40
0
 40
1
 40
1
 40
1
 40
1
 10
118492.504917
 20
58511.912521
 30
0.0
 10
118237.489121
 20
58766.928317
 30
0.0
 10
117891.613477
 20
58910.194699
 30
0.0
 10
117530.966680
 20
58910.194699
 30
0.0
  0
LWPOLYLINE
  5
30c
100
AcDbEntity
  8
0
 62
7
100
AcDbPolyline
 90
1
 70
1
 10
134227.961947
 20
56760.585709
 30
0.0
  0
SPLINE
  5
30d
100
AcDbEntity
  8
0
 62
7
100
AcDbSpline
 70
8
 71
3
 72
8
 73
4
 74
0
 40
0
 40
0
 40
0
 40
0
 40
1
 40
1
 40
1
 40
1
 10
140999.960027
 20
9201.598191
 30
0.0
 10
140449.964010
 20
9201.598191
 30
0.0
 10
139954.124142
 20
8870.288584
 30
0.0
 10
139743.649778
 20
8362.158520
 30
0.0
  0
SPLINE
  5
30e
100
AcDbEntity
  8
0
 62
7
100
AcDbSpline
 70
8
 71
3
 72
8
 73
4
 74
0
 40
0
 40
0
 40
0
 40
0
 40
1
 40
1
 40
1
 40
1
 10
139743.649778
 20
8362.158520
 30
0.0
 10
139533.175414
 20
7854.028457
 30
0.0
 10
139649.515877
 20
7269.145454
 30
0.0
 10
140038.421791
 20
6880.239541
 30
0.0
  0
SPLINE
  5
30f
100
AcDbEntity
  8
0
 62
7
100
AcDbSpline
 70
8
 71
3
 72
8
 73
4
 74
0
 40
0
 40
0
 40
0
 40
0
 40
1
 40
1
 40
1
 40
1
 10
140038.421791
 20
6880.239541
 30
0.0
 10
140427.327704
 20
6491.333627
 30
0.0
 10
141012.210707
 20
6374.993164
 30
0.0
 10
141520.340771
 20
6585.467528
 30
0.0
  0
SPLINE
  5
310
100
AcDbEntity
  8
0
 62
7
100
AcDbSpline
 70
8
 71
3
 72
8
 73
4
 74
0
 40
0
 40
0
 40
0
 40
0
 40
1
 40
1
 40
1
 40
1
 10
141520.340771
 20
6585.467528
 30
0.0
 10
142028.470834
 20
6795.941892
 30
0.0
 10
142359.780441
 20
7291.781759
 30
0.0
 10
142359.780441
 20
7841.777777
 30
0.0
  0
SPLINE
  5
311
100
AcDbEntity
  8
0
 62
7
100
AcDbSpline
 70
8
 71
3
 72
8
 73
4
 74
0
 40
0
 40
0
 40
0
 40
0
 40
1
 40
1
 40
1
 40
1
 10
142359.780441
 20
7841.777777
 30
0.0
 10
142359.780441
 20
8202.424574
 30
0.0
 10
142216.514059
 20
8548.300217
 30
0.0
 10
141961.498263
 20
8803.316013
 30
0.0
  0
SPLINE
  5
312
100
AcDbEntity
  8
0
 62
7
100
AcDbSpline
 70
8
 71
3
 72
8
 73
4
 74
0
 40
0
 40
0
 40
0
 40
0
 40
1
 40
1
 40
1
 40
1
 10
141961.498263
 20
8803.316013
 30
0.0
 10
141706.482467
 20
9058.331809
 30
0.0
 10
141360.606824
 20
9201.598191
 30
0.0
 10
140999.960027
 20
9201.598191
 30
0.0
  0
LWPOLYLINE
  5
313
100
AcDbEntity
  8
0
 62
7
100
AcDbPolyline
 90
1
 70
1
 10
117530.966680
 20
58910.194699
 30
0.0
  0
SPLINE
  5
314
100
AcDbEntity
  8
0
 62
7
100
AcDbSpline
 70
8
 71
3
 72
8
 73
4
 74
0
 40
0
 40
0
 40
0
 40
0
 40
1
 40
1
 40
1
 40
1
 10
145688.958698
 20
26343.292332
 30
0.0
 10
145138.962680
 20
26343.292332
 30
0.0
 10
144643.122812
 20
26011.982724
 30
0.0
 10
144432.648449
 20
25503.852661
 30
0.0
  0
SPLINE
  5
315
100
AcDbEntity
  8
0
 62
7
100
AcDbSpline
 70
8
 71
3
 72
8
 73
4
 74
0
 40
0
 40
0
 40
0
 40
0
 40
1
 40
1
 40
1
 40
1
 10
144432.648449
 20
25503.852661
 30
0.0
 10
144222.174085
 20
24995.722597
 30
0.0
 10
144338.514548
 20
24410.839594
 30
0.0
 10
144727.420461
 20
24021.933681
 30
0.0
  0
SPLINE
  5
316
100
AcDbEntity
  8
0
 62
7
100
AcDbSpline
 70
8
 71
3
 72
8
 73
4
 74
0
 40
0
 40
0
 40
0
 40
0
 40
1
 40
1
 40
1
 40
1
 10
144727.420461
 20
24021.933681
 30
0.0
 10
145116.326375
 20
23633.027767
 30
0.0
 10
145701.209378
 20
23516.687305
 30
0.0
 10
146209.339441
 20
23727.161668
 30
0.0
  0
SPLINE
  5
317
100
AcDbEntity
  8
0
 62
7
100
AcDbSpline
 70
8
 71
3
 72
8
 73
4
 74
0
 40
0
 40
0
 40
0
 40
0
 40
1
 40
1
 40
1
 40
1
 10
146209.339441
 20
23727.161668
 30
0.0
 10
146717.469505
 20
23937.636032
 30
0.0
 10
147048.779112
 20
24433.475900
 30
0.0
 10
147048.779112
 20
24983.471917
 30
0.0
  0
SPLINE
  5
318
100
AcDbEntity
  8
0
 62
7
100
AcDbSpline
 70
8
 71
3
 72
8
 73
4
 74
0
 40
0
 40
0
 40
0
 40
0
 40
1
 40
1
 40
1
 40
1
 10
147048.779112
 20
24983.471917
 30
0.0
 10
147048.779112
 20
25344.118714
 30
0.0
 10
146905.512730
 20
25689.994358
 30
0.0
 10
146650.496934
 20
25945.010154
 30
0.0
  0
SPLINE
  5
319
100
AcDbEntity
  8
0
 62
7
100
AcDbSpline
 70
8
 71
3
 72
8
 73
4
 74
0
 40
0
 40
0
 40
0
 40
0
 40
1
 40
1
 40
1
 40
1
 10
146650.496934
 20
25945.010154
 30
0.0
 10
146395.481138
 20
26200.025949
 30
0.0
 10
146049.605495
 20
26343.292332
 30
0.0
 10
145688.958698
 20
26343.292332
 30
0.0
  0
LWPOLYLINE
  5
31a
100
AcDbEntity
  8
0
 62
7
100
AcDbPolyline
 90
1
 70
1
 10
140999.960027
 20
9201.598191
 30
0.0
  0
SPLINE
  5
31b
100
AcDbEntity
  8
0
 62
7
100
AcDbSpline
 70
8
 71
3
 72
8
 73
4
 74
0
 40
0
 40
0
 40
0
 40
0
 40
1
 40
1
 40
1
 40
1
 10
147692.958129
 20
12193.699343
 30
0.0
 10
147142.962112
 20
12193.699343
 30
0.0
 10
146647.122244
 20
11862.389736
 30
0.0
 10
146436.647881
 20
11354.259672
 30
0.0
  0
SPLINE
  5
31c
100
AcDbEntity
  8
0
 62
7
100
AcDbSpline
 70
8
 71
3
 72
8
 73
4
 74
0
 40
0
 40
0
 40
0
 40
0
 40
1
 40
1
 40
1
 40
1
 10
146436.647881
 20
11354.259672
 30
0.0
 10
146226.173517
 20
10846.129609
 30
0.0
 10
146342.513980
 20
10261.246606
 30
0.0
 10
146731.419893
 20
9872.340692
 30
0.0
  0
SPLINE
  5
31d
100
AcDbEntity
  8
0
 62
7
100
AcDbSpline
 70
8
 71
3
 72
8
 73
4
 74
0
 40
0
 40
0
 40
0
 40
0
 40
1
 40
1
 40
1
 40
1
 10
146731.419893
 20
9872.340692
 30
0.0
 10
147120.325807
 20
9483.434779
 30
0.0
 10
147705.208810
 20
9367.094316
 30
0.0
 10
148213.338873
 20
9577.568680
 30
0.0
  0
SPLINE
  5
31e
100
AcDbEntity
  8
0
 62
7
100
AcDbSpline
 70
8
 71
3
 72
8
 73
4
 74
0
 40
0
 40
0
 40
0
 40
0
 40
1
 40
1
 40
1
 40
1
 10
148213.338873
 20
9577.568680
 30
0.0
 10
148721.468937
 20
9788.043044
 30
0.0
 10
149052.778544
 20
10283.882911
 30
0.0
 10
149052.778544
 20
10833.878929
 30
0.0
  0
SPLINE
  5
31f
100
AcDbEntity
  8
0
 62
7
100
AcDbSpline
 70
8
 71
3
 72
8
 73
4
 74
0
 40
0
 40
0
 40
0
 40
0
 40
1
 40
1
 40
1
 40
1
 10
149052.778544
 20
10833.878929
 30
0.0
 10
149052.778544
 20
11194.525726
 30
0.0
 10
148909.512162
 20
11540.401369
 30
0.0
 10
148654.496366
 20
11795.417165
 30
0.0
  0
SPLINE
  5
320
100
AcDbEntity
  8
0
 62
7
100
AcDbSpline
 70
8
 71
3
 72
8
 73
4
 74
0
 40
0
 40
0
 40
0
 40
0
 40
1
 40
1
 40
1
 40
1
 10
148654.496366
 20
11795.417165
 30
0.0
 10
148399.480570
 20
12050.432961
 30
0.0
 10
148053.604927
 20
12193.699343
 30
0.0
 10
147692.958129
 20
12193.699343
 30
0.0
  0
LWPOLYLINE
  5
321
100
AcDbEntity
  8
0
 62
7
100
AcDbPolyline
 90
1
 70
1
 10
145688.958698
 20
26343.292332
 30
0.0
  0
SPLINE
  5
322
100
AcDbEntity
  8
0
 62
7
100
AcDbSpline
 70
8
 71
3
 72
8
 73
4
 74
0
 40
0
 40
0
 40
0
 40
0
 40
1
 40
1
 40
1
 40
1
 10
129605.963257
 20
16184.257412
 30
0.0
 10
129008.823457
 20
16184.257412
 30
0.0
 10
128470.481888
 20
15824.549075
 30
0.0
 10
128241.966380
 20
15272.863836
 30
0.0
  0
SPLINE
  5
323
100
AcDbEntity
  8
0
 62
7
100
AcDbSpline
 70
8
 71
3
 72
8
 73
4
 74
0
 40
0
 40
0
 40
0
 40
0
 40
1
 40
1
 40
1
 40
1
 10
128241.966380
 20
15272.863836
 30
0.0
 10
128013.450871
 20
14721.178597
 30
0.0
 10
128139.763642
 20
14086.161418
 30
0.0
 10
128562.005243
 20
13663.919817
 30
0.0
  0
SPLINE
  5
324
100
AcDbEntity
  8
0
 62
7
100
AcDbSpline
 70
8
 71
3
 72
8
 73
4
 74
0
 40
0
 40
0
 40
0
 40
0
 40
1
 40
1
 40
1
 40
1
 10
128562.005243
 20
13663.919817
 30
0.0
 10
128984.246845
 20
13241.678215
 30
0.0
 10
129619.264024
 20
13115.365445
 30
0.0
 10
130170.949263
 20
13343.880953
 30
0.0
  0
SPLINE
  5
325
100
AcDbEntity
  8
0
 62
7
100
AcDbSpline
 70
8
 71
3
 72
8
 73
4
 74
0
 40
0
 40
0
 40
0
 40
0
 40
1
 40
1
 40
1
 40
1
 10
130170.949263
 20
13343.880953
 30
0.0
 10
130722.634502
 20
13572.396461
 30
0.0
 10
131082.342839
 20
14110.738031
 30
0.0
 10
131082.342839
 20
14707.877830
 30
0.0
  0
SPLINE
  5
326
100
AcDbEntity
  8
0
 62
7
100
AcDbSpline
 70
8
 71
3
 72
8
 73
4
 74
0
 40
0
 40
0
 40
0
 40
0
 40
1
 40
1
 40
1
 40
1
 10
131082.342839
 20
14707.877830
 30
0.0
 10
131082.342839
 20
15099.438041
 30
0.0
 10
130926.796151
 20
15474.960964
 30
0.0
 10
130649.921271
 20
15751.835844
 30
0.0
  0
SPLINE
  5
327
100
AcDbEntity
  8
0
 62
7
100
AcDbSpline
 70
8
 71
3
 72
8
 73
4
 74
0
 40
0
 40
0
 40
0
 40
0
 40
1
 40
1
 40
1
 40
1
 10
130649.921271
 20
15751.835844
 30
0.0
 10
130373.046391
 20
16028.710724
 30
0.0
 10
129997.523467
 20
16184.257412
 30
0.0
 10
129605.963257
 20
16184.257412
 30
0.0
  0
LWPOLYLINE
  5
328
100
AcDbEntity
  8
0
 62
7
100
AcDbPolyline
 90
1
 70
1
 10
147692.958129
 20
12193.699343
 30
0.0
  0
SPLINE
  5
329
100
AcDbEntity
  8
0
 62
7
100
AcDbSpline
 70
8
 71
3
 72
8
 73
4
 74
0
 40
0
 40
0
 40
0
 40
0
 40
1
 40
1
 40
1
 40
1
 10
90763.474269
 20
52467.743126
 30
0.0
 10
90166.335682
 20
52467.743126
 30
0.0
 10
89627.995207
 20
52108.035520
 30
0.0
 10
89399.480163
 20
51556.351402
 30
0.0
  0
SPLINE
  5
32a
100
AcDbEntity
  8
0
 62
7
100
AcDbSpline
 70
8
 71
3
 72
8
 73
4
 74
0
 40
0
 40
0
 40
0
 40
0
 40
1
 40
1
 40
1
 40
1
 10
89399.480163
 20
51556.351402
 30
0.0
 10
89170.965119
 20
51004.667284
 30
0.0
 10
89297.277633
 20
50369.651395
 30
0.0
 10
89719.518376
 20
49947.410652
 30
0.0
  0
SPLINE
  5
32b
100
AcDbEntity
  8
0
 62
7
100
AcDbSpline
 70
8
 71
3
 72
8
 73
4
 74
0
 40
0
 40
0
 40
0
 40
0
 40
1
 40
1
 40
1
 40
1
 10
89719.518376
 20
49947.410652
 30
0.0
 10
90141.759120
 20
49525.169908
 30
0.0
 10
90776.775008
 20
49398.857394
 30
0.0
 10
91328.459126
 20
49627.372438
 30
0.0
  0
SPLINE
  5
32c
100
AcDbEntity
  8
0
 62
7
100
AcDbSpline
 70
8
 71
3
 72
8
 73
4
 74
0
 40
0
 40
0
 40
0
 40
0
 40
1
 40
1
 40
1
 40
1
 10
91328.459126
 20
49627.372438
 30
0.0
 10
91880.143244
 20
49855.887482
 30
0.0
 10
92239.850850
 20
50394.227958
 30
0.0
 10
92239.850850
 20
50991.366544
 30
0.0
  0
SPLINE
  5
32d
100
AcDbEntity
  8
0
 62
7
100
AcDbSpline
 70
8
 71
3
 72
8
 73
4
 74
0
 40
0
 40
0
 40
0
 40
0
 40
1
 40
1
 40
1
 40
1
 10
92239.850850
 20
50991.366544
 30
0.0
 10
92239.850850
 20
51382.925959
 30
0.0
 10
92084.304478
 20
51758.448119
 30
0.0
 10
91807.430161
 20
52035.322436
 30
0.0
  0
SPLINE
  5
32e
100
AcDbEntity
  8
0
 62
7
100
AcDbSpline
 70
8
 71
3
 72
8
 73
4
 74
0
 40
0
 40
0
 40
0
 40
0
 40
1
 40
1
 40
1
 40
1
 10
91807.430161
 20
52035.322436
 30
0.0
 10
91530.555844
 20
52312.196754
 30
0.0
 10
91155.033683
 20
52467.743126
 30
0.0
 10
90763.474269
 20
52467.743126
 30
0.0
  0
LWPOLYLINE
  5
32f
100
AcDbEntity
  8
0
 62
7
100
AcDbPolyline
 90
1
 70
1
 10
129605.963257
 20
16184.257412
 30
0.0
  0
SPLINE
  5
330
100
AcDbEntity
  8
0
 62
7
100
AcDbSpline
 70
8
 71
3
 72
8
 73
4
 74
0
 40
0
 40
0
 40
0
 40
0
 40
1
 40
1
 40
1
 40
1
 10
85802.873675
 20
58099.185329
 30
0.0
 10
85252.877658
 20
58099.185329
 30
0.0
 10
84757.037790
 20
57767.875722
 30
0.0
 10
84546.563426
 20
57259.745658
 30
0.0
  0
SPLINE
  5
331
100
AcDbEntity
  8
0
 62
7
100
AcDbSpline
 70
8
 71
3
 72
8
 73
4
 74
0
 40
0
 40
0
 40
0
 40
0
 40
1
 40
1
 40
1
 40
1
 10
84546.563426
 20
57259.745658
 30
0.0
 10
84336.089063
 20
56751.615595
 30
0.0
 10
84452.429525
 20
56166.732592
 30
0.0
 10
84841.335439
 20
55777.826678
 30
0.0
  0
SPLINE
  5
332
100
AcDbEntity
  8
0
 62
7
100
AcDbSpline
 70
8
 71
3
 72
8
 73
4
 74
0
 40
0
 40
0
 40
0
 40
0
 40
1
 40
1
 40
1
 40
1
 10
84841.335439
 20
55777.826678
 30
0.0
 10
85230.241352
 20
55388.920765
 30
0.0
 10
85815.124355
 20
55272.580302
 30
0.0
 10
86323.254419
 20
55483.054666
 30
0.0
  0
SPLINE
  5
333
100
AcDbEntity
  8
0
 62
7
100
AcDbSpline
 70
8
 71
3
 72
8
 73
4
 74
0
 40
0
 40
0
 40
0
 40
0
 40
1
 40
1
 40
1
 40
1
 10
86323.254419
 20
55483.054666
 30
0.0
 10
86831.384482
 20
55693.529029
 30
0.0
 10
87162.694090
 20
56189.368897
 30
0.0
 10
87162.694090
 20
56739.364915
 30
0.0
  0
SPLINE
  5
334
100
AcDbEntity
  8
0
 62
7
100
AcDbSpline
 70
8
 71
3
 72
8
 73
4
 74
0
 40
0
 40
0
 40
0
 40
0
 40
1
 40
1
 40
1
 40
1
 10
87162.694090
 20
56739.364915
 30
0.0
 10
87162.694090
 20
57490.372992
 30
0.0
 10
86553.881753
 20
58099.185329
 30
0.0
 10
85802.873675
 20
58099.185329
 30
0.0
  0
LWPOLYLINE
  5
335
100
AcDbEntity
  8
0
 62
7
100
AcDbPolyline
 90
1
 70
1
 10
90763.474269
 20
52467.743126
 30
0.0
  0
SPLINE
  5
336
100
AcDbEntity
  8
0
 62
7
100
AcDbSpline
 70
8
 71
3
 72
8
 73
4
 74
0
 40
0
 40
0
 40
0
 40
0
 40
1
 40
1
 40
1
 40
1
 10
69346.183341
 20
52074.043237
 30
0.0
 10
68749.044754
 20
52074.043237
 30
0.0
 10
68210.704278
 20
51714.335631
 30
0.0
 10
67982.189235
 20
51162.651513
 30
0.0
  0
SPLINE
  5
337
100
AcDbEntity
  8
0
 62
7
100
AcDbSpline
 70
8
 71
3
 72
8
 73
4
 74
0
 40
0
 40
0
 40
0
 40
0
 40
1
 40
1
 40
1
 40
1
 10
67982.189235
 20
51162.651513
 30
0.0
 10
67753.674191
 20
50610.967395
 30
0.0
 10
67879.986705
 20
49975.951507
 30
0.0
 10
68302.227448
 20
49553.710763
 30
0.0
  0
SPLINE
  5
338
100
AcDbEntity
  8
0
 62
7
100
AcDbSpline
 70
8
 71
3
 72
8
 73
4
 74
0
 40
0
 40
0
 40
0
 40
0
 40
1
 40
1
 40
1
 40
1
 10
68302.227448
 20
49553.710763
 30
0.0
 10
68724.468192
 20
49131.470020
 30
0.0
 10
69359.484080
 20
49005.157506
 30
0.0
 10
69911.168198
 20
49233.672550
 30
0.0
  0
SPLINE
  5
339
100
AcDbEntity
  8
0
 62
7
100
AcDbSpline
 70
8
 71
3
 72
8
 73
4
 74
0
 40
0
 40
0
 40
0
 40
0
 40
1
 40
1
 40
1
 40
1
 10
69911.168198
 20
49233.672550
 30
0.0
 10
70462.852316
 20
49462.187594
 30
0.0
 10
70822.559922
 20
50000.528069
 30
0.0
 10
70822.559922
 20
50597.666656
 30
0.0
  0
SPLINE
  5
33a
100
AcDbEntity
  8
0
 62
7
100
AcDbSpline
 70
8
 71
3
 72
8
 73
4
 74
0
 40
0
 40
0
 40
0
 40
0
 40
1
 40
1
 40
1
 40
1
 10
70822.559922
 20
50597.666656
 30
0.0
 10
70822.559922
 20
50989.226070
 30
0.0
 10
70667.013550
 20
51364.748231
 30
0.0
 10
70390.139233
 20
51641.622548
 30
0.0
  0
SPLINE
  5
33b
100
AcDbEntity
  8
0
 62
7
100
AcDbSpline
 70
8
 71
3
 72
8
 73
4
 74
0
 40
0
 40
0
 40
0
 40
0
 40
1
 40
1
 40
1
 40
1
 10
70390.139233
 20
51641.622548
 30
0.0
 10
70113.264916
 20
51918.496865
 30
0.0
 10
69737.742755
 20
52074.043237
 30
0.0
 10
69346.183341
 20
52074.043237
 30
0.0
  0
LWPOLYLINE
  5
33c
100
AcDbEntity
  8
0
 62
7
100
AcDbPolyline
 90
1
 70
1
 10
85802.873675
 20
58099.185329
 30
0.0
  0
SPLINE
  5
33d
100
AcDbEntity
  8
0
 62
7
100
AcDbSpline
 70
8
 71
3
 72
8
 73
4
 74
0
 40
0
 40
0
 40
0
 40
0
 40
1
 40
1
 40
1
 40
1
 10
62338.283327
 20
57075.585619
 30
0.0
 10
61788.287310
 20
57075.585619
 30
0.0
 10
61292.447442
 20
56744.276012
 30
0.0
 10
61081.973078
 20
56236.145948
 30
0.0
  0
SPLINE
  5
33e
100
AcDbEntity
  8
0
 62
7
100
AcDbSpline
 70
8
 71
3
 72
8
 73
4
 74
0
 40
0
 40
0
 40
0
 40
0
 40
1
 40
1
 40
1
 40
1
 10
61081.973078
 20
56236.145948
 30
0.0
 10
60871.498715
 20
55728.015885
 30
0.0
 10
60987.839177
 20
55143.132882
 30
0.0
 10
61376.745091
 20
54754.226968
 30
0.0
  0
SPLINE
  5
33f
100
AcDbEntity
  8
0
 62
7
100
AcDbSpline
 70
8
 71
3
 72
8
 73
4
 74
0
 40
0
 40
0
 40
0
 40
0
 40
1
 40
1
 40
1
 40
1
 10
61376.745091
 20
54754.226968
 30
0.0
 10
61765.651005
 20
54365.321055
 30
0.0
 10
62350.534007
 20
54248.980592
 30
0.0
 10
62858.664071
 20
54459.454956
 30
0.0
  0
SPLINE
  5
340
100
AcDbEntity
  8
0
 62
7
100
AcDbSpline
 70
8
 71
3
 72
8
 73
4
 74
0
 40
0
 40
0
 40
0
 40
0
 40
1
 40
1
 40
1
 40
1
 10
62858.664071
 20
54459.454956
 30
0.0
 10
63366.794134
 20
54669.929320
 30
0.0
 10
63698.103742
 20
55165.769187
 30
0.0
 10
63698.103742
 20
55715.765205
 30
0.0
  0
SPLINE
  5
341
100
AcDbEntity
  8
0
 62
7
100
AcDbSpline
 70
8
 71
3
 72
8
 73
4
 74
0
 40
0
 40
0
 40
0
 40
0
 40
1
 40
1
 40
1
 40
1
 10
63698.103742
 20
55715.765205
 30
0.0
 10
63698.103742
 20
56466.773282
 30
0.0
 10
63089.291405
 20
57075.585619
 30
0.0
 10
62338.283327
 20
57075.585619
 30
0.0
  0
LWPOLYLINE
  5
342
100
AcDbEntity
  8
0
 62
7
100
AcDbPolyline
 90
1
 70
1
 10
69346.183341
 20
52074.043237
 30
0.0
  0
SPLINE
  5
343
100
AcDbEntity
  8
0
 62
7
100
AcDbSpline
 70
8
 71
3
 72
8
 73
4
 74
0
 40
0
 40
0
 40
0
 40
0
 40
1
 40
1
 40
1
 40
1
 10
43676.885618
 20
53255.142902
 30
0.0
 10
43079.747031
 20
53255.142902
 30
0.0
 10
42541.406556
 20
52895.435296
 30
0.0
 10
42312.891512
 20
52343.751179
 30
0.0
  0
SPLINE
  5
344
100
AcDbEntity
  8
0
 62
7
100
AcDbSpline
 70
8
 71
3
 72
8
 73
4
 74
0
 40
0
 40
0
 40
0
 40
0
 40
1
 40
1
 40
1
 40
1
 10
42312.891512
 20
52343.751179
 30
0.0
 10
42084.376468
 20
51792.067061
 30
0.0
 10
42210.688982
 20
51157.051172
 30
0.0
 10
42632.929725
 20
50734.810429
 30
0.0
  0
SPLINE
  5
345
100
AcDbEntity
  8
0
 62
7
100
AcDbSpline
 70
8
 71
3
 72
8
 73
4
 74
0
 40
0
 40
0
 40
0
 40
0
 40
1
 40
1
 40
1
 40
1
 10
42632.929725
 20
50734.810429
 30
0.0
 10
43055.170469
 20
50312.569685
 30
0.0
 10
43690.186357
 20
50186.257171
 30
0.0
 10
44241.870475
 20
50414.772215
 30
0.0
  0
SPLINE
  5
346
100
AcDbEntity
  8
0
 62
7
100
AcDbSpline
 70
8
 71
3
 72
8
 73
4
 74
0
 40
0
 40
0
 40
0
 40
0
 40
1
 40
1
 40
1
 40
1
 10
44241.870475
 20
50414.772215
 30
0.0
 10
44793.554593
 20
50643.287259
 30
0.0
 10
45153.262199
 20
51181.627735
 30
0.0
 10
45153.262199
 20
51778.766321
 30
0.0
  0
SPLINE
  5
347
100
AcDbEntity
  8
0
 62
7
100
AcDbSpline
 70
8
 71
3
 72
8
 73
4
 74
0
 40
0
 40
0
 40
0
 40
0
 40
1
 40
1
 40
1
 40
1
 10
45153.262199
 20
51778.766321
 30
0.0
 10
45153.262199
 20
52170.325735
 30
0.0
 10
44997.715827
 20
52545.847896
 30
0.0
 10
44720.841510
 20
52822.722213
 30
0.0
  0
SPLINE
  5
348
100
AcDbEntity
  8
0
 62
7
100
AcDbSpline
 70
8
 71
3
 72
8
 73
4
 74
0
 40
0
 40
0
 40
0
 40
0
 40
1
 40
1
 40
1
 40
1
 10
44720.841510
 20
52822.722213
 30
0.0
 10
44443.967193
 20
53099.596531
 30
0.0
 10
44068.445032
 20
53255.142902
 30
0.0
 10
43676.885618
 20
53255.142902
 30
0.0
  0
LWPOLYLINE
  5
349
100
AcDbEntity
  8
0
 62
7
100
AcDbPolyline
 90
1
 70
1
 10
62338.283327
 20
57075.585619
 30
0.0
  0
SPLINE
  5
34a
100
AcDbEntity
  8
0
 62
7
100
AcDbSpline
 70
8
 71
3
 72
8
 73
4
 74
0
 40
0
 40
0
 40
0
 40
0
 40
1
 40
1
 40
1
 40
1
 10
35645.387895
 20
57075.585619
 30
0.0
 10
35095.391877
 20
57075.585619
 30
0.0
 10
34599.552010
 20
56744.276012
 30
0.0
 10
34389.077646
 20
56236.145948
 30
0.0
  0
SPLINE
  5
34b
100
AcDbEntity
  8
0
 62
7
100
AcDbSpline
 70
8
 71
3
 72
8
 73
4
 74
0
 40
0
 40
0
 40
0
 40
0
 40
1
 40
1
 40
1
 40
1
 10
34389.077646
 20
56236.145948
 30
0.0
 10
34178.603282
 20
55728.015885
 30
0.0
 10
34294.943745
 20
55143.132882
 30
0.0
 10
34683.849658
 20
54754.226968
 30
0.0
  0
SPLINE
  5
34c
100
AcDbEntity
  8
0
 62
7
100
AcDbSpline
 70
8
 71
3
 72
8
 73
4
 74
0
 40
0
 40
0
 40
0
 40
0
 40
1
 40
1
 40
1
 40
1
 10
34683.849658
 20
54754.226968
 30
0.0
 10
35072.755572
 20
54365.321055
 30
0.0
 10
35657.638575
 20
54248.980592
 30
0.0
 10
36165.768638
 20
54459.454956
 30
0.0
  0
SPLINE
  5
34d
100
AcDbEntity
  8
0
 62
7
100
AcDbSpline
 70
8
 71
3
 72
8
 73
4
 74
0
 40
0
 40
0
 40
0
 40
0
 40
1
 40
1
 40
1
 40
1
 10
36165.768638
 20
54459.454956
 30
0.0
 10
36673.898702
 20
54669.929320
 30
0.0
 10
37005.208309
 20
55165.769187
 30
0.0
 10
37005.208309
 20
55715.765205
 30
0.0
  0
SPLINE
  5
34e
100
AcDbEntity
  8
0
 62
7
100
AcDbSpline
 70
8
 71
3
 72
8
 73
4
 74
0
 40
0
 40
0
 40
0
 40
0
 40
1
 40
1
 40
1
 40
1
 10
37005.208309
 20
55715.765205
 30
0.0
 10
37005.208309
 20
56076.412002
 30
0.0
 10
36861.941927
 20
56422.287645
 30
0.0
 10
36606.926131
 20
56677.303441
 30
0.0
  0
SPLINE
  5
34f
100
AcDbEntity
  8
0
 62
7
100
AcDbSpline
 70
8
 71
3
 72
8
 73
4
 74
0
 40
0
 40
0
 40
0
 40
0
 40
1
 40
1
 40
1
 40
1
 10
36606.926131
 20
56677.303441
 30
0.0
 10
36351.910335
 20
56932.319237
 30
0.0
 10
36006.034692
 20
57075.585619
 30
0.0
 10
35645.387895
 20
57075.585619
 30
0.0
  0
LWPOLYLINE
  5
350
100
AcDbEntity
  8
0
 62
7
100
AcDbPolyline
 90
1
 70
1
 10
43676.885618
 20
53255.142902
 30
0.0
  0
SPLINE
  5
351
100
AcDbEntity
  8
0
 62
7
100
AcDbSpline
 70
8
 71
3
 72
8
 73
4
 74
0
 40
0
 40
0
 40
0
 40
0
 40
1
 40
1
 40
1
 40
1
 10
96472.175650
 20
58049.984843
 30
0.0
 10
95926.143564
 20
58049.984843
 30
0.0
 10
95433.877313
 20
57721.063050
 30
0.0
 10
95224.919880
 20
57216.595181
 30
0.0
  0
SPLINE
  5
352
100
AcDbEntity
  8
0
 62
7
100
AcDbSpline
 70
8
 71
3
 72
8
 73
4
 74
0
 40
0
 40
0
 40
0
 40
0
 40
1
 40
1
 40
1
 40
1
 10
95224.919880
 20
57216.595181
 30
0.0
 10
95015.962447
 20
56712.127313
 30
0.0
 10
95131.464421
 20
56131.459678
 30
0.0
 10
95517.567412
 20
55745.356687
 30
0.0
  0
SPLINE
  5
353
100
AcDbEntity
  8
0
 62
7
100
AcDbSpline
 70
8
 71
3
 72
8
 73
4
 74
0
 40
0
 40
0
 40
0
 40
0
 40
1
 40
1
 40
1
 40
1
 10
95517.567412
 20
55745.356687
 30
0.0
 10
95903.670403
 20
55359.253697
 30
0.0
 10
96484.338038
 20
55243.751723
 30
0.0
 10
96988.805906
 20
55452.709156
 30
0.0
  0
SPLINE
  5
354
100
AcDbEntity
  8
0
 62
7
100
AcDbSpline
 70
8
 71
3
 72
8
 73
4
 74
0
 40
0
 40
0
 40
0
 40
0
 40
1
 40
1
 40
1
 40
1
 10
96988.805906
 20
55452.709156
 30
0.0
 10
97493.273775
 20
55661.666589
 30
0.0
 10
97822.195568
 20
56153.932839
 30
0.0
 10
97822.195568
 20
56699.964926
 30
0.0
  0
SPLINE
  5
355
100
AcDbEntity
  8
0
 62
7
100
AcDbSpline
 70
8
 71
3
 72
8
 73
4
 74
0
 40
0
 40
0
 40
0
 40
0
 40
1
 40
1
 40
1
 40
1
 10
97822.195568
 20
56699.964926
 30
0.0
 10
97822.195568
 20
57058.012469
 30
0.0
 10
97679.961735
 20
57401.395318
 30
0.0
 10
97426.783889
 20
57654.573164
 30
0.0
  0
SPLINE
  5
356
100
AcDbEntity
  8
0
 62
7
100
AcDbSpline
 70
8
 71
3
 72
8
 73
4
 74
0
 40
0
 40
0
 40
0
 40
0
 40
1
 40
1
 40
1
 40
1
 10
97426.783889
 20
57654.573164
 30
0.0
 10
97173.606043
 20
57907.751010
 30
0.0
 10
96830.223194
 20
58049.984843
 30
0.0
 10
96472.175650
 20
58049.984843
 30
0.0
  0
LWPOLYLINE
  5
357
100
AcDbEntity
  8
0
 62
7
100
AcDbPolyline
 90
1
 70
1
 10
35645.387895
 20
57075.585619
 30
0.0
  0
SPLINE
  5
358
100
AcDbEntity
  8
0
 62
7
100
AcDbSpline
 70
8
 71
3
 72
8
 73
4
 74
0
 40
0
 40
0
 40
0
 40
0
 40
1
 40
1
 40
1
 40
1
 10
75920.978477
 20
56711.385222
 30
0.0
 10
75374.946390
 20
56711.385222
 30
0.0
 10
74882.680140
 20
56382.463430
 30
0.0
 10
74673.722707
 20
55877.995561
 30
0.0
  0
SPLINE
  5
359
100
AcDbEntity
  8
0
 62
7
100
AcDbSpline
 70
8
 71
3
 72
8
 73
4
 74
0
 40
0
 40
0
 40
0
 40
0
 40
1
 40
1
 40
1
 40
1
 10
74673.722707
 20
55877.995561
 30
0.0
 10
74464.765274
 20
55373.527692
 30
0.0
 10
74580.267247
 20
54792.860058
 30
0.0
 10
74966.370238
 20
54406.757067
 30
0.0
  0
SPLINE
  5
35a
100
AcDbEntity
  8
0
 62
7
100
AcDbSpline
 70
8
 71
3
 72
8
 73
4
 74
0
 40
0
 40
0
 40
0
 40
0
 40
1
 40
1
 40
1
 40
1
 10
74966.370238
 20
54406.757067
 30
0.0
 10
75352.473229
 20
54020.654076
 30
0.0
 10
75933.140864
 20
53905.152102
 30
0.0
 10
76437.608732
 20
54114.109535
 30
0.0
  0
SPLINE
  5
35b
100
AcDbEntity
  8
0
 62
7
100
AcDbSpline
 70
8
 71
3
 72
8
 73
4
 74
0
 40
0
 40
0
 40
0
 40
0
 40
1
 40
1
 40
1
 40
1
 10
76437.608732
 20
54114.109535
 30
0.0
 10
76942.076601
 20
54323.066968
 30
0.0
 10
77270.998394
 20
54815.333219
 30
0.0
 10
77270.998394
 20
55361.365305
 30
0.0
  0
SPLINE
  5
35c
100
AcDbEntity
  8
0
 62
7
100
AcDbSpline
 70
8
 71
3
 72
8
 73
4
 74
0
 40
0
 40
0
 40
0
 40
0
 40
1
 40
1
 40
1
 40
1
 10
77270.998394
 20
55361.365305
 30
0.0
 10
77270.998394
 20
55719.412849
 30
0.0
 10
77128.764561
 20
56062.795697
 30
0.0
 10
76875.586715
 20
56315.973543
 30
0.0
  0
SPLINE
  5
35d
100
AcDbEntity
  8
0
 62
7
100
AcDbSpline
 70
8
 71
3
 72
8
 73
4
 74
0
 40
0
 40
0
 40
0
 40
0
 40
1
 40
1
 40
1
 40
1
 10
76875.586715
 20
56315.973543
 30
0.0
 10
76622.408869
 20
56569.151390
 30
0.0
 10
76279.026020
 20
56711.385222
 30
0.0
 10
75920.978477
 20
56711.385222
 30
0.0
  0
LWPOLYLINE
  5
35e
100
AcDbEntity
  8
0
 62
7
100
AcDbPolyline
 90
1
 70
1
 10
96472.175650
 20
58049.984843
 30
0.0
  0
SPLINE
  5
35f
100
AcDbEntity
  8
0
 62
7
100
AcDbSpline
 70
8
 71
3
 72
8
 73
4
 74
0
 40
0
 40
0
 40
0
 40
0
 40
1
 40
1
 40
1
 40
1
 10
51353.985441
 20
57262.585066
 30
0.0
 10
50807.953355
 20
57262.585066
 30
0.0
 10
50315.687104
 20
56933.663273
 30
0.0
 10
50106.729671
 20
56429.195405
 30
0.0
  0
SPLINE
  5
360
100
AcDbEntity
  8
0
 62
7
100
AcDbSpline
 70
8
 71
3
 72
8
 73
4
 74
0
 40
0
 40
0
 40
0
 40
0
 40
1
 40
1
 40
1
 40
1
 10
50106.729671
 20
56429.195405
 30
0.0
 10
49897.772238
 20
55924.727536
 30
0.0
 10
50013.274212
 20
55344.059902
 30
0.0
 10
50399.377203
 20
54957.956911
 30
0.0
  0
SPLINE
  5
361
100
AcDbEntity
  8
0
 62
7
100
AcDbSpline
 70
8
 71
3
 72
8
 73
4
 74
0
 40
0
 40
0
 40
0
 40
0
 40
1
 40
1
 40
1
 40
1
 10
50399.377203
 20
54957.956911
 30
0.0
 10
50785.480194
 20
54571.853920
 30
0.0
 10
51366.147828
 20
54456.351946
 30
0.0
 10
51870.615697
 20
54665.309379
 30
0.0
  0
SPLINE
  5
362
100
AcDbEntity
  8
0
 62
7
100
AcDbSpline
 70
8
 71
3
 72
8
 73
4
 74
0
 40
0
 40
0
 40
0
 40
0
 40
1
 40
1
 40
1
 40
1
 10
51870.615697
 20
54665.309379
 30
0.0
 10
52375.083566
 20
54874.266812
 30
0.0
 10
52704.005359
 20
55366.533063
 30
0.0
 10
52704.005359
 20
55912.565149
 30
0.0
  0
SPLINE
  5
363
100
AcDbEntity
  8
0
 62
7
100
AcDbSpline
 70
8
 71
3
 72
8
 73
4
 74
0
 40
0
 40
0
 40
0
 40
0
 40
1
 40
1
 40
1
 40
1
 10
52704.005359
 20
55912.565149
 30
0.0
 10
52704.005359
 20
56270.612693
 30
0.0
 10
52561.771526
 20
56613.995541
 30
0.0
 10
52308.593680
 20
56867.173387
 30
0.0
  0
SPLINE
  5
364
100
AcDbEntity
  8
0
 62
7
100
AcDbSpline
 70
8
 71
3
 72
8
 73
4
 74
0
 40
0
 40
0
 40
0
 40
0
 40
1
 40
1
 40
1
 40
1
 10
52308.593680
 20
56867.173387
 30
0.0
 10
52055.415833
 20
57120.351233
 30
0.0
 10
51712.032985
 20
57262.585066
 30
0.0
 10
51353.985441
 20
57262.585066
 30
0.0
  0
LWPOLYLINE
  5
365
100
AcDbEntity
  8
0
 62
7
100
AcDbPolyline
 90
1
 70
1
 10
75920.978477
 20
56711.385222
 30
0.0
  0
SPLINE
  5
366
100
AcDbEntity
  8
0
 62
7
100
AcDbSpline
 70
8
 71
3
 72
8
 73
4
 74
0
 40
0
 40
0
 40
0
 40
0
 40
1
 40
1
 40
1
 40
1
 10
96157.175740
 20
39703.590044
 30
0.0
 10
95411.580327
 20
39703.590044
 30
0.0
 10
94807.155822
 20
39099.165539
 30
0.0
 10
94807.155822
 20
38353.570127
 30
0.0
  0
SPLINE
  5
367
100
AcDbEntity
  8
0
 62
7
100
AcDbSpline
 70
8
 71
3
 72
8
 73
4
 74
0
 40
0
 40
0
 40
0
 40
0
 40
1
 40
1
 40
1
 40
1
 10
94807.155822
 20
38353.570127
 30
0.0
 10
94807.155822
 20
37607.974715
 30
0.0
 10
95411.580327
 20
37003.550210
 30
0.0
 10
96157.175740
 20
37003.550210
 30
0.0
  0
SPLINE
  5
368
100
AcDbEntity
  8
0
 62
7
100
AcDbSpline
 70
8
 71
3
 72
8
 73
4
 74
0
 40
0
 40
0
 40
0
 40
0
 40
1
 40
1
 40
1
 40
1
 10
96157.175740
 20
37003.550210
 30
0.0
 10
96902.771152
 20
37003.550210
 30
0.0
 10
97507.195657
 20
37607.974715
 30
0.0
 10
97507.195657
 20
38353.570127
 30
0.0
  0
SPLINE
  5
369
100
AcDbEntity
  8
0
 62
7
100
AcDbSpline
 70
8
 71
3
 72
8
 73
4
 74
0
 40
0
 40
0
 40
0
 40
0
 40
1
 40
1
 40
1
 40
1
 10
97507.195657
 20
38353.570127
 30
0.0
 10
97507.195657
 20
38711.617671
 30
0.0
 10
97364.961824
 20
39055.000519
 30
0.0
 10
97111.783978
 20
39308.178365
 30
0.0
  0
SPLINE
  5
36a
100
AcDbEntity
  8
0
 62
7
100
AcDbSpline
 70
8
 71
3
 72
8
 73
4
 74
0
 40
0
 40
0
 40
0
 40
0
 40
1
 40
1
 40
1
 40
1
 10
97111.783978
 20
39308.178365
 30
0.0
 10
96858.606132
 20
39561.356211
 30
0.0
 10
96515.223283
 20
39703.590044
 30
0.0
 10
96157.175740
 20
39703.590044
 30
0.0
  0
LWPOLYLINE
  5
36b
100
AcDbEntity
  8
0
 62
7
100
AcDbPolyline
 90
1
 70
1
 10
51353.985441
 20
57262.585066
 30
0.0
  0
SPLINE
  5
36c
100
AcDbEntity
  8
0
 62
7
100
AcDbSpline
 70
8
 71
3
 72
8
 73
4
 74
0
 40
0
 40
0
 40
0
 40
0
 40
1
 40
1
 40
1
 40
1
 10
90724.076280
 20
6317.701509
 30
0.0
 10
90178.044194
 20
6317.701509
 30
0.0
 10
89685.777943
 20
5988.779716
 30
0.0
 10
89476.820510
 20
5484.311847
 30
0.0
  0
SPLINE
  5
36d
100
AcDbEntity
  8
0
 62
7
100
AcDbSpline
 70
8
 71
3
 72
8
 73
4
 74
0
 40
0
 40
0
 40
0
 40
0
 40
1
 40
1
 40
1
 40
1
 10
89476.820510
 20
5484.311847
 30
0.0
 10
89267.863077
 20
4979.843979
 30
0.0
 10
89383.365051
 20
4399.176344
 30
0.0
 10
89769.468042
 20
4013.073353
 30
0.0
  0
SPLINE
  5
36e
100
AcDbEntity
  8
0
 62
7
100
AcDbSpline
 70
8
 71
3
 72
8
 73
4
 74
0
 40
0
 40
0
 40
0
 40
0
 40
1
 40
1
 40
1
 40
1
 10
89769.468042
 20
4013.073353
 30
0.0
 10
90155.571033
 20
3626.970362
 30
0.0
 10
90736.238667
 20
3511.468389
 30
0.0
 10
91240.706536
 20
3720.425822
 30
0.0
  0
SPLINE
  5
36f
100
AcDbEntity
  8
0
 62
7
100
AcDbSpline
 70
8
 71
3
 72
8
 73
4
 74
0
 40
0
 40
0
 40
0
 40
0
 40
1
 40
1
 40
1
 40
1
 10
91240.706536
 20
3720.425822
 30
0.0
 10
91745.174404
 20
3929.383255
 30
0.0
 10
92074.096197
 20
4421.649505
 30
0.0
 10
92074.096197
 20
4967.681592
 30
0.0
  0
SPLINE
  5
370
100
AcDbEntity
  8
0
 62
7
100
AcDbSpline
 70
8
 71
3
 72
8
 73
4
 74
0
 40
0
 40
0
 40
0
 40
0
 40
1
 40
1
 40
1
 40
1
 10
92074.096197
 20
4967.681592
 30
0.0
 10
92074.096197
 20
5325.729135
 30
0.0
 10
91931.862364
 20
5669.111984
 30
0.0
 10
91678.684518
 20
5922.289830
 30
0.0
  0
SPLINE
  5
371
100
AcDbEntity
  8
0
 62
7
100
AcDbSpline
 70
8
 71
3
 72
8
 73
4
 74
0
 40
0
 40
0
 40
0
 40
0
 40
1
 40
1
 40
1
 40
1
 10
91678.684518
 20
5922.289830
 30
0.0
 10
91425.506672
 20
6175.467676
 30
0.0
 10
91082.123824
 20
6317.701509
 30
0.0
 10
90724.076280
 20
6317.701509
 30
0.0
  0
LWPOLYLINE
  5
372
100
AcDbEntity
  8
0
 62
7
100
AcDbPolyline
 90
1
 70
1
 10
96157.175740
 20
39703.590044
 30
0.0
  0
SPLINE
  5
373
100
AcDbEntity
  8
0
 62
7
100
AcDbSpline
 70
8
 71
3
 72
8
 73
4
 74
0
 40
0
 40
0
 40
0
 40
0
 40
1
 40
1
 40
1
 40
1
 10
68204.378664
 20
6160.298554
 30
0.0
 10
67658.346578
 20
6160.298554
 30
0.0
 10
67166.080327
 20
5831.376761
 30
0.0
 10
66957.122894
 20
5326.908892
 30
0.0
  0
SPLINE
  5
374
100
AcDbEntity
  8
0
 62
7
100
AcDbSpline
 70
8
 71
3
 72
8
 73
4
 74
0
 40
0
 40
0
 40
0
 40
0
 40
1
 40
1
 40
1
 40
1
 10
66957.122894
 20
5326.908892
 30
0.0
 10
66748.165461
 20
4822.441023
 30
0.0
 10
66863.667435
 20
4241.773389
 30
0.0
 10
67249.770426
 20
3855.670398
 30
0.0
  0
SPLINE
  5
375
100
AcDbEntity
  8
0
 62
7
100
AcDbSpline
 70
8
 71
3
 72
8
 73
4
 74
0
 40
0
 40
0
 40
0
 40
0
 40
1
 40
1
 40
1
 40
1
 10
67249.770426
 20
3855.670398
 30
0.0
 10
67635.873417
 20
3469.567407
 30
0.0
 10
68216.541051
 20
3354.065433
 30
0.0
 10
68721.008920
 20
3563.022866
 30
0.0
  0
SPLINE
  5
376
100
AcDbEntity
  8
0
 62
7
100
AcDbSpline
 70
8
 71
3
 72
8
 73
4
 74
0
 40
0
 40
0
 40
0
 40
0
 40
1
 40
1
 40
1
 40
1
 10
68721.008920
 20
3563.022866
 30
0.0
 10
69225.476789
 20
3771.980299
 30
0.0
 10
69554.398582
 20
4264.246550
 30
0.0
 10
69554.398582
 20
4810.278636
 30
0.0
  0
SPLINE
  5
377
100
AcDbEntity
  8
0
 62
7
100
AcDbSpline
 70
8
 71
3
 72
8
 73
4
 74
0
 40
0
 40
0
 40
0
 40
0
 40
1
 40
1
 40
1
 40
1
 10
69554.398582
 20
4810.278636
 30
0.0
 10
69554.398582
 20
5168.326180
 30
0.0
 10
69412.164749
 20
5511.709028
 30
0.0
 10
69158.986902
 20
5764.886875
 30
0.0
  0
SPLINE
  5
378
100
AcDbEntity
  8
0
 62
7
100
AcDbSpline
 70
8
 71
3
 72
8
 73
4
 74
0
 40
0
 40
0
 40
0
 40
0
 40
1
 40
1
 40
1
 40
1
 10
69158.986902
 20
5764.886875
 30
0.0
 10
68905.809056
 20
6018.064721
 30
0.0
 10
68562.426208
 20
6160.298554
 30
0.0
 10
68204.378664
 20
6160.298554
 30
0.0
  0
LWPOLYLINE
  5
379
100
AcDbEntity
  8
0
 62
7
100
AcDbPolyline
 90
1
 70
1
 10
90724.076280
 20
6317.701509
 30
0.0
  0
SPLINE
  5
37a
100
AcDbEntity
  8
0
 62
7
100
AcDbSpline
 70
8
 71
3
 72
8
 73
4
 74
0
 40
0
 40
0
 40
0
 40
0
 40
1
 40
1
 40
1
 40
1
 10
55212.285347
 20
42695.689196
 30
0.0
 10
54666.253261
 20
42695.689196
 30
0.0
 10
54173.987010
 20
42366.767403
 30
0.0
 10
53965.029577
 20
41862.299534
 30
0.0
  0
SPLINE
  5
37b
100
AcDbEntity
  8
0
 62
7
100
AcDbSpline
 70
8
 71
3
 72
8
 73
4
 74
0
 40
0
 40
0
 40
0
 40
0
 40
1
 40
1
 40
1
 40
1
 10
53965.029577
 20
41862.299534
 30
0.0
 10
53756.072144
 20
41357.831666
 30
0.0
 10
53871.574118
 20
40777.164031
 30
0.0
 10
54257.677109
 20
40391.061040
 30
0.0
  0
SPLINE
  5
37c
100
AcDbEntity
  8
0
 62
7
100
AcDbSpline
 70
8
 71
3
 72
8
 73
4
 74
0
 40
0
 40
0
 40
0
 40
0
 40
1
 40
1
 40
1
 40
1
 10
54257.677109
 20
40391.061040
 30
0.0
 10
54643.780100
 20
40004.958049
 30
0.0
 10
55224.447735
 20
39889.456076
 30
0.0
 10
55728.915603
 20
40098.413509
 30
0.0
  0
SPLINE
  5
37d
100
AcDbEntity
  8
0
 62
7
100
AcDbSpline
 70
8
 71
3
 72
8
 73
4
 74
0
 40
0
 40
0
 40
0
 40
0
 40
1
 40
1
 40
1
 40
1
 10
55728.915603
 20
40098.413509
 30
0.0
 10
56233.383472
 20
40307.370942
 30
0.0
 10
56562.305265
 20
40799.637192
 30
0.0
 10
56562.305265
 20
41345.669279
 30
0.0
  0
SPLINE
  5
37e
100
AcDbEntity
  8
0
 62
7
100
AcDbSpline
 70
8
 71
3
 72
8
 73
4
 74
0
 40
0
 40
0
 40
0
 40
0
 40
1
 40
1
 40
1
 40
1
 10
56562.305265
 20
41345.669279
 30
0.0
 10
56562.305265
 20
42091.264691
 30
0.0
 10
55957.880760
 20
42695.689196
 30
0.0
 10
55212.285347
 20
42695.689196
 30
0.0
  0
LWPOLYLINE
  5
37f
100
AcDbEntity
  8
0
 62
7
100
AcDbPolyline
 90
1
 70
1
 10
68204.378664
 20
6160.298554
 30
0.0
  0
SPLINE
  5
380
100
AcDbEntity
  8
0
 62
7
100
AcDbSpline
 70
8
 71
3
 72
8
 73
4
 74
0
 40
0
 40
0
 40
0
 40
0
 40
1
 40
1
 40
1
 40
1
 10
16944.595196
 20
40018.489955
 30
0.0
 10
16398.563110
 20
40018.489955
 30
0.0
 10
15906.296859
 20
39689.568162
 30
0.0
 10
15697.339426
 20
39185.100293
 30
0.0
  0
SPLINE
  5
381
100
AcDbEntity
  8
0
 62
7
100
AcDbSpline
 70
8
 71
3
 72
8
 73
4
 74
0
 40
0
 40
0
 40
0
 40
0
 40
1
 40
1
 40
1
 40
1
 10
15697.339426
 20
39185.100293
 30
0.0
 10
15488.381993
 20
38680.632425
 30
0.0
 10
15603.883967
 20
38099.964790
 30
0.0
 10
15989.986958
 20
37713.861799
 30
0.0
  0
SPLINE
  5
382
100
AcDbEntity
  8
0
 62
7
100
AcDbSpline
 70
8
 71
3
 72
8
 73
4
 74
0
 40
0
 40
0
 40
0
 40
0
 40
1
 40
1
 40
1
 40
1
 10
15989.986958
 20
37713.861799
 30
0.0
 10
16376.089949
 20
37327.758808
 30
0.0
 10
16956.757583
 20
37212.256835
 30
0.0
 10
17461.225452
 20
37421.214268
 30
0.0
  0
SPLINE
  5
383
100
AcDbEntity
  8
0
 62
7
100
AcDbSpline
 70
8
 71
3
 72
8
 73
4
 74
0
 40
0
 40
0
 40
0
 40
0
 40
1
 40
1
 40
1
 40
1
 10
17461.225452
 20
37421.214268
 30
0.0
 10
17965.693321
 20
37630.171701
 30
0.0
 10
18294.615114
 20
38122.437951
 30
0.0
 10
18294.615114
 20
38668.470038
 30
0.0
  0
SPLINE
  5
384
100
AcDbEntity
  8
0
 62
7
100
AcDbSpline
 70
8
 71
3
 72
8
 73
4
 74
0
 40
0
 40
0
 40
0
 40
0
 40
1
 40
1
 40
1
 40
1
 10
18294.615114
 20
38668.470038
 30
0.0
 10
18294.615114
 20
39026.517581
 30
0.0
 10
18152.381281
 20
39369.900430
 30
0.0
 10
17899.203434
 20
39623.078276
 30
0.0
  0
SPLINE
  5
385
100
AcDbEntity
  8
0
 62
7
100
AcDbSpline
 70
8
 71
3
 72
8
 73
4
 74
0
 40
0
 40
0
 40
0
 40
0
 40
1
 40
1
 40
1
 40
1
 10
17899.203434
 20
39623.078276
 30
0.0
 10
17646.025588
 20
39876.256122
 30
0.0
 10
17302.642740
 20
40018.489955
 30
0.0
 10
16944.595196
 20
40018.489955
 30
0.0
  0
LWPOLYLINE
  5
386
100
AcDbEntity
  8
0
 62
7
100
AcDbPolyline
 90
1
 70
1
 10
55212.285347
 20
42695.689196
 30
0.0
  0
SPLINE
  5
387
100
AcDbEntity
  8
0
 62
7
100
AcDbSpline
 70
8
 71
3
 72
8
 73
4
 74
0
 40
0
 40
0
 40
0
 40
0
 40
1
 40
1
 40
1
 40
1
 10
83322.578378
 20
50805.887897
 30
0.0
 10
82776.546292
 20
50805.887897
 30
0.0
 10
82284.280041
 20
50476.966104
 30
0.0
 10
82075.322608
 20
49972.498235
 30
0.0
  0
SPLINE
  5
388
100
AcDbEntity
  8
0
 62
7
100
AcDbSpline
 70
8
 71
3
 72
8
 73
4
 74
0
 40
0
 40
0
 40
0
 40
0
 40
1
 40
1
 40
1
 40
1
 10
82075.322608
 20
49972.498235
 30
0.0
 10
81866.365175
 20
49468.030367
 30
0.0
 10
81981.867149
 20
48887.362732
 30
0.0
 10
82367.970140
 20
48501.259741
 30
0.0
  0
SPLINE
  5
389
100
AcDbEntity
  8
0
 62
7
100
AcDbSpline
 70
8
 71
3
 72
8
 73
4
 74
0
 40
0
 40
0
 40
0
 40
0
 40
1
 40
1
 40
1
 40
1
 10
82367.970140
 20
48501.259741
 30
0.0
 10
82754.073131
 20
48115.156750
 30
0.0
 10
83334.740765
 20
47999.654776
 30
0.0
 10
83839.208634
 20
48208.612209
 30
0.0
  0
SPLINE
  5
38a
100
AcDbEntity
  8
0
 62
7
100
AcDbSpline
 70
8
 71
3
 72
8
 73
4
 74
0
 40
0
 40
0
 40
0
 40
0
 40
1
 40
1
 40
1
 40
1
 10
83839.208634
 20
48208.612209
 30
0.0
 10
84343.676503
 20
48417.569642
 30
0.0
 10
84672.598296
 20
48909.835893
 30
0.0
 10
84672.598296
 20
49455.867979
 30
0.0
  0
SPLINE
  5
38b
100
AcDbEntity
  8
0
 62
7
100
AcDbSpline
 70
8
 71
3
 72
8
 73
4
 74
0
 40
0
 40
0
 40
0
 40
0
 40
1
 40
1
 40
1
 40
1
 10
84672.598296
 20
49455.867979
 30
0.0
 10
84672.598296
 20
49813.915523
 30
0.0
 10
84530.364463
 20
50157.298372
 30
0.0
 10
84277.186617
 20
50410.476218
 30
0.0
  0
SPLINE
  5
38c
100
AcDbEntity
  8
0
 62
7
100
AcDbSpline
 70
8
 71
3
 72
8
 73
4
 74
0
 40
0
 40
0
 40
0
 40
0
 40
1
 40
1
 40
1
 40
1
 10
84277.186617
 20
50410.476218
 30
0.0
 10
84024.008770
 20
50663.654064
 30
0.0
 10
83680.625922
 20
50805.887897
 30
0.0
 10
83322.578378
 20
50805.887897
 30
0.0
  0
LWPOLYLINE
  5
38d
100
AcDbEntity
  8
0
 62
7
100
AcDbPolyline
 90
1
 70
1
 10
16944.595196
 20
40018.489955
 30
0.0
  0
SPLINE
  5
38e
100
AcDbEntity
  8
0
 62
7
100
AcDbSpline
 70
8
 71
3
 72
8
 73
4
 74
0
 40
0
 40
0
 40
0
 40
0
 40
1
 40
1
 40
1
 40
1
 10
57968.182566
 20
49546.087254
 30
0.0
 10
57422.150480
 20
49546.087254
 30
0.0
 10
56929.884229
 20
49217.165461
 30
0.0
 10
56720.926796
 20
48712.697592
 30
0.0
  0
SPLINE
  5
38f
100
AcDbEntity
  8
0
 62
7
100
AcDbSpline
 70
8
 71
3
 72
8
 73
4
 74
0
 40
0
 40
0
 40
0
 40
0
 40
1
 40
1
 40
1
 40
1
 10
56720.926796
 20
48712.697592
 30
0.0
 10
56511.969363
 20
48208.229724
 30
0.0
 10
56627.471337
 20
47627.562089
 30
0.0
 10
57013.574328
 20
47241.459098
 30
0.0
  0
SPLINE
  5
390
100
AcDbEntity
  8
0
 62
7
100
AcDbSpline
 70
8
 71
3
 72
8
 73
4
 74
0
 40
0
 40
0
 40
0
 40
0
 40
1
 40
1
 40
1
 40
1
 10
57013.574328
 20
47241.459098
 30
0.0
 10
57399.677319
 20
46855.356107
 30
0.0
 10
57980.344953
 20
46739.854134
 30
0.0
 10
58484.812822
 20
46948.811567
 30
0.0
  0
SPLINE
  5
391
100
AcDbEntity
  8
0
 62
7
100
AcDbSpline
 70
8
 71
3
 72
8
 73
4
 74
0
 40
0
 40
0
 40
0
 40
0
 40
1
 40
1
 40
1
 40
1
 10
58484.812822
 20
46948.811567
 30
0.0
 10
58989.280690
 20
47157.768999
 30
0.0
 10
59318.202483
 20
47650.035250
 30
0.0
 10
59318.202483
 20
48196.067337
 30
0.0
  0
SPLINE
  5
392
100
AcDbEntity
  8
0
 62
7
100
AcDbSpline
 70
8
 71
3
 72
8
 73
4
 74
0
 40
0
 40
0
 40
0
 40
0
 40
1
 40
1
 40
1
 40
1
 10
59318.202483
 20
48196.067337
 30
0.0
 10
59318.202483
 20
48554.114880
 30
0.0
 10
59175.968651
 20
48897.497729
 30
0.0
 10
58922.790804
 20
49150.675575
 30
0.0
  0
SPLINE
  5
393
100
AcDbEntity
  8
0
 62
7
100
AcDbSpline
 70
8
 71
3
 72
8
 73
4
 74
0
 40
0
 40
0
 40
0
 40
0
 40
1
 40
1
 40
1
 40
1
 10
58922.790804
 20
49150.675575
 30
0.0
 10
58669.612958
 20
49403.853421
 30
0.0
 10
58326.230110
 20
49546.087254
 30
0.0
 10
57968.182566
 20
49546.087254
 30
0.0
  0
LWPOLYLINE
  5
394
100
AcDbEntity
  8
0
 62
7
100
AcDbPolyline
 90
1
 70
1
 10
83322.578378
 20
50805.887897
 30
0.0
  0
SPLINE
  5
395
100
AcDbEntity
  8
0
 62
7
100
AcDbSpline
 70
8
 71
3
 72
8
 73
4
 74
0
 40
0
 40
0
 40
0
 40
0
 40
1
 40
1
 40
1
 40
1
 10
34188.689308
 20
48679.888499
 30
0.0
 10
33642.657221
 20
48679.888499
 30
0.0
 10
33150.390971
 20
48350.966706
 30
0.0
 10
32941.433538
 20
47846.498838
 30
0.0
  0
SPLINE
  5
396
100
AcDbEntity
  8
0
 62
7
100
AcDbSpline
 70
8
 71
3
 72
8
 73
4
 74
0
 40
0
 40
0
 40
0
 40
0
 40
1
 40
1
 40
1
 40
1
 10
32941.433538
 20
47846.498838
 30
0.0
 10
32732.476105
 20
47342.030969
 30
0.0
 10
32847.978078
 20
46761.363335
 30
0.0
 10
33234.081069
 20
46375.260344
 30
0.0
  0
SPLINE
  5
397
100
AcDbEntity
  8
0
 62
7
100
AcDbSpline
 70
8
 71
3
 72
8
 73
4
 74
0
 40
0
 40
0
 40
0
 40
0
 40
1
 40
1
 40
1
 40
1
 10
33234.081069
 20
46375.260344
 30
0.0
 10
33620.184060
 20
45989.157353
 30
0.0
 10
34200.851695
 20
45873.655379
 30
0.0
 10
34705.319563
 20
46082.612812
 30
0.0
  0
SPLINE
  5
398
100
AcDbEntity
  8
0
 62
7
100
AcDbSpline
 70
8
 71
3
 72
8
 73
4
 74
0
 40
0
 40
0
 40
0
 40
0
 40
1
 40
1
 40
1
 40
1
 10
34705.319563
 20
46082.612812
 30
0.0
 10
35209.787432
 20
46291.570245
 30
0.0
 10
35538.709225
 20
46783.836496
 30
0.0
 10
35538.709225
 20
47329.868582
 30
0.0
  0
SPLINE
  5
399
100
AcDbEntity
  8
0
 62
7
100
AcDbSpline
 70
8
 71
3
 72
8
 73
4
 74
0
 40
0
 40
0
 40
0
 40
0
 40
1
 40
1
 40
1
 40
1
 10
35538.709225
 20
47329.868582
 30
0.0
 10
35538.709225
 20
47687.916126
 30
0.0
 10
35396.475392
 20
48031.298974
 30
0.0
 10
35143.297546
 20
48284.476820
 30
0.0
  0
SPLINE
  5
39a
100
AcDbEntity
  8
0
 62
7
100
AcDbSpline
 70
8
 71
3
 72
8
 73
4
 74
0
 40
0
 40
0
 40
0
 40
0
 40
1
 40
1
 40
1
 40
1
 10
35143.297546
 20
48284.476820
 30
0.0
 10
34890.119700
 20
48537.654666
 30
0.0
 10
34546.736851
 20
48679.888499
 30
0.0
 10
34188.689308
 20
48679.888499
 30
0.0
  0
LWPOLYLINE
  5
39b
100
AcDbEntity
  8
0
 62
7
100
AcDbPolyline
 90
1
 70
1
 10
57968.182566
 20
49546.087254
 30
0.0
  0
SPLINE
  5
39c
100
AcDbEntity
  8
0
 62
7
100
AcDbSpline
 70
8
 71
3
 72
8
 73
4
 74
0
 40
0
 40
0
 40
0
 40
0
 40
1
 40
1
 40
1
 40
1
 10
106062.969931
 20
5798.099656
 30
0.0
 10
105516.937845
 20
5798.099656
 30
0.0
 10
105024.671594
 20
5469.177863
 30
0.0
 10
104815.714161
 20
4964.709995
 30
0.0
  0
SPLINE
  5
39d
100
AcDbEntity
  8
0
 62
7
100
AcDbSpline
 70
8
 71
3
 72
8
 73
4
 74
0
 40
0
 40
0
 40
0
 40
0
 40
1
 40
1
 40
1
 40
1
 10
104815.714161
 20
4964.709995
 30
0.0
 10
104606.756728
 20
4460.242126
 30
0.0
 10
104722.258702
 20
3879.574492
 30
0.0
 10
105108.361693
 20
3493.471501
 30
0.0
  0
SPLINE
  5
39e
100
AcDbEntity
  8
0
 62
7
100
AcDbSpline
 70
8
 71
3
 72
8
 73
4
 74
0
 40
0
 40
0
 40
0
 40
0
 40
1
 40
1
 40
1
 40
1
 10
105108.361693
 20
3493.471501
 30
0.0
 10
105494.464684
 20
3107.368510
 30
0.0
 10
106075.132319
 20
2991.866536
 30
0.0
 10
106579.600187
 20
3200.823969
 30
0.0
  0
SPLINE
  5
39f
100
AcDbEntity
  8
0
 62
7
100
AcDbSpline
 70
8
 71
3
 72
8
 73
4
 74
0
 40
0
 40
0
 40
0
 40
0
 40
1
 40
1
 40
1
 40
1
 10
106579.600187
 20
3200.823969
 30
0.0
 10
107084.068056
 20
3409.781402
 30
0.0
 10
107412.989849
 20
3902.047653
 30
0.0
 10
107412.989849
 20
4448.079739
 30
0.0
  0
SPLINE
  5
3a0
100
AcDbEntity
  8
0
 62
7
100
AcDbSpline
 70
8
 71
3
 72
8
 73
4
 74
0
 40
0
 40
0
 40
0
 40
0
 40
1
 40
1
 40
1
 40
1
 10
107412.989849
 20
4448.079739
 30
0.0
 10
107412.989849
 20
4806.127283
 30
0.0
 10
107270.756016
 20
5149.510131
 30
0.0
 10
107017.578170
 20
5402.687977
 30
0.0
  0
SPLINE
  5
3a1
100
AcDbEntity
  8
0
 62
7
100
AcDbSpline
 70
8
 71
3
 72
8
 73
4
 74
0
 40
0
 40
0
 40
0
 40
0
 40
1
 40
1
 40
1
 40
1
 10
107017.578170
 20
5402.687977
 30
0.0
 10
106764.400324
 20
5655.865823
 30
0.0
 10
106421.017475
 20
5798.099656
 30
0.0
 10
106062.969931
 20
5798.099656
 30
0.0
  0
LWPOLYLINE
  5
3a2
100
AcDbEntity
  8
0
 62
7
100
AcDbPolyline
 90
1
 70
1
 10
34188.689308
 20
48679.888499
 30
0.0
  0
SPLINE
  5
3a3
100
AcDbEntity
  8
0
 62
7
100
AcDbSpline
 70
8
 71
3
 72
8
 73
4
 74
0
 40
0
 40
0
 40
0
 40
0
 40
1
 40
1
 40
1
 40
1
 10
79306.774517
 20
28049.991348
 30
0.0
 10
78760.742430
 20
28049.991348
 30
0.0
 10
78268.476180
 20
27721.069555
 30
0.0
 10
78059.518747
 20
27216.601686
 30
0.0
  0
SPLINE
  5
3a4
100
AcDbEntity
  8
0
 62
7
100
AcDbSpline
 70
8
 71
3
 72
8
 73
4
 74
0
 40
0
 40
0
 40
0
 40
0
 40
1
 40
1
 40
1
 40
1
 10
78059.518747
 20
27216.601686
 30
0.0
 10
77850.561314
 20
26712.133818
 30
0.0
 10
77966.063288
 20
26131.466183
 30
0.0
 10
78352.166279
 20
25745.363192
 30
0.0
  0
SPLINE
  5
3a5
100
AcDbEntity
  8
0
 62
7
100
AcDbSpline
 70
8
 71
3
 72
8
 73
4
 74
0
 40
0
 40
0
 40
0
 40
0
 40
1
 40
1
 40
1
 40
1
 10
78352.166279
 20
25745.363192
 30
0.0
 10
78738.269269
 20
25359.260201
 30
0.0
 10
79318.936904
 20
25243.758228
 30
0.0
 10
79823.404772
 20
25452.715661
 30
0.0
  0
SPLINE
  5
3a6
100
AcDbEntity
  8
0
 62
7
100
AcDbSpline
 70
8
 71
3
 72
8
 73
4
 74
0
 40
0
 40
0
 40
0
 40
0
 40
1
 40
1
 40
1
 40
1
 10
79823.404772
 20
25452.715661
 30
0.0
 10
80327.872641
 20
25661.673094
 30
0.0
 10
80656.794434
 20
26153.939344
 30
0.0
 10
80656.794434
 20
26699.971431
 30
0.0
  0
SPLINE
  5
3a7
100
AcDbEntity
  8
0
 62
7
100
AcDbSpline
 70
8
 71
3
 72
8
 73
4
 74
0
 40
0
 40
0
 40
0
 40
0
 40
1
 40
1
 40
1
 40
1
 10
80656.794434
 20
26699.971431
 30
0.0
 10
80656.794434
 20
27445.566843
 30
0.0
 10
80052.369929
 20
28049.991348
 30
0.0
 10
79306.774517
 20
28049.991348
 30
0.0
  0
LWPOLYLINE
  5
3a8
100
AcDbEntity
  8
0
 62
7
100
AcDbPolyline
 90
1
 70
1
 10
106062.969931
 20
5798.099656
 30
0.0
  0
SPLINE
  5
3a9
100
AcDbEntity
  8
0
 62
7
100
AcDbSpline
 70
8
 71
3
 72
8
 73
4
 74
0
 40
0
 40
0
 40
0
 40
0
 40
1
 40
1
 40
1
 40
1
 10
54897.382437
 20
27735.093437
 30
0.0
 10
54351.350350
 20
27735.093437
 30
0.0
 10
53859.084100
 20
27406.171644
 30
0.0
 10
53650.126667
 20
26901.703776
 30
0.0
  0
SPLINE
  5
3aa
100
AcDbEntity
  8
0
 62
7
100
AcDbSpline
 70
8
 71
3
 72
8
 73
4
 74
0
 40
0
 40
0
 40
0
 40
0
 40
1
 40
1
 40
1
 40
1
 10
53650.126667
 20
26901.703776
 30
0.0
 10
53441.169234
 20
26397.235907
 30
0.0
 10
53556.671208
 20
25816.568273
 30
0.0
 10
53942.774199
 20
25430.465282
 30
0.0
  0
SPLINE
  5
3ab
100
AcDbEntity
  8
0
 62
7
100
AcDbSpline
 70
8
 71
3
 72
8
 73
4
 74
0
 40
0
 40
0
 40
0
 40
0
 40
1
 40
1
 40
1
 40
1
 10
53942.774199
 20
25430.465282
 30
0.0
 10
54328.877189
 20
25044.362291
 30
0.0
 10
54909.544824
 20
24928.860317
 30
0.0
 10
55414.012692
 20
25137.817750
 30
0.0
  0
SPLINE
  5
3ac
100
AcDbEntity
  8
0
 62
7
100
AcDbSpline
 70
8
 71
3
 72
8
 73
4
 74
0
 40
0
 40
0
 40
0
 40
0
 40
1
 40
1
 40
1
 40
1
 10
55414.012692
 20
25137.817750
 30
0.0
 10
55918.480561
 20
25346.775183
 30
0.0
 10
56247.402354
 20
25839.041434
 30
0.0
 10
56247.402354
 20
26385.073520
 30
0.0
  0
SPLINE
  5
3ad
100
AcDbEntity
  8
0
 62
7
100
AcDbSpline
 70
8
 71
3
 72
8
 73
4
 74
0
 40
0
 40
0
 40
0
 40
0
 40
1
 40
1
 40
1
 40
1
 10
56247.402354
 20
26385.073520
 30
0.0
 10
56247.402354
 20
26743.121064
 30
0.0
 10
56105.168521
 20
27086.503912
 30
0.0
 10
55851.990675
 20
27339.681758
 30
0.0
  0
SPLINE
  5
3ae
100
AcDbEntity
  8
0
 62
7
100
AcDbSpline
 70
8
 71
3
 72
8
 73
4
 74
0
 40
0
 40
0
 40
0
 40
0
 40
1
 40
1
 40
1
 40
1
 10
55851.990675
 20
27339.681758
 30
0.0
 10
55598.812829
 20
27592.859604
 30
0.0
 10
55255.429980
 20
27735.093437
 30
0.0
 10
54897.382437
 20
27735.093437
 30
0.0
  0
LWPOLYLINE
  5
3af
100
AcDbEntity
  8
0
 62
7
100
AcDbPolyline
 90
1
 70
1
 10
79306.774517
 20
28049.991348
 30
0.0
  0
SPLINE
  5
3b0
100
AcDbEntity
  8
0
 62
7
100
AcDbSpline
 70
8
 71
3
 72
8
 73
4
 74
0
 40
0
 40
0
 40
0
 40
0
 40
1
 40
1
 40
1
 40
1
 10
27102.092317
 20
34900.392406
 30
0.0
 10
26556.060230
 20
34900.392406
 30
0.0
 10
26063.793980
 20
34571.470613
 30
0.0
 10
25854.836547
 20
34067.002744
 30
0.0
  0
SPLINE
  5
3b1
100
AcDbEntity
  8
0
 62
7
100
AcDbSpline
 70
8
 71
3
 72
8
 73
4
 74
0
 40
0
 40
0
 40
0
 40
0
 40
1
 40
1
 40
1
 40
1
 10
25854.836547
 20
34067.002744
 30
0.0
 10
25645.879114
 20
33562.534876
 30
0.0
 10
25761.381087
 20
32981.867241
 30
0.0
 10
26147.484078
 20
32595.764250
 30
0.0
  0
SPLINE
  5
3b2
100
AcDbEntity
  8
0
 62
7
100
AcDbSpline
 70
8
 71
3
 72
8
 73
4
 74
0
 40
0
 40
0
 40
0
 40
0
 40
1
 40
1
 40
1
 40
1
 10
26147.484078
 20
32595.764250
 30
0.0
 10
26533.587069
 20
32209.661259
 30
0.0
 10
27114.254704
 20
32094.159286
 30
0.0
 10
27618.722572
 20
32303.116719
 30
0.0
  0
SPLINE
  5
3b3
100
AcDbEntity
  8
0
 62
7
100
AcDbSpline
 70
8
 71
3
 72
8
 73
4
 74
0
 40
0
 40
0
 40
0
 40
0
 40
1
 40
1
 40
1
 40
1
 10
27618.722572
 20
32303.116719
 30
0.0
 10
28123.190441
 20
32512.074151
 30
0.0
 10
28452.112234
 20
33004.340402
 30
0.0
 10
28452.112234
 20
33550.372489
 30
0.0
  0
SPLINE
  5
3b4
100
AcDbEntity
  8
0
 62
7
100
AcDbSpline
 70
8
 71
3
 72
8
 73
4
 74
0
 40
0
 40
0
 40
0
 40
0
 40
1
 40
1
 40
1
 40
1
 10
28452.112234
 20
33550.372489
 30
0.0
 10
28452.112234
 20
33908.420032
 30
0.0
 10
28309.878401
 20
34251.802881
 30
0.0
 10
28056.700555
 20
34504.980727
 30
0.0
  0
SPLINE
  5
3b5
100
AcDbEntity
  8
0
 62
7
100
AcDbSpline
 70
8
 71
3
 72
8
 73
4
 74
0
 40
0
 40
0
 40
0
 40
0
 40
1
 40
1
 40
1
 40
1
 10
28056.700555
 20
34504.980727
 30
0.0
 10
27803.522709
 20
34758.158573
 30
0.0
 10
27460.139860
 20
34900.392406
 30
0.0
 10
27102.092317
 20
34900.392406
 30
0.0
  0
LWPOLYLINE
  5
3b6
100
AcDbEntity
  8
0
 62
7
100
AcDbPolyline
 90
1
 70
1
 10
54897.382437
 20
27735.093437
 30
0.0
  0
SPLINE
  5
3b7
100
AcDbEntity
  8
0
 62
7
100
AcDbSpline
 70
8
 71
3
 72
8
 73
4
 74
0
 40
0
 40
0
 40
0
 40
0
 40
1
 40
1
 40
1
 40
1
 10
16550.895308
 20
58522.445109
 30
0.0
 10
16004.863222
 20
58522.445109
 30
0.0
 10
15512.596971
 20
58193.523316
 30
0.0
 10
15303.639538
 20
57689.055447
 30
0.0
  0
SPLINE
  5
3b8
100
AcDbEntity
  8
0
 62
7
100
AcDbSpline
 70
8
 71
3
 72
8
 73
4
 74
0
 40
0
 40
0
 40
0
 40
0
 40
1
 40
1
 40
1
 40
1
 10
15303.639538
 20
57689.055447
 30
0.0
 10
15094.682105
 20
57184.587579
 30
0.0
 10
15210.184079
 20
56603.919944
 30
0.0
 10
15596.287070
 20
56217.816954
 30
0.0
  0
SPLINE
  5
3b9
100
AcDbEntity
  8
0
 62
7
100
AcDbSpline
 70
8
 71
3
 72
8
 73
4
 74
0
 40
0
 40
0
 40
0
 40
0
 40
1
 40
1
 40
1
 40
1
 10
15596.287070
 20
56217.816954
 30
0.0
 10
15982.390061
 20
55831.713963
 30
0.0
 10
16563.057695
 20
55716.211989
 30
0.0
 10
17067.525564
 20
55925.169422
 30
0.0
  0
SPLINE
  5
3ba
100
AcDbEntity
  8
0
 62
7
100
AcDbSpline
 70
8
 71
3
 72
8
 73
4
 74
0
 40
0
 40
0
 40
0
 40
0
 40
1
 40
1
 40
1
 40
1
 10
17067.525564
 20
55925.169422
 30
0.0
 10
17571.993432
 20
56134.126855
 30
0.0
 10
17900.915225
 20
56626.393106
 30
0.0
 10
17900.915225
 20
57172.425192
 30
0.0
  0
SPLINE
  5
3bb
100
AcDbEntity
  8
0
 62
7
100
AcDbSpline
 70
8
 71
3
 72
8
 73
4
 74
0
 40
0
 40
0
 40
0
 40
0
 40
1
 40
1
 40
1
 40
1
 10
17900.915225
 20
57172.425192
 30
0.0
 10
17900.915225
 20
57530.472735
 30
0.0
 10
17758.681392
 20
57873.855584
 30
0.0
 10
17505.503546
 20
58127.033430
 30
0.0
  0
SPLINE
  5
3bc
100
AcDbEntity
  8
0
 62
7
100
AcDbSpline
 70
8
 71
3
 72
8
 73
4
 74
0
 40
0
 40
0
 40
0
 40
0
 40
1
 40
1
 40
1
 40
1
 10
17505.503546
 20
58127.033430
 30
0.0
 10
17252.325700
 20
58380.211276
 30
0.0
 10
16908.942852
 20
58522.445109
 30
0.0
 10
16550.895308
 20
58522.445109
 30
0.0
  0
LWPOLYLINE
  5
3bd
100
AcDbEntity
  8
0
 62
7
100
AcDbPolyline
 90
1
 70
1
 10
27102.092317
 20
34900.392406
 30
0.0
  0
SPLINE
  5
3be
100
AcDbEntity
  8
0
 62
7
100
AcDbSpline
 70
8
 71
3
 72
8
 73
4
 74
0
 40
0
 40
0
 40
0
 40
0
 40
1
 40
1
 40
1
 40
1
 10
126105.964249
 20
6753.381065
 30
0.0
 10
125797.763710
 20
6753.381065
 30
0.0
 10
125519.910580
 20
6567.725540
 30
0.0
 10
125401.967340
 20
6282.985369
 30
0.0
  0
SPLINE
  5
3bf
100
AcDbEntity
  8
0
 62
7
100
AcDbSpline
 70
8
 71
3
 72
8
 73
4
 74
0
 40
0
 40
0
 40
0
 40
0
 40
1
 40
1
 40
1
 40
1
 10
125401.967340
 20
6282.985369
 30
0.0
 10
125284.024099
 20
5998.245199
 30
0.0
 10
125349.217650
 20
5670.495085
 30
0.0
 10
125567.148342
 20
5452.564394
 30
0.0
  0
SPLINE
  5
3c0
100
AcDbEntity
  8
0
 62
7
100
AcDbSpline
 70
8
 71
3
 72
8
 73
4
 74
0
 40
0
 40
0
 40
0
 40
0
 40
1
 40
1
 40
1
 40
1
 10
125567.148342
 20
5452.564394
 30
0.0
 10
125785.079033
 20
5234.633703
 30
0.0
 10
126112.829147
 20
5169.440152
 30
0.0
 10
126397.569317
 20
5287.383392
 30
0.0
  0
SPLINE
  5
3c1
100
AcDbEntity
  8
0
 62
7
100
AcDbSpline
 70
8
 71
3
 72
8
 73
4
 74
0
 40
0
 40
0
 40
0
 40
0
 40
1
 40
1
 40
1
 40
1
 10
126397.569317
 20
5287.383392
 30
0.0
 10
126682.309488
 20
5405.326632
 30
0.0
 10
126867.965013
 20
5683.179762
 30
0.0
 10
126867.965013
 20
5991.380301
 30
0.0
  0
SPLINE
  5
3c2
100
AcDbEntity
  8
0
 62
7
100
AcDbSpline
 70
8
 71
3
 72
8
 73
4
 74
0
 40
0
 40
0
 40
0
 40
0
 40
1
 40
1
 40
1
 40
1
 10
126867.965013
 20
5991.380301
 30
0.0
 10
126867.965013
 20
6193.475469
 30
0.0
 10
126787.683020
 20
6387.293345
 30
0.0
 10
126644.780157
 20
6530.196209
 30
0.0
  0
SPLINE
  5
3c3
100
AcDbEntity
  8
0
 62
7
100
AcDbSpline
 70
8
 71
3
 72
8
 73
4
 74
0
 40
0
 40
0
 40
0
 40
0
 40
1
 40
1
 40
1
 40
1
 10
126644.780157
 20
6530.196209
 30
0.0
 10
126501.877293
 20
6673.099073
 30
0.0
 10
126308.059417
 20
6753.381065
 30
0.0
 10
126105.964249
 20
6753.381065
 30
0.0
  0
LWPOLYLINE
  5
3c4
100
AcDbEntity
  8
0
 62
7
100
AcDbPolyline
 90
1
 70
1
 10
16550.895308
 20
58522.445109
 30
0.0
  0
SPLINE
  5
3c5
100
AcDbEntity
  8
0
 62
7
100
AcDbSpline
 70
8
 71
3
 72
8
 73
4
 74
0
 40
0
 40
0
 40
0
 40
0
 40
1
 40
1
 40
1
 40
1
 10
122640.965232
 20
10611.578972
 30
0.0
 10
122332.764692
 20
10611.578972
 30
0.0
 10
122054.911562
 20
10425.923446
 30
0.0
 10
121936.968322
 20
10141.183275
 30
0.0
  0
SPLINE
  5
3c6
100
AcDbEntity
  8
0
 62
7
100
AcDbSpline
 70
8
 71
3
 72
8
 73
4
 74
0
 40
0
 40
0
 40
0
 40
0
 40
1
 40
1
 40
1
 40
1
 10
121936.968322
 20
10141.183275
 30
0.0
 10
121819.025082
 20
9856.443105
 30
0.0
 10
121884.218633
 20
9528.692992
 30
0.0
 10
122102.149324
 20
9310.762300
 30
0.0
  0
SPLINE
  5
3c7
100
AcDbEntity
  8
0
 62
7
100
AcDbSpline
 70
8
 71
3
 72
8
 73
4
 74
0
 40
0
 40
0
 40
0
 40
0
 40
1
 40
1
 40
1
 40
1
 10
122102.149324
 20
9310.762300
 30
0.0
 10
122320.080016
 20
9092.831609
 30
0.0
 10
122647.830129
 20
9027.638058
 30
0.0
 10
122932.570299
 20
9145.581298
 30
0.0
  0
SPLINE
  5
3c8
100
AcDbEntity
  8
0
 62
7
100
AcDbSpline
 70
8
 71
3
 72
8
 73
4
 74
0
 40
0
 40
0
 40
0
 40
0
 40
1
 40
1
 40
1
 40
1
 10
122932.570299
 20
9145.581298
 30
0.0
 10
123217.310470
 20
9263.524538
 30
0.0
 10
123402.965996
 20
9541.377668
 30
0.0
 10
123402.965996
 20
9849.578208
 30
0.0
  0
SPLINE
  5
3c9
100
AcDbEntity
  8
0
 62
7
100
AcDbSpline
 70
8
 71
3
 72
8
 73
4
 74
0
 40
0
 40
0
 40
0
 40
0
 40
1
 40
1
 40
1
 40
1
 10
123402.965996
 20
9849.578208
 30
0.0
 10
123402.965996
 20
10270.419609
 30
0.0
 10
123061.806633
 20
10611.578972
 30
0.0
 10
122640.965232
 20
10611.578972
 30
0.0
  0
LWPOLYLINE
  5
3ca
100
AcDbEntity
  8
0
 62
7
100
AcDbPolyline
 90
1
 70
1
 10
126105.964249
 20
6753.381065
 30
0.0
  0
SPLINE
  5
3cb
100
AcDbEntity
  8
0
 62
7
100
AcDbSpline
 70
8
 71
3
 72
8
 73
4
 74
0
 40
0
 40
0
 40
0
 40
0
 40
1
 40
1
 40
1
 40
1
 10
119412.966147
 20
14627.378833
 30
0.0
 10
119104.765607
 20
14627.378833
 30
0.0
 10
118826.912478
 20
14441.723307
 30
0.0
 10
118708.969237
 20
14156.983137
 30
0.0
  0
SPLINE
  5
3cc
100
AcDbEntity
  8
0
 62
7
100
AcDbSpline
 70
8
 71
3
 72
8
 73
4
 74
0
 40
0
 40
0
 40
0
 40
0
 40
1
 40
1
 40
1
 40
1
 10
118708.969237
 20
14156.983137
 30
0.0
 10
118591.025997
 20
13872.242967
 30
0.0
 10
118656.219548
 20
13544.492853
 30
0.0
 10
118874.150239
 20
13326.562162
 30
0.0
  0
SPLINE
  5
3cd
100
AcDbEntity
  8
0
 62
7
100
AcDbSpline
 70
8
 71
3
 72
8
 73
4
 74
0
 40
0
 40
0
 40
0
 40
0
 40
1
 40
1
 40
1
 40
1
 10
118874.150239
 20
13326.562162
 30
0.0
 10
119092.080931
 20
13108.631470
 30
0.0
 10
119419.831044
 20
13043.437919
 30
0.0
 10
119704.571215
 20
13161.381160
 30
0.0
  0
SPLINE
  5
3ce
100
AcDbEntity
  8
0
 62
7
100
AcDbSpline
 70
8
 71
3
 72
8
 73
4
 74
0
 40
0
 40
0
 40
0
 40
0
 40
1
 40
1
 40
1
 40
1
 10
119704.571215
 20
13161.381160
 30
0.0
 10
119989.311385
 20
13279.324400
 30
0.0
 10
120174.966911
 20
13557.177530
 30
0.0
 10
120174.966911
 20
13865.378069
 30
0.0
  0
SPLINE
  5
3cf
100
AcDbEntity
  8
0
 62
7
100
AcDbSpline
 70
8
 71
3
 72
8
 73
4
 74
0
 40
0
 40
0
 40
0
 40
0
 40
1
 40
1
 40
1
 40
1
 10
120174.966911
 20
13865.378069
 30
0.0
 10
120174.966911
 20
14067.473237
 30
0.0
 10
120094.684918
 20
14261.291113
 30
0.0
 10
119951.782054
 20
14404.193977
 30
0.0
  0
SPLINE
  5
3d0
100
AcDbEntity
  8
0
 62
7
100
AcDbSpline
 70
8
 71
3
 72
8
 73
4
 74
0
 40
0
 40
0
 40
0
 40
0
 40
1
 40
1
 40
1
 40
1
 10
119951.782054
 20
14404.193977
 30
0.0
 10
119808.879191
 20
14547.096840
 30
0.0
 10
119615.061315
 20
14627.378833
 30
0.0
 10
119412.966147
 20
14627.378833
 30
0.0
  0
LWPOLYLINE
  5
3d1
100
AcDbEntity
  8
0
 62
7
100
AcDbPolyline
 90
1
 70
1
 10
122640.965232
 20
10611.578972
 30
0.0
  0
SPLINE
  5
3d2
100
AcDbEntity
  8
0
 62
7
100
AcDbSpline
 70
8
 71
3
 72
8
 73
4
 74
0
 40
0
 40
0
 40
0
 40
0
 40
1
 40
1
 40
1
 40
1
 10
116735.966906
 20
18721.877672
 30
0.0
 10
116427.766366
 20
18721.877672
 30
0.0
 10
116149.913236
 20
18536.222147
 30
0.0
 10
116031.969996
 20
18251.481976
 30
0.0
  0
SPLINE
  5
3d3
100
AcDbEntity
  8
0
 62
7
100
AcDbSpline
 70
8
 71
3
 72
8
 73
4
 74
0
 40
0
 40
0
 40
0
 40
0
 40
1
 40
1
 40
1
 40
1
 10
116031.969996
 20
18251.481976
 30
0.0
 10
115914.026756
 20
17966.741806
 30
0.0
 10
115979.220307
 20
17638.991692
 30
0.0
 10
116197.150998
 20
17421.061001
 30
0.0
  0
SPLINE
  5
3d4
100
AcDbEntity
  8
0
 62
7
100
AcDbSpline
 70
8
 71
3
 72
8
 73
4
 74
0
 40
0
 40
0
 40
0
 40
0
 40
1
 40
1
 40
1
 40
1
 10
116197.150998
 20
17421.061001
 30
0.0
 10
116415.081690
 20
17203.130309
 30
0.0
 10
116742.831803
 20
17137.936759
 30
0.0
 10
117027.571974
 20
17255.879999
 30
0.0
  0
SPLINE
  5
3d5
100
AcDbEntity
  8
0
 62
7
100
AcDbSpline
 70
8
 71
3
 72
8
 73
4
 74
0
 40
0
 40
0
 40
0
 40
0
 40
1
 40
1
 40
1
 40
1
 10
117027.571974
 20
17255.879999
 30
0.0
 10
117312.312144
 20
17373.823239
 30
0.0
 10
117497.967670
 20
17651.676369
 30
0.0
 10
117497.967670
 20
17959.876908
 30
0.0
  0
SPLINE
  5
3d6
100
AcDbEntity
  8
0
 62
7
100
AcDbSpline
 70
8
 71
3
 72
8
 73
4
 74
0
 40
0
 40
0
 40
0
 40
0
 40
1
 40
1
 40
1
 40
1
 10
117497.967670
 20
17959.876908
 30
0.0
 10
117497.967670
 20
18161.972076
 30
0.0
 10
117417.685677
 20
18355.789952
 30
0.0
 10
117274.782813
 20
18498.692816
 30
0.0
  0
SPLINE
  5
3d7
100
AcDbEntity
  8
0
 62
7
100
AcDbSpline
 70
8
 71
3
 72
8
 73
4
 74
0
 40
0
 40
0
 40
0
 40
0
 40
1
 40
1
 40
1
 40
1
 10
117274.782813
 20
18498.692816
 30
0.0
 10
117131.879950
 20
18641.595680
 30
0.0
 10
116938.062074
 20
18721.877672
 30
0.0
 10
116735.966906
 20
18721.877672
 30
0.0
  0
LWPOLYLINE
  5
3d8
100
AcDbEntity
  8
0
 62
7
100
AcDbPolyline
 90
1
 70
1
 10
119412.966147
 20
14627.378833
 30
0.0
  0
SPLINE
  5
3d9
100
AcDbEntity
  8
0
 62
7
100
AcDbSpline
 70
8
 71
3
 72
8
 73
4
 74
0
 40
0
 40
0
 40
0
 40
0
 40
1
 40
1
 40
1
 40
1
 10
12102.096569
 20
17654.905295
 30
0.0
 10
11292.045679
 20
17654.905295
 30
0.0
 10
10635.369685
 20
16998.229301
 30
0.0
 10
10635.369685
 20
16188.178411
 30
0.0
  0
SPLINE
  5
3da
100
AcDbEntity
  8
0
 62
7
100
AcDbSpline
 70
8
 71
3
 72
8
 73
4
 74
0
 40
0
 40
0
 40
0
 40
0
 40
1
 40
1
 40
1
 40
1
 10
10635.369685
 20
16188.178411
 30
0.0
 10
10635.369685
 20
15378.127520
 30
0.0
 10
11292.045679
 20
14721.451527
 30
0.0
 10
12102.096569
 20
14721.451527
 30
0.0
  0
SPLINE
  5
3db
100
AcDbEntity
  8
0
 62
7
100
AcDbSpline
 70
8
 71
3
 72
8
 73
4
 74
0
 40
0
 40
0
 40
0
 40
0
 40
1
 40
1
 40
1
 40
1
 10
12102.096569
 20
14721.451527
 30
0.0
 10
12912.147459
 20
14721.451527
 30
0.0
 10
13568.823453
 20
15378.127520
 30
0.0
 10
13568.823453
 20
16188.178411
 30
0.0
  0
SPLINE
  5
3dc
100
AcDbEntity
  8
0
 62
7
100
AcDbSpline
 70
8
 71
3
 72
8
 73
4
 74
0
 40
0
 40
0
 40
0
 40
0
 40
1
 40
1
 40
1
 40
1
 10
13568.823453
 20
16188.178411
 30
0.0
 10
13568.823453
 20
16577.178566
 30
0.0
 10
13414.293743
 20
16950.246289
 30
0.0
 10
13139.229095
 20
17225.310937
 30
0.0
  0
SPLINE
  5
3dd
100
AcDbEntity
  8
0
 62
7
100
AcDbSpline
 70
8
 71
3
 72
8
 73
4
 74
0
 40
0
 40
0
 40
0
 40
0
 40
1
 40
1
 40
1
 40
1
 10
13139.229095
 20
17225.310937
 30
0.0
 10
12864.164447
 20
17500.375585
 30
0.0
 10
12491.096725
 20
17654.905295
 30
0.0
 10
12102.096569
 20
17654.905295
 30
0.0
  0
LWPOLYLINE
  5
3de
100
AcDbEntity
  8
0
 62
7
100
AcDbPolyline
 90
1
 70
1
 10
116735.966906
 20
18721.877672
 30
0.0
  0
SPLINE
  5
3df
100
AcDbEntity
  8
0
 62
7
100
AcDbSpline
 70
8
 71
3
 72
8
 73
4
 74
0
 40
0
 40
0
 40
0
 40
0
 40
1
 40
1
 40
1
 40
1
 10
42416.987975
 20
17261.201406
 30
0.0
 10
41823.752327
 20
17261.201406
 30
0.0
 10
41288.930481
 20
16903.844874
 30
0.0
 10
41061.909027
 20
16355.766601
 30
0.0
  0
SPLINE
  5
3e0
100
AcDbEntity
  8
0
 62
7
100
AcDbSpline
 70
8
 71
3
 72
8
 73
4
 74
0
 40
0
 40
0
 40
0
 40
0
 40
1
 40
1
 40
1
 40
1
 10
41061.909027
 20
16355.766601
 30
0.0
 10
40834.887573
 20
15807.688327
 30
0.0
 10
40960.374499
 20
15176.822946
 30
0.0
 10
41379.855449
 20
14757.341996
 30
0.0
  0
SPLINE
  5
3e1
100
AcDbEntity
  8
0
 62
7
100
AcDbSpline
 70
8
 71
3
 72
8
 73
4
 74
0
 40
0
 40
0
 40
0
 40
0
 40
1
 40
1
 40
1
 40
1
 10
41379.855449
 20
14757.341996
 30
0.0
 10
41799.336399
 20
14337.861047
 30
0.0
 10
42430.201780
 20
14212.374120
 30
0.0
 10
42978.280053
 20
14439.395574
 30
0.0
  0
SPLINE
  5
3e2
100
AcDbEntity
  8
0
 62
7
100
AcDbSpline
 70
8
 71
3
 72
8
 73
4
 74
0
 40
0
 40
0
 40
0
 40
0
 40
1
 40
1
 40
1
 40
1
 10
42978.280053
 20
14439.395574
 30
0.0
 10
43526.358327
 20
14666.417028
 30
0.0
 10
43883.714859
 20
15201.238874
 30
0.0
 10
43883.714859
 20
15794.474522
 30
0.0
  0
SPLINE
  5
3e3
100
AcDbEntity
  8
0
 62
7
100
AcDbSpline
 70
8
 71
3
 72
8
 73
4
 74
0
 40
0
 40
0
 40
0
 40
0
 40
1
 40
1
 40
1
 40
1
 10
43883.714859
 20
15794.474522
 30
0.0
 10
43883.714859
 20
16183.474678
 30
0.0
 10
43729.185149
 20
16556.542400
 30
0.0
 10
43454.120501
 20
16831.607048
 30
0.0
  0
SPLINE
  5
3e4
100
AcDbEntity
  8
0
 62
7
100
AcDbSpline
 70
8
 71
3
 72
8
 73
4
 74
0
 40
0
 40
0
 40
0
 40
0
 40
1
 40
1
 40
1
 40
1
 10
43454.120501
 20
16831.607048
 30
0.0
 10
43179.055853
 20
17106.671696
 30
0.0
 10
42805.988131
 20
17261.201406
 30
0.0
 10
42416.987975
 20
17261.201406
 30
0.0
  0
LWPOLYLINE
  5
3e5
100
AcDbEntity
  8
0
 62
7
100
AcDbPolyline
 90
1
 70
1
 10
12102.096569
 20
17654.905295
 30
0.0
  0
LWPOLYLINE
  5
3e6
100
AcDbEntity
  8
0
 62
7
100
AcDbPolyline
 90
1
 70
1
 10
42416.987975
 20
17261.201406
 30
0.0
  0
LWPOLYLINE
  5
3e7
100
AcDbEntity
  8
0
 62
7
100
AcDbPolyline
 90
2
 70
0
 10
562.999840
 20
67011.062003
 30
0.0
 10
152462.956777
 20
67011.062003
 30
0.0
  0
LWPOLYLINE
  5
3e8
100
AcDbEntity
  8
0
 62
7
100
AcDbPolyline
 90
2
 70
0
 10
562.999840
 20
65811.062343
 30
0.0
 10
562.999840
 20
67011.062003
 30
0.0
  0
LWPOLYLINE
  5
3e9
100
AcDbEntity
  8
0
 62
7
100
AcDbPolyline
 90
2
 70
0
 10
152455.956779
 20
60008.063988
 30
0.0
 10
152462.956777
 20
67011.062003
 30
0.0
  0
LWPOLYLINE
  5
3ea
100
AcDbEntity
  8
0
 62
7
100
AcDbPolyline
 90
2
 70
0
 10
565.999840
 20
60008.063988
 30
0.0
 10
562.999840
 20
65811.062343
 30
0.0
  0
LWPOLYLINE
  5
3eb
100
AcDbEntity
  8
0
 62
7
100
AcDbPolyline
 90
2
 70
0
 10
152455.956779
 20
8.080998
 30
0.0
 10
152455.956779
 20
60008.063988
 30
0.0
  0
LWPOLYLINE
  5
3ec
100
AcDbEntity
  8
0
 62
7
100
AcDbPolyline
 90
2
 70
0
 10
120565.965820
 20
8.080998
 30
0.0
 10
152455.956779
 20
8.080998
 30
0.0
  0
LWPOLYLINE
  5
3ed
100
AcDbEntity
  8
0
 62
7
100
AcDbPolyline
 90
2
 70
0
 10
565.999840
 20
8.080998
 30
0.0
 10
120565.965820
 20
8.080998
 30
0.0
  0
SPLINE
  5
3ee
100
AcDbEntity
  8
0
 62
7
100
AcDbSpline
 70
8
 71
3
 72
8
 73
4
 74
0
 40
0
 40
0
 40
0
 40
0
 40
1
 40
1
 40
1
 40
1
 10
55166.488360
 20
21121.317812
 30
0.0
 10
54616.492343
 20
21121.317812
 30
0.0
 10
54120.652475
 20
20790.008205
 30
0.0
 10
53910.178112
 20
20281.878141
 30
0.0
  0
SPLINE
  5
3ef
100
AcDbEntity
  8
0
 62
7
100
AcDbSpline
 70
8
 71
3
 72
8
 73
4
 74
0
 40
0
 40
0
 40
0
 40
0
 40
1
 40
1
 40
1
 40
1
 10
53910.178112
 20
20281.878141
 30
0.0
 10
53699.703748
 20
19773.748078
 30
0.0
 10
53816.044211
 20
19188.865075
 30
0.0
 10
54204.950124
 20
18799.959161
 30
0.0
  0
SPLINE
  5
3f0
100
AcDbEntity
  8
0
 62
7
100
AcDbSpline
 70
8
 71
3
 72
8
 73
4
 74
0
 40
0
 40
0
 40
0
 40
0
 40
1
 40
1
 40
1
 40
1
 10
54204.950124
 20
18799.959161
 30
0.0
 10
54593.856038
 20
18411.053248
 30
0.0
 10
55178.739041
 20
18294.712785
 30
0.0
 10
55686.869104
 20
18505.187149
 30
0.0
  0
SPLINE
  5
3f1
100
AcDbEntity
  8
0
 62
7
100
AcDbSpline
 70
8
 71
3
 72
8
 73
4
 74
0
 40
0
 40
0
 40
0
 40
0
 40
1
 40
1
 40
1
 40
1
 10
55686.869104
 20
18505.187149
 30
0.0
 10
56194.999168
 20
18715.661513
 30
0.0
 10
56526.308775
 20
19211.501380
 30
0.0
 10
56526.308775
 20
19761.497398
 30
0.0
  0
SPLINE
  5
3f2
100
AcDbEntity
  8
0
 62
7
100
AcDbSpline
 70
8
 71
3
 72
8
 73
4
 74
0
 40
0
 40
0
 40
0
 40
0
 40
1
 40
1
 40
1
 40
1
 10
56526.308775
 20
19761.497398
 30
0.0
 10
56526.308775
 20
20122.144195
 30
0.0
 10
56383.042393
 20
20468.019838
 30
0.0
 10
56128.026597
 20
20723.035634
 30
0.0
  0
SPLINE
  5
3f3
100
AcDbEntity
  8
0
 62
7
100
AcDbSpline
 70
8
 71
3
 72
8
 73
4
 74
0
 40
0
 40
0
 40
0
 40
0
 40
1
 40
1
 40
1
 40
1
 10
56128.026597
 20
20723.035634
 30
0.0
 10
55873.010801
 20
20978.051430
 30
0.0
 10
55527.135158
 20
21121.317812
 30
0.0
 10
55166.488360
 20
21121.317812
 30
0.0
  0
LWPOLYLINE
  5
3f4
100
AcDbEntity
  8
0
 62
7
100
AcDbPolyline
 90
2
 70
0
 10
565.999840
 20
60008.063988
 30
0.0
 10
565.999840
 20
8.080998
 30
0.0
  0
SPLINE
  5
3f5
100
AcDbEntity
  8
0
 62
7
100
AcDbSpline
 70
8
 71
3
 72
8
 73
4
 74
0
 40
0
 40
0
 40
0
 40
0
 40
1
 40
1
 40
1
 40
1
 10
150327.177383
 20
30577.151131
 30
0.0
 10
149777.181365
 20
30577.151131
 30
0.0
 10
149281.341498
 20
30245.841524
 30
0.0
 10
149070.867134
 20
29737.711461
 30
0.0
  0
SPLINE
  5
3f6
100
AcDbEntity
  8
0
 62
7
100
AcDbSpline
 70
8
 71
3
 72
8
 73
4
 74
0
 40
0
 40
0
 40
0
 40
0
 40
1
 40
1
 40
1
 40
1
 10
149070.867134
 20
29737.711461
 30
0.0
 10
148860.392770
 20
29229.581397
 30
0.0
 10
148976.733233
 20
28644.698394
 30
0.0
 10
149365.639146
 20
28255.792481
 30
0.0
  0
SPLINE
  5
3f7
100
AcDbEntity
  8
0
 62
7
100
AcDbSpline
 70
8
 71
3
 72
8
 73
4
 74
0
 40
0
 40
0
 40
0
 40
0
 40
1
 40
1
 40
1
 40
1
 10
149365.639146
 20
28255.792481
 30
0.0
 10
149754.545060
 20
27866.886567
 30
0.0
 10
150339.428063
 20
27750.546104
 30
0.0
 10
150847.558126
 20
27961.020468
 30
0.0
  0
SPLINE
  5
3f8
100
AcDbEntity
  8
0
 62
7
100
AcDbSpline
 70
8
 71
3
 72
8
 73
4
 74
0
 40
0
 40
0
 40
0
 40
0
 40
1
 40
1
 40
1
 40
1
 10
150847.558126
 20
27961.020468
 30
0.0
 10
151355.688190
 20
28171.494832
 30
0.0
 10
151686.997797
 20
28667.334700
 30
0.0
 10
151686.997797
 20
29217.330717
 30
0.0
  0
SPLINE
  5
3f9
100
AcDbEntity
  8
0
 62
7
100
AcDbSpline
 70
8
 71
3
 72
8
 73
4
 74
0
 40
0
 40
0
 40
0
 40
0
 40
1
 40
1
 40
1
 40
1
 10
151686.997797
 20
29217.330717
 30
0.0
 10
151686.997797
 20
29577.977514
 30
0.0
 10
151543.731415
 20
29923.853157
 30
0.0
 10
151288.715619
 20
30178.868953
 30
0.0
  0
SPLINE
  5
3fa
100
AcDbEntity
  8
0
 62
7
100
AcDbSpline
 70
8
 71
3
 72
8
 73
4
 74
0
 40
0
 40
0
 40
0
 40
0
 40
1
 40
1
 40
1
 40
1
 10
151288.715619
 20
30178.868953
 30
0.0
 10
151033.699823
 20
30433.884749
 30
0.0
 10
150687.824180
 20
30577.151131
 30
0.0
 10
150327.177383
 20
30577.151131
 30
0.0
  0
LWPOLYLINE
  5
3fb
100
AcDbEntity
  8
0
 62
7
100
AcDbPolyline
 90
1
 70
1
 10
55166.488360
 20
21121.317812
 30
0.0
  0
LWPOLYLINE
  5
3fc
100
AcDbEntity
  8
0
 62
7
100
AcDbPolyline
 90
1
 70
1
 10
150327.177383
 20
30577.151131
 30
0.0
  0
LWPOLYLINE
  5
3fd
100
AcDbEntity
  8
0
 62
7
100
AcDbPolyline
 90
2
 70
0
 10
18920.005636
 20
13019.376309
 30
0.0
 10
18920.005636
 20
28673.758871
 30
0.0
  0
LWPOLYLINE
  5
3fe
100
AcDbEntity
  8
0
 62
7
100
AcDbPolyline
 90
2
 70
0
 10
35317.635988
 20
13019.376309
 30
0.0
 10
18920.005636
 20
13019.376309
 30
0.0
  0
LWPOLYLINE
  5
3ff
100
AcDbEntity
  8
0
 62
7
100
AcDbPolyline
 90
2
 70
0
 10
35317.635988
 20
28673.758871
 30
0.0
 10
35317.635988
 20
13019.376309
 30
0.0
  0
LWPOLYLINE
  5
400
100
AcDbEntity
  8
0
 62
7
100
AcDbPolyline
 90
2
 70
0
 10
18920.005636
 20
28673.758871
 30
0.0
 10
35317.635988
 20
28673.758871
 30
0.0
  0
ENDSEC
  0
SECTION
  2
OBJECTS
  0
DICTIONARY
  5
C
330
0
100
AcDbDictionary
  3
ACAD_GROUP
350
D
  3
ACAD_MLINESTYLE
350
17
  0
DICTIONARY
  5
D
330
C
100
AcDbDictionary
  0
DICTIONARY
  5
1A
330
C
100
AcDbDictionary
  0
DICTIONARY
  5
17
330
C
100
AcDbDictionary
  3
STANDARD
350
18
  0
DICTIONARY
  5
19
330
C
100
AcDbDictionary
  0
ENDSEC
  0
EOF
