  0
SECTION
  2
HEADER
  9
$ACADVER
  1
AC1014
  9
$HANDSEED
  5
FFFF
  9
$MEASUREMENT
 70
     1
  0
ENDSEC
  0
SECTION
  2
TABLES
  0
TABLE
  2
VPORT
  5
8
330
0
100
AcDbSymbolTable
 70
     4
  0
VPORT
  5
2E
330
8
100
AcDbSymbolTableRecord
100
AcDbViewportTableRecord
  2
*ACTIVE
 70
     0
 10
0.0
 20
0.0
 11
1.0
 21
1.0
 12
210.0
 22
148.5
 13
0.0
 23
0.0
 14
10.0
 24
10.0
 15
10.0
 25
10.0
 16
0.0
 26
0.0
 36
1.0
 17
0.0
 27
0.0
 37
0.0
 40
341.0
 41
1.24
 42
50.0
 43
0.0
 44
0.0
 50
0.0
 51
0.0
 71
     0
 72
   100
 73
     1
 74
     3
 75
     0
 76
     0
 77
     0
 78
     0
  0
ENDTAB
  0
TABLE
  2
LTYPE
  5
5
330
0
100
AcDbSymbolTable
 70
     1
  0
LTYPE
  5
14
330
5
100
AcDbSymbolTableRecord
100
AcDbLinetypeTableRecord
  2
BYBLOCK
 70
     0
  3

 72
    65
 73
     0
 40
0.0
  0
LTYPE
  5
15
330
5
100
AcDbSymbolTableRecord
100
AcDbLinetypeTableRecord
  2
BYLAYER
 70
     0
  3

 72
    65
 73
     0
 40
0.0
  0
LTYPE
  5
16
330
5
100
AcDbSymbolTableRecord
100
AcDbLinetypeTableRecord
  2
CONTINUOUS
 70
     0
  3
Solid line
 72
    65
 73
     0
 40
0.0
  0
ENDTAB
  0
TABLE
  2
LAYER
  5
2
100
AcDbSymbolTable
 70
1
  0
LAYER
  5
50
100
AcDbSymbolTableRecord
100
AcDbLayerTableRecord
  2
0
 70
0
  6
CONTINUOUS
  0
ENDTAB
  0
TABLE
  2
STYLE
  5
3
330
0
100
AcDbSymbolTable
 70
     1
  0
STYLE
  5
11
330
3
100
AcDbSymbolTableRecord
100
AcDbTextStyleTableRecord
  2
STANDARD
 70
     0
 40
0.0
 41
1.0
 50
0.0
 71
     0
 42
2.5
  3
txt
  4

  0
ENDTAB
  0
TABLE
  2
VIEW
  5
6
330
0
100
AcDbSymbolTable
 70
     0
  0
ENDTAB
  0
TABLE
  2
UCS
  5
7
330
0
100
AcDbSymbolTable
 70
     0
  0
ENDTAB
  0
TABLE
  2
APPID
  5
9
330
0
100
AcDbSymbolTable
 70
     2
  0
APPID
  5
12
330
9
100
AcDbSymbolTableRecord
100
AcDbRegAppTableRecord
  2
ACAD
 70
     0
  0
ENDTAB
  0
TABLE
  2
DIMSTYLE
  5
A
330
0
100
AcDbSymbolTable
 70
     1
  0
DIMSTYLE
105
27
330
A
100
AcDbSymbolTableRecord
100
AcDbDimStyleTableRecord
  2
ISO-25
 70
     0
  3

  4

  5

  6

  7

 40
1.0
 41
2.5
 42
0.625
 43
3.75
 44
1.25
 45
0.0
 46
0.0
 47
0.0
 48
0.0
140
2.5
141
2.5
142
0.0
143
0.03937007874016
144
1.0
145
0.0
146
1.0
147
0.625
 71
     0
 72
     0
 73
     0
 74
     0
 75
     0
 76
     0
 77
     1
 78
     8
170
     0
171
     3
172
     1
173
     0
174
     0
175
     0
176
     0
177
     0
178
     0
270
     2
271
     2
272
     2
273
     2
274
     3
340
11
275
     0
280
     0
281
     0
282
     0
283
     0
284
     8
285
     0
286
     0
287
     3
288
     0
  0
ENDTAB
  0
TABLE
  2
BLOCK_RECORD
  5
1
330
0
100
AcDbSymbolTable
 70
     1
  0
BLOCK_RECORD
  5
1F
330
1
100
AcDbSymbolTableRecord
100
AcDbBlockTableRecord
  2
*MODEL_SPACE
  0
BLOCK_RECORD
  5
1B
330
1
100
AcDbSymbolTableRecord
100
AcDbBlockTableRecord
  2
*PAPER_SPACE
  0
ENDTAB
  0
ENDSEC
  0
SECTION
  2
BLOCKS
  0
BLOCK
  5
20
330
1F
100
AcDbEntity
  8
0
100
AcDbBlockBegin
  2
*MODEL_SPACE
 70
     0
 10
0.0
 20
0.0
 30
0.0
  3
*MODEL_SPACE
  1

  0
ENDBLK
  5
21
330
1F
100
AcDbEntity
  8
0
100
AcDbBlockEnd
  0
BLOCK
  5
1C
330
1B
100
AcDbEntity
 67
     1
  8
0
100
AcDbBlockBegin
  2
*PAPER_SPACE
  1

  0
ENDBLK
  5
1D
330
1B
100
AcDbEntity
 67
     1
  8
0
100
AcDbBlockEnd
  0
ENDSEC
  0
SECTION
  2
ENTITIES
  0
LWPOLYLINE
  5
100
100
AcDbEntity
  8
0
 62
7
100
AcDbPolyline
 90
2
 70
0
 10
3274.748014
 20
7835.371596
 30
0.0
 10
3274.748014
 20
8877.036211
 30
0.0
  0
LWPOLYLINE
  5
101
100
AcDbEntity
  8
0
 62
7
100
AcDbPolyline
 90
2
 70
0
 10
4316.412629
 20
7835.371596
 30
0.0
 10
3274.748014
 20
7835.371596
 30
0.0
  0
LWPOLYLINE
  5
102
100
AcDbEntity
  8
0
 62
7
100
AcDbPolyline
 90
2
 70
0
 10
4316.412629
 20
8877.036211
 30
0.0
 10
4316.412629
 20
7835.371596
 30
0.0
  0
LWPOLYLINE
  5
103
100
AcDbEntity
  8
0
 62
7
100
AcDbPolyline
 90
2
 70
0
 10
10670.646152
 20
335.227623
 30
0.0
 10
10670.646152
 20
1376.892237
 30
0.0
  0
LWPOLYLINE
  5
104
100
AcDbEntity
  8
0
 62
7
100
AcDbPolyline
 90
2
 70
0
 10
11712.310766
 20
1376.892237
 30
0.0
 10
11712.310766
 20
335.227623
 30
0.0
  0
LWPOLYLINE
  5
105
100
AcDbEntity
  8
0
 62
7
100
AcDbPolyline
 90
2
 70
0
 10
36128.855245
 20
7585.340339
 30
0.0
 10
36649.819844
 20
7585.340339
 30
0.0
  0
LWPOLYLINE
  5
106
100
AcDbEntity
  8
0
 62
7
100
AcDbPolyline
 90
2
 70
0
 10
36128.855245
 20
6543.675724
 30
0.0
 10
36128.855245
 20
7585.340339
 30
0.0
  0
LWPOLYLINE
  5
107
100
AcDbEntity
  8
0
 62
7
100
AcDbPolyline
 90
2
 70
0
 10
37170.519859
 20
6543.675724
 30
0.0
 10
36128.855245
 20
6543.675724
 30
0.0
  0
LWPOLYLINE
  5
108
100
AcDbEntity
  8
0
 62
7
100
AcDbPolyline
 90
2
 70
0
 10
37170.519859
 20
7585.340339
 30
0.0
 10
37170.519859
 20
6543.675724
 30
0.0
  0
LWPOLYLINE
  5
109
100
AcDbEntity
  8
0
 62
7
100
AcDbPolyline
 90
2
 70
0
 10
36649.819844
 20
7585.340339
 30
0.0
 10
37170.519859
 20
7585.340339
 30
0.0
  0
LWPOLYLINE
  5
10a
100
AcDbEntity
  8
0
 62
7
100
AcDbPolyline
 90
2
 70
0
 10
38878.934494
 20
4293.658991
 30
0.0
 10
38878.934494
 20
5335.323605
 30
0.0
  0
LWPOLYLINE
  5
10b
100
AcDbEntity
  8
0
 62
7
100
AcDbPolyline
 90
2
 70
0
 10
39920.599108
 20
4293.658991
 30
0.0
 10
38878.934494
 20
4293.658991
 30
0.0
  0
LWPOLYLINE
  5
10c
100
AcDbEntity
  8
0
 62
7
100
AcDbPolyline
 90
2
 70
0
 10
39920.599108
 20
5335.323605
 30
0.0
 10
39920.599108
 20
4293.658991
 30
0.0
  0
LWPOLYLINE
  5
10d
100
AcDbEntity
  8
0
 62
7
100
AcDbPolyline
 90
2
 70
0
 10
649.816686
 20
4126.971486
 30
0.0
 10
649.816686
 20
5168.636100
 30
0.0
  0
LWPOLYLINE
  5
10e
100
AcDbEntity
  8
0
 62
7
100
AcDbPolyline
 90
2
 70
0
 10
1691.481300
 20
4126.971486
 30
0.0
 10
649.816686
 20
4126.971486
 30
0.0
  0
LWPOLYLINE
  5
10f
100
AcDbEntity
  8
0
 62
7
100
AcDbPolyline
 90
2
 70
0
 10
1691.481300
 20
5168.636100
 30
0.0
 10
1691.481300
 20
4126.971486
 30
0.0
  0
LWPOLYLINE
  5
110
100
AcDbEntity
  8
0
 62
7
100
AcDbPolyline
 90
2
 70
0
 10
12212.373281
 20
5564.452779
 30
0.0
 10
12212.373281
 20
6606.117393
 30
0.0
  0
LWPOLYLINE
  5
111
100
AcDbEntity
  8
0
 62
7
100
AcDbPolyline
 90
2
 70
0
 10
13254.037896
 20
5564.452779
 30
0.0
 10
12212.373281
 20
5564.452779
 30
0.0
  0
LWPOLYLINE
  5
112
100
AcDbEntity
  8
0
 62
7
100
AcDbPolyline
 90
2
 70
0
 10
13254.037896
 20
6606.117393
 30
0.0
 10
13254.037896
 20
5564.452779
 30
0.0
  0
LWPOLYLINE
  5
113
100
AcDbEntity
  8
0
 62
7
100
AcDbPolyline
 90
2
 70
0
 10
33920.642679
 20
1210.204732
 30
0.0
 10
34441.342694
 20
1210.204732
 30
0.0
  0
LWPOLYLINE
  5
114
100
AcDbEntity
  8
0
 62
7
100
AcDbPolyline
 90
2
 70
0
 10
33920.642679
 20
168.540118
 30
0.0
 10
33920.642679
 20
1210.204732
 30
0.0
  0
LWPOLYLINE
  5
115
100
AcDbEntity
  8
0
 62
7
100
AcDbPolyline
 90
2
 70
0
 10
34962.307293
 20
168.540118
 30
0.0
 10
33920.642679
 20
168.540118
 30
0.0
  0
LWPOLYLINE
  5
116
100
AcDbEntity
  8
0
 62
7
100
AcDbPolyline
 90
2
 70
0
 10
34962.307293
 20
1210.204732
 30
0.0
 10
34962.307293
 20
168.540118
 30
0.0
  0
LWPOLYLINE
  5
117
100
AcDbEntity
  8
0
 62
7
100
AcDbPolyline
 90
2
 70
0
 10
34441.342694
 20
1210.204732
 30
0.0
 10
34962.307293
 20
1210.204732
 30
0.0
  0
LWPOLYLINE
  5
118
100
AcDbEntity
  8
0
 62
7
100
AcDbPolyline
 90
2
 70
0
 10
29753.984221
 20
5356.225689
 30
0.0
 10
29753.984221
 20
6397.890303
 30
0.0
  0
LWPOLYLINE
  5
119
100
AcDbEntity
  8
0
 62
7
100
AcDbPolyline
 90
2
 70
0
 10
30795.648836
 20
5356.225689
 30
0.0
 10
29753.984221
 20
5356.225689
 30
0.0
  0
LWPOLYLINE
  5
11a
100
AcDbEntity
  8
0
 62
7
100
AcDbPolyline
 90
2
 70
0
 10
9316.508611
 20
335.227623
 30
0.0
 10
9316.508611
 20
1376.892237
 30
0.0
  0
LWPOLYLINE
  5
11b
100
AcDbEntity
  8
0
 62
7
100
AcDbPolyline
 90
2
 70
0
 10
10358.173226
 20
1376.892237
 30
0.0
 10
10358.173226
 20
335.227623
 30
0.0
  0
LWPOLYLINE
  5
11c
100
AcDbEntity
  8
0
 62
7
100
AcDbPolyline
 90
2
 70
0
 10
7962.371071
 20
335.227623
 30
0.0
 10
7962.371071
 20
1376.892237
 30
0.0
  0
LWPOLYLINE
  5
11d
100
AcDbEntity
  8
0
 62
7
100
AcDbPolyline
 90
2
 70
0
 10
9004.035685
 20
1376.892237
 30
0.0
 10
9004.035685
 20
335.227623
 30
0.0
  0
LWPOLYLINE
  5
11e
100
AcDbEntity
  8
0
 62
7
100
AcDbPolyline
 90
2
 70
0
 10
6608.233531
 20
335.227623
 30
0.0
 10
6608.233531
 20
1376.892237
 30
0.0
  0
LWPOLYLINE
  5
11f
100
AcDbEntity
  8
0
 62
7
100
AcDbPolyline
 90
2
 70
0
 10
7649.898145
 20
1376.892237
 30
0.0
 10
7649.898145
 20
335.227623
 30
0.0
  0
LWPOLYLINE
  5
120
100
AcDbEntity
  8
0
 62
7
100
AcDbPolyline
 90
2
 70
0
 10
5253.831407
 20
335.227623
 30
0.0
 10
5253.831407
 20
1376.892237
 30
0.0
  0
LWPOLYLINE
  5
121
100
AcDbEntity
  8
0
 62
7
100
AcDbPolyline
 90
2
 70
0
 10
6295.496021
 20
1376.892237
 30
0.0
 10
6295.496021
 20
335.227623
 30
0.0
  0
LWPOLYLINE
  5
122
100
AcDbEntity
  8
0
 62
7
100
AcDbPolyline
 90
2
 70
0
 10
3899.693866
 20
335.227623
 30
0.0
 10
3899.693866
 20
1376.892237
 30
0.0
  0
LWPOLYLINE
  5
123
100
AcDbEntity
  8
0
 62
7
100
AcDbPolyline
 90
2
 70
0
 10
4941.358481
 20
1376.892237
 30
0.0
 10
4941.358481
 20
335.227623
 30
0.0
  0
LWPOLYLINE
  5
124
100
AcDbEntity
  8
0
 62
7
100
AcDbPolyline
 90
2
 70
0
 10
2545.556326
 20
335.227623
 30
0.0
 10
2545.556326
 20
1376.892237
 30
0.0
  0
LWPOLYLINE
  5
125
100
AcDbEntity
  8
0
 62
7
100
AcDbPolyline
 90
2
 70
0
 10
3587.220940
 20
1376.892237
 30
0.0
 10
3587.220940
 20
335.227623
 30
0.0
  0
LWPOLYLINE
  5
126
100
AcDbEntity
  8
0
 62
7
100
AcDbPolyline
 90
2
 70
0
 10
1191.418786
 20
335.227623
 30
0.0
 10
1191.418786
 20
1376.892237
 30
0.0
  0
LWPOLYLINE
  5
127
100
AcDbEntity
  8
0
 62
7
100
AcDbPolyline
 90
2
 70
0
 10
2233.083400
 20
1376.892237
 30
0.0
 10
2233.083400
 20
335.227623
 30
0.0
  0
LWPOLYLINE
  5
128
100
AcDbEntity
  8
0
 62
7
100
AcDbPolyline
 90
2
 70
0
 10
38399.774063
 20
9564.423731
 30
0.0
 10
38920.738661
 20
9564.423731
 30
0.0
  0
LWPOLYLINE
  5
129
100
AcDbEntity
  8
0
 62
7
100
AcDbPolyline
 90
2
 70
0
 10
38399.774063
 20
8522.759117
 30
0.0
 10
38399.774063
 20
9564.423731
 30
0.0
  0
LWPOLYLINE
  5
12a
100
AcDbEntity
  8
0
 62
7
100
AcDbPolyline
 90
2
 70
0
 10
39441.438677
 20
8522.759117
 30
0.0
 10
38399.774063
 20
8522.759117
 30
0.0
  0
LWPOLYLINE
  5
12b
100
AcDbEntity
  8
0
 62
7
100
AcDbPolyline
 90
2
 70
0
 10
39441.438677
 20
9564.423731
 30
0.0
 10
39441.438677
 20
8522.759117
 30
0.0
  0
LWPOLYLINE
  5
12c
100
AcDbEntity
  8
0
 62
7
100
AcDbPolyline
 90
2
 70
0
 10
38920.738661
 20
9564.423731
 30
0.0
 10
39441.438677
 20
9564.423731
 30
0.0
  0
LWPOLYLINE
  5
12d
100
AcDbEntity
  8
0
 62
7
100
AcDbPolyline
 90
2
 70
0
 10
35109.151048
 20
11618.648793
 30
0.0
 10
35109.151048
 20
12660.313407
 30
0.0
  0
LWPOLYLINE
  5
12e
100
AcDbEntity
  8
0
 62
7
100
AcDbPolyline
 90
2
 70
0
 10
36150.815662
 20
11618.648793
 30
0.0
 10
35109.151048
 20
11618.648793
 30
0.0
  0
LWPOLYLINE
  5
12f
100
AcDbEntity
  8
0
 62
7
100
AcDbPolyline
 90
2
 70
0
 10
36150.815662
 20
12660.313407
 30
0.0
 10
36150.815662
 20
11618.648793
 30
0.0
  0
LWPOLYLINE
  5
130
100
AcDbEntity
  8
0
 62
7
100
AcDbPolyline
 90
2
 70
0
 10
12733.073297
 20
772.848469
 30
0.0
 10
12733.073297
 20
1814.513083
 30
0.0
  0
LWPOLYLINE
  5
131
100
AcDbEntity
  8
0
 62
7
100
AcDbPolyline
 90
2
 70
0
 10
13774.737911
 20
772.848469
 30
0.0
 10
12733.073297
 20
772.848469
 30
0.0
  0
LWPOLYLINE
  5
132
100
AcDbEntity
  8
0
 62
7
100
AcDbPolyline
 90
2
 70
0
 10
13774.737911
 20
1814.513083
 30
0.0
 10
13774.737911
 20
772.848469
 30
0.0
  0
LWPOLYLINE
  5
133
100
AcDbEntity
  8
0
 62
7
100
AcDbPolyline
 90
2
 70
0
 10
1524.793796
 20
5981.171541
 30
0.0
 10
1524.793796
 20
7022.836155
 30
0.0
  0
LWPOLYLINE
  5
134
100
AcDbEntity
  8
0
 62
7
100
AcDbPolyline
 90
2
 70
0
 10
2566.458410
 20
5981.171541
 30
0.0
 10
1524.793796
 20
5981.171541
 30
0.0
  0
LWPOLYLINE
  5
135
100
AcDbEntity
  8
0
 62
7
100
AcDbPolyline
 90
2
 70
0
 10
2566.458410
 20
7022.836155
 30
0.0
 10
2566.458410
 20
5981.171541
 30
0.0
  0
LWPOLYLINE
  5
136
100
AcDbEntity
  8
0
 62
7
100
AcDbPolyline
 90
2
 70
0
 10
524.668766
 20
8064.500770
 30
0.0
 10
524.668766
 20
9106.165384
 30
0.0
  0
LWPOLYLINE
  5
137
100
AcDbEntity
  8
0
 62
7
100
AcDbPolyline
 90
2
 70
0
 10
1566.333380
 20
8064.500770
 30
0.0
 10
524.668766
 20
8064.500770
 30
0.0
  0
LWPOLYLINE
  5
138
100
AcDbEntity
  8
0
 62
7
100
AcDbPolyline
 90
2
 70
0
 10
1566.333380
 20
9106.165384
 30
0.0
 10
1566.333380
 20
8064.500770
 30
0.0
  0
LWPOLYLINE
  5
139
100
AcDbEntity
  8
0
 62
7
100
AcDbPolyline
 90
2
 70
0
 10
10483.056563
 20
8022.696602
 30
0.0
 10
11004.021162
 20
8022.696602
 30
0.0
  0
LWPOLYLINE
  5
13a
100
AcDbEntity
  8
0
 62
7
100
AcDbPolyline
 90
2
 70
0
 10
10483.056563
 20
6981.031987
 30
0.0
 10
10483.056563
 20
8022.696602
 30
0.0
  0
LWPOLYLINE
  5
13b
100
AcDbEntity
  8
0
 62
7
100
AcDbPolyline
 90
2
 70
0
 10
11524.721177
 20
6981.031987
 30
0.0
 10
10483.056563
 20
6981.031987
 30
0.0
  0
LWPOLYLINE
  5
13c
100
AcDbEntity
  8
0
 62
7
100
AcDbPolyline
 90
2
 70
0
 10
11524.721177
 20
8022.696602
 30
0.0
 10
11524.721177
 20
6981.031987
 30
0.0
  0
LWPOLYLINE
  5
13d
100
AcDbEntity
  8
0
 62
7
100
AcDbPolyline
 90
2
 70
0
 10
11004.021162
 20
8022.696602
 30
0.0
 10
11524.721177
 20
8022.696602
 30
0.0
  0
LWPOLYLINE
  5
13e
100
AcDbEntity
  8
0
 62
7
100
AcDbPolyline
 90
2
 70
0
 10
12748.683714
 20
3543.565218
 30
0.0
 10
12748.683714
 20
4585.229833
 30
0.0
  0
LWPOLYLINE
  5
13f
100
AcDbEntity
  8
0
 62
7
100
AcDbPolyline
 90
2
 70
0
 10
13790.348328
 20
3543.565218
 30
0.0
 10
12748.683714
 20
3543.565218
 30
0.0
  0
LWPOLYLINE
  5
140
100
AcDbEntity
  8
0
 62
7
100
AcDbPolyline
 90
2
 70
0
 10
13790.348328
 20
4585.229833
 30
0.0
 10
13790.348328
 20
3543.565218
 30
0.0
  0
LWPOLYLINE
  5
141
100
AcDbEntity
  8
0
 62
7
100
AcDbPolyline
 90
2
 70
0
 10
10670.646152
 20
1689.365163
 30
0.0
 10
10670.646152
 20
2731.029777
 30
0.0
  0
LWPOLYLINE
  5
142
100
AcDbEntity
  8
0
 62
7
100
AcDbPolyline
 90
2
 70
0
 10
11712.310766
 20
2731.029777
 30
0.0
 10
11712.310766
 20
1689.365163
 30
0.0
  0
LWPOLYLINE
  5
143
100
AcDbEntity
  8
0
 62
7
100
AcDbPolyline
 90
2
 70
0
 10
9316.508611
 20
1689.365163
 30
0.0
 10
9316.508611
 20
2731.029777
 30
0.0
  0
LWPOLYLINE
  5
144
100
AcDbEntity
  8
0
 62
7
100
AcDbPolyline
 90
2
 70
0
 10
10358.173226
 20
2731.029777
 30
0.0
 10
10358.173226
 20
1689.365163
 30
0.0
  0
LWPOLYLINE
  5
145
100
AcDbEntity
  8
0
 62
7
100
AcDbPolyline
 90
2
 70
0
 10
7962.371071
 20
1689.365163
 30
0.0
 10
7962.371071
 20
2731.029777
 30
0.0
  0
LWPOLYLINE
  5
146
100
AcDbEntity
  8
0
 62
7
100
AcDbPolyline
 90
2
 70
0
 10
9004.035685
 20
2731.029777
 30
0.0
 10
9004.035685
 20
1689.365163
 30
0.0
  0
LWPOLYLINE
  5
147
100
AcDbEntity
  8
0
 62
7
100
AcDbPolyline
 90
2
 70
0
 10
6608.233531
 20
1689.365163
 30
0.0
 10
6608.233531
 20
2731.029777
 30
0.0
  0
LWPOLYLINE
  5
148
100
AcDbEntity
  8
0
 62
7
100
AcDbPolyline
 90
2
 70
0
 10
7649.898145
 20
2731.029777
 30
0.0
 10
7649.898145
 20
1689.365163
 30
0.0
  0
LWPOLYLINE
  5
149
100
AcDbEntity
  8
0
 62
7
100
AcDbPolyline
 90
2
 70
0
 10
5253.831407
 20
1689.365163
 30
0.0
 10
5253.831407
 20
2731.029777
 30
0.0
  0
LWPOLYLINE
  5
14a
100
AcDbEntity
  8
0
 62
7
100
AcDbPolyline
 90
2
 70
0
 10
6295.496021
 20
2731.029777
 30
0.0
 10
6295.496021
 20
1689.365163
 30
0.0
  0
LWPOLYLINE
  5
14b
100
AcDbEntity
  8
0
 62
7
100
AcDbPolyline
 90
2
 70
0
 10
3899.693866
 20
1689.365163
 30
0.0
 10
3899.693866
 20
2731.029777
 30
0.0
  0
LWPOLYLINE
  5
14c
100
AcDbEntity
  8
0
 62
7
100
AcDbPolyline
 90
2
 70
0
 10
4941.358481
 20
2731.029777
 30
0.0
 10
4941.358481
 20
1689.365163
 30
0.0
  0
LWPOLYLINE
  5
14d
100
AcDbEntity
  8
0
 62
7
100
AcDbPolyline
 90
2
 70
0
 10
2545.556326
 20
1689.365163
 30
0.0
 10
2545.556326
 20
2731.029777
 30
0.0
  0
LWPOLYLINE
  5
14e
100
AcDbEntity
  8
0
 62
7
100
AcDbPolyline
 90
2
 70
0
 10
3587.220940
 20
2731.029777
 30
0.0
 10
3587.220940
 20
1689.365163
 30
0.0
  0
LWPOLYLINE
  5
14f
100
AcDbEntity
  8
0
 62
7
100
AcDbPolyline
 90
2
 70
0
 10
1191.418786
 20
1689.365163
 30
0.0
 10
1191.418786
 20
2731.029777
 30
0.0
  0
LWPOLYLINE
  5
150
100
AcDbEntity
  8
0
 62
7
100
AcDbPolyline
 90
2
 70
0
 10
2233.083400
 20
2731.029777
 30
0.0
 10
2233.083400
 20
1689.365163
 30
0.0
  0
LWPOLYLINE
  5
151
100
AcDbEntity
  8
0
 62
7
100
AcDbPolyline
 90
2
 70
0
 10
10670.646152
 20
335.227623
 30
0.0
 10
10670.646152
 20
1376.892237
 30
0.0
  0
LWPOLYLINE
  5
152
100
AcDbEntity
  8
0
 62
7
100
AcDbPolyline
 90
2
 70
0
 10
11712.310766
 20
335.227623
 30
0.0
 10
10670.646152
 20
335.227623
 30
0.0
  0
LWPOLYLINE
  5
153
100
AcDbEntity
  8
0
 62
7
100
AcDbPolyline
 90
2
 70
0
 10
11712.310766
 20
1376.892237
 30
0.0
 10
11712.310766
 20
335.227623
 30
0.0
  0
LWPOLYLINE
  5
154
100
AcDbEntity
  8
0
 62
7
100
AcDbPolyline
 90
2
 70
0
 10
10670.646152
 20
1376.892237
 30
0.0
 10
11712.310766
 20
1376.892237
 30
0.0
  0
LWPOLYLINE
  5
155
100
AcDbEntity
  8
0
 62
7
100
AcDbPolyline
 90
2
 70
0
 10
36128.855245
 20
6543.675724
 30
0.0
 10
36128.855245
 20
7585.340339
 30
0.0
  0
LWPOLYLINE
  5
156
100
AcDbEntity
  8
0
 62
7
100
AcDbPolyline
 90
2
 70
0
 10
37170.519859
 20
6543.675724
 30
0.0
 10
36128.855245
 20
6543.675724
 30
0.0
  0
LWPOLYLINE
  5
157
100
AcDbEntity
  8
0
 62
7
100
AcDbPolyline
 90
2
 70
0
 10
37170.519859
 20
7585.340339
 30
0.0
 10
37170.519859
 20
6543.675724
 30
0.0
  0
LWPOLYLINE
  5
158
100
AcDbEntity
  8
0
 62
7
100
AcDbPolyline
 90
2
 70
0
 10
36128.855245
 20
7585.340339
 30
0.0
 10
37170.519859
 20
7585.340339
 30
0.0
  0
LWPOLYLINE
  5
159
100
AcDbEntity
  8
0
 62
7
100
AcDbPolyline
 90
2
 70
0
 10
38878.934494
 20
4293.658991
 30
0.0
 10
38878.934494
 20
5335.323605
 30
0.0
  0
LWPOLYLINE
  5
15a
100
AcDbEntity
  8
0
 62
7
100
AcDbPolyline
 90
2
 70
0
 10
39920.599108
 20
4293.658991
 30
0.0
 10
38878.934494
 20
4293.658991
 30
0.0
  0
LWPOLYLINE
  5
15b
100
AcDbEntity
  8
0
 62
7
100
AcDbPolyline
 90
2
 70
0
 10
39920.599108
 20
5335.323605
 30
0.0
 10
39920.599108
 20
4293.658991
 30
0.0
  0
LWPOLYLINE
  5
15c
100
AcDbEntity
  8
0
 62
7
100
AcDbPolyline
 90
2
 70
0
 10
38878.934494
 20
5335.323605
 30
0.0
 10
39920.599108
 20
5335.323605
 30
0.0
  0
LWPOLYLINE
  5
15d
100
AcDbEntity
  8
0
 62
7
100
AcDbPolyline
 90
2
 70
0
 10
649.816686
 20
4126.971486
 30
0.0
 10
649.816686
 20
5168.636100
 30
0.0
  0
LWPOLYLINE
  5
15e
100
AcDbEntity
  8
0
 62
7
100
AcDbPolyline
 90
2
 70
0
 10
1691.481300
 20
4126.971486
 30
0.0
 10
649.816686
 20
4126.971486
 30
0.0
  0
LWPOLYLINE
  5
15f
100
AcDbEntity
  8
0
 62
7
100
AcDbPolyline
 90
2
 70
0
 10
1691.481300
 20
5168.636100
 30
0.0
 10
1691.481300
 20
4126.971486
 30
0.0
  0
LWPOLYLINE
  5
160
100
AcDbEntity
  8
0
 62
7
100
AcDbPolyline
 90
2
 70
0
 10
649.816686
 20
5168.636100
 30
0.0
 10
1691.481300
 20
5168.636100
 30
0.0
  0
LWPOLYLINE
  5
161
100
AcDbEntity
  8
0
 62
7
100
AcDbPolyline
 90
2
 70
0
 10
12212.373281
 20
5564.452779
 30
0.0
 10
12212.373281
 20
6606.117393
 30
0.0
  0
LWPOLYLINE
  5
162
100
AcDbEntity
  8
0
 62
7
100
AcDbPolyline
 90
2
 70
0
 10
13254.037896
 20
5564.452779
 30
0.0
 10
12212.373281
 20
5564.452779
 30
0.0
  0
LWPOLYLINE
  5
163
100
AcDbEntity
  8
0
 62
7
100
AcDbPolyline
 90
2
 70
0
 10
13254.037896
 20
6606.117393
 30
0.0
 10
13254.037896
 20
5564.452779
 30
0.0
  0
LWPOLYLINE
  5
164
100
AcDbEntity
  8
0
 62
7
100
AcDbPolyline
 90
2
 70
0
 10
12212.373281
 20
6606.117393
 30
0.0
 10
13254.037896
 20
6606.117393
 30
0.0
  0
LWPOLYLINE
  5
165
100
AcDbEntity
  8
0
 62
7
100
AcDbPolyline
 90
2
 70
0
 10
33920.642679
 20
168.540118
 30
0.0
 10
33920.642679
 20
1210.204732
 30
0.0
  0
LWPOLYLINE
  5
166
100
AcDbEntity
  8
0
 62
7
100
AcDbPolyline
 90
2
 70
0
 10
34962.307293
 20
168.540118
 30
0.0
 10
33920.642679
 20
168.540118
 30
0.0
  0
LWPOLYLINE
  5
167
100
AcDbEntity
  8
0
 62
7
100
AcDbPolyline
 90
2
 70
0
 10
34962.307293
 20
1210.204732
 30
0.0
 10
34962.307293
 20
168.540118
 30
0.0
  0
LWPOLYLINE
  5
168
100
AcDbEntity
  8
0
 62
7
100
AcDbPolyline
 90
2
 70
0
 10
33920.642679
 20
1210.204732
 30
0.0
 10
34962.307293
 20
1210.204732
 30
0.0
  0
LWPOLYLINE
  5
169
100
AcDbEntity
  8
0
 62
7
100
AcDbPolyline
 90
2
 70
0
 10
29753.984221
 20
5356.225689
 30
0.0
 10
29753.984221
 20
6397.890303
 30
0.0
  0
LWPOLYLINE
  5
16a
100
AcDbEntity
  8
0
 62
7
100
AcDbPolyline
 90
2
 70
0
 10
30795.648836
 20
5356.225689
 30
0.0
 10
29753.984221
 20
5356.225689
 30
0.0
  0
LWPOLYLINE
  5
16b
100
AcDbEntity
  8
0
 62
7
100
AcDbPolyline
 90
2
 70
0
 10
30795.648836
 20
6397.890303
 30
0.0
 10
30795.648836
 20
5356.225689
 30
0.0
  0
LWPOLYLINE
  5
16c
100
AcDbEntity
  8
0
 62
7
100
AcDbPolyline
 90
2
 70
0
 10
29753.984221
 20
6397.890303
 30
0.0
 10
30795.648836
 20
6397.890303
 30
0.0
  0
LWPOLYLINE
  5
16d
100
AcDbEntity
  8
0
 62
7
100
AcDbPolyline
 90
2
 70
0
 10
9316.508611
 20
335.227623
 30
0.0
 10
9316.508611
 20
1376.892237
 30
0.0
  0
LWPOLYLINE
  5
16e
100
AcDbEntity
  8
0
 62
7
100
AcDbPolyline
 90
2
 70
0
 10
10358.173226
 20
335.227623
 30
0.0
 10
9316.508611
 20
335.227623
 30
0.0
  0
LWPOLYLINE
  5
16f
100
AcDbEntity
  8
0
 62
7
100
AcDbPolyline
 90
2
 70
0
 10
10358.173226
 20
1376.892237
 30
0.0
 10
10358.173226
 20
335.227623
 30
0.0
  0
LWPOLYLINE
  5
170
100
AcDbEntity
  8
0
 62
7
100
AcDbPolyline
 90
2
 70
0
 10
9316.508611
 20
1376.892237
 30
0.0
 10
10358.173226
 20
1376.892237
 30
0.0
  0
LWPOLYLINE
  5
171
100
AcDbEntity
  8
0
 62
7
100
AcDbPolyline
 90
2
 70
0
 10
7962.371071
 20
335.227623
 30
0.0
 10
7962.371071
 20
1376.892237
 30
0.0
  0
LWPOLYLINE
  5
172
100
AcDbEntity
  8
0
 62
7
100
AcDbPolyline
 90
2
 70
0
 10
9004.035685
 20
335.227623
 30
0.0
 10
7962.371071
 20
335.227623
 30
0.0
  0
LWPOLYLINE
  5
173
100
AcDbEntity
  8
0
 62
7
100
AcDbPolyline
 90
2
 70
0
 10
9004.035685
 20
1376.892237
 30
0.0
 10
9004.035685
 20
335.227623
 30
0.0
  0
LWPOLYLINE
  5
174
100
AcDbEntity
  8
0
 62
7
100
AcDbPolyline
 90
2
 70
0
 10
7962.371071
 20
1376.892237
 30
0.0
 10
9004.035685
 20
1376.892237
 30
0.0
  0
LWPOLYLINE
  5
175
100
AcDbEntity
  8
0
 62
7
100
AcDbPolyline
 90
2
 70
0
 10
6608.233531
 20
335.227623
 30
0.0
 10
6608.233531
 20
1376.892237
 30
0.0
  0
LWPOLYLINE
  5
176
100
AcDbEntity
  8
0
 62
7
100
AcDbPolyline
 90
2
 70
0
 10
7649.898145
 20
335.227623
 30
0.0
 10
6608.233531
 20
335.227623
 30
0.0
  0
LWPOLYLINE
  5
177
100
AcDbEntity
  8
0
 62
7
100
AcDbPolyline
 90
2
 70
0
 10
7649.898145
 20
1376.892237
 30
0.0
 10
7649.898145
 20
335.227623
 30
0.0
  0
LWPOLYLINE
  5
178
100
AcDbEntity
  8
0
 62
7
100
AcDbPolyline
 90
2
 70
0
 10
6608.233531
 20
1376.892237
 30
0.0
 10
7649.898145
 20
1376.892237
 30
0.0
  0
LWPOLYLINE
  5
179
100
AcDbEntity
  8
0
 62
7
100
AcDbPolyline
 90
2
 70
0
 10
5253.831407
 20
335.227623
 30
0.0
 10
5253.831407
 20
1376.892237
 30
0.0
  0
LWPOLYLINE
  5
17a
100
AcDbEntity
  8
0
 62
7
100
AcDbPolyline
 90
2
 70
0
 10
6295.496021
 20
335.227623
 30
0.0
 10
5253.831407
 20
335.227623
 30
0.0
  0
LWPOLYLINE
  5
17b
100
AcDbEntity
  8
0
 62
7
100
AcDbPolyline
 90
2
 70
0
 10
6295.496021
 20
1376.892237
 30
0.0
 10
6295.496021
 20
335.227623
 30
0.0
  0
LWPOLYLINE
  5
17c
100
AcDbEntity
  8
0
 62
7
100
AcDbPolyline
 90
2
 70
0
 10
5253.831407
 20
1376.892237
 30
0.0
 10
6295.496021
 20
1376.892237
 30
0.0
  0
LWPOLYLINE
  5
17d
100
AcDbEntity
  8
0
 62
7
100
AcDbPolyline
 90
2
 70
0
 10
3899.693866
 20
335.227623
 30
0.0
 10
3899.693866
 20
1376.892237
 30
0.0
  0
LWPOLYLINE
  5
17e
100
AcDbEntity
  8
0
 62
7
100
AcDbPolyline
 90
2
 70
0
 10
4941.358481
 20
335.227623
 30
0.0
 10
3899.693866
 20
335.227623
 30
0.0
  0
LWPOLYLINE
  5
17f
100
AcDbEntity
  8
0
 62
7
100
AcDbPolyline
 90
2
 70
0
 10
4941.358481
 20
1376.892237
 30
0.0
 10
4941.358481
 20
335.227623
 30
0.0
  0
LWPOLYLINE
  5
180
100
AcDbEntity
  8
0
 62
7
100
AcDbPolyline
 90
2
 70
0
 10
3899.693866
 20
1376.892237
 30
0.0
 10
4941.358481
 20
1376.892237
 30
0.0
  0
LWPOLYLINE
  5
181
100
AcDbEntity
  8
0
 62
7
100
AcDbPolyline
 90
2
 70
0
 10
2545.556326
 20
335.227623
 30
0.0
 10
2545.556326
 20
1376.892237
 30
0.0
  0
LWPOLYLINE
  5
182
100
AcDbEntity
  8
0
 62
7
100
AcDbPolyline
 90
2
 70
0
 10
3587.220940
 20
335.227623
 30
0.0
 10
2545.556326
 20
335.227623
 30
0.0
  0
LWPOLYLINE
  5
183
100
AcDbEntity
  8
0
 62
7
100
AcDbPolyline
 90
2
 70
0
 10
3587.220940
 20
1376.892237
 30
0.0
 10
3587.220940
 20
335.227623
 30
0.0
  0
LWPOLYLINE
  5
184
100
AcDbEntity
  8
0
 62
7
100
AcDbPolyline
 90
2
 70
0
 10
2545.556326
 20
1376.892237
 30
0.0
 10
3587.220940
 20
1376.892237
 30
0.0
  0
LWPOLYLINE
  5
185
100
AcDbEntity
  8
0
 62
7
100
AcDbPolyline
 90
2
 70
0
 10
1191.418786
 20
335.227623
 30
0.0
 10
1191.418786
 20
1376.892237
 30
0.0
  0
LWPOLYLINE
  5
186
100
AcDbEntity
  8
0
 62
7
100
AcDbPolyline
 90
2
 70
0
 10
2233.083400
 20
335.227623
 30
0.0
 10
1191.418786
 20
335.227623
 30
0.0
  0
LWPOLYLINE
  5
187
100
AcDbEntity
  8
0
 62
7
100
AcDbPolyline
 90
2
 70
0
 10
2233.083400
 20
1376.892237
 30
0.0
 10
2233.083400
 20
335.227623
 30
0.0
  0
LWPOLYLINE
  5
188
100
AcDbEntity
  8
0
 62
7
100
AcDbPolyline
 90
2
 70
0
 10
1191.418786
 20
1376.892237
 30
0.0
 10
2233.083400
 20
1376.892237
 30
0.0
  0
LWPOLYLINE
  5
189
100
AcDbEntity
  8
0
 62
7
100
AcDbPolyline
 90
2
 70
0
 10
38399.774063
 20
8522.759117
 30
0.0
 10
38399.774063
 20
9564.423731
 30
0.0
  0
LWPOLYLINE
  5
18a
100
AcDbEntity
  8
0
 62
7
100
AcDbPolyline
 90
2
 70
0
 10
39441.438677
 20
8522.759117
 30
0.0
 10
38399.774063
 20
8522.759117
 30
0.0
  0
LWPOLYLINE
  5
18b
100
AcDbEntity
  8
0
 62
7
100
AcDbPolyline
 90
2
 70
0
 10
39441.438677
 20
9564.423731
 30
0.0
 10
39441.438677
 20
8522.759117
 30
0.0
  0
LWPOLYLINE
  5
18c
100
AcDbEntity
  8
0
 62
7
100
AcDbPolyline
 90
2
 70
0
 10
38399.774063
 20
9564.423731
 30
0.0
 10
39441.438677
 20
9564.423731
 30
0.0
  0
LWPOLYLINE
  5
18d
100
AcDbEntity
  8
0
 62
7
100
AcDbPolyline
 90
2
 70
0
 10
35109.151048
 20
11618.648793
 30
0.0
 10
35109.151048
 20
12660.313407
 30
0.0
  0
LWPOLYLINE
  5
18e
100
AcDbEntity
  8
0
 62
7
100
AcDbPolyline
 90
2
 70
0
 10
36150.815662
 20
11618.648793
 30
0.0
 10
35109.151048
 20
11618.648793
 30
0.0
  0
LWPOLYLINE
  5
18f
100
AcDbEntity
  8
0
 62
7
100
AcDbPolyline
 90
2
 70
0
 10
36150.815662
 20
12660.313407
 30
0.0
 10
36150.815662
 20
11618.648793
 30
0.0
  0
LWPOLYLINE
  5
190
100
AcDbEntity
  8
0
 62
7
100
AcDbPolyline
 90
2
 70
0
 10
35109.151048
 20
12660.313407
 30
0.0
 10
36150.815662
 20
12660.313407
 30
0.0
  0
LWPOLYLINE
  5
191
100
AcDbEntity
  8
0
 62
7
100
AcDbPolyline
 90
2
 70
0
 10
12733.073297
 20
772.848469
 30
0.0
 10
12733.073297
 20
1814.513083
 30
0.0
  0
LWPOLYLINE
  5
192
100
AcDbEntity
  8
0
 62
7
100
AcDbPolyline
 90
2
 70
0
 10
13774.737911
 20
772.848469
 30
0.0
 10
12733.073297
 20
772.848469
 30
0.0
  0
LWPOLYLINE
  5
193
100
AcDbEntity
  8
0
 62
7
100
AcDbPolyline
 90
2
 70
0
 10
13774.737911
 20
1814.513083
 30
0.0
 10
13774.737911
 20
772.848469
 30
0.0
  0
LWPOLYLINE
  5
194
100
AcDbEntity
  8
0
 62
7
100
AcDbPolyline
 90
2
 70
0
 10
12733.073297
 20
1814.513083
 30
0.0
 10
13774.737911
 20
1814.513083
 30
0.0
  0
LWPOLYLINE
  5
195
100
AcDbEntity
  8
0
 62
7
100
AcDbPolyline
 90
2
 70
0
 10
1524.793796
 20
5981.171541
 30
0.0
 10
1524.793796
 20
7022.836155
 30
0.0
  0
LWPOLYLINE
  5
196
100
AcDbEntity
  8
0
 62
7
100
AcDbPolyline
 90
2
 70
0
 10
2566.458410
 20
5981.171541
 30
0.0
 10
1524.793796
 20
5981.171541
 30
0.0
  0
LWPOLYLINE
  5
197
100
AcDbEntity
  8
0
 62
7
100
AcDbPolyline
 90
2
 70
0
 10
2566.458410
 20
7022.836155
 30
0.0
 10
2566.458410
 20
5981.171541
 30
0.0
  0
LWPOLYLINE
  5
198
100
AcDbEntity
  8
0
 62
7
100
AcDbPolyline
 90
2
 70
0
 10
1524.793796
 20
7022.836155
 30
0.0
 10
2566.458410
 20
7022.836155
 30
0.0
  0
LWPOLYLINE
  5
199
100
AcDbEntity
  8
0
 62
7
100
AcDbPolyline
 90
2
 70
0
 10
524.668766
 20
8064.500770
 30
0.0
 10
524.668766
 20
9106.165384
 30
0.0
  0
LWPOLYLINE
  5
19a
100
AcDbEntity
  8
0
 62
7
100
AcDbPolyline
 90
2
 70
0
 10
1566.333380
 20
8064.500770
 30
0.0
 10
524.668766
 20
8064.500770
 30
0.0
  0
LWPOLYLINE
  5
19b
100
AcDbEntity
  8
0
 62
7
100
AcDbPolyline
 90
2
 70
0
 10
1566.333380
 20
9106.165384
 30
0.0
 10
1566.333380
 20
8064.500770
 30
0.0
  0
LWPOLYLINE
  5
19c
100
AcDbEntity
  8
0
 62
7
100
AcDbPolyline
 90
2
 70
0
 10
524.668766
 20
9106.165384
 30
0.0
 10
1566.333380
 20
9106.165384
 30
0.0
  0
LWPOLYLINE
  5
19d
100
AcDbEntity
  8
0
 62
7
100
AcDbPolyline
 90
2
 70
0
 10
3275.558433
 20
7835.820859
 30
0.0
 10
3275.558433
 20
8877.485473
 30
0.0
  0
LWPOLYLINE
  5
19e
100
AcDbEntity
  8
0
 62
7
100
AcDbPolyline
 90
2
 70
0
 10
4317.223048
 20
7835.820859
 30
0.0
 10
3275.558433
 20
7835.820859
 30
0.0
  0
LWPOLYLINE
  5
19f
100
AcDbEntity
  8
0
 62
7
100
AcDbPolyline
 90
2
 70
0
 10
4317.223048
 20
8877.485473
 30
0.0
 10
4317.223048
 20
7835.820859
 30
0.0
  0
LWPOLYLINE
  5
1a0
100
AcDbEntity
  8
0
 62
7
100
AcDbPolyline
 90
2
 70
0
 10
3275.558433
 20
8877.485473
 30
0.0
 10
4317.223048
 20
8877.485473
 30
0.0
  0
LWPOLYLINE
  5
1a1
100
AcDbEntity
  8
0
 62
7
100
AcDbPolyline
 90
2
 70
0
 10
10483.056563
 20
6981.031987
 30
0.0
 10
10483.056563
 20
8022.696602
 30
0.0
  0
LWPOLYLINE
  5
1a2
100
AcDbEntity
  8
0
 62
7
100
AcDbPolyline
 90
2
 70
0
 10
11524.721177
 20
6981.031987
 30
0.0
 10
10483.056563
 20
6981.031987
 30
0.0
  0
LWPOLYLINE
  5
1a3
100
AcDbEntity
  8
0
 62
7
100
AcDbPolyline
 90
2
 70
0
 10
11524.721177
 20
8022.696602
 30
0.0
 10
11524.721177
 20
6981.031987
 30
0.0
  0
LWPOLYLINE
  5
1a4
100
AcDbEntity
  8
0
 62
7
100
AcDbPolyline
 90
2
 70
0
 10
10483.056563
 20
8022.696602
 30
0.0
 10
11524.721177
 20
8022.696602
 30
0.0
  0
LWPOLYLINE
  5
1a5
100
AcDbEntity
  8
0
 62
7
100
AcDbPolyline
 90
2
 70
0
 10
12748.683714
 20
3543.565218
 30
0.0
 10
12748.683714
 20
4585.229833
 30
0.0
  0
LWPOLYLINE
  5
1a6
100
AcDbEntity
  8
0
 62
7
100
AcDbPolyline
 90
2
 70
0
 10
13790.348328
 20
3543.565218
 30
0.0
 10
12748.683714
 20
3543.565218
 30
0.0
  0
LWPOLYLINE
  5
1a7
100
AcDbEntity
  8
0
 62
7
100
AcDbPolyline
 90
2
 70
0
 10
13790.348328
 20
4585.229833
 30
0.0
 10
13790.348328
 20
3543.565218
 30
0.0
  0
LWPOLYLINE
  5
1a8
100
AcDbEntity
  8
0
 62
7
100
AcDbPolyline
 90
2
 70
0
 10
12748.683714
 20
4585.229833
 30
0.0
 10
13790.348328
 20
4585.229833
 30
0.0
  0
LWPOLYLINE
  5
1a9
100
AcDbEntity
  8
0
 62
7
100
AcDbPolyline
 90
2
 70
0
 10
10670.646152
 20
1689.365163
 30
0.0
 10
10670.646152
 20
2731.029777
 30
0.0
  0
LWPOLYLINE
  5
1aa
100
AcDbEntity
  8
0
 62
7
100
AcDbPolyline
 90
2
 70
0
 10
11712.310766
 20
1689.365163
 30
0.0
 10
10670.646152
 20
1689.365163
 30
0.0
  0
LWPOLYLINE
  5
1ab
100
AcDbEntity
  8
0
 62
7
100
AcDbPolyline
 90
2
 70
0
 10
11712.310766
 20
2731.029777
 30
0.0
 10
11712.310766
 20
1689.365163
 30
0.0
  0
LWPOLYLINE
  5
1ac
100
AcDbEntity
  8
0
 62
7
100
AcDbPolyline
 90
2
 70
0
 10
10670.646152
 20
2731.029777
 30
0.0
 10
11712.310766
 20
2731.029777
 30
0.0
  0
LWPOLYLINE
  5
1ad
100
AcDbEntity
  8
0
 62
7
100
AcDbPolyline
 90
2
 70
0
 10
9316.508611
 20
1689.365163
 30
0.0
 10
9316.508611
 20
2731.029777
 30
0.0
  0
LWPOLYLINE
  5
1ae
100
AcDbEntity
  8
0
 62
7
100
AcDbPolyline
 90
2
 70
0
 10
10358.173226
 20
1689.365163
 30
0.0
 10
9316.508611
 20
1689.365163
 30
0.0
  0
LWPOLYLINE
  5
1af
100
AcDbEntity
  8
0
 62
7
100
AcDbPolyline
 90
2
 70
0
 10
10358.173226
 20
2731.029777
 30
0.0
 10
10358.173226
 20
1689.365163
 30
0.0
  0
LWPOLYLINE
  5
1b0
100
AcDbEntity
  8
0
 62
7
100
AcDbPolyline
 90
2
 70
0
 10
9316.508611
 20
2731.029777
 30
0.0
 10
10358.173226
 20
2731.029777
 30
0.0
  0
LWPOLYLINE
  5
1b1
100
AcDbEntity
  8
0
 62
7
100
AcDbPolyline
 90
2
 70
0
 10
7962.371071
 20
1689.365163
 30
0.0
 10
7962.371071
 20
2731.029777
 30
0.0
  0
LWPOLYLINE
  5
1b2
100
AcDbEntity
  8
0
 62
7
100
AcDbPolyline
 90
2
 70
0
 10
9004.035685
 20
1689.365163
 30
0.0
 10
7962.371071
 20
1689.365163
 30
0.0
  0
LWPOLYLINE
  5
1b3
100
AcDbEntity
  8
0
 62
7
100
AcDbPolyline
 90
2
 70
0
 10
9004.035685
 20
2731.029777
 30
0.0
 10
9004.035685
 20
1689.365163
 30
0.0
  0
LWPOLYLINE
  5
1b4
100
AcDbEntity
  8
0
 62
7
100
AcDbPolyline
 90
2
 70
0
 10
7962.371071
 20
2731.029777
 30
0.0
 10
9004.035685
 20
2731.029777
 30
0.0
  0
LWPOLYLINE
  5
1b5
100
AcDbEntity
  8
0
 62
7
100
AcDbPolyline
 90
2
 70
0
 10
6608.233531
 20
1689.365163
 30
0.0
 10
6608.233531
 20
2731.029777
 30
0.0
  0
LWPOLYLINE
  5
1b6
100
AcDbEntity
  8
0
 62
7
100
AcDbPolyline
 90
2
 70
0
 10
7649.898145
 20
1689.365163
 30
0.0
 10
6608.233531
 20
1689.365163
 30
0.0
  0
LWPOLYLINE
  5
1b7
100
AcDbEntity
  8
0
 62
7
100
AcDbPolyline
 90
2
 70
0
 10
7649.898145
 20
2731.029777
 30
0.0
 10
7649.898145
 20
1689.365163
 30
0.0
  0
LWPOLYLINE
  5
1b8
100
AcDbEntity
  8
0
 62
7
100
AcDbPolyline
 90
2
 70
0
 10
6608.233531
 20
2731.029777
 30
0.0
 10
7649.898145
 20
2731.029777
 30
0.0
  0
LWPOLYLINE
  5
1b9
100
AcDbEntity
  8
0
 62
7
100
AcDbPolyline
 90
2
 70
0
 10
5253.831407
 20
1689.365163
 30
0.0
 10
5253.831407
 20
2731.029777
 30
0.0
  0
LWPOLYLINE
  5
1ba
100
AcDbEntity
  8
0
 62
7
100
AcDbPolyline
 90
2
 70
0
 10
6295.496021
 20
1689.365163
 30
0.0
 10
5253.831407
 20
1689.365163
 30
0.0
  0
LWPOLYLINE
  5
1bb
100
AcDbEntity
  8
0
 62
7
100
AcDbPolyline
 90
2
 70
0
 10
6295.496021
 20
2731.029777
 30
0.0
 10
6295.496021
 20
1689.365163
 30
0.0
  0
LWPOLYLINE
  5
1bc
100
AcDbEntity
  8
0
 62
7
100
AcDbPolyline
 90
2
 70
0
 10
5253.831407
 20
2731.029777
 30
0.0
 10
6295.496021
 20
2731.029777
 30
0.0
  0
LWPOLYLINE
  5
1bd
100
AcDbEntity
  8
0
 62
7
100
AcDbPolyline
 90
2
 70
0
 10
3899.693866
 20
1689.365163
 30
0.0
 10
3899.693866
 20
2731.029777
 30
0.0
  0
LWPOLYLINE
  5
1be
100
AcDbEntity
  8
0
 62
7
100
AcDbPolyline
 90
2
 70
0
 10
4941.358481
 20
1689.365163
 30
0.0
 10
3899.693866
 20
1689.365163
 30
0.0
  0
LWPOLYLINE
  5
1bf
100
AcDbEntity
  8
0
 62
7
100
AcDbPolyline
 90
2
 70
0
 10
4941.358481
 20
2731.029777
 30
0.0
 10
4941.358481
 20
1689.365163
 30
0.0
  0
LWPOLYLINE
  5
1c0
100
AcDbEntity
  8
0
 62
7
100
AcDbPolyline
 90
2
 70
0
 10
3899.693866
 20
2731.029777
 30
0.0
 10
4941.358481
 20
2731.029777
 30
0.0
  0
LWPOLYLINE
  5
1c1
100
AcDbEntity
  8
0
 62
7
100
AcDbPolyline
 90
2
 70
0
 10
2545.556326
 20
1689.365163
 30
0.0
 10
2545.556326
 20
2731.029777
 30
0.0
  0
LWPOLYLINE
  5
1c2
100
AcDbEntity
  8
0
 62
7
100
AcDbPolyline
 90
2
 70
0
 10
3587.220940
 20
1689.365163
 30
0.0
 10
2545.556326
 20
1689.365163
 30
0.0
  0
LWPOLYLINE
  5
1c3
100
AcDbEntity
  8
0
 62
7
100
AcDbPolyline
 90
2
 70
0
 10
3587.220940
 20
2731.029777
 30
0.0
 10
3587.220940
 20
1689.365163
 30
0.0
  0
LWPOLYLINE
  5
1c4
100
AcDbEntity
  8
0
 62
7
100
AcDbPolyline
 90
2
 70
0
 10
2545.556326
 20
2731.029777
 30
0.0
 10
3587.220940
 20
2731.029777
 30
0.0
  0
LWPOLYLINE
  5
1c5
100
AcDbEntity
  8
0
 62
7
100
AcDbPolyline
 90
2
 70
0
 10
1191.418786
 20
1689.365163
 30
0.0
 10
1191.418786
 20
2731.029777
 30
0.0
  0
LWPOLYLINE
  5
1c6
100
AcDbEntity
  8
0
 62
7
100
AcDbPolyline
 90
2
 70
0
 10
2233.083400
 20
1689.365163
 30
0.0
 10
1191.418786
 20
1689.365163
 30
0.0
  0
LWPOLYLINE
  5
1c7
100
AcDbEntity
  8
0
 62
7
100
AcDbPolyline
 90
2
 70
0
 10
2233.083400
 20
2731.029777
 30
0.0
 10
2233.083400
 20
1689.365163
 30
0.0
  0
SPLINE
  5
1c8
100
AcDbEntity
  8
0
 62
7
100
AcDbSpline
 70
8
 71
3
 72
8
 73
4
 74
0
 40
0
 40
0
 40
0
 40
0
 40
1
 40
1
 40
1
 40
1
 10
30533.182161
 20
9380.385592
 30
0.0
 10
30387.662336
 20
9380.385592
 30
0.0
 10
30256.471330
 20
9292.726564
 30
0.0
 10
30200.783304
 20
9158.283776
 30
0.0
  0
SPLINE
  5
1c9
100
AcDbEntity
  8
0
 62
7
100
AcDbSpline
 70
8
 71
3
 72
8
 73
4
 74
0
 40
0
 40
0
 40
0
 40
0
 40
1
 40
1
 40
1
 40
1
 10
30200.783304
 20
9158.283776
 30
0.0
 10
30145.095277
 20
9023.840988
 30
0.0
 10
30175.877035
 20
8869.090645
 30
0.0
 10
30278.775090
 20
8766.192589
 30
0.0
  0
SPLINE
  5
1ca
100
AcDbEntity
  8
0
 62
7
100
AcDbSpline
 70
8
 71
3
 72
8
 73
4
 74
0
 40
0
 40
0
 40
0
 40
0
 40
1
 40
1
 40
1
 40
1
 10
30278.775090
 20
8766.192589
 30
0.0
 10
30381.673145
 20
8663.294534
 30
0.0
 10
30536.423488
 20
8632.512777
 30
0.0
 10
30670.866276
 20
8688.200803
 30
0.0
  0
SPLINE
  5
1cb
100
AcDbEntity
  8
0
 62
7
100
AcDbSpline
 70
8
 71
3
 72
8
 73
4
 74
0
 40
0
 40
0
 40
0
 40
0
 40
1
 40
1
 40
1
 40
1
 10
30670.866276
 20
8688.200803
 30
0.0
 10
30805.309064
 20
8743.888830
 30
0.0
 10
30892.968092
 20
8875.079836
 30
0.0
 10
30892.968092
 20
9020.599661
 30
0.0
  0
SPLINE
  5
1cc
100
AcDbEntity
  8
0
 62
7
100
AcDbSpline
 70
8
 71
3
 72
8
 73
4
 74
0
 40
0
 40
0
 40
0
 40
0
 40
1
 40
1
 40
1
 40
1
 10
30892.968092
 20
9020.599661
 30
0.0
 10
30892.968092
 20
9219.303944
 30
0.0
 10
30731.886444
 20
9380.385592
 30
0.0
 10
30533.182161
 20
9380.385592
 30
0.0
  0
LWPOLYLINE
  5
1cd
100
AcDbEntity
  8
0
 62
7
100
AcDbPolyline
 90
2
 70
0
 10
1191.418786
 20
2731.029777
 30
0.0
 10
2233.083400
 20
2731.029777
 30
0.0
  0
SPLINE
  5
1ce
100
AcDbEntity
  8
0
 62
7
100
AcDbSpline
 70
8
 71
3
 72
8
 73
4
 74
0
 40
0
 40
0
 40
0
 40
0
 40
1
 40
1
 40
1
 40
1
 10
27722.777911
 20
14184.557081
 30
0.0
 10
27577.258085
 20
14184.557081
 30
0.0
 10
27446.067079
 20
14096.898053
 30
0.0
 10
27390.379053
 20
13962.455265
 30
0.0
  0
SPLINE
  5
1cf
100
AcDbEntity
  8
0
 62
7
100
AcDbSpline
 70
8
 71
3
 72
8
 73
4
 74
0
 40
0
 40
0
 40
0
 40
0
 40
1
 40
1
 40
1
 40
1
 10
27390.379053
 20
13962.455265
 30
0.0
 10
27334.691027
 20
13828.012477
 30
0.0
 10
27365.472784
 20
13673.262134
 30
0.0
 10
27468.370839
 20
13570.364079
 30
0.0
  0
SPLINE
  5
1d0
100
AcDbEntity
  8
0
 62
7
100
AcDbSpline
 70
8
 71
3
 72
8
 73
4
 74
0
 40
0
 40
0
 40
0
 40
0
 40
1
 40
1
 40
1
 40
1
 10
27468.370839
 20
13570.364079
 30
0.0
 10
27571.268894
 20
13467.466023
 30
0.0
 10
27726.019237
 20
13436.684266
 30
0.0
 10
27860.462026
 20
13492.372293
 30
0.0
  0
SPLINE
  5
1d1
100
AcDbEntity
  8
0
 62
7
100
AcDbSpline
 70
8
 71
3
 72
8
 73
4
 74
0
 40
0
 40
0
 40
0
 40
0
 40
1
 40
1
 40
1
 40
1
 10
27860.462026
 20
13492.372293
 30
0.0
 10
27994.904814
 20
13548.060319
 30
0.0
 10
28082.563841
 20
13679.251325
 30
0.0
 10
28082.563841
 20
13824.771150
 30
0.0
  0
SPLINE
  5
1d2
100
AcDbEntity
  8
0
 62
7
100
AcDbSpline
 70
8
 71
3
 72
8
 73
4
 74
0
 40
0
 40
0
 40
0
 40
0
 40
1
 40
1
 40
1
 40
1
 10
28082.563841
 20
13824.771150
 30
0.0
 10
28082.563841
 20
13920.192312
 30
0.0
 10
28044.657932
 20
14011.705271
 30
0.0
 10
27977.184982
 20
14079.178221
 30
0.0
  0
SPLINE
  5
1d3
100
AcDbEntity
  8
0
 62
7
100
AcDbSpline
 70
8
 71
3
 72
8
 73
4
 74
0
 40
0
 40
0
 40
0
 40
0
 40
1
 40
1
 40
1
 40
1
 10
27977.184982
 20
14079.178221
 30
0.0
 10
27909.712032
 20
14146.651172
 30
0.0
 10
27818.199072
 20
14184.557081
 30
0.0
 10
27722.777911
 20
14184.557081
 30
0.0
  0
LWPOLYLINE
  5
1d4
100
AcDbEntity
  8
0
 62
7
100
AcDbPolyline
 90
1
 70
1
 10
30533.182161
 20
9380.385592
 30
0.0
  0
SPLINE
  5
1d5
100
AcDbEntity
  8
0
 62
7
100
AcDbSpline
 70
8
 71
3
 72
8
 73
4
 74
0
 40
0
 40
0
 40
0
 40
0
 40
1
 40
1
 40
1
 40
1
 10
13139.500296
 20
17118.520746
 30
0.0
 10
12981.507329
 20
17118.520746
 30
0.0
 10
12839.071367
 20
17023.348079
 30
0.0
 10
12778.610076
 20
16877.381610
 30
0.0
  0
SPLINE
  5
1d6
100
AcDbEntity
  8
0
 62
7
100
AcDbSpline
 70
8
 71
3
 72
8
 73
4
 74
0
 40
0
 40
0
 40
0
 40
0
 40
1
 40
1
 40
1
 40
1
 10
12778.610076
 20
16877.381610
 30
0.0
 10
12718.148785
 20
16731.415142
 30
0.0
 10
12751.568981
 20
16563.400469
 30
0.0
 10
12863.286880
 20
16451.682570
 30
0.0
  0
SPLINE
  5
1d7
100
AcDbEntity
  8
0
 62
7
100
AcDbSpline
 70
8
 71
3
 72
8
 73
4
 74
0
 40
0
 40
0
 40
0
 40
0
 40
1
 40
1
 40
1
 40
1
 10
12863.286880
 20
16451.682570
 30
0.0
 10
12975.004778
 20
16339.964672
 30
0.0
 10
13143.019451
 20
16306.544475
 30
0.0
 10
13288.985920
 20
16367.005766
 30
0.0
  0
SPLINE
  5
1d8
100
AcDbEntity
  8
0
 62
7
100
AcDbSpline
 70
8
 71
3
 72
8
 73
4
 74
0
 40
0
 40
0
 40
0
 40
0
 40
1
 40
1
 40
1
 40
1
 10
13288.985920
 20
16367.005766
 30
0.0
 10
13434.952389
 20
16427.467057
 30
0.0
 10
13530.125056
 20
16569.903020
 30
0.0
 10
13530.125056
 20
16727.895987
 30
0.0
  0
SPLINE
  5
1d9
100
AcDbEntity
  8
0
 62
7
100
AcDbSpline
 70
8
 71
3
 72
8
 73
4
 74
0
 40
0
 40
0
 40
0
 40
0
 40
1
 40
1
 40
1
 40
1
 10
13530.125056
 20
16727.895987
 30
0.0
 10
13530.125056
 20
16831.496114
 30
0.0
 10
13488.970065
 20
16930.853050
 30
0.0
 10
13415.713713
 20
17004.109403
 30
0.0
  0
SPLINE
  5
1da
100
AcDbEntity
  8
0
 62
7
100
AcDbSpline
 70
8
 71
3
 72
8
 73
4
 74
0
 40
0
 40
0
 40
0
 40
0
 40
1
 40
1
 40
1
 40
1
 10
13415.713713
 20
17004.109403
 30
0.0
 10
13342.457360
 20
17077.365756
 30
0.0
 10
13243.100424
 20
17118.520746
 30
0.0
 10
13139.500296
 20
17118.520746
 30
0.0
  0
LWPOLYLINE
  5
1db
100
AcDbEntity
  8
0
 62
7
100
AcDbPolyline
 90
1
 70
1
 10
27722.777911
 20
14184.557081
 30
0.0
  0
SPLINE
  5
1dc
100
AcDbEntity
  8
0
 62
7
100
AcDbSpline
 70
8
 71
3
 72
8
 73
4
 74
0
 40
0
 40
0
 40
0
 40
0
 40
1
 40
1
 40
1
 40
1
 10
39431.913677
 20
17219.973588
 30
0.0
 10
39286.393852
 20
17219.973588
 30
0.0
 10
39155.202845
 20
17132.314560
 30
0.0
 10
39099.514819
 20
16997.871772
 30
0.0
  0
SPLINE
  5
1dd
100
AcDbEntity
  8
0
 62
7
100
AcDbSpline
 70
8
 71
3
 72
8
 73
4
 74
0
 40
0
 40
0
 40
0
 40
0
 40
1
 40
1
 40
1
 40
1
 10
39099.514819
 20
16997.871772
 30
0.0
 10
39043.826793
 20
16863.428984
 30
0.0
 10
39074.608550
 20
16708.678641
 30
0.0
 10
39177.506605
 20
16605.780586
 30
0.0
  0
SPLINE
  5
1de
100
AcDbEntity
  8
0
 62
7
100
AcDbSpline
 70
8
 71
3
 72
8
 73
4
 74
0
 40
0
 40
0
 40
0
 40
0
 40
1
 40
1
 40
1
 40
1
 10
39177.506605
 20
16605.780586
 30
0.0
 10
39280.404661
 20
16502.882531
 30
0.0
 10
39435.155004
 20
16472.100774
 30
0.0
 10
39569.597792
 20
16527.788800
 30
0.0
  0
SPLINE
  5
1df
100
AcDbEntity
  8
0
 62
7
100
AcDbSpline
 70
8
 71
3
 72
8
 73
4
 74
0
 40
0
 40
0
 40
0
 40
0
 40
1
 40
1
 40
1
 40
1
 10
39569.597792
 20
16527.788800
 30
0.0
 10
39704.040580
 20
16583.476826
 30
0.0
 10
39791.699607
 20
16714.667832
 30
0.0
 10
39791.699607
 20
16860.187657
 30
0.0
  0
SPLINE
  5
1e0
100
AcDbEntity
  8
0
 62
7
100
AcDbSpline
 70
8
 71
3
 72
8
 73
4
 74
0
 40
0
 40
0
 40
0
 40
0
 40
1
 40
1
 40
1
 40
1
 10
39791.699607
 20
16860.187657
 30
0.0
 10
39791.699607
 20
16955.608819
 30
0.0
 10
39753.793699
 20
17047.121778
 30
0.0
 10
39686.320748
 20
17114.594729
 30
0.0
  0
SPLINE
  5
1e1
100
AcDbEntity
  8
0
 62
7
100
AcDbSpline
 70
8
 71
3
 72
8
 73
4
 74
0
 40
0
 40
0
 40
0
 40
0
 40
1
 40
1
 40
1
 40
1
 10
39686.320748
 20
17114.594729
 30
0.0
 10
39618.847798
 20
17182.067679
 30
0.0
 10
39527.334838
 20
17219.973588
 30
0.0
 10
39431.913677
 20
17219.973588
 30
0.0
  0
LWPOLYLINE
  5
1e2
100
AcDbEntity
  8
0
 62
7
100
AcDbPolyline
 90
1
 70
1
 10
13139.500296
 20
17118.520746
 30
0.0
  0
SPLINE
  5
1e3
100
AcDbEntity
  8
0
 62
7
100
AcDbSpline
 70
8
 71
3
 72
8
 73
4
 74
0
 40
0
 40
0
 40
0
 40
0
 40
1
 40
1
 40
1
 40
1
 10
37440.130284
 20
17219.973588
 30
0.0
 10
37294.610459
 20
17219.973588
 30
0.0
 10
37163.419453
 20
17132.314560
 30
0.0
 10
37107.731426
 20
16997.871772
 30
0.0
  0
SPLINE
  5
1e4
100
AcDbEntity
  8
0
 62
7
100
AcDbSpline
 70
8
 71
3
 72
8
 73
4
 74
0
 40
0
 40
0
 40
0
 40
0
 40
1
 40
1
 40
1
 40
1
 10
37107.731426
 20
16997.871772
 30
0.0
 10
37052.043400
 20
16863.428984
 30
0.0
 10
37082.825157
 20
16708.678641
 30
0.0
 10
37185.723213
 20
16605.780586
 30
0.0
  0
SPLINE
  5
1e5
100
AcDbEntity
  8
0
 62
7
100
AcDbSpline
 70
8
 71
3
 72
8
 73
4
 74
0
 40
0
 40
0
 40
0
 40
0
 40
1
 40
1
 40
1
 40
1
 10
37185.723213
 20
16605.780586
 30
0.0
 10
37288.621268
 20
16502.882531
 30
0.0
 10
37443.371611
 20
16472.100774
 30
0.0
 10
37577.814399
 20
16527.788800
 30
0.0
  0
SPLINE
  5
1e6
100
AcDbEntity
  8
0
 62
7
100
AcDbSpline
 70
8
 71
3
 72
8
 73
4
 74
0
 40
0
 40
0
 40
0
 40
0
 40
1
 40
1
 40
1
 40
1
 10
37577.814399
 20
16527.788800
 30
0.0
 10
37712.257187
 20
16583.476826
 30
0.0
 10
37799.916215
 20
16714.667832
 30
0.0
 10
37799.916215
 20
16860.187657
 30
0.0
  0
SPLINE
  5
1e7
100
AcDbEntity
  8
0
 62
7
100
AcDbSpline
 70
8
 71
3
 72
8
 73
4
 74
0
 40
0
 40
0
 40
0
 40
0
 40
1
 40
1
 40
1
 40
1
 10
37799.916215
 20
16860.187657
 30
0.0
 10
37799.916215
 20
16955.608819
 30
0.0
 10
37762.010306
 20
17047.121778
 30
0.0
 10
37694.537355
 20
17114.594729
 30
0.0
  0
SPLINE
  5
1e8
100
AcDbEntity
  8
0
 62
7
100
AcDbSpline
 70
8
 71
3
 72
8
 73
4
 74
0
 40
0
 40
0
 40
0
 40
0
 40
1
 40
1
 40
1
 40
1
 10
37694.537355
 20
17114.594729
 30
0.0
 10
37627.064405
 20
17182.067679
 30
0.0
 10
37535.551446
 20
17219.973588
 30
0.0
 10
37440.130284
 20
17219.973588
 30
0.0
  0
LWPOLYLINE
  5
1e9
100
AcDbEntity
  8
0
 62
7
100
AcDbPolyline
 90
1
 70
1
 10
39431.913677
 20
17219.973588
 30
0.0
  0
SPLINE
  5
1ea
100
AcDbEntity
  8
0
 62
7
100
AcDbSpline
 70
8
 71
3
 72
8
 73
4
 74
0
 40
0
 40
0
 40
0
 40
0
 40
1
 40
1
 40
1
 40
1
 10
35448.611475
 20
17219.973588
 30
0.0
 10
35303.091649
 20
17219.973588
 30
0.0
 10
35171.900643
 20
17132.314560
 30
0.0
 10
35116.212617
 20
16997.871772
 30
0.0
  0
SPLINE
  5
1eb
100
AcDbEntity
  8
0
 62
7
100
AcDbSpline
 70
8
 71
3
 72
8
 73
4
 74
0
 40
0
 40
0
 40
0
 40
0
 40
1
 40
1
 40
1
 40
1
 10
35116.212617
 20
16997.871772
 30
0.0
 10
35060.524591
 20
16863.428984
 30
0.0
 10
35091.306348
 20
16708.678641
 30
0.0
 10
35194.204403
 20
16605.780586
 30
0.0
  0
SPLINE
  5
1ec
100
AcDbEntity
  8
0
 62
7
100
AcDbSpline
 70
8
 71
3
 72
8
 73
4
 74
0
 40
0
 40
0
 40
0
 40
0
 40
1
 40
1
 40
1
 40
1
 10
35194.204403
 20
16605.780586
 30
0.0
 10
35297.102458
 20
16502.882531
 30
0.0
 10
35451.852801
 20
16472.100774
 30
0.0
 10
35586.295589
 20
16527.788800
 30
0.0
  0
SPLINE
  5
1ed
100
AcDbEntity
  8
0
 62
7
100
AcDbSpline
 70
8
 71
3
 72
8
 73
4
 74
0
 40
0
 40
0
 40
0
 40
0
 40
1
 40
1
 40
1
 40
1
 10
35586.295589
 20
16527.788800
 30
0.0
 10
35720.738377
 20
16583.476826
 30
0.0
 10
35808.397405
 20
16714.667832
 30
0.0
 10
35808.397405
 20
16860.187657
 30
0.0
  0
SPLINE
  5
1ee
100
AcDbEntity
  8
0
 62
7
100
AcDbSpline
 70
8
 71
3
 72
8
 73
4
 74
0
 40
0
 40
0
 40
0
 40
0
 40
1
 40
1
 40
1
 40
1
 10
35808.397405
 20
16860.187657
 30
0.0
 10
35808.397405
 20
16955.608819
 30
0.0
 10
35770.491496
 20
17047.121778
 30
0.0
 10
35703.018546
 20
17114.594729
 30
0.0
  0
SPLINE
  5
1ef
100
AcDbEntity
  8
0
 62
7
100
AcDbSpline
 70
8
 71
3
 72
8
 73
4
 74
0
 40
0
 40
0
 40
0
 40
0
 40
1
 40
1
 40
1
 40
1
 10
35703.018546
 20
17114.594729
 30
0.0
 10
35635.545595
 20
17182.067679
 30
0.0
 10
35544.032636
 20
17219.973588
 30
0.0
 10
35448.611475
 20
17219.973588
 30
0.0
  0
LWPOLYLINE
  5
1f0
100
AcDbEntity
  8
0
 62
7
100
AcDbPolyline
 90
1
 70
1
 10
37440.130284
 20
17219.973588
 30
0.0
  0
SPLINE
  5
1f1
100
AcDbEntity
  8
0
 62
7
100
AcDbSpline
 70
8
 71
3
 72
8
 73
4
 74
0
 40
0
 40
0
 40
0
 40
0
 40
1
 40
1
 40
1
 40
1
 10
33456.828082
 20
17219.973588
 30
0.0
 10
33311.308257
 20
17219.973588
 30
0.0
 10
33180.117250
 20
17132.314560
 30
0.0
 10
33124.429224
 20
16997.871772
 30
0.0
  0
SPLINE
  5
1f2
100
AcDbEntity
  8
0
 62
7
100
AcDbSpline
 70
8
 71
3
 72
8
 73
4
 74
0
 40
0
 40
0
 40
0
 40
0
 40
1
 40
1
 40
1
 40
1
 10
33124.429224
 20
16997.871772
 30
0.0
 10
33068.741198
 20
16863.428984
 30
0.0
 10
33099.522955
 20
16708.678641
 30
0.0
 10
33202.421010
 20
16605.780586
 30
0.0
  0
SPLINE
  5
1f3
100
AcDbEntity
  8
0
 62
7
100
AcDbSpline
 70
8
 71
3
 72
8
 73
4
 74
0
 40
0
 40
0
 40
0
 40
0
 40
1
 40
1
 40
1
 40
1
 10
33202.421010
 20
16605.780586
 30
0.0
 10
33305.319066
 20
16502.882531
 30
0.0
 10
33460.069409
 20
16472.100774
 30
0.0
 10
33594.512197
 20
16527.788800
 30
0.0
  0
SPLINE
  5
1f4
100
AcDbEntity
  8
0
 62
7
100
AcDbSpline
 70
8
 71
3
 72
8
 73
4
 74
0
 40
0
 40
0
 40
0
 40
0
 40
1
 40
1
 40
1
 40
1
 10
33594.512197
 20
16527.788800
 30
0.0
 10
33728.954985
 20
16583.476826
 30
0.0
 10
33816.614012
 20
16714.667832
 30
0.0
 10
33816.614012
 20
16860.187657
 30
0.0
  0
SPLINE
  5
1f5
100
AcDbEntity
  8
0
 62
7
100
AcDbSpline
 70
8
 71
3
 72
8
 73
4
 74
0
 40
0
 40
0
 40
0
 40
0
 40
1
 40
1
 40
1
 40
1
 10
33816.614012
 20
16860.187657
 30
0.0
 10
33816.614012
 20
16955.608819
 30
0.0
 10
33778.708104
 20
17047.121778
 30
0.0
 10
33711.235153
 20
17114.594729
 30
0.0
  0
SPLINE
  5
1f6
100
AcDbEntity
  8
0
 62
7
100
AcDbSpline
 70
8
 71
3
 72
8
 73
4
 74
0
 40
0
 40
0
 40
0
 40
0
 40
1
 40
1
 40
1
 40
1
 10
33711.235153
 20
17114.594729
 30
0.0
 10
33643.762203
 20
17182.067679
 30
0.0
 10
33552.249243
 20
17219.973588
 30
0.0
 10
33456.828082
 20
17219.973588
 30
0.0
  0
LWPOLYLINE
  5
1f7
100
AcDbEntity
  8
0
 62
7
100
AcDbPolyline
 90
1
 70
1
 10
35448.611475
 20
17219.973588
 30
0.0
  0
SPLINE
  5
1f8
100
AcDbEntity
  8
0
 62
7
100
AcDbSpline
 70
8
 71
3
 72
8
 73
4
 74
0
 40
0
 40
0
 40
0
 40
0
 40
1
 40
1
 40
1
 40
1
 10
31465.309272
 20
17219.973588
 30
0.0
 10
31319.789447
 20
17219.973588
 30
0.0
 10
31188.598441
 20
17132.314560
 30
0.0
 10
31132.910415
 20
16997.871772
 30
0.0
  0
SPLINE
  5
1f9
100
AcDbEntity
  8
0
 62
7
100
AcDbSpline
 70
8
 71
3
 72
8
 73
4
 74
0
 40
0
 40
0
 40
0
 40
0
 40
1
 40
1
 40
1
 40
1
 10
31132.910415
 20
16997.871772
 30
0.0
 10
31077.222389
 20
16863.428984
 30
0.0
 10
31108.004146
 20
16708.678641
 30
0.0
 10
31210.902201
 20
16605.780586
 30
0.0
  0
SPLINE
  5
1fa
100
AcDbEntity
  8
0
 62
7
100
AcDbSpline
 70
8
 71
3
 72
8
 73
4
 74
0
 40
0
 40
0
 40
0
 40
0
 40
1
 40
1
 40
1
 40
1
 10
31210.902201
 20
16605.780586
 30
0.0
 10
31313.800256
 20
16502.882531
 30
0.0
 10
31468.550599
 20
16472.100774
 30
0.0
 10
31602.993387
 20
16527.788800
 30
0.0
  0
SPLINE
  5
1fb
100
AcDbEntity
  8
0
 62
7
100
AcDbSpline
 70
8
 71
3
 72
8
 73
4
 74
0
 40
0
 40
0
 40
0
 40
0
 40
1
 40
1
 40
1
 40
1
 10
31602.993387
 20
16527.788800
 30
0.0
 10
31737.436175
 20
16583.476826
 30
0.0
 10
31825.095203
 20
16714.667832
 30
0.0
 10
31825.095203
 20
16860.187657
 30
0.0
  0
SPLINE
  5
1fc
100
AcDbEntity
  8
0
 62
7
100
AcDbSpline
 70
8
 71
3
 72
8
 73
4
 74
0
 40
0
 40
0
 40
0
 40
0
 40
1
 40
1
 40
1
 40
1
 10
31825.095203
 20
16860.187657
 30
0.0
 10
31825.095203
 20
16955.608819
 30
0.0
 10
31787.189294
 20
17047.121778
 30
0.0
 10
31719.716344
 20
17114.594729
 30
0.0
  0
SPLINE
  5
1fd
100
AcDbEntity
  8
0
 62
7
100
AcDbSpline
 70
8
 71
3
 72
8
 73
4
 74
0
 40
0
 40
0
 40
0
 40
0
 40
1
 40
1
 40
1
 40
1
 10
31719.716344
 20
17114.594729
 30
0.0
 10
31652.243393
 20
17182.067679
 30
0.0
 10
31560.730434
 20
17219.973588
 30
0.0
 10
31465.309272
 20
17219.973588
 30
0.0
  0
LWPOLYLINE
  5
1fe
100
AcDbEntity
  8
0
 62
7
100
AcDbPolyline
 90
1
 70
1
 10
33456.828082
 20
17219.973588
 30
0.0
  0
SPLINE
  5
1ff
100
AcDbEntity
  8
0
 62
7
100
AcDbSpline
 70
8
 71
3
 72
8
 73
4
 74
0
 40
0
 40
0
 40
0
 40
0
 40
1
 40
1
 40
1
 40
1
 10
29473.525880
 20
17219.973588
 30
0.0
 10
29328.006054
 20
17219.973588
 30
0.0
 10
29196.815048
 20
17132.314560
 30
0.0
 10
29141.127022
 20
16997.871772
 30
0.0
  0
SPLINE
  5
200
100
AcDbEntity
  8
0
 62
7
100
AcDbSpline
 70
8
 71
3
 72
8
 73
4
 74
0
 40
0
 40
0
 40
0
 40
0
 40
1
 40
1
 40
1
 40
1
 10
29141.127022
 20
16997.871772
 30
0.0
 10
29085.438996
 20
16863.428984
 30
0.0
 10
29116.220753
 20
16708.678641
 30
0.0
 10
29219.118808
 20
16605.780586
 30
0.0
  0
SPLINE
  5
201
100
AcDbEntity
  8
0
 62
7
100
AcDbSpline
 70
8
 71
3
 72
8
 73
4
 74
0
 40
0
 40
0
 40
0
 40
0
 40
1
 40
1
 40
1
 40
1
 10
29219.118808
 20
16605.780586
 30
0.0
 10
29322.016863
 20
16502.882531
 30
0.0
 10
29476.767206
 20
16472.100774
 30
0.0
 10
29611.209994
 20
16527.788800
 30
0.0
  0
SPLINE
  5
202
100
AcDbEntity
  8
0
 62
7
100
AcDbSpline
 70
8
 71
3
 72
8
 73
4
 74
0
 40
0
 40
0
 40
0
 40
0
 40
1
 40
1
 40
1
 40
1
 10
29611.209994
 20
16527.788800
 30
0.0
 10
29745.652783
 20
16583.476826
 30
0.0
 10
29833.311810
 20
16714.667832
 30
0.0
 10
29833.311810
 20
16860.187657
 30
0.0
  0
SPLINE
  5
203
100
AcDbEntity
  8
0
 62
7
100
AcDbSpline
 70
8
 71
3
 72
8
 73
4
 74
0
 40
0
 40
0
 40
0
 40
0
 40
1
 40
1
 40
1
 40
1
 10
29833.311810
 20
16860.187657
 30
0.0
 10
29833.311810
 20
16955.608819
 30
0.0
 10
29795.405901
 20
17047.121778
 30
0.0
 10
29727.932951
 20
17114.594729
 30
0.0
  0
SPLINE
  5
204
100
AcDbEntity
  8
0
 62
7
100
AcDbSpline
 70
8
 71
3
 72
8
 73
4
 74
0
 40
0
 40
0
 40
0
 40
0
 40
1
 40
1
 40
1
 40
1
 10
29727.932951
 20
17114.594729
 30
0.0
 10
29660.460000
 20
17182.067679
 30
0.0
 10
29568.947041
 20
17219.973588
 30
0.0
 10
29473.525880
 20
17219.973588
 30
0.0
  0
LWPOLYLINE
  5
205
100
AcDbEntity
  8
0
 62
7
100
AcDbPolyline
 90
1
 70
1
 10
31465.309272
 20
17219.973588
 30
0.0
  0
SPLINE
  5
206
100
AcDbEntity
  8
0
 62
7
100
AcDbSpline
 70
8
 71
3
 72
8
 73
4
 74
0
 40
0
 40
0
 40
0
 40
0
 40
1
 40
1
 40
1
 40
1
 10
11098.689346
 20
17204.974411
 30
0.0
 10
10953.169510
 20
17204.974411
 30
0.0
 10
10821.978494
 20
17117.315377
 30
0.0
 10
10766.290464
 20
16982.872579
 30
0.0
  0
SPLINE
  5
207
100
AcDbEntity
  8
0
 62
7
100
AcDbSpline
 70
8
 71
3
 72
8
 73
4
 74
0
 40
0
 40
0
 40
0
 40
0
 40
1
 40
1
 40
1
 40
1
 10
10766.290464
 20
16982.872579
 30
0.0
 10
10710.602434
 20
16848.429781
 30
0.0
 10
10741.384193
 20
16693.679427
 30
0.0
 10
10844.282256
 20
16590.781364
 30
0.0
  0
SPLINE
  5
208
100
AcDbEntity
  8
0
 62
7
100
AcDbSpline
 70
8
 71
3
 72
8
 73
4
 74
0
 40
0
 40
0
 40
0
 40
0
 40
1
 40
1
 40
1
 40
1
 10
10844.282256
 20
16590.781364
 30
0.0
 10
10947.180318
 20
16487.883301
 30
0.0
 10
11101.930673
 20
16457.101542
 30
0.0
 10
11236.373471
 20
16512.789572
 30
0.0
  0
SPLINE
  5
209
100
AcDbEntity
  8
0
 62
7
100
AcDbSpline
 70
8
 71
3
 72
8
 73
4
 74
0
 40
0
 40
0
 40
0
 40
0
 40
1
 40
1
 40
1
 40
1
 10
11236.373471
 20
16512.789572
 30
0.0
 10
11370.816269
 20
16568.477602
 30
0.0
 10
11458.475303
 20
16699.668618
 30
0.0
 10
11458.475303
 20
16845.188454
 30
0.0
  0
SPLINE
  5
20a
100
AcDbEntity
  8
0
 62
7
100
AcDbSpline
 70
8
 71
3
 72
8
 73
4
 74
0
 40
0
 40
0
 40
0
 40
0
 40
1
 40
1
 40
1
 40
1
 10
11458.475303
 20
16845.188454
 30
0.0
 10
11458.475303
 20
16940.609623
 30
0.0
 10
11420.569391
 20
17032.122589
 30
0.0
 10
11353.096436
 20
17099.595544
 30
0.0
  0
SPLINE
  5
20b
100
AcDbEntity
  8
0
 62
7
100
AcDbSpline
 70
8
 71
3
 72
8
 73
4
 74
0
 40
0
 40
0
 40
0
 40
0
 40
1
 40
1
 40
1
 40
1
 10
11353.096436
 20
17099.595544
 30
0.0
 10
11285.623480
 20
17167.068500
 30
0.0
 10
11194.110514
 20
17204.974411
 30
0.0
 10
11098.689346
 20
17204.974411
 30
0.0
  0
LWPOLYLINE
  5
20c
100
AcDbEntity
  8
0
 62
7
100
AcDbPolyline
 90
1
 70
1
 10
29473.525880
 20
17219.973588
 30
0.0
  0
SPLINE
  5
20d
100
AcDbEntity
  8
0
 62
7
100
AcDbSpline
 70
8
 71
3
 72
8
 73
4
 74
0
 40
0
 40
0
 40
0
 40
0
 40
1
 40
1
 40
1
 40
1
 10
9103.730953
 20
17204.974385
 30
0.0
 10
8958.211128
 20
17204.974385
 30
0.0
 10
8827.020122
 20
17117.315357
 30
0.0
 10
8771.332095
 20
16982.872569
 30
0.0
  0
SPLINE
  5
20e
100
AcDbEntity
  8
0
 62
7
100
AcDbSpline
 70
8
 71
3
 72
8
 73
4
 74
0
 40
0
 40
0
 40
0
 40
0
 40
1
 40
1
 40
1
 40
1
 10
8771.332095
 20
16982.872569
 30
0.0
 10
8715.644069
 20
16848.429781
 30
0.0
 10
8746.425826
 20
16693.679438
 30
0.0
 10
8849.323882
 20
16590.781383
 30
0.0
  0
SPLINE
  5
20f
100
AcDbEntity
  8
0
 62
7
100
AcDbSpline
 70
8
 71
3
 72
8
 73
4
 74
0
 40
0
 40
0
 40
0
 40
0
 40
1
 40
1
 40
1
 40
1
 10
8849.323882
 20
16590.781383
 30
0.0
 10
8952.221937
 20
16487.883328
 30
0.0
 10
9106.972280
 20
16457.101570
 30
0.0
 10
9241.415068
 20
16512.789597
 30
0.0
  0
SPLINE
  5
210
100
AcDbEntity
  8
0
 62
7
100
AcDbSpline
 70
8
 71
3
 72
8
 73
4
 74
0
 40
0
 40
0
 40
0
 40
0
 40
1
 40
1
 40
1
 40
1
 10
9241.415068
 20
16512.789597
 30
0.0
 10
9375.857856
 20
16568.477623
 30
0.0
 10
9463.516884
 20
16699.668629
 30
0.0
 10
9463.516884
 20
16845.188454
 30
0.0
  0
SPLINE
  5
211
100
AcDbEntity
  8
0
 62
7
100
AcDbSpline
 70
8
 71
3
 72
8
 73
4
 74
0
 40
0
 40
0
 40
0
 40
0
 40
1
 40
1
 40
1
 40
1
 10
9463.516884
 20
16845.188454
 30
0.0
 10
9463.516884
 20
16940.609616
 30
0.0
 10
9425.610975
 20
17032.122575
 30
0.0
 10
9358.138024
 20
17099.595526
 30
0.0
  0
SPLINE
  5
212
100
AcDbEntity
  8
0
 62
7
100
AcDbSpline
 70
8
 71
3
 72
8
 73
4
 74
0
 40
0
 40
0
 40
0
 40
0
 40
1
 40
1
 40
1
 40
1
 10
9358.138024
 20
17099.595526
 30
0.0
 10
9290.665074
 20
17167.068476
 30
0.0
 10
9199.152115
 20
17204.974385
 30
0.0
 10
9103.730953
 20
17204.974385
 30
0.0
  0
LWPOLYLINE
  5
213
100
AcDbEntity
  8
0
 62
7
100
AcDbPolyline
 90
1
 70
1
 10
11098.689346
 20
17204.974411
 30
0.0
  0
SPLINE
  5
214
100
AcDbEntity
  8
0
 62
7
100
AcDbSpline
 70
8
 71
3
 72
8
 73
4
 74
0
 40
0
 40
0
 40
0
 40
0
 40
1
 40
1
 40
1
 40
1
 10
7108.772560
 20
17204.974385
 30
0.0
 10
6963.252735
 20
17204.974385
 30
0.0
 10
6832.061729
 20
17117.315357
 30
0.0
 10
6776.373703
 20
16982.872569
 30
0.0
  0
SPLINE
  5
215
100
AcDbEntity
  8
0
 62
7
100
AcDbSpline
 70
8
 71
3
 72
8
 73
4
 74
0
 40
0
 40
0
 40
0
 40
0
 40
1
 40
1
 40
1
 40
1
 10
6776.373703
 20
16982.872569
 30
0.0
 10
6720.685676
 20
16848.429781
 30
0.0
 10
6751.467433
 20
16693.679438
 30
0.0
 10
6854.365489
 20
16590.781383
 30
0.0
  0
SPLINE
  5
216
100
AcDbEntity
  8
0
 62
7
100
AcDbSpline
 70
8
 71
3
 72
8
 73
4
 74
0
 40
0
 40
0
 40
0
 40
0
 40
1
 40
1
 40
1
 40
1
 10
6854.365489
 20
16590.781383
 30
0.0
 10
6957.263544
 20
16487.883328
 30
0.0
 10
7112.013887
 20
16457.101570
 30
0.0
 10
7246.456675
 20
16512.789597
 30
0.0
  0
SPLINE
  5
217
100
AcDbEntity
  8
0
 62
7
100
AcDbSpline
 70
8
 71
3
 72
8
 73
4
 74
0
 40
0
 40
0
 40
0
 40
0
 40
1
 40
1
 40
1
 40
1
 10
7246.456675
 20
16512.789597
 30
0.0
 10
7380.899463
 20
16568.477623
 30
0.0
 10
7468.558491
 20
16699.668629
 30
0.0
 10
7468.558491
 20
16845.188454
 30
0.0
  0
SPLINE
  5
218
100
AcDbEntity
  8
0
 62
7
100
AcDbSpline
 70
8
 71
3
 72
8
 73
4
 74
0
 40
0
 40
0
 40
0
 40
0
 40
1
 40
1
 40
1
 40
1
 10
7468.558491
 20
16845.188454
 30
0.0
 10
7468.558491
 20
16940.609616
 30
0.0
 10
7430.652582
 20
17032.122575
 30
0.0
 10
7363.179631
 20
17099.595526
 30
0.0
  0
SPLINE
  5
219
100
AcDbEntity
  8
0
 62
7
100
AcDbSpline
 70
8
 71
3
 72
8
 73
4
 74
0
 40
0
 40
0
 40
0
 40
0
 40
1
 40
1
 40
1
 40
1
 10
7363.179631
 20
17099.595526
 30
0.0
 10
7295.706681
 20
17167.068476
 30
0.0
 10
7204.193722
 20
17204.974385
 30
0.0
 10
7108.772560
 20
17204.974385
 30
0.0
  0
LWPOLYLINE
  5
21a
100
AcDbEntity
  8
0
 62
7
100
AcDbPolyline
 90
1
 70
1
 10
9103.730953
 20
17204.974385
 30
0.0
  0
SPLINE
  5
21b
100
AcDbEntity
  8
0
 62
7
100
AcDbSpline
 70
8
 71
3
 72
8
 73
4
 74
0
 40
0
 40
0
 40
0
 40
0
 40
1
 40
1
 40
1
 40
1
 10
5113.814167
 20
17204.974385
 30
0.0
 10
4915.109884
 20
17204.974385
 30
0.0
 10
4754.028236
 20
17043.892737
 30
0.0
 10
4754.028236
 20
16845.188454
 30
0.0
  0
SPLINE
  5
21c
100
AcDbEntity
  8
0
 62
7
100
AcDbSpline
 70
8
 71
3
 72
8
 73
4
 74
0
 40
0
 40
0
 40
0
 40
0
 40
1
 40
1
 40
1
 40
1
 10
4754.028236
 20
16845.188454
 30
0.0
 10
4754.028236
 20
16646.484171
 30
0.0
 10
4915.109884
 20
16485.402523
 30
0.0
 10
5113.814167
 20
16485.402523
 30
0.0
  0
SPLINE
  5
21d
100
AcDbEntity
  8
0
 62
7
100
AcDbSpline
 70
8
 71
3
 72
8
 73
4
 74
0
 40
0
 40
0
 40
0
 40
0
 40
1
 40
1
 40
1
 40
1
 10
5113.814167
 20
16485.402523
 30
0.0
 10
5312.518450
 20
16485.402523
 30
0.0
 10
5473.600098
 20
16646.484171
 30
0.0
 10
5473.600098
 20
16845.188454
 30
0.0
  0
SPLINE
  5
21e
100
AcDbEntity
  8
0
 62
7
100
AcDbSpline
 70
8
 71
3
 72
8
 73
4
 74
0
 40
0
 40
0
 40
0
 40
0
 40
1
 40
1
 40
1
 40
1
 10
5473.600098
 20
16845.188454
 30
0.0
 10
5473.600098
 20
16940.609616
 30
0.0
 10
5435.694189
 20
17032.122575
 30
0.0
 10
5368.221239
 20
17099.595526
 30
0.0
  0
SPLINE
  5
21f
100
AcDbEntity
  8
0
 62
7
100
AcDbSpline
 70
8
 71
3
 72
8
 73
4
 74
0
 40
0
 40
0
 40
0
 40
0
 40
1
 40
1
 40
1
 40
1
 10
5368.221239
 20
17099.595526
 30
0.0
 10
5300.748288
 20
17167.068476
 30
0.0
 10
5209.235329
 20
17204.974385
 30
0.0
 10
5113.814167
 20
17204.974385
 30
0.0
  0
LWPOLYLINE
  5
220
100
AcDbEntity
  8
0
 62
7
100
AcDbPolyline
 90
1
 70
1
 10
7108.772560
 20
17204.974385
 30
0.0
  0
SPLINE
  5
221
100
AcDbEntity
  8
0
 62
7
100
AcDbSpline
 70
8
 71
3
 72
8
 73
4
 74
0
 40
0
 40
0
 40
0
 40
0
 40
1
 40
1
 40
1
 40
1
 10
3118.855510
 20
17204.974385
 30
0.0
 10
2973.335685
 20
17204.974385
 30
0.0
 10
2842.144678
 20
17117.315357
 30
0.0
 10
2786.456652
 20
16982.872569
 30
0.0
  0
SPLINE
  5
222
100
AcDbEntity
  8
0
 62
7
100
AcDbSpline
 70
8
 71
3
 72
8
 73
4
 74
0
 40
0
 40
0
 40
0
 40
0
 40
1
 40
1
 40
1
 40
1
 10
2786.456652
 20
16982.872569
 30
0.0
 10
2730.768626
 20
16848.429781
 30
0.0
 10
2761.550383
 20
16693.679438
 30
0.0
 10
2864.448438
 20
16590.781383
 30
0.0
  0
SPLINE
  5
223
100
AcDbEntity
  8
0
 62
7
100
AcDbSpline
 70
8
 71
3
 72
8
 73
4
 74
0
 40
0
 40
0
 40
0
 40
0
 40
1
 40
1
 40
1
 40
1
 10
2864.448438
 20
16590.781383
 30
0.0
 10
2967.346494
 20
16487.883328
 30
0.0
 10
3122.096837
 20
16457.101570
 30
0.0
 10
3256.539625
 20
16512.789597
 30
0.0
  0
SPLINE
  5
224
100
AcDbEntity
  8
0
 62
7
100
AcDbSpline
 70
8
 71
3
 72
8
 73
4
 74
0
 40
0
 40
0
 40
0
 40
0
 40
1
 40
1
 40
1
 40
1
 10
3256.539625
 20
16512.789597
 30
0.0
 10
3390.982413
 20
16568.477623
 30
0.0
 10
3478.641440
 20
16699.668629
 30
0.0
 10
3478.641440
 20
16845.188454
 30
0.0
  0
SPLINE
  5
225
100
AcDbEntity
  8
0
 62
7
100
AcDbSpline
 70
8
 71
3
 72
8
 73
4
 74
0
 40
0
 40
0
 40
0
 40
0
 40
1
 40
1
 40
1
 40
1
 10
3478.641440
 20
16845.188454
 30
0.0
 10
3478.641440
 20
16940.609616
 30
0.0
 10
3440.735532
 20
17032.122575
 30
0.0
 10
3373.262581
 20
17099.595526
 30
0.0
  0
SPLINE
  5
226
100
AcDbEntity
  8
0
 62
7
100
AcDbSpline
 70
8
 71
3
 72
8
 73
4
 74
0
 40
0
 40
0
 40
0
 40
0
 40
1
 40
1
 40
1
 40
1
 10
3373.262581
 20
17099.595526
 30
0.0
 10
3305.789631
 20
17167.068476
 30
0.0
 10
3214.276671
 20
17204.974385
 30
0.0
 10
3118.855510
 20
17204.974385
 30
0.0
  0
LWPOLYLINE
  5
227
100
AcDbEntity
  8
0
 62
7
100
AcDbPolyline
 90
1
 70
1
 10
5113.814167
 20
17204.974385
 30
0.0
  0
SPLINE
  5
228
100
AcDbEntity
  8
0
 62
7
100
AcDbSpline
 70
8
 71
3
 72
8
 73
4
 74
0
 40
0
 40
0
 40
0
 40
0
 40
1
 40
1
 40
1
 40
1
 10
1123.883888
 20
17204.974385
 30
0.0
 10
978.364063
 20
17204.974385
 30
0.0
 10
847.173056
 20
17117.315357
 30
0.0
 10
791.485030
 20
16982.872569
 30
0.0
  0
SPLINE
  5
229
100
AcDbEntity
  8
0
 62
7
100
AcDbSpline
 70
8
 71
3
 72
8
 73
4
 74
0
 40
0
 40
0
 40
0
 40
0
 40
1
 40
1
 40
1
 40
1
 10
791.485030
 20
16982.872569
 30
0.0
 10
735.797004
 20
16848.429781
 30
0.0
 10
766.578761
 20
16693.679438
 30
0.0
 10
869.476816
 20
16590.781383
 30
0.0
  0
SPLINE
  5
22a
100
AcDbEntity
  8
0
 62
7
100
AcDbSpline
 70
8
 71
3
 72
8
 73
4
 74
0
 40
0
 40
0
 40
0
 40
0
 40
1
 40
1
 40
1
 40
1
 10
869.476816
 20
16590.781383
 30
0.0
 10
972.374871
 20
16487.883328
 30
0.0
 10
1127.125215
 20
16457.101570
 30
0.0
 10
1261.568003
 20
16512.789597
 30
0.0
  0
SPLINE
  5
22b
100
AcDbEntity
  8
0
 62
7
100
AcDbSpline
 70
8
 71
3
 72
8
 73
4
 74
0
 40
0
 40
0
 40
0
 40
0
 40
1
 40
1
 40
1
 40
1
 10
1261.568003
 20
16512.789597
 30
0.0
 10
1396.010791
 20
16568.477623
 30
0.0
 10
1483.669818
 20
16699.668629
 30
0.0
 10
1483.669818
 20
16845.188454
 30
0.0
  0
SPLINE
  5
22c
100
AcDbEntity
  8
0
 62
7
100
AcDbSpline
 70
8
 71
3
 72
8
 73
4
 74
0
 40
0
 40
0
 40
0
 40
0
 40
1
 40
1
 40
1
 40
1
 10
1483.669818
 20
16845.188454
 30
0.0
 10
1483.669818
 20
17043.892737
 30
0.0
 10
1322.588170
 20
17204.974385
 30
0.0
 10
1123.883888
 20
17204.974385
 30
0.0
  0
LWPOLYLINE
  5
22d
100
AcDbEntity
  8
0
 62
7
100
AcDbPolyline
 90
1
 70
1
 10
3118.855510
 20
17204.974385
 30
0.0
  0
SPLINE
  5
22e
100
AcDbEntity
  8
0
 62
7
100
AcDbSpline
 70
8
 71
3
 72
8
 73
4
 74
0
 40
0
 40
0
 40
0
 40
0
 40
1
 40
1
 40
1
 40
1
 10
29712.444637
 20
12554.353018
 30
0.0
 10
29566.924811
 20
12554.353018
 30
0.0
 10
29435.733805
 20
12466.693990
 30
0.0
 10
29380.045779
 20
12332.251202
 30
0.0
  0
SPLINE
  5
22f
100
AcDbEntity
  8
0
 62
7
100
AcDbSpline
 70
8
 71
3
 72
8
 73
4
 74
0
 40
0
 40
0
 40
0
 40
0
 40
1
 40
1
 40
1
 40
1
 10
29380.045779
 20
12332.251202
 30
0.0
 10
29324.357753
 20
12197.808414
 30
0.0
 10
29355.139510
 20
12043.058071
 30
0.0
 10
29458.037565
 20
11940.160015
 30
0.0
  0
SPLINE
  5
230
100
AcDbEntity
  8
0
 62
7
100
AcDbSpline
 70
8
 71
3
 72
8
 73
4
 74
0
 40
0
 40
0
 40
0
 40
0
 40
1
 40
1
 40
1
 40
1
 10
29458.037565
 20
11940.160015
 30
0.0
 10
29560.935620
 20
11837.261960
 30
0.0
 10
29715.685963
 20
11806.480203
 30
0.0
 10
29850.128752
 20
11862.168229
 30
0.0
  0
SPLINE
  5
231
100
AcDbEntity
  8
0
 62
7
100
AcDbSpline
 70
8
 71
3
 72
8
 73
4
 74
0
 40
0
 40
0
 40
0
 40
0
 40
1
 40
1
 40
1
 40
1
 10
29850.128752
 20
11862.168229
 30
0.0
 10
29984.571540
 20
11917.856256
 30
0.0
 10
30072.230567
 20
12049.047262
 30
0.0
 10
30072.230567
 20
12194.567087
 30
0.0
  0
SPLINE
  5
232
100
AcDbEntity
  8
0
 62
7
100
AcDbSpline
 70
8
 71
3
 72
8
 73
4
 74
0
 40
0
 40
0
 40
0
 40
0
 40
1
 40
1
 40
1
 40
1
 10
30072.230567
 20
12194.567087
 30
0.0
 10
30072.230567
 20
12289.988248
 30
0.0
 10
30034.324659
 20
12381.501208
 30
0.0
 10
29966.851708
 20
12448.974158
 30
0.0
  0
SPLINE
  5
233
100
AcDbEntity
  8
0
 62
7
100
AcDbSpline
 70
8
 71
3
 72
8
 73
4
 74
0
 40
0
 40
0
 40
0
 40
0
 40
1
 40
1
 40
1
 40
1
 10
29966.851708
 20
12448.974158
 30
0.0
 10
29899.378758
 20
12516.447109
 30
0.0
 10
29807.865798
 20
12554.353018
 30
0.0
 10
29712.444637
 20
12554.353018
 30
0.0
  0
LWPOLYLINE
  5
234
100
AcDbEntity
  8
0
 62
7
100
AcDbPolyline
 90
1
 70
1
 10
1123.883888
 20
17204.974385
 30
0.0
  0
SPLINE
  5
235
100
AcDbEntity
  8
0
 62
7
100
AcDbSpline
 70
8
 71
3
 72
8
 73
4
 74
0
 40
0
 40
0
 40
0
 40
0
 40
1
 40
1
 40
1
 40
1
 10
22317.631820
 20
11267.487697
 30
0.0
 10
22159.638853
 20
11267.487697
 30
0.0
 10
22017.202891
 20
11172.315029
 30
0.0
 10
21956.741600
 20
11026.348561
 30
0.0
  0
SPLINE
  5
236
100
AcDbEntity
  8
0
 62
7
100
AcDbSpline
 70
8
 71
3
 72
8
 73
4
 74
0
 40
0
 40
0
 40
0
 40
0
 40
1
 40
1
 40
1
 40
1
 10
21956.741600
 20
11026.348561
 30
0.0
 10
21896.280309
 20
10880.382092
 30
0.0
 10
21929.700505
 20
10712.367419
 30
0.0
 10
22041.418404
 20
10600.649521
 30
0.0
  0
SPLINE
  5
237
100
AcDbEntity
  8
0
 62
7
100
AcDbSpline
 70
8
 71
3
 72
8
 73
4
 74
0
 40
0
 40
0
 40
0
 40
0
 40
1
 40
1
 40
1
 40
1
 10
22041.418404
 20
10600.649521
 30
0.0
 10
22153.136302
 20
10488.931622
 30
0.0
 10
22321.150975
 20
10455.511426
 30
0.0
 10
22467.117444
 20
10515.972717
 30
0.0
  0
SPLINE
  5
238
100
AcDbEntity
  8
0
 62
7
100
AcDbSpline
 70
8
 71
3
 72
8
 73
4
 74
0
 40
0
 40
0
 40
0
 40
0
 40
1
 40
1
 40
1
 40
1
 10
22467.117444
 20
10515.972717
 30
0.0
 10
22613.083913
 20
10576.434008
 30
0.0
 10
22708.256580
 20
10718.869970
 30
0.0
 10
22708.256580
 20
10876.862937
 30
0.0
  0
SPLINE
  5
239
100
AcDbEntity
  8
0
 62
7
100
AcDbSpline
 70
8
 71
3
 72
8
 73
4
 74
0
 40
0
 40
0
 40
0
 40
0
 40
1
 40
1
 40
1
 40
1
 10
22708.256580
 20
10876.862937
 30
0.0
 10
22708.256580
 20
10980.463065
 30
0.0
 10
22667.101589
 20
11079.820001
 30
0.0
 10
22593.845237
 20
11153.076353
 30
0.0
  0
SPLINE
  5
23a
100
AcDbEntity
  8
0
 62
7
100
AcDbSpline
 70
8
 71
3
 72
8
 73
4
 74
0
 40
0
 40
0
 40
0
 40
0
 40
1
 40
1
 40
1
 40
1
 10
22593.845237
 20
11153.076353
 30
0.0
 10
22520.588884
 20
11226.332706
 30
0.0
 10
22421.231948
 20
11267.487697
 30
0.0
 10
22317.631820
 20
11267.487697
 30
0.0
  0
LWPOLYLINE
  5
23b
100
AcDbEntity
  8
0
 62
7
100
AcDbPolyline
 90
1
 70
1
 10
29712.444637
 20
12554.353018
 30
0.0
  0
SPLINE
  5
23c
100
AcDbEntity
  8
0
 62
7
100
AcDbSpline
 70
8
 71
3
 72
8
 73
4
 74
0
 40
0
 40
0
 40
0
 40
0
 40
1
 40
1
 40
1
 40
1
 10
17928.061898
 20
8633.111272
 30
0.0
 10
17770.068609
 20
8633.111272
 30
0.0
 10
17627.632358
 20
8537.938412
 30
0.0
 10
17567.170944
 20
8391.971646
 30
0.0
  0
SPLINE
  5
23d
100
AcDbEntity
  8
0
 62
7
100
AcDbSpline
 70
8
 71
3
 72
8
 73
4
 74
0
 40
0
 40
0
 40
0
 40
0
 40
1
 40
1
 40
1
 40
1
 10
17567.170944
 20
8391.971646
 30
0.0
 10
17506.709530
 20
8246.004881
 30
0.0
 10
17540.129794
 20
8077.989867
 30
0.0
 10
17651.847920
 20
7966.271741
 30
0.0
  0
SPLINE
  5
23e
100
AcDbEntity
  8
0
 62
7
100
AcDbSpline
 70
8
 71
3
 72
8
 73
4
 74
0
 40
0
 40
0
 40
0
 40
0
 40
1
 40
1
 40
1
 40
1
 10
17651.847920
 20
7966.271741
 30
0.0
 10
17763.566045
 20
7854.553616
 30
0.0
 10
17931.581060
 20
7821.133351
 30
0.0
 10
18077.547825
 20
7881.594765
 30
0.0
  0
SPLINE
  5
23f
100
AcDbEntity
  8
0
 62
7
100
AcDbSpline
 70
8
 71
3
 72
8
 73
4
 74
0
 40
0
 40
0
 40
0
 40
0
 40
1
 40
1
 40
1
 40
1
 10
18077.547825
 20
7881.594765
 30
0.0
 10
18223.514590
 20
7942.056179
 30
0.0
 10
18318.687451
 20
8084.492431
 30
0.0
 10
18318.687451
 20
8242.485719
 30
0.0
  0
SPLINE
  5
240
100
AcDbEntity
  8
0
 62
7
100
AcDbSpline
 70
8
 71
3
 72
8
 73
4
 74
0
 40
0
 40
0
 40
0
 40
0
 40
1
 40
1
 40
1
 40
1
 10
18318.687451
 20
8242.485719
 30
0.0
 10
18318.687451
 20
8346.086057
 30
0.0
 10
18277.532377
 20
8445.443195
 30
0.0
 10
18204.275875
 20
8518.699697
 30
0.0
  0
SPLINE
  5
241
100
AcDbEntity
  8
0
 62
7
100
AcDbSpline
 70
8
 71
3
 72
8
 73
4
 74
0
 40
0
 40
0
 40
0
 40
0
 40
1
 40
1
 40
1
 40
1
 10
18204.275875
 20
8518.699697
 30
0.0
 10
18131.019374
 20
8591.956198
 30
0.0
 10
18031.662236
 20
8633.111272
 30
0.0
 10
17928.061898
 20
8633.111272
 30
0.0
  0
LWPOLYLINE
  5
242
100
AcDbEntity
  8
0
 62
7
100
AcDbPolyline
 90
1
 70
1
 10
22317.631820
 20
11267.487697
 30
0.0
  0
SPLINE
  5
243
100
AcDbEntity
  8
0
 62
7
100
AcDbSpline
 70
8
 71
3
 72
8
 73
4
 74
0
 40
0
 40
0
 40
0
 40
0
 40
1
 40
1
 40
1
 40
1
 10
27314.525815
 20
11632.057347
 30
0.0
 10
27156.532848
 20
11632.057347
 30
0.0
 10
27014.096886
 20
11536.884680
 30
0.0
 10
26953.635595
 20
11390.918211
 30
0.0
  0
SPLINE
  5
244
100
AcDbEntity
  8
0
 62
7
100
AcDbSpline
 70
8
 71
3
 72
8
 73
4
 74
0
 40
0
 40
0
 40
0
 40
0
 40
1
 40
1
 40
1
 40
1
 10
26953.635595
 20
11390.918211
 30
0.0
 10
26893.174304
 20
11244.951743
 30
0.0
 10
26926.594500
 20
11076.937070
 30
0.0
 10
27038.312399
 20
10965.219171
 30
0.0
  0
SPLINE
  5
245
100
AcDbEntity
  8
0
 62
7
100
AcDbSpline
 70
8
 71
3
 72
8
 73
4
 74
0
 40
0
 40
0
 40
0
 40
0
 40
1
 40
1
 40
1
 40
1
 10
27038.312399
 20
10965.219171
 30
0.0
 10
27150.030297
 20
10853.501273
 30
0.0
 10
27318.044970
 20
10820.081076
 30
0.0
 10
27464.011439
 20
10880.542367
 30
0.0
  0
SPLINE
  5
246
100
AcDbEntity
  8
0
 62
7
100
AcDbSpline
 70
8
 71
3
 72
8
 73
4
 74
0
 40
0
 40
0
 40
0
 40
0
 40
1
 40
1
 40
1
 40
1
 10
27464.011439
 20
10880.542367
 30
0.0
 10
27609.977907
 20
10941.003658
 30
0.0
 10
27705.150575
 20
11083.439620
 30
0.0
 10
27705.150575
 20
11241.432588
 30
0.0
  0
SPLINE
  5
247
100
AcDbEntity
  8
0
 62
7
100
AcDbSpline
 70
8
 71
3
 72
8
 73
4
 74
0
 40
0
 40
0
 40
0
 40
0
 40
1
 40
1
 40
1
 40
1
 10
27705.150575
 20
11241.432588
 30
0.0
 10
27705.150575
 20
11345.032715
 30
0.0
 10
27663.995584
 20
11444.389651
 30
0.0
 10
27590.739232
 20
11517.646004
 30
0.0
  0
SPLINE
  5
248
100
AcDbEntity
  8
0
 62
7
100
AcDbSpline
 70
8
 71
3
 72
8
 73
4
 74
0
 40
0
 40
0
 40
0
 40
0
 40
1
 40
1
 40
1
 40
1
 10
27590.739232
 20
11517.646004
 30
0.0
 10
27517.482879
 20
11590.902357
 30
0.0
 10
27418.125943
 20
11632.057347
 30
0.0
 10
27314.525815
 20
11632.057347
 30
0.0
  0
LWPOLYLINE
  5
249
100
AcDbEntity
  8
0
 62
7
100
AcDbPolyline
 90
1
 70
1
 10
17928.061898
 20
8633.111272
 30
0.0
  0
SPLINE
  5
24a
100
AcDbEntity
  8
0
 62
7
100
AcDbSpline
 70
8
 71
3
 72
8
 73
4
 74
0
 40
0
 40
0
 40
0
 40
0
 40
1
 40
1
 40
1
 40
1
 10
38575.986568
 20
14986.233016
 30
0.0
 10
38417.993601
 20
14986.233016
 30
0.0
 10
38275.557639
 20
14891.060349
 30
0.0
 10
38215.096348
 20
14745.093880
 30
0.0
  0
SPLINE
  5
24b
100
AcDbEntity
  8
0
 62
7
100
AcDbSpline
 70
8
 71
3
 72
8
 73
4
 74
0
 40
0
 40
0
 40
0
 40
0
 40
1
 40
1
 40
1
 40
1
 10
38215.096348
 20
14745.093880
 30
0.0
 10
38154.635057
 20
14599.127412
 30
0.0
 10
38188.055253
 20
14431.112738
 30
0.0
 10
38299.773151
 20
14319.394840
 30
0.0
  0
SPLINE
  5
24c
100
AcDbEntity
  8
0
 62
7
100
AcDbSpline
 70
8
 71
3
 72
8
 73
4
 74
0
 40
0
 40
0
 40
0
 40
0
 40
1
 40
1
 40
1
 40
1
 10
38299.773151
 20
14319.394840
 30
0.0
 10
38411.491050
 20
14207.676942
 30
0.0
 10
38579.505723
 20
14174.256745
 30
0.0
 10
38725.472192
 20
14234.718036
 30
0.0
  0
SPLINE
  5
24d
100
AcDbEntity
  8
0
 62
7
100
AcDbSpline
 70
8
 71
3
 72
8
 73
4
 74
0
 40
0
 40
0
 40
0
 40
0
 40
1
 40
1
 40
1
 40
1
 10
38725.472192
 20
14234.718036
 30
0.0
 10
38871.438660
 20
14295.179327
 30
0.0
 10
38966.611327
 20
14437.615289
 30
0.0
 10
38966.611327
 20
14595.608256
 30
0.0
  0
SPLINE
  5
24e
100
AcDbEntity
  8
0
 62
7
100
AcDbSpline
 70
8
 71
3
 72
8
 73
4
 74
0
 40
0
 40
0
 40
0
 40
0
 40
1
 40
1
 40
1
 40
1
 10
38966.611327
 20
14595.608256
 30
0.0
 10
38966.611327
 20
14699.208384
 30
0.0
 10
38925.456337
 20
14798.565320
 30
0.0
 10
38852.199984
 20
14871.821673
 30
0.0
  0
SPLINE
  5
24f
100
AcDbEntity
  8
0
 62
7
100
AcDbSpline
 70
8
 71
3
 72
8
 73
4
 74
0
 40
0
 40
0
 40
0
 40
0
 40
1
 40
1
 40
1
 40
1
 10
38852.199984
 20
14871.821673
 30
0.0
 10
38778.943631
 20
14945.078026
 30
0.0
 10
38679.586695
 20
14986.233016
 30
0.0
 10
38575.986568
 20
14986.233016
 30
0.0
  0
LWPOLYLINE
  5
250
100
AcDbEntity
  8
0
 62
7
100
AcDbPolyline
 90
1
 70
1
 10
27314.525815
 20
11632.057347
 30
0.0
  0
SPLINE
  5
251
100
AcDbEntity
  8
0
 62
7
100
AcDbSpline
 70
8
 71
3
 72
8
 73
4
 74
0
 40
0
 40
0
 40
0
 40
0
 40
1
 40
1
 40
1
 40
1
 10
3977.005119
 20
13444.558539
 30
0.0
 10
3819.012152
 20
13444.558539
 30
0.0
 10
3676.576189
 20
13349.385872
 30
0.0
 10
3616.114898
 20
13203.419403
 30
0.0
  0
SPLINE
  5
252
100
AcDbEntity
  8
0
 62
7
100
AcDbSpline
 70
8
 71
3
 72
8
 73
4
 74
0
 40
0
 40
0
 40
0
 40
0
 40
1
 40
1
 40
1
 40
1
 10
3616.114898
 20
13203.419403
 30
0.0
 10
3555.653607
 20
13057.452934
 30
0.0
 10
3589.073804
 20
12889.438261
 30
0.0
 10
3700.791702
 20
12777.720363
 30
0.0
  0
SPLINE
  5
253
100
AcDbEntity
  8
0
 62
7
100
AcDbSpline
 70
8
 71
3
 72
8
 73
4
 74
0
 40
0
 40
0
 40
0
 40
0
 40
1
 40
1
 40
1
 40
1
 10
3700.791702
 20
12777.720363
 30
0.0
 10
3812.509601
 20
12666.002464
 30
0.0
 10
3980.524274
 20
12632.582268
 30
0.0
 10
4126.490742
 20
12693.043559
 30
0.0
  0
SPLINE
  5
254
100
AcDbEntity
  8
0
 62
7
100
AcDbSpline
 70
8
 71
3
 72
8
 73
4
 74
0
 40
0
 40
0
 40
0
 40
0
 40
1
 40
1
 40
1
 40
1
 10
4126.490742
 20
12693.043559
 30
0.0
 10
4272.457211
 20
12753.504850
 30
0.0
 10
4367.629878
 20
12895.940812
 30
0.0
 10
4367.629878
 20
13053.933779
 30
0.0
  0
SPLINE
  5
255
100
AcDbEntity
  8
0
 62
7
100
AcDbSpline
 70
8
 71
3
 72
8
 73
4
 74
0
 40
0
 40
0
 40
0
 40
0
 40
1
 40
1
 40
1
 40
1
 10
4367.629878
 20
13053.933779
 30
0.0
 10
4367.629878
 20
13157.533907
 30
0.0
 10
4326.474888
 20
13256.890843
 30
0.0
 10
4253.218535
 20
13330.147196
 30
0.0
  0
SPLINE
  5
256
100
AcDbEntity
  8
0
 62
7
100
AcDbSpline
 70
8
 71
3
 72
8
 73
4
 74
0
 40
0
 40
0
 40
0
 40
0
 40
1
 40
1
 40
1
 40
1
 10
4253.218535
 20
13330.147196
 30
0.0
 10
4179.962182
 20
13403.403548
 30
0.0
 10
4080.605246
 20
13444.558539
 30
0.0
 10
3977.005119
 20
13444.558539
 30
0.0
  0
LWPOLYLINE
  5
257
100
AcDbEntity
  8
0
 62
7
100
AcDbPolyline
 90
1
 70
1
 10
38575.986568
 20
14986.233016
 30
0.0
  0
SPLINE
  5
258
100
AcDbEntity
  8
0
 62
7
100
AcDbSpline
 70
8
 71
3
 72
8
 73
4
 74
0
 40
0
 40
0
 40
0
 40
0
 40
1
 40
1
 40
1
 40
1
 10
2414.463297
 20
15205.524187
 30
0.0
 10
2256.470330
 20
15205.524187
 30
0.0
 10
2114.034368
 20
15110.351520
 30
0.0
 10
2053.573077
 20
14964.385051
 30
0.0
  0
SPLINE
  5
259
100
AcDbEntity
  8
0
 62
7
100
AcDbSpline
 70
8
 71
3
 72
8
 73
4
 74
0
 40
0
 40
0
 40
0
 40
0
 40
1
 40
1
 40
1
 40
1
 10
2053.573077
 20
14964.385051
 30
0.0
 10
1993.111786
 20
14818.418583
 30
0.0
 10
2026.531982
 20
14650.403910
 30
0.0
 10
2138.249881
 20
14538.686011
 30
0.0
  0
SPLINE
  5
25a
100
AcDbEntity
  8
0
 62
7
100
AcDbSpline
 70
8
 71
3
 72
8
 73
4
 74
0
 40
0
 40
0
 40
0
 40
0
 40
1
 40
1
 40
1
 40
1
 10
2138.249881
 20
14538.686011
 30
0.0
 10
2249.967779
 20
14426.968113
 30
0.0
 10
2417.982452
 20
14393.547916
 30
0.0
 10
2563.948921
 20
14454.009207
 30
0.0
  0
SPLINE
  5
25b
100
AcDbEntity
  8
0
 62
7
100
AcDbSpline
 70
8
 71
3
 72
8
 73
4
 74
0
 40
0
 40
0
 40
0
 40
0
 40
1
 40
1
 40
1
 40
1
 10
2563.948921
 20
14454.009207
 30
0.0
 10
2709.915390
 20
14514.470498
 30
0.0
 10
2805.088057
 20
14656.906460
 30
0.0
 10
2805.088057
 20
14814.899428
 30
0.0
  0
SPLINE
  5
25c
100
AcDbEntity
  8
0
 62
7
100
AcDbSpline
 70
8
 71
3
 72
8
 73
4
 74
0
 40
0
 40
0
 40
0
 40
0
 40
1
 40
1
 40
1
 40
1
 10
2805.088057
 20
14814.899428
 30
0.0
 10
2805.088057
 20
14918.499555
 30
0.0
 10
2763.933066
 20
15017.856491
 30
0.0
 10
2690.676714
 20
15091.112844
 30
0.0
  0
SPLINE
  5
25d
100
AcDbEntity
  8
0
 62
7
100
AcDbSpline
 70
8
 71
3
 72
8
 73
4
 74
0
 40
0
 40
0
 40
0
 40
0
 40
1
 40
1
 40
1
 40
1
 10
2690.676714
 20
15091.112844
 30
0.0
 10
2617.420361
 20
15164.369197
 30
0.0
 10
2518.063425
 20
15205.524187
 30
0.0
 10
2414.463297
 20
15205.524187
 30
0.0
  0
LWPOLYLINE
  5
25e
100
AcDbEntity
  8
0
 62
7
100
AcDbPolyline
 90
1
 70
1
 10
3977.005119
 20
13444.558539
 30
0.0
  0
SPLINE
  5
25f
100
AcDbEntity
  8
0
 62
7
100
AcDbSpline
 70
8
 71
3
 72
8
 73
4
 74
0
 40
0
 40
0
 40
0
 40
0
 40
1
 40
1
 40
1
 40
1
 10
13079.095655
 20
9736.238861
 30
0.0
 10
12921.102367
 20
9736.238861
 30
0.0
 10
12778.666115
 20
9641.066001
 30
0.0
 10
12718.204701
 20
9495.099236
 30
0.0
  0
SPLINE
  5
260
100
AcDbEntity
  8
0
 62
7
100
AcDbSpline
 70
8
 71
3
 72
8
 73
4
 74
0
 40
0
 40
0
 40
0
 40
0
 40
1
 40
1
 40
1
 40
1
 10
12718.204701
 20
9495.099236
 30
0.0
 10
12657.743287
 20
9349.132470
 30
0.0
 10
12691.163552
 20
9181.117456
 30
0.0
 10
12802.881677
 20
9069.399330
 30
0.0
  0
SPLINE
  5
261
100
AcDbEntity
  8
0
 62
7
100
AcDbSpline
 70
8
 71
3
 72
8
 73
4
 74
0
 40
0
 40
0
 40
0
 40
0
 40
1
 40
1
 40
1
 40
1
 10
12802.881677
 20
9069.399330
 30
0.0
 10
12914.599803
 20
8957.681205
 30
0.0
 10
13082.614817
 20
8924.260941
 30
0.0
 10
13228.581582
 20
8984.722354
 30
0.0
  0
SPLINE
  5
262
100
AcDbEntity
  8
0
 62
7
100
AcDbSpline
 70
8
 71
3
 72
8
 73
4
 74
0
 40
0
 40
0
 40
0
 40
0
 40
1
 40
1
 40
1
 40
1
 10
13228.581582
 20
8984.722354
 30
0.0
 10
13374.548348
 20
9045.183768
 30
0.0
 10
13469.721208
 20
9187.620020
 30
0.0
 10
13469.721208
 20
9345.613308
 30
0.0
  0
SPLINE
  5
263
100
AcDbEntity
  8
0
 62
7
100
AcDbSpline
 70
8
 71
3
 72
8
 73
4
 74
0
 40
0
 40
0
 40
0
 40
0
 40
1
 40
1
 40
1
 40
1
 10
13469.721208
 20
9345.613308
 30
0.0
 10
13469.721208
 20
9561.349844
 30
0.0
 10
13294.832191
 20
9736.238861
 30
0.0
 10
13079.095655
 20
9736.238861
 30
0.0
  0
LWPOLYLINE
  5
264
100
AcDbEntity
  8
0
 62
7
100
AcDbPolyline
 90
1
 70
1
 10
2414.463297
 20
15205.524187
 30
0.0
  0
SPLINE
  5
265
100
AcDbEntity
  8
0
 62
7
100
AcDbSpline
 70
8
 71
3
 72
8
 73
4
 74
0
 40
0
 40
0
 40
0
 40
0
 40
1
 40
1
 40
1
 40
1
 10
6868.663178
 20
13158.865363
 30
0.0
 10
6733.537620
 20
13158.865363
 30
0.0
 10
6611.717394
 20
13077.467690
 30
0.0
 10
6560.007082
 20
12952.627953
 30
0.0
  0
SPLINE
  5
266
100
AcDbEntity
  8
0
 62
7
100
AcDbSpline
 70
8
 71
3
 72
8
 73
4
 74
0
 40
0
 40
0
 40
0
 40
0
 40
1
 40
1
 40
1
 40
1
 10
6560.007082
 20
12952.627953
 30
0.0
 10
6508.296770
 20
12827.788215
 30
0.0
 10
6536.879831
 20
12684.091462
 30
0.0
 10
6632.428029
 20
12588.543263
 30
0.0
  0
SPLINE
  5
267
100
AcDbEntity
  8
0
 62
7
100
AcDbSpline
 70
8
 71
3
 72
8
 73
4
 74
0
 40
0
 40
0
 40
0
 40
0
 40
1
 40
1
 40
1
 40
1
 10
6632.428029
 20
12588.543263
 30
0.0
 10
6727.976228
 20
12492.995065
 30
0.0
 10
6871.672981
 20
12464.412004
 30
0.0
 10
6996.512719
 20
12516.122316
 30
0.0
  0
SPLINE
  5
268
100
AcDbEntity
  8
0
 62
7
100
AcDbSpline
 70
8
 71
3
 72
8
 73
4
 74
0
 40
0
 40
0
 40
0
 40
0
 40
1
 40
1
 40
1
 40
1
 10
6996.512719
 20
12516.122316
 30
0.0
 10
7121.352456
 20
12567.832628
 30
0.0
 10
7202.750129
 20
12689.652854
 30
0.0
 10
7202.750129
 20
12824.778412
 30
0.0
  0
SPLINE
  5
269
100
AcDbEntity
  8
0
 62
7
100
AcDbSpline
 70
8
 71
3
 72
8
 73
4
 74
0
 40
0
 40
0
 40
0
 40
0
 40
1
 40
1
 40
1
 40
1
 10
7202.750129
 20
12824.778412
 30
0.0
 10
7202.750129
 20
12913.383780
 30
0.0
 10
7167.551783
 20
12998.360103
 30
0.0
 10
7104.898326
 20
13061.013560
 30
0.0
  0
SPLINE
  5
26a
100
AcDbEntity
  8
0
 62
7
100
AcDbSpline
 70
8
 71
3
 72
8
 73
4
 74
0
 40
0
 40
0
 40
0
 40
0
 40
1
 40
1
 40
1
 40
1
 10
7104.898326
 20
13061.013560
 30
0.0
 10
7042.244869
 20
13123.667017
 30
0.0
 10
6957.268546
 20
13158.865363
 30
0.0
 10
6868.663178
 20
13158.865363
 30
0.0
  0
LWPOLYLINE
  5
26b
100
AcDbEntity
  8
0
 62
7
100
AcDbPolyline
 90
1
 70
1
 10
13079.095655
 20
9736.238861
 30
0.0
  0
SPLINE
  5
26c
100
AcDbEntity
  8
0
 62
7
100
AcDbSpline
 70
8
 71
3
 72
8
 73
4
 74
0
 40
0
 40
0
 40
0
 40
0
 40
1
 40
1
 40
1
 40
1
 10
6056.180389
 20
15101.232525
 30
0.0
 10
5857.476106
 20
15101.232525
 30
0.0
 10
5696.394458
 20
14940.150877
 30
0.0
 10
5696.394458
 20
14741.446594
 30
0.0
  0
SPLINE
  5
26d
100
AcDbEntity
  8
0
 62
7
100
AcDbSpline
 70
8
 71
3
 72
8
 73
4
 74
0
 40
0
 40
0
 40
0
 40
0
 40
1
 40
1
 40
1
 40
1
 10
5696.394458
 20
14741.446594
 30
0.0
 10
5696.394458
 20
14542.742311
 30
0.0
 10
5857.476106
 20
14381.660663
 30
0.0
 10
6056.180389
 20
14381.660663
 30
0.0
  0
SPLINE
  5
26e
100
AcDbEntity
  8
0
 62
7
100
AcDbSpline
 70
8
 71
3
 72
8
 73
4
 74
0
 40
0
 40
0
 40
0
 40
0
 40
1
 40
1
 40
1
 40
1
 10
6056.180389
 20
14381.660663
 30
0.0
 10
6254.884672
 20
14381.660663
 30
0.0
 10
6415.966320
 20
14542.742311
 30
0.0
 10
6415.966320
 20
14741.446594
 30
0.0
  0
SPLINE
  5
26f
100
AcDbEntity
  8
0
 62
7
100
AcDbSpline
 70
8
 71
3
 72
8
 73
4
 74
0
 40
0
 40
0
 40
0
 40
0
 40
1
 40
1
 40
1
 40
1
 10
6415.966320
 20
14741.446594
 30
0.0
 10
6415.966320
 20
14836.867756
 30
0.0
 10
6378.060411
 20
14928.380715
 30
0.0
 10
6310.587460
 20
14995.853665
 30
0.0
  0
SPLINE
  5
270
100
AcDbEntity
  8
0
 62
7
100
AcDbSpline
 70
8
 71
3
 72
8
 73
4
 74
0
 40
0
 40
0
 40
0
 40
0
 40
1
 40
1
 40
1
 40
1
 10
6310.587460
 20
14995.853665
 30
0.0
 10
6243.114510
 20
15063.326616
 30
0.0
 10
6151.601551
 20
15101.232525
 30
0.0
 10
6056.180389
 20
15101.232525
 30
0.0
  0
LWPOLYLINE
  5
271
100
AcDbEntity
  8
0
 62
7
100
AcDbPolyline
 90
1
 70
1
 10
6868.663178
 20
13158.865363
 30
0.0
  0
SPLINE
  5
272
100
AcDbEntity
  8
0
 62
7
100
AcDbSpline
 70
8
 71
3
 72
8
 73
4
 74
0
 40
0
 40
0
 40
0
 40
0
 40
1
 40
1
 40
1
 40
1
 10
10972.852980
 20
10809.558174
 30
0.0
 10
10827.333154
 20
10809.558174
 30
0.0
 10
10696.142148
 20
10721.899146
 30
0.0
 10
10640.454122
 20
10587.456358
 30
0.0
  0
SPLINE
  5
273
100
AcDbEntity
  8
0
 62
7
100
AcDbSpline
 70
8
 71
3
 72
8
 73
4
 74
0
 40
0
 40
0
 40
0
 40
0
 40
1
 40
1
 40
1
 40
1
 10
10640.454122
 20
10587.456358
 30
0.0
 10
10584.766096
 20
10453.013570
 30
0.0
 10
10615.547853
 20
10298.263227
 30
0.0
 10
10718.445908
 20
10195.365172
 30
0.0
  0
SPLINE
  5
274
100
AcDbEntity
  8
0
 62
7
100
AcDbSpline
 70
8
 71
3
 72
8
 73
4
 74
0
 40
0
 40
0
 40
0
 40
0
 40
1
 40
1
 40
1
 40
1
 10
10718.445908
 20
10195.365172
 30
0.0
 10
10821.343963
 20
10092.467116
 30
0.0
 10
10976.094306
 20
10061.685359
 30
0.0
 10
11110.537094
 20
10117.373386
 30
0.0
  0
SPLINE
  5
275
100
AcDbEntity
  8
0
 62
7
100
AcDbSpline
 70
8
 71
3
 72
8
 73
4
 74
0
 40
0
 40
0
 40
0
 40
0
 40
1
 40
1
 40
1
 40
1
 10
11110.537094
 20
10117.373386
 30
0.0
 10
11244.979882
 20
10173.061412
 30
0.0
 10
11332.638910
 20
10304.252418
 30
0.0
 10
11332.638910
 20
10449.772243
 30
0.0
  0
SPLINE
  5
276
100
AcDbEntity
  8
0
 62
7
100
AcDbSpline
 70
8
 71
3
 72
8
 73
4
 74
0
 40
0
 40
0
 40
0
 40
0
 40
1
 40
1
 40
1
 40
1
 10
11332.638910
 20
10449.772243
 30
0.0
 10
11332.638910
 20
10545.193405
 30
0.0
 10
11294.733001
 20
10636.706364
 30
0.0
 10
11227.260051
 20
10704.179314
 30
0.0
  0
SPLINE
  5
277
100
AcDbEntity
  8
0
 62
7
100
AcDbSpline
 70
8
 71
3
 72
8
 73
4
 74
0
 40
0
 40
0
 40
0
 40
0
 40
1
 40
1
 40
1
 40
1
 10
11227.260051
 20
10704.179314
 30
0.0
 10
11159.787100
 20
10771.652265
 30
0.0
 10
11068.274141
 20
10809.558174
 30
0.0
 10
10972.852980
 20
10809.558174
 30
0.0
  0
LWPOLYLINE
  5
278
100
AcDbEntity
  8
0
 62
7
100
AcDbPolyline
 90
1
 70
1
 10
6056.180389
 20
15101.232525
 30
0.0
  0
SPLINE
  5
279
100
AcDbEntity
  8
0
 62
7
100
AcDbSpline
 70
8
 71
3
 72
8
 73
4
 74
0
 40
0
 40
0
 40
0
 40
0
 40
1
 40
1
 40
1
 40
1
 10
12764.506062
 20
11538.723669
 30
0.0
 10
12618.986237
 20
11538.723669
 30
0.0
 10
12487.795231
 20
11451.064641
 30
0.0
 10
12432.107205
 20
11316.621853
 30
0.0
  0
SPLINE
  5
27a
100
AcDbEntity
  8
0
 62
7
100
AcDbSpline
 70
8
 71
3
 72
8
 73
4
 74
0
 40
0
 40
0
 40
0
 40
0
 40
1
 40
1
 40
1
 40
1
 10
12432.107205
 20
11316.621853
 30
0.0
 10
12376.419178
 20
11182.179065
 30
0.0
 10
12407.200936
 20
11027.428722
 30
0.0
 10
12510.098991
 20
10924.530666
 30
0.0
  0
SPLINE
  5
27b
100
AcDbEntity
  8
0
 62
7
100
AcDbSpline
 70
8
 71
3
 72
8
 73
4
 74
0
 40
0
 40
0
 40
0
 40
0
 40
1
 40
1
 40
1
 40
1
 10
12510.098991
 20
10924.530666
 30
0.0
 10
12612.997046
 20
10821.632611
 30
0.0
 10
12767.747389
 20
10790.850854
 30
0.0
 10
12902.190177
 20
10846.538880
 30
0.0
  0
SPLINE
  5
27c
100
AcDbEntity
  8
0
 62
7
100
AcDbSpline
 70
8
 71
3
 72
8
 73
4
 74
0
 40
0
 40
0
 40
0
 40
0
 40
1
 40
1
 40
1
 40
1
 10
12902.190177
 20
10846.538880
 30
0.0
 10
13036.632965
 20
10902.226906
 30
0.0
 10
13124.291993
 20
11033.417913
 30
0.0
 10
13124.291993
 20
11178.937738
 30
0.0
  0
SPLINE
  5
27d
100
AcDbEntity
  8
0
 62
7
100
AcDbSpline
 70
8
 71
3
 72
8
 73
4
 74
0
 40
0
 40
0
 40
0
 40
0
 40
1
 40
1
 40
1
 40
1
 10
13124.291993
 20
11178.937738
 30
0.0
 10
13124.291993
 20
11274.358899
 30
0.0
 10
13086.386084
 20
11365.871859
 30
0.0
 10
13018.913134
 20
11433.344809
 30
0.0
  0
SPLINE
  5
27e
100
AcDbEntity
  8
0
 62
7
100
AcDbSpline
 70
8
 71
3
 72
8
 73
4
 74
0
 40
0
 40
0
 40
0
 40
0
 40
1
 40
1
 40
1
 40
1
 10
13018.913134
 20
11433.344809
 30
0.0
 10
12951.440183
 20
11500.817760
 30
0.0
 10
12859.927224
 20
11538.723669
 30
0.0
 10
12764.506062
 20
11538.723669
 30
0.0
  0
LWPOLYLINE
  5
27f
100
AcDbEntity
  8
0
 62
7
100
AcDbPolyline
 90
1
 70
1
 10
10972.852980
 20
10809.558174
 30
0.0
  0
SPLINE
  5
280
100
AcDbEntity
  8
0
 62
7
100
AcDbSpline
 70
8
 71
3
 72
8
 73
4
 74
0
 40
0
 40
0
 40
0
 40
0
 40
1
 40
1
 40
1
 40
1
 10
8868.674319
 20
10205.382114
 30
0.0
 10
8723.154494
 20
10205.382114
 30
0.0
 10
8591.963488
 20
10117.723086
 30
0.0
 10
8536.275461
 20
9983.280298
 30
0.0
  0
SPLINE
  5
281
100
AcDbEntity
  8
0
 62
7
100
AcDbSpline
 70
8
 71
3
 72
8
 73
4
 74
0
 40
0
 40
0
 40
0
 40
0
 40
1
 40
1
 40
1
 40
1
 10
8536.275461
 20
9983.280298
 30
0.0
 10
8480.587435
 20
9848.837510
 30
0.0
 10
8511.369192
 20
9694.087167
 30
0.0
 10
8614.267247
 20
9591.189112
 30
0.0
  0
SPLINE
  5
282
100
AcDbEntity
  8
0
 62
7
100
AcDbSpline
 70
8
 71
3
 72
8
 73
4
 74
0
 40
0
 40
0
 40
0
 40
0
 40
1
 40
1
 40
1
 40
1
 10
8614.267247
 20
9591.189112
 30
0.0
 10
8717.165303
 20
9488.291057
 30
0.0
 10
8871.915646
 20
9457.509300
 30
0.0
 10
9006.358434
 20
9513.197326
 30
0.0
  0
SPLINE
  5
283
100
AcDbEntity
  8
0
 62
7
100
AcDbSpline
 70
8
 71
3
 72
8
 73
4
 74
0
 40
0
 40
0
 40
0
 40
0
 40
1
 40
1
 40
1
 40
1
 10
9006.358434
 20
9513.197326
 30
0.0
 10
9140.801222
 20
9568.885352
 30
0.0
 10
9228.460250
 20
9700.076358
 30
0.0
 10
9228.460250
 20
9845.596183
 30
0.0
  0
SPLINE
  5
284
100
AcDbEntity
  8
0
 62
7
100
AcDbSpline
 70
8
 71
3
 72
8
 73
4
 74
0
 40
0
 40
0
 40
0
 40
0
 40
1
 40
1
 40
1
 40
1
 10
9228.460250
 20
9845.596183
 30
0.0
 10
9228.460250
 20
9941.017345
 30
0.0
 10
9190.554341
 20
10032.530304
 30
0.0
 10
9123.081390
 20
10100.003255
 30
0.0
  0
SPLINE
  5
285
100
AcDbEntity
  8
0
 62
7
100
AcDbSpline
 70
8
 71
3
 72
8
 73
4
 74
0
 40
0
 40
0
 40
0
 40
0
 40
1
 40
1
 40
1
 40
1
 10
9123.081390
 20
10100.003255
 30
0.0
 10
9055.608440
 20
10167.476205
 30
0.0
 10
8964.095480
 20
10205.382114
 30
0.0
 10
8868.674319
 20
10205.382114
 30
0.0
  0
LWPOLYLINE
  5
286
100
AcDbEntity
  8
0
 62
7
100
AcDbPolyline
 90
1
 70
1
 10
12764.506062
 20
11538.723669
 30
0.0
  0
SPLINE
  5
287
100
AcDbEntity
  8
0
 62
7
100
AcDbSpline
 70
8
 71
3
 72
8
 73
4
 74
0
 40
0
 40
0
 40
0
 40
0
 40
1
 40
1
 40
1
 40
1
 10
2743.676332
 20
11601.218518
 30
0.0
 10
2598.156507
 20
11601.218518
 30
0.0
 10
2466.965501
 20
11513.559491
 30
0.0
 10
2411.277474
 20
11379.116702
 30
0.0
  0
SPLINE
  5
288
100
AcDbEntity
  8
0
 62
7
100
AcDbSpline
 70
8
 71
3
 72
8
 73
4
 74
0
 40
0
 40
0
 40
0
 40
0
 40
1
 40
1
 40
1
 40
1
 10
2411.277474
 20
11379.116702
 30
0.0
 10
2355.589448
 20
11244.673914
 30
0.0
 10
2386.371205
 20
11089.923571
 30
0.0
 10
2489.269260
 20
10987.025516
 30
0.0
  0
SPLINE
  5
289
100
AcDbEntity
  8
0
 62
7
100
AcDbSpline
 70
8
 71
3
 72
8
 73
4
 74
0
 40
0
 40
0
 40
0
 40
0
 40
1
 40
1
 40
1
 40
1
 10
2489.269260
 20
10987.025516
 30
0.0
 10
2592.167316
 20
10884.127461
 30
0.0
 10
2746.917659
 20
10853.345704
 30
0.0
 10
2881.360447
 20
10909.033730
 30
0.0
  0
SPLINE
  5
28a
100
AcDbEntity
  8
0
 62
7
100
AcDbSpline
 70
8
 71
3
 72
8
 73
4
 74
0
 40
0
 40
0
 40
0
 40
0
 40
1
 40
1
 40
1
 40
1
 10
2881.360447
 20
10909.033730
 30
0.0
 10
3015.803235
 20
10964.721756
 30
0.0
 10
3103.462263
 20
11095.912762
 30
0.0
 10
3103.462263
 20
11241.432588
 30
0.0
  0
SPLINE
  5
28b
100
AcDbEntity
  8
0
 62
7
100
AcDbSpline
 70
8
 71
3
 72
8
 73
4
 74
0
 40
0
 40
0
 40
0
 40
0
 40
1
 40
1
 40
1
 40
1
 10
3103.462263
 20
11241.432588
 30
0.0
 10
3103.462263
 20
11336.853749
 30
0.0
 10
3065.556354
 20
11428.366708
 30
0.0
 10
2998.083403
 20
11495.839659
 30
0.0
  0
SPLINE
  5
28c
100
AcDbEntity
  8
0
 62
7
100
AcDbSpline
 70
8
 71
3
 72
8
 73
4
 74
0
 40
0
 40
0
 40
0
 40
0
 40
1
 40
1
 40
1
 40
1
 10
2998.083403
 20
11495.839659
 30
0.0
 10
2930.610453
 20
11563.312609
 30
0.0
 10
2839.097494
 20
11601.218518
 30
0.0
 10
2743.676332
 20
11601.218518
 30
0.0
  0
LWPOLYLINE
  5
28d
100
AcDbEntity
  8
0
 62
7
100
AcDbPolyline
 90
1
 70
1
 10
8868.674319
 20
10205.382114
 30
0.0
  0
SPLINE
  5
28e
100
AcDbEntity
  8
0
 62
7
100
AcDbSpline
 70
8
 71
3
 72
8
 73
4
 74
0
 40
0
 40
0
 40
0
 40
0
 40
1
 40
1
 40
1
 40
1
 10
1597.842557
 20
13351.225389
 30
0.0
 10
1452.322732
 20
13351.225389
 30
0.0
 10
1321.131726
 20
13263.566361
 30
0.0
 10
1265.443700
 20
13129.123573
 30
0.0
  0
SPLINE
  5
28f
100
AcDbEntity
  8
0
 62
7
100
AcDbSpline
 70
8
 71
3
 72
8
 73
4
 74
0
 40
0
 40
0
 40
0
 40
0
 40
1
 40
1
 40
1
 40
1
 10
1265.443700
 20
13129.123573
 30
0.0
 10
1209.755674
 20
12994.680785
 30
0.0
 10
1240.537431
 20
12839.930442
 30
0.0
 10
1343.435486
 20
12737.032387
 30
0.0
  0
SPLINE
  5
290
100
AcDbEntity
  8
0
 62
7
100
AcDbSpline
 70
8
 71
3
 72
8
 73
4
 74
0
 40
0
 40
0
 40
0
 40
0
 40
1
 40
1
 40
1
 40
1
 10
1343.435486
 20
12737.032387
 30
0.0
 10
1446.333541
 20
12634.134332
 30
0.0
 10
1601.083884
 20
12603.352575
 30
0.0
 10
1735.526672
 20
12659.040601
 30
0.0
  0
SPLINE
  5
291
100
AcDbEntity
  8
0
 62
7
100
AcDbSpline
 70
8
 71
3
 72
8
 73
4
 74
0
 40
0
 40
0
 40
0
 40
0
 40
1
 40
1
 40
1
 40
1
 10
1735.526672
 20
12659.040601
 30
0.0
 10
1869.969460
 20
12714.728627
 30
0.0
 10
1957.628488
 20
12845.919633
 30
0.0
 10
1957.628488
 20
12991.439459
 30
0.0
  0
SPLINE
  5
292
100
AcDbEntity
  8
0
 62
7
100
AcDbSpline
 70
8
 71
3
 72
8
 73
4
 74
0
 40
0
 40
0
 40
0
 40
0
 40
1
 40
1
 40
1
 40
1
 10
1957.628488
 20
12991.439459
 30
0.0
 10
1957.628488
 20
13086.860620
 30
0.0
 10
1919.722579
 20
13178.373579
 30
0.0
 10
1852.249629
 20
13245.846530
 30
0.0
  0
SPLINE
  5
293
100
AcDbEntity
  8
0
 62
7
100
AcDbSpline
 70
8
 71
3
 72
8
 73
4
 74
0
 40
0
 40
0
 40
0
 40
0
 40
1
 40
1
 40
1
 40
1
 10
1852.249629
 20
13245.846530
 30
0.0
 10
1784.776678
 20
13313.319480
 30
0.0
 10
1693.263719
 20
13351.225389
 30
0.0
 10
1597.842557
 20
13351.225389
 30
0.0
  0
LWPOLYLINE
  5
294
100
AcDbEntity
  8
0
 62
7
100
AcDbPolyline
 90
1
 70
1
 10
2743.676332
 20
11601.218518
 30
0.0
  0
SPLINE
  5
295
100
AcDbEntity
  8
0
 62
7
100
AcDbSpline
 70
8
 71
3
 72
8
 73
4
 74
0
 40
0
 40
0
 40
0
 40
0
 40
1
 40
1
 40
1
 40
1
 10
22952.021975
 20
7705.386775
 30
0.0
 10
22806.502149
 20
7705.386775
 30
0.0
 10
22675.311143
 20
7617.727747
 30
0.0
 10
22619.623117
 20
7483.284959
 30
0.0
  0
SPLINE
  5
296
100
AcDbEntity
  8
0
 62
7
100
AcDbSpline
 70
8
 71
3
 72
8
 73
4
 74
0
 40
0
 40
0
 40
0
 40
0
 40
1
 40
1
 40
1
 40
1
 10
22619.623117
 20
7483.284959
 30
0.0
 10
22563.935091
 20
7348.842171
 30
0.0
 10
22594.716848
 20
7194.091828
 30
0.0
 10
22697.614903
 20
7091.193773
 30
0.0
  0
SPLINE
  5
297
100
AcDbEntity
  8
0
 62
7
100
AcDbSpline
 70
8
 71
3
 72
8
 73
4
 74
0
 40
0
 40
0
 40
0
 40
0
 40
1
 40
1
 40
1
 40
1
 10
22697.614903
 20
7091.193773
 30
0.0
 10
22800.512958
 20
6988.295718
 30
0.0
 10
22955.263301
 20
6957.513961
 30
0.0
 10
23089.706089
 20
7013.201987
 30
0.0
  0
SPLINE
  5
298
100
AcDbEntity
  8
0
 62
7
100
AcDbSpline
 70
8
 71
3
 72
8
 73
4
 74
0
 40
0
 40
0
 40
0
 40
0
 40
1
 40
1
 40
1
 40
1
 10
23089.706089
 20
7013.201987
 30
0.0
 10
23224.148877
 20
7068.890013
 30
0.0
 10
23311.807905
 20
7200.081019
 30
0.0
 10
23311.807905
 20
7345.600844
 30
0.0
  0
SPLINE
  5
299
100
AcDbEntity
  8
0
 62
7
100
AcDbSpline
 70
8
 71
3
 72
8
 73
4
 74
0
 40
0
 40
0
 40
0
 40
0
 40
1
 40
1
 40
1
 40
1
 10
23311.807905
 20
7345.600844
 30
0.0
 10
23311.807905
 20
7441.022006
 30
0.0
 10
23273.901996
 20
7532.534965
 30
0.0
 10
23206.429046
 20
7600.007916
 30
0.0
  0
SPLINE
  5
29a
100
AcDbEntity
  8
0
 62
7
100
AcDbSpline
 70
8
 71
3
 72
8
 73
4
 74
0
 40
0
 40
0
 40
0
 40
0
 40
1
 40
1
 40
1
 40
1
 10
23206.429046
 20
7600.007916
 30
0.0
 10
23138.956095
 20
7667.480866
 30
0.0
 10
23047.443136
 20
7705.386775
 30
0.0
 10
22952.021975
 20
7705.386775
 30
0.0
  0
LWPOLYLINE
  5
29b
100
AcDbEntity
  8
0
 62
7
100
AcDbPolyline
 90
1
 70
1
 10
1597.842557
 20
13351.225389
 30
0.0
  0
SPLINE
  5
29c
100
AcDbEntity
  8
0
 62
7
100
AcDbSpline
 70
8
 71
3
 72
8
 73
4
 74
0
 40
0
 40
0
 40
0
 40
0
 40
1
 40
1
 40
1
 40
1
 10
21285.332927
 20
2413.719950
 30
0.0
 10
21139.813102
 20
2413.719950
 30
0.0
 10
21008.622096
 20
2326.060923
 30
0.0
 10
20952.934069
 20
2191.618135
 30
0.0
  0
SPLINE
  5
29d
100
AcDbEntity
  8
0
 62
7
100
AcDbSpline
 70
8
 71
3
 72
8
 73
4
 74
0
 40
0
 40
0
 40
0
 40
0
 40
1
 40
1
 40
1
 40
1
 10
20952.934069
 20
2191.618135
 30
0.0
 10
20897.246043
 20
2057.175346
 30
0.0
 10
20928.027800
 20
1902.425003
 30
0.0
 10
21030.925855
 20
1799.526948
 30
0.0
  0
SPLINE
  5
29e
100
AcDbEntity
  8
0
 62
7
100
AcDbSpline
 70
8
 71
3
 72
8
 73
4
 74
0
 40
0
 40
0
 40
0
 40
0
 40
1
 40
1
 40
1
 40
1
 10
21030.925855
 20
1799.526948
 30
0.0
 10
21133.823911
 20
1696.628893
 30
0.0
 10
21288.574254
 20
1665.847136
 30
0.0
 10
21423.017042
 20
1721.535162
 30
0.0
  0
SPLINE
  5
29f
100
AcDbEntity
  8
0
 62
7
100
AcDbSpline
 70
8
 71
3
 72
8
 73
4
 74
0
 40
0
 40
0
 40
0
 40
0
 40
1
 40
1
 40
1
 40
1
 10
21423.017042
 20
1721.535162
 30
0.0
 10
21557.459830
 20
1777.223188
 30
0.0
 10
21645.118858
 20
1908.414194
 30
0.0
 10
21645.118858
 20
2053.934020
 30
0.0
  0
SPLINE
  5
2a0
100
AcDbEntity
  8
0
 62
7
100
AcDbSpline
 70
8
 71
3
 72
8
 73
4
 74
0
 40
0
 40
0
 40
0
 40
0
 40
1
 40
1
 40
1
 40
1
 10
21645.118858
 20
2053.934020
 30
0.0
 10
21645.118858
 20
2252.638302
 30
0.0
 10
21484.037210
 20
2413.719950
 30
0.0
 10
21285.332927
 20
2413.719950
 30
0.0
  0
LWPOLYLINE
  5
2a1
100
AcDbEntity
  8
0
 62
7
100
AcDbPolyline
 90
1
 70
1
 10
22952.021975
 20
7705.386775
 30
0.0
  0
SPLINE
  5
2a2
100
AcDbEntity
  8
0
 62
7
100
AcDbSpline
 70
8
 71
3
 72
8
 73
4
 74
0
 40
0
 40
0
 40
0
 40
0
 40
1
 40
1
 40
1
 40
1
 10
21518.668446
 20
9342.893074
 30
0.0
 10
21373.148621
 20
9342.893074
 30
0.0
 10
21241.957615
 20
9255.234046
 30
0.0
 10
21186.269589
 20
9120.791258
 30
0.0
  0
SPLINE
  5
2a3
100
AcDbEntity
  8
0
 62
7
100
AcDbSpline
 70
8
 71
3
 72
8
 73
4
 74
0
 40
0
 40
0
 40
0
 40
0
 40
1
 40
1
 40
1
 40
1
 10
21186.269589
 20
9120.791258
 30
0.0
 10
21130.581563
 20
8986.348470
 30
0.0
 10
21161.363320
 20
8831.598127
 30
0.0
 10
21264.261375
 20
8728.700072
 30
0.0
  0
SPLINE
  5
2a4
100
AcDbEntity
  8
0
 62
7
100
AcDbSpline
 70
8
 71
3
 72
8
 73
4
 74
0
 40
0
 40
0
 40
0
 40
0
 40
1
 40
1
 40
1
 40
1
 10
21264.261375
 20
8728.700072
 30
0.0
 10
21367.159430
 20
8625.802016
 30
0.0
 10
21521.909773
 20
8595.020259
 30
0.0
 10
21656.352561
 20
8650.708286
 30
0.0
  0
SPLINE
  5
2a5
100
AcDbEntity
  8
0
 62
7
100
AcDbSpline
 70
8
 71
3
 72
8
 73
4
 74
0
 40
0
 40
0
 40
0
 40
0
 40
1
 40
1
 40
1
 40
1
 10
21656.352561
 20
8650.708286
 30
0.0
 10
21790.795349
 20
8706.396312
 30
0.0
 10
21878.454377
 20
8837.587318
 30
0.0
 10
21878.454377
 20
8983.107143
 30
0.0
  0
SPLINE
  5
2a6
100
AcDbEntity
  8
0
 62
7
100
AcDbSpline
 70
8
 71
3
 72
8
 73
4
 74
0
 40
0
 40
0
 40
0
 40
0
 40
1
 40
1
 40
1
 40
1
 10
21878.454377
 20
8983.107143
 30
0.0
 10
21878.454377
 20
9181.811426
 30
0.0
 10
21717.372729
 20
9342.893074
 30
0.0
 10
21518.668446
 20
9342.893074
 30
0.0
  0
LWPOLYLINE
  5
2a7
100
AcDbEntity
  8
0
 62
7
100
AcDbPolyline
 90
1
 70
1
 10
21285.332927
 20
2413.719950
 30
0.0
  0
SPLINE
  5
2a8
100
AcDbEntity
  8
0
 62
7
100
AcDbSpline
 70
8
 71
3
 72
8
 73
4
 74
0
 40
0
 40
0
 40
0
 40
0
 40
1
 40
1
 40
1
 40
1
 10
23014.517353
 20
4038.712516
 30
0.0
 10
22815.813071
 20
4038.712516
 30
0.0
 10
22654.731423
 20
3877.630868
 30
0.0
 10
22654.731423
 20
3678.926585
 30
0.0
  0
SPLINE
  5
2a9
100
AcDbEntity
  8
0
 62
7
100
AcDbSpline
 70
8
 71
3
 72
8
 73
4
 74
0
 40
0
 40
0
 40
0
 40
0
 40
1
 40
1
 40
1
 40
1
 10
22654.731423
 20
3678.926585
 30
0.0
 10
22654.731423
 20
3480.222302
 30
0.0
 10
22815.813071
 20
3319.140654
 30
0.0
 10
23014.517353
 20
3319.140654
 30
0.0
  0
SPLINE
  5
2aa
100
AcDbEntity
  8
0
 62
7
100
AcDbSpline
 70
8
 71
3
 72
8
 73
4
 74
0
 40
0
 40
0
 40
0
 40
0
 40
1
 40
1
 40
1
 40
1
 10
23014.517353
 20
3319.140654
 30
0.0
 10
23213.221636
 20
3319.140654
 30
0.0
 10
23374.303284
 20
3480.222302
 30
0.0
 10
23374.303284
 20
3678.926585
 30
0.0
  0
SPLINE
  5
2ab
100
AcDbEntity
  8
0
 62
7
100
AcDbSpline
 70
8
 71
3
 72
8
 73
4
 74
0
 40
0
 40
0
 40
0
 40
0
 40
1
 40
1
 40
1
 40
1
 10
23374.303284
 20
3678.926585
 30
0.0
 10
23374.303284
 20
3774.347746
 30
0.0
 10
23336.397375
 20
3865.860706
 30
0.0
 10
23268.924425
 20
3933.333656
 30
0.0
  0
SPLINE
  5
2ac
100
AcDbEntity
  8
0
 62
7
100
AcDbSpline
 70
8
 71
3
 72
8
 73
4
 74
0
 40
0
 40
0
 40
0
 40
0
 40
1
 40
1
 40
1
 40
1
 10
23268.924425
 20
3933.333656
 30
0.0
 10
23201.451474
 20
4000.806607
 30
0.0
 10
23109.938515
 20
4038.712516
 30
0.0
 10
23014.517353
 20
4038.712516
 30
0.0
  0
LWPOLYLINE
  5
2ad
100
AcDbEntity
  8
0
 62
7
100
AcDbPolyline
 90
1
 70
1
 10
21518.668446
 20
9342.893074
 30
0.0
  0
SPLINE
  5
2ae
100
AcDbEntity
  8
0
 62
7
100
AcDbSpline
 70
8
 71
3
 72
8
 73
4
 74
0
 40
0
 40
0
 40
0
 40
0
 40
1
 40
1
 40
1
 40
1
 10
22257.226120
 20
5879.339181
 30
0.0
 10
22111.706295
 20
5879.339181
 30
0.0
 10
21980.515289
 20
5791.680153
 30
0.0
 10
21924.827263
 20
5657.237365
 30
0.0
  0
SPLINE
  5
2af
100
AcDbEntity
  8
0
 62
7
100
AcDbSpline
 70
8
 71
3
 72
8
 73
4
 74
0
 40
0
 40
0
 40
0
 40
0
 40
1
 40
1
 40
1
 40
1
 10
21924.827263
 20
5657.237365
 30
0.0
 10
21869.139237
 20
5522.794577
 30
0.0
 10
21899.920994
 20
5368.044234
 30
0.0
 10
22002.819049
 20
5265.146179
 30
0.0
  0
SPLINE
  5
2b0
100
AcDbEntity
  8
0
 62
7
100
AcDbSpline
 70
8
 71
3
 72
8
 73
4
 74
0
 40
0
 40
0
 40
0
 40
0
 40
1
 40
1
 40
1
 40
1
 10
22002.819049
 20
5265.146179
 30
0.0
 10
22105.717104
 20
5162.248124
 30
0.0
 10
22260.467447
 20
5131.466366
 30
0.0
 10
22394.910235
 20
5187.154393
 30
0.0
  0
SPLINE
  5
2b1
100
AcDbEntity
  8
0
 62
7
100
AcDbSpline
 70
8
 71
3
 72
8
 73
4
 74
0
 40
0
 40
0
 40
0
 40
0
 40
1
 40
1
 40
1
 40
1
 10
22394.910235
 20
5187.154393
 30
0.0
 10
22529.353023
 20
5242.842419
 30
0.0
 10
22617.012051
 20
5374.033425
 30
0.0
 10
22617.012051
 20
5519.553250
 30
0.0
  0
SPLINE
  5
2b2
100
AcDbEntity
  8
0
 62
7
100
AcDbSpline
 70
8
 71
3
 72
8
 73
4
 74
0
 40
0
 40
0
 40
0
 40
0
 40
1
 40
1
 40
1
 40
1
 10
22617.012051
 20
5519.553250
 30
0.0
 10
22617.012051
 20
5614.974412
 30
0.0
 10
22579.106142
 20
5706.487371
 30
0.0
 10
22511.633192
 20
5773.960322
 30
0.0
  0
SPLINE
  5
2b3
100
AcDbEntity
  8
0
 62
7
100
AcDbSpline
 70
8
 71
3
 72
8
 73
4
 74
0
 40
0
 40
0
 40
0
 40
0
 40
1
 40
1
 40
1
 40
1
 10
22511.633192
 20
5773.960322
 30
0.0
 10
22444.160241
 20
5841.433272
 30
0.0
 10
22352.647282
 20
5879.339181
 30
0.0
 10
22257.226120
 20
5879.339181
 30
0.0
  0
LWPOLYLINE
  5
2b4
100
AcDbEntity
  8
0
 62
7
100
AcDbPolyline
 90
1
 70
1
 10
23014.517353
 20
4038.712516
 30
0.0
  0
SPLINE
  5
2b5
100
AcDbEntity
  8
0
 62
7
100
AcDbSpline
 70
8
 71
3
 72
8
 73
4
 74
0
 40
0
 40
0
 40
0
 40
0
 40
1
 40
1
 40
1
 40
1
 10
16530.135814
 20
7507.478436
 30
0.0
 10
16331.431531
 20
7507.478436
 30
0.0
 10
16170.349883
 20
7346.396788
 30
0.0
 10
16170.349883
 20
7147.692505
 30
0.0
  0
SPLINE
  5
2b6
100
AcDbEntity
  8
0
 62
7
100
AcDbSpline
 70
8
 71
3
 72
8
 73
4
 74
0
 40
0
 40
0
 40
0
 40
0
 40
1
 40
1
 40
1
 40
1
 10
16170.349883
 20
7147.692505
 30
0.0
 10
16170.349883
 20
6948.988222
 30
0.0
 10
16331.431531
 20
6787.906574
 30
0.0
 10
16530.135814
 20
6787.906574
 30
0.0
  0
SPLINE
  5
2b7
100
AcDbEntity
  8
0
 62
7
100
AcDbSpline
 70
8
 71
3
 72
8
 73
4
 74
0
 40
0
 40
0
 40
0
 40
0
 40
1
 40
1
 40
1
 40
1
 10
16530.135814
 20
6787.906574
 30
0.0
 10
16728.840097
 20
6787.906574
 30
0.0
 10
16889.921745
 20
6948.988222
 30
0.0
 10
16889.921745
 20
7147.692505
 30
0.0
  0
SPLINE
  5
2b8
100
AcDbEntity
  8
0
 62
7
100
AcDbSpline
 70
8
 71
3
 72
8
 73
4
 74
0
 40
0
 40
0
 40
0
 40
0
 40
1
 40
1
 40
1
 40
1
 10
16889.921745
 20
7147.692505
 30
0.0
 10
16889.921745
 20
7243.113667
 30
0.0
 10
16852.015836
 20
7334.626626
 30
0.0
 10
16784.542886
 20
7402.099576
 30
0.0
  0
SPLINE
  5
2b9
100
AcDbEntity
  8
0
 62
7
100
AcDbSpline
 70
8
 71
3
 72
8
 73
4
 74
0
 40
0
 40
0
 40
0
 40
0
 40
1
 40
1
 40
1
 40
1
 10
16784.542886
 20
7402.099576
 30
0.0
 10
16717.069935
 20
7469.572527
 30
0.0
 10
16625.556976
 20
7507.478436
 30
0.0
 10
16530.135814
 20
7507.478436
 30
0.0
  0
LWPOLYLINE
  5
2ba
100
AcDbEntity
  8
0
 62
7
100
AcDbPolyline
 90
1
 70
1
 10
22257.226120
 20
5879.339181
 30
0.0
  0
SPLINE
  5
2bb
100
AcDbEntity
  8
0
 62
7
100
AcDbSpline
 70
8
 71
3
 72
8
 73
4
 74
0
 40
0
 40
0
 40
0
 40
0
 40
1
 40
1
 40
1
 40
1
 10
20593.978773
 20
5959.845806
 30
0.0
 10
20448.458948
 20
5959.845806
 30
0.0
 10
20317.267942
 20
5872.186778
 30
0.0
 10
20261.579915
 20
5737.743990
 30
0.0
  0
SPLINE
  5
2bc
100
AcDbEntity
  8
0
 62
7
100
AcDbSpline
 70
8
 71
3
 72
8
 73
4
 74
0
 40
0
 40
0
 40
0
 40
0
 40
1
 40
1
 40
1
 40
1
 10
20261.579915
 20
5737.743990
 30
0.0
 10
20205.891889
 20
5603.301202
 30
0.0
 10
20236.673646
 20
5448.550859
 30
0.0
 10
20339.571701
 20
5345.652804
 30
0.0
  0
SPLINE
  5
2bd
100
AcDbEntity
  8
0
 62
7
100
AcDbSpline
 70
8
 71
3
 72
8
 73
4
 74
0
 40
0
 40
0
 40
0
 40
0
 40
1
 40
1
 40
1
 40
1
 10
20339.571701
 20
5345.652804
 30
0.0
 10
20442.469757
 20
5242.754749
 30
0.0
 10
20597.220100
 20
5211.972992
 30
0.0
 10
20731.662888
 20
5267.661018
 30
0.0
  0
SPLINE
  5
2be
100
AcDbEntity
  8
0
 62
7
100
AcDbSpline
 70
8
 71
3
 72
8
 73
4
 74
0
 40
0
 40
0
 40
0
 40
0
 40
1
 40
1
 40
1
 40
1
 10
20731.662888
 20
5267.661018
 30
0.0
 10
20866.105676
 20
5323.349044
 30
0.0
 10
20953.764704
 20
5454.540050
 30
0.0
 10
20953.764704
 20
5600.059875
 30
0.0
  0
SPLINE
  5
2bf
100
AcDbEntity
  8
0
 62
7
100
AcDbSpline
 70
8
 71
3
 72
8
 73
4
 74
0
 40
0
 40
0
 40
0
 40
0
 40
1
 40
1
 40
1
 40
1
 10
20953.764704
 20
5600.059875
 30
0.0
 10
20953.764704
 20
5695.481037
 30
0.0
 10
20915.858795
 20
5786.993996
 30
0.0
 10
20848.385844
 20
5854.466947
 30
0.0
  0
SPLINE
  5
2c0
100
AcDbEntity
  8
0
 62
7
100
AcDbSpline
 70
8
 71
3
 72
8
 73
4
 74
0
 40
0
 40
0
 40
0
 40
0
 40
1
 40
1
 40
1
 40
1
 10
20848.385844
 20
5854.466947
 30
0.0
 10
20780.912894
 20
5921.939897
 30
0.0
 10
20689.399935
 20
5959.845806
 30
0.0
 10
20593.978773
 20
5959.845806
 30
0.0
  0
LWPOLYLINE
  5
2c1
100
AcDbEntity
  8
0
 62
7
100
AcDbPolyline
 90
1
 70
1
 10
16530.135814
 20
7507.478436
 30
0.0
  0
SPLINE
  5
2c2
100
AcDbEntity
  8
0
 62
7
100
AcDbSpline
 70
8
 71
3
 72
8
 73
4
 74
0
 40
0
 40
0
 40
0
 40
0
 40
1
 40
1
 40
1
 40
1
 10
15681.166189
 20
2309.553754
 30
0.0
 10
15535.646364
 20
2309.553754
 30
0.0
 10
15404.455357
 20
2221.894726
 30
0.0
 10
15348.767331
 20
2087.451938
 30
0.0
  0
SPLINE
  5
2c3
100
AcDbEntity
  8
0
 62
7
100
AcDbSpline
 70
8
 71
3
 72
8
 73
4
 74
0
 40
0
 40
0
 40
0
 40
0
 40
1
 40
1
 40
1
 40
1
 10
15348.767331
 20
2087.451938
 30
0.0
 10
15293.079305
 20
1953.009150
 30
0.0
 10
15323.861062
 20
1798.258807
 30
0.0
 10
15426.759117
 20
1695.360751
 30
0.0
  0
SPLINE
  5
2c4
100
AcDbEntity
  8
0
 62
7
100
AcDbSpline
 70
8
 71
3
 72
8
 73
4
 74
0
 40
0
 40
0
 40
0
 40
0
 40
1
 40
1
 40
1
 40
1
 10
15426.759117
 20
1695.360751
 30
0.0
 10
15529.657173
 20
1592.462696
 30
0.0
 10
15684.407516
 20
1561.680939
 30
0.0
 10
15818.850304
 20
1617.368965
 30
0.0
  0
SPLINE
  5
2c5
100
AcDbEntity
  8
0
 62
7
100
AcDbSpline
 70
8
 71
3
 72
8
 73
4
 74
0
 40
0
 40
0
 40
0
 40
0
 40
1
 40
1
 40
1
 40
1
 10
15818.850304
 20
1617.368965
 30
0.0
 10
15953.293092
 20
1673.056991
 30
0.0
 10
16040.952120
 20
1804.247998
 30
0.0
 10
16040.952120
 20
1949.767823
 30
0.0
  0
SPLINE
  5
2c6
100
AcDbEntity
  8
0
 62
7
100
AcDbSpline
 70
8
 71
3
 72
8
 73
4
 74
0
 40
0
 40
0
 40
0
 40
0
 40
1
 40
1
 40
1
 40
1
 10
16040.952120
 20
1949.767823
 30
0.0
 10
16040.952120
 20
2045.188984
 30
0.0
 10
16003.046211
 20
2136.701944
 30
0.0
 10
15935.573260
 20
2204.174894
 30
0.0
  0
SPLINE
  5
2c7
100
AcDbEntity
  8
0
 62
7
100
AcDbSpline
 70
8
 71
3
 72
8
 73
4
 74
0
 40
0
 40
0
 40
0
 40
0
 40
1
 40
1
 40
1
 40
1
 10
15935.573260
 20
2204.174894
 30
0.0
 10
15868.100310
 20
2271.647845
 30
0.0
 10
15776.587350
 20
2309.553754
 30
0.0
 10
15681.166189
 20
2309.553754
 30
0.0
  0
LWPOLYLINE
  5
2c8
100
AcDbEntity
  8
0
 62
7
100
AcDbPolyline
 90
1
 70
1
 10
20593.978773
 20
5959.845806
 30
0.0
  0
SPLINE
  5
2c9
100
AcDbEntity
  8
0
 62
7
100
AcDbSpline
 70
8
 71
3
 72
8
 73
4
 74
0
 40
0
 40
0
 40
0
 40
0
 40
1
 40
1
 40
1
 40
1
 10
15395.760403
 20
9324.134644
 30
0.0
 10
15250.240578
 20
9324.134644
 30
0.0
 10
15119.049572
 20
9236.475616
 30
0.0
 10
15063.361546
 20
9102.032828
 30
0.0
  0
SPLINE
  5
2ca
100
AcDbEntity
  8
0
 62
7
100
AcDbSpline
 70
8
 71
3
 72
8
 73
4
 74
0
 40
0
 40
0
 40
0
 40
0
 40
1
 40
1
 40
1
 40
1
 10
15063.361546
 20
9102.032828
 30
0.0
 10
15007.673520
 20
8967.590040
 30
0.0
 10
15038.455277
 20
8812.839697
 30
0.0
 10
15141.353332
 20
8709.941642
 30
0.0
  0
SPLINE
  5
2cb
100
AcDbEntity
  8
0
 62
7
100
AcDbSpline
 70
8
 71
3
 72
8
 73
4
 74
0
 40
0
 40
0
 40
0
 40
0
 40
1
 40
1
 40
1
 40
1
 10
15141.353332
 20
8709.941642
 30
0.0
 10
15244.251387
 20
8607.043587
 30
0.0
 10
15399.001730
 20
8576.261830
 30
0.0
 10
15533.444518
 20
8631.949856
 30
0.0
  0
SPLINE
  5
2cc
100
AcDbEntity
  8
0
 62
7
100
AcDbSpline
 70
8
 71
3
 72
8
 73
4
 74
0
 40
0
 40
0
 40
0
 40
0
 40
1
 40
1
 40
1
 40
1
 10
15533.444518
 20
8631.949856
 30
0.0
 10
15667.887306
 20
8687.637882
 30
0.0
 10
15755.546334
 20
8818.828888
 30
0.0
 10
15755.546334
 20
8964.348713
 30
0.0
  0
SPLINE
  5
2cd
100
AcDbEntity
  8
0
 62
7
100
AcDbSpline
 70
8
 71
3
 72
8
 73
4
 74
0
 40
0
 40
0
 40
0
 40
0
 40
1
 40
1
 40
1
 40
1
 10
15755.546334
 20
8964.348713
 30
0.0
 10
15755.546334
 20
9163.052996
 30
0.0
 10
15594.464686
 20
9324.134644
 30
0.0
 10
15395.760403
 20
9324.134644
 30
0.0
  0
LWPOLYLINE
  5
2ce
100
AcDbEntity
  8
0
 62
7
100
AcDbPolyline
 90
1
 70
1
 10
15681.166189
 20
2309.553754
 30
0.0
  0
SPLINE
  5
2cf
100
AcDbEntity
  8
0
 62
7
100
AcDbSpline
 70
8
 71
3
 72
8
 73
4
 74
0
 40
0
 40
0
 40
0
 40
0
 40
1
 40
1
 40
1
 40
1
 10
17097.852025
 20
3976.216872
 30
0.0
 10
16952.332200
 20
3976.216872
 30
0.0
 10
16821.141194
 20
3888.557844
 30
0.0
 10
16765.453167
 20
3754.115056
 30
0.0
  0
SPLINE
  5
2d0
100
AcDbEntity
  8
0
 62
7
100
AcDbSpline
 70
8
 71
3
 72
8
 73
4
 74
0
 40
0
 40
0
 40
0
 40
0
 40
1
 40
1
 40
1
 40
1
 10
16765.453167
 20
3754.115056
 30
0.0
 10
16709.765141
 20
3619.672268
 30
0.0
 10
16740.546898
 20
3464.921925
 30
0.0
 10
16843.444953
 20
3362.023870
 30
0.0
  0
SPLINE
  5
2d1
100
AcDbEntity
  8
0
 62
7
100
AcDbSpline
 70
8
 71
3
 72
8
 73
4
 74
0
 40
0
 40
0
 40
0
 40
0
 40
1
 40
1
 40
1
 40
1
 10
16843.444953
 20
3362.023870
 30
0.0
 10
16946.343009
 20
3259.125815
 30
0.0
 10
17101.093352
 20
3228.344058
 30
0.0
 10
17235.536140
 20
3284.032084
 30
0.0
  0
SPLINE
  5
2d2
100
AcDbEntity
  8
0
 62
7
100
AcDbSpline
 70
8
 71
3
 72
8
 73
4
 74
0
 40
0
 40
0
 40
0
 40
0
 40
1
 40
1
 40
1
 40
1
 10
17235.536140
 20
3284.032084
 30
0.0
 10
17369.978928
 20
3339.720110
 30
0.0
 10
17457.637956
 20
3470.911116
 30
0.0
 10
17457.637956
 20
3616.430941
 30
0.0
  0
SPLINE
  5
2d3
100
AcDbEntity
  8
0
 62
7
100
AcDbSpline
 70
8
 71
3
 72
8
 73
4
 74
0
 40
0
 40
0
 40
0
 40
0
 40
1
 40
1
 40
1
 40
1
 10
17457.637956
 20
3616.430941
 30
0.0
 10
17457.637956
 20
3711.852103
 30
0.0
 10
17419.732047
 20
3803.365062
 30
0.0
 10
17352.259096
 20
3870.838013
 30
0.0
  0
SPLINE
  5
2d4
100
AcDbEntity
  8
0
 62
7
100
AcDbSpline
 70
8
 71
3
 72
8
 73
4
 74
0
 40
0
 40
0
 40
0
 40
0
 40
1
 40
1
 40
1
 40
1
 10
17352.259096
 20
3870.838013
 30
0.0
 10
17284.786146
 20
3938.310963
 30
0.0
 10
17193.273186
 20
3976.216872
 30
0.0
 10
17097.852025
 20
3976.216872
 30
0.0
  0
LWPOLYLINE
  5
2d5
100
AcDbEntity
  8
0
 62
7
100
AcDbPolyline
 90
1
 70
1
 10
15395.760403
 20
9324.134644
 30
0.0
  0
SPLINE
  5
2d6
100
AcDbEntity
  8
0
 62
7
100
AcDbSpline
 70
8
 71
3
 72
8
 73
4
 74
0
 40
0
 40
0
 40
0
 40
0
 40
1
 40
1
 40
1
 40
1
 10
16112.437035
 20
5800.176110
 30
0.0
 10
15966.917210
 20
5800.176110
 30
0.0
 10
15835.726204
 20
5712.517082
 30
0.0
 10
15780.038177
 20
5578.074294
 30
0.0
  0
SPLINE
  5
2d7
100
AcDbEntity
  8
0
 62
7
100
AcDbSpline
 70
8
 71
3
 72
8
 73
4
 74
0
 40
0
 40
0
 40
0
 40
0
 40
1
 40
1
 40
1
 40
1
 10
15780.038177
 20
5578.074294
 30
0.0
 10
15724.350151
 20
5443.631506
 30
0.0
 10
15755.131908
 20
5288.881163
 30
0.0
 10
15858.029964
 20
5185.983108
 30
0.0
  0
SPLINE
  5
2d8
100
AcDbEntity
  8
0
 62
7
100
AcDbSpline
 70
8
 71
3
 72
8
 73
4
 74
0
 40
0
 40
0
 40
0
 40
0
 40
1
 40
1
 40
1
 40
1
 10
15858.029964
 20
5185.983108
 30
0.0
 10
15960.928019
 20
5083.085052
 30
0.0
 10
16115.678362
 20
5052.303295
 30
0.0
 10
16250.121150
 20
5107.991322
 30
0.0
  0
SPLINE
  5
2d9
100
AcDbEntity
  8
0
 62
7
100
AcDbSpline
 70
8
 71
3
 72
8
 73
4
 74
0
 40
0
 40
0
 40
0
 40
0
 40
1
 40
1
 40
1
 40
1
 10
16250.121150
 20
5107.991322
 30
0.0
 10
16384.563938
 20
5163.679348
 30
0.0
 10
16472.222966
 20
5294.870354
 30
0.0
 10
16472.222966
 20
5440.390179
 30
0.0
  0
SPLINE
  5
2da
100
AcDbEntity
  8
0
 62
7
100
AcDbSpline
 70
8
 71
3
 72
8
 73
4
 74
0
 40
0
 40
0
 40
0
 40
0
 40
1
 40
1
 40
1
 40
1
 10
16472.222966
 20
5440.390179
 30
0.0
 10
16472.222966
 20
5535.811341
 30
0.0
 10
16434.317057
 20
5627.324300
 30
0.0
 10
16366.844106
 20
5694.797250
 30
0.0
  0
SPLINE
  5
2db
100
AcDbEntity
  8
0
 62
7
100
AcDbSpline
 70
8
 71
3
 72
8
 73
4
 74
0
 40
0
 40
0
 40
0
 40
0
 40
1
 40
1
 40
1
 40
1
 10
16366.844106
 20
5694.797250
 30
0.0
 10
16299.371156
 20
5762.270201
 30
0.0
 10
16207.858197
 20
5800.176110
 30
0.0
 10
16112.437035
 20
5800.176110
 30
0.0
  0
LWPOLYLINE
  5
2dc
100
AcDbEntity
  8
0
 62
7
100
AcDbPolyline
 90
1
 70
1
 10
17097.852025
 20
3976.216872
 30
0.0
  0
SPLINE
  5
2dd
100
AcDbEntity
  8
0
 62
7
100
AcDbSpline
 70
8
 71
3
 72
8
 73
4
 74
0
 40
0
 40
0
 40
0
 40
0
 40
1
 40
1
 40
1
 40
1
 10
28181.300841
 20
7705.386775
 30
0.0
 10
28035.781016
 20
7705.386775
 30
0.0
 10
27904.590010
 20
7617.727747
 30
0.0
 10
27848.901983
 20
7483.284959
 30
0.0
  0
SPLINE
  5
2de
100
AcDbEntity
  8
0
 62
7
100
AcDbSpline
 70
8
 71
3
 72
8
 73
4
 74
0
 40
0
 40
0
 40
0
 40
0
 40
1
 40
1
 40
1
 40
1
 10
27848.901983
 20
7483.284959
 30
0.0
 10
27793.213957
 20
7348.842171
 30
0.0
 10
27823.995714
 20
7194.091828
 30
0.0
 10
27926.893770
 20
7091.193773
 30
0.0
  0
SPLINE
  5
2df
100
AcDbEntity
  8
0
 62
7
100
AcDbSpline
 70
8
 71
3
 72
8
 73
4
 74
0
 40
0
 40
0
 40
0
 40
0
 40
1
 40
1
 40
1
 40
1
 10
27926.893770
 20
7091.193773
 30
0.0
 10
28029.791825
 20
6988.295718
 30
0.0
 10
28184.542168
 20
6957.513961
 30
0.0
 10
28318.984956
 20
7013.201987
 30
0.0
  0
SPLINE
  5
2e0
100
AcDbEntity
  8
0
 62
7
100
AcDbSpline
 70
8
 71
3
 72
8
 73
4
 74
0
 40
0
 40
0
 40
0
 40
0
 40
1
 40
1
 40
1
 40
1
 10
28318.984956
 20
7013.201987
 30
0.0
 10
28453.427744
 20
7068.890013
 30
0.0
 10
28541.086772
 20
7200.081019
 30
0.0
 10
28541.086772
 20
7345.600844
 30
0.0
  0
SPLINE
  5
2e1
100
AcDbEntity
  8
0
 62
7
100
AcDbSpline
 70
8
 71
3
 72
8
 73
4
 74
0
 40
0
 40
0
 40
0
 40
0
 40
1
 40
1
 40
1
 40
1
 10
28541.086772
 20
7345.600844
 30
0.0
 10
28541.086772
 20
7441.022006
 30
0.0
 10
28503.180863
 20
7532.534965
 30
0.0
 10
28435.707912
 20
7600.007916
 30
0.0
  0
SPLINE
  5
2e2
100
AcDbEntity
  8
0
 62
7
100
AcDbSpline
 70
8
 71
3
 72
8
 73
4
 74
0
 40
0
 40
0
 40
0
 40
0
 40
1
 40
1
 40
1
 40
1
 10
28435.707912
 20
7600.007916
 30
0.0
 10
28368.234962
 20
7667.480866
 30
0.0
 10
28276.722003
 20
7705.386775
 30
0.0
 10
28181.300841
 20
7705.386775
 30
0.0
  0
LWPOLYLINE
  5
2e3
100
AcDbEntity
  8
0
 62
7
100
AcDbPolyline
 90
1
 70
1
 10
16112.437035
 20
5800.176110
 30
0.0
  0
SPLINE
  5
2e4
100
AcDbEntity
  8
0
 62
7
100
AcDbSpline
 70
8
 71
3
 72
8
 73
4
 74
0
 40
0
 40
0
 40
0
 40
0
 40
1
 40
1
 40
1
 40
1
 10
26169.727408
 20
8808.514364
 30
0.0
 10
26024.207583
 20
8808.514364
 30
0.0
 10
25893.016577
 20
8720.855336
 30
0.0
 10
25837.328551
 20
8586.412548
 30
0.0
  0
SPLINE
  5
2e5
100
AcDbEntity
  8
0
 62
7
100
AcDbSpline
 70
8
 71
3
 72
8
 73
4
 74
0
 40
0
 40
0
 40
0
 40
0
 40
1
 40
1
 40
1
 40
1
 10
25837.328551
 20
8586.412548
 30
0.0
 10
25781.640524
 20
8451.969760
 30
0.0
 10
25812.422281
 20
8297.219417
 30
0.0
 10
25915.320337
 20
8194.321362
 30
0.0
  0
SPLINE
  5
2e6
100
AcDbEntity
  8
0
 62
7
100
AcDbSpline
 70
8
 71
3
 72
8
 73
4
 74
0
 40
0
 40
0
 40
0
 40
0
 40
1
 40
1
 40
1
 40
1
 10
25915.320337
 20
8194.321362
 30
0.0
 10
26018.218392
 20
8091.423307
 30
0.0
 10
26172.968735
 20
8060.641550
 30
0.0
 10
26307.411523
 20
8116.329576
 30
0.0
  0
SPLINE
  5
2e7
100
AcDbEntity
  8
0
 62
7
100
AcDbSpline
 70
8
 71
3
 72
8
 73
4
 74
0
 40
0
 40
0
 40
0
 40
0
 40
1
 40
1
 40
1
 40
1
 10
26307.411523
 20
8116.329576
 30
0.0
 10
26441.854311
 20
8172.017602
 30
0.0
 10
26529.513339
 20
8303.208608
 30
0.0
 10
26529.513339
 20
8448.728433
 30
0.0
  0
SPLINE
  5
2e8
100
AcDbEntity
  8
0
 62
7
100
AcDbSpline
 70
8
 71
3
 72
8
 73
4
 74
0
 40
0
 40
0
 40
0
 40
0
 40
1
 40
1
 40
1
 40
1
 10
26529.513339
 20
8448.728433
 30
0.0
 10
26529.513339
 20
8544.149595
 30
0.0
 10
26491.607430
 20
8635.662554
 30
0.0
 10
26424.134479
 20
8703.135505
 30
0.0
  0
SPLINE
  5
2e9
100
AcDbEntity
  8
0
 62
7
100
AcDbSpline
 70
8
 71
3
 72
8
 73
4
 74
0
 40
0
 40
0
 40
0
 40
0
 40
1
 40
1
 40
1
 40
1
 10
26424.134479
 20
8703.135505
 30
0.0
 10
26356.661529
 20
8770.608455
 30
0.0
 10
26265.148570
 20
8808.514364
 30
0.0
 10
26169.727408
 20
8808.514364
 30
0.0
  0
LWPOLYLINE
  5
2ea
100
AcDbEntity
  8
0
 62
7
100
AcDbPolyline
 90
1
 70
1
 10
28181.300841
 20
7705.386775
 30
0.0
  0
SPLINE
  5
2eb
100
AcDbEntity
  8
0
 62
7
100
AcDbSpline
 70
8
 71
3
 72
8
 73
4
 74
0
 40
0
 40
0
 40
0
 40
0
 40
1
 40
1
 40
1
 40
1
 10
26368.667358
 20
3382.057991
 30
0.0
 10
26210.674070
 20
3382.057991
 30
0.0
 10
26068.237818
 20
3286.885130
 30
0.0
 10
26007.776404
 20
3140.918365
 30
0.0
  0
SPLINE
  5
2ec
100
AcDbEntity
  8
0
 62
7
100
AcDbSpline
 70
8
 71
3
 72
8
 73
4
 74
0
 40
0
 40
0
 40
0
 40
0
 40
1
 40
1
 40
1
 40
1
 10
26007.776404
 20
3140.918365
 30
0.0
 10
25947.314990
 20
2994.951599
 30
0.0
 10
25980.735255
 20
2826.936585
 30
0.0
 10
26092.453380
 20
2715.218460
 30
0.0
  0
SPLINE
  5
2ed
100
AcDbEntity
  8
0
 62
7
100
AcDbSpline
 70
8
 71
3
 72
8
 73
4
 74
0
 40
0
 40
0
 40
0
 40
0
 40
1
 40
1
 40
1
 40
1
 10
26092.453380
 20
2715.218460
 30
0.0
 10
26204.171506
 20
2603.500334
 30
0.0
 10
26372.186520
 20
2570.080070
 30
0.0
 10
26518.153285
 20
2630.541484
 30
0.0
  0
SPLINE
  5
2ee
100
AcDbEntity
  8
0
 62
7
100
AcDbSpline
 70
8
 71
3
 72
8
 73
4
 74
0
 40
0
 40
0
 40
0
 40
0
 40
1
 40
1
 40
1
 40
1
 10
26518.153285
 20
2630.541484
 30
0.0
 10
26664.120050
 20
2691.002897
 30
0.0
 10
26759.292911
 20
2833.439149
 30
0.0
 10
26759.292911
 20
2991.432437
 30
0.0
  0
SPLINE
  5
2ef
100
AcDbEntity
  8
0
 62
7
100
AcDbSpline
 70
8
 71
3
 72
8
 73
4
 74
0
 40
0
 40
0
 40
0
 40
0
 40
1
 40
1
 40
1
 40
1
 10
26759.292911
 20
2991.432437
 30
0.0
 10
26759.292911
 20
3207.168973
 30
0.0
 10
26584.403894
 20
3382.057991
 30
0.0
 10
26368.667358
 20
3382.057991
 30
0.0
  0
LWPOLYLINE
  5
2f0
100
AcDbEntity
  8
0
 62
7
100
AcDbPolyline
 90
1
 70
1
 10
26169.727408
 20
8808.514364
 30
0.0
  0
SPLINE
  5
2f1
100
AcDbEntity
  8
0
 62
7
100
AcDbSpline
 70
8
 71
3
 72
8
 73
4
 74
0
 40
0
 40
0
 40
0
 40
0
 40
1
 40
1
 40
1
 40
1
 10
27681.238326
 20
5476.219473
 30
0.0
 10
27535.718501
 20
5476.219473
 30
0.0
 10
27404.527495
 20
5388.560445
 30
0.0
 10
27348.839469
 20
5254.117657
 30
0.0
  0
SPLINE
  5
2f2
100
AcDbEntity
  8
0
 62
7
100
AcDbSpline
 70
8
 71
3
 72
8
 73
4
 74
0
 40
0
 40
0
 40
0
 40
0
 40
1
 40
1
 40
1
 40
1
 10
27348.839469
 20
5254.117657
 30
0.0
 10
27293.151442
 20
5119.674869
 30
0.0
 10
27323.933199
 20
4964.924526
 30
0.0
 10
27426.831255
 20
4862.026471
 30
0.0
  0
SPLINE
  5
2f3
100
AcDbEntity
  8
0
 62
7
100
AcDbSpline
 70
8
 71
3
 72
8
 73
4
 74
0
 40
0
 40
0
 40
0
 40
0
 40
1
 40
1
 40
1
 40
1
 10
27426.831255
 20
4862.026471
 30
0.0
 10
27529.729310
 20
4759.128416
 30
0.0
 10
27684.479653
 20
4728.346659
 30
0.0
 10
27818.922441
 20
4784.034685
 30
0.0
  0
SPLINE
  5
2f4
100
AcDbEntity
  8
0
 62
7
100
AcDbSpline
 70
8
 71
3
 72
8
 73
4
 74
0
 40
0
 40
0
 40
0
 40
0
 40
1
 40
1
 40
1
 40
1
 10
27818.922441
 20
4784.034685
 30
0.0
 10
27953.365229
 20
4839.722711
 30
0.0
 10
28041.024257
 20
4970.913717
 30
0.0
 10
28041.024257
 20
5116.433542
 30
0.0
  0
SPLINE
  5
2f5
100
AcDbEntity
  8
0
 62
7
100
AcDbSpline
 70
8
 71
3
 72
8
 73
4
 74
0
 40
0
 40
0
 40
0
 40
0
 40
1
 40
1
 40
1
 40
1
 10
28041.024257
 20
5116.433542
 30
0.0
 10
28041.024257
 20
5211.854704
 30
0.0
 10
28003.118348
 20
5303.367663
 30
0.0
 10
27935.645397
 20
5370.840614
 30
0.0
  0
SPLINE
  5
2f6
100
AcDbEntity
  8
0
 62
7
100
AcDbSpline
 70
8
 71
3
 72
8
 73
4
 74
0
 40
0
 40
0
 40
0
 40
0
 40
1
 40
1
 40
1
 40
1
 10
27935.645397
 20
5370.840614
 30
0.0
 10
27868.172447
 20
5438.313564
 30
0.0
 10
27776.659488
 20
5476.219473
 30
0.0
 10
27681.238326
 20
5476.219473
 30
0.0
  0
LWPOLYLINE
  5
2f7
100
AcDbEntity
  8
0
 62
7
100
AcDbPolyline
 90
1
 70
1
 10
26368.667358
 20
3382.057991
 30
0.0
  0
SPLINE
  5
2f8
100
AcDbEntity
  8
0
 62
7
100
AcDbSpline
 70
8
 71
3
 72
8
 73
4
 74
0
 40
0
 40
0
 40
0
 40
0
 40
1
 40
1
 40
1
 40
1
 10
37702.067792
 20
12122.050825
 30
0.0
 10
37556.547967
 20
12122.050825
 30
0.0
 10
37425.356960
 20
12034.391798
 30
0.0
 10
37369.668934
 20
11899.949010
 30
0.0
  0
SPLINE
  5
2f9
100
AcDbEntity
  8
0
 62
7
100
AcDbSpline
 70
8
 71
3
 72
8
 73
4
 74
0
 40
0
 40
0
 40
0
 40
0
 40
1
 40
1
 40
1
 40
1
 10
37369.668934
 20
11899.949010
 30
0.0
 10
37313.980908
 20
11765.506222
 30
0.0
 10
37344.762665
 20
11610.755879
 30
0.0
 10
37447.660720
 20
11507.857823
 30
0.0
  0
SPLINE
  5
2fa
100
AcDbEntity
  8
0
 62
7
100
AcDbSpline
 70
8
 71
3
 72
8
 73
4
 74
0
 40
0
 40
0
 40
0
 40
0
 40
1
 40
1
 40
1
 40
1
 10
37447.660720
 20
11507.857823
 30
0.0
 10
37550.558776
 20
11404.959768
 30
0.0
 10
37705.309119
 20
11374.178011
 30
0.0
 10
37839.751907
 20
11429.866037
 30
0.0
  0
SPLINE
  5
2fb
100
AcDbEntity
  8
0
 62
7
100
AcDbSpline
 70
8
 71
3
 72
8
 73
4
 74
0
 40
0
 40
0
 40
0
 40
0
 40
1
 40
1
 40
1
 40
1
 10
37839.751907
 20
11429.866037
 30
0.0
 10
37974.194695
 20
11485.554063
 30
0.0
 10
38061.853723
 20
11616.745070
 30
0.0
 10
38061.853723
 20
11762.264895
 30
0.0
  0
SPLINE
  5
2fc
100
AcDbEntity
  8
0
 62
7
100
AcDbSpline
 70
8
 71
3
 72
8
 73
4
 74
0
 40
0
 40
0
 40
0
 40
0
 40
1
 40
1
 40
1
 40
1
 10
38061.853723
 20
11762.264895
 30
0.0
 10
38061.853723
 20
11857.686056
 30
0.0
 10
38023.947814
 20
11949.199016
 30
0.0
 10
37956.474863
 20
12016.671966
 30
0.0
  0
SPLINE
  5
2fd
100
AcDbEntity
  8
0
 62
7
100
AcDbSpline
 70
8
 71
3
 72
8
 73
4
 74
0
 40
0
 40
0
 40
0
 40
0
 40
1
 40
1
 40
1
 40
1
 10
37956.474863
 20
12016.671966
 30
0.0
 10
37889.001913
 20
12084.144917
 30
0.0
 10
37797.488953
 20
12122.050825
 30
0.0
 10
37702.067792
 20
12122.050825
 30
0.0
  0
LWPOLYLINE
  5
2fe
100
AcDbEntity
  8
0
 62
7
100
AcDbPolyline
 90
1
 70
1
 10
27681.238326
 20
5476.219473
 30
0.0
  0
SPLINE
  5
2ff
100
AcDbEntity
  8
0
 62
7
100
AcDbSpline
 70
8
 71
3
 72
8
 73
4
 74
0
 40
0
 40
0
 40
0
 40
0
 40
1
 40
1
 40
1
 40
1
 10
35514.492726
 20
15017.888772
 30
0.0
 10
35368.972901
 20
15017.888772
 30
0.0
 10
35237.781895
 20
14930.229745
 30
0.0
 10
35182.093869
 20
14795.786956
 30
0.0
  0
SPLINE
  5
300
100
AcDbEntity
  8
0
 62
7
100
AcDbSpline
 70
8
 71
3
 72
8
 73
4
 74
0
 40
0
 40
0
 40
0
 40
0
 40
1
 40
1
 40
1
 40
1
 10
35182.093869
 20
14795.786956
 30
0.0
 10
35126.405843
 20
14661.344168
 30
0.0
 10
35157.187600
 20
14506.593825
 30
0.0
 10
35260.085655
 20
14403.695770
 30
0.0
  0
SPLINE
  5
301
100
AcDbEntity
  8
0
 62
7
100
AcDbSpline
 70
8
 71
3
 72
8
 73
4
 74
0
 40
0
 40
0
 40
0
 40
0
 40
1
 40
1
 40
1
 40
1
 10
35260.085655
 20
14403.695770
 30
0.0
 10
35362.983710
 20
14300.797715
 30
0.0
 10
35517.734053
 20
14270.015958
 30
0.0
 10
35652.176841
 20
14325.703984
 30
0.0
  0
SPLINE
  5
302
100
AcDbEntity
  8
0
 62
7
100
AcDbSpline
 70
8
 71
3
 72
8
 73
4
 74
0
 40
0
 40
0
 40
0
 40
0
 40
1
 40
1
 40
1
 40
1
 10
35652.176841
 20
14325.703984
 30
0.0
 10
35786.619629
 20
14381.392010
 30
0.0
 10
35874.278657
 20
14512.583016
 30
0.0
 10
35874.278657
 20
14658.102842
 30
0.0
  0
SPLINE
  5
303
100
AcDbEntity
  8
0
 62
7
100
AcDbSpline
 70
8
 71
3
 72
8
 73
4
 74
0
 40
0
 40
0
 40
0
 40
0
 40
1
 40
1
 40
1
 40
1
 10
35874.278657
 20
14658.102842
 30
0.0
 10
35874.278657
 20
14753.524003
 30
0.0
 10
35836.372748
 20
14845.036963
 30
0.0
 10
35768.899798
 20
14912.509913
 30
0.0
  0
SPLINE
  5
304
100
AcDbEntity
  8
0
 62
7
100
AcDbSpline
 70
8
 71
3
 72
8
 73
4
 74
0
 40
0
 40
0
 40
0
 40
0
 40
1
 40
1
 40
1
 40
1
 10
35768.899798
 20
14912.509913
 30
0.0
 10
35701.426847
 20
14979.982863
 30
0.0
 10
35609.913888
 20
15017.888772
 30
0.0
 10
35514.492726
 20
15017.888772
 30
0.0
  0
LWPOLYLINE
  5
305
100
AcDbEntity
  8
0
 62
7
100
AcDbPolyline
 90
1
 70
1
 10
37702.067792
 20
12122.050825
 30
0.0
  0
SPLINE
  5
306
100
AcDbEntity
  8
0
 62
7
100
AcDbSpline
 70
8
 71
3
 72
8
 73
4
 74
0
 40
0
 40
0
 40
0
 40
0
 40
1
 40
1
 40
1
 40
1
 10
31096.744678
 20
15586.639663
 30
0.0
 10
30951.224853
 20
15586.639663
 30
0.0
 10
30820.033847
 20
15498.980635
 30
0.0
 10
30764.345820
 20
15364.537847
 30
0.0
  0
SPLINE
  5
307
100
AcDbEntity
  8
0
 62
7
100
AcDbSpline
 70
8
 71
3
 72
8
 73
4
 74
0
 40
0
 40
0
 40
0
 40
0
 40
1
 40
1
 40
1
 40
1
 10
30764.345820
 20
15364.537847
 30
0.0
 10
30708.657794
 20
15230.095059
 30
0.0
 10
30739.439551
 20
15075.344716
 30
0.0
 10
30842.337607
 20
14972.446660
 30
0.0
  0
SPLINE
  5
308
100
AcDbEntity
  8
0
 62
7
100
AcDbSpline
 70
8
 71
3
 72
8
 73
4
 74
0
 40
0
 40
0
 40
0
 40
0
 40
1
 40
1
 40
1
 40
1
 10
30842.337607
 20
14972.446660
 30
0.0
 10
30945.235662
 20
14869.548605
 30
0.0
 10
31099.986005
 20
14838.766848
 30
0.0
 10
31234.428793
 20
14894.454874
 30
0.0
  0
SPLINE
  5
309
100
AcDbEntity
  8
0
 62
7
100
AcDbSpline
 70
8
 71
3
 72
8
 73
4
 74
0
 40
0
 40
0
 40
0
 40
0
 40
1
 40
1
 40
1
 40
1
 10
31234.428793
 20
14894.454874
 30
0.0
 10
31368.871581
 20
14950.142901
 30
0.0
 10
31456.530609
 20
15081.333907
 30
0.0
 10
31456.530609
 20
15226.853732
 30
0.0
  0
SPLINE
  5
30a
100
AcDbEntity
  8
0
 62
7
100
AcDbSpline
 70
8
 71
3
 72
8
 73
4
 74
0
 40
0
 40
0
 40
0
 40
0
 40
1
 40
1
 40
1
 40
1
 10
31456.530609
 20
15226.853732
 30
0.0
 10
31456.530609
 20
15322.274894
 30
0.0
 10
31418.624700
 20
15413.787853
 30
0.0
 10
31351.151749
 20
15481.260803
 30
0.0
  0
SPLINE
  5
30b
100
AcDbEntity
  8
0
 62
7
100
AcDbSpline
 70
8
 71
3
 72
8
 73
4
 74
0
 40
0
 40
0
 40
0
 40
0
 40
1
 40
1
 40
1
 40
1
 10
31351.151749
 20
15481.260803
 30
0.0
 10
31283.678799
 20
15548.733754
 30
0.0
 10
31192.165840
 20
15586.639663
 30
0.0
 10
31096.744678
 20
15586.639663
 30
0.0
  0
LWPOLYLINE
  5
30c
100
AcDbEntity
  8
0
 62
7
100
AcDbPolyline
 90
1
 70
1
 10
35514.492726
 20
15017.888772
 30
0.0
  0
SPLINE
  5
30d
100
AcDbEntity
  8
0
 62
7
100
AcDbSpline
 70
8
 71
3
 72
8
 73
4
 74
0
 40
0
 40
0
 40
0
 40
0
 40
1
 40
1
 40
1
 40
1
 10
37306.251113
 20
2434.569382
 30
0.0
 10
37160.731288
 20
2434.569382
 30
0.0
 10
37029.540282
 20
2346.910354
 30
0.0
 10
36973.852256
 20
2212.467566
 30
0.0
  0
SPLINE
  5
30e
100
AcDbEntity
  8
0
 62
7
100
AcDbSpline
 70
8
 71
3
 72
8
 73
4
 74
0
 40
0
 40
0
 40
0
 40
0
 40
1
 40
1
 40
1
 40
1
 10
36973.852256
 20
2212.467566
 30
0.0
 10
36918.164230
 20
2078.024778
 30
0.0
 10
36948.945987
 20
1923.274435
 30
0.0
 10
37051.844042
 20
1820.376380
 30
0.0
  0
SPLINE
  5
30f
100
AcDbEntity
  8
0
 62
7
100
AcDbSpline
 70
8
 71
3
 72
8
 73
4
 74
0
 40
0
 40
0
 40
0
 40
0
 40
1
 40
1
 40
1
 40
1
 10
37051.844042
 20
1820.376380
 30
0.0
 10
37154.742097
 20
1717.478325
 30
0.0
 10
37309.492440
 20
1686.696568
 30
0.0
 10
37443.935228
 20
1742.384594
 30
0.0
  0
SPLINE
  5
310
100
AcDbEntity
  8
0
 62
7
100
AcDbSpline
 70
8
 71
3
 72
8
 73
4
 74
0
 40
0
 40
0
 40
0
 40
0
 40
1
 40
1
 40
1
 40
1
 10
37443.935228
 20
1742.384594
 30
0.0
 10
37578.378016
 20
1798.072620
 30
0.0
 10
37666.037044
 20
1929.263626
 30
0.0
 10
37666.037044
 20
2074.783451
 30
0.0
  0
SPLINE
  5
311
100
AcDbEntity
  8
0
 62
7
100
AcDbSpline
 70
8
 71
3
 72
8
 73
4
 74
0
 40
0
 40
0
 40
0
 40
0
 40
1
 40
1
 40
1
 40
1
 10
37666.037044
 20
2074.783451
 30
0.0
 10
37666.037044
 20
2170.204613
 30
0.0
 10
37628.131135
 20
2261.717572
 30
0.0
 10
37560.658185
 20
2329.190523
 30
0.0
  0
SPLINE
  5
312
100
AcDbEntity
  8
0
 62
7
100
AcDbSpline
 70
8
 71
3
 72
8
 73
4
 74
0
 40
0
 40
0
 40
0
 40
0
 40
1
 40
1
 40
1
 40
1
 10
37560.658185
 20
2329.190523
 30
0.0
 10
37493.185234
 20
2396.663473
 30
0.0
 10
37401.672275
 20
2434.569382
 30
0.0
 10
37306.251113
 20
2434.569382
 30
0.0
  0
LWPOLYLINE
  5
313
100
AcDbEntity
  8
0
 62
7
100
AcDbPolyline
 90
1
 70
1
 10
31096.744678
 20
15586.639663
 30
0.0
  0
SPLINE
  5
314
100
AcDbEntity
  8
0
 62
7
100
AcDbSpline
 70
8
 71
3
 72
8
 73
4
 74
0
 40
0
 40
0
 40
0
 40
0
 40
1
 40
1
 40
1
 40
1
 10
38546.882400
 20
6969.977378
 30
0.0
 10
38401.362575
 20
6969.977378
 30
0.0
 10
38270.171569
 20
6882.318350
 30
0.0
 10
38214.483543
 20
6747.875562
 30
0.0
  0
SPLINE
  5
315
100
AcDbEntity
  8
0
 62
7
100
AcDbSpline
 70
8
 71
3
 72
8
 73
4
 74
0
 40
0
 40
0
 40
0
 40
0
 40
1
 40
1
 40
1
 40
1
 10
38214.483543
 20
6747.875562
 30
0.0
 10
38158.795517
 20
6613.432774
 30
0.0
 10
38189.577274
 20
6458.682431
 30
0.0
 10
38292.475329
 20
6355.784376
 30
0.0
  0
SPLINE
  5
316
100
AcDbEntity
  8
0
 62
7
100
AcDbSpline
 70
8
 71
3
 72
8
 73
4
 74
0
 40
0
 40
0
 40
0
 40
0
 40
1
 40
1
 40
1
 40
1
 10
38292.475329
 20
6355.784376
 30
0.0
 10
38395.373384
 20
6252.886321
 30
0.0
 10
38550.123727
 20
6222.104564
 30
0.0
 10
38684.566515
 20
6277.792590
 30
0.0
  0
SPLINE
  5
317
100
AcDbEntity
  8
0
 62
7
100
AcDbSpline
 70
8
 71
3
 72
8
 73
4
 74
0
 40
0
 40
0
 40
0
 40
0
 40
1
 40
1
 40
1
 40
1
 10
38684.566515
 20
6277.792590
 30
0.0
 10
38819.009303
 20
6333.480616
 30
0.0
 10
38906.668331
 20
6464.671622
 30
0.0
 10
38906.668331
 20
6610.191447
 30
0.0
  0
SPLINE
  5
318
100
AcDbEntity
  8
0
 62
7
100
AcDbSpline
 70
8
 71
3
 72
8
 73
4
 74
0
 40
0
 40
0
 40
0
 40
0
 40
1
 40
1
 40
1
 40
1
 10
38906.668331
 20
6610.191447
 30
0.0
 10
38906.668331
 20
6705.612609
 30
0.0
 10
38868.762422
 20
6797.125568
 30
0.0
 10
38801.289472
 20
6864.598519
 30
0.0
  0
SPLINE
  5
319
100
AcDbEntity
  8
0
 62
7
100
AcDbSpline
 70
8
 71
3
 72
8
 73
4
 74
0
 40
0
 40
0
 40
0
 40
0
 40
1
 40
1
 40
1
 40
1
 10
38801.289472
 20
6864.598519
 30
0.0
 10
38733.816521
 20
6932.071469
 30
0.0
 10
38642.303562
 20
6969.977378
 30
0.0
 10
38546.882400
 20
6969.977378
 30
0.0
  0
LWPOLYLINE
  5
31a
100
AcDbEntity
  8
0
 62
7
100
AcDbPolyline
 90
1
 70
1
 10
37306.251113
 20
2434.569382
 30
0.0
  0
SPLINE
  5
31b
100
AcDbEntity
  8
0
 62
7
100
AcDbSpline
 70
8
 71
3
 72
8
 73
4
 74
0
 40
0
 40
0
 40
0
 40
0
 40
1
 40
1
 40
1
 40
1
 10
39077.107416
 20
3226.229727
 30
0.0
 10
38931.587591
 20
3226.229727
 30
0.0
 10
38800.396585
 20
3138.570699
 30
0.0
 10
38744.708559
 20
3004.127911
 30
0.0
  0
SPLINE
  5
31c
100
AcDbEntity
  8
0
 62
7
100
AcDbSpline
 70
8
 71
3
 72
8
 73
4
 74
0
 40
0
 40
0
 40
0
 40
0
 40
1
 40
1
 40
1
 40
1
 10
38744.708559
 20
3004.127911
 30
0.0
 10
38689.020532
 20
2869.685123
 30
0.0
 10
38719.802290
 20
2714.934780
 30
0.0
 10
38822.700345
 20
2612.036725
 30
0.0
  0
SPLINE
  5
31d
100
AcDbEntity
  8
0
 62
7
100
AcDbSpline
 70
8
 71
3
 72
8
 73
4
 74
0
 40
0
 40
0
 40
0
 40
0
 40
1
 40
1
 40
1
 40
1
 10
38822.700345
 20
2612.036725
 30
0.0
 10
38925.598400
 20
2509.138669
 30
0.0
 10
39080.348743
 20
2478.356912
 30
0.0
 10
39214.791531
 20
2534.044938
 30
0.0
  0
SPLINE
  5
31e
100
AcDbEntity
  8
0
 62
7
100
AcDbSpline
 70
8
 71
3
 72
8
 73
4
 74
0
 40
0
 40
0
 40
0
 40
0
 40
1
 40
1
 40
1
 40
1
 10
39214.791531
 20
2534.044938
 30
0.0
 10
39349.234319
 20
2589.732965
 30
0.0
 10
39436.893347
 20
2720.923971
 30
0.0
 10
39436.893347
 20
2866.443796
 30
0.0
  0
SPLINE
  5
31f
100
AcDbEntity
  8
0
 62
7
100
AcDbSpline
 70
8
 71
3
 72
8
 73
4
 74
0
 40
0
 40
0
 40
0
 40
0
 40
1
 40
1
 40
1
 40
1
 10
39436.893347
 20
2866.443796
 30
0.0
 10
39436.893347
 20
2961.864958
 30
0.0
 10
39398.987438
 20
3053.377917
 30
0.0
 10
39331.514488
 20
3120.850867
 30
0.0
  0
SPLINE
  5
320
100
AcDbEntity
  8
0
 62
7
100
AcDbSpline
 70
8
 71
3
 72
8
 73
4
 74
0
 40
0
 40
0
 40
0
 40
0
 40
1
 40
1
 40
1
 40
1
 10
39331.514488
 20
3120.850867
 30
0.0
 10
39264.041537
 20
3188.323818
 30
0.0
 10
39172.528578
 20
3226.229727
 30
0.0
 10
39077.107416
 20
3226.229727
 30
0.0
  0
LWPOLYLINE
  5
321
100
AcDbEntity
  8
0
 62
7
100
AcDbPolyline
 90
1
 70
1
 10
38546.882400
 20
6969.977378
 30
0.0
  0
SPLINE
  5
322
100
AcDbEntity
  8
0
 62
7
100
AcDbSpline
 70
8
 71
3
 72
8
 73
4
 74
0
 40
0
 40
0
 40
0
 40
0
 40
1
 40
1
 40
1
 40
1
 10
34291.588523
 20
4282.065213
 30
0.0
 10
34133.595235
 20
4282.065213
 30
0.0
 10
33991.158984
 20
4186.892353
 30
0.0
 10
33930.697570
 20
4040.925587
 30
0.0
  0
SPLINE
  5
323
100
AcDbEntity
  8
0
 62
7
100
AcDbSpline
 70
8
 71
3
 72
8
 73
4
 74
0
 40
0
 40
0
 40
0
 40
0
 40
1
 40
1
 40
1
 40
1
 10
33930.697570
 20
4040.925587
 30
0.0
 10
33870.236156
 20
3894.958822
 30
0.0
 10
33903.656420
 20
3726.943808
 30
0.0
 10
34015.374546
 20
3615.225682
 30
0.0
  0
SPLINE
  5
324
100
AcDbEntity
  8
0
 62
7
100
AcDbSpline
 70
8
 71
3
 72
8
 73
4
 74
0
 40
0
 40
0
 40
0
 40
0
 40
1
 40
1
 40
1
 40
1
 10
34015.374546
 20
3615.225682
 30
0.0
 10
34127.092671
 20
3503.507557
 30
0.0
 10
34295.107686
 20
3470.087292
 30
0.0
 10
34441.074451
 20
3530.548706
 30
0.0
  0
SPLINE
  5
325
100
AcDbEntity
  8
0
 62
7
100
AcDbSpline
 70
8
 71
3
 72
8
 73
4
 74
0
 40
0
 40
0
 40
0
 40
0
 40
1
 40
1
 40
1
 40
1
 10
34441.074451
 20
3530.548706
 30
0.0
 10
34587.041216
 20
3591.010120
 30
0.0
 10
34682.214077
 20
3733.446372
 30
0.0
 10
34682.214077
 20
3891.439660
 30
0.0
  0
SPLINE
  5
326
100
AcDbEntity
  8
0
 62
7
100
AcDbSpline
 70
8
 71
3
 72
8
 73
4
 74
0
 40
0
 40
0
 40
0
 40
0
 40
1
 40
1
 40
1
 40
1
 10
34682.214077
 20
3891.439660
 30
0.0
 10
34682.214077
 20
3995.039998
 30
0.0
 10
34641.059003
 20
4094.397136
 30
0.0
 10
34567.802501
 20
4167.653638
 30
0.0
  0
SPLINE
  5
327
100
AcDbEntity
  8
0
 62
7
100
AcDbSpline
 70
8
 71
3
 72
8
 73
4
 74
0
 40
0
 40
0
 40
0
 40
0
 40
1
 40
1
 40
1
 40
1
 10
34567.802501
 20
4167.653638
 30
0.0
 10
34494.545999
 20
4240.910139
 30
0.0
 10
34395.188861
 20
4282.065213
 30
0.0
 10
34291.588523
 20
4282.065213
 30
0.0
  0
LWPOLYLINE
  5
328
100
AcDbEntity
  8
0
 62
7
100
AcDbPolyline
 90
1
 70
1
 10
39077.107416
 20
3226.229727
 30
0.0
  0
SPLINE
  5
329
100
AcDbEntity
  8
0
 62
7
100
AcDbSpline
 70
8
 71
3
 72
8
 73
4
 74
0
 40
0
 40
0
 40
0
 40
0
 40
1
 40
1
 40
1
 40
1
 10
24014.510092
 20
13882.073816
 30
0.0
 10
23856.517125
 20
13882.073816
 30
0.0
 10
23714.081162
 20
13786.901149
 30
0.0
 10
23653.619871
 20
13640.934681
 30
0.0
  0
SPLINE
  5
32a
100
AcDbEntity
  8
0
 62
7
100
AcDbSpline
 70
8
 71
3
 72
8
 73
4
 74
0
 40
0
 40
0
 40
0
 40
0
 40
1
 40
1
 40
1
 40
1
 10
23653.619871
 20
13640.934681
 30
0.0
 10
23593.158580
 20
13494.968212
 30
0.0
 10
23626.578777
 20
13326.953539
 30
0.0
 10
23738.296675
 20
13215.235640
 30
0.0
  0
SPLINE
  5
32b
100
AcDbEntity
  8
0
 62
7
100
AcDbSpline
 70
8
 71
3
 72
8
 73
4
 74
0
 40
0
 40
0
 40
0
 40
0
 40
1
 40
1
 40
1
 40
1
 10
23738.296675
 20
13215.235640
 30
0.0
 10
23850.014574
 20
13103.517742
 30
0.0
 10
24018.029247
 20
13070.097546
 30
0.0
 10
24163.995715
 20
13130.558837
 30
0.0
  0
SPLINE
  5
32c
100
AcDbEntity
  8
0
 62
7
100
AcDbSpline
 70
8
 71
3
 72
8
 73
4
 74
0
 40
0
 40
0
 40
0
 40
0
 40
1
 40
1
 40
1
 40
1
 10
24163.995715
 20
13130.558837
 30
0.0
 10
24309.962184
 20
13191.020127
 30
0.0
 10
24405.134851
 20
13333.456090
 30
0.0
 10
24405.134851
 20
13491.449057
 30
0.0
  0
SPLINE
  5
32d
100
AcDbEntity
  8
0
 62
7
100
AcDbSpline
 70
8
 71
3
 72
8
 73
4
 74
0
 40
0
 40
0
 40
0
 40
0
 40
1
 40
1
 40
1
 40
1
 10
24405.134851
 20
13491.449057
 30
0.0
 10
24405.134851
 20
13595.049184
 30
0.0
 10
24363.979861
 20
13694.406120
 30
0.0
 10
24290.723508
 20
13767.662473
 30
0.0
  0
SPLINE
  5
32e
100
AcDbEntity
  8
0
 62
7
100
AcDbSpline
 70
8
 71
3
 72
8
 73
4
 74
0
 40
0
 40
0
 40
0
 40
0
 40
1
 40
1
 40
1
 40
1
 10
24290.723508
 20
13767.662473
 30
0.0
 10
24217.467155
 20
13840.918826
 30
0.0
 10
24118.110219
 20
13882.073816
 30
0.0
 10
24014.510092
 20
13882.073816
 30
0.0
  0
LWPOLYLINE
  5
32f
100
AcDbEntity
  8
0
 62
7
100
AcDbPolyline
 90
1
 70
1
 10
34291.588523
 20
4282.065213
 30
0.0
  0
SPLINE
  5
330
100
AcDbEntity
  8
0
 62
7
100
AcDbSpline
 70
8
 71
3
 72
8
 73
4
 74
0
 40
0
 40
0
 40
0
 40
0
 40
1
 40
1
 40
1
 40
1
 10
22702.017440
 20
15372.060033
 30
0.0
 10
22556.497615
 20
15372.060033
 30
0.0
 10
22425.306609
 20
15284.401005
 30
0.0
 10
22369.618582
 20
15149.958217
 30
0.0
  0
SPLINE
  5
331
100
AcDbEntity
  8
0
 62
7
100
AcDbSpline
 70
8
 71
3
 72
8
 73
4
 74
0
 40
0
 40
0
 40
0
 40
0
 40
1
 40
1
 40
1
 40
1
 10
22369.618582
 20
15149.958217
 30
0.0
 10
22313.930556
 20
15015.515429
 30
0.0
 10
22344.712313
 20
14860.765086
 30
0.0
 10
22447.610369
 20
14757.867031
 30
0.0
  0
SPLINE
  5
332
100
AcDbEntity
  8
0
 62
7
100
AcDbSpline
 70
8
 71
3
 72
8
 73
4
 74
0
 40
0
 40
0
 40
0
 40
0
 40
1
 40
1
 40
1
 40
1
 10
22447.610369
 20
14757.867031
 30
0.0
 10
22550.508424
 20
14654.968976
 30
0.0
 10
22705.258767
 20
14624.187218
 30
0.0
 10
22839.701555
 20
14679.875245
 30
0.0
  0
SPLINE
  5
333
100
AcDbEntity
  8
0
 62
7
100
AcDbSpline
 70
8
 71
3
 72
8
 73
4
 74
0
 40
0
 40
0
 40
0
 40
0
 40
1
 40
1
 40
1
 40
1
 10
22839.701555
 20
14679.875245
 30
0.0
 10
22974.144343
 20
14735.563271
 30
0.0
 10
23061.803371
 20
14866.754277
 30
0.0
 10
23061.803371
 20
15012.274102
 30
0.0
  0
SPLINE
  5
334
100
AcDbEntity
  8
0
 62
7
100
AcDbSpline
 70
8
 71
3
 72
8
 73
4
 74
0
 40
0
 40
0
 40
0
 40
0
 40
1
 40
1
 40
1
 40
1
 10
23061.803371
 20
15012.274102
 30
0.0
 10
23061.803371
 20
15210.978385
 30
0.0
 10
22900.721723
 20
15372.060033
 30
0.0
 10
22702.017440
 20
15372.060033
 30
0.0
  0
LWPOLYLINE
  5
335
100
AcDbEntity
  8
0
 62
7
100
AcDbPolyline
 90
1
 70
1
 10
24014.510092
 20
13882.073816
 30
0.0
  0
SPLINE
  5
336
100
AcDbEntity
  8
0
 62
7
100
AcDbSpline
 70
8
 71
3
 72
8
 73
4
 74
0
 40
0
 40
0
 40
0
 40
0
 40
1
 40
1
 40
1
 40
1
 10
18347.850091
 20
13777.907355
 30
0.0
 10
18189.857124
 20
13777.907355
 30
0.0
 10
18047.421162
 20
13682.734688
 30
0.0
 10
17986.959871
 20
13536.768219
 30
0.0
  0
SPLINE
  5
337
100
AcDbEntity
  8
0
 62
7
100
AcDbSpline
 70
8
 71
3
 72
8
 73
4
 74
0
 40
0
 40
0
 40
0
 40
0
 40
1
 40
1
 40
1
 40
1
 10
17986.959871
 20
13536.768219
 30
0.0
 10
17926.498580
 20
13390.801750
 30
0.0
 10
17959.918776
 20
13222.787077
 30
0.0
 10
18071.636675
 20
13111.069179
 30
0.0
  0
SPLINE
  5
338
100
AcDbEntity
  8
0
 62
7
100
AcDbSpline
 70
8
 71
3
 72
8
 73
4
 74
0
 40
0
 40
0
 40
0
 40
0
 40
1
 40
1
 40
1
 40
1
 10
18071.636675
 20
13111.069179
 30
0.0
 10
18183.354573
 20
12999.351280
 30
0.0
 10
18351.369246
 20
12965.931084
 30
0.0
 10
18497.335715
 20
13026.392375
 30
0.0
  0
SPLINE
  5
339
100
AcDbEntity
  8
0
 62
7
100
AcDbSpline
 70
8
 71
3
 72
8
 73
4
 74
0
 40
0
 40
0
 40
0
 40
0
 40
1
 40
1
 40
1
 40
1
 10
18497.335715
 20
13026.392375
 30
0.0
 10
18643.302184
 20
13086.853666
 30
0.0
 10
18738.474851
 20
13229.289628
 30
0.0
 10
18738.474851
 20
13387.282595
 30
0.0
  0
SPLINE
  5
33a
100
AcDbEntity
  8
0
 62
7
100
AcDbSpline
 70
8
 71
3
 72
8
 73
4
 74
0
 40
0
 40
0
 40
0
 40
0
 40
1
 40
1
 40
1
 40
1
 10
18738.474851
 20
13387.282595
 30
0.0
 10
18738.474851
 20
13490.882723
 30
0.0
 10
18697.319860
 20
13590.239659
 30
0.0
 10
18624.063508
 20
13663.496012
 30
0.0
  0
SPLINE
  5
33b
100
AcDbEntity
  8
0
 62
7
100
AcDbSpline
 70
8
 71
3
 72
8
 73
4
 74
0
 40
0
 40
0
 40
0
 40
0
 40
1
 40
1
 40
1
 40
1
 10
18624.063508
 20
13663.496012
 30
0.0
 10
18550.807155
 20
13736.752364
 30
0.0
 10
18451.450219
 20
13777.907355
 30
0.0
 10
18347.850091
 20
13777.907355
 30
0.0
  0
LWPOLYLINE
  5
33c
100
AcDbEntity
  8
0
 62
7
100
AcDbPolyline
 90
1
 70
1
 10
22702.017440
 20
15372.060033
 30
0.0
  0
SPLINE
  5
33d
100
AcDbEntity
  8
0
 62
7
100
AcDbSpline
 70
8
 71
3
 72
8
 73
4
 74
0
 40
0
 40
0
 40
0
 40
0
 40
1
 40
1
 40
1
 40
1
 10
16493.675965
 20
15101.232525
 30
0.0
 10
16348.156140
 20
15101.232525
 30
0.0
 10
16216.965134
 20
15013.573497
 30
0.0
 10
16161.277108
 20
14879.130709
 30
0.0
  0
SPLINE
  5
33e
100
AcDbEntity
  8
0
 62
7
100
AcDbSpline
 70
8
 71
3
 72
8
 73
4
 74
0
 40
0
 40
0
 40
0
 40
0
 40
1
 40
1
 40
1
 40
1
 10
16161.277108
 20
14879.130709
 30
0.0
 10
16105.589081
 20
14744.687921
 30
0.0
 10
16136.370839
 20
14589.937578
 30
0.0
 10
16239.268894
 20
14487.039523
 30
0.0
  0
SPLINE
  5
33f
100
AcDbEntity
  8
0
 62
7
100
AcDbSpline
 70
8
 71
3
 72
8
 73
4
 74
0
 40
0
 40
0
 40
0
 40
0
 40
1
 40
1
 40
1
 40
1
 10
16239.268894
 20
14487.039523
 30
0.0
 10
16342.166949
 20
14384.141467
 30
0.0
 10
16496.917292
 20
14353.359710
 30
0.0
 10
16631.360080
 20
14409.047737
 30
0.0
  0
SPLINE
  5
340
100
AcDbEntity
  8
0
 62
7
100
AcDbSpline
 70
8
 71
3
 72
8
 73
4
 74
0
 40
0
 40
0
 40
0
 40
0
 40
1
 40
1
 40
1
 40
1
 10
16631.360080
 20
14409.047737
 30
0.0
 10
16765.802868
 20
14464.735763
 30
0.0
 10
16853.461896
 20
14595.926769
 30
0.0
 10
16853.461896
 20
14741.446594
 30
0.0
  0
SPLINE
  5
341
100
AcDbEntity
  8
0
 62
7
100
AcDbSpline
 70
8
 71
3
 72
8
 73
4
 74
0
 40
0
 40
0
 40
0
 40
0
 40
1
 40
1
 40
1
 40
1
 10
16853.461896
 20
14741.446594
 30
0.0
 10
16853.461896
 20
14940.150877
 30
0.0
 10
16692.380248
 20
15101.232525
 30
0.0
 10
16493.675965
 20
15101.232525
 30
0.0
  0
LWPOLYLINE
  5
342
100
AcDbEntity
  8
0
 62
7
100
AcDbPolyline
 90
1
 70
1
 10
18347.850091
 20
13777.907355
 30
0.0
  0
SPLINE
  5
343
100
AcDbEntity
  8
0
 62
7
100
AcDbSpline
 70
8
 71
3
 72
8
 73
4
 74
0
 40
0
 40
0
 40
0
 40
0
 40
1
 40
1
 40
1
 40
1
 10
11556.179607
 20
14090.406739
 30
0.0
 10
11398.186640
 20
14090.406739
 30
0.0
 10
11255.750678
 20
13995.234072
 30
0.0
 10
11195.289387
 20
13849.267603
 30
0.0
  0
SPLINE
  5
344
100
AcDbEntity
  8
0
 62
7
100
AcDbSpline
 70
8
 71
3
 72
8
 73
4
 74
0
 40
0
 40
0
 40
0
 40
0
 40
1
 40
1
 40
1
 40
1
 10
11195.289387
 20
13849.267603
 30
0.0
 10
11134.828096
 20
13703.301135
 30
0.0
 10
11168.248293
 20
13535.286462
 30
0.0
 10
11279.966191
 20
13423.568563
 30
0.0
  0
SPLINE
  5
345
100
AcDbEntity
  8
0
 62
7
100
AcDbSpline
 70
8
 71
3
 72
8
 73
4
 74
0
 40
0
 40
0
 40
0
 40
0
 40
1
 40
1
 40
1
 40
1
 10
11279.966191
 20
13423.568563
 30
0.0
 10
11391.684089
 20
13311.850665
 30
0.0
 10
11559.698763
 20
13278.430468
 30
0.0
 10
11705.665231
 20
13338.891759
 30
0.0
  0
SPLINE
  5
346
100
AcDbEntity
  8
0
 62
7
100
AcDbSpline
 70
8
 71
3
 72
8
 73
4
 74
0
 40
0
 40
0
 40
0
 40
0
 40
1
 40
1
 40
1
 40
1
 10
11705.665231
 20
13338.891759
 30
0.0
 10
11851.631700
 20
13399.353050
 30
0.0
 10
11946.804367
 20
13541.789013
 30
0.0
 10
11946.804367
 20
13699.781980
 30
0.0
  0
SPLINE
  5
347
100
AcDbEntity
  8
0
 62
7
100
AcDbSpline
 70
8
 71
3
 72
8
 73
4
 74
0
 40
0
 40
0
 40
0
 40
0
 40
1
 40
1
 40
1
 40
1
 10
11946.804367
 20
13699.781980
 30
0.0
 10
11946.804367
 20
13803.382107
 30
0.0
 10
11905.649376
 20
13902.739043
 30
0.0
 10
11832.393024
 20
13975.995396
 30
0.0
  0
SPLINE
  5
348
100
AcDbEntity
  8
0
 62
7
100
AcDbSpline
 70
8
 71
3
 72
8
 73
4
 74
0
 40
0
 40
0
 40
0
 40
0
 40
1
 40
1
 40
1
 40
1
 10
11832.393024
 20
13975.995396
 30
0.0
 10
11759.136671
 20
14049.251749
 30
0.0
 10
11659.779735
 20
14090.406739
 30
0.0
 10
11556.179607
 20
14090.406739
 30
0.0
  0
LWPOLYLINE
  5
349
100
AcDbEntity
  8
0
 62
7
100
AcDbPolyline
 90
1
 70
1
 10
16493.675965
 20
15101.232525
 30
0.0
  0
SPLINE
  5
34a
100
AcDbEntity
  8
0
 62
7
100
AcDbSpline
 70
8
 71
3
 72
8
 73
4
 74
0
 40
0
 40
0
 40
0
 40
0
 40
1
 40
1
 40
1
 40
1
 10
9431.178502
 20
15101.232525
 30
0.0
 10
9285.658677
 20
15101.232525
 30
0.0
 10
9154.467671
 20
15013.573497
 30
0.0
 10
9098.779645
 20
14879.130709
 30
0.0
  0
SPLINE
  5
34b
100
AcDbEntity
  8
0
 62
7
100
AcDbSpline
 70
8
 71
3
 72
8
 73
4
 74
0
 40
0
 40
0
 40
0
 40
0
 40
1
 40
1
 40
1
 40
1
 10
9098.779645
 20
14879.130709
 30
0.0
 10
9043.091619
 20
14744.687921
 30
0.0
 10
9073.873376
 20
14589.937578
 30
0.0
 10
9176.771431
 20
14487.039523
 30
0.0
  0
SPLINE
  5
34c
100
AcDbEntity
  8
0
 62
7
100
AcDbSpline
 70
8
 71
3
 72
8
 73
4
 74
0
 40
0
 40
0
 40
0
 40
0
 40
1
 40
1
 40
1
 40
1
 10
9176.771431
 20
14487.039523
 30
0.0
 10
9279.669486
 20
14384.141467
 30
0.0
 10
9434.419829
 20
14353.359710
 30
0.0
 10
9568.862617
 20
14409.047737
 30
0.0
  0
SPLINE
  5
34d
100
AcDbEntity
  8
0
 62
7
100
AcDbSpline
 70
8
 71
3
 72
8
 73
4
 74
0
 40
0
 40
0
 40
0
 40
0
 40
1
 40
1
 40
1
 40
1
 10
9568.862617
 20
14409.047737
 30
0.0
 10
9703.305405
 20
14464.735763
 30
0.0
 10
9790.964433
 20
14595.926769
 30
0.0
 10
9790.964433
 20
14741.446594
 30
0.0
  0
SPLINE
  5
34e
100
AcDbEntity
  8
0
 62
7
100
AcDbSpline
 70
8
 71
3
 72
8
 73
4
 74
0
 40
0
 40
0
 40
0
 40
0
 40
1
 40
1
 40
1
 40
1
 10
9790.964433
 20
14741.446594
 30
0.0
 10
9790.964433
 20
14836.867756
 30
0.0
 10
9753.058524
 20
14928.380715
 30
0.0
 10
9685.585574
 20
14995.853665
 30
0.0
  0
SPLINE
  5
34f
100
AcDbEntity
  8
0
 62
7
100
AcDbSpline
 70
8
 71
3
 72
8
 73
4
 74
0
 40
0
 40
0
 40
0
 40
0
 40
1
 40
1
 40
1
 40
1
 10
9685.585574
 20
14995.853665
 30
0.0
 10
9618.112623
 20
15063.326616
 30
0.0
 10
9526.599664
 20
15101.232525
 30
0.0
 10
9431.178502
 20
15101.232525
 30
0.0
  0
LWPOLYLINE
  5
350
100
AcDbEntity
  8
0
 62
7
100
AcDbPolyline
 90
1
 70
1
 10
11556.179607
 20
14090.406739
 30
0.0
  0
SPLINE
  5
351
100
AcDbEntity
  8
0
 62
7
100
AcDbSpline
 70
8
 71
3
 72
8
 73
4
 74
0
 40
0
 40
0
 40
0
 40
0
 40
1
 40
1
 40
1
 40
1
 10
25524.937805
 20
15359.042400
 30
0.0
 10
25380.466771
 20
15359.042400
 30
0.0
 10
25250.221284
 20
15272.015149
 30
0.0
 10
25194.934613
 20
15138.541317
 30
0.0
  0
SPLINE
  5
352
100
AcDbEntity
  8
0
 62
7
100
AcDbSpline
 70
8
 71
3
 72
8
 73
4
 74
0
 40
0
 40
0
 40
0
 40
0
 40
1
 40
1
 40
1
 40
1
 10
25194.934613
 20
15138.541317
 30
0.0
 10
25139.647941
 20
15005.067484
 30
0.0
 10
25170.207848
 20
14851.432458
 30
0.0
 10
25272.364297
 20
14749.276010
 30
0.0
  0
SPLINE
  5
353
100
AcDbEntity
  8
0
 62
7
100
AcDbSpline
 70
8
 71
3
 72
8
 73
4
 74
0
 40
0
 40
0
 40
0
 40
0
 40
1
 40
1
 40
1
 40
1
 10
25272.364297
 20
14749.276010
 30
0.0
 10
25374.520745
 20
14647.119561
 30
0.0
 10
25528.155771
 20
14616.559654
 30
0.0
 10
25661.629603
 20
14671.846326
 30
0.0
  0
SPLINE
  5
354
100
AcDbEntity
  8
0
 62
7
100
AcDbSpline
 70
8
 71
3
 72
8
 73
4
 74
0
 40
0
 40
0
 40
0
 40
0
 40
1
 40
1
 40
1
 40
1
 10
25661.629603
 20
14671.846326
 30
0.0
 10
25795.103436
 20
14727.132997
 30
0.0
 10
25882.130687
 20
14857.378484
 30
0.0
 10
25882.130687
 20
15001.849519
 30
0.0
  0
SPLINE
  5
355
100
AcDbEntity
  8
0
 62
7
100
AcDbSpline
 70
8
 71
3
 72
8
 73
4
 74
0
 40
0
 40
0
 40
0
 40
0
 40
1
 40
1
 40
1
 40
1
 10
25882.130687
 20
15001.849519
 30
0.0
 10
25882.130687
 20
15096.582961
 30
0.0
 10
25844.497974
 20
15187.436368
 30
0.0
 10
25777.511314
 20
15254.423027
 30
0.0
  0
SPLINE
  5
356
100
AcDbEntity
  8
0
 62
7
100
AcDbSpline
 70
8
 71
3
 72
8
 73
4
 74
0
 40
0
 40
0
 40
0
 40
0
 40
1
 40
1
 40
1
 40
1
 10
25777.511314
 20
15254.423027
 30
0.0
 10
25710.524655
 20
15321.409687
 30
0.0
 10
25619.671248
 20
15359.042400
 30
0.0
 10
25524.937805
 20
15359.042400
 30
0.0
  0
LWPOLYLINE
  5
357
100
AcDbEntity
  8
0
 62
7
100
AcDbPolyline
 90
1
 70
1
 10
9431.178502
 20
15101.232525
 30
0.0
  0
SPLINE
  5
358
100
AcDbEntity
  8
0
 62
7
100
AcDbSpline
 70
8
 71
3
 72
8
 73
4
 74
0
 40
0
 40
0
 40
0
 40
0
 40
1
 40
1
 40
1
 40
1
 10
20087.431849
 20
15004.871140
 30
0.0
 10
19942.960815
 20
15004.871140
 30
0.0
 10
19812.715328
 20
14917.843888
 30
0.0
 10
19757.428657
 20
14784.370056
 30
0.0
  0
SPLINE
  5
359
100
AcDbEntity
  8
0
 62
7
100
AcDbSpline
 70
8
 71
3
 72
8
 73
4
 74
0
 40
0
 40
0
 40
0
 40
0
 40
1
 40
1
 40
1
 40
1
 10
19757.428657
 20
14784.370056
 30
0.0
 10
19702.141985
 20
14650.896224
 30
0.0
 10
19732.701892
 20
14497.261197
 30
0.0
 10
19834.858341
 20
14395.104749
 30
0.0
  0
SPLINE
  5
35a
100
AcDbEntity
  8
0
 62
7
100
AcDbSpline
 70
8
 71
3
 72
8
 73
4
 74
0
 40
0
 40
0
 40
0
 40
0
 40
1
 40
1
 40
1
 40
1
 10
19834.858341
 20
14395.104749
 30
0.0
 10
19937.014789
 20
14292.948301
 30
0.0
 10
20090.649815
 20
14262.388394
 30
0.0
 10
20224.123647
 20
14317.675065
 30
0.0
  0
SPLINE
  5
35b
100
AcDbEntity
  8
0
 62
7
100
AcDbSpline
 70
8
 71
3
 72
8
 73
4
 74
0
 40
0
 40
0
 40
0
 40
0
 40
1
 40
1
 40
1
 40
1
 10
20224.123647
 20
14317.675065
 30
0.0
 10
20357.597479
 20
14372.961737
 30
0.0
 10
20444.624731
 20
14503.207223
 30
0.0
 10
20444.624731
 20
14647.678258
 30
0.0
  0
SPLINE
  5
35c
100
AcDbEntity
  8
0
 62
7
100
AcDbSpline
 70
8
 71
3
 72
8
 73
4
 74
0
 40
0
 40
0
 40
0
 40
0
 40
1
 40
1
 40
1
 40
1
 10
20444.624731
 20
14647.678258
 30
0.0
 10
20444.624731
 20
14742.411700
 30
0.0
 10
20406.992018
 20
14833.265107
 30
0.0
 10
20340.005358
 20
14900.251767
 30
0.0
  0
SPLINE
  5
35d
100
AcDbEntity
  8
0
 62
7
100
AcDbSpline
 70
8
 71
3
 72
8
 73
4
 74
0
 40
0
 40
0
 40
0
 40
0
 40
1
 40
1
 40
1
 40
1
 10
20340.005358
 20
14900.251767
 30
0.0
 10
20273.018699
 20
14967.238426
 30
0.0
 10
20182.165292
 20
15004.871140
 30
0.0
 10
20087.431849
 20
15004.871140
 30
0.0
  0
LWPOLYLINE
  5
35e
100
AcDbEntity
  8
0
 62
7
100
AcDbPolyline
 90
1
 70
1
 10
25524.937805
 20
15359.042400
 30
0.0
  0
SPLINE
  5
35f
100
AcDbEntity
  8
0
 62
7
100
AcDbSpline
 70
8
 71
3
 72
8
 73
4
 74
0
 40
0
 40
0
 40
0
 40
0
 40
1
 40
1
 40
1
 40
1
 10
13587.412905
 20
15150.709477
 30
0.0
 10
13442.941871
 20
15150.709477
 30
0.0
 10
13312.696384
 20
15063.682226
 30
0.0
 10
13257.409713
 20
14930.208394
 30
0.0
  0
SPLINE
  5
360
100
AcDbEntity
  8
0
 62
7
100
AcDbSpline
 70
8
 71
3
 72
8
 73
4
 74
0
 40
0
 40
0
 40
0
 40
0
 40
1
 40
1
 40
1
 40
1
 10
13257.409713
 20
14930.208394
 30
0.0
 10
13202.123041
 20
14796.734562
 30
0.0
 10
13232.682948
 20
14643.099535
 30
0.0
 10
13334.839397
 20
14540.943087
 30
0.0
  0
SPLINE
  5
361
100
AcDbEntity
  8
0
 62
7
100
AcDbSpline
 70
8
 71
3
 72
8
 73
4
 74
0
 40
0
 40
0
 40
0
 40
0
 40
1
 40
1
 40
1
 40
1
 10
13334.839397
 20
14540.943087
 30
0.0
 10
13436.995845
 20
14438.786638
 30
0.0
 10
13590.630871
 20
14408.226732
 30
0.0
 10
13724.104703
 20
14463.513403
 30
0.0
  0
SPLINE
  5
362
100
AcDbEntity
  8
0
 62
7
100
AcDbSpline
 70
8
 71
3
 72
8
 73
4
 74
0
 40
0
 40
0
 40
0
 40
0
 40
1
 40
1
 40
1
 40
1
 10
13724.104703
 20
14463.513403
 30
0.0
 10
13857.578536
 20
14518.800075
 30
0.0
 10
13944.605787
 20
14649.045561
 30
0.0
 10
13944.605787
 20
14793.516596
 30
0.0
  0
SPLINE
  5
363
100
AcDbEntity
  8
0
 62
7
100
AcDbSpline
 70
8
 71
3
 72
8
 73
4
 74
0
 40
0
 40
0
 40
0
 40
0
 40
1
 40
1
 40
1
 40
1
 10
13944.605787
 20
14793.516596
 30
0.0
 10
13944.605787
 20
14888.250038
 30
0.0
 10
13906.973074
 20
14979.103445
 30
0.0
 10
13839.986414
 20
15046.090104
 30
0.0
  0
SPLINE
  5
364
100
AcDbEntity
  8
0
 62
7
100
AcDbSpline
 70
8
 71
3
 72
8
 73
4
 74
0
 40
0
 40
0
 40
0
 40
0
 40
1
 40
1
 40
1
 40
1
 10
13839.986414
 20
15046.090104
 30
0.0
 10
13772.999755
 20
15113.076764
 30
0.0
 10
13682.146348
 20
15150.709477
 30
0.0
 10
13587.412905
 20
15150.709477
 30
0.0
  0
LWPOLYLINE
  5
365
100
AcDbEntity
  8
0
 62
7
100
AcDbPolyline
 90
1
 70
1
 10
20087.431849
 20
15004.871140
 30
0.0
  0
SPLINE
  5
366
100
AcDbEntity
  8
0
 62
7
100
AcDbSpline
 70
8
 71
3
 72
8
 73
4
 74
0
 40
0
 40
0
 40
0
 40
0
 40
1
 40
1
 40
1
 40
1
 10
25441.594053
 20
10504.890589
 30
0.0
 10
25244.321872
 20
10504.890589
 30
0.0
 10
25084.401171
 20
10344.969888
 30
0.0
 10
25084.401171
 20
10147.697707
 30
0.0
  0
SPLINE
  5
367
100
AcDbEntity
  8
0
 62
7
100
AcDbSpline
 70
8
 71
3
 72
8
 73
4
 74
0
 40
0
 40
0
 40
0
 40
0
 40
1
 40
1
 40
1
 40
1
 10
25084.401171
 20
10147.697707
 30
0.0
 10
25084.401171
 20
9950.425526
 30
0.0
 10
25244.321872
 20
9790.504825
 30
0.0
 10
25441.594053
 20
9790.504825
 30
0.0
  0
SPLINE
  5
368
100
AcDbEntity
  8
0
 62
7
100
AcDbSpline
 70
8
 71
3
 72
8
 73
4
 74
0
 40
0
 40
0
 40
0
 40
0
 40
1
 40
1
 40
1
 40
1
 10
25441.594053
 20
9790.504825
 30
0.0
 10
25638.866234
 20
9790.504825
 30
0.0
 10
25798.786935
 20
9950.425526
 30
0.0
 10
25798.786935
 20
10147.697707
 30
0.0
  0
SPLINE
  5
369
100
AcDbEntity
  8
0
 62
7
100
AcDbSpline
 70
8
 71
3
 72
8
 73
4
 74
0
 40
0
 40
0
 40
0
 40
0
 40
1
 40
1
 40
1
 40
1
 10
25798.786935
 20
10147.697707
 30
0.0
 10
25798.786935
 20
10242.431149
 30
0.0
 10
25761.154221
 20
10333.284556
 30
0.0
 10
25694.167562
 20
10400.271216
 30
0.0
  0
SPLINE
  5
36a
100
AcDbEntity
  8
0
 62
7
100
AcDbSpline
 70
8
 71
3
 72
8
 73
4
 74
0
 40
0
 40
0
 40
0
 40
0
 40
1
 40
1
 40
1
 40
1
 10
25694.167562
 20
10400.271216
 30
0.0
 10
25627.180902
 20
10467.257875
 30
0.0
 10
25536.327495
 20
10504.890589
 30
0.0
 10
25441.594053
 20
10504.890589
 30
0.0
  0
LWPOLYLINE
  5
36b
100
AcDbEntity
  8
0
 62
7
100
AcDbPolyline
 90
1
 70
1
 10
13587.412905
 20
15150.709477
 30
0.0
  0
SPLINE
  5
36c
100
AcDbEntity
  8
0
 62
7
100
AcDbSpline
 70
8
 71
3
 72
8
 73
4
 74
0
 40
0
 40
0
 40
0
 40
0
 40
1
 40
1
 40
1
 40
1
 10
24004.086037
 20
1671.538146
 30
0.0
 10
23859.615002
 20
1671.538146
 30
0.0
 10
23729.369516
 20
1584.510894
 30
0.0
 10
23674.082845
 20
1451.037062
 30
0.0
  0
SPLINE
  5
36d
100
AcDbEntity
  8
0
 62
7
100
AcDbSpline
 70
8
 71
3
 72
8
 73
4
 74
0
 40
0
 40
0
 40
0
 40
0
 40
1
 40
1
 40
1
 40
1
 10
23674.082845
 20
1451.037062
 30
0.0
 10
23618.796173
 20
1317.563230
 30
0.0
 10
23649.356080
 20
1163.928204
 30
0.0
 10
23751.512528
 20
1061.771755
 30
0.0
  0
SPLINE
  5
36e
100
AcDbEntity
  8
0
 62
7
100
AcDbSpline
 70
8
 71
3
 72
8
 73
4
 74
0
 40
0
 40
0
 40
0
 40
0
 40
1
 40
1
 40
1
 40
1
 10
23751.512528
 20
1061.771755
 30
0.0
 10
23853.668977
 20
959.615307
 30
0.0
 10
24007.304003
 20
929.055400
 30
0.0
 10
24140.777835
 20
984.342072
 30
0.0
  0
SPLINE
  5
36f
100
AcDbEntity
  8
0
 62
7
100
AcDbSpline
 70
8
 71
3
 72
8
 73
4
 74
0
 40
0
 40
0
 40
0
 40
0
 40
1
 40
1
 40
1
 40
1
 10
24140.777835
 20
984.342072
 30
0.0
 10
24274.251667
 20
1039.628743
 30
0.0
 10
24361.278919
 20
1169.874229
 30
0.0
 10
24361.278919
 20
1314.345264
 30
0.0
  0
SPLINE
  5
370
100
AcDbEntity
  8
0
 62
7
100
AcDbSpline
 70
8
 71
3
 72
8
 73
4
 74
0
 40
0
 40
0
 40
0
 40
0
 40
1
 40
1
 40
1
 40
1
 10
24361.278919
 20
1314.345264
 30
0.0
 10
24361.278919
 20
1409.078707
 30
0.0
 10
24323.646205
 20
1499.932114
 30
0.0
 10
24256.659546
 20
1566.918773
 30
0.0
  0
SPLINE
  5
371
100
AcDbEntity
  8
0
 62
7
100
AcDbSpline
 70
8
 71
3
 72
8
 73
4
 74
0
 40
0
 40
0
 40
0
 40
0
 40
1
 40
1
 40
1
 40
1
 10
24256.659546
 20
1566.918773
 30
0.0
 10
24189.672887
 20
1633.905433
 30
0.0
 10
24098.819479
 20
1671.538146
 30
0.0
 10
24004.086037
 20
1671.538146
 30
0.0
  0
LWPOLYLINE
  5
372
100
AcDbEntity
  8
0
 62
7
100
AcDbPolyline
 90
1
 70
1
 10
25441.594053
 20
10504.890589
 30
0.0
  0
SPLINE
  5
373
100
AcDbEntity
  8
0
 62
7
100
AcDbSpline
 70
8
 71
3
 72
8
 73
4
 74
0
 40
0
 40
0
 40
0
 40
0
 40
1
 40
1
 40
1
 40
1
 10
18045.747509
 20
1629.891934
 30
0.0
 10
17901.276475
 20
1629.891934
 30
0.0
 10
17771.030988
 20
1542.864683
 30
0.0
 10
17715.744317
 20
1409.390851
 30
0.0
  0
SPLINE
  5
374
100
AcDbEntity
  8
0
 62
7
100
AcDbSpline
 70
8
 71
3
 72
8
 73
4
 74
0
 40
0
 40
0
 40
0
 40
0
 40
1
 40
1
 40
1
 40
1
 10
17715.744317
 20
1409.390851
 30
0.0
 10
17660.457645
 20
1275.917018
 30
0.0
 10
17691.017552
 20
1122.281992
 30
0.0
 10
17793.174001
 20
1020.125544
 30
0.0
  0
SPLINE
  5
375
100
AcDbEntity
  8
0
 62
7
100
AcDbSpline
 70
8
 71
3
 72
8
 73
4
 74
0
 40
0
 40
0
 40
0
 40
0
 40
1
 40
1
 40
1
 40
1
 10
17793.174001
 20
1020.125544
 30
0.0
 10
17895.330449
 20
917.969095
 30
0.0
 10
18048.965475
 20
887.409189
 30
0.0
 10
18182.439307
 20
942.695860
 30
0.0
  0
SPLINE
  5
376
100
AcDbEntity
  8
0
 62
7
100
AcDbSpline
 70
8
 71
3
 72
8
 73
4
 74
0
 40
0
 40
0
 40
0
 40
0
 40
1
 40
1
 40
1
 40
1
 10
18182.439307
 20
942.695860
 30
0.0
 10
18315.913139
 20
997.982531
 30
0.0
 10
18402.940391
 20
1128.228018
 30
0.0
 10
18402.940391
 20
1272.699053
 30
0.0
  0
SPLINE
  5
377
100
AcDbEntity
  8
0
 62
7
100
AcDbSpline
 70
8
 71
3
 72
8
 73
4
 74
0
 40
0
 40
0
 40
0
 40
0
 40
1
 40
1
 40
1
 40
1
 10
18402.940391
 20
1272.699053
 30
0.0
 10
18402.940391
 20
1367.432495
 30
0.0
 10
18365.307678
 20
1458.285902
 30
0.0
 10
18298.321018
 20
1525.272561
 30
0.0
  0
SPLINE
  5
378
100
AcDbEntity
  8
0
 62
7
100
AcDbSpline
 70
8
 71
3
 72
8
 73
4
 74
0
 40
0
 40
0
 40
0
 40
0
 40
1
 40
1
 40
1
 40
1
 10
18298.321018
 20
1525.272561
 30
0.0
 10
18231.334359
 20
1592.259221
 30
0.0
 10
18140.480952
 20
1629.891934
 30
0.0
 10
18045.747509
 20
1629.891934
 30
0.0
  0
LWPOLYLINE
  5
379
100
AcDbEntity
  8
0
 62
7
100
AcDbPolyline
 90
1
 70
1
 10
24004.086037
 20
1671.538146
 30
0.0
  0
SPLINE
  5
37a
100
AcDbEntity
  8
0
 62
7
100
AcDbSpline
 70
8
 71
3
 72
8
 73
4
 74
0
 40
0
 40
0
 40
0
 40
0
 40
1
 40
1
 40
1
 40
1
 10
14608.255076
 20
11296.550404
 30
0.0
 10
14463.784041
 20
11296.550404
 30
0.0
 10
14333.538554
 20
11209.523152
 30
0.0
 10
14278.251883
 20
11076.049320
 30
0.0
  0
SPLINE
  5
37b
100
AcDbEntity
  8
0
 62
7
100
AcDbSpline
 70
8
 71
3
 72
8
 73
4
 74
0
 40
0
 40
0
 40
0
 40
0
 40
1
 40
1
 40
1
 40
1
 10
14278.251883
 20
11076.049320
 30
0.0
 10
14222.965211
 20
10942.575488
 30
0.0
 10
14253.525118
 20
10788.940462
 30
0.0
 10
14355.681567
 20
10686.784013
 30
0.0
  0
SPLINE
  5
37c
100
AcDbEntity
  8
0
 62
7
100
AcDbSpline
 70
8
 71
3
 72
8
 73
4
 74
0
 40
0
 40
0
 40
0
 40
0
 40
1
 40
1
 40
1
 40
1
 10
14355.681567
 20
10686.784013
 30
0.0
 10
14457.838015
 20
10584.627565
 30
0.0
 10
14611.473041
 20
10554.067658
 30
0.0
 10
14744.946874
 20
10609.354330
 30
0.0
  0
SPLINE
  5
37d
100
AcDbEntity
  8
0
 62
7
100
AcDbSpline
 70
8
 71
3
 72
8
 73
4
 74
0
 40
0
 40
0
 40
0
 40
0
 40
1
 40
1
 40
1
 40
1
 10
14744.946874
 20
10609.354330
 30
0.0
 10
14878.420706
 20
10664.641001
 30
0.0
 10
14965.447957
 20
10794.886488
 30
0.0
 10
14965.447957
 20
10939.357522
 30
0.0
  0
SPLINE
  5
37e
100
AcDbEntity
  8
0
 62
7
100
AcDbSpline
 70
8
 71
3
 72
8
 73
4
 74
0
 40
0
 40
0
 40
0
 40
0
 40
1
 40
1
 40
1
 40
1
 10
14965.447957
 20
10939.357522
 30
0.0
 10
14965.447957
 20
11136.629704
 30
0.0
 10
14805.527257
 20
11296.550404
 30
0.0
 10
14608.255076
 20
11296.550404
 30
0.0
  0
LWPOLYLINE
  5
37f
100
AcDbEntity
  8
0
 62
7
100
AcDbPolyline
 90
1
 70
1
 10
18045.747509
 20
1629.891934
 30
0.0
  0
SPLINE
  5
380
100
AcDbEntity
  8
0
 62
7
100
AcDbSpline
 70
8
 71
3
 72
8
 73
4
 74
0
 40
0
 40
0
 40
0
 40
0
 40
1
 40
1
 40
1
 40
1
 10
4483.258884
 20
10588.207883
 30
0.0
 10
4338.787849
 20
10588.207883
 30
0.0
 10
4208.542363
 20
10501.180631
 30
0.0
 10
4153.255691
 20
10367.706799
 30
0.0
  0
SPLINE
  5
381
100
AcDbEntity
  8
0
 62
7
100
AcDbSpline
 70
8
 71
3
 72
8
 73
4
 74
0
 40
0
 40
0
 40
0
 40
0
 40
1
 40
1
 40
1
 40
1
 10
4153.255691
 20
10367.706799
 30
0.0
 10
4097.969020
 20
10234.232967
 30
0.0
 10
4128.528927
 20
10080.597941
 30
0.0
 10
4230.685375
 20
9978.441492
 30
0.0
  0
SPLINE
  5
382
100
AcDbEntity
  8
0
 62
7
100
AcDbSpline
 70
8
 71
3
 72
8
 73
4
 74
0
 40
0
 40
0
 40
0
 40
0
 40
1
 40
1
 40
1
 40
1
 10
4230.685375
 20
9978.441492
 30
0.0
 10
4332.841823
 20
9876.285044
 30
0.0
 10
4486.476850
 20
9845.725137
 30
0.0
 10
4619.950682
 20
9901.011809
 30
0.0
  0
SPLINE
  5
383
100
AcDbEntity
  8
0
 62
7
100
AcDbSpline
 70
8
 71
3
 72
8
 73
4
 74
0
 40
0
 40
0
 40
0
 40
0
 40
1
 40
1
 40
1
 40
1
 10
4619.950682
 20
9901.011809
 30
0.0
 10
4753.424514
 20
9956.298480
 30
0.0
 10
4840.451765
 20
10086.543966
 30
0.0
 10
4840.451765
 20
10231.015001
 30
0.0
  0
SPLINE
  5
384
100
AcDbEntity
  8
0
 62
7
100
AcDbSpline
 70
8
 71
3
 72
8
 73
4
 74
0
 40
0
 40
0
 40
0
 40
0
 40
1
 40
1
 40
1
 40
1
 10
4840.451765
 20
10231.015001
 30
0.0
 10
4840.451765
 20
10325.748443
 30
0.0
 10
4802.819052
 20
10416.601851
 30
0.0
 10
4735.832393
 20
10483.588510
 30
0.0
  0
SPLINE
  5
385
100
AcDbEntity
  8
0
 62
7
100
AcDbSpline
 70
8
 71
3
 72
8
 73
4
 74
0
 40
0
 40
0
 40
0
 40
0
 40
1
 40
1
 40
1
 40
1
 10
4735.832393
 20
10483.588510
 30
0.0
 10
4668.845733
 20
10550.575169
 30
0.0
 10
4577.992326
 20
10588.207883
 30
0.0
 10
4483.258884
 20
10588.207883
 30
0.0
  0
LWPOLYLINE
  5
386
100
AcDbEntity
  8
0
 62
7
100
AcDbPolyline
 90
1
 70
1
 10
14608.255076
 20
11296.550404
 30
0.0
  0
SPLINE
  5
387
100
AcDbEntity
  8
0
 62
7
100
AcDbSpline
 70
8
 71
3
 72
8
 73
4
 74
0
 40
0
 40
0
 40
0
 40
0
 40
1
 40
1
 40
1
 40
1
 10
22045.772437
 20
13442.374483
 30
0.0
 10
21901.301402
 20
13442.374483
 30
0.0
 10
21771.055916
 20
13355.347231
 30
0.0
 10
21715.769244
 20
13221.873399
 30
0.0
  0
SPLINE
  5
388
100
AcDbEntity
  8
0
 62
7
100
AcDbSpline
 70
8
 71
3
 72
8
 73
4
 74
0
 40
0
 40
0
 40
0
 40
0
 40
1
 40
1
 40
1
 40
1
 10
21715.769244
 20
13221.873399
 30
0.0
 10
21660.482573
 20
13088.399567
 30
0.0
 10
21691.042480
 20
12934.764540
 30
0.0
 10
21793.198928
 20
12832.608092
 30
0.0
  0
SPLINE
  5
389
100
AcDbEntity
  8
0
 62
7
100
AcDbSpline
 70
8
 71
3
 72
8
 73
4
 74
0
 40
0
 40
0
 40
0
 40
0
 40
1
 40
1
 40
1
 40
1
 10
21793.198928
 20
12832.608092
 30
0.0
 10
21895.355377
 20
12730.451644
 30
0.0
 10
22048.990403
 20
12699.891737
 30
0.0
 10
22182.464235
 20
12755.178408
 30
0.0
  0
SPLINE
  5
38a
100
AcDbEntity
  8
0
 62
7
100
AcDbSpline
 70
8
 71
3
 72
8
 73
4
 74
0
 40
0
 40
0
 40
0
 40
0
 40
1
 40
1
 40
1
 40
1
 10
22182.464235
 20
12755.178408
 30
0.0
 10
22315.938067
 20
12810.465080
 30
0.0
 10
22402.965319
 20
12940.710566
 30
0.0
 10
22402.965319
 20
13085.181601
 30
0.0
  0
SPLINE
  5
38b
100
AcDbEntity
  8
0
 62
7
100
AcDbSpline
 70
8
 71
3
 72
8
 73
4
 74
0
 40
0
 40
0
 40
0
 40
0
 40
1
 40
1
 40
1
 40
1
 10
22402.965319
 20
13085.181601
 30
0.0
 10
22402.965319
 20
13179.915043
 30
0.0
 10
22365.332605
 20
13270.768450
 30
0.0
 10
22298.345946
 20
13337.755110
 30
0.0
  0
SPLINE
  5
38c
100
AcDbEntity
  8
0
 62
7
100
AcDbSpline
 70
8
 71
3
 72
8
 73
4
 74
0
 40
0
 40
0
 40
0
 40
0
 40
1
 40
1
 40
1
 40
1
 10
22298.345946
 20
13337.755110
 30
0.0
 10
22231.359286
 20
13404.741769
 30
0.0
 10
22140.505879
 20
13442.374483
 30
0.0
 10
22045.772437
 20
13442.374483
 30
0.0
  0
LWPOLYLINE
  5
38d
100
AcDbEntity
  8
0
 62
7
100
AcDbPolyline
 90
1
 70
1
 10
4483.258884
 20
10588.207883
 30
0.0
  0
SPLINE
  5
38e
100
AcDbEntity
  8
0
 62
7
100
AcDbSpline
 70
8
 71
3
 72
8
 73
4
 74
0
 40
0
 40
0
 40
0
 40
0
 40
1
 40
1
 40
1
 40
1
 10
15337.419776
 20
13109.052125
 30
0.0
 10
15192.948742
 20
13109.052125
 30
0.0
 10
15062.703255
 20
13022.024873
 30
0.0
 10
15007.416584
 20
12888.551041
 30
0.0
  0
SPLINE
  5
38f
100
AcDbEntity
  8
0
 62
7
100
AcDbSpline
 70
8
 71
3
 72
8
 73
4
 74
0
 40
0
 40
0
 40
0
 40
0
 40
1
 40
1
 40
1
 40
1
 10
15007.416584
 20
12888.551041
 30
0.0
 10
14952.129912
 20
12755.077209
 30
0.0
 10
14982.689819
 20
12601.442183
 30
0.0
 10
15084.846268
 20
12499.285734
 30
0.0
  0
SPLINE
  5
390
100
AcDbEntity
  8
0
 62
7
100
AcDbSpline
 70
8
 71
3
 72
8
 73
4
 74
0
 40
0
 40
0
 40
0
 40
0
 40
1
 40
1
 40
1
 40
1
 10
15084.846268
 20
12499.285734
 30
0.0
 10
15187.002716
 20
12397.129286
 30
0.0
 10
15340.637742
 20
12366.569379
 30
0.0
 10
15474.111574
 20
12421.856050
 30
0.0
  0
SPLINE
  5
391
100
AcDbEntity
  8
0
 62
7
100
AcDbSpline
 70
8
 71
3
 72
8
 73
4
 74
0
 40
0
 40
0
 40
0
 40
0
 40
1
 40
1
 40
1
 40
1
 10
15474.111574
 20
12421.856050
 30
0.0
 10
15607.585406
 20
12477.142722
 30
0.0
 10
15694.612658
 20
12607.388208
 30
0.0
 10
15694.612658
 20
12751.859243
 30
0.0
  0
SPLINE
  5
392
100
AcDbEntity
  8
0
 62
7
100
AcDbSpline
 70
8
 71
3
 72
8
 73
4
 74
0
 40
0
 40
0
 40
0
 40
0
 40
1
 40
1
 40
1
 40
1
 10
15694.612658
 20
12751.859243
 30
0.0
 10
15694.612658
 20
12846.592685
 30
0.0
 10
15656.979945
 20
12937.446092
 30
0.0
 10
15589.993285
 20
13004.432752
 30
0.0
  0
SPLINE
  5
393
100
AcDbEntity
  8
0
 62
7
100
AcDbSpline
 70
8
 71
3
 72
8
 73
4
 74
0
 40
0
 40
0
 40
0
 40
0
 40
1
 40
1
 40
1
 40
1
 10
15589.993285
 20
13004.432752
 30
0.0
 10
15523.006626
 20
13071.419411
 30
0.0
 10
15432.153219
 20
13109.052125
 30
0.0
 10
15337.419776
 20
13109.052125
 30
0.0
  0
LWPOLYLINE
  5
394
100
AcDbEntity
  8
0
 62
7
100
AcDbPolyline
 90
1
 70
1
 10
22045.772437
 20
13442.374483
 30
0.0
  0
SPLINE
  5
395
100
AcDbEntity
  8
0
 62
7
100
AcDbSpline
 70
8
 71
3
 72
8
 73
4
 74
0
 40
0
 40
0
 40
0
 40
0
 40
1
 40
1
 40
1
 40
1
 10
9045.760214
 20
12879.870299
 30
0.0
 10
8901.289179
 20
12879.870299
 30
0.0
 10
8771.043693
 20
12792.843047
 30
0.0
 10
8715.757021
 20
12659.369215
 30
0.0
  0
SPLINE
  5
396
100
AcDbEntity
  8
0
 62
7
100
AcDbSpline
 70
8
 71
3
 72
8
 73
4
 74
0
 40
0
 40
0
 40
0
 40
0
 40
1
 40
1
 40
1
 40
1
 10
8715.757021
 20
12659.369215
 30
0.0
 10
8660.470350
 20
12525.895383
 30
0.0
 10
8691.030256
 20
12372.260357
 30
0.0
 10
8793.186705
 20
12270.103909
 30
0.0
  0
SPLINE
  5
397
100
AcDbEntity
  8
0
 62
7
100
AcDbSpline
 70
8
 71
3
 72
8
 73
4
 74
0
 40
0
 40
0
 40
0
 40
0
 40
1
 40
1
 40
1
 40
1
 10
8793.186705
 20
12270.103909
 30
0.0
 10
8895.343153
 20
12167.947460
 30
0.0
 10
9048.978180
 20
12137.387553
 30
0.0
 10
9182.452012
 20
12192.674225
 30
0.0
  0
SPLINE
  5
398
100
AcDbEntity
  8
0
 62
7
100
AcDbSpline
 70
8
 71
3
 72
8
 73
4
 74
0
 40
0
 40
0
 40
0
 40
0
 40
1
 40
1
 40
1
 40
1
 10
9182.452012
 20
12192.674225
 30
0.0
 10
9315.925844
 20
12247.960896
 30
0.0
 10
9402.953095
 20
12378.206383
 30
0.0
 10
9402.953095
 20
12522.677417
 30
0.0
  0
SPLINE
  5
399
100
AcDbEntity
  8
0
 62
7
100
AcDbSpline
 70
8
 71
3
 72
8
 73
4
 74
0
 40
0
 40
0
 40
0
 40
0
 40
1
 40
1
 40
1
 40
1
 10
9402.953095
 20
12522.677417
 30
0.0
 10
9402.953095
 20
12617.410860
 30
0.0
 10
9365.320382
 20
12708.264267
 30
0.0
 10
9298.333723
 20
12775.250926
 30
0.0
  0
SPLINE
  5
39a
100
AcDbEntity
  8
0
 62
7
100
AcDbSpline
 70
8
 71
3
 72
8
 73
4
 74
0
 40
0
 40
0
 40
0
 40
0
 40
1
 40
1
 40
1
 40
1
 10
9298.333723
 20
12775.250926
 30
0.0
 10
9231.347063
 20
12842.237586
 30
0.0
 10
9140.493656
 20
12879.870299
 30
0.0
 10
9045.760214
 20
12879.870299
 30
0.0
  0
LWPOLYLINE
  5
39b
100
AcDbEntity
  8
0
 62
7
100
AcDbPolyline
 90
1
 70
1
 10
15337.419776
 20
13109.052125
 30
0.0
  0
SPLINE
  5
39c
100
AcDbEntity
  8
0
 62
7
100
AcDbSpline
 70
8
 71
3
 72
8
 73
4
 74
0
 40
0
 40
0
 40
0
 40
0
 40
1
 40
1
 40
1
 40
1
 10
28062.502921
 20
1534.060113
 30
0.0
 10
27918.031886
 20
1534.060113
 30
0.0
 10
27787.786400
 20
1447.032861
 30
0.0
 10
27732.499728
 20
1313.559029
 30
0.0
  0
SPLINE
  5
39d
100
AcDbEntity
  8
0
 62
7
100
AcDbSpline
 70
8
 71
3
 72
8
 73
4
 74
0
 40
0
 40
0
 40
0
 40
0
 40
1
 40
1
 40
1
 40
1
 10
27732.499728
 20
1313.559029
 30
0.0
 10
27677.213057
 20
1180.085197
 30
0.0
 10
27707.772964
 20
1026.450170
 30
0.0
 10
27809.929412
 20
924.293722
 30
0.0
  0
SPLINE
  5
39e
100
AcDbEntity
  8
0
 62
7
100
AcDbSpline
 70
8
 71
3
 72
8
 73
4
 74
0
 40
0
 40
0
 40
0
 40
0
 40
1
 40
1
 40
1
 40
1
 10
27809.929412
 20
924.293722
 30
0.0
 10
27912.085860
 20
822.137274
 30
0.0
 10
28065.720887
 20
791.577367
 30
0.0
 10
28199.194719
 20
846.864038
 30
0.0
  0
SPLINE
  5
39f
100
AcDbEntity
  8
0
 62
7
100
AcDbSpline
 70
8
 71
3
 72
8
 73
4
 74
0
 40
0
 40
0
 40
0
 40
0
 40
1
 40
1
 40
1
 40
1
 10
28199.194719
 20
846.864038
 30
0.0
 10
28332.668551
 20
902.150710
 30
0.0
 10
28419.695802
 20
1032.396196
 30
0.0
 10
28419.695802
 20
1176.867231
 30
0.0
  0
SPLINE
  5
3a0
100
AcDbEntity
  8
0
 62
7
100
AcDbSpline
 70
8
 71
3
 72
8
 73
4
 74
0
 40
0
 40
0
 40
0
 40
0
 40
1
 40
1
 40
1
 40
1
 10
28419.695802
 20
1176.867231
 30
0.0
 10
28419.695802
 20
1271.600673
 30
0.0
 10
28382.063089
 20
1362.454080
 30
0.0
 10
28315.076430
 20
1429.440740
 30
0.0
  0
SPLINE
  5
3a1
100
AcDbEntity
  8
0
 62
7
100
AcDbSpline
 70
8
 71
3
 72
8
 73
4
 74
0
 40
0
 40
0
 40
0
 40
0
 40
1
 40
1
 40
1
 40
1
 10
28315.076430
 20
1429.440740
 30
0.0
 10
28248.089770
 20
1496.427399
 30
0.0
 10
28157.236363
 20
1534.060113
 30
0.0
 10
28062.502921
 20
1534.060113
 30
0.0
  0
LWPOLYLINE
  5
3a2
100
AcDbEntity
  8
0
 62
7
100
AcDbPolyline
 90
1
 70
1
 10
9045.760214
 20
12879.870299
 30
0.0
  0
SPLINE
  5
3a3
100
AcDbEntity
  8
0
 62
7
100
AcDbSpline
 70
8
 71
3
 72
8
 73
4
 74
0
 40
0
 40
0
 40
0
 40
0
 40
1
 40
1
 40
1
 40
1
 10
20983.257332
 20
7421.541634
 30
0.0
 10
20838.786298
 20
7421.541634
 30
0.0
 10
20708.540811
 20
7334.514383
 30
0.0
 10
20653.254140
 20
7201.040550
 30
0.0
  0
SPLINE
  5
3a4
100
AcDbEntity
  8
0
 62
7
100
AcDbSpline
 70
8
 71
3
 72
8
 73
4
 74
0
 40
0
 40
0
 40
0
 40
0
 40
1
 40
1
 40
1
 40
1
 10
20653.254140
 20
7201.040550
 30
0.0
 10
20597.967468
 20
7067.566718
 30
0.0
 10
20628.527375
 20
6913.931692
 30
0.0
 10
20730.683824
 20
6811.775244
 30
0.0
  0
SPLINE
  5
3a5
100
AcDbEntity
  8
0
 62
7
100
AcDbSpline
 70
8
 71
3
 72
8
 73
4
 74
0
 40
0
 40
0
 40
0
 40
0
 40
1
 40
1
 40
1
 40
1
 10
20730.683824
 20
6811.775244
 30
0.0
 10
20832.840272
 20
6709.618795
 30
0.0
 10
20986.475298
 20
6679.058888
 30
0.0
 10
21119.949130
 20
6734.345560
 30
0.0
  0
SPLINE
  5
3a6
100
AcDbEntity
  8
0
 62
7
100
AcDbSpline
 70
8
 71
3
 72
8
 73
4
 74
0
 40
0
 40
0
 40
0
 40
0
 40
1
 40
1
 40
1
 40
1
 10
21119.949130
 20
6734.345560
 30
0.0
 10
21253.422962
 20
6789.632231
 30
0.0
 10
21340.450214
 20
6919.877718
 30
0.0
 10
21340.450214
 20
7064.348752
 30
0.0
  0
SPLINE
  5
3a7
100
AcDbEntity
  8
0
 62
7
100
AcDbSpline
 70
8
 71
3
 72
8
 73
4
 74
0
 40
0
 40
0
 40
0
 40
0
 40
1
 40
1
 40
1
 40
1
 10
21340.450214
 20
7064.348752
 30
0.0
 10
21340.450214
 20
7261.620934
 30
0.0
 10
21180.529514
 20
7421.541634
 30
0.0
 10
20983.257332
 20
7421.541634
 30
0.0
  0
LWPOLYLINE
  5
3a8
100
AcDbEntity
  8
0
 62
7
100
AcDbPolyline
 90
1
 70
1
 10
28062.502921
 20
1534.060113
 30
0.0
  0
SPLINE
  5
3a9
100
AcDbEntity
  8
0
 62
7
100
AcDbSpline
 70
8
 71
3
 72
8
 73
4
 74
0
 40
0
 40
0
 40
0
 40
0
 40
1
 40
1
 40
1
 40
1
 10
14524.936988
 20
7338.224869
 30
0.0
 10
14380.465953
 20
7338.224869
 30
0.0
 10
14250.220467
 20
7251.197618
 30
0.0
 10
14194.933795
 20
7117.723785
 30
0.0
  0
SPLINE
  5
3aa
100
AcDbEntity
  8
0
 62
7
100
AcDbSpline
 70
8
 71
3
 72
8
 73
4
 74
0
 40
0
 40
0
 40
0
 40
0
 40
1
 40
1
 40
1
 40
1
 10
14194.933795
 20
7117.723785
 30
0.0
 10
14139.647124
 20
6984.249953
 30
0.0
 10
14170.207030
 20
6830.614927
 30
0.0
 10
14272.363479
 20
6728.458479
 30
0.0
  0
SPLINE
  5
3ab
100
AcDbEntity
  8
0
 62
7
100
AcDbSpline
 70
8
 71
3
 72
8
 73
4
 74
0
 40
0
 40
0
 40
0
 40
0
 40
1
 40
1
 40
1
 40
1
 10
14272.363479
 20
6728.458479
 30
0.0
 10
14374.519927
 20
6626.302030
 30
0.0
 10
14528.154954
 20
6595.742123
 30
0.0
 10
14661.628786
 20
6651.028795
 30
0.0
  0
SPLINE
  5
3ac
100
AcDbEntity
  8
0
 62
7
100
AcDbSpline
 70
8
 71
3
 72
8
 73
4
 74
0
 40
0
 40
0
 40
0
 40
0
 40
1
 40
1
 40
1
 40
1
 10
14661.628786
 20
6651.028795
 30
0.0
 10
14795.102618
 20
6706.315466
 30
0.0
 10
14882.129869
 20
6836.560953
 30
0.0
 10
14882.129869
 20
6981.031987
 30
0.0
  0
SPLINE
  5
3ad
100
AcDbEntity
  8
0
 62
7
100
AcDbSpline
 70
8
 71
3
 72
8
 73
4
 74
0
 40
0
 40
0
 40
0
 40
0
 40
1
 40
1
 40
1
 40
1
 10
14882.129869
 20
6981.031987
 30
0.0
 10
14882.129869
 20
7075.765430
 30
0.0
 10
14844.497156
 20
7166.618837
 30
0.0
 10
14777.510496
 20
7233.605496
 30
0.0
  0
SPLINE
  5
3ae
100
AcDbEntity
  8
0
 62
7
100
AcDbSpline
 70
8
 71
3
 72
8
 73
4
 74
0
 40
0
 40
0
 40
0
 40
0
 40
1
 40
1
 40
1
 40
1
 10
14777.510496
 20
7233.605496
 30
0.0
 10
14710.523837
 20
7300.592156
 30
0.0
 10
14619.670430
 20
7338.224869
 30
0.0
 10
14524.936988
 20
7338.224869
 30
0.0
  0
LWPOLYLINE
  5
3af
100
AcDbEntity
  8
0
 62
7
100
AcDbPolyline
 90
1
 70
1
 10
20983.257332
 20
7421.541634
 30
0.0
  0
SPLINE
  5
3b0
100
AcDbEntity
  8
0
 62
7
100
AcDbSpline
 70
8
 71
3
 72
8
 73
4
 74
0
 40
0
 40
0
 40
0
 40
0
 40
1
 40
1
 40
1
 40
1
 10
7170.764172
 20
9234.044149
 30
0.0
 10
7026.293138
 20
9234.044149
 30
0.0
 10
6896.047651
 20
9147.016897
 30
0.0
 10
6840.760980
 20
9013.543065
 30
0.0
  0
SPLINE
  5
3b1
100
AcDbEntity
  8
0
 62
7
100
AcDbSpline
 70
8
 71
3
 72
8
 73
4
 74
0
 40
0
 40
0
 40
0
 40
0
 40
1
 40
1
 40
1
 40
1
 10
6840.760980
 20
9013.543065
 30
0.0
 10
6785.474308
 20
8880.069233
 30
0.0
 10
6816.034215
 20
8726.434207
 30
0.0
 10
6918.190663
 20
8624.277758
 30
0.0
  0
SPLINE
  5
3b2
100
AcDbEntity
  8
0
 62
7
100
AcDbSpline
 70
8
 71
3
 72
8
 73
4
 74
0
 40
0
 40
0
 40
0
 40
0
 40
1
 40
1
 40
1
 40
1
 10
6918.190663
 20
8624.277758
 30
0.0
 10
7020.347112
 20
8522.121310
 30
0.0
 10
7173.982138
 20
8491.561403
 30
0.0
 10
7307.455970
 20
8546.848074
 30
0.0
  0
SPLINE
  5
3b3
100
AcDbEntity
  8
0
 62
7
100
AcDbSpline
 70
8
 71
3
 72
8
 73
4
 74
0
 40
0
 40
0
 40
0
 40
0
 40
1
 40
1
 40
1
 40
1
 10
7307.455970
 20
8546.848074
 30
0.0
 10
7440.929802
 20
8602.134746
 30
0.0
 10
7527.957054
 20
8732.380232
 30
0.0
 10
7527.957054
 20
8876.851267
 30
0.0
  0
SPLINE
  5
3b4
100
AcDbEntity
  8
0
 62
7
100
AcDbSpline
 70
8
 71
3
 72
8
 73
4
 74
0
 40
0
 40
0
 40
0
 40
0
 40
1
 40
1
 40
1
 40
1
 10
7527.957054
 20
8876.851267
 30
0.0
 10
7527.957054
 20
8971.584709
 30
0.0
 10
7490.324341
 20
9062.438116
 30
0.0
 10
7423.337681
 20
9129.424776
 30
0.0
  0
SPLINE
  5
3b5
100
AcDbEntity
  8
0
 62
7
100
AcDbSpline
 70
8
 71
3
 72
8
 73
4
 74
0
 40
0
 40
0
 40
0
 40
0
 40
1
 40
1
 40
1
 40
1
 10
7423.337681
 20
9129.424776
 30
0.0
 10
7356.351022
 20
9196.411435
 30
0.0
 10
7265.497615
 20
9234.044149
 30
0.0
 10
7170.764172
 20
9234.044149
 30
0.0
  0
LWPOLYLINE
  5
3b6
100
AcDbEntity
  8
0
 62
7
100
AcDbPolyline
 90
1
 70
1
 10
14524.936988
 20
7338.224869
 30
0.0
  0
SPLINE
  5
3b7
100
AcDbEntity
  8
0
 62
7
100
AcDbSpline
 70
8
 71
3
 72
8
 73
4
 74
0
 40
0
 40
0
 40
0
 40
0
 40
1
 40
1
 40
1
 40
1
 10
4379.092422
 20
15484.047551
 30
0.0
 10
4234.621388
 20
15484.047551
 30
0.0
 10
4104.375901
 20
15397.020300
 30
0.0
 10
4049.089230
 20
15263.546468
 30
0.0
  0
SPLINE
  5
3b8
100
AcDbEntity
  8
0
 62
7
100
AcDbSpline
 70
8
 71
3
 72
8
 73
4
 74
0
 40
0
 40
0
 40
0
 40
0
 40
1
 40
1
 40
1
 40
1
 10
4049.089230
 20
15263.546468
 30
0.0
 10
3993.802558
 20
15130.072636
 30
0.0
 10
4024.362465
 20
14976.437609
 30
0.0
 10
4126.518914
 20
14874.281161
 30
0.0
  0
SPLINE
  5
3b9
100
AcDbEntity
  8
0
 62
7
100
AcDbSpline
 70
8
 71
3
 72
8
 73
4
 74
0
 40
0
 40
0
 40
0
 40
0
 40
1
 40
1
 40
1
 40
1
 10
4126.518914
 20
14874.281161
 30
0.0
 10
4228.675362
 20
14772.124713
 30
0.0
 10
4382.310388
 20
14741.564806
 30
0.0
 10
4515.784220
 20
14796.851477
 30
0.0
  0
SPLINE
  5
3ba
100
AcDbEntity
  8
0
 62
7
100
AcDbSpline
 70
8
 71
3
 72
8
 73
4
 74
0
 40
0
 40
0
 40
0
 40
0
 40
1
 40
1
 40
1
 40
1
 10
4515.784220
 20
14796.851477
 30
0.0
 10
4649.258052
 20
14852.138149
 30
0.0
 10
4736.285304
 20
14982.383635
 30
0.0
 10
4736.285304
 20
15126.854670
 30
0.0
  0
SPLINE
  5
3bb
100
AcDbEntity
  8
0
 62
7
100
AcDbSpline
 70
8
 71
3
 72
8
 73
4
 74
0
 40
0
 40
0
 40
0
 40
0
 40
1
 40
1
 40
1
 40
1
 10
4736.285304
 20
15126.854670
 30
0.0
 10
4736.285304
 20
15221.588112
 30
0.0
 10
4698.652591
 20
15312.441519
 30
0.0
 10
4631.665931
 20
15379.428179
 30
0.0
  0
SPLINE
  5
3bc
100
AcDbEntity
  8
0
 62
7
100
AcDbSpline
 70
8
 71
3
 72
8
 73
4
 74
0
 40
0
 40
0
 40
0
 40
0
 40
1
 40
1
 40
1
 40
1
 10
4631.665931
 20
15379.428179
 30
0.0
 10
4564.679272
 20
15446.414838
 30
0.0
 10
4473.825865
 20
15484.047551
 30
0.0
 10
4379.092422
 20
15484.047551
 30
0.0
  0
LWPOLYLINE
  5
3bd
100
AcDbEntity
  8
0
 62
7
100
AcDbPolyline
 90
1
 70
1
 10
7170.764172
 20
9234.044149
 30
0.0
  0
SPLINE
  5
3be
100
AcDbEntity
  8
0
 62
7
100
AcDbSpline
 70
8
 71
3
 72
8
 73
4
 74
0
 40
0
 40
0
 40
0
 40
0
 40
1
 40
1
 40
1
 40
1
 10
33365.546829
 20
1786.811731
 30
0.0
 10
33284.002077
 20
1786.811731
 30
0.0
 10
33210.486747
 20
1737.690358
 30
0.0
 10
33179.280922
 20
1662.352831
 30
0.0
  0
SPLINE
  5
3bf
100
AcDbEntity
  8
0
 62
7
100
AcDbSpline
 70
8
 71
3
 72
8
 73
4
 74
0
 40
0
 40
0
 40
0
 40
0
 40
1
 40
1
 40
1
 40
1
 10
33179.280922
 20
1662.352831
 30
0.0
 10
33148.075096
 20
1587.015304
 30
0.0
 10
33165.324229
 20
1500.298059
 30
0.0
 10
33222.985075
 20
1442.637213
 30
0.0
  0
SPLINE
  5
3c0
100
AcDbEntity
  8
0
 62
7
100
AcDbSpline
 70
8
 71
3
 72
8
 73
4
 74
0
 40
0
 40
0
 40
0
 40
0
 40
1
 40
1
 40
1
 40
1
 10
33222.985075
 20
1442.637213
 30
0.0
 10
33280.645922
 20
1384.976366
 30
0.0
 10
33367.363167
 20
1367.727233
 30
0.0
 10
33442.700694
 20
1398.933059
 30
0.0
  0
SPLINE
  5
3c1
100
AcDbEntity
  8
0
 62
7
100
AcDbSpline
 70
8
 71
3
 72
8
 73
4
 74
0
 40
0
 40
0
 40
0
 40
0
 40
1
 40
1
 40
1
 40
1
 10
33442.700694
 20
1398.933059
 30
0.0
 10
33518.038221
 20
1430.138884
 30
0.0
 10
33567.159594
 20
1503.654214
 30
0.0
 10
33567.159594
 20
1585.198966
 30
0.0
  0
SPLINE
  5
3c2
100
AcDbEntity
  8
0
 62
7
100
AcDbSpline
 70
8
 71
3
 72
8
 73
4
 74
0
 40
0
 40
0
 40
0
 40
0
 40
1
 40
1
 40
1
 40
1
 10
33567.159594
 20
1585.198966
 30
0.0
 10
33567.159594
 20
1638.669996
 30
0.0
 10
33545.918310
 20
1689.950992
 30
0.0
 10
33508.108583
 20
1727.760720
 30
0.0
  0
SPLINE
  5
3c3
100
AcDbEntity
  8
0
 62
7
100
AcDbSpline
 70
8
 71
3
 72
8
 73
4
 74
0
 40
0
 40
0
 40
0
 40
0
 40
1
 40
1
 40
1
 40
1
 10
33508.108583
 20
1727.760720
 30
0.0
 10
33470.298855
 20
1765.570447
 30
0.0
 10
33419.017859
 20
1786.811731
 30
0.0
 10
33365.546829
 20
1786.811731
 30
0.0
  0
LWPOLYLINE
  5
3c4
100
AcDbEntity
  8
0
 62
7
100
AcDbPolyline
 90
1
 70
1
 10
4379.092422
 20
15484.047551
 30
0.0
  0
SPLINE
  5
3c5
100
AcDbEntity
  8
0
 62
7
100
AcDbSpline
 70
8
 71
3
 72
8
 73
4
 74
0
 40
0
 40
0
 40
0
 40
0
 40
1
 40
1
 40
1
 40
1
 10
32448.765552
 20
2807.626914
 30
0.0
 10
32367.220800
 20
2807.626914
 30
0.0
 10
32293.705470
 20
2758.505541
 30
0.0
 10
32262.499644
 20
2683.168014
 30
0.0
  0
SPLINE
  5
3c6
100
AcDbEntity
  8
0
 62
7
100
AcDbSpline
 70
8
 71
3
 72
8
 73
4
 74
0
 40
0
 40
0
 40
0
 40
0
 40
1
 40
1
 40
1
 40
1
 10
32262.499644
 20
2683.168014
 30
0.0
 10
32231.293819
 20
2607.830487
 30
0.0
 10
32248.542951
 20
2521.113242
 30
0.0
 10
32306.203798
 20
2463.452395
 30
0.0
  0
SPLINE
  5
3c7
100
AcDbEntity
  8
0
 62
7
100
AcDbSpline
 70
8
 71
3
 72
8
 73
4
 74
0
 40
0
 40
0
 40
0
 40
0
 40
1
 40
1
 40
1
 40
1
 10
32306.203798
 20
2463.452395
 30
0.0
 10
32363.864645
 20
2405.791548
 30
0.0
 10
32450.581890
 20
2388.542416
 30
0.0
 10
32525.919417
 20
2419.748241
 30
0.0
  0
SPLINE
  5
3c8
100
AcDbEntity
  8
0
 62
7
100
AcDbSpline
 70
8
 71
3
 72
8
 73
4
 74
0
 40
0
 40
0
 40
0
 40
0
 40
1
 40
1
 40
1
 40
1
 10
32525.919417
 20
2419.748241
 30
0.0
 10
32601.256944
 20
2450.954067
 30
0.0
 10
32650.378317
 20
2524.469397
 30
0.0
 10
32650.378317
 20
2606.014149
 30
0.0
  0
SPLINE
  5
3c9
100
AcDbEntity
  8
0
 62
7
100
AcDbSpline
 70
8
 71
3
 72
8
 73
4
 74
0
 40
0
 40
0
 40
0
 40
0
 40
1
 40
1
 40
1
 40
1
 10
32650.378317
 20
2606.014149
 30
0.0
 10
32650.378317
 20
2717.361804
 30
0.0
 10
32560.113207
 20
2807.626914
 30
0.0
 10
32448.765552
 20
2807.626914
 30
0.0
  0
LWPOLYLINE
  5
3ca
100
AcDbEntity
  8
0
 62
7
100
AcDbPolyline
 90
1
 70
1
 10
33365.546829
 20
1786.811731
 30
0.0
  0
SPLINE
  5
3cb
100
AcDbEntity
  8
0
 62
7
100
AcDbSpline
 70
8
 71
3
 72
8
 73
4
 74
0
 40
0
 40
0
 40
0
 40
0
 40
1
 40
1
 40
1
 40
1
 10
31594.690526
 20
3870.140960
 30
0.0
 10
31513.145775
 20
3870.140960
 30
0.0
 10
31439.630444
 20
3821.019587
 30
0.0
 10
31408.424619
 20
3745.682060
 30
0.0
  0
SPLINE
  5
3cc
100
AcDbEntity
  8
0
 62
7
100
AcDbSpline
 70
8
 71
3
 72
8
 73
4
 74
0
 40
0
 40
0
 40
0
 40
0
 40
1
 40
1
 40
1
 40
1
 10
31408.424619
 20
3745.682060
 30
0.0
 10
31377.218793
 20
3670.344533
 30
0.0
 10
31394.467926
 20
3583.627288
 30
0.0
 10
31452.128773
 20
3525.966441
 30
0.0
  0
SPLINE
  5
3cd
100
AcDbEntity
  8
0
 62
7
100
AcDbSpline
 70
8
 71
3
 72
8
 73
4
 74
0
 40
0
 40
0
 40
0
 40
0
 40
1
 40
1
 40
1
 40
1
 10
31452.128773
 20
3525.966441
 30
0.0
 10
31509.789620
 20
3468.305595
 30
0.0
 10
31596.506864
 20
3451.056462
 30
0.0
 10
31671.844391
 20
3482.262288
 30
0.0
  0
SPLINE
  5
3ce
100
AcDbEntity
  8
0
 62
7
100
AcDbSpline
 70
8
 71
3
 72
8
 73
4
 74
0
 40
0
 40
0
 40
0
 40
0
 40
1
 40
1
 40
1
 40
1
 10
31671.844391
 20
3482.262288
 30
0.0
 10
31747.181918
 20
3513.468113
 30
0.0
 10
31796.303291
 20
3586.983443
 30
0.0
 10
31796.303291
 20
3668.528195
 30
0.0
  0
SPLINE
  5
3cf
100
AcDbEntity
  8
0
 62
7
100
AcDbSpline
 70
8
 71
3
 72
8
 73
4
 74
0
 40
0
 40
0
 40
0
 40
0
 40
1
 40
1
 40
1
 40
1
 10
31796.303291
 20
3668.528195
 30
0.0
 10
31796.303291
 20
3721.999225
 30
0.0
 10
31775.062008
 20
3773.280221
 30
0.0
 10
31737.252280
 20
3811.089948
 30
0.0
  0
SPLINE
  5
3d0
100
AcDbEntity
  8
0
 62
7
100
AcDbSpline
 70
8
 71
3
 72
8
 73
4
 74
0
 40
0
 40
0
 40
0
 40
0
 40
1
 40
1
 40
1
 40
1
 10
31737.252280
 20
3811.089948
 30
0.0
 10
31699.442552
 20
3848.899676
 30
0.0
 10
31648.161556
 20
3870.140960
 30
0.0
 10
31594.690526
 20
3870.140960
 30
0.0
  0
LWPOLYLINE
  5
3d1
100
AcDbEntity
  8
0
 62
7
100
AcDbPolyline
 90
1
 70
1
 10
32448.765552
 20
2807.626914
 30
0.0
  0
SPLINE
  5
3d2
100
AcDbEntity
  8
0
 62
7
100
AcDbSpline
 70
8
 71
3
 72
8
 73
4
 74
0
 40
0
 40
0
 40
0
 40
0
 40
1
 40
1
 40
1
 40
1
 10
30886.400922
 20
4953.477451
 30
0.0
 10
30804.856170
 20
4953.477451
 30
0.0
 10
30731.340840
 20
4904.356078
 30
0.0
 10
30700.135014
 20
4829.018551
 30
0.0
  0
SPLINE
  5
3d3
100
AcDbEntity
  8
0
 62
7
100
AcDbSpline
 70
8
 71
3
 72
8
 73
4
 74
0
 40
0
 40
0
 40
0
 40
0
 40
1
 40
1
 40
1
 40
1
 10
30700.135014
 20
4829.018551
 30
0.0
 10
30668.929189
 20
4753.681024
 30
0.0
 10
30686.178321
 20
4666.963779
 30
0.0
 10
30743.839168
 20
4609.302932
 30
0.0
  0
SPLINE
  5
3d4
100
AcDbEntity
  8
0
 62
7
100
AcDbSpline
 70
8
 71
3
 72
8
 73
4
 74
0
 40
0
 40
0
 40
0
 40
0
 40
1
 40
1
 40
1
 40
1
 10
30743.839168
 20
4609.302932
 30
0.0
 10
30801.500015
 20
4551.642085
 30
0.0
 10
30888.217260
 20
4534.392953
 30
0.0
 10
30963.554787
 20
4565.598778
 30
0.0
  0
SPLINE
  5
3d5
100
AcDbEntity
  8
0
 62
7
100
AcDbSpline
 70
8
 71
3
 72
8
 73
4
 74
0
 40
0
 40
0
 40
0
 40
0
 40
1
 40
1
 40
1
 40
1
 10
30963.554787
 20
4565.598778
 30
0.0
 10
31038.892314
 20
4596.804604
 30
0.0
 10
31088.013687
 20
4670.319934
 30
0.0
 10
31088.013687
 20
4751.864686
 30
0.0
  0
SPLINE
  5
3d6
100
AcDbEntity
  8
0
 62
7
100
AcDbSpline
 70
8
 71
3
 72
8
 73
4
 74
0
 40
0
 40
0
 40
0
 40
0
 40
1
 40
1
 40
1
 40
1
 10
31088.013687
 20
4751.864686
 30
0.0
 10
31088.013687
 20
4805.335715
 30
0.0
 10
31066.772403
 20
4856.616711
 30
0.0
 10
31028.962675
 20
4894.426439
 30
0.0
  0
SPLINE
  5
3d7
100
AcDbEntity
  8
0
 62
7
100
AcDbSpline
 70
8
 71
3
 72
8
 73
4
 74
0
 40
0
 40
0
 40
0
 40
0
 40
1
 40
1
 40
1
 40
1
 10
31028.962675
 20
4894.426439
 30
0.0
 10
30991.152947
 20
4932.236167
 30
0.0
 10
30939.871952
 20
4953.477451
 30
0.0
 10
30886.400922
 20
4953.477451
 30
0.0
  0
LWPOLYLINE
  5
3d8
100
AcDbEntity
  8
0
 62
7
100
AcDbPolyline
 90
1
 70
1
 10
31594.690526
 20
3870.140960
 30
0.0
  0
SPLINE
  5
3d9
100
AcDbEntity
  8
0
 62
7
100
AcDbSpline
 70
8
 71
3
 72
8
 73
4
 74
0
 40
0
 40
0
 40
0
 40
0
 40
1
 40
1
 40
1
 40
1
 10
3202.014054
 20
4671.174254
 30
0.0
 10
2987.688022
 20
4671.174254
 30
0.0
 10
2813.942444
 20
4497.428676
 30
0.0
 10
2813.942444
 20
4283.102644
 30
0.0
  0
SPLINE
  5
3da
100
AcDbEntity
  8
0
 62
7
100
AcDbSpline
 70
8
 71
3
 72
8
 73
4
 74
0
 40
0
 40
0
 40
0
 40
0
 40
1
 40
1
 40
1
 40
1
 10
2813.942444
 20
4283.102644
 30
0.0
 10
2813.942444
 20
4068.776613
 30
0.0
 10
2987.688022
 20
3895.031035
 30
0.0
 10
3202.014054
 20
3895.031035
 30
0.0
  0
SPLINE
  5
3db
100
AcDbEntity
  8
0
 62
7
100
AcDbSpline
 70
8
 71
3
 72
8
 73
4
 74
0
 40
0
 40
0
 40
0
 40
0
 40
1
 40
1
 40
1
 40
1
 10
3202.014054
 20
3895.031035
 30
0.0
 10
3416.340086
 20
3895.031035
 30
0.0
 10
3590.085664
 20
4068.776613
 30
0.0
 10
3590.085664
 20
4283.102644
 30
0.0
  0
SPLINE
  5
3dc
100
AcDbEntity
  8
0
 62
7
100
AcDbSpline
 70
8
 71
3
 72
8
 73
4
 74
0
 40
0
 40
0
 40
0
 40
0
 40
1
 40
1
 40
1
 40
1
 10
3590.085664
 20
4283.102644
 30
0.0
 10
3590.085664
 20
4386.025635
 30
0.0
 10
3549.199665
 20
4484.733167
 30
0.0
 10
3476.422121
 20
4557.510711
 30
0.0
  0
SPLINE
  5
3dd
100
AcDbEntity
  8
0
 62
7
100
AcDbSpline
 70
8
 71
3
 72
8
 73
4
 74
0
 40
0
 40
0
 40
0
 40
0
 40
1
 40
1
 40
1
 40
1
 10
3476.422121
 20
4557.510711
 30
0.0
 10
3403.644576
 20
4630.288256
 30
0.0
 10
3304.937044
 20
4671.174254
 30
0.0
 10
3202.014054
 20
4671.174254
 30
0.0
  0
LWPOLYLINE
  5
3de
100
AcDbEntity
  8
0
 62
7
100
AcDbPolyline
 90
1
 70
1
 10
30886.400922
 20
4953.477451
 30
0.0
  0
SPLINE
  5
3df
100
AcDbEntity
  8
0
 62
7
100
AcDbSpline
 70
8
 71
3
 72
8
 73
4
 74
0
 40
0
 40
0
 40
0
 40
0
 40
1
 40
1
 40
1
 40
1
 10
11222.831585
 20
4567.006734
 30
0.0
 10
11065.871271
 20
4567.006734
 30
0.0
 10
10924.366279
 20
4472.456122
 30
0.0
 10
10864.300168
 20
4327.443700
 30
0.0
  0
SPLINE
  5
3e0
100
AcDbEntity
  8
0
 62
7
100
AcDbSpline
 70
8
 71
3
 72
8
 73
4
 74
0
 40
0
 40
0
 40
0
 40
0
 40
1
 40
1
 40
1
 40
1
 10
10864.300168
 20
4327.443700
 30
0.0
 10
10804.234056
 20
4182.431278
 30
0.0
 10
10837.435815
 20
4015.514761
 30
0.0
 10
10948.423518
 20
3904.527058
 30
0.0
  0
SPLINE
  5
3e1
100
AcDbEntity
  8
0
 62
7
100
AcDbSpline
 70
8
 71
3
 72
8
 73
4
 74
0
 40
0
 40
0
 40
0
 40
0
 40
1
 40
1
 40
1
 40
1
 10
10948.423518
 20
3904.527058
 30
0.0
 10
11059.411221
 20
3793.539355
 30
0.0
 10
11226.327739
 20
3760.337595
 30
0.0
 10
11371.340161
 20
3820.403707
 30
0.0
  0
SPLINE
  5
3e2
100
AcDbEntity
  8
0
 62
7
100
AcDbSpline
 70
8
 71
3
 72
8
 73
4
 74
0
 40
0
 40
0
 40
0
 40
0
 40
1
 40
1
 40
1
 40
1
 10
11371.340161
 20
3820.403707
 30
0.0
 10
11516.352582
 20
3880.469819
 30
0.0
 10
11610.903195
 20
4021.974810
 30
0.0
 10
11610.903195
 20
4178.935125
 30
0.0
  0
SPLINE
  5
3e3
100
AcDbEntity
  8
0
 62
7
100
AcDbSpline
 70
8
 71
3
 72
8
 73
4
 74
0
 40
0
 40
0
 40
0
 40
0
 40
1
 40
1
 40
1
 40
1
 10
11610.903195
 20
4178.935125
 30
0.0
 10
11610.903195
 20
4281.858115
 30
0.0
 10
11570.017196
 20
4380.565647
 30
0.0
 10
11497.239652
 20
4453.343192
 30
0.0
  0
SPLINE
  5
3e4
100
AcDbEntity
  8
0
 62
7
100
AcDbSpline
 70
8
 71
3
 72
8
 73
4
 74
0
 40
0
 40
0
 40
0
 40
0
 40
1
 40
1
 40
1
 40
1
 10
11497.239652
 20
4453.343192
 30
0.0
 10
11424.462107
 20
4526.120736
 30
0.0
 10
11325.754575
 20
4567.006734
 30
0.0
 10
11222.831585
 20
4567.006734
 30
0.0
  0
LWPOLYLINE
  5
3e5
100
AcDbEntity
  8
0
 62
7
100
AcDbPolyline
 90
1
 70
1
 10
3202.014054
 20
4671.174254
 30
0.0
  0
LWPOLYLINE
  5
3e6
100
AcDbEntity
  8
0
 62
7
100
AcDbPolyline
 90
1
 70
1
 10
11222.831585
 20
4567.006734
 30
0.0
  0
LWPOLYLINE
  5
3e7
100
AcDbEntity
  8
0
 62
7
100
AcDbPolyline
 90
2
 70
0
 10
148.960421
 20
17729.994808
 30
0.0
 10
40339.169954
 20
17729.994808
 30
0.0
  0
LWPOLYLINE
  5
3e8
100
AcDbEntity
  8
0
 62
7
100
AcDbPolyline
 90
2
 70
0
 10
148.960421
 20
17412.494799
 30
0.0
 10
148.960421
 20
17729.994808
 30
0.0
  0
LWPOLYLINE
  5
3e9
100
AcDbEntity
  8
0
 62
7
100
AcDbPolyline
 90
2
 70
0
 10
40337.317870
 20
15877.117670
 30
0.0
 10
40339.169954
 20
17729.994808
 30
0.0
  0
LWPOLYLINE
  5
3ea
100
AcDbEntity
  8
0
 62
7
100
AcDbPolyline
 90
2
 70
0
 10
149.754171
 20
15877.117670
 30
0.0
 10
148.960421
 20
17412.494799
 30
0.0
  0
LWPOLYLINE
  5
3eb
100
AcDbEntity
  8
0
 62
7
100
AcDbPolyline
 90
2
 70
0
 10
40337.317870
 20
2.117196
 30
0.0
 10
40337.317870
 20
15877.117670
 30
0.0
  0
LWPOLYLINE
  5
3ec
100
AcDbEntity
  8
0
 62
7
100
AcDbPolyline
 90
2
 70
0
 10
31899.755119
 20
2.117196
 30
0.0
 10
40337.317870
 20
2.117196
 30
0.0
  0
LWPOLYLINE
  5
3ed
100
AcDbEntity
  8
0
 62
7
100
AcDbPolyline
 90
2
 70
0
 10
149.754171
 20
2.117196
 30
0.0
 10
31899.755119
 20
2.117196
 30
0.0
  0
SPLINE
  5
3ee
100
AcDbEntity
  8
0
 62
7
100
AcDbSpline
 70
8
 71
3
 72
8
 73
4
 74
0
 40
0
 40
0
 40
0
 40
0
 40
1
 40
1
 40
1
 40
1
 10
14596.137952
 20
5588.329520
 30
0.0
 10
14450.618127
 20
5588.329520
 30
0.0
 10
14319.427121
 20
5500.670492
 30
0.0
 10
14263.739095
 20
5366.227704
 30
0.0
  0
SPLINE
  5
3ef
100
AcDbEntity
  8
0
 62
7
100
AcDbSpline
 70
8
 71
3
 72
8
 73
4
 74
0
 40
0
 40
0
 40
0
 40
0
 40
1
 40
1
 40
1
 40
1
 10
14263.739095
 20
5366.227704
 30
0.0
 10
14208.051069
 20
5231.784916
 30
0.0
 10
14238.832826
 20
5077.034573
 30
0.0
 10
14341.730881
 20
4974.136518
 30
0.0
  0
SPLINE
  5
3f0
100
AcDbEntity
  8
0
 62
7
100
AcDbSpline
 70
8
 71
3
 72
8
 73
4
 74
0
 40
0
 40
0
 40
0
 40
0
 40
1
 40
1
 40
1
 40
1
 10
14341.730881
 20
4974.136518
 30
0.0
 10
14444.628936
 20
4871.238463
 30
0.0
 10
14599.379279
 20
4840.456706
 30
0.0
 10
14733.822067
 20
4896.144732
 30
0.0
  0
SPLINE
  5
3f1
100
AcDbEntity
  8
0
 62
7
100
AcDbSpline
 70
8
 71
3
 72
8
 73
4
 74
0
 40
0
 40
0
 40
0
 40
0
 40
1
 40
1
 40
1
 40
1
 10
14733.822067
 20
4896.144732
 30
0.0
 10
14868.264855
 20
4951.832758
 30
0.0
 10
14955.923883
 20
5083.023764
 30
0.0
 10
14955.923883
 20
5228.543589
 30
0.0
  0
SPLINE
  5
3f2
100
AcDbEntity
  8
0
 62
7
100
AcDbSpline
 70
8
 71
3
 72
8
 73
4
 74
0
 40
0
 40
0
 40
0
 40
0
 40
1
 40
1
 40
1
 40
1
 10
14955.923883
 20
5228.543589
 30
0.0
 10
14955.923883
 20
5323.964751
 30
0.0
 10
14918.017974
 20
5415.477710
 30
0.0
 10
14850.545024
 20
5482.950661
 30
0.0
  0
SPLINE
  5
3f3
100
AcDbEntity
  8
0
 62
7
100
AcDbSpline
 70
8
 71
3
 72
8
 73
4
 74
0
 40
0
 40
0
 40
0
 40
0
 40
1
 40
1
 40
1
 40
1
 10
14850.545024
 20
5482.950661
 30
0.0
 10
14783.072073
 20
5550.423611
 30
0.0
 10
14691.559114
 20
5588.329520
 30
0.0
 10
14596.137952
 20
5588.329520
 30
0.0
  0
LWPOLYLINE
  5
3f4
100
AcDbEntity
  8
0
 62
7
100
AcDbPolyline
 90
2
 70
0
 10
149.754171
 20
15877.117670
 30
0.0
 10
149.754171
 20
2.117196
 30
0.0
  0
SPLINE
  5
3f5
100
AcDbEntity
  8
0
 62
7
100
AcDbSpline
 70
8
 71
3
 72
8
 73
4
 74
0
 40
0
 40
0
 40
0
 40
0
 40
1
 40
1
 40
1
 40
1
 10
39774.078145
 20
8090.186203
 30
0.0
 10
39628.558320
 20
8090.186203
 30
0.0
 10
39497.367314
 20
8002.527175
 30
0.0
 10
39441.679288
 20
7868.084387
 30
0.0
  0
SPLINE
  5
3f6
100
AcDbEntity
  8
0
 62
7
100
AcDbSpline
 70
8
 71
3
 72
8
 73
4
 74
0
 40
0
 40
0
 40
0
 40
0
 40
1
 40
1
 40
1
 40
1
 10
39441.679288
 20
7868.084387
 30
0.0
 10
39385.991262
 20
7733.641599
 30
0.0
 10
39416.773019
 20
7578.891256
 30
0.0
 10
39519.671074
 20
7475.993201
 30
0.0
  0
SPLINE
  5
3f7
100
AcDbEntity
  8
0
 62
7
100
AcDbSpline
 70
8
 71
3
 72
8
 73
4
 74
0
 40
0
 40
0
 40
0
 40
0
 40
1
 40
1
 40
1
 40
1
 10
39519.671074
 20
7475.993201
 30
0.0
 10
39622.569129
 20
7373.095146
 30
0.0
 10
39777.319472
 20
7342.313389
 30
0.0
 10
39911.762260
 20
7398.001415
 30
0.0
  0
SPLINE
  5
3f8
100
AcDbEntity
  8
0
 62
7
100
AcDbSpline
 70
8
 71
3
 72
8
 73
4
 74
0
 40
0
 40
0
 40
0
 40
0
 40
1
 40
1
 40
1
 40
1
 10
39911.762260
 20
7398.001415
 30
0.0
 10
40046.205048
 20
7453.689441
 30
0.0
 10
40133.864076
 20
7584.880447
 30
0.0
 10
40133.864076
 20
7730.400272
 30
0.0
  0
SPLINE
  5
3f9
100
AcDbEntity
  8
0
 62
7
100
AcDbSpline
 70
8
 71
3
 72
8
 73
4
 74
0
 40
0
 40
0
 40
0
 40
0
 40
1
 40
1
 40
1
 40
1
 10
40133.864076
 20
7730.400272
 30
0.0
 10
40133.864076
 20
7825.821434
 30
0.0
 10
40095.958167
 20
7917.334393
 30
0.0
 10
40028.485217
 20
7984.807344
 30
0.0
  0
SPLINE
  5
3fa
100
AcDbEntity
  8
0
 62
7
100
AcDbSpline
 70
8
 71
3
 72
8
 73
4
 74
0
 40
0
 40
0
 40
0
 40
0
 40
1
 40
1
 40
1
 40
1
 10
40028.485217
 20
7984.807344
 30
0.0
 10
39961.012266
 20
8052.280294
 30
0.0
 10
39869.499307
 20
8090.186203
 30
0.0
 10
39774.078145
 20
8090.186203
 30
0.0
  0
LWPOLYLINE
  5
3fb
100
AcDbEntity
  8
0
 62
7
100
AcDbPolyline
 90
1
 70
1
 10
14596.137952
 20
5588.329520
 30
0.0
  0
LWPOLYLINE
  5
3fc
100
AcDbEntity
  8
0
 62
7
100
AcDbPolyline
 90
1
 70
1
 10
39774.078145
 20
8090.186203
 30
0.0
  0
LWPOLYLINE
  5
3fd
100
AcDbEntity
  8
0
 62
7
100
AcDbPolyline
 90
2
 70
0
 10
5005.919726
 20
3444.690159
 30
0.0
 10
5005.919726
 20
7586.580176
 30
0.0
  0
LWPOLYLINE
  5
3fe
100
AcDbEntity
  8
0
 62
7
100
AcDbPolyline
 90
2
 70
0
 10
9344.460783
 20
3444.690159
 30
0.0
 10
5005.919726
 20
3444.690159
 30
0.0
  0
LWPOLYLINE
  5
3ff
100
AcDbEntity
  8
0
 62
7
100
AcDbPolyline
 90
2
 70
0
 10
9344.460783
 20
7586.580176
 30
0.0
 10
9344.460783
 20
3444.690159
 30
0.0
  0
LWPOLYLINE
  5
400
100
AcDbEntity
  8
0
 62
7
100
AcDbPolyline
 90
2
 70
0
 10
5005.919726
 20
7586.580176
 30
0.0
 10
9344.460783
 20
7586.580176
 30
0.0
  0
ENDSEC
  0
SECTION
  2
OBJECTS
  0
DICTIONARY
  5
C
330
0
100
AcDbDictionary
  3
ACAD_GROUP
350
D
  3
ACAD_MLINESTYLE
350
17
  0
DICTIONARY
  5
D
330
C
100
AcDbDictionary
  0
DICTIONARY
  5
1A
330
C
100
AcDbDictionary
  0
DICTIONARY
  5
17
330
C
100
AcDbDictionary
  3
STANDARD
350
18
  0
DICTIONARY
  5
19
330
C
100
AcDbDictionary
  0
ENDSEC
  0
EOF
